<svg width="130" height="130" fill="none" xmlns="http://www.w3.org/2000/svg"><path d="M44.688 46.719h-14.22V32.5a2.031 2.031 0 00-2.03-2.031 18.28 18.28 0 1018.28 18.281 2.031 2.031 0 00-2.03-2.031zM26.405 34.675V47.91l-9.343 9.344a14.189 14.189 0 019.343-22.578zm2.032 28.294a14.13 14.13 0 01-8.5-2.844l9.345-9.344h13.233A14.241 14.241 0 0128.438 62.97z" fill="#fff"/><path d="M36.563 42.656h16.25a2.031 2.031 0 002.03-2.031 18.304 18.304 0 00-18.28-18.281 2.031 2.031 0 00-2.032 2.031v16.25a2.031 2.031 0 002.032 2.031zm2.03-16.105a14.255 14.255 0 0112.044 12.043H38.594V26.55z" fill="#fff"/><path d="M79.219 52.813a26.406 26.406 0 1026.406 26.406 26.438 26.438 0 00-26.406-26.406zm-10.156 18.28V59.342a22.29 22.29 0 014.062-1.6v13.353h-4.063zm24.374 4.063v4.063H65v-4.063h28.438zm-8.124-4.062V57.74c1.403.4 2.763.936 4.062 1.6v11.754h-4.063zM81.25 56.979v14.115h-4.063V56.979c.67-.061 1.345-.104 2.032-.104.686 0 1.36.043 2.031.104zM65 61.996v9.098h-2.031a2.032 2.032 0 00-2.032 2.031v8.125a2.031 2.031 0 002.032 2.031h32.5A2.031 2.031 0 0097.5 81.25v-8.125a2.031 2.031 0 00-2.031-2.031h-2.031v-9.098a22.24 22.24 0 016.573 25.348H58.427A22.237 22.237 0 0165 61.996zm14.219 39.566a22.345 22.345 0 01-18.704-10.156h37.408a22.344 22.344 0 01-18.704 10.156z" fill="#DFB48F"/><path d="M125.269 112.241l-8.787-8.787a4.065 4.065 0 00-.701-4.764l-5.169-5.17a34.294 34.294 0 00-2.956-33.846V8.125a6.093 6.093 0 00-6.094-6.094H8.125a6.094 6.094 0 00-6.094 6.094v77.188a6.094 6.094 0 006.094 6.093H46.95a34.395 34.395 0 0032.893 22.337 34.407 34.407 0 0013.678-3.131l5.17 5.169a4.005 4.005 0 004.764.701l8.786 8.787a9.21 9.21 0 0013.028 0 9.21 9.21 0 000-13.028zM8.125 6.094h93.437a2.032 2.032 0 012.032 2.031v6.094h-97.5V8.125a2.031 2.031 0 012.031-2.031zm0 81.25a2.031 2.031 0 01-2.031-2.031V18.28h97.5v36.504a34.65 34.65 0 00-10.156-6.998V24.375a2.031 2.031 0 00-2.032-2.031h-8.125a2.031 2.031 0 00-2.031 2.031v20.416c-.676-.04-1.345-.103-2.031-.103-.687 0-1.355.063-2.031.103v-8.228a2.031 2.031 0 00-2.032-2.032h-8.125A2.032 2.032 0 0065 36.563v11.224a34.291 34.291 0 00-19.297 39.557H8.125zm81.25-41.127a34.168 34.168 0 00-4.063-.959V26.406h4.063v19.811zm-16.25-.959c-1.372.237-2.73.557-4.063.959v-7.623h4.063v6.664zM48.75 79.218a30.47 30.47 0 1130.469 30.47 30.508 30.508 0 01-30.469-30.47zm48.51 29.389a34.745 34.745 0 0011.347-11.347l4.302 4.302-11.347 11.347-4.302-4.302zm21.495 15.299a5.111 5.111 0 01-3.642-1.509l-8.647-8.647 7.284-7.284 8.647 8.647a5.145 5.145 0 011.116 5.613 5.154 5.154 0 01-4.758 3.18z" fill="#DFB48F"/><path d="M36.563 71.094H12.186a2.031 2.031 0 00-2.03 2.031v8.125a2.031 2.031 0 002.03 2.031h24.376a2.031 2.031 0 002.03-2.031v-8.125a2.031 2.031 0 00-2.03-2.031zm-2.032 8.125H14.22v-4.063h20.31v4.063z" fill="#DFB48F"/></svg>