<svg width="130" height="130" fill="none" xmlns="http://www.w3.org/2000/svg"><path fill-rule="evenodd" clip-rule="evenodd" d="M87.978 121.793H26.61a2.046 2.046 0 01-2.036-2.263c1.794-16.866 13.916-30.658 29.93-34.923-6.608-3.692-11.088-10.757-11.088-18.834 0-11.876 9.684-21.562 21.581-21.562 11.877 0 21.563 9.685 21.563 21.562 0 8.077-4.48 15.14-11.081 18.834a40.482 40.482 0 0112.97 6.082c3.9-3.696 9.163-5.967 14.939-5.967 11.978 0 21.745 9.772 21.745 21.75 0 11.979-9.766 21.745-21.745 21.745-6.011 0-11.467-2.459-15.41-6.424zM58.496 87.911c-15.09 2.707-26.964 14.667-29.538 29.788h33.849l-10.544-9.912a2.047 2.047 0 01-.51-2.222l6.743-17.654zM67.19 117.7h17.583a21.589 21.589 0 01-3.136-11.227c0-4.726 1.522-9.109 4.1-12.683a36.349 36.349 0 00-14.258-5.88l6.744 17.656a2.048 2.048 0 01-.509 2.221L67.19 117.7zm-2.193-34.458c9.622 0 17.468-7.846 17.468-17.468 0-9.621-7.846-17.468-17.468-17.468-9.639 0-17.486 7.846-17.486 17.468s7.847 17.468 17.486 17.468zm1.898 4.143a37.205 37.205 0 00-3.815 0l-7.012 18.36 8.93 8.395 8.91-8.394-7.013-18.361zm36.493 36.755c9.732 0 17.666-7.935 17.666-17.667 0-9.732-7.934-17.672-17.666-17.672-9.733 0-17.672 7.94-17.672 17.672s7.94 17.667 17.672 17.667z" fill="#DFB48F"/><path fill-rule="evenodd" clip-rule="evenodd" d="M100.59 103.534l8.137-8.223.004-.004a4.965 4.965 0 017.012-.019 4.962 4.962 0 01.023 7.009l-.001.001c-3.889 3.924-7.749 7.872-11.656 11.779a4.966 4.966 0 01-7.018 0l-6.474-6.481a4.962 4.962 0 01-.004-7.014l.004-.003a4.964 4.964 0 017.018 0l2.955 2.955zm-1.435 4.333l-4.404-4.405a.884.884 0 00-1.25 1.251l6.474 6.48a.884.884 0 001.25 0c3.903-3.902 7.758-7.846 11.642-11.765a.885.885 0 000-1.248.881.881 0 00-1.244.003l-9.576 9.677a2.041 2.041 0 01-2.892.007zM58.417 11.558c.91-2.39 3.69-9.707 3.69-9.707.931-2.468 4.443-2.468 5.374 0l3.69 9.707 10.366.51c2.66.12 3.727 3.47 1.672 5.108l-8.1 6.514L77.83 33.7c.709 2.54-2.12 4.61-4.332 3.175a.099.099 0 00-.007-.004l-8.697-5.692-8.69 5.691-.007.005c-2.204 1.43-5.029-.63-4.344-3.162v-.002L54.48 23.69l-8.094-6.509c-2.062-1.643-.995-4.994 1.656-5.113l10.375-.51zM51.451 16l6.203 4.988c.918.722 1.29 1.85.992 2.984l-.004.016-2.093 7.698 6.658-4.361c.987-.656 2.18-.657 3.168-.005l6.663 4.361-2.091-7.693-.004-.016c-.299-1.134.073-2.263.99-2.983L78.138 16l-7.968-.392h-.005c-1.165-.06-2.12-.747-2.538-1.85l-2.833-7.451-2.832 7.449c-.418 1.105-1.374 1.792-2.539 1.852h-.004L51.45 16zm49.27 25.836l3.69-9.707c.931-2.468 4.442-2.468 5.373 0l3.69 9.707 10.367.51c2.66.119 3.727 3.47 1.672 5.107l-8.101 6.514 2.722 10.012c.709 2.539-2.12 4.61-4.331 3.175l-.007-.005-8.698-5.692-8.689 5.692-.008.005c-2.203 1.43-5.028-.631-4.343-3.162v-.003l2.725-10.022-8.093-6.508c-2.063-1.644-.995-4.994 1.656-5.113l10.375-.51zm-6.967 4.442l6.203 4.987c.919.722 1.291 1.85.992 2.985l-.004.016-2.093 7.698 6.659-4.362c.986-.656 2.18-.657 3.168-.004l6.663 4.36-2.092-7.692-.004-.016c-.299-1.135.074-2.264.991-2.983l6.204-4.99-7.968-.391h-.004c-1.165-.06-2.121-.747-2.538-1.85l-2.833-7.452-2.832 7.45c-.418 1.105-1.374 1.792-2.539 1.852h-.005l-7.968.392zm-77.64-4.442l3.69-9.707c.93-2.468 4.442-2.468 5.373 0l3.69 9.707 10.367.51c2.66.119 3.727 3.47 1.672 5.107l-8.1 6.514 2.721 10.012c.71 2.539-2.12 4.61-4.331 3.175l-.007-.005-8.698-5.692-8.689 5.692-.008.005c-2.203 1.43-5.028-.631-4.343-3.162v-.003l2.725-10.022-8.093-6.508c-2.063-1.644-.996-4.994 1.656-5.113l10.375-.51zm-6.967 4.442l6.203 4.987c.919.722 1.29 1.85.992 2.985l-.004.016-2.093 7.698 6.659-4.362c.986-.656 2.18-.657 3.168-.004l6.663 4.36-2.092-7.692-.004-.016c-.298-1.135.074-2.264.99-2.983l6.205-4.99-7.968-.391h-.004c-1.165-.06-2.121-.747-2.538-1.85l-2.833-7.452-2.832 7.45c-.418 1.105-1.374 1.792-2.54 1.852h-.004l-7.968.392z" fill="#fff"/></svg>