<svg width="130" height="130" fill="none" xmlns="http://www.w3.org/2000/svg"><path d="M65 96.584a2.44 2.44 0 110 4.88 2.44 2.44 0 010-4.88zm41.387-35.547c8.345 0 15.134 6.79 15.134 15.135 0 8.345-6.789 15.135-15.134 15.135-8.346 0-15.135-6.79-15.135-15.135 0-8.346 6.79-15.135 15.135-15.135zm0 4.879c-5.655 0-10.256 4.6-10.256 10.256 0 5.655 4.601 10.256 10.256 10.256s10.256-4.601 10.256-10.256-4.601-10.256-10.256-10.256z" fill="#DFB48F" stroke="#000" stroke-width=".2"/><path d="M65 86.428c9.688 0 18.48 4.508 24.183 12.002l.068.09.081-.08c4.327-4.288 10.683-6.934 17.055-6.934 12.747 0 23.513 10.423 23.513 22.752v5.078a2.439 2.439 0 01-2.439 2.439H2.539a2.44 2.44 0 01-2.44-2.439v-5.078c0-12.329 10.767-22.752 23.514-22.752 6.373 0 12.728 2.647 17.056 6.933l.081.082.068-.091A30.317 30.317 0 0165 86.428zm-41.387 9.957c-10.098 0-18.634 8.179-18.634 17.873v2.638H34.63v-.099a30.37 30.37 0 013.396-13.959l.032-.06-.045-.051c-3.396-3.895-8.876-6.342-14.4-6.342zM65 91.307c-13.953 0-25.49 11.321-25.49 25.49v.099h50.98v-.099c0-13.982-11.306-25.49-25.49-25.49zm41.387 5.078c-5.525 0-11.005 2.447-14.4 6.342l-.046.051.032.06a30.37 30.37 0 013.396 13.959v.099h29.652v-2.638c0-9.694-8.536-17.873-18.634-17.873z" fill="#DFB48F" stroke="#000" stroke-width=".2"/><path d="M23.613 61.037c8.346 0 15.135 6.79 15.135 15.135 0 8.345-6.79 15.135-15.135 15.135-8.345 0-15.134-6.79-15.134-15.135 0-8.346 6.789-15.135 15.134-15.135zm0 4.879c-5.655 0-10.256 4.6-10.256 10.256 0 5.655 4.601 10.256 10.256 10.256S33.87 81.827 33.87 76.172s-4.6-10.256-10.256-10.256zM65 45.803c11.145 0 20.213 9.067 20.213 20.213 0 11.145-9.068 20.212-20.213 20.212-11.145 0-20.213-9.067-20.213-20.212 0-11.146 9.068-20.213 20.213-20.213zm0 4.879c-8.456 0-15.334 6.878-15.334 15.334S56.544 81.35 65 81.35s15.334-6.878 15.334-15.334S73.456 50.682 65 50.682z" fill="#DFB48F" stroke="#000" stroke-width=".2"/><path d="M64.907.1c.932 0 1.782.53 2.19 1.368l4.904 10.025.023.048.053.008 10.951 1.59a2.438 2.438 0 011.353 4.159l-7.93 7.73-.038.037.009.051 1.874 10.914a2.44 2.44 0 01-3.54 2.572l-9.802-5.153-.047-.024-.046.024-9.8 5.153a2.438 2.438 0 01-3.538-2.57l1.87-10.916.01-.052-.038-.037-7.93-7.73a2.438 2.438 0 011.351-4.16l10.952-1.588.052-.008.023-.048 4.903-10.026A2.44 2.44 0 0164.907.1zm-.09 8.174l-3.21 6.566v0a2.436 2.436 0 01-1.841 1.343l-7.186 1.044-.201.028.145.142 5.202 5.069c.574.56.837 1.367.702 2.159l-1.229 7.16-.034.2.18-.094 6.427-3.381a2.441 2.441 0 012.27 0l6.43 3.38.178.094-.034-.199-1.228-7.16a2.44 2.44 0 01.7-2.16l5.203-5.069.145-.141-.2-.028-7.187-1.044a2.437 2.437 0 01-1.841-1.342l-3.21-6.567-.09-.183-.09.183zm43.162 14.677h.001a2.44 2.44 0 012.187 1.36l3.318 6.725.023.047.053.008 7.419 1.078a2.438 2.438 0 011.473 4.034l-.12.125-5.37 5.236-.037.037.009.051 1.267 7.39a2.44 2.44 0 01-3.539 2.571l-6.637-3.488-.047-.024-.045.024-6.64 3.488a2.438 2.438 0 01-3.538-2.571l1.267-7.39.01-.051-.039-.036-5.368-5.237h-.001a2.438 2.438 0 011.353-4.16l7.42-1.077.052-.008.024-.047 3.319-6.725a2.44 2.44 0 012.186-1.36zm-.089 8.134l-1.632 3.308a2.443 2.443 0 01-1.837 1.334l-3.651.529-.201.03.145.14 2.642 2.578c.575.56.837 1.367.702 2.157l-.624 3.636-.035.2.18-.095 3.267-1.715a2.438 2.438 0 012.269 0l3.265 1.714.179.094-.035-.2-.623-3.634a2.433 2.433 0 01.702-2.157l2.641-2.577.146-.142-.202-.03-3.65-.528a2.441 2.441 0 01-1.837-1.335l-1.632-3.307-.09-.182-.089.182zm-86.238-8.134c.93 0 1.776.528 2.187 1.36l3.318 6.725.023.047.052.008 7.42 1.078a2.437 2.437 0 011.473 4.034l-.12.125-5.37 5.236-.037.037.008.051 1.268 7.39a2.438 2.438 0 01-3.539 2.571l-6.637-3.488-.047-.024-.046.024-6.638 3.488a2.44 2.44 0 01-3.538-2.571l1.266-7.39.01-.051-.039-.036-5.368-5.237h-.001a2.438 2.438 0 011.353-4.16l7.42-1.077.052-.008.023-.047 3.32-6.725a2.44 2.44 0 012.187-1.36zm-.091 8.134l-1.632 3.308a2.441 2.441 0 01-1.836 1.334l-3.653.529-.2.03.145.14 2.642 2.578c.575.56.838 1.367.701 2.157l-.623 3.636-.035.2.18-.095 3.268-1.715a2.437 2.437 0 012.268 0l3.266 1.714.178.094-.034-.2-.624-3.634a2.44 2.44 0 01.701-2.157l2.642-2.577.146-.142-.202-.03-3.65-.528a2.44 2.44 0 01-1.837-1.335l-1.632-3.307-.09-.182-.09.182z" fill="#fff" stroke="#000" stroke-width=".2"/><path d="M72.7 100.591a2.438 2.438 0 013.378-.7 20.292 20.292 0 017.188 8.24 2.439 2.439 0 01-4.405 2.097v-.001a15.421 15.421 0 00-5.462-6.258 2.44 2.44 0 01-.699-3.378z" fill="#DFB48F" stroke="#000" stroke-width=".2"/></svg>