<svg width="130" height="130" fill="none" xmlns="http://www.w3.org/2000/svg"><path d="M95.656 34.076h15.424c1.121 0 2.031.91 2.031 2.031v24.848a2.032 2.032 0 01-4.063 0V38.14h-11.36v34.898a2.031 2.031 0 01-4.063 0v-36.93c0-1.122.91-2.03 2.031-2.03zM53.804 81.212a2.03 2.03 0 002.03-2.03V58.877a2.03 2.03 0 00-2.03-2.031H38.38c-1.121 0-2.03.91-2.03 2.031v17.045a2.031 2.031 0 004.062 0V60.909h11.36v18.272c0 1.122.91 2.031 2.032 2.031zM9.742 98.517c1.122 0 2.031-.91 2.031-2.031V72.387h11.361V84.55a2.031 2.031 0 004.063 0V70.356c0-1.122-.91-2.031-2.032-2.031H9.742c-1.122 0-2.031.91-2.031 2.03v26.13c0 1.123.91 2.032 2.031 2.032zm15.424.697a2.031 2.031 0 00-2.032 2.031v19.559h-11.36v-7.623a2.031 2.031 0 10-4.063 0v9.654c0 1.122.91 2.031 2.031 2.031h15.423a2.031 2.031 0 002.032-2.031v-21.59c0-1.122-.91-2.032-2.031-2.032zm39.821-17.241a2.031 2.031 0 004.063 0v-32.41h11.36v33.825a2.031 2.031 0 004.063 0V47.532c0-1.122-.91-2.031-2.031-2.031H67.019c-1.122 0-2.032.91-2.032 2.03v34.442zm17.455 14.722a2.03 2.03 0 00-2.031 2.03v22.079H69.05V95.467a2.031 2.031 0 00-4.063 0v27.369c0 1.121.91 2.031 2.032 2.031h15.423c1.122 0 2.031-.91 2.031-2.031v-24.11c0-1.122-.91-2.031-2.031-2.031zm-28.638-6.05a2.031 2.031 0 00-2.032 2.03v28.129h-11.36V91.017a2.031 2.031 0 00-4.063 0v31.818c0 1.122.91 2.031 2.032 2.031h15.423a2.031 2.031 0 002.03-2.031v-30.16a2.03 2.03 0 00-2.03-2.03zm57.276-14.95c-1.122 0-2.032.91-2.032 2.032v43.077h-11.36V89.808a2.031 2.031 0 00-4.063 0v33.027c0 1.122.91 2.032 2.031 2.032h15.424c1.121 0 2.031-.91 2.031-2.032V77.727a2.031 2.031 0 00-2.031-2.032z" fill="#DFB48F"/><path d="M127.532 56.446a2.03 2.03 0 00-1.559-.772l-9.357-.165a2.032 2.032 0 00-.071 4.062l3.635.064-38.449 30.117-42.928-9.07a2.033 2.033 0 00-1.663.381L2.82 107.624a2.032 2.032 0 002.486 3.213l33.577-25.986 42.936 9.07c.587.125 1.2-.017 1.672-.387L122.74 62.79l-.796 3.618a2.031 2.031 0 003.968.873l2.01-9.14a2.035 2.035 0 00-.39-1.695zm-117.785.828c.438 0 .88-.141 1.25-.432l2.341-1.834a2.031 2.031 0 00-2.505-3.198l-2.34 1.834a2.031 2.031 0 001.254 3.63zm8.18-6.41c.439 0 .88-.14 1.252-.431l2.34-1.834a2.031 2.031 0 10-2.505-3.198l-2.34 1.834a2.031 2.031 0 001.253 3.63zm8.181-6.409c.439 0 .88-.14 1.252-.432l2.34-1.834a2.031 2.031 0 00-2.505-3.197l-2.34 1.833a2.031 2.031 0 001.253 3.63zm8.181-6.409c.439 0 .88-.141 1.252-.432l2.34-1.834a2.031 2.031 0 10-2.505-3.198l-2.34 1.834a2.031 2.031 0 001.253 3.63zm8.181-6.41c.439 0 .88-.14 1.252-.432l2.34-1.833a2.031 2.031 0 00-2.505-3.198l-2.34 1.833a2.031 2.031 0 001.254 3.63zm50.752-12.305c.522 0 1.045-.2 1.442-.6l6.053-6.105-.404 3.613a2.03 2.03 0 104.037.451l1.039-9.3a2.028 2.028 0 00-2.196-2.25l-9.322.818a2.031 2.031 0 00.355 4.047l3.688-.323-6.135 6.188a2.031 2.031 0 001.443 3.461zm-7.318 7.38c.523 0 1.046-.2 1.443-.601l2.093-2.111a2.031 2.031 0 10-2.885-2.86l-2.093 2.11a2.031 2.031 0 001.442 3.462zm-7.317 7.38c.522 0 1.045-.2 1.442-.601l2.093-2.111a2.031 2.031 0 10-2.884-2.86l-2.094 2.11a2.031 2.031 0 001.443 3.462zm-8.622 2.554l2.828.917a2.028 2.028 0 002.559-1.304 2.031 2.031 0 00-1.306-2.56l-2.828-.917a2.03 2.03 0 10-1.253 3.864zm-9.885-3.207l2.828.917a2.03 2.03 0 101.253-3.864l-2.828-.917a2.031 2.031 0 10-1.253 3.864zm-9.886-3.208l2.828.918a2.032 2.032 0 001.254-3.864l-2.828-.918a2.03 2.03 0 10-1.254 3.864z" fill="#fff"/></svg>