<svg width="130" height="130" fill="none" xmlns="http://www.w3.org/2000/svg"><g clip-path="url(#clip0_620_2818)"><path d="M128.872 94.585l-13.325-6.663-8.48-22.06a2.036 2.036 0 00-1.138-1.158l-52.62-21.033a2.03 2.03 0 00-2.183.447l-7.018 7.018a2.032 2.032 0 00-.437 2.174l21.034 52.619a2.038 2.038 0 001.158 1.138l22.06 8.48 6.662 13.325A2.03 2.03 0 0096.078 130c.108.01.217.01.325 0a2.033 2.033 0 001.432-.6L129.4 97.835c.233-.224.408-.5.512-.806a2.02 2.02 0 00.088-.951 2.04 2.04 0 00-1.128-1.493zm-80.945-41.54l1.127-1.117 26.193 26.193a11.954 11.954 0 102.874-2.874L51.93 49.054l1.117-1.127 50.547 20.221 7.973 20.739-22.679 22.679-20.739-7.973-20.221-50.547zm37.08 24.07a7.891 7.891 0 11-.023 15.783 7.891 7.891 0 01.023-15.782zm11.954 47.42l-5.078-10.156 22.476-22.476 10.156 5.079-27.554 27.553z" fill="#DFB48F"/><path d="M38.848 108.672a2.093 2.093 0 00-2.874 0l-2.58 2.58a55.768 55.768 0 01-1.015-64.736 10.42 10.42 0 0014.178-14.107 55.767 55.767 0 0164.736 1.016l-2.62 2.549c-.378.38-.59.895-.589 1.432a2.023 2.023 0 00.589 1.442l8.957 8.887a2.033 2.033 0 002.864 0l8.908-8.907a2.038 2.038 0 00.44-2.215 2.038 2.038 0 00-.44-.66l-8.908-8.907a2.03 2.03 0 00-2.864 0l-3.443 3.423a59.827 59.827 0 00-60.023-6.977l11.71-11.68a6.226 6.226 0 10-2.904-2.874L43.204 28.732a10.43 10.43 0 00-14.472 14.473L8.938 62.969a6.236 6.236 0 102.874 2.874l11.71-11.68a59.83 59.83 0 006.948 60.024l-3.433 3.443a2.031 2.031 0 000 2.864l8.907 8.907a2.028 2.028 0 002.213.444c.247-.103.472-.254.66-.444l8.918-8.907a2.031 2.031 0 000-2.864l-8.887-8.958zm80.235-77.34l6.033 6.033-6.033 6.033-6.033-6.033 6.033-6.033zM67.032 4.702a2.163 2.163 0 110 3.047 2.152 2.152 0 010-3.046zM32.907 32.908a6.347 6.347 0 018.998 0 6.369 6.369 0 11-8.998 0zM7.76 70.078a2.163 2.163 0 01-3.047-3.047 2.174 2.174 0 013.047 0 2.154 2.154 0 010 3.047zm29.646 54.976l-6.033-6.033 6.033-6.032 6.033 6.032-6.033 6.033z" fill="#fff"/></g><defs><clipPath id="clip0_620_2818"><path fill="#fff" d="M0 0h130v130H0z"/></clipPath></defs></svg>