<svg width="130" height="130" fill="none" xmlns="http://www.w3.org/2000/svg"><path d="M62.292 7.35c19.163 0 35.72 12.19 39.447 30.76l.053.262.266.019c15.594 1.119 27.592 13.846 27.592 29.318 0 16.235-13.207 29.442-29.442 29.441H73.125a2.36 2.36 0 010-4.716h27.083c13.632 0 24.726-11.094 24.726-24.726-.001-13.65-11.28-24.916-24.781-24.726-.6 0-1.244-.211-1.758-.576-.449-.319-.775-.737-.902-1.205l-.042-.203C94.973 23.601 79.86 10.484 62.292 10.483c-19.607 0-35.559 15.952-35.559 35.559 0 1.537.132 3.169.415 5.13a2.356 2.356 0 01-.566 1.896c-.434.481-1.156.675-1.842.795a5.204 5.204 0 01-.481-.046l-.032-.005h-.03c-10.471.005-19.13 8.668-19.13 19.313 0 10.648 8.66 19.309 19.308 19.309h27.083a2.36 2.36 0 010 4.716H24.375C11.13 97.15.35 86.37.35 73.125c0-12.385 9.423-22.61 21.472-23.892l.34-.036-.027-.34c-.08-.982-.118-1.91-.118-2.815 0-22.192 18.046-38.692 40.275-38.692z" fill="#EB0E54" stroke="#fff" stroke-width=".7"/><path d="M60.626 66.04a2.343 2.343 0 012.57-.512l.002.001a2.362 2.362 0 011.452 2.179v54.167a2.36 2.36 0 01-4.716 0V73.401l-.598.598-6.208 6.207a2.36 2.36 0 01-3.334 0 2.36 2.36 0 010-3.334L60.626 66.04z" fill="#DFB48F" stroke="#fff" stroke-width=".7"/><path d="M60.622 66.044a2.36 2.36 0 013.334 0L74.79 76.877c.92.92.92 2.415 0 3.335a2.349 2.349 0 01-1.665.688 2.373 2.373 0 01-1.672-.69l-10.83-10.832a2.36 2.36 0 010-3.334z" fill="#DFB48F" stroke="#fff" stroke-width=".7"/></svg>