<svg width="130" height="130" fill="none" xmlns="http://www.w3.org/2000/svg"><g clip-path="url(#clip0_666_3794)" stroke="#000" stroke-width=".5"><path d="M41.736 63.488a2.287 2.287 0 013.238 0v.001c.839.837.892 2.163.157 3.063l-.157.174a2.292 2.292 0 01-3.064.156l-.174-.156a2.287 2.287 0 010-3.237v0z" fill="#fff"/><path d="M127.404.251h.001a2.273 2.273 0 011.674.669v0c.443.444.685 1.05.67 1.676-.015.615-.433 15.334-5.555 31.113-3.589 11.056-8.593 19.835-14.863 26.104L94.973 74.175l-.063.062-.01.087-2.595 23.352a2.293 2.293 0 01-.657 1.366l-21.543 21.544c-1.326 1.325-3.616.58-3.884-1.295l-2.3-16.087-.018-.124-.11-.059-.137-.083a2.24 2.24 0 01-.382-.306l-3.984-3.984-.227-.226-.164.274-6.404 10.676a2.289 2.289 0 01-3.58.44l-28.73-28.726a2.288 2.288 0 01-.665-1.768l.013-.13c.086-.7.49-1.321 1.094-1.684L31.304 71.1l.272-.165-.224-.225c-2.038-2.064-3.066-3.064-3.62-3.615-.552-.55-.615-.638-.752-.89l-.061-.11-.123-.018-16.088-2.299a2.287 2.287 0 01-1.847-1.542v0l-.046-.155a2.29 2.29 0 01.598-2.187L30.958 38.35c.368-.368.849-.6 1.365-.657L55.68 35.1l.087-.01.062-.062L70.186 20.67c6.27-6.27 15.049-11.275 26.105-14.864C112.07.684 126.789.266 127.404.25zm-38.18 79.672l-20.915 20.913-.09.089.018.123 1.797 12.568.07.495 17.739-17.738.01-.088 1.796-16.158.079-.708-.504.504zm-54.476-5.55l-8.975 5.385-.275.165 24.58 24.58.165-.275 5.383-8.976.1-.167-.137-.139-20.536-20.535-.138-.139-.167.101zm61.485-63.718c-9.642 3.31-17.319 7.76-22.81 13.251l-14.988 14.99L32.4 64.93l-.176.176.176.178 32.494 32.493.176-.176 3.592-3.593.177-.177-19.925-19.925a2.29 2.29 0 013.237-3.238l19.925 19.925 34.017-34.017c5.491-5.49 9.94-13.167 13.252-22.81l.051-.147-23.015-23.014-.148.05zM49.876 40.351l-16.162 1.796-.087.01-.063.062-17.322 17.323-.353.353.494.07 12.568 1.797.124.017.09-.088 21.419-21.42-.708.08zm74.87-35.366c-4.348.321-13.297 1.267-23.017 3.966l-.413.114.303.304 19.012 19.01.303.304.115-.413c2.699-9.718 3.646-18.668 3.966-23.017l.02-.29-.289.022z" fill="#DFB48F"/><path d="M27.367 99.395a2.289 2.289 0 113.238 3.237L4.157 129.079a2.289 2.289 0 11-3.236-3.237l26.446-26.447zm7.181 7.181a2.289 2.289 0 013.237 3.236l-15.677 15.677a2.29 2.29 0 01-3.236-3.237l15.676-15.676zM20.19 92.213a2.289 2.289 0 113.237 3.236L7.75 111.126a2.29 2.29 0 01-3.236-3.237l15.675-15.676zm51.788-55.385c5.842-5.84 15.348-5.841 21.19 0 5.842 5.843 5.842 15.35.002 21.19-5.858 5.858-15.337 5.857-21.192 0-5.859-5.856-5.853-15.336 0-21.19zm17.954 3.236c-4.058-4.055-10.66-4.055-14.716 0a10.4 10.4 0 000 14.717c4.067 4.07 10.649 4.067 14.716 0 4.057-4.056 4.055-10.659 0-14.716z" fill="#fff"/></g><defs><clipPath id="clip0_666_3794"><path fill="#fff" d="M0 0h130v130H0z"/></clipPath></defs></svg>