<svg width="130" height="130" fill="none" xmlns="http://www.w3.org/2000/svg"><g clip-path="url(#clip0_417_619)"><path d="M65.209 11.177c.632 0 1.211.362 1.49.928l4.453 9.025.117.236.26.037 9.965 1.44v.002a1.677 1.677 0 011.307 1.023l.04.113a1.69 1.69 0 01-.426 1.704l-7.209 7.021-.188.184.043.258 1.593 9.268.013.077.036.069a1.7 1.7 0 01.194.783c0 .922-.742 1.667-1.668 1.667h-.107c-.269 0-.535-.064-.781-.193l-8.905-4.68-.233-.121-.232.122-8.9 4.68h-.002a1.66 1.66 0 01-1.66-.061l-.101-.067a1.673 1.673 0 01-.659-1.626l1.702-9.912.044-.26-.189-.183-7.204-7.02v0a1.665 1.665 0 01.927-2.841l-.001-.001 9.956-1.446.26-.037.116-.236 4.458-9.024v-.002c.28-.569.857-.927 1.491-.927zm-.454 6.342l-2.774 5.61v.002a2.704 2.704 0 01-2.034 1.481l-6.196.905-1.002.146.725.706 4.48 4.366.001.002a2.7 2.7 0 01.781 2.4L57.68 39.3l-.171.999.896-.473 5.53-2.914c.097-.05.335-.13.623-.201.287-.07.535-.11.645-.11.439 0 .882.111 1.268.32l.006.003 5.525 2.903.896.47-.171-.997-1.056-6.164a2.707 2.707 0 01.786-2.406l.001-.002 4.475-4.36.725-.707-1.003-.145-6.191-.9h-.001a2.732 2.732 0 01-1.955-1.332l-.078-.146-2.779-5.62-.448-.908-.448.908z" fill="#fff" stroke="#fff"/><path d="M23.43 38.269c4.745 4.642 17.945 15.21 31.671 19.207-.027 3.965-.682 11.955-1.815 15.99-1.012.271-2.03.51-3.049.715-3.358.677-5.872 3.028-6.673 6.078-3.521 1.137-8.299 4.907-9.615 6.868-.758 1.105-1.05 2.606-.79 4.014.709 4.04 4.224 6.977 8.368 6.987l39.748.006 7.631-.006c4.139-.01 7.654-2.946 8.37-6.993.243-1.413-.055-2.908-.791-3.992-1.328-1.971-6.105-5.747-9.631-6.884-.802-3.05-3.31-5.4-6.663-6.078a57.928 57.928 0 01-3.05-.715c-1.137-4.051-1.792-12.041-1.814-15.99 13.726-3.997 26.926-14.565 31.677-19.207 2.833-2.768 5.925-6.251 7.361-11.066 1.554-5.217-.163-10.314-4.491-13.293-3.385-2.33-7.323-3.169-11.456-2.46-.785.13-1.554.348-2.324.597l-.075-7.41C95.99 1.56 94.55.119 91.496.119H38.927c-3.05 0-4.49 1.441-4.517 4.523l-.087 7.405c-.77-.25-1.533-.46-2.319-.596-4.138-.699-8.065.13-11.45 2.459-4.328 2.98-6.045 8.07-4.49 13.293 1.44 4.815 4.527 8.292 7.366 11.066zM92.893 89.57c.114.157.157.542.114.823-.347 1.967-2.08 3.402-4.106 3.407l-7.626.006-39.743-.006c-2.03-.005-3.759-1.44-4.11-3.418-.055-.276 0-.644.113-.817 1.127-1.674 6.386-5.244 7.778-5.303.027 0 .054-.011.081-.011.028 0 .05.016.076.016h39.488c.022 0 .038-.01.054-.01.022 0 .038.01.06.01 1.424.049 6.69 3.618 7.821 5.303zM73.404 76.001a2.16 2.16 0 001.425 1.316 60.42 60.42 0 004.496 1.11c1.083.218 1.955.765 2.561 1.501H48.532c.612-.736 1.484-1.278 2.573-1.5a56.587 56.587 0 004.49-1.11A2.16 2.16 0 0057.019 76c1.468-3.9 2.27-12.604 2.405-17.506 1.944.352 3.878.563 5.785.563 1.906 0 3.846-.217 5.785-.563.135 4.896.937 13.59 2.41 17.506zm25.724-60.276c2.99-.499 5.828.07 8.282 1.755 2.806 1.928 3.819 5.02 2.789 8.482-1.153 3.868-3.797 6.825-6.229 9.203-2.453 2.4-7.838 6.885-14.43 10.963 4.978-8.477 6.419-20.106 6.598-29.515.021-.005.043-.016.065-.022.975-.346 1.933-.699 2.925-.866zM38.748 4.68c0-.081 0-.157.006-.222h52.915c.005.065.005.135.005.222l.103 10.037c0 .081.028.52.038.596.006.027.022.049.027.081 0 .011-.005.016-.005.027-.076 8.851-1.37 24.884-9.149 32.798-3.83 3.89-10.53 6.376-17.203 6.376h-.298c-6.657-.017-13.558-2.432-17.447-6.376-7.838-7.973-9.105-24.19-9.154-33.15 0-.01-.006-.022-.006-.032.011-.103.065-.206.065-.304l.103-10.053zm-15.74 12.8c1.873-1.284 3.948-1.94 6.174-1.94.694 0 1.398.065 2.108.185.996.168 1.955.52 2.93.872.022.005.043.016.065.021.184 9.469 1.63 21.06 6.597 29.51-6.592-4.073-11.976-8.563-14.43-10.963-2.432-2.378-5.075-5.335-6.229-9.203-1.034-3.456-.016-6.549 2.784-8.482z" fill="#DFB48F"/><path d="M21.263 101.537h87.777c.508 0 1.841.013 2.786.973.96.974.956 2.372.95 2.909-.027 2.452-.022 5.57-.016 8.451v1.605h12.644c1.005 0 2.129.133 2.959.972.829.838.95 1.991.94 3.029v.003l-.017 3.819v.003l.005 2.378c-.006 1.266-.355 2.172-.948 2.763-.594.592-1.503.939-2.771.939H4.444c-1.301 0-2.215-.346-2.805-.942-.592-.596-.936-1.52-.936-2.837v-6.311c0-1.377.338-2.305.932-2.895.595-.591 1.534-.931 2.93-.933H8.76l8.39.006h.501V105.14c.005-1.232.346-2.115.923-2.69.577-.575 1.459-.913 2.688-.913zm88.164 12.331c-.006-2.889-.017-6.016.011-8.471l.004-.504h-.504l-87.431-.028h-.498l-.002.498-.027 7.242v.002l.005 4.529-.008.17a1.666 1.666 0 01-1.659 1.496H4.036v.501l.006 6.234v.5h121.892l.003-.498.032-6.115-.001-.001a1.001 1.001 0 00-.004-.197l-.062-.429h-14.809a1.67 1.67 0 01-1.666-1.667v-3.262z" fill="#fff" stroke="#fff"/></g><defs><clipPath id="clip0_417_619"><path fill="#fff" d="M0 0h130v130H0z"/></clipPath></defs></svg>