<svg width="130" height="130" fill="none" xmlns="http://www.w3.org/2000/svg"><g clip-path="url(#clip0_639_3119)"><path d="M66.723 80.54a2.053 2.053 0 00-2.735-.973 32.685 32.685 0 01-5.191 1.942 2.051 2.051 0 00-1.46 1.574l-2.171 10.856a2.308 2.308 0 01-2.257 1.85h-5.923a2.307 2.307 0 01-2.257-1.85l-2.172-10.856a2.053 2.053 0 00-1.459-1.575 32.61 32.61 0 01-7.209-2.986 2.053 2.053 0 00-2.146.08l-9.213 6.142c-.91.606-2.13.485-2.904-.288l-4.189-4.188a2.308 2.308 0 01-.287-2.904l6.142-9.214a2.05 2.05 0 00.08-2.146 32.601 32.601 0 01-2.987-7.209 2.052 2.052 0 00-1.574-1.459L5.955 55.165a2.308 2.308 0 01-1.85-2.257v-5.923c0-1.094.777-2.043 1.85-2.257l10.856-2.172a2.053 2.053 0 001.574-1.459 32.609 32.609 0 012.987-7.209 2.053 2.053 0 00-.08-2.146L15.15 22.53a2.308 2.308 0 01.288-2.904l4.188-4.189a2.308 2.308 0 012.905-.287l9.213 6.142a2.05 2.05 0 002.146.08 32.613 32.613 0 017.209-2.987 2.052 2.052 0 001.459-1.574l2.171-10.856a2.308 2.308 0 012.257-1.85h5.924c1.093 0 2.042.777 2.256 1.85l2.172 10.856a2.053 2.053 0 001.46 1.574 32.613 32.613 0 017.208 2.987c.673.38 1.503.348 2.146-.08l9.213-6.142a2.308 2.308 0 012.904.287l4.189 4.189c.773.773.893 1.994.287 2.904l-6.142 9.213a2.052 2.052 0 00-.08 2.146 32.616 32.616 0 012.987 7.209 2.051 2.051 0 001.574 1.46l10.856 2.17a2.308 2.308 0 011.85 2.258v5.923a2.308 2.308 0 01-1.85 2.257l-10.856 2.171a2.052 2.052 0 00-1.574 1.46 32.686 32.686 0 01-2.001 5.315 2.052 2.052 0 103.7 1.776 36.807 36.807 0 001.89-4.767l9.647-1.93a6.425 6.425 0 005.149-6.282v-5.924a6.424 6.424 0 00-5.15-6.282l-9.647-1.93a36.73 36.73 0 00-2.395-5.78l5.457-8.186a6.424 6.424 0 00-.8-8.084l-4.189-4.189a6.425 6.425 0 00-8.084-.8L66.9 17.19a36.757 36.757 0 00-5.78-2.396L59.19 5.15A6.423 6.423 0 0052.909 0h-5.923a6.424 6.424 0 00-6.283 5.15l-1.929 9.646a36.738 36.738 0 00-5.781 2.396l-8.185-5.457a6.424 6.424 0 00-8.084.8l-4.189 4.189a6.425 6.425 0 00-.8 8.084l5.457 8.185a36.755 36.755 0 00-2.396 5.782L5.15 40.704A6.424 6.424 0 000 46.986v5.923a6.424 6.424 0 005.15 6.283l9.646 1.929a36.725 36.725 0 002.396 5.781l-5.457 8.186a6.424 6.424 0 00.8 8.084l4.189 4.188a6.425 6.425 0 008.084.8l8.185-5.456c1.854.96 3.79 1.763 5.782 2.395l1.929 9.647a6.424 6.424 0 006.282 5.15h5.923a6.424 6.424 0 006.283-5.151l1.929-9.646a36.776 36.776 0 004.628-1.823 2.053 2.053 0 00.974-2.735z" fill="#EB0E54"/><path d="M67.727 61.352a2.052 2.052 0 002.763-.89 23.146 23.146 0 002.531-10.515c0-12.722-10.35-23.073-23.073-23.073a22.946 22.946 0 00-16.105 6.551 2.052 2.052 0 102.865 2.94 18.866 18.866 0 0113.24-5.386c10.458 0 18.967 8.51 18.967 18.968a18.76 18.76 0 01-2.078 8.643 2.053 2.053 0 00.89 2.762zM30.734 41.165a2.052 2.052 0 00-2.609 1.273 23.037 23.037 0 00-1.25 7.51c0 12.723 10.35 23.073 23.073 23.073 4.893 0 9.568-1.512 13.52-4.374a2.053 2.053 0 00-2.408-3.325 18.83 18.83 0 01-11.112 3.593c-10.46 0-18.968-8.509-18.968-18.968 0-2.116.345-4.193 1.027-6.174a2.052 2.052 0 00-1.273-2.608zm95.314 48.544l-5.936-1.187a24.858 24.858 0 00-1.301-3.142l3.358-5.037a4.929 4.929 0 00-.614-6.2l-2.753-2.753a4.927 4.927 0 00-6.2-.614l-5.037 3.359a24.77 24.77 0 00-3.142-1.302l-1.187-5.936a4.926 4.926 0 00-4.818-3.95h-3.893a4.927 4.927 0 00-4.818 3.95l-1.187 5.936a24.875 24.875 0 00-3.142 1.302l-5.037-3.359a4.927 4.927 0 00-6.2.614l-2.752 2.753a4.927 4.927 0 00-.614 6.2l3.358 5.037a24.81 24.81 0 00-1.677 4.362 2.053 2.053 0 003.953 1.106 20.71 20.71 0 011.899-4.582 2.053 2.053 0 00-.08-2.145l-4.037-6.055a.81.81 0 01.1-1.02l2.753-2.753a.812.812 0 011.02-.1l6.055 4.036c.643.428 1.472.46 2.146.08a20.719 20.719 0 014.581-1.898 2.052 2.052 0 001.46-1.574l1.427-7.134a.81.81 0 01.792-.65h3.893a.81.81 0 01.793.65l1.427 7.134a2.05 2.05 0 001.459 1.574 20.696 20.696 0 014.581 1.899 2.055 2.055 0 002.146-.08l6.055-4.037a.81.81 0 011.02.1l2.753 2.753c.271.272.313.7.101 1.02l-4.037 6.055a2.05 2.05 0 00-.08 2.146 20.748 20.748 0 011.898 4.581 2.05 2.05 0 001.574 1.46l7.134 1.426a.81.81 0 01.65.793v3.893a.81.81 0 01-.65.793l-7.134 1.427a2.053 2.053 0 00-1.575 1.459 20.628 20.628 0 01-1.898 4.581 2.053 2.053 0 00.081 2.146l4.036 6.055a.81.81 0 01-.101 1.02l-2.752 2.753a.814.814 0 01-1.021.101l-6.054-4.037a2.053 2.053 0 00-2.146-.08 20.763 20.763 0 01-4.581 1.898 2.051 2.051 0 00-1.46 1.574l-1.427 7.134a.81.81 0 01-.792.65h-3.893a.81.81 0 01-.793-.65l-1.427-7.134a2.055 2.055 0 00-1.46-1.575 20.646 20.646 0 01-4.58-1.898 2.053 2.053 0 00-2.146.081l-6.055 4.036a.81.81 0 01-1.02-.101l-2.753-2.752a.812.812 0 01-.1-1.021l4.036-6.054c.428-.643.46-1.473.08-2.146a20.735 20.735 0 01-1.898-4.581 2.05 2.05 0 00-1.574-1.46L67.7 99.212a.81.81 0 01-.65-.793v-3.892a.81.81 0 01.65-.793l.436-.087a2.053 2.053 0 10-.805-4.026l-.437.088a4.928 4.928 0 00-3.95 4.818v3.893a4.927 4.927 0 003.95 4.818l5.936 1.187a24.89 24.89 0 001.302 3.142l-3.358 5.037a4.926 4.926 0 00.613 6.2l2.753 2.752a4.926 4.926 0 006.2.614l5.037-3.358c1.016.505 2.066.94 3.142 1.302l1.187 5.935a4.929 4.929 0 004.82 3.951h3.892a4.929 4.929 0 004.819-3.951l1.187-5.935a24.88 24.88 0 003.141-1.302l5.037 3.358a4.927 4.927 0 006.201-.614l2.752-2.752a4.927 4.927 0 00.614-6.201l-3.358-5.037c.505-1.015.94-2.065 1.301-3.141l5.936-1.187a4.927 4.927 0 003.95-4.819v-3.892a4.927 4.927 0 00-3.95-4.818z" fill="#EB0E54"/><path d="M96.476 89.084c4.074 0 7.389 3.315 7.389 7.39a2.053 2.053 0 004.105 0c0-6.339-5.156-11.496-11.495-11.496-6.338 0-11.494 5.157-11.494 11.495 0 6.339 5.156 11.495 11.494 11.495 2.568 0 4.996-.828 7.023-2.394a2.053 2.053 0 00-2.51-3.249 7.317 7.317 0 01-4.513 1.538c-4.074 0-7.39-3.315-7.39-7.39.001-4.075 3.316-7.39 7.39-7.39zM62.453 49.947c0-6.896-5.61-12.506-12.506-12.506s-12.506 5.61-12.506 12.506 5.61 12.506 12.506 12.506 12.506-5.61 12.506-12.506zm-20.906 0c0-4.632 3.768-8.4 8.4-8.4 4.632 0 8.4 3.768 8.4 8.4 0 4.632-3.768 8.4-8.4 8.4-4.632 0-8.4-3.768-8.4-8.4z" fill="#DFB48F"/></g><defs><clipPath id="clip0_639_3119"><path fill="#fff" d="M0 0h130v130H0z"/></clipPath></defs></svg>