<svg width="130" height="130" fill="none" xmlns="http://www.w3.org/2000/svg"><g clip-path="url(#clip0_639_3130)"><path d="M114.709 17.386L97.939.616A2.084 2.084 0 0096.453 0H16.777c-1.16 0-2.097.94-2.097 2.097v125.806c0 1.157.937 2.097 2.096 2.097h96.452c1.16 0 2.097-.94 2.097-2.097V18.871a2.09 2.09 0 00-.616-1.485zM98.551 7.16l9.615 9.615h-9.615V7.16zm12.58 118.647H18.873V4.194h75.484V18.87c0 1.157.937 2.097 2.097 2.097h14.677v104.838z" fill="#EB0E54"/><path d="M23.066 8.387h67.097v4.193H23.066V8.387z" fill="#EB0E54"/><path d="M23.066 16.774h67.097v4.194H23.066v-4.194z" fill="#DFB48F"/><path d="M23.066 25.161h67.097v4.194H23.066V25.16zm37.739 73.388c0 12.717 10.347 23.064 23.064 23.064s23.065-10.347 23.065-23.064-10.348-23.065-23.065-23.065S60.805 85.832 60.805 98.55zm41.935 0c0 10.404-8.465 18.871-18.87 18.871-10.407 0-18.872-8.467-18.872-18.871 0-10.404 8.465-18.871 18.871-18.871 10.406 0 18.871 8.467 18.871 18.87z" fill="#EB0E54"/><path d="M81.776 83.871v12.58h-12.58v4.194h12.58v12.581h4.194v-12.581h12.58v-4.193H85.97v-12.58h-4.194z" fill="#DFB48F"/><path d="M23.066 117.42h4.194v4.193h-4.194v-4.193zm8.387 0h4.194v4.193h-4.194v-4.193zm8.383 0h4.194v4.193h-4.194v-4.193zm-16.77-50.323h25.162v4.193H23.066v-4.193z" fill="#EB0E54"/><path d="M23.066 75.484h25.162v4.194H23.066v-4.194z" fill="#DFB48F"/><path d="M23.066 83.871h25.162v4.194H23.066V83.87z" fill="#EB0E54"/><path d="M23.066 92.258h25.162v4.193H23.066v-4.193z" fill="#DFB48F"/></g><defs><clipPath id="clip0_639_3130"><path fill="#fff" d="M0 0h130v130H0z"/></clipPath></defs></svg>