<svg width="130" height="130" fill="none" xmlns="http://www.w3.org/2000/svg"><g clip-path="url(#clip0_620_2849)"><path d="M114.707 17.386L97.937.616A2.085 2.085 0 0096.451 0H16.775c-1.16 0-2.097.94-2.097 2.097v125.806c0 1.157.936 2.097 2.096 2.097h96.452c1.16 0 2.097-.94 2.097-2.097V18.871a2.09 2.09 0 00-.616-1.485zM98.549 7.16l9.615 9.615h-9.615V7.16zm12.58 118.647H18.871V4.194h75.484V18.87c0 1.157.937 2.097 2.097 2.097h14.677v104.838z" fill="#DFB48F"/><path d="M23.064 8.387h67.097v4.193H23.064V8.387zm0 8.386h67.097v4.194H23.064v-4.194zm0 8.387h67.097v4.194H23.064V25.16z" fill="#fff"/><path d="M60.807 98.549c0 12.717 10.347 23.064 23.064 23.064s23.065-10.347 23.065-23.064-10.348-23.065-23.065-23.065S60.807 85.832 60.807 98.55zm41.935 0c0 10.404-8.465 18.871-18.87 18.871C73.464 117.42 65 108.953 65 98.549c0-10.404 8.465-18.871 18.871-18.871 10.406 0 18.871 8.467 18.871 18.87z" fill="#DFB48F"/><path d="M81.774 83.871v12.58h-12.58v4.194h12.58v12.581h4.194v-12.581h12.58v-4.193h-12.58v-12.58h-4.194zm-58.71 33.547h4.194v4.194h-4.194v-4.194zm8.387 0h4.194v4.194H31.45v-4.194zm8.387 0h4.193v4.194h-4.193v-4.194zm-16.774-50.32h25.162v4.193H23.064v-4.193zm0 8.386h25.162v4.194H23.064v-4.194zm0 8.387h25.162v4.194H23.064V83.87zm0 8.387h25.162v4.193H23.064v-4.193z" fill="#fff"/></g><defs><clipPath id="clip0_620_2849"><path fill="#fff" d="M0 0h130v130H0z"/></clipPath></defs></svg>