<svg width="124" height="124" fill="none" xmlns="http://www.w3.org/2000/svg"><g clip-path="url(#clip0_417_605)" stroke-width=".2"><path d="M122.354 23.995L100.01 1.652a2.099 2.099 0 00-1.442-.59H47.786a6.112 6.112 0 00-6.093 6.094v12.29a42.601 42.601 0 000 85.109v12.289a6.11 6.11 0 006.093 6.094h69.063a6.113 6.113 0 006.094-6.094V25.438a2.099 2.099 0 00-.589-1.443zM100.599 7.99l15.417 15.417H102.63a2.032 2.032 0 01-2.031-2.031V7.989zM5.13 62a38.64 38.64 0 0136.563-38.533v37.7l-26.61 26.61A38.348 38.348 0 015.13 62zm12.817 28.64l26.61-26.609h37.7a38.518 38.518 0 01-64.31 26.61zm100.933 26.204a2.032 2.032 0 01-2.031 2.031H47.786a2.031 2.031 0 01-2.03-2.031v-12.289A42.688 42.688 0 0086.38 62a2.031 2.031 0 00-2.031-2.031H45.755V7.156a2.031 2.031 0 012.031-2.031h48.75v16.25a6.112 6.112 0 006.094 6.094h16.25v89.375z" fill="#DFB48F" stroke="#DFB48F"/><path d="M51.844 11.219a2.032 2.032 0 00-2.032 2.031v40.625a2.031 2.031 0 002.032 2.031h40.625a2.031 2.031 0 002.031-2.031 42.704 42.704 0 00-42.656-42.656zm2.031 40.625V15.342a38.628 38.628 0 0136.502 36.502H53.875z" fill="#fff" stroke="#fff"/><path d="M96.531 78.25a18.282 18.282 0 1018.282 18.281A18.31 18.31 0 0096.531 78.25zm0 32.5a14.222 14.222 0 01-13.136-8.777 14.222 14.222 0 0110.362-19.387 14.222 14.222 0 0114.597 6.046 14.222 14.222 0 012.396 7.9 14.237 14.237 0 01-14.219 14.218z" fill="#DFB48F" stroke="#DFB48F"/><path d="M92.475 99.753l-4.657-4.657-2.873 2.872 6.094 6.094a2.034 2.034 0 002.872 0L106.1 91.874l-2.872-2.872-10.752 10.751zm6.088-64.159h16.249v4.062h-16.25v-4.062zm0 12.187h16.249v4.063h-16.25V47.78zm0 12.188h16.249v4.062h-16.25V59.97z" fill="#fff" stroke="#fff"/></g><defs><clipPath id="clip0_417_605"><path fill="#fff" d="M0 0h124v124H0z"/></clipPath></defs></svg>