<svg width="1722" height="530" fill="none" xmlns="http://www.w3.org/2000/svg"><path opacity=".04" d="M505.4-50s-58.631.938-270.208.938H-16V616h666.244V472.203H119.049V355.368l200.774-1.798 199.873-2.696 2.701-70.101 2.701-69.203H119.049V85.748l240.388 1.797 240.388 2.697 135.05 262.429L870.824 616h328.616V346.38h405.15V616h117.05V329.304c0-387.353 24.3-360.391-324.12-360.391-338.53 0-317.82-17.975-324.12 286.695l-4.5 221.089-50.42 2.696c-33.314 1.797-53.121-.899-59.423-8.988-5.402-6.291-71.126-132.113-145.854-279.505L687.89-50H505.4zm1099.19 207.647v71.898h-405.15v-65.607c0-36.848 2.71-69.203 6.31-71.899 2.7-3.595 94.53-6.291 202.57-6.291h196.27v71.899z" fill="#fff"/></svg>