<svg width="1920" height="906" fill="none" xmlns="http://www.w3.org/2000/svg"><path opacity=".06" d="M843.548 904.504v-193.48H117.969V548.398l1.487-.013 274.236-2.455v-.001l271.591-3.664 3.635-94.362v-.001l3.629-92.997H117.969V179.974l1.511.011 328.355 2.456h.006l328.355 3.684.904.011.413.803L961.98 545.514l.001-.001 185.279 358.991h446.46v-368.4h556.41v368.4H2307V514.272c0-132.375 2.08-229.221-2.24-300.134-4.33-70.967-15.05-115.497-40.26-143.551-25.18-28.01-65.12-39.92-128.88-44.733-63.74-4.81-150.79-2.508-269.84-2.508-115.66 0-200.5-1.535-262.94 2.663-62.49 4.2-102.11 14.13-127.6 36.716-25.46 22.55-37.14 58.003-42.91 114.174-5.6 54.403-5.63 127.813-7.58 227.027l-.2 9.681-6.15 302.087-.03 1.394-1.39.074-68.87 3.684h0c-22.79 1.23-41.04.929-54.71-1.088-13.59-2.004-23.03-5.75-27.72-11.768-.55-.66-1.38-1.918-2.43-3.633-1.09-1.8-2.5-4.201-4.18-7.166-3.37-5.93-7.89-14.149-13.41-24.389-11.06-20.482-26.16-49.078-44.23-83.695-36.12-69.231-84.08-162.559-135.12-263.253L895.559-2.496H647.164a789.238 789.238 0 01-.912.014 4811.425 4811.425 0 01-16.066.186c-12.027.12-31.071.28-59.146.44-56.15.321-148.425.642-292.928.642H-63.5v905.718h907.048zm750.172-616.183c0-25.205.92-48.888 2.47-66.748.77-8.924 1.7-16.426 2.75-21.948.52-2.757 1.08-5.062 1.69-6.818.3-.878.63-1.654.98-2.293.31-.562.69-1.106 1.17-1.511.35-.377.81-.608 1.16-.756.45-.194 1-.366 1.61-.524 1.24-.318 2.91-.618 4.97-.907 4.12-.578 9.94-1.127 17.24-1.646 14.62-1.038 35.28-1.96 60.42-2.728 50.29-1.535 118.56-2.457 192.35-2.457h269.6v199.48h-556.41v-91.144z" stroke="#fff" stroke-width="3"/></svg>