<svg width="80" height="80" fill="none" xmlns="http://www.w3.org/2000/svg"><g clip-path="url(#clip0_2305_16315)"><path d="M34.47 70.507h-.68a511.577 511.577 0 01-1.707-6.974c-1.045-4.44-2.117-7.273-8.07-8.962l-5.755-4.133a4.42 4.42 0 00-3.289-.775l-3.832-9.045c-2.595-6.126-5.969-5.411-6.94-5.046-2.393.9-3.798 4.07-2.947 6.652l4.885 14.828.157.48c.798 2.448 1.791 5.496 4.076 7.066l6.661 4.578c.529.363.903.796 1.151 1.33h-.147a2.71 2.71 0 00-1.931.797 2.71 2.71 0 00-.796 1.932l.004 4.04A2.73 2.73 0 0018.036 80h16.438a2.71 2.71 0 001.932-.797 2.71 2.71 0 00.795-1.932l-.004-4.04a2.73 2.73 0 00-2.726-2.724zm-16.156-3.2l-6.662-4.578c-1.651-1.135-2.512-3.777-3.204-5.9l-.16-.487-4.885-14.828c-.508-1.544.45-3.39 1.592-3.82 1.319-.495 2.834.928 4.054 3.808l3.846 9.077a4.442 4.442 0 00.186 7.066l7.865 5.649a1.134 1.134 0 001.323-1.842l-7.865-5.65a2.172 2.172 0 01-.496-3.027 2.171 2.171 0 013.027-.496l5.918 4.25c.11.08.232.138.362.173 5.047 1.386 5.722 3.364 6.661 7.35.507 2.15 1.035 4.289 1.576 6.454H20.584a5.527 5.527 0 00-2.27-3.199zM34.8 77.6a.451.451 0 01-.327.133l-16.437-.002a.46.46 0 01-.46-.458l-.003-4.04a.452.452 0 01.459-.46H34.47a.46.46 0 01.459.46l.004 4.04a.451.451 0 01-.133.327zm43.002-42.028c-.972-.365-4.345-1.08-6.94 5.045l-3.832 9.046a4.425 4.425 0 00-3.289.775l-5.755 4.133c-5.953 1.689-7.025 4.522-8.07 8.962a509.077 509.077 0 01-1.706 6.974h-.681a2.73 2.73 0 00-2.727 2.723l-.003 4.04a2.71 2.71 0 00.795 1.933 2.71 2.71 0 001.932.797l16.437-.001a2.73 2.73 0 002.726-2.724l.004-4.04a2.71 2.71 0 00-.796-1.932 2.709 2.709 0 00-1.93-.797h-.148c.248-.534.623-.968 1.15-1.33l6.662-4.578c2.285-1.571 3.278-4.62 4.076-7.068l.157-.479 4.885-14.827c.85-2.582-.554-5.752-2.947-6.652zm-13.835 37.2a.451.451 0 01.458.46l-.003 4.041a.46.46 0 01-.46.459H47.527a.452.452 0 01-.46-.459l.005-4.04a.46.46 0 01.459-.46h1.56l.006.001h.005l14.867-.001zm14.629-31.258L73.71 56.342l-.158.486c-.692 2.123-1.553 4.766-3.205 5.901l-6.661 4.578a5.526 5.526 0 00-2.27 3.199h-10.87a462.92 462.92 0 001.577-6.453c.939-3.987 1.614-5.965 6.661-7.35a1.13 1.13 0 00.362-.173l5.918-4.25a2.172 2.172 0 013.027.496c.336.467.47 1.041.375 1.616a2.152 2.152 0 01-.871 1.411l-7.865 5.65a1.134 1.134 0 001.323 1.841l7.865-5.65a4.405 4.405 0 001.786-2.885 4.405 4.405 0 00-.771-3.306 4.422 4.422 0 00-.829-.874l3.846-9.077c1.22-2.88 2.735-4.303 4.054-3.807 1.142.429 2.1 2.276 1.592 3.82zM56.04 43.962c5.118-5.29 7.936-11.404 7.936-17.215V7.68c0-.55-.395-1.02-.937-1.116C57.92 5.66 52.848 3.518 47.966.196A1.135 1.135 0 0047.328 0H34.672c-.227 0-.45.068-.637.196-4.883 3.322-9.954 5.465-15.075 6.369a1.134 1.134 0 00-.936 1.116v19.066c0 5.81 2.817 11.925 7.934 17.215 4.184 4.326 9.681 7.843 14.705 9.407a1.136 1.136 0 00.674 0c5.024-1.564 10.52-5.08 14.704-9.407zM41 51.096c-4.587-1.506-9.575-4.742-13.412-8.71-4.706-4.866-7.298-10.42-7.298-15.64V8.62c5.016-1.025 9.964-3.158 14.728-6.352H46.98c4.764 3.194 9.713 5.327 14.728 6.352v18.128c0 5.22-2.592 10.773-7.298 15.64-3.836 3.967-8.825 7.203-13.41 8.71z" fill="#DFB48F"/><path d="M58.614 10.201c-4.093-1.143-8.142-2.99-12.036-5.487a1.134 1.134 0 00-.612-.18h-9.931c-.217 0-.43.063-.612.18-3.895 2.498-7.944 4.344-12.036 5.487-.49.137-.828.583-.828 1.092v15.454c0 5.578 3.26 10.34 5.994 13.35 3.363 3.705 7.75 6.783 12.038 8.445a1.137 1.137 0 00.82 0c4.286-1.662 8.674-4.74 12.037-8.444 2.735-3.012 5.995-7.773 5.995-13.351V11.293c0-.509-.34-.955-.83-1.092zm-1.439 16.546c0 3.788-1.92 7.988-5.406 11.827-2.98 3.283-6.977 6.133-10.769 7.69-3.791-1.558-7.788-4.407-10.769-7.69-3.486-3.84-5.405-8.04-5.405-11.827V12.144c3.927-1.185 7.803-2.98 11.54-5.342h9.27c3.735 2.362 7.611 4.157 11.539 5.342v14.603zm-22.243-3.254a3.404 3.404 0 00-4.677-1.116 3.379 3.379 0 00-1.527 2.107 3.378 3.378 0 00.411 2.57l3.949 6.426a3.26 3.26 0 002.168 1.51c.22.044.446.065.67.065.78 0 1.563-.256 2.226-.74L51.97 24.23a3.368 3.368 0 001.354-2.214 3.368 3.368 0 00-.609-2.522 3.395 3.395 0 00-4.738-.745L36.96 26.791l-2.027-3.298zm14.381-2.912a1.125 1.125 0 011.771 1.082 1.116 1.116 0 01-.45.735L36.816 32.483c-.344.252-.753.355-1.12.283a.992.992 0 01-.675-.473l-3.95-6.427a1.125 1.125 0 01-.136-.856 1.126 1.126 0 011.1-.87c.38 0 .753.193.967.54l2.669 4.344a1.133 1.133 0 001.634.322l12.01-8.765z" fill="#fff"/></g><defs><clipPath id="clip0_2305_16315"><path fill="#fff" d="M0 0h80v80H0z"/></clipPath></defs></svg>