<svg width="130" height="130" fill="none" xmlns="http://www.w3.org/2000/svg"><path d="M65 96.734a2.289 2.289 0 110 4.578 2.289 2.289 0 010-4.578zm41.391-35.546c8.262 0 14.984 6.721 14.984 14.984s-6.722 14.984-14.984 14.984c-8.263 0-14.985-6.722-14.985-14.984 0-8.263 6.722-14.984 14.985-14.984zm0 4.578c-5.738 0-10.407 4.668-10.407 10.406s4.669 10.406 10.407 10.406 10.406-4.668 10.406-10.406-4.668-10.406-10.406-10.406z" fill="#DFB48F" stroke="#000" stroke-width=".5"/><path d="M65 86.578c9.64 0 18.388 4.486 24.063 11.942l.172.227.203-.2c4.298-4.26 10.616-6.89 16.949-6.89 12.669 0 23.363 10.36 23.363 22.601v5.078a2.29 2.29 0 01-2.289 2.289H2.539a2.29 2.29 0 01-2.289-2.289v-5.078c0-12.241 10.694-22.602 23.363-22.602 6.334 0 12.65 2.632 16.95 6.89l.203.201.172-.227A30.167 30.167 0 0165 86.578zm-41.387 9.656c-10.175 0-18.785 8.241-18.785 18.024v2.789h29.953v-.25a30.22 30.22 0 013.38-13.89l.077-.151-.111-.128c-3.425-3.93-8.948-6.394-14.514-6.394zM65 91.156c-14.035 0-25.64 11.389-25.64 25.641v.25h51.28v-.25c0-14.064-11.372-25.64-25.64-25.64zm41.387 5.078c-5.566 0-11.089 2.465-14.514 6.394l-.111.128.078.151a30.22 30.22 0 013.379 13.89v.25h29.953v-2.789c0-9.783-8.61-18.024-18.785-18.024z" fill="#DFB48F" stroke="#000" stroke-width=".5"/><path d="M23.61 61.188c8.262 0 14.984 6.721 14.984 14.984s-6.722 14.984-14.985 14.984c-8.262 0-14.984-6.722-14.984-14.984 0-8.263 6.722-14.984 14.984-14.984zm0 4.578c-5.738 0-10.407 4.668-10.407 10.406s4.669 10.406 10.406 10.406c5.738 0 10.407-4.668 10.407-10.406s-4.669-10.406-10.407-10.406zM65 45.953c11.063 0 20.063 9 20.063 20.063 0 11.062-9 20.062-20.063 20.062-11.063 0-20.063-9-20.063-20.062 0-11.063 9-20.063 20.063-20.063zm0 4.578c-8.539 0-15.484 6.946-15.484 15.485C49.516 74.554 56.46 81.5 65 81.5s15.484-6.946 15.484-15.484c0-8.54-6.945-15.485-15.484-15.485z" fill="#DFB48F" stroke="#000" stroke-width=".5"/><path d="M64.903.25c.875 0 1.672.498 2.056 1.284l4.903 10.026.059.118.13.02 10.952 1.59a2.288 2.288 0 011.27 3.902h-.001l-7.93 7.73-.094.092.022.13 1.874 10.914a2.288 2.288 0 01-3.32 2.413l-9.805-5.153-.116-.061-.116.061-9.799 5.153a2.29 2.29 0 01-3.322-2.412l1.872-10.915.022-.13-.094-.092-7.93-7.73a2.288 2.288 0 011.268-3.904l10.952-1.589.13-.02.058-.117 4.903-10.027A2.29 2.29 0 0164.903.25zm-.224 7.959l-3.211 6.565a2.286 2.286 0 01-1.728 1.26l-7.185 1.044-.502.072.363.354 5.201 5.07c.506.492.753 1.189.678 1.886l-.02.14-1.227 7.16-.086.499.45-.236 6.426-3.38a2.29 2.29 0 012.13 0l6.43 3.38.448.236-.086-.5-1.229-7.16-.02-.139c-.07-.65.141-1.3.58-1.785l.099-.102 5.202-5.07.363-.353-.502-.072-7.187-1.044a2.287 2.287 0 01-1.727-1.26L65.128 8.21l-.225-.46-.224.46zm43.3 14.893h.001c.872 0 1.668.494 2.053 1.276l3.318 6.724.057.118.131.02 7.419 1.077h.001a2.288 2.288 0 011.27 3.904l-5.371 5.236-.093.092.022.129 1.268 7.39a2.292 2.292 0 01-.91 2.237h-.001a2.29 2.29 0 01-2.411.175l-6.637-3.488-.117-.061-.116.061-6.638 3.489a2.29 2.29 0 01-2.41-.176l-.129-.1a2.289 2.289 0 01-.783-2.138l1.268-7.39.022-.128-.094-.092-5.368-5.236a2.286 2.286 0 01-.58-2.346v-.001A2.288 2.288 0 0195 32.317l7.421-1.078.13-.02.058-.117 3.32-6.724a2.288 2.288 0 012.051-1.276zm-.223 7.917l-1.633 3.307a2.29 2.29 0 01-1.724 1.252l-3.651.53-.501.073.362.353 2.643 2.577a2.29 2.29 0 01.658 2.025l-.624 3.636-.086.498.448-.235 3.268-1.716a2.29 2.29 0 012.13 0l3.264 1.715.448.236-.085-.5-.623-3.634a2.283 2.283 0 01.658-2.025l2.641-2.577.363-.353-.502-.074-3.65-.529a2.288 2.288 0 01-1.724-1.253l-1.632-3.306-.225-.454-.223.454zm-86.104-7.917c.872 0 1.668.494 2.053 1.276l3.318 6.724.057.118.13.02 7.42 1.077h0a2.287 2.287 0 011.27 3.904l-5.37 5.236-.094.092.023.129 1.268 7.39a2.288 2.288 0 01-.91 2.237h-.002a2.288 2.288 0 01-2.41.175l-6.637-3.488-.117-.061-.116.061-6.637 3.489a2.29 2.29 0 01-3.322-2.414l1.267-7.39.022-.128-.095-.092-5.368-5.236a2.286 2.286 0 01-.579-2.346v-.001a2.288 2.288 0 011.848-1.557l7.42-1.078.13-.02.06-.117 3.319-6.724a2.289 2.289 0 012.052-1.276zm-.225 7.917l-1.633 3.307a2.29 2.29 0 01-1.723 1.252l-3.652.53-.501.073.362.353 2.643 2.577c.539.526.786 1.283.658 2.025l-.624 3.636-.086.498.448-.235 3.269-1.716a2.287 2.287 0 012.129 0l3.264 1.715.449.236-.085-.5-.624-3.634a2.289 2.289 0 01.658-2.025l2.64-2.577.364-.353-.502-.074-3.65-.529a2.289 2.289 0 01-1.724-1.253l-1.632-3.306-.225-.454-.223.454z" fill="#fff" stroke="#000" stroke-width=".5"/><path d="M72.83 100.674a2.286 2.286 0 013.169-.656H76a20.145 20.145 0 017.135 8.177 2.29 2.29 0 01-.878 2.939l-.206.111a2.286 2.286 0 01-3.05-1.082v-.001l-.237-.476a15.575 15.575 0 00-5.278-5.842 2.288 2.288 0 01-.656-3.17z" fill="#DFB48F" stroke="#000" stroke-width=".5"/></svg>