<svg width="130" height="130" fill="none" xmlns="http://www.w3.org/2000/svg"><g clip-path="url(#clip0_2331_28708)"><path d="M111.562 84.91L99.679 96.795l-5.899-5.897a2.029 2.029 0 00-2.872 0 2.029 2.029 0 000 2.872l7.335 7.333c.396.396.916.595 1.436.595.52 0 1.04-.199 1.436-.595l13.319-13.32a2.03 2.03 0 000-2.873 2.029 2.029 0 00-2.872 0z" fill="#fff"/><path d="M127.987 77.305c-2.728 0-4.766-.719-6.059-2.139-2.054-2.25-1.764-5.683-1.762-5.707a2.027 2.027 0 00-2.019-2.239h-10.503V2.031A2.03 2.03 0 00105.613 0H45.857c-.04 0-.077.02-.118.024a1.95 1.95 0 00-.518.102c-.04.014-.085.01-.123.026-.031.013-.055.035-.084.05a2.03 2.03 0 00-.514.342c-.024.023-.054.03-.079.053l-8.73 8.739-13.104 13.103c-.177.177-.3.384-.4.604-.03.067-.049.131-.071.2-.055.163-.085.33-.098.5-.004.057-.02.11-.018.167v87.451a2.03 2.03 0 002.031 2.032h61.316c4.554 4.326 10.241 7.178 16.951 8.445a1.905 1.905 0 00.757 0c8.202-1.558 14.847-5.413 19.744-11.458 4.645-5.706 7.205-13.081 7.205-20.77l.018-10.273a2.033 2.033 0 00-2.031-2.035l-.004.003zM40.182 10.587l3.65-3.65v14.907H28.935L40.18 10.59l.002-.002zM26.06 109.33V25.905h19.804a2.03 2.03 0 002.032-2.032V4.063h55.684V67.22H87.197c-.57 0-1.115.246-1.499.666-.307.336-.447.77-.483 1.22H38.43a2.03 2.03 0 100 4.062h46.172c-.266.694-.642 1.391-1.2 2.002-1.294 1.416-3.33 2.135-6.05 2.135a2.03 2.03 0 00-2.03 2.032v3.867H38.43a2.03 2.03 0 100 4.063h36.894v2.348c.002.934.044 1.862.121 2.785.025.298.073.59.106.89.067.619.134 1.24.236 1.852.059.353.14.7.209 1.052.108.546.211 1.093.345 1.629.094.374.207.74.313 1.109.144.504.284 1.005.451 1.499.128.378.272.748.412 1.119.177.472.356.941.553 1.402.16.374.337.739.512 1.107.209.443.422.881.652 1.312.193.364.398.719.605 1.075.244.418.492.83.754 1.235.223.345.457.684.692 1.021.144.208.275.425.425.626l-55.65.002zm99.876-19.721c0 6.758-2.234 13.225-6.295 18.21-4.204 5.19-9.912 8.537-16.971 9.955-6.035-1.209-11.11-3.847-15.094-7.849a26.096 26.096 0 01-1.895-2.106c-4.042-4.983-6.277-11.452-6.295-18.21v-8.355c2.964-.345 5.33-1.479 7.05-3.38 1.932-2.137 2.558-4.761 2.745-6.591h26.979c.183 1.828.806 4.448 2.732 6.585 1.72 1.905 4.089 3.039 7.06 3.386l-.016 8.355z" fill="#DFB48F"/><path d="M38.438 44.932h52.767a2.03 2.03 0 100-4.063H38.438a2.03 2.03 0 100 4.063zm0 14.113h52.767a2.03 2.03 0 100-4.063H38.438a2.03 2.03 0 100 4.063z" fill="#fff"/><path d="M65.727 14.982h25.486a2.03 2.03 0 100-4.062H65.727a2.03 2.03 0 100 4.062zm0 10.922h25.486a2.03 2.03 0 100-4.062H65.727a2.03 2.03 0 100 4.062z" fill="#DFB48F"/></g><defs><clipPath id="clip0_2331_28708"><path fill="#fff" d="M0 0h130v130H0z"/></clipPath></defs></svg>