<svg width="80" height="80" fill="none" xmlns="http://www.w3.org/2000/svg"><path d="M13.125.2h62.188c.752 0 1.362.61 1.362 1.363v37.649a1.362 1.362 0 11-2.725 0V2.925H14.487v71.294c0 .924-.226 1.796-.626 2.564l-.152.292h57.385a2.86 2.86 0 002.856-2.856V53.274a1.362 1.362 0 012.725 0V74.22a5.587 5.587 0 01-5.581 5.58H8.906a5.587 5.587 0 01-5.58-5.58V15c0-.752.609-1.362 1.361-1.362h7.076V1.563c0-.753.61-1.363 1.362-1.363zM6.05 74.22a2.86 2.86 0 002.856 2.856 2.86 2.86 0 002.857-2.856V16.362H6.05V74.22z" fill="#DFB48F" stroke="#9F0033" stroke-width=".4"/><path d="M27.61 9.734c.752 0 1.362.61 1.362 1.363v10.266c0 .742-.423 1.336-1.06 1.535-.628.196-1.293-.04-1.697-.623l-4.323-6.26-.366-.528v6.235a1.362 1.362 0 11-2.724 0V11.117a1.363 1.363 0 012.483-.774l4.598 6.656.364.528v-6.43c0-.753.61-1.363 1.362-1.363zm6.25 0h4.476a1.363 1.363 0 110 2.725h-3.114v2.588h2.784a1.363 1.363 0 110 2.724h-2.784v2.588h3.114a1.363 1.363 0 110 2.725h-4.477c-.752 0-1.362-.61-1.362-1.362V11.097c0-.753.61-1.363 1.362-1.363zm29.516.225c1.455-.438 2.783-.166 3.768.232a6.621 6.621 0 011.656.955 1.363 1.363 0 01-1.744 2.093l-.003-.002-.268-.185a4.287 4.287 0 00-.638-.328c-.522-.215-1.239-.38-1.985-.156-.312.094-.514.245-.64.408a.9.9 0 00-.165.333l-.016.083a.7.7 0 00.218.634l.024.022.03.012c.404.178 1.589.686 2.859 1.155 1.372.506 2.212 1.252 2.677 2.046.467.795.566 1.653.433 2.397-.352 1.97-2.233 3.426-4.505 3.426-1.833 0-3.55-.74-4.712-2.021a1.363 1.363 0 012.02-1.832c.644.712 1.652 1.128 2.692 1.128.485 0 .91-.143 1.228-.359.313-.213.539-.508.594-.82.08-.443-.248-.778-.54-.985a3.759 3.759 0 00-.83-.424 57.806 57.806 0 01-3.174-1.287 1.38 1.38 0 01-.19-.103 3.408 3.408 0 01-1.521-3.376c.205-1.428 1.245-2.598 2.732-3.046zm-9.97 13.125h-.01a1.603 1.603 0 01-1.51-1.069v0l-.017-.055-1.707-5.58-.19-.624-.192.623-1.714 5.58a1.602 1.602 0 01-1.517 1.126h-.01a1.601 1.601 0 01-1.562-1.26L42.92 11.359a1.363 1.363 0 012.674-.525l1.031 5.25.387.02 1.625-5.29.003-.007V10.8a1.37 1.37 0 01.757-.94l.174-.067c.72-.22 1.481.186 1.701.906l1.653 5.403.387-.02 1.034-5.23a1.363 1.363 0 012.673.528l-2.063 10.443-.046.172a1.6 1.6 0 01-1.505 1.088zm-33.25 6.797h26.25c.753 0 1.363.61 1.363 1.362v30c0 .753-.61 1.363-1.363 1.363h-26.25c-.752 0-1.362-.61-1.362-1.363v-30c0-.752.61-1.362 1.362-1.362zm1.363 19.217V59.88h20.399L29.76 47.723l-.01-.01-3.282-3.282-.14-.142-4.81 4.809zm0-3.854l3.844-3.844a1.362 1.362 0 011.927 0l3.283 3.283.142.14 7.573-7.573a1.363 1.363 0 011.823-.093l.104.093 4.487 4.489.342.34v-9.473H21.519v12.638zm23.525.69L39.25 40.14l-.142.142-6.326 6.327-.141.141.141.14 11.92 11.92.34.343v-13.22z" fill="#fff" stroke="#9F0033" stroke-width=".4"/><path d="M54.219 59.881H68.28a1.362 1.362 0 110 2.725H54.22a1.362 1.362 0 110-2.725zm0-22.5H68.28a1.362 1.362 0 110 2.725H54.22a1.362 1.362 0 110-2.725zm0 7.5H68.28a1.362 1.362 0 110 2.725H54.22a1.362 1.362 0 110-2.725zm0-15H68.28a1.362 1.362 0 110 2.725H54.22a1.362 1.362 0 110-2.725zm0 22.5H68.28a1.362 1.362 0 110 2.725H54.22a1.362 1.362 0 110-2.725zM20.156 68.638h48.125a1.362 1.362 0 110 2.724H20.156a1.362 1.362 0 110-2.724zm55.157-23.757c.357 0 .71.147.962.4.254.253.4.605.4.963a1.366 1.366 0 01-1.363 1.362c-.359 0-.71-.146-.962-.4a1.373 1.373 0 01-.4-.962 1.367 1.367 0 011.363-1.363z" fill="#DFB48F" stroke="#9F0033" stroke-width=".4"/></svg>