<svg width="80" height="80" fill="none" xmlns="http://www.w3.org/2000/svg"><g clip-path="url(#clip0_2305_18432)"><path d="M74.14 4.872H61.765A5.868 5.868 0 0055.99 0H24.01a5.868 5.868 0 00-5.775 4.872H5.86A5.866 5.866 0 000 10.732V57.55c0 3.23 2.628 5.86 5.86 5.86h26.057v5.72h-.102a6.863 6.863 0 00-6.855 6.856v2.084c0 1.064.866 1.93 1.93 1.93h26.22c1.064 0 1.93-.866 1.93-1.93v-2.084a6.863 6.863 0 00-6.855-6.855h-.102v-5.722h13.912a1.172 1.172 0 100-2.343H5.859a3.52 3.52 0 01-3.515-3.516V10.731a3.52 3.52 0 013.515-3.515h12.292v2.343H6.484a1.8 1.8 0 00-1.796 1.797v45.569a1.8 1.8 0 001.796 1.797h67.032c.99 0 1.796-.806 1.796-1.797V11.356a1.8 1.8 0 00-1.796-1.797H61.849V7.216h12.292a3.52 3.52 0 013.515 3.515V57.55a3.52 3.52 0 01-3.515 3.516h-6.677a1.172 1.172 0 100 2.343h6.677A5.866 5.866 0 0080 57.55V10.731c0-3.23-2.628-5.86-5.86-5.86zM34.26 63.409h11.48v5.722H34.26v-5.722zm-1.17 8.066h15.094a4.517 4.517 0 014.511 4.511v1.67H27.304v-1.67a4.517 4.517 0 014.512-4.511h1.273zm26.416-15.097H20.494V21.666a1.172 1.172 0 10-2.343 0v34.711H7.03V11.903h11.12v4.295a1.172 1.172 0 102.343 0V5.86a3.52 3.52 0 013.516-3.515h31.98a3.52 3.52 0 013.516 3.515v50.518zm13.463-44.475v44.475h-11.12V11.903h11.12zM40 7.031c-8.271 0-15 6.73-15 15 0 8.271 6.729 15 15 15s15-6.729 15-15c0-8.27-6.729-15-15-15zm0 27.657c-6.979 0-12.656-5.678-12.656-12.657 0-6.978 5.677-12.656 12.656-12.656 6.979 0 12.656 5.678 12.656 12.656 0 6.979-5.677 12.657-12.656 12.657z" fill="#DFB48F"/><path d="M53.158 49.622H26.172a1.172 1.172 0 100 2.344h26.986a1.172 1.172 0 100-2.344zm0-7.031H26.172a1.172 1.172 0 100 2.344h26.986a1.172 1.172 0 100-2.344zm-5.62-26.688c-1.39-1.265-3.54-1.193-4.896.163l-5.338 5.339-.663-.663c-1.348-1.362-3.62-1.353-4.972 0a3.52 3.52 0 000 4.972l2.597 2.596a4.27 4.27 0 003.038 1.257 4.268 4.268 0 003.038-1.257l7.319-7.319c1.404-1.392 1.329-3.767-.122-5.088zm-1.535 3.43l-7.318 7.32a1.94 1.94 0 01-1.381.57 1.94 1.94 0 01-1.381-.57l-2.596-2.596a1.173 1.173 0 010-1.658 1.182 1.182 0 011.657 0l1.16 1.16c.31.31.721.48 1.16.48.438 0 .85-.17 1.16-.48l5.836-5.835c.461-.462 1.207-.5 1.661-.087.488.443.513 1.232.042 1.697z" fill="#fff"/></g><defs><clipPath id="clip0_2305_18432"><path fill="#fff" d="M0 0h80v80H0z"/></clipPath></defs></svg>