<svg width="80" height="80" fill="none" xmlns="http://www.w3.org/2000/svg"><g clip-path="url(#clip0_2305_18439)"><path d="M22.578 32.388c.358 0 .71.146.963.4.253.252.4.604.4.962s-.147.71-.4.963-.605.4-.963.4-.71-.147-.963-.4a1.374 1.374 0 01-.4-.963c0-.358.147-.71.4-.963.254-.253.605-.4.963-.4z" fill="#DFB48F" stroke="#9F0033" stroke-width=".4"/><mask id="a" fill="#fff"><path d="M75.312 0H13.124a4.693 4.693 0 00-4.687 4.687v25.938a4.693 4.693 0 004.688 4.687h2.812a1.563 1.563 0 000-3.125h-2.813a1.564 1.564 0 01-1.562-1.562V4.687c0-.861.7-1.562 1.563-1.562h62.187c.861 0 1.562.7 1.562 1.562v25.938c0 .861-.7 1.562-1.562 1.562H64.86c-.415 0-.812.165-1.105.458L58.61 37.79l-5.145-5.145a1.563 1.563 0 00-1.105-.458H40.176a9.17 9.17 0 00-.392-.871 8.89 8.89 0 00-5.362-4.474l-2.259-.686a1.562 1.562 0 00-1.924.963l-3.55 9.81a11.822 11.822 0 01-5.467 6.366L17.89 45.11a4.454 4.454 0 00-3.444-1.628H4.46A4.466 4.466 0 000 47.942v27.596A4.466 4.466 0 004.461 80h9.984a4.46 4.46 0 003.726-2.01l1.594.624c2.344.92 4.81 1.386 7.328 1.386h21.082a5.743 5.743 0 005.737-5.737 5.699 5.699 0 00-.776-2.874 5.747 5.747 0 004.02-5.474 5.702 5.702 0 00-.812-2.94 5.746 5.746 0 003.83-5.409 5.746 5.746 0 00-4.111-5.5 5.7 5.7 0 00.76-2.848 5.743 5.743 0 00-5.737-5.737h-12.53l1.753-5.202a8.98 8.98 0 00.472-2.967h10.933l5.792 5.793a1.558 1.558 0 002.21 0l5.792-5.793h9.804a4.693 4.693 0 004.687-4.687V4.687A4.693 4.693 0 0075.312 0zm-59.53 75.538c0 .737-.6 1.337-1.337 1.337H4.461c-.737 0-1.336-.6-1.336-1.337V47.942c0-.737.6-1.336 1.336-1.336h3.43v19.237a1.563 1.563 0 003.125 0V46.606h3.43c.583 0 1.08.377 1.26.899.014.076.033.15.057.225.011.07.019.14.019.212v27.596zm35.304-28.932a2.615 2.615 0 012.612 2.611 2.615 2.615 0 01-2.612 2.612H42.61a1.563 1.563 0 000 3.125h11.828a2.615 2.615 0 012.611 2.612 2.615 2.615 0 01-2.611 2.612H42.609a1.563 1.563 0 000 3.125h8.811a2.615 2.615 0 012.612 2.612 2.615 2.615 0 01-2.612 2.612h-8.81a1.563 1.563 0 000 3.125h5.565a2.615 2.615 0 012.612 2.611 2.615 2.615 0 01-2.612 2.612H27.093c-2.126 0-4.208-.394-6.187-1.17l-2-.784V48.114l3.81-2.074a14.944 14.944 0 006.912-8.047l3.045-8.416.84.255a5.792 5.792 0 013.492 2.914 5.791 5.791 0 01.342 4.535l-2.446 7.263a1.562 1.562 0 001.48 2.062h14.705z"/></mask><path d="M75.312 0H13.124a4.693 4.693 0 00-4.687 4.687v25.938a4.693 4.693 0 004.688 4.687h2.812a1.563 1.563 0 000-3.125h-2.813a1.564 1.564 0 01-1.562-1.562V4.687c0-.861.7-1.562 1.563-1.562h62.187c.861 0 1.562.7 1.562 1.562v25.938c0 .861-.7 1.562-1.562 1.562H64.86c-.415 0-.812.165-1.105.458L58.61 37.79l-5.145-5.145a1.563 1.563 0 00-1.105-.458H40.176a9.17 9.17 0 00-.392-.871 8.89 8.89 0 00-5.362-4.474l-2.259-.686a1.562 1.562 0 00-1.924.963l-3.55 9.81a11.822 11.822 0 01-5.467 6.366L17.89 45.11a4.454 4.454 0 00-3.444-1.628H4.46A4.466 4.466 0 000 47.942v27.596A4.466 4.466 0 004.461 80h9.984a4.46 4.46 0 003.726-2.01l1.594.624c2.344.92 4.81 1.386 7.328 1.386h21.082a5.743 5.743 0 005.737-5.737 5.699 5.699 0 00-.776-2.874 5.747 5.747 0 004.02-5.474 5.702 5.702 0 00-.812-2.94 5.746 5.746 0 003.83-5.409 5.746 5.746 0 00-4.111-5.5 5.7 5.7 0 00.76-2.848 5.743 5.743 0 00-5.737-5.737h-12.53l1.753-5.202a8.98 8.98 0 00.472-2.967h10.933l5.792 5.793a1.558 1.558 0 002.21 0l5.792-5.793h9.804a4.693 4.693 0 004.687-4.687V4.687A4.693 4.693 0 0075.312 0zm-59.53 75.538c0 .737-.6 1.337-1.337 1.337H4.461c-.737 0-1.336-.6-1.336-1.337V47.942c0-.737.6-1.336 1.336-1.336h3.43v19.237a1.563 1.563 0 003.125 0V46.606h3.43c.583 0 1.08.377 1.26.899.014.076.033.15.057.225.011.07.019.14.019.212v27.596zm35.304-28.932v0a2.615 2.615 0 012.612 2.611 2.615 2.615 0 01-2.612 2.612H42.61a1.563 1.563 0 000 3.125h11.828a2.615 2.615 0 012.611 2.612 2.615 2.615 0 01-2.611 2.612H42.609a1.563 1.563 0 000 3.125h8.811a2.615 2.615 0 012.612 2.612 2.615 2.615 0 01-2.612 2.612h-8.81a1.563 1.563 0 000 3.125h5.565a2.615 2.615 0 012.612 2.611 2.615 2.615 0 01-2.612 2.612H27.093c-2.126 0-4.208-.394-6.187-1.17l-2-.784V48.114l3.81-2.074a14.944 14.944 0 006.912-8.047l3.045-8.416.84.255a5.792 5.792 0 013.492 2.914 5.791 5.791 0 01.342 4.535l-2.446 7.263a1.562 1.562 0 001.48 2.062h14.705z" fill="#DFB48F" stroke="#9F0033" stroke-width=".8" mask="url(#a)"/><path d="M64.59 9.36h0c.881 0 1.67.489 2.06 1.279l1.236 2.504.047.093.103.016 2.764.4a2.282 2.282 0 011.854 1.563 2.28 2.28 0 01-.466 2.235l-.114.118-1.999 1.95-.076.074.019.103.472 2.753a2.28 2.28 0 01-.913 2.245 2.28 2.28 0 01-2.418.176l-2.472-1.299-.093-.049-.093.05-2.472 1.3c-.34.179-.707.267-1.071.267-.473 0-.944-.149-1.347-.442a2.28 2.28 0 01-.914-2.245l.471-2.753.019-.103-.076-.073-2-1.949a2.282 2.282 0 01-.582-2.354 2.279 2.279 0 011.692-1.534l.16-.029 2.764-.402.105-.016.046-.093 1.235-2.505a2.28 2.28 0 012.059-1.28zm-.179 3.627l-.817 1.66a2.295 2.295 0 01-1.729 1.255l-1.83.267-.401.058.29.283 1.325 1.29c.541.527.789 1.288.661 2.033l-.312 1.822-.069.4.359-.19 1.636-.86a2.296 2.296 0 012.01-.063l.127.062 1.637.86.36.189-.07-.4-.313-1.822a2.296 2.296 0 01.66-2.032l1.324-1.292.29-.282-.402-.059-1.83-.265a2.296 2.296 0 01-1.728-1.255l-.82-1.659-.178-.363-.18.363zM44.71 9.36h.002c.88 0 1.668.489 2.058 1.279l1.237 2.504.047.093.103.016 2.764.4a2.282 2.282 0 011.854 1.563 2.28 2.28 0 01-.58 2.353l-2 1.95-.075.074.019.103.472 2.753a2.28 2.28 0 01-.913 2.245 2.28 2.28 0 01-2.418.176l-2.472-1.299-.093-.049-.093.05-2.472 1.3a2.288 2.288 0 01-2.418-.175 2.28 2.28 0 01-.914-2.245l.471-2.753.019-.103-.076-.073-2-1.949a2.282 2.282 0 01-.582-2.354 2.279 2.279 0 011.692-1.534l.16-.029 2.765-.402.104-.016.046-.093 1.235-2.505a2.28 2.28 0 012.059-1.28zm-.178 3.627l-.817 1.659a2.297 2.297 0 01-1.73 1.256l-1.829.267-.401.058.29.283 1.325 1.29c.541.527.788 1.288.66 2.033l-.311 1.822-.069.4.359-.19 1.636-.86a2.296 2.296 0 012.137-.001l1.637.86.36.189-.07-.4-.313-1.822a2.296 2.296 0 01.66-2.032l1.324-1.292.29-.282-.401-.059-1.83-.265a2.296 2.296 0 01-1.729-1.255l-.82-1.659-.178-.363-.18.363zM24.836 9.36h0c.882 0 1.67.489 2.06 1.279l1.236 2.504.047.093.103.016 2.765.4a2.282 2.282 0 011.853 1.563 2.28 2.28 0 01-.58 2.353l-2 1.95-.075.074.018.103.472 2.753a2.28 2.28 0 01-.912 2.245 2.28 2.28 0 01-2.418.176l-2.472-1.299-.093-.049-.093.05-2.472 1.3a2.288 2.288 0 01-2.418-.175 2.28 2.28 0 01-.914-2.245l.471-2.753.019-.103-.077-.073-2-1.949a2.28 2.28 0 01-.58-2.353 2.28 2.28 0 011.852-1.564l2.764-.402.104-.016.046-.093 1.235-2.505a2.28 2.28 0 012.059-1.28zm-.179 3.627l-.817 1.659a2.296 2.296 0 01-1.729 1.256l-1.83.267-.401.058.29.283 1.325 1.29c.541.527.788 1.287.661 2.032l-.312 1.823-.069.4.359-.19 1.636-.86a2.296 2.296 0 012.137-.001l1.637.86.36.189-.07-.4-.313-1.822a2.295 2.295 0 01.66-2.032l1.324-1.292.29-.282-.401-.059-1.83-.265a2.296 2.296 0 01-1.729-1.255l-.82-1.659-.178-.363-.18.363z" fill="#fff" stroke="#9F0033" stroke-width=".4"/><path d="M9.453 70.1c.753 0 1.362.61 1.362 1.362v.024a1.362 1.362 0 11-2.724 0v-.024c0-.752.61-1.362 1.362-1.362z" fill="#DFB48F" stroke="#9F0033" stroke-width=".4"/></g><defs><clipPath id="clip0_2305_18439"><path fill="#fff" d="M0 0h80v80H0z"/></clipPath></defs></svg>