<svg width="80" height="80" fill="none" xmlns="http://www.w3.org/2000/svg"><g clip-path="url(#clip0_2305_18461)"><path d="M.252 7.339l5.336 9.336c.18.316.481.544.833.632l4.978 1.245L28.47 35.623l1.886-1.886-17.339-17.339a1.33 1.33 0 00-.619-.351l-4.783-1.2-4.542-7.954L6.968 3l7.957 4.547 1.2 4.782c.059.235.18.45.351.62l17.34 17.34 1.886-1.887L18.629 11.33l-1.244-4.975a1.336 1.336 0 00-.632-.835L7.416.186a1.334 1.334 0 00-1.6.214L.48 5.735A1.334 1.334 0 00.252 7.34z" fill="#DFB48F"/><path d="M55.706 26.287L26.363 55.63l-1.886-1.886L53.82 24.4l1.886 1.886zM21.227 56.668a1.333 1.333 0 00-1.143-.647H12.08c-.468 0-.902.245-1.143.647l-4.001 6.669c-.254.422-.254.95 0 1.374l4.001 6.668c.241.401.675.647 1.143.647h8.003c.468 0 .902-.246 1.143-.647l4.001-6.668a1.334 1.334 0 000-1.374l-4.001-6.669zm-1.898 12.69h-6.493l-3.201-5.334 3.201-5.336h6.493l3.201 5.336-3.2 5.335z" fill="#fff"/><path d="M64.1 32.013c8.808.03 15.974-7.088 16.004-15.897.004-1.34-.16-2.676-.49-3.976a1.334 1.334 0 00-2.237-.622l-8.302 8.297-6.588-2.195-2.197-6.586 8.303-8.304a1.334 1.334 0 00-.626-2.238C59.424-1.67 50.746 3.5 48.583 12.042a15.916 15.916 0 00-.489 3.966c.003 1.05.112 2.097.325 3.125l-29.21 29.21a15.735 15.735 0 00-3.125-.325c-8.84 0-16.006 7.166-16.006 16.006 0 8.839 7.166 16.005 16.006 16.005 8.839 0 16.005-7.166 16.005-16.005a15.691 15.691 0 00-.325-3.126l6.993-6.992 3.059 3.058c.52.52 1.365.52 1.886 0l.667-.667a1.501 1.501 0 012.115 0c.584.582.585 1.528.002 2.113l-.002.002-.667.667c-.52.52-.52 1.365 0 1.886l15.91 15.91c4.186 4.224 11.001 4.254 15.224.07 4.223-4.185 4.254-11.001.069-15.224l-.069-.07-15.91-15.91a1.334 1.334 0 00-1.886 0l-.667.667a1.5 1.5 0 01-2.115 0 1.494 1.494 0 01-.003-2.112l.003-.003.667-.667c.52-.52.52-1.365 0-1.886l-3.059-3.058 6.993-6.993c1.029.212 2.076.32 3.125.324zm5.24 45.349a8.105 8.105 0 01-2.837-.518L76.92 66.427a8.088 8.088 0 01-7.58 10.935zM54.23 42.697a4.163 4.163 0 005.868 5.86l14.968 14.981c.162.163.314.335.461.51L64.123 75.45a7.774 7.774 0 01-.51-.461L48.635 60.01a4.163 4.163 0 00-5.869-5.862l-2.133-2.134 11.463-11.446 2.135 2.129zm5.385-13.415l-30.257 30.25a1.336 1.336 0 00-.352 1.268c1.83 7.186-2.512 14.495-9.699 16.325-7.186 1.83-14.495-2.513-16.325-9.7-1.829-7.185 2.513-14.494 9.7-16.324a13.435 13.435 0 016.625 0c.455.111.935-.022 1.268-.352l30.25-30.252c.33-.33.464-.812.35-1.266-1.817-7.103 2.467-14.333 9.569-16.15a13.28 13.28 0 014.113-.39l-7.036 7.04a1.333 1.333 0 00-.322 1.363l2.667 8.003c.133.398.446.71.844.843l8.003 2.668c.479.16 1.007.035 1.364-.322l7.036-7.036c.016.255.024.507.024.758.037 7.328-5.873 13.3-13.202 13.338a13.288 13.288 0 01-3.36-.415 1.335 1.335 0 00-1.267.35h.007z" fill="#DFB48F"/><path d="M69.044 67.082l-1.886 1.886L53.82 55.631l1.886-1.887 13.338 13.338z" fill="#fff"/></g><defs><clipPath id="clip0_2305_18461"><path fill="#fff" d="M0 0h80v80H0z"/></clipPath></defs></svg>