<svg width="80" height="80" fill="none" xmlns="http://www.w3.org/2000/svg"><path d="M70.653 30.715H56.185V7.96A8.042 8.042 0 0048.028.057H10.347A8.143 8.143 0 002 7.96v24.12a8.143 8.143 0 008.347 7.903h.209v7.582a1.72 1.72 0 002.792 1.345l11.2-8.927h.267v22.662a8.138 8.138 0 008.255 7.996h23.38l11.203 8.927a1.72 1.72 0 002.79-1.346v-7.581h.21A8.143 8.143 0 0079 62.738v-24.12a8.143 8.143 0 00-8.347-7.903zm-46.42 6.416c-.44.002-.867.152-1.213.424l-9.613 7.66v-6.19a1.91 1.91 0 00-1.92-1.894h-1.14a5.292 5.292 0 01-5.495-5.05V7.96a5.293 5.293 0 015.495-5.05h37.68a5.188 5.188 0 015.306 5.05v24.12a5.19 5.19 0 01-5.306 5.051H24.232zm51.915 25.607a5.293 5.293 0 01-5.495 5.05h-1.14a1.91 1.91 0 00-1.92 1.895v6.19l-9.617-7.663a1.956 1.956 0 00-1.209-.421H33.07a5.284 5.284 0 01-5.403-5.144V39.983h20.36a8.104 8.104 0 008.009-6.416h14.617a5.293 5.293 0 015.495 5.05v24.121z" fill="#DFB48F"/><path d="M36.56 26.451a10.01 10.01 0 10-2.175 1.847l.808.916a1.426 1.426 0 002.14-1.887l-.773-.876zm-7.467.53a7.13 7.13 0 117.13-7.13 7.058 7.058 0 01-1.584 4.424l-3.091-3.505a1.426 1.426 0 00-2.14 1.887l3.04 3.445a7.038 7.038 0 01-3.355.878zm31.254 31.632l-7.124-16.961-.006-.014a1.427 1.427 0 00-2.629 0l-.005.013-7.124 16.962a1.426 1.426 0 002.629 1.104l1.98-4.715h7.67l1.98 4.715a1.425 1.425 0 002.629-1.104zM49.266 52.15l2.637-6.278 2.637 6.278h-5.274z" fill="#fff"/></svg>