<svg width="80" height="80" fill="none" xmlns="http://www.w3.org/2000/svg"><path d="M33.627 26.643l-6.187-6.188a1.25 1.25 0 00-1.767 0l-2.653 2.651a3.75 3.75 0 01-5.303 0l-.303-.302a3.75 3.75 0 010-5.304l2.651-2.652a1.25 1.25 0 000-1.768l-6.188-6.186a1.25 1.25 0 00-1.768 0L9.458 9.545a11.263 11.263 0 000 15.91l5.606 5.606a11.263 11.263 0 0015.91 0l2.653-2.65a1.25 1.25 0 000-1.768zm-7.07-3.537l4.418 4.42-.883.884-4.42-4.42.885-.884zM12.994 9.546l4.419 4.418-.884.885-4.42-4.42.885-.884zm3.838 19.75l-5.607-5.608a8.765 8.765 0 01-.82-11.428l4.444 4.445a6.261 6.261 0 00.796 7.866l.303.303a6.265 6.265 0 007.866.796l4.445 4.445a8.767 8.767 0 01-11.427-.821v.001z" fill="#fff"/><path d="M33.75 40H6.25a3.75 3.75 0 01-3.75-3.75v-30A3.75 3.75 0 016.25 2.5h27.5a3.75 3.75 0 013.75 3.75v30A3.75 3.75 0 0133.75 40zM6.25 5A1.25 1.25 0 005 6.25v30a1.25 1.25 0 001.25 1.25h27.5A1.25 1.25 0 0035 36.25v-30A1.25 1.25 0 0033.75 5H6.25zm27.5 72.5H6.25a3.75 3.75 0 01-3.75-3.75v-27.5a3.75 3.75 0 013.75-3.75h27.5a3.75 3.75 0 013.75 3.75v27.5a3.75 3.75 0 01-3.75 3.75zM6.25 45A1.25 1.25 0 005 46.25v27.5A1.25 1.25 0 006.25 75h27.5A1.25 1.25 0 0035 73.75v-27.5A1.25 1.25 0 0033.75 45H6.25z" fill="#DFB48F"/><path d="M31.25 51.25H8.75A1.25 1.25 0 007.5 52.5v15a1.25 1.25 0 001.25 1.25h22.5a1.25 1.25 0 001.25-1.25v-15a1.25 1.25 0 00-1.25-1.25zM20 60.813l-7.96-7.063h15.918L20 60.813zm-4.668-.802L10 64.725v-9.444l5.332 4.73zm1.883 1.671l1.125 1a2.492 2.492 0 003.339.007l1.125-1 5.147 4.561H12.05l5.166-4.568zm7.465-1.67l5.32-4.73v9.443l-5.32-4.714z" fill="#fff"/><path d="M73.75 2.5h-27.5a3.75 3.75 0 00-3.75 3.75v30A3.75 3.75 0 0046.25 40h6.25v15.672l-1.462-3.098a3.703 3.703 0 00-1.712-2.164 3.759 3.759 0 00-2.851-.375l-1.151.31a2.5 2.5 0 00-1.723 3.2L48.82 68.7c.05.146.127.282.227.4l3.386 4 .068 3.176a1.25 1.25 0 001.25 1.224h17.5a1.25 1.25 0 001.25-1.25v-3.375l2.29-3.435c.136-.205.209-.444.21-.69V52.5a3.657 3.657 0 00-1.093-2.635 3.823 3.823 0 00-4.037-.852 3.584 3.584 0 00-.963-1.648 3.825 3.825 0 00-4.037-.852 3.584 3.584 0 00-.963-1.648A3.815 3.815 0 0060 43.964V40h13.75a3.75 3.75 0 003.75-3.75v-30a3.75 3.75 0 00-3.75-3.75zm-12.5 43.75a1.218 1.218 0 01.89.383 1.198 1.198 0 01.36.867v8.75a1.25 1.25 0 002.5 0V50a1.25 1.25 0 011.735-1.151c.153.066.29.162.405.284a1.198 1.198 0 01.36.867v6.25a1.25 1.25 0 002.5 0V52.5a1.25 1.25 0 011.735-1.151c.153.066.29.162.405.284a1.198 1.198 0 01.36.867v15.875l-2.29 3.435a1.257 1.257 0 00-.21.69V75H54.974l-.051-2.401a1.25 1.25 0 00-.296-.783l-3.522-4.157-5.131-14.909 1.142-.307c.324-.087.67-.042.96.125a1.226 1.226 0 01.578.75c.018.073 3.966 8.453 3.966 8.453A1.25 1.25 0 0055 61.25V36.39A1.352 1.352 0 0156.134 35a1.218 1.218 0 011.006.375 1.195 1.195 0 01.36.875v20a1.25 1.25 0 002.5 0V47.5a1.25 1.25 0 011.25-1.25zm13.75-10a1.25 1.25 0 01-1.25 1.25H60v-1.25a3.657 3.657 0 00-1.093-2.635 3.707 3.707 0 00-2.983-1.101A3.847 3.847 0 0052.5 36.39v1.11h-6.25A1.25 1.25 0 0145 36.25v-30A1.25 1.25 0 0146.25 5h27.5A1.25 1.25 0 0175 6.25v30z" fill="#DFB48F"/><path d="M60 10a10 10 0 000 20h5a1.25 1.25 0 000-2.5h-5a7.5 7.5 0 117.5-7.5v1.25a1.25 1.25 0 01-2.5 0V20a5.041 5.041 0 10-1.608 3.65A3.734 3.734 0 0070 21.25V20a10.011 10.011 0 00-10-10zm0 12.5a2.5 2.5 0 110-5 2.5 2.5 0 010 5z" fill="#fff"/></svg>