<svg width="80" height="80" fill="none" xmlns="http://www.w3.org/2000/svg"><g clip-path="url(#clip0_2305_18486)" stroke="#9F0033" stroke-width=".5"><path d="M40.512 29.94a7.911 7.911 0 110 15.822 7.911 7.911 0 010-15.822zm0 3.386a4.525 4.525 0 100 9.05 4.525 4.525 0 000-9.05z" fill="#fff"/><path d="M14.445 6.857A7.036 7.036 0 0119.98 5.26v.001l.007.001 53.041 6.022v0a7.62 7.62 0 016.679 8.37l-4.469 39.442a7.812 7.812 0 01-2.724 5.076 9.462 9.462 0 01-3.583 1.507l-.203.04v1.76c0 4.113-3.75 7.328-7.91 7.328H7.478a7.134 7.134 0 01-7.227-7.321v-39.74c.001-4.162 3.119-7.813 7.231-7.813h3.233l.027-.22.972-7.966v-.003a7.135 7.135 0 012.44-4.652l.282-.23.008-.006zm10.69 42.464a4.913 4.913 0 00-6.341-.303L3.74 60.09l-.101.075v7.315a3.747 3.747 0 003.66 3.942h53.518c1.127 0 2.251-.41 3.097-1.101.786-.643 1.341-1.54 1.418-2.591h.01V48.2l-.375.217-19.138 11.075-.004.003a8.59 8.59 0 01-4.531 1.225 8.882 8.882 0 01-5.574-2.077h-.001l-10.584-9.322zM19.647 8.554a4.719 4.719 0 00-3.077.82l-.011.008-.011.01a4.719 4.719 0 00-1.538 2.667l-.002.009-.001.01-.875 7.577-.031.28h46.71l.4.018a8.105 8.105 0 017.517 7.802V62.04h.5a.174.174 0 01-.03.098.076.076 0 01-.006.006l.004-.003.01-.009a.558.558 0 01.04-.025c.074-.044.181-.092.32-.155.252-.115.606-.275.84-.502a3.55 3.55 0 001.346-2.782l4.565-39.44.005-.044v0a4.137 4.137 0 00-3.726-4.51h-.001l-52.94-6.119v0h-.008zM65.343 27.74l-.001-.008a4.719 4.719 0 00-4.29-4.397l-.224-.014H7.483c-2.32 0-3.844 2.202-3.844 4.427v28.178l.396-.289L16.86 46.31h.002a8.397 8.397 0 0110.47.373v.001l10.686 9.423v0l.002.004a5.205 5.205 0 006.022.51l-.001-.001 21.178-12.336.124-.073V27.74z" fill="#DFB48F"/></g><defs><clipPath id="clip0_2305_18486"><path fill="#fff" d="M0 0h80v80H0z"/></clipPath></defs></svg>