<svg width="80" height="80" fill="none" xmlns="http://www.w3.org/2000/svg"><path d="M40.062 17.243c-11.323 0-20.574 9.251-20.574 20.574 0 5.92 2.59 11.619 6.957 15.467 3.256 3.256 2.96 10.213 2.886 10.287 0 .37.074.666.37.962.222.222.592.37.888.37h18.872c.37 0 .666-.148.888-.37.222-.222.37-.592.37-.962 0-.074-.37-7.03 2.886-10.287l.222-.222c4.292-3.922 6.808-9.473 6.808-15.245 0-11.323-9.25-20.574-20.573-20.574zm11.84 34.117c-.073.074-.221.222-.221.296-2.886 3.108-3.405 8.215-3.479 10.657H31.847c-.074-2.442-.592-7.77-3.7-10.953a18.037 18.037 0 01-6.216-13.617c0-9.99 8.066-18.057 18.057-18.057 9.99 0 18.057 8.066 18.057 18.057 0 5.254-2.22 10.213-6.142 13.617z" fill="#DFB48F"/><path d="M39.987 22.498c-.666 0-1.259.592-1.259 1.258s.593 1.258 1.259 1.258c7.474 0 13.469 6.068 13.469 13.469 0 .666.592 1.258 1.258 1.258s1.258-.592 1.258-1.258c.074-8.807-7.105-15.985-15.985-15.985z" fill="#fff"/><path d="M48.202 66.31h-16.43a3.127 3.127 0 00-3.108 3.107 3.127 3.127 0 003.108 3.108h16.355c1.777-.074 3.183-1.406 3.183-3.108a3.127 3.127 0 00-3.108-3.108zm0 3.625h-16.43a.584.584 0 01-.592-.592c0-.37.222-.592.592-.592h16.355c.296 0 .593.222.593.592s-.222.592-.518.592z" fill="#DFB48F"/><path d="M45.759 73.783H34.214a3.127 3.127 0 00-3.108 3.109A3.127 3.127 0 0034.213 80h11.545a3.127 3.127 0 003.108-3.108c0-1.776-1.406-3.109-3.108-3.109zm0 3.627H34.214a.584.584 0 01-.592-.592c0-.37.222-.592.592-.592h11.545c.296 0 .592.222.592.592s-.296.592-.592.592z" fill="#fff"/><path d="M39.987 11.1c.74 0 1.258-.591 1.258-1.257V1.258C41.245.592 40.653 0 39.987 0s-1.259.592-1.259 1.258v8.585c0 .666.593 1.258 1.259 1.258zm20.944-4.735c-.592-.444-1.332-.222-1.702.296l-4.736 7.104c-.445.592-.297 1.406.296 1.776.222.148.444.222.666.222.444 0 .814-.222 1.036-.592l4.736-7.104c.444-.518.296-1.332-.296-1.702zm-35.966 9.102c.222 0 .444-.074.666-.222.592-.37.74-1.184.37-1.776l-4.589-7.178c-.37-.593-1.184-.74-1.776-.37-.592.37-.74 1.184-.37 1.776l4.589 7.178c.296.444.666.592 1.11.592zm-8.955 7.845l-7.475-4.07c-.592-.297-1.406-.075-1.702.517a1.181 1.181 0 00.518 1.703l7.474 4.07c.222.074.37.148.592.148a1.22 1.22 0 001.11-.666c.296-.592.074-1.406-.518-1.702zm57.206-3.552c-.296-.593-1.11-.815-1.702-.519l-7.549 4.07c-.592.297-.814 1.11-.518 1.703a1.22 1.22 0 001.11.666c.222 0 .444-.074.592-.148l7.549-4.07c.592-.296.814-1.11.518-1.703z" fill="#DFB48F"/></svg>