<svg width="80" height="80" fill="none" xmlns="http://www.w3.org/2000/svg"><g clip-path="url(#clip0_2305_16335)"><path d="M41.06 49.564a1.263 1.263 0 00-1.683-.6c-1.025.487-2.1.889-3.195 1.195a1.262 1.262 0 00-.898.969l-1.336 6.68a1.42 1.42 0 01-1.389 1.14h-3.645a1.42 1.42 0 01-1.389-1.14l-1.336-6.68a1.263 1.263 0 00-.898-.969 20.067 20.067 0 01-4.436-1.838 1.263 1.263 0 00-1.32.05l-5.67 3.78a1.42 1.42 0 01-1.787-.178L9.5 49.395a1.42 1.42 0 01-.177-1.787l3.78-5.67c.264-.395.283-.906.05-1.32a20.064 20.064 0 01-1.839-4.436 1.263 1.263 0 00-.969-.898l-6.68-1.337a1.42 1.42 0 01-1.14-1.388v-3.645a1.42 1.42 0 011.14-1.39l6.68-1.335c.467-.094.84-.44.97-.898a20.067 20.067 0 011.837-4.437 1.264 1.264 0 00-.05-1.32l-3.779-5.67a1.42 1.42 0 01.177-1.787L12.078 9.5a1.42 1.42 0 011.787-.177l5.67 3.78c.395.264.906.283 1.32.05a20.067 20.067 0 014.436-1.839c.458-.128.805-.502.898-.969l1.337-6.68a1.42 1.42 0 011.389-1.14h3.645a1.42 1.42 0 011.388 1.14l1.337 6.68c.093.467.44.84.898.97a20.067 20.067 0 014.436 1.837 1.26 1.26 0 001.32-.05l5.67-3.779a1.42 1.42 0 011.787.177l2.578 2.578a1.42 1.42 0 01.177 1.787l-3.78 5.67a1.263 1.263 0 00-.05 1.32 20.067 20.067 0 011.839 4.436c.128.458.502.805.969.898l6.68 1.337a1.42 1.42 0 011.14 1.388v3.645a1.42 1.42 0 01-1.14 1.39l-6.68 1.335c-.467.094-.841.44-.97.899a20.102 20.102 0 01-1.23 3.27 1.263 1.263 0 102.277 1.094c.454-.947.844-1.93 1.163-2.934l5.936-1.188a3.954 3.954 0 003.169-3.866v-3.645a3.953 3.953 0 00-3.17-3.866l-5.936-1.187a22.604 22.604 0 00-1.474-3.558l3.358-5.037a3.953 3.953 0 00-.492-4.975l-2.578-2.578a3.954 3.954 0 00-4.975-.492l-5.037 3.358a22.618 22.618 0 00-3.558-1.474l-1.187-5.936A3.953 3.953 0 0032.56 0h-3.645a3.953 3.953 0 00-3.866 3.17l-1.187 5.935a22.6 22.6 0 00-3.558 1.474l-5.037-3.358a3.953 3.953 0 00-4.975.493L7.714 10.29a3.954 3.954 0 00-.493 4.975l3.358 5.038a22.61 22.61 0 00-1.474 3.557L3.17 25.048A3.953 3.953 0 000 28.914v3.645a3.953 3.953 0 003.17 3.867l5.935 1.187c.39 1.225.883 2.417 1.474 3.557l-3.358 5.038a3.953 3.953 0 00.493 4.975l2.577 2.577a3.954 3.954 0 004.975.493l5.038-3.358a22.615 22.615 0 003.557 1.474l1.187 5.936a3.953 3.953 0 003.866 3.169h3.645a3.953 3.953 0 003.867-3.17l1.187-5.935a22.88 22.88 0 002.848-1.122c.63-.3.898-1.053.6-1.683z" fill="#DFB48F"/><path d="M41.679 37.756a1.263 1.263 0 001.7-.547 14.243 14.243 0 001.558-6.472c0-7.83-6.37-14.199-14.2-14.199a14.121 14.121 0 00-9.91 4.032 1.263 1.263 0 001.763 1.808 11.61 11.61 0 018.147-3.314c6.437 0 11.673 5.237 11.673 11.673 0 1.874-.43 3.664-1.279 5.319a1.263 1.263 0 00.548 1.7zM18.914 25.332a1.263 1.263 0 00-1.606.784 14.177 14.177 0 00-.769 4.62c0 7.83 6.37 14.2 14.199 14.2 3.011 0 5.888-.93 8.32-2.692a1.264 1.264 0 00-1.482-2.046 11.588 11.588 0 01-6.838 2.211c-6.437 0-11.673-5.236-11.673-11.672 0-1.303.213-2.581.632-3.8a1.263 1.263 0 00-.783-1.605zm58.655 29.874l-3.653-.73a15.283 15.283 0 00-.801-1.934l2.067-3.1a3.032 3.032 0 00-.378-3.815l-1.694-1.694a3.032 3.032 0 00-3.816-.378l-3.1 2.067a15.247 15.247 0 00-1.933-.801l-.73-3.653a3.032 3.032 0 00-2.965-2.43H58.17a3.032 3.032 0 00-2.965 2.43l-.73 3.653c-.662.222-1.309.49-1.934.8l-3.1-2.066a3.032 3.032 0 00-3.815.378l-1.694 1.694a3.032 3.032 0 00-.378 3.815l2.067 3.1a15.305 15.305 0 00-1.032 2.684 1.263 1.263 0 002.433.68c.275-.983.668-1.931 1.168-2.819a1.263 1.263 0 00-.05-1.32l-2.483-3.726a.5.5 0 01.062-.628l1.694-1.694a.5.5 0 01.628-.062l3.725 2.484c.396.264.906.283 1.321.05.888-.5 1.836-.894 2.82-1.169.457-.128.804-.502.897-.968l.878-4.39a.499.499 0 01.488-.4h2.396a.5.5 0 01.488.4l.878 4.39c.093.466.44.84.898.969.983.275 1.931.668 2.819 1.168.414.233.925.214 1.32-.05l3.726-2.484a.499.499 0 01.628.063l1.694 1.693a.5.5 0 01.062.628l-2.484 3.726a1.263 1.263 0 00-.05 1.32c.5.888.894 1.837 1.169 2.82.128.458.502.805.969.898l4.39.878c.232.046.4.252.4.488v2.395a.5.5 0 01-.4.488l-4.39.878c-.467.094-.841.44-.97.898a12.746 12.746 0 01-1.167 2.82c-.234.414-.215.925.05 1.32l2.483 3.726a.5.5 0 01-.062.628l-1.694 1.694a.499.499 0 01-.628.062l-3.726-2.484a1.264 1.264 0 00-1.32-.05c-.888.5-1.836.894-2.82 1.169a1.263 1.263 0 00-.898.968l-.878 4.39a.499.499 0 01-.488.4H58.17a.5.5 0 01-.488-.4l-.878-4.39a1.263 1.263 0 00-.898-.969 12.747 12.747 0 01-2.82-1.168 1.263 1.263 0 00-1.32.05L48.04 73.08a.499.499 0 01-.628-.063l-1.694-1.693a.5.5 0 01-.062-.628l2.484-3.726c.264-.396.283-.906.05-1.32a12.75 12.75 0 01-1.168-2.82 1.262 1.262 0 00-.97-.898l-4.39-.878a.499.499 0 01-.4-.488v-2.395a.5.5 0 01.4-.488l.27-.054a1.263 1.263 0 10-.496-2.477l-.269.053a3.032 3.032 0 00-2.43 2.966v2.395a3.032 3.032 0 002.43 2.965l3.653.73c.222.663.49 1.31.8 1.934l-2.066 3.1a3.032 3.032 0 00.378 3.816l1.694 1.693a3.032 3.032 0 003.816.378l3.1-2.067c.624.311 1.27.58 1.932.801l.73 3.653A3.033 3.033 0 0058.17 80h2.396a3.032 3.032 0 002.965-2.43l.73-3.654c.663-.222 1.309-.49 1.934-.8l3.1 2.066a3.03 3.03 0 003.815-.378l1.694-1.694a3.032 3.032 0 00.378-3.815l-2.067-3.1c.31-.625.579-1.271.801-1.933l3.653-.73a3.032 3.032 0 002.43-2.966v-2.395a3.032 3.032 0 00-2.43-2.965z" fill="#DFB48F"/><path d="M59.369 54.821a4.552 4.552 0 014.547 4.547 1.263 1.263 0 102.526 0c0-3.9-3.173-7.073-7.073-7.073a7.082 7.082 0 00-7.074 7.073c0 3.9 3.173 7.074 7.074 7.074 1.58 0 3.074-.51 4.321-1.473a1.263 1.263 0 00-1.544-2 4.504 4.504 0 01-2.777.947 4.552 4.552 0 01-4.548-4.548 4.553 4.553 0 014.548-4.547zM38.433 30.737c0-4.244-3.453-7.696-7.696-7.696-4.244 0-7.696 3.453-7.696 7.696s3.452 7.696 7.696 7.696c4.243 0 7.696-3.453 7.696-7.696zm-12.866 0c0-2.85 2.32-5.17 5.17-5.17s5.17 2.32 5.17 5.17-2.32 5.17-5.17 5.17-5.17-2.32-5.17-5.17z" fill="#fff"/></g><defs><clipPath id="clip0_2305_16335"><path fill="#fff" d="M0 0h80v80H0z"/></clipPath></defs></svg>