<svg width="80" height="80" fill="none" xmlns="http://www.w3.org/2000/svg"><path d="M78.08 58.808a3.901 3.901 0 00-5.322-1.426l-16.015 9.246-13.309-4.638a6.39 6.39 0 00.456-.59l8.287-1.209c2.33-.339 3.957-2.026 3.957-4.103a4.12 4.12 0 00-4.115-4.114H41.121a6.334 6.334 0 00-2.502-.513 6.33 6.33 0 00-2.678.592l-15.656 6.274h-7.57v-2.72c0-.603-.49-1.093-1.093-1.093H2.5c-.604 0-1.094.49-1.094 1.094V77.5c0 .604.49 1.094 1.094 1.094h9.122c.604 0 1.094-.49 1.094-1.094v-2.703c3.416.09 7.754.567 12.323 1.072 6.158.68 13.111 1.448 19.438 1.448.207 0 .414-.001.62-.003 7.593-.062 13.014-1.288 16.57-3.75L76.69 64.11c1.83-1.152 2.441-3.48 1.39-5.3zM57.218 70.713l1.216 2.175c-.63.29-1.298.547-2.003.773l.787-2.948zm-3.27-14.625c0 1.13-1.048 1.788-2.086 1.939l-6.991 1.019a6.331 6.331 0 00-1.05-4.885h8.2a1.93 1.93 0 011.926 1.927zM42.8 57.83a4.186 4.186 0 01-4.181 4.181 4.186 4.186 0 01-4.182-4.181 4.186 4.186 0 014.182-4.182A4.186 4.186 0 0142.8 57.83zm-22.47 8.724c0 3.33-2.71 6.04-6.04 6.04s-6.04-2.71-6.04-6.04 2.71-6.04 6.04-6.04 6.04 2.71 6.04 6.04zM3.594 76.406V56.702h6.934v2.54a8.23 8.23 0 00-4.465 7.312c0 3.181 1.816 5.944 4.465 7.313v2.54H3.594zm21.685-2.711c-2.053-.227-4.06-.448-5.965-.632a8.216 8.216 0 003.203-6.51 8.206 8.206 0 00-2.648-6.039h.627c.14 0 .278-.027.407-.078l11.698-4.689a6.338 6.338 0 00-.351 2.083 6.376 6.376 0 006.369 6.369c.977 0 1.904-.222 2.733-.618l14.185 4.944-1.541 5.773c-8.015 1.682-19.247.442-28.717-.603zm50.246-11.437l-15.043 9.469a1.094 1.094 0 00-.042.027c-.032.022-.066.043-.098.066l-2.005-3.586 15.515-8.957a1.71 1.71 0 012.334.625c.46.798.17 1.833-.661 2.356zM37.183 57.83c0-.791.645-1.436 1.436-1.436.79 0 1.435.645 1.435 1.436a1.44 1.44 0 01-1.435 1.436 1.439 1.439 0 01-1.436-1.436zm-24.329 8.724c0-.791.645-1.436 1.436-1.436.79 0 1.436.645 1.436 1.436a1.44 1.44 0 01-1.436 1.436 1.439 1.439 0 01-1.436-1.436z" fill="#DFB48F"/><path d="M25.115 36.813c-.29 0-.569.115-.774.32l-6.016 6.017a4.191 4.191 0 00-2.106-.566A4.223 4.223 0 0012 46.803a4.224 4.224 0 004.219 4.219 4.223 4.223 0 004.218-4.22 4.19 4.19 0 00-.565-2.105L25.568 39h11.404c.074.423.273.827.599 1.153l2.303 2.304a2.15 2.15 0 001.53.634 2.15 2.15 0 001.53-.634c.876-.875 1.989-.855 2.739-.545.75.31 1.55 1.084 1.55 2.321 0 1.193.971 2.164 2.164 2.164h3.259c1.193 0 2.163-.97 2.163-2.164 0-1.235.802-2.007 1.552-2.318.75-.31 1.864-.332 2.737.542a2.15 2.15 0 001.53.634 2.15 2.15 0 001.53-.634l2.305-2.304a2.15 2.15 0 00.633-1.53 2.15 2.15 0 00-.633-1.53c-.874-.874-.853-1.987-.542-2.737.31-.75 1.083-1.552 2.318-1.552 1.193 0 2.164-.97 2.164-2.164v-3.258a2.166 2.166 0 00-2.164-2.164c-1.235 0-2.008-.802-2.318-1.552-.311-.75-.332-1.863.542-2.737a2.15 2.15 0 00.633-1.53 2.15 2.15 0 00-.633-1.53l-2.305-2.304a2.15 2.15 0 00-1.53-.634 2.15 2.15 0 00-1.53.634c-.873.873-1.986.853-2.736.542-.75-.311-1.552-1.083-1.552-2.319a2.167 2.167 0 00-2.164-2.164h-3.259a2.167 2.167 0 00-2.164 2.164c0 1.236-.801 2.008-1.551 2.319-.75.31-1.864.331-2.737-.542a2.167 2.167 0 00-3.06 0l-2.304 2.304a2.145 2.145 0 00-.6 1.152H25.568l-5.696-5.696c.359-.62.566-1.34.566-2.106A4.223 4.223 0 0016.218 7 4.224 4.224 0 0012 11.219a4.223 4.223 0 004.219 4.219c.766 0 1.485-.207 2.106-.566l6.016 6.016c.205.205.483.32.774.32h12.697c.622.822.579 1.785.3 2.458-.31.75-1.083 1.552-2.318 1.552-1.193 0-2.164.97-2.164 2.164v.535h-8.628a4.226 4.226 0 00-4.075-3.125 4.223 4.223 0 00-4.218 4.219 4.224 4.224 0 004.218 4.219 4.226 4.226 0 004.075-3.125h8.628v.535c0 1.193.97 2.164 2.164 2.164 1.235 0 2.007.802 2.318 1.552.279.672.322 1.636-.3 2.457H25.115zm-8.896 12.021a2.034 2.034 0 01-2.032-2.031c0-1.12.912-2.031 2.032-2.031s2.031.911 2.031 2.031-.911 2.031-2.031 2.031zm0-35.584a2.034 2.034 0 01-2.032-2.031 2.032 2.032 0 014.063-.001c0 1.12-.911 2.032-2.031 2.032zm4.708 17.792a2.034 2.034 0 01-2.03-2.031c0-1.12.91-2.031 2.03-2.031 1.12 0 2.032.91 2.032 2.03 0 1.12-.912 2.032-2.032 2.032zm14.89-.425v-3.212c1.925-.009 3.578-1.12 4.316-2.902.739-1.783.355-3.736-1-5.104l2.272-2.271c1.367 1.355 3.32 1.738 5.104 1 1.783-.74 2.893-2.391 2.902-4.316h3.211c.01 1.925 1.12 3.577 2.903 4.316 1.782.738 3.736.355 5.103-1l2.272 2.271c-1.355 1.368-1.739 3.32-1 5.104.738 1.783 2.39 2.893 4.316 2.902v3.212c-1.925.009-3.578 1.12-4.316 2.902-.739 1.783-.355 3.736 1 5.104l-2.271 2.27c-1.368-1.354-3.321-1.737-5.104-.999-1.783.739-2.894 2.391-2.903 4.316h-3.211c-.009-1.927-1.119-3.58-2.901-4.318-1.782-.738-3.736-.354-5.105 1.002l-2.271-2.271c1.355-1.367 1.738-3.321 1-5.104-.74-1.783-2.392-2.893-4.316-2.902zm15.2 7.45c4.993 0 9.055-4.063 9.055-9.056 0-4.994-4.062-9.056-9.056-9.056-4.993 0-9.055 4.063-9.055 9.056 0 4.993 4.062 9.056 9.055 9.056zm0-15.924a6.876 6.876 0 016.868 6.868 6.876 6.876 0 01-6.869 6.868 6.876 6.876 0 01-6.868-6.868 6.876 6.876 0 016.868-6.868z" fill="#fff"/></svg>