<svg width="80" height="80" fill="none" xmlns="http://www.w3.org/2000/svg"><g clip-path="url(#clip0_2305_17851)"><path d="M9.153 62.88a1.34 1.34 0 100-2.681 1.34 1.34 0 000 2.68zm58.968-44.391c.741 0 1.34-.6 1.34-1.34v-1.897a1.34 1.34 0 10-2.68 0v1.897c0 .74.6 1.34 1.34 1.34zm0 7.584c.741 0 1.34-.6 1.34-1.34v-1.896a1.34 1.34 0 10-2.68 0v1.896c0 .74.6 1.34 1.34 1.34zm-4.741-4.74h1.896a1.34 1.34 0 100-2.68h-1.897a1.34 1.34 0 100 2.68zm7.585 0h1.897a1.34 1.34 0 100-2.68h-1.897a1.34 1.34 0 100 2.68z" fill="#fff"/><path d="M78.728 46.01a1.35 1.35 0 00-1.307-.512c-.165.03-4.181.672-8.75-3.434-5.264-4.728-7.964-6.069-8.075-6.124a11.597 11.597 0 00-.971-.395c.092-2.52-.224-4.77-.982-6.669-2.325-5.814-1.437-15.093-1.277-16.561 1.467-2.32 2.713-5.53 2.713-9.745a1.34 1.34 0 00-.737-1.193 1.353 1.353 0 00-1.401.116c-.2.147-5.016 3.575-13.577 1.128C34.911-.079 30.766-.11 30.594-.11c-.171 0-4.316.031-13.77 2.732C8.262 5.067 3.448 1.64 3.254 1.498a1.339 1.339 0 00-2.145 1.071c0 4.215 1.246 7.426 2.714 9.745.16 1.469 1.048 10.747-1.278 16.562-2.36 5.904-.006 13.474.974 16.14-1.017.992-2.41 3.09-2.41 7.141a1.34 1.34 0 001.935 1.201c.051-.024 5.175-2.465 13.959-1.215 6.289.899 10.174 1.2 12.106 1.302a26.44 26.44 0 00-.55 3.07c-1.044.412-2.548 1.43-3.77 3.938-.203.415-.175.905.07 1.297.245.391.678.63 1.14.63.04 0 3.993.043 9.129 3.524 5.62 3.807 8.243 5.098 8.351 5.151.11.053 2.744 1.324 9.203 3.405 5.905 1.903 8.375 4.99 8.394 5.015a1.34 1.34 0 002.268-.228c1.225-2.51 1.1-4.32.78-5.397 1.606-1.575 5.296-5.653 5.624-10.143.313-4.27 3.595-9.722 4.262-10.79 1.698-1.065 3.523-2.776 4.858-5.514.22-.453.162-.99-.14-1.392zm-61.346 3.48c-6.36-.907-10.964-.04-13.443.695.45-2.727 1.75-3.506 1.79-3.53a1.34 1.34 0 00.633-1.727c-.038-.088-3.773-8.941-1.327-15.056 1.744-4.363 1.882-10.206 1.729-14.059.921.831 1.608 1.254 1.697 1.308a1.341 1.341 0 001.637-2.097l-3.715-3.716C5.31 9.735 4.313 7.606 3.942 4.866c2.577 1.06 7.24 2.157 13.618.332 9.014-2.575 13-2.629 13.03-2.629.04 0 4.025.054 13.039 2.629 6.38 1.822 11.045.728 13.62-.333-.362 2.714-1.333 4.823-2.387 6.386l-3.772 3.773a1.34 1.34 0 001.637 2.097c.09-.054.777-.477 1.698-1.308-.153 3.853-.016 9.696 1.729 14.058.547 1.37.81 3 .811 4.838-1.508-.415-3.534-.89-6.168-1.358-6.053-1.07-8.014-4.626-8.09-4.766-.23-.452-.648-.696-1.205-.73a1.34 1.34 0 00-1.192.754c-1.334 2.736-1.558 5.227-1.353 7.221-.425 1.176-2.69 7.12-5.872 10.006-1.483 1.344-2.473 3.161-3.158 4.962-1.476-.057-5.48-.298-12.545-1.307zm54.908 1.34l-3.563 1.228a1.34 1.34 0 00-.874 1.546c.142.661.76 1.125 1.428 1.056.05-.004.314-.03.733-.116-1.254 2.449-2.713 5.888-2.938 8.967-.331 4.518-5.384 8.949-5.436 8.993-.502.436-.576 1.226-.217 1.786.022.036.4.652.157 1.935-1.505-1.274-4.113-3.04-8.076-4.316-6.182-1.992-8.777-3.23-8.849-3.264-.07-.034-2.641-1.314-8.024-4.96-3.446-2.336-6.445-3.303-8.375-3.703.857-.981 1.565-1.063 1.57-1.066a1.342 1.342 0 001.325-1.273c.003-.068.38-6.778 3.735-9.822 2.288-2.075 4.097-5.345 5.254-7.841.19.384.334.609.361.65a1.34 1.34 0 002.39-1.168l-1.227-3.556c-.155-1.129-.144-2.5.266-4.028 1.486 1.486 4.12 3.355 8.398 4.113 6.52 1.154 9.073 2.35 9.087 2.356.025.012 2.54 1.287 7.466 5.711 3.232 2.904 6.328 3.829 8.414 4.082a10.143 10.143 0 01-3.005 2.69z" fill="#DFB48F"/><path d="M19.202 66.9a4.696 4.696 0 00-4.69 4.69 4.696 4.696 0 004.69 4.691 4.696 4.696 0 004.691-4.69 4.696 4.696 0 00-4.69-4.691zm0 6.7a2.012 2.012 0 01-2.01-2.01c0-1.108.902-2.01 2.01-2.01a2.01 2.01 0 010 4.02zm-8.184-48.138a1.34 1.34 0 00-1.758.703c-.175.41-4.24 10.095.083 17.3a1.339 1.339 0 001.839.46 1.34 1.34 0 00.459-1.839c-3.614-6.021.046-14.778.084-14.865a1.342 1.342 0 00-.707-1.76z" fill="#fff"/><path d="M64.52 58.927a1.335 1.335 0 00-1.695.848c-.641 1.92-3.091 7.613-5.854 8.534a1.34 1.34 0 00.848 2.543c4.526-1.509 7.252-9.341 7.548-10.23a1.34 1.34 0 00-.847-1.695z" fill="#F5F7FA"/></g><defs><clipPath id="clip0_2305_17851"><path fill="#fff" d="M0 0h80v80H0z"/></clipPath></defs></svg>