<svg width="80" height="80" fill="none" xmlns="http://www.w3.org/2000/svg"><path d="M73.75 1.25H6.25A6.25 6.25 0 000 7.5v50a6.25 6.25 0 006.25 6.25H31.5l-4.688 7.5h-1.187a3.75 3.75 0 000 7.5h28.75a3.75 3.75 0 100-7.5h-1.25l-4.625-7.5h25.25A6.25 6.25 0 0080 57.5v-50a6.25 6.25 0 00-6.25-6.25zm-19.375 72.5a1.25 1.25 0 010 2.5h-28.75a1.25 1.25 0 010-2.5h28.75zm-4.125-2.5h-20.5l4.688-7.5h11.124l4.688 7.5zM77.5 57.5a3.75 3.75 0 01-3.75 3.75H6.25A3.75 3.75 0 012.5 57.5v-3.75h75v3.75zm0-6.25h-75V7.5a3.75 3.75 0 013.75-3.75h67.5A3.75 3.75 0 0177.5 7.5v43.75z" fill="#DFB48F"/><path d="M6.25 15H7.5v7.5a1.25 1.25 0 001.25 1.25h12.5a1.25 1.25 0 001.25-1.25V15h1.25A1.25 1.25 0 0025 13.75v-5a1.25 1.25 0 00-1.25-1.25H17.5a1.25 1.25 0 00-.887.363L15 9.488l-1.613-1.625A1.25 1.25 0 0012.5 7.5H6.25A1.25 1.25 0 005 8.75v5A1.25 1.25 0 006.25 15zm1.25-5h4.488l2.125 2.137a1.249 1.249 0 001.774 0L18.012 10H22.5v2.5h-1.25A1.25 1.25 0 0020 13.75v7.5H10v-7.5a1.25 1.25 0 00-1.25-1.25H7.5V10z" fill="#fff"/><path d="M23.748 35h-3.75a5 5 0 10-10 0h-3.75a1.25 1.25 0 00-1.25 1.55l2.5 10a1.25 1.25 0 001.25.95h12.5a1.25 1.25 0 001.25-.95l2.5-10a1.25 1.25 0 00-1.25-1.55zm-8.75-2.5a2.5 2.5 0 012.5 2.5h-5a2.5 2.5 0 012.5-2.5zM20.273 45H9.723l-1.875-7.5h14.3L20.273 45zm37.852-34.8V7.5a1.25 1.25 0 00-2.5 0v2.7a4.488 4.488 0 00-1.875 1.125 4.488 4.488 0 00-1.875-1.125V7.5a1.25 1.25 0 00-2.5 0v2.7a4.375 4.375 0 00-3.125 4.175V22.5a1.25 1.25 0 001.25 1.25H60a1.25 1.25 0 001.25-1.25v-8.125a4.376 4.376 0 00-3.125-4.175zM52.5 21.25h-3.75v-6.875a1.875 1.875 0 113.75 0v6.875zm6.25 0H55v-6.875a1.875 1.875 0 113.75 0v6.875zM36.25 10h-7.5a1.25 1.25 0 000 2.5h7.5a1.25 1.25 0 000-2.5zm0 5h-7.5a1.25 1.25 0 000 2.5h7.5a1.25 1.25 0 000-2.5zm0 5h-7.5a1.25 1.25 0 000 2.5h7.5a1.25 1.25 0 000-2.5zM72.5 10H65a1.25 1.25 0 000 2.5h7.5a1.25 1.25 0 000-2.5zm0 5H65a1.25 1.25 0 000 2.5h7.5a1.25 1.25 0 000-2.5zm0 5H65a1.25 1.25 0 000 2.5h7.5a1.25 1.25 0 000-2.5zM36.25 35h-7.5a1.25 1.25 0 000 2.5h7.5a1.25 1.25 0 000-2.5zm0 5h-7.5a1.25 1.25 0 000 2.5h7.5a1.25 1.25 0 000-2.5zm0 5h-7.5a1.25 1.25 0 000 2.5h7.5a1.25 1.25 0 000-2.5zM72.5 35H65a1.25 1.25 0 000 2.5h7.5a1.25 1.25 0 000-2.5zm0 5H65a1.25 1.25 0 000 2.5h7.5a1.25 1.25 0 000-2.5zm0 5H65a1.25 1.25 0 000 2.5h7.5a1.25 1.25 0 000-2.5z" fill="#DFB48F"/><path d="M55.003 28.75a1.25 1.25 0 00-.688.212l-7.5 5A1.249 1.249 0 0046.253 35v3.925a5 5 0 001.25 9.825h6.25a5 5 0 005-5 5.115 5.115 0 00-.175-1.25h1.425a1.25 1.25 0 001.25-1.25V35a6.25 6.25 0 00-6.25-6.25zm.35 2.5a3.75 3.75 0 013.175 2.5h-6.9l3.725-2.5zm-1.6 15h-6.25a2.5 2.5 0 010-5v1.25a1.25 1.25 0 002.5 0v-1.25h1.25v1.25a1.25 1.25 0 002.5 0v-1.25a2.5 2.5 0 010 5zm5-6.25h-1.725a5 5 0 00-3.275-1.25h-5v-2.5h10V40z" fill="#fff"/></svg>