<svg width="80" height="80" fill="none" xmlns="http://www.w3.org/2000/svg"><path d="M21.378 32.568a1.455 1.455 0 00.412 1.013 1.408 1.408 0 00.995.419h8.237a1.388 1.388 0 00.995-.42 1.433 1.433 0 00.412-1.012V25.49a7.95 7.95 0 004.712-2.782A8.206 8.206 0 0039 17.5a8.202 8.202 0 00-1.86-5.21 7.95 7.95 0 00-4.71-2.782V2.432a1.453 1.453 0 00-.413-1.013A1.405 1.405 0 0031.022 1H6.194a6.146 6.146 0 00-4.378 1.848A6.365 6.365 0 000 7.302v25.266a1.454 1.454 0 00.412 1.013 1.406 1.406 0 00.995.419h8.237a1.387 1.387 0 00.995-.42 1.433 1.433 0 00.412-1.012 5.3 5.3 0 011.533-3.678 5.118 5.118 0 013.63-1.519 5.12 5.12 0 013.632 1.519 5.3 5.3 0 011.532 3.678zM8.36 31.136H2.815V7.302a3.473 3.473 0 01.99-2.43 3.353 3.353 0 012.389-1.008h23.42v6.95a1.453 1.453 0 00.412 1.012 1.406 1.406 0 00.996.42 5.12 5.12 0 013.613 1.56 5.301 5.301 0 011.492 3.693 5.302 5.302 0 01-1.492 3.695 5.12 5.12 0 01-3.613 1.559 1.386 1.386 0 00-.996.42 1.433 1.433 0 00-.412 1.012v6.95h-5.546a8.16 8.16 0 00-2.75-4.757 7.907 7.907 0 00-5.103-1.874 7.907 7.907 0 00-5.103 1.874 8.16 8.16 0 00-2.75 4.758z" fill="#fff"/><path d="M73.711 17h-25.21a1.411 1.411 0 00-1.011.425 1.45 1.45 0 00-.419 1.025v8.486a1.47 1.47 0 00.419 1.026 1.427 1.427 0 001.01.424 5.206 5.206 0 013.67 1.58 5.36 5.36 0 011.515 3.74 5.36 5.36 0 01-1.515 3.74 5.206 5.206 0 01-3.67 1.58 1.412 1.412 0 00-1.01.424 1.452 1.452 0 00-.419 1.025v6.112H41.44a8.247 8.247 0 00-2.776-4.854 8.031 8.031 0 00-5.198-1.915c-1.9 0-3.74.678-5.199 1.916a8.247 8.247 0 00-2.775 4.853H18.43a1.411 1.411 0 00-1.01.424 1.451 1.451 0 00-.42 1.027V73.62a6.436 6.436 0 001.844 4.51A6.25 6.25 0 0023.29 80h50.422a6.25 6.25 0 004.445-1.87A6.436 6.436 0 0080 73.62V23.38a6.436 6.436 0 00-1.844-4.51A6.25 6.25 0 0073.71 17zm-17.11 16.706a8.307 8.307 0 00-1.89-5.273 8.09 8.09 0 00-4.782-2.82V19.9h23.782a3.41 3.41 0 012.425 1.02 3.511 3.511 0 011.006 2.46v23.207h-6.935a1.41 1.41 0 00-1.01.424 1.451 1.451 0 00-.419 1.026 5.359 5.359 0 01-1.556 3.723 5.205 5.205 0 01-3.686 1.537 5.205 5.205 0 01-3.687-1.537 5.36 5.36 0 01-1.556-3.723 1.467 1.467 0 00-.419-1.026 1.427 1.427 0 00-1.01-.424h-6.935v-4.79a8.09 8.09 0 004.781-2.818 8.307 8.307 0 001.89-5.273zM19.858 73.62V49.487h6.935a1.411 1.411 0 001.01-.425 1.452 1.452 0 00.42-1.025 5.36 5.36 0 011.538-3.756 5.204 5.204 0 013.704-1.555c1.388 0 2.72.56 3.703 1.555a5.36 5.36 0 011.539 3.756 1.469 1.469 0 00.419 1.025 1.429 1.429 0 001.01.425h6.935v5.715a8.078 8.078 0 00-4.784 2.817 8.295 8.295 0 00-1.888 5.275 8.29 8.29 0 001.888 5.275 8.078 8.078 0 004.784 2.817V77.1H23.29a3.41 3.41 0 01-2.425-1.02 3.511 3.511 0 01-1.006-2.46zm53.853 3.48H49.929v-7.035a1.469 1.469 0 00-.418-1.026 1.43 1.43 0 00-1.01-.424 5.202 5.202 0 01-3.708-1.559 5.36 5.36 0 01-1.535-3.76c0-1.412.552-2.765 1.535-3.762a5.204 5.204 0 013.707-1.558 1.413 1.413 0 001.011-.425 1.452 1.452 0 00.418-1.025v-6.113h5.632a8.247 8.247 0 002.776 4.854 8.031 8.031 0 005.199 1.916c1.9 0 3.74-.678 5.198-1.916a8.247 8.247 0 002.776-4.854h5.632V73.62a3.511 3.511 0 01-1.006 2.46 3.41 3.41 0 01-2.425 1.02z" fill="#DFB48F"/></svg>