<svg width="80" height="80" fill="none" xmlns="http://www.w3.org/2000/svg"><g clip-path="url(#clip0_2305_17890)" fill-rule="evenodd" clip-rule="evenodd"><path d="M77.147 22.821V7.131A7.13 7.13 0 0070.015 0H7.257A7.132 7.132 0 00.125 7.132v41.363a7.132 7.132 0 007.132 7.132h48.495a1.427 1.427 0 000-2.853H7.257a4.278 4.278 0 01-4.28-4.279V7.132a4.278 4.278 0 014.28-4.28h62.758a4.279 4.279 0 014.28 4.28v15.69a1.427 1.427 0 002.852 0z" fill="#DFB48F"/><path d="M1.551 47.069h54.2a1.427 1.427 0 000-2.853h-54.2a1.427 1.427 0 000 2.853zm42.7 6.631a1.426 1.426 0 00-1.335-.926h-8.558c-.595 0-1.127.369-1.336.925L28.743 65.11a1.426 1.426 0 001.336 1.927h17.116a1.426 1.426 0 001.335-1.927L44.251 53.7zm-2.324 1.927l3.21 8.558h-13l3.21-8.558h6.58z" fill="#DFB48F"/><path d="M25.797 67.037h25.674a1.427 1.427 0 000-2.852H25.797a1.427 1.427 0 000 2.852z" fill="#DFB48F"/><path d="M80.002 27.1a5.705 5.705 0 00-5.705-5.705H60.033a5.706 5.706 0 00-5.705 5.705v31.38a5.705 5.705 0 005.705 5.705h14.264a5.705 5.705 0 005.705-5.706V27.1zm-2.853 0v31.38a2.853 2.853 0 01-2.852 2.852H60.034a2.853 2.853 0 01-2.853-2.853V27.1a2.853 2.853 0 012.852-2.853h14.264a2.853 2.853 0 012.852 2.853z" fill="#fff"/><path d="M65.024 58.48h4.28a1.427 1.427 0 000-2.853h-4.28a1.427 1.427 0 000 2.853z" fill="#fff"/></g><defs><clipPath id="clip0_2305_17890"><path fill="#fff" d="M0 0h80v80H0z"/></clipPath></defs></svg>