<svg width="80" height="80" fill="none" xmlns="http://www.w3.org/2000/svg"><path fill-rule="evenodd" clip-rule="evenodd" d="M40 24.59c7.65 0 14.577 3.101 19.59 8.116 5.013 5.013 8.115 11.939 8.115 19.59a27.61 27.61 0 01-8.115 19.589c-5.015 5.013-11.94 8.114-19.59 8.114-7.649 0-14.575-3.101-19.59-8.114a27.617 27.617 0 01-8.113-19.589c0-7.65 3.1-14.576 8.113-19.59C25.425 27.69 32.352 24.59 40 24.59zm-6.13 23.135l.022 14.504H48.46c.486 0 .931-.163 1.274-.443.344-.282.593-.682.69-1.155l2.166-10.543c.064-.31.06-.608-.008-.885a2.008 2.008 0 00-.405-.788 1.976 1.976 0 00-.687-.55 1.993 1.993 0 00-.867-.183h-7.65a1.12 1.12 0 01-1.025-1.573l.243-.691c1.213-3.453 1.856-5.285.17-6.851a1.316 1.316 0 00-.547-.317 1.332 1.332 0 00-.637-.007c-.229.05-.424.141-.576.268-.154.128-.279.3-.367.515l-3.006 7.197c-.605 1.446-2.06 1.548-3.358 1.502zm-2.208 15.47l-.026-16.53c-.22-1.177-2.203-1.449-2.203.626V62.73c0 1.873 1.728 2.173 2.229.465zM48.46 64.47c1.011 0 1.946-.35 2.683-.95a4.241 4.241 0 001.47-2.44l2.166-10.543a4.211 4.211 0 00-.026-1.865 4.229 4.229 0 00-.842-1.664 4.22 4.22 0 00-1.465-1.164 4.205 4.205 0 00-1.821-.401H44.55c1.358-3.901 1.937-6.095-.666-8.512a3.557 3.557 0 00-1.483-.834 3.53 3.53 0 00-1.696-.041 3.54 3.54 0 00-1.53.74 3.548 3.548 0 00-1.006 1.373l-3.006 7.197c-.074.178-.879.147-1.57.112-1.402-3.142-6.402-2.469-6.402 1.816v15.438c0 4.143 4.757 5.226 6.372 1.738H48.46zM40 29.266a22.953 22.953 0 00-16.282 6.745 22.956 22.956 0 00-6.746 16.284 22.953 22.953 0 006.746 16.283A22.956 22.956 0 0040 75.323a22.953 22.953 0 0016.283-6.745 22.956 22.956 0 006.746-16.283 22.953 22.953 0 00-6.746-16.284A22.953 22.953 0 0040 29.266zm14.7 8.33a20.724 20.724 0 00-14.7-6.09 20.723 20.723 0 00-14.7 6.09 20.724 20.724 0 00-6.09 14.699c0 5.74 2.327 10.937 6.09 14.7a20.727 20.727 0 0014.7 6.09 20.714 20.714 0 0014.7-6.09 20.727 20.727 0 006.09-14.7 20.72 20.72 0 00-6.09-14.7zm3.307-3.308a25.385 25.385 0 00-18.006-7.457 25.385 25.385 0 00-18.006 7.457 25.385 25.385 0 00-7.458 18.007c0 7.032 2.85 13.398 7.457 18.006a25.385 25.385 0 0018.007 7.458c7.032 0 13.398-2.85 18.006-7.458a25.385 25.385 0 007.458-18.006c0-7.032-2.85-13.399-7.458-18.007z" fill="#DFB48F"/><path fill-rule="evenodd" clip-rule="evenodd" d="M13.812 9.422a1.117 1.117 0 00-2.13-.008l-2.011 6.234-6.47-.013a1.118 1.118 0 00-.738 2.02l5.307 3.84-2.037 6.228.003.001a1.114 1.114 0 001.715 1.246l5.295-3.862 5.226 3.811a1.116 1.116 0 001.787-1.197l-2.037-6.227 5.307-3.84-.001-.001a1.115 1.115 0 00-.654-2.02l-6.553.014-2.01-6.226zm.133 7.683l-1.2-3.715-1.2 3.715c-.145.45-.565.774-1.063.774l-3.907-.008 3.165 2.29c.382.277.56.778.406 1.251l-1.214 3.716 3.139-2.29c.382-.29.923-.31 1.331-.013l3.157 2.303-1.202-3.674c-.17-.46-.022-.992.394-1.293l3.165-2.29-3.855.009a1.118 1.118 0 01-1.117-.775zm54.779-7.683a1.117 1.117 0 00-2.13-.008l-2.011 6.234-6.47-.013a1.118 1.118 0 00-.738 2.02l5.307 3.84-2.037 6.228.003.001a1.114 1.114 0 001.715 1.246l5.295-3.862 5.226 3.811a1.116 1.116 0 001.787-1.197l-2.037-6.227 5.307-3.84-.001-.001a1.115 1.115 0 00-.654-2.02l-6.553.014-2.01-6.226zm.134 7.683l-1.2-3.715-1.2 3.715c-.144.45-.565.774-1.062.774l-3.907-.008 3.164 2.29c.383.277.56.778.407 1.251l-1.215 3.716 3.14-2.29c.382-.29.923-.31 1.33-.013l3.157 2.303-1.201-3.674c-.17-.46-.022-.992.394-1.293l3.164-2.29-3.854.009a1.115 1.115 0 01-1.117-.775zM41.268.783l2.01 6.226 6.551-.013a1.115 1.115 0 01.655 2.02l.001.001-5.307 3.84 2.037 6.227a1.117 1.117 0 01-1.787 1.197l-5.226-3.811-5.294 3.862a1.113 1.113 0 01-1.715-1.246l-.004-.002 2.037-6.227-5.307-3.84a1.119 1.119 0 01.738-2.02l6.47.012L39.14.775a1.117 1.117 0 012.128.008zm.134 7.684l-1.2-3.716-1.2 3.716c-.144.45-.565.774-1.062.774l-3.906-.008 3.165 2.29c.382.277.56.777.406 1.25l-1.214 3.716 3.14-2.29c.382-.29.922-.31 1.33-.012l3.157 2.302-1.202-3.674a1.116 1.116 0 01.394-1.292l3.165-2.29-3.855.008a1.118 1.118 0 01-1.118-.774z" fill="#fff"/></svg>