<svg width="80" height="80" fill="none" xmlns="http://www.w3.org/2000/svg"><path d="M58.475 53.377l-8.654 7.52-4.296-3.731c-.578-.502-1.513-.502-2.091 0-.579.503-.579 1.315 0 1.817l5.341 4.64c.289.251.667.377 1.046.377s.758-.126 1.046-.377l9.7-8.429c.578-.502.578-1.315 0-1.817-.58-.503-1.514-.503-2.092 0z" fill="#fff"/><path d="M68.681 48.841c-1.768 0-3.088-.454-3.926-1.351-1.331-1.422-1.143-3.591-1.142-3.606a1.259 1.259 0 00-.331-.991 1.33 1.33 0 00-.977-.424h-6.806V1.283c0-.71-.59-1.283-1.317-1.283H15.46c-.027 0-.05.013-.077.015a1.293 1.293 0 00-.335.065c-.027.009-.055.006-.08.016-.02.008-.036.022-.054.031-.12.055-.232.126-.333.217-.016.014-.036.02-.052.033L8.872 5.898.38 14.177a1.263 1.263 0 00-.26.381c-.02.043-.031.084-.046.127a1.234 1.234 0 00-.063.316c-.003.036-.013.07-.012.105v55.252c0 .71.59 1.283 1.316 1.283H41.05c2.95 2.733 6.636 4.535 10.984 5.336a1.307 1.307 0 00.491 0c5.315-.984 9.62-3.42 12.794-7.24 3.01-3.604 4.67-8.264 4.67-13.121L70 50.123c0-.34-.137-.668-.384-.908a1.334 1.334 0 00-.932-.377l-.003.002zM11.782 6.69l2.366-2.306V13.8H4.494l7.286-7.11.001-.001zm-9.15 62.385V16.366h12.833c.727 0 1.316-.573 1.316-1.283V2.567h36.085v39.902H42.249c-.37 0-.723.156-.972.421-.198.212-.29.487-.313.77H10.648c-.727 0-1.317.574-1.317 1.284 0 .71.59 1.283 1.317 1.283h29.92a3.91 3.91 0 01-.778 1.265c-.838.895-2.157 1.35-3.92 1.35-.726 0-1.316.573-1.316 1.282v2.444H10.647c-.726 0-1.316.574-1.316 1.283 0 .71.59 1.284 1.317 1.284h23.907v1.483c.002.59.03 1.177.08 1.76.015.188.047.373.068.562.043.391.086.784.152 1.17.038.223.091.443.136.665.07.345.137.69.224 1.029.06.236.134.467.202.7.094.319.185.636.292.948.083.239.177.472.268.707.114.298.23.594.358.885.104.237.218.468.331.7.136.28.274.557.423.829.125.23.258.454.392.679a18.902 18.902 0 00.937 1.426c.094.13.178.268.276.395l-36.063.001zm64.721-12.46c0 4.27-1.448 8.356-4.08 11.505-2.724 3.28-6.423 5.394-10.997 6.29-3.91-.764-7.2-2.43-9.781-4.959-.445-.434-.857-.88-1.228-1.33-2.62-3.149-4.067-7.236-4.08-11.506v-5.278c1.921-.218 3.455-.934 4.57-2.136 1.251-1.35 1.657-3.008 1.778-4.164h17.483c.118 1.155.522 2.81 1.77 4.16 1.115 1.204 2.65 1.92 4.576 2.14l-.011 5.278z" fill="#DFB48F"/><path d="M10.358 28h35.284c.75 0 1.358-.67 1.358-1.5s-.608-1.5-1.358-1.5H10.358C9.608 25 9 25.67 9 26.5s.608 1.5 1.358 1.5zm0 9h35.284c.75 0 1.358-.67 1.358-1.5s-.608-1.5-1.358-1.5H10.358C9.608 34 9 34.67 9 35.5s.608 1.5 1.358 1.5z" fill="#fff"/><path d="M27.444 9h18.112C46.353 9 47 8.33 47 7.5S46.353 6 45.556 6H27.444C26.647 6 26 6.67 26 7.5S26.647 9 27.444 9zm0 7h18.112c.797 0 1.444-.67 1.444-1.5s-.647-1.5-1.444-1.5H27.444c-.797 0-1.444.67-1.444 1.5s.647 1.5 1.444 1.5z" fill="#DFB48F"/></svg>