<svg width="80" height="80" fill="none" xmlns="http://www.w3.org/2000/svg"><g clip-path="url(#clip0_2305_20080)"><path d="M20.094 20.516c1.663.357 3.248-.448 3.945-2l.315-.703c.842.917 1.61 1.806 2.325 2.693a1.173 1.173 0 001.826-1.47 60.741 60.741 0 00-3.66-4.119 1.174 1.174 0 00-1.912.335l-1.034 2.305c-.36.803-1.097.713-1.315.667-.217-.047-.927-.267-.927-1.147V7.572c0-.646.526-1.172 1.172-1.172h9.47c.88 0 1.1.71 1.147.928.047.218.136.956-.668 1.315L28.48 9.67a1.173 1.173 0 00-.364 1.885c6.05 6.259 9.799 12.354 12.157 19.762a1.173 1.173 0 002.16.178c3.088-6.032 4.462-11.998 4.595-19.95a1.172 1.172 0 00-1.589-1.115l-2.369.902c-.822.313-1.28-.272-1.401-.459-.12-.186-.467-.844.155-1.466l6.721-6.72a1.174 1.174 0 011.658 0l6.696 6.696c.623.622.276 1.28.155 1.467-.121.186-.58.77-1.402.457l-2.343-.896a1.172 1.172 0 00-1.59 1.076c-.147 8.71-1.805 15.676-5.378 22.586a1.172 1.172 0 001.401 1.654c3.752-1.211 6.965-2.763 10.113-4.884a1.172 1.172 0 00-1.31-1.945 36.153 36.153 0 01-6.858 3.638c2.677-5.958 4.043-12.084 4.33-19.344l.797.305c1.59.608 3.281.056 4.207-1.372.926-1.428.74-3.197-.464-4.4l-6.696-6.697a3.521 3.521 0 00-4.974 0l-6.72 6.721c-1.204 1.203-1.39 2.97-.466 4.399.925 1.428 2.614 1.98 4.204 1.375l.729-.278c-.237 5.689-1.176 10.178-3.081 14.62-2.319-6.102-5.68-11.395-10.607-16.73l.789-.352c1.554-.694 2.36-2.28 2.004-3.944-.355-1.665-1.737-2.784-3.44-2.784h-9.47a3.52 3.52 0 00-3.517 3.517v9.505c0 1.701 1.118 3.083 2.782 3.44z" fill="#fff"/><path d="M78.969 46.888l-6.721-6.721c-1.203-1.203-2.97-1.39-4.398-.465-1.428.924-1.98 2.614-1.375 4.203l.272.715c-5.707-.233-10.198-1.156-14.617-3.027 6.107-2.32 11.406-5.687 16.744-10.62l.34.762c.694 1.555 2.28 2.36 3.945 2.005 1.664-.355 2.783-1.737 2.783-3.44v-9.47a3.521 3.521 0 00-3.517-3.517H62.92c-1.701 0-3.083 1.118-3.439 2.781-.356 1.664.448 3.25 2 3.945l.731.328a56.265 56.265 0 01-2.077 1.823 1.172 1.172 0 001.501 1.8 62.874 62.874 0 003.472-3.132 1.171 1.171 0 00-.336-1.912L62.44 21.9c-.802-.36-.713-1.097-.666-1.315.046-.217.266-.927 1.146-.927h9.505c.646 0 1.172.526 1.172 1.172v9.47c0 .88-.71 1.1-.928 1.147-.218.047-.956.136-1.315-.668l-1.014-2.27a1.173 1.173 0 00-1.886-.366c-6.267 6.061-12.371 9.816-19.791 12.175a1.172 1.172 0 00-.176 2.163c6.001 3.045 11.97 4.401 19.96 4.532a1.174 1.174 0 001.115-1.589l-.896-2.353c-.313-.822.271-1.28.458-1.401s.844-.467 1.466.155l6.721 6.72a1.174 1.174 0 010 1.658L70.615 56.9c-.623.622-1.28.276-1.467.155-.187-.121-.772-.58-.457-1.403l.901-2.358a1.172 1.172 0 00-1.075-1.591c-8.69-.15-15.666-1.797-22.617-5.34a1.172 1.172 0 00-1.647 1.409c2.088 6.395 5.348 11.572 10.898 17.311a1.173 1.173 0 001.913-.335l1.034-2.305c.36-.803 1.097-.713 1.315-.667.217.047.927.267.927 1.147v9.504c0 .647-.526 1.173-1.173 1.173h-9.47c-.88 0-1.1-.71-1.146-.928-.047-.218-.136-.956.668-1.315l2.298-1.027a1.173 1.173 0 00.365-1.885c-6.03-6.246-9.794-12.338-12.202-19.752a1.172 1.172 0 00-2.16-.169c-3.044 5.994-4.4 11.953-4.535 19.925a1.172 1.172 0 001.59 1.115l2.352-.896c.822-.313 1.28.272 1.4.459.122.186.468.844-.154 1.466l-6.721 6.72a1.172 1.172 0 01-1.658 0l-6.697-6.696c-.622-.622-.275-1.28-.154-1.466.121-.187.58-.772 1.402-.458l2.36.902a1.173 1.173 0 001.59-1.074c.155-8.674 1.801-15.638 5.339-22.58a1.172 1.172 0 00-1.408-1.647c-3.067 1.001-5.832 2.266-8.454 3.867a1.172 1.172 0 001.222 2.002 36.327 36.327 0 015.309-2.673c-2.62 5.938-4.006 12.18-4.303 19.326l-.817-.313c-1.59-.608-3.281-.056-4.207 1.372-.926 1.428-.74 3.197.464 4.4l6.697 6.697A3.506 3.506 0 0030.623 80c.901 0 1.802-.343 2.487-1.028l6.721-6.721c1.203-1.203 1.39-2.97.465-4.399-.924-1.428-2.613-1.98-4.203-1.375l-.712.271c.24-5.635 1.185-10.205 3.04-14.603 2.347 6.055 5.783 11.452 10.633 16.718l-.791.353c-1.555.695-2.36 2.28-2.005 3.945s1.737 2.784 3.44 2.784h9.47a3.52 3.52 0 003.517-3.517v-9.505c0-1.701-1.118-3.083-2.781-3.44-1.664-.356-3.25.449-3.945 2l-.316.706c-3.874-4.205-6.396-8.038-8.197-12.496C53.395 52.318 59.65 53.706 66.813 54l-.312.816c-.608 1.59-.056 3.28 1.372 4.207 1.428.926 3.196.74 4.4-.464l6.697-6.697a3.522 3.522 0 00-.001-4.973z" fill="#DFB48F"/><path d="M18.516 55.96l-.676-.303a53.303 53.303 0 013.58-3.028 1.172 1.172 0 00-1.43-1.858c-1.643 1.263-3.293 2.7-5.046 4.394a1.172 1.172 0 00.335 1.913l2.278 1.022c.803.36.713 1.097.667 1.315-.047.217-.267.927-1.147.927H7.573A1.174 1.174 0 016.4 59.17V49.7c0-.881.71-1.1.928-1.147.218-.047.956-.136 1.315.668l1.039 2.325a1.172 1.172 0 001.884.365c6.239-6.02 12.321-9.778 19.723-12.186a1.173 1.173 0 00.172-2.158c-6.025-3.085-11.98-4.46-19.915-4.596a1.172 1.172 0 00-1.116 1.59l.902 2.367c.313.823-.272 1.28-.459 1.402-.186.12-.844.467-1.466-.155l-6.72-6.721a1.174 1.174 0 010-1.658l6.696-6.697c.623-.622 1.28-.275 1.467-.154.186.12.771.58.457 1.402l-.896 2.343a1.172 1.172 0 001.075 1.59c8.694.151 15.648 1.81 22.548 5.377a1.172 1.172 0 001.654-1.401c-1.056-3.273-2.412-6.209-4.144-8.976a1.173 1.173 0 00-1.988 1.245 36.387 36.387 0 012.939 5.785c-5.947-2.67-12.06-4.036-19.304-4.326l.306-.8c.607-1.59.056-3.28-1.372-4.207-1.428-.926-3.197-.74-4.4.464l-6.697 6.697a3.521 3.521 0 000 4.974l6.721 6.72c1.203 1.204 2.97 1.39 4.399.466 1.428-.925 1.98-2.614 1.375-4.204l-.277-.727c5.683.24 10.17 1.182 14.612 3.092-6.051 2.346-11.445 5.779-16.709 10.623l-.365-.818c-.695-1.554-2.28-2.36-3.945-2.004-1.665.355-2.783 1.737-2.783 3.44v9.47a3.52 3.52 0 003.517 3.517h9.504c1.701 0 3.083-1.118 3.44-2.782.355-1.663-.449-3.248-2-3.945z" fill="#DFB48F"/></g><defs><clipPath id="clip0_2305_20080"><path fill="#fff" d="M0 0h80v80H0z"/></clipPath></defs></svg>