<svg width="80" height="80" fill="none" xmlns="http://www.w3.org/2000/svg"><path d="M59.07 18h9.658c.703 0 1.272.571 1.272 1.275v15.6c0 .705-.57 1.276-1.272 1.276a1.274 1.274 0 01-1.272-1.276V20.55h-7.114v21.91c0 .704-.57 1.275-1.272 1.275a1.274 1.274 0 01-1.272-1.275V19.275c0-.704.57-1.275 1.272-1.275zM32.862 47.593c.703 0 1.273-.571 1.273-1.275V33.57c0-.704-.57-1.275-1.273-1.275h-9.657c-.703 0-1.272.57-1.272 1.275v10.701c0 .704.57 1.275 1.272 1.275.702 0 1.272-.57 1.272-1.275v-9.426h7.114v11.472c0 .704.569 1.275 1.271 1.275zM5.272 58.457c.702 0 1.272-.57 1.272-1.275v-15.13h7.114v7.636c0 .704.57 1.275 1.272 1.275.702 0 1.272-.57 1.272-1.275v-8.911c0-.704-.57-1.275-1.272-1.275H5.272c-.702 0-1.272.57-1.272 1.275v16.405c0 .704.57 1.275 1.272 1.275zm9.658.437c-.703 0-1.272.571-1.272 1.276v12.28H6.544v-4.787c0-.704-.57-1.275-1.272-1.275-.702 0-1.272.571-1.272 1.275v6.061C4 74.43 4.57 75 5.272 75h9.658c.702 0 1.272-.571 1.272-1.276V60.17c0-.705-.57-1.276-1.272-1.276zm24.936-10.823c0 .704.57 1.275 1.272 1.275.702 0 1.272-.571 1.272-1.275V27.723h7.114v21.236c0 .704.569 1.275 1.271 1.275.703 0 1.272-.571 1.272-1.275V26.448c0-.704-.57-1.276-1.272-1.276h-9.657c-.703 0-1.272.572-1.272 1.276V48.07zm10.93 9.242c-.703 0-1.273.57-1.273 1.275V72.45H42.41V56.543c0-.704-.57-1.275-1.272-1.275-.703 0-1.272.571-1.272 1.275v17.183c0 .704.57 1.275 1.272 1.275h9.657c.703 0 1.272-.571 1.272-1.275V58.588c0-.704-.569-1.275-1.272-1.275zm-17.934-3.799c-.702 0-1.271.571-1.271 1.276v17.66h-7.114V53.748c0-.705-.57-1.276-1.272-1.276-.703 0-1.272.571-1.272 1.276v19.975c0 .705.57 1.276 1.272 1.276h9.657c.703 0 1.273-.571 1.273-1.276V54.79c0-.705-.57-1.276-1.273-1.276zm35.866-9.385c-.702 0-1.272.571-1.272 1.276v27.044h-7.114V52.99c0-.704-.57-1.275-1.272-1.275-.702 0-1.272.571-1.272 1.275v20.736c0 .704.57 1.275 1.272 1.275h9.658c.703 0 1.272-.571 1.272-1.275v-28.32c0-.705-.57-1.276-1.272-1.276z" fill="#DFB48F"/><path d="M78.726 31.91a1.278 1.278 0 00-.978-.48l-5.87-.102a1.27 1.27 0 00-1.296 1.24 1.268 1.268 0 001.252 1.286l2.28.04-24.119 18.729-26.928-5.64a1.283 1.283 0 00-1.044.237L.494 63.738a1.256 1.256 0 00-.227 1.772c.25.322.627.49 1.008.49.273 0 .547-.086.78-.264l21.062-16.16 26.933 5.64c.369.077.753-.01 1.05-.241l24.62-19.12-.5 2.25a1.263 1.263 0 001.246 1.536c.585 0 1.113-.402 1.244-.992l1.26-5.684a1.255 1.255 0 00-.244-1.054zm-73.886.516c.275 0 .551-.088.785-.27l1.468-1.14c.554-.43.651-1.224.217-1.773a1.282 1.282 0 00-1.789-.215l-1.468 1.14a1.256 1.256 0 00-.217 1.774c.251.318.625.484 1.004.484zm5.132-3.986c.274 0 .552-.088.785-.269l1.468-1.14c.554-.43.65-1.224.217-1.773a1.282 1.282 0 00-1.79-.216l-1.467 1.14a1.256 1.256 0 00-.217 1.774c.251.318.625.484 1.004.484zm5.132-3.986c.274 0 .551-.088.785-.269l1.468-1.14c.554-.43.65-1.224.217-1.774a1.281 1.281 0 00-1.79-.215l-1.467 1.14a1.256 1.256 0 00-.217 1.774c.251.318.625.484 1.004.484zm5.131-3.986c.275 0 .552-.088.785-.269l1.468-1.14c.554-.43.652-1.224.218-1.773a1.281 1.281 0 00-1.79-.216l-1.467 1.14a1.256 1.256 0 00-.217 1.774c.25.318.625.484 1.003.484zm5.132-3.986c.275 0 .552-.087.785-.269l1.468-1.14c.554-.43.651-1.224.217-1.773a1.282 1.282 0 00-1.788-.216l-1.468 1.14a1.256 1.256 0 00-.218 1.774c.252.318.626.484 1.004.484zM57.203 8.83c.328 0 .656-.125.905-.374l3.797-3.796-.254 2.247A1.266 1.266 0 0062.92 8.31a1.27 1.27 0 001.265-1.123l.652-5.783A1.257 1.257 0 0064.481.38a1.28 1.28 0 00-1.023-.376l-5.847.508a1.266 1.266 0 00-1.158 1.369 1.27 1.27 0 001.38 1.148l2.314-.201-3.849 3.848a1.255 1.255 0 00.008 1.786c.248.245.573.367.897.367zm-4.59 4.589c.328 0 .656-.125.905-.374l1.313-1.313a1.256 1.256 0 00-.008-1.786 1.282 1.282 0 00-1.802.008l-1.313 1.313a1.255 1.255 0 00.008 1.786c.248.244.573.366.897.366zm-4.59 4.59c.328 0 .655-.125.905-.374l1.313-1.313a1.255 1.255 0 00-.008-1.786 1.282 1.282 0 00-1.802.007l-1.313 1.313a1.256 1.256 0 00.008 1.786c.248.245.573.367.897.367zm-5.409 1.588l1.774.57a1.274 1.274 0 001.605-.812 1.26 1.26 0 00-.818-1.59l-1.774-.57a1.276 1.276 0 00-1.605.81c-.218.664.15 1.377.818 1.592zm-6.2-1.995l1.773.57a1.274 1.274 0 001.605-.812 1.26 1.26 0 00-.818-1.59L37.2 15.2a1.276 1.276 0 00-1.605.811 1.26 1.26 0 00.818 1.591zm-6.202-1.994l1.774.57a1.274 1.274 0 001.605-.812 1.261 1.261 0 00-.818-1.59l-1.774-.571a1.276 1.276 0 00-1.605.811 1.261 1.261 0 00.818 1.592z" fill="#fff"/></svg>