<svg width="80" height="80" fill="none" xmlns="http://www.w3.org/2000/svg"><path d="M72.188 26.016c-4.308 0-7.813 3.504-7.813 7.812 0 .715.098 1.406.279 2.064l-12.128 5.366a14.187 14.187 0 00-5.087-5.36 52.138 52.138 0 011.899-3.546 1.172 1.172 0 00-2.022-1.186c-2.666 4.546-4.628 9.385-5.831 14.383A1.523 1.523 0 0140 46.719c-.709 0-1.32-.482-1.485-1.17-1.694-7.039-4.838-13.653-9.343-19.659-2.084-2.777-3.14-6-3.14-9.578C26.031 8.61 32.296 2.344 40 2.344c7.702 0 13.968 6.266 13.968 13.968 0 3.578-1.057 6.801-3.14 9.579-.157.209-.313.419-.466.63a1.172 1.172 0 001.894 1.38c.148-.202.297-.404.447-.604 2.394-3.192 3.609-6.888 3.609-10.985C56.312 7.318 48.995 0 40 0c-8.994 0-16.312 7.318-16.312 16.312 0 4.097 1.214 7.793 3.61 10.985a52.997 52.997 0 015.265 8.6 14.189 14.189 0 00-5.089 5.361l-12.122-5.363c.178-.66.273-1.352.273-2.067 0-4.308-3.505-7.812-7.813-7.812C3.505 26.016 0 29.52 0 33.828a7.772 7.772 0 002.986 6.144 1.172 1.172 0 101.45-1.842 5.441 5.441 0 01-2.092-4.302 5.475 5.475 0 015.469-5.469 5.475 5.475 0 015.468 5.47 5.44 5.44 0 01-4.599 5.4 1.172 1.172 0 00.37 2.314 7.77 7.77 0 005.353-3.504l12.13 5.367a14.288 14.288 0 00-.768 4.627 14.16 14.16 0 002.81 8.481l-7.466 6.603a7.787 7.787 0 00-5.486-2.258c-4.308 0-7.813 3.505-7.813 7.813s3.505 7.812 7.813 7.812 7.812-3.504 7.812-7.812A7.762 7.762 0 0022.518 65l7.608-6.728A14.183 14.183 0 0040 62.266a14.18 14.18 0 009.873-3.993l7.608 6.728a7.762 7.762 0 00-.919 3.67c0 4.309 3.505 7.813 7.813 7.813s7.812-3.504 7.812-7.812a1.172 1.172 0 10-2.344 0 5.475 5.475 0 01-5.468 5.469 5.475 5.475 0 01-5.47-5.47 5.475 5.475 0 015.47-5.468 5.45 5.45 0 013.722 1.463 1.172 1.172 0 101.596-1.717 7.787 7.787 0 00-5.318-2.09 7.786 7.786 0 00-5.487 2.257l-7.466-6.602a14.158 14.158 0 002.81-8.481c0-1.606-.267-3.165-.767-4.628l12.143-5.372a7.811 7.811 0 006.579 3.608c4.308 0 7.813-3.505 7.813-7.813s-3.505-7.812-7.813-7.812zM15.624 74.14a5.475 5.475 0 01-5.469-5.47 5.475 5.475 0 015.469-5.468 5.475 5.475 0 015.469 5.469 5.475 5.475 0 01-5.469 5.469zM40 59.92c-6.556 0-11.889-5.333-11.889-11.888a11.84 11.84 0 015.437-9.989 49.816 49.816 0 012.688 8.053A3.86 3.86 0 0040 49.063a3.86 3.86 0 003.764-2.966 49.717 49.717 0 012.69-8.052 11.84 11.84 0 015.435 9.988c0 6.555-5.334 11.889-11.889 11.889zm32.188-20.624a5.475 5.475 0 01-5.47-5.469 5.475 5.475 0 015.47-5.469 5.475 5.475 0 015.468 5.47 5.475 5.475 0 01-5.469 5.468z" fill="#DFB48F"/><path d="M34.058 9.877a1.172 1.172 0 00-1.65.142 9.93 9.93 0 00-2.33 6.387c0 5.471 4.451 9.922 9.922 9.922 5.47 0 9.922-4.45 9.922-9.922 0-5.47-4.451-9.922-9.922-9.922-.82 0-1.637.101-2.427.3a1.172 1.172 0 10.572 2.273A7.61 7.61 0 0140 8.828c4.179 0 7.578 3.4 7.578 7.578 0 4.179-3.4 7.578-7.578 7.578-4.178 0-7.578-3.4-7.578-7.578 0-1.783.632-3.516 1.778-4.877a1.172 1.172 0 00-.142-1.652z" fill="#fff"/></svg>