<svg width="80" height="80" fill="none" xmlns="http://www.w3.org/2000/svg"><path d="M79.872 42.093L68.305 17.496a4.007 4.007 0 001.005-1.717 4.048 4.048 0 00.06-1.995 4.014 4.014 0 00-.9-1.775 3.945 3.945 0 00-1.637-1.113V9.333a1.34 1.34 0 00-.385-.942A1.308 1.308 0 0065.517 8H45.763a6.683 6.683 0 00-1.094-1.155l-.22-5.565a1.34 1.34 0 00-.403-.908A1.308 1.308 0 0043.133 0h-5.266c-.34 0-.667.133-.913.372a1.34 1.34 0 00-.403.908l-.22 5.564c-.409.34-.776.728-1.094 1.156H15.483c-.349 0-.684.14-.93.39a1.34 1.34 0 00-.386.943v1.563a3.944 3.944 0 00-1.636 1.113 4.016 4.016 0 00-.9 1.775 4.047 4.047 0 00.06 1.995c.185.65.53 1.24 1.003 1.717L1.128 42.094h.001a1.34 1.34 0 00-.129.573c0 3.89 1.526 7.62 4.242 10.37a14.392 14.392 0 0010.241 4.296c3.842 0 7.525-1.545 10.242-4.295a14.762 14.762 0 004.242-10.371 1.34 1.34 0 00-.13-.573h.002L18.272 17.496A4.02 4.02 0 0019.207 16h16.03c.213.285.447.553.701.8l-1.97 49.867H18.117c-.35 0-.684.14-.931.39s-.386.59-.386.943v4H8.9c-.35 0-.684.14-.931.39s-.386.59-.386.943v5.334c0 .353.14.692.386.942.247.25.582.391.931.391h63.2c.35 0 .684-.14.931-.39s.386-.59.386-.943v-5.334c0-.353-.139-.692-.386-.942A1.308 1.308 0 0072.1 72h-7.9v-4c0-.354-.139-.693-.386-.943a1.308 1.308 0 00-.93-.39H47.031L45.062 16.8a6.67 6.67 0 00.701-.8h16.03c.198.563.517 1.074.935 1.497L51.161 42.093h.001a1.341 1.341 0 00-.129.574c0 3.89 1.526 7.62 4.242 10.37a14.392 14.392 0 0010.242 4.296 14.39 14.39 0 0010.24-4.295A14.761 14.761 0 0080 42.667a1.34 1.34 0 00-.129-.573h.001zm-64.389-28.76a1.313 1.313 0 011.217.823 1.35 1.35 0 01-.286 1.454 1.302 1.302 0 01-1.435.289 1.32 1.32 0 01-.59-.492 1.345 1.345 0 01.164-1.683c.247-.25.581-.39.93-.39zm0 41.334a11.784 11.784 0 01-7.896-3.06A12.069 12.069 0 013.706 44H27.26a12.069 12.069 0 01-3.881 7.607 11.784 11.784 0 01-7.897 3.06zM27.261 44H3.706l11.366-25.355c.274.029.55.029.824 0L27.261 44zm6.788-30.667H19.207a4.027 4.027 0 00-.933-1.493 3.963 3.963 0 00-1.474-.944v-.23h17.25a6.773 6.773 0 000 2.667zm5.083-10.666h2.736l.113 2.838a6.457 6.457 0 00-2.96 0l.11-2.838zM40.5 8c.781 0 1.545.235 2.194.674a3.989 3.989 0 011.455 1.795c.3.731.377 1.535.225 2.311a4.016 4.016 0 01-1.08 2.048 3.94 3.94 0 01-2.023 1.095 3.903 3.903 0 01-2.283-.228 3.96 3.96 0 01-1.772-1.473 4.037 4.037 0 01.492-5.05A3.93 3.93 0 0140.5 8zm3.896 58.667h-7.792l1.909-48.312a6.503 6.503 0 003.976 0l1.907 48.312zm26.387 8v2.666H10.217v-2.666h60.566zm-9.216-5.334V72H19.433v-2.667h42.134zm3.95-56c.26 0 .515.079.731.225.217.146.385.355.485.598a1.349 1.349 0 01-.285 1.454 1.302 1.302 0 01-1.435.289 1.32 1.32 0 01-.591-.492 1.345 1.345 0 01.164-1.683c.247-.25.582-.39.93-.39zm-3.724 0H46.952a6.777 6.777 0 000-2.666H64.2v.229c-.555.2-1.058.523-1.475.944a4.027 4.027 0 00-.932 1.493zm3.312 5.312c.274.029.55.029.825 0L77 42.093l-23 .001 11.105-23.45zm.412 36.022a11.784 11.784 0 01-7.897-3.06c-2.172-1.967-3.292-6.58-3.62-9.513h23c-.328 2.932-1.415 7.546-3.587 9.513a11.784 11.784 0 01-7.896 3.06z" fill="#DFB48F"/><path fill="#fff" d="M3 43h25v3H3zm50 0h25v3H53z"/></svg>