<svg width="80" height="80" fill="none" xmlns="http://www.w3.org/2000/svg"><path d="M11.613 23.226c4.017 0 7.564-2.052 9.649-5.162h27.77v-2.58H22.548a11.53 11.53 0 00.678-3.871C23.226 5.209 18.016 0 11.613 0S0 5.209 0 11.613s5.21 11.613 11.613 11.613zm0-20.645c4.98 0 9.032 4.053 9.032 9.032 0 4.98-4.052 9.032-9.032 9.032S2.58 16.592 2.58 11.613c0-4.98 4.051-9.032 9.032-9.032z" fill="#DFB48F"/><path d="M17.686 8.654L15.862 6.83l-6.83 6.83-1.668-1.67-1.825 1.825 3.493 3.493 8.654-8.654z" fill="#fff"/><path d="M72.258 0v18.064h-2.58V5.161h-7.742v12.903h-2.58v-7.741h-7.743v10.322H80V0h-7.742zM56.775 18.064h-2.581v-5.16h2.58v5.16zm7.741-10.322h2.581v10.322h-2.58V7.742zM77.42 18.064h-2.58V2.581h2.58v15.483z" fill="#DFB48F"/><path d="M40 36.129a3.876 3.876 0 00-3.871 3.87 3.876 3.876 0 003.87 3.872A3.876 3.876 0 0043.872 40 3.876 3.876 0 0040 36.129zm0 5.161c-.711 0-1.29-.578-1.29-1.29a1.292 1.292 0 012.58 0c0 .712-.58 1.29-1.29 1.29z" fill="#fff"/><path d="M45.474 29.052l-1.603 1.604v-2.269h-7.742v2.269l-1.604-1.604-5.474 5.475 1.603 1.602h-2.267v7.742h2.267l-1.603 1.603 5.474 5.475 1.604-1.603v2.267h7.742v-2.268l1.603 1.604 5.475-5.475-1.604-1.603h2.267V36.13h-2.267l1.603-1.602-5.474-5.475zm3.558 12.238h-2.604l-.97 2.342 1.841 1.842-1.826 1.826-1.841-1.843-2.342.971v2.604h-2.58V46.43l-2.343-.972-1.842 1.843-1.825-1.826 1.843-1.844-.97-2.34h-2.606v-2.58h2.604l.97-2.342-1.84-1.841 1.824-1.826 1.841 1.842 2.343-.971v-2.604h2.58v2.604l2.343.971 1.841-1.842 1.826 1.826-1.841 1.84.97 2.343h2.604v2.58zm15.486-3.87c0 .711-.58 1.29-1.29 1.29h-9.033v2.58h9.033a3.876 3.876 0 003.87-3.87V23.225h-2.58v14.193zm6.89 19.354h-.886c-4.736 0-8.588 3.853-8.588 8.59 0 2.293.893 4.45 2.516 6.074l2.645 2.645v2.046A3.876 3.876 0 0070.965 80a3.876 3.876 0 003.872-3.87v-2.047l2.646-2.645a8.538 8.538 0 002.515-6.074c0-4.737-3.853-8.59-8.59-8.59zm-.442 20.646c-.711 0-1.29-.579-1.29-1.29v-1.291h2.58v1.29c0 .712-.58 1.29-1.29 1.29zm4.692-7.807l-2.646 2.645h-.756v-5.161h2.58v-2.58h-7.741v2.58h2.58v5.161h-.756l-2.645-2.645a5.97 5.97 0 01-1.76-4.249 6.016 6.016 0 016.01-6.009h.886a6.015 6.015 0 016.008 6.01 5.97 5.97 0 01-1.76 4.248z" fill="#DFB48F"/><path d="M69.68 49.032h2.58v5.162h-2.58v-5.162zm-6.297 1.751l2.384-.988 1.977 4.77-2.384.987-1.977-4.769zm10.871 3.814l1.977-4.77 2.384.989-1.977 4.769-2.384-.988z" fill="#fff"/><path d="M10.323 70.968v-1.29h5.16a2.583 2.583 0 002.581-2.581V46.45a2.583 2.583 0 00-2.58-2.58h-5.161v-1.29c0-.713.579-1.29 1.29-1.29h14.194v-2.58H11.612a3.876 3.876 0 00-3.871 3.87v1.29H2.58A2.583 2.583 0 000 46.452v20.646a2.583 2.583 0 002.58 2.58h5.162v1.29a3.876 3.876 0 003.87 3.871h50.323v-2.58H11.613c-.711 0-1.29-.578-1.29-1.29zM2.58 46.45h12.903l.001 20.646H2.581V46.45z" fill="#DFB48F"/><path d="M5.164 49.032h7.742v2.58H5.164v-2.58zm0 5.161h7.742v2.581H5.164v-2.58zm0 5.162h7.742v2.58H5.164v-2.58z" fill="#DFB48F"/></svg>