<svg width="80" height="80" fill="none" xmlns="http://www.w3.org/2000/svg"><path d="M21.926 31.568a1.42 1.42 0 00.423 1.013 1.446 1.446 0 001.02.419h8.448a1.454 1.454 0 001.021-.42 1.433 1.433 0 00.423-1.012V24.49a8.198 8.198 0 004.832-2.782A8.081 8.081 0 0040 16.5a8.08 8.08 0 00-1.907-5.21 8.198 8.198 0 00-4.832-2.782V1.432A1.421 1.421 0 0032.838.42a1.444 1.444 0 00-1.02-.42H6.351a6.384 6.384 0 00-4.49 1.848A6.284 6.284 0 000 6.302v25.266a1.422 1.422 0 00.423 1.013 1.444 1.444 0 001.02.419h8.448a1.454 1.454 0 001.021-.42 1.433 1.433 0 00.423-1.012 5.235 5.235 0 011.571-3.678 5.317 5.317 0 013.724-1.519 5.32 5.32 0 013.725 1.519 5.234 5.234 0 011.57 3.678zm-13.35-1.432h-5.69V6.302a3.429 3.429 0 011.017-2.43 3.483 3.483 0 012.45-1.008h24.02v6.95a1.424 1.424 0 00.423 1.012 1.445 1.445 0 001.021.42 5.316 5.316 0 013.706 1.56 5.233 5.233 0 011.53 3.693c0 1.384-.55 2.711-1.53 3.695a5.316 5.316 0 01-3.706 1.559 1.453 1.453 0 00-1.02.42 1.431 1.431 0 00-.423 1.012v6.95h-5.689a8.118 8.118 0 00-2.821-4.757 8.235 8.235 0 00-5.234-1.874 8.235 8.235 0 00-5.233 1.874 8.118 8.118 0 00-2.822 4.758z" fill="#fff"/><path d="M73.711 16h-25.21a1.432 1.432 0 00-1.321.88 1.425 1.425 0 00-.109.547v8.352a1.425 1.425 0 001.43 1.427 5.246 5.246 0 013.669 1.553 5.232 5.232 0 010 7.363 5.247 5.247 0 01-3.67 1.554 1.43 1.43 0 00-1.429 1.427v6.014H41.44a8.088 8.088 0 00-2.776-4.776 8.108 8.108 0 00-10.396 0 8.088 8.088 0 00-2.776 4.776H18.43A1.43 1.43 0 0017 46.544v25.177a6.282 6.282 0 001.844 4.438A6.3 6.3 0 0023.29 78h50.422a6.3 6.3 0 004.445-1.841A6.282 6.282 0 0080 71.721V22.279a6.282 6.282 0 00-1.844-4.438A6.3 6.3 0 0073.71 16zm-17.11 16.441a8.096 8.096 0 00-1.89-5.189 8.116 8.116 0 00-4.782-2.775v-5.623h23.782c.91.001 1.781.362 2.425 1.004a3.427 3.427 0 011.006 2.421v22.838h-6.935a1.43 1.43 0 00-1.429 1.427 5.232 5.232 0 01-1.556 3.665 5.247 5.247 0 01-7.373 0 5.232 5.232 0 01-1.556-3.665 1.424 1.424 0 00-.882-1.318 1.43 1.43 0 00-.547-.109h-6.935v-4.713a8.116 8.116 0 004.781-2.774 8.096 8.096 0 001.89-5.189zm-36.743 39.28V47.97h6.935a1.43 1.43 0 001.43-1.427 5.231 5.231 0 011.538-3.696 5.246 5.246 0 017.408 0 5.231 5.231 0 011.538 3.696 1.425 1.425 0 001.43 1.427h6.934v5.625a8.105 8.105 0 00-4.784 2.772 8.084 8.084 0 000 10.383 8.105 8.105 0 004.784 2.772v5.623H23.29a3.437 3.437 0 01-2.425-1.005 3.427 3.427 0 01-1.006-2.42zm53.853 3.425H49.929v-6.925a1.426 1.426 0 00-1.429-1.427 5.247 5.247 0 01-3.707-1.533 5.231 5.231 0 010-7.403 5.246 5.246 0 013.707-1.534 1.432 1.432 0 001.43-1.427v-6.016h5.631a8.088 8.088 0 002.776 4.778 8.108 8.108 0 0010.397 0 8.088 8.088 0 002.776-4.778h5.632v22.84a3.427 3.427 0 01-1.006 2.42 3.437 3.437 0 01-2.425 1.005z" fill="#DFB48F"/></svg>