<svg width="80" height="80" fill="none" xmlns="http://www.w3.org/2000/svg"><g clip-path="url(#clip0_2305_21882)" stroke="#9F0033" stroke-width=".6"><path d="M46.482 70.235a2.271 2.271 0 00-2.266 2.265c0 .603.237 1.173.664 1.599a2.25 2.25 0 001.602.668h5.95a2.275 2.275 0 002.217-1.796c.031-.148.049-.31.047-.474a2.24 2.24 0 00-.511-1.43l-.15-.166a2.244 2.244 0 00-1.602-.666h-5.95zm-38.138-33.5a4.735 4.735 0 00-4.729 4.73v9.28a4.736 4.736 0 004.729 4.732 1.816 1.816 0 001.813-1.815V38.55c0-1-.812-1.815-1.813-1.815zm63.565 0a1.816 1.816 0 00-1.813 1.814v15.113c0 1.001.814 1.815 1.813 1.815a4.735 4.735 0 004.728-4.732v-9.28a4.735 4.735 0 00-4.728-4.73zm-.157 21.953l-.274-.025c-2.58-.223-4.612-2.368-4.612-5V38.548c0-2.608 1.998-4.74 4.544-4.995l.287-.03-.017-.288c-.484-7.773-3.697-14.934-9.186-20.426-5.977-5.982-13.92-9.277-22.367-9.277-16.787 0-30.552 13.156-31.558 29.702l-.017.288.287.03c2.549.253 4.55 2.385 4.55 4.996v15.114a5.052 5.052 0 01-5.044 5.048c-4.389 0-7.96-3.574-7.96-7.965v-9.28c0-3.244 1.952-6.037 4.742-7.278l.17-.076.008-.187C5.967 15.273 21.328.3 40.127.3c9.308 0 18.062 3.63 24.65 10.223C71.06 16.81 74.64 25.08 74.95 33.925l.007.187.172.076c2.788 1.241 4.74 4.035 4.74 7.277v9.28c-.001 3.23-1.937 6.014-4.71 7.262l-.177.079v4.695c0 6.249-5.08 11.333-11.326 11.333h-5.981l-.072.2c-.77 2.171-2.833 3.683-5.168 3.683h-5.952a5.449 5.449 0 01-3.884-1.613l-.001-.001a5.446 5.446 0 01-1.61-3.885 5.512 5.512 0 013.196-4.995h.002a5.41 5.41 0 012.297-.504h5.952c1.47 0 2.85.573 3.884 1.613l.001.001a5.42 5.42 0 011.28 2.067l.07.2h5.986c4.464 0 8.096-3.632 8.096-8.099v-4.093z" fill="#DFB48F"/><path d="M27.726 18.914H52.53a7.76 7.76 0 015.525 2.294 7.77 7.77 0 012.292 5.527v16.55c0 4.31-3.507 7.82-7.817 7.82H41.66l-.088.087-7.129 7.096-.005.004a3.594 3.594 0 01-2.587 1.094c-.462 0-.93-.09-1.382-.272a3.673 3.673 0 01-2.292-3.42v-4.589h-.452c-4.31 0-7.817-3.508-7.817-7.82v-16.55c0-4.313 3.507-7.82 7.817-7.82zm0 3.233a4.59 4.59 0 00-4.584 4.588v16.55a4.591 4.591 0 004.585 4.587h2.067c.892 0 1.615.725 1.615 1.617v6.204c0 .016-.004.107.036.199.049.11.139.182.24.223a.4.4 0 00.296.015.434.434 0 00.162-.11l7.714-7.678c.303-.3.713-.47 1.14-.47h11.536a4.592 4.592 0 004.585-4.588V26.735c0-1.144-.42-2.228-1.187-3.075l-.158-.166a4.557 4.557 0 00-3.24-1.346H27.727z" fill="#fff"/><path d="M30.818 32.788a2.532 2.532 0 012.529 2.528 2.533 2.533 0 01-2.529 2.528 2.533 2.533 0 01-2.526-2.528 2.532 2.532 0 012.526-2.528zm9.312 0a2.532 2.532 0 012.53 2.528 2.532 2.532 0 01-2.53 2.528 2.533 2.533 0 01-2.526-2.528 2.532 2.532 0 012.527-2.528zm9.298 0a2.533 2.533 0 012.528 2.528 2.533 2.533 0 01-2.528 2.528 2.533 2.533 0 01-2.527-2.528 2.532 2.532 0 012.527-2.528z" fill="#fff"/></g><defs><clipPath id="clip0_2305_21882"><path fill="#fff" d="M0 0h80v80H0z"/></clipPath></defs></svg>