<svg width="80" height="80" fill="none" xmlns="http://www.w3.org/2000/svg"><g clip-path="url(#clip0_2305_21912)"><path d="M4.805 42.863A4.801 4.801 0 009.6 47.66a4.801 4.801 0 004.682-5.83l6.89-3.45a4.785 4.785 0 003.63 1.666c3.72 0 6.025-4.075 4.113-7.257l8.633-8.648a4.785 4.785 0 006.084-.989l6.89 3.451c-.664 3.009 1.64 5.83 4.682 5.83 4.147 0 6.34-4.942 3.55-8.016l10.051-15.1c3.124 1.11 6.396-1.228 6.396-4.52A4.801 4.801 0 0070.406 0a4.801 4.801 0 00-4.796 4.795c0 1.239.472 2.369 1.245 3.22l-10.05 15.101a4.784 4.784 0 00-5.23 1.392l-6.89-3.451a4.801 4.801 0 00-4.682-5.83c-3.719 0-6.026 4.074-4.114 7.258l-8.632 8.647c-3.575-2.139-8.046 1.035-7.137 5.152l-6.89 3.45c-2.89-3.346-8.425-1.31-8.425 3.13zm65.6-40.52c1.352 0 2.452 1.1 2.452 2.452 0 1.352-1.1 2.452-2.451 2.452a2.455 2.455 0 01-2.452-2.452c0-1.351 1.1-2.451 2.452-2.451zm-15.2 22.841c1.351 0 2.45 1.1 2.45 2.452a2.454 2.454 0 01-2.45 2.452 2.455 2.455 0 01-2.453-2.452c0-1.352 1.1-2.451 2.452-2.451zm-15.202-7.613c1.352 0 2.452 1.1 2.452 2.452 0 1.352-1.1 2.451-2.452 2.451a2.455 2.455 0 01-2.452-2.451c0-1.352 1.1-2.452 2.452-2.452zM24.8 32.798c1.352 0 2.452 1.1 2.452 2.452 0 1.352-1.1 2.451-2.452 2.451a2.454 2.454 0 01-2.451-2.451c0-1.352 1.1-2.452 2.451-2.452zM9.6 45.315a2.454 2.454 0 01-2.453-2.451c0-1.352 1.1-2.452 2.452-2.452 1.352 0 2.452 1.1 2.452 2.452 0 1.352-1.1 2.451-2.452 2.451z" fill="#fff"/><path d="M77.926 77.656h-1.45v-25.75a1.172 1.172 0 10-2.344 0v25.75h-7.455V19.273h7.455v27.164a1.172 1.172 0 102.343 0V19.082a2.154 2.154 0 00-2.151-2.152h-7.838a2.154 2.154 0 00-2.152 2.152v58.574h-3.06V42.03a2.154 2.154 0 00-2.151-2.152h-1.185a1.172 1.172 0 100 2.344h.993v35.435h-7.455V42.221h.993a1.172 1.172 0 100-2.344h-1.185a2.154 2.154 0 00-2.151 2.152v35.627h-3.06V34.35a2.154 2.154 0 00-2.152-2.151h-7.838a2.154 2.154 0 00-2.152 2.151v43.307h-3.059V49.643a2.154 2.154 0 00-2.152-2.152h-7.838a2.154 2.154 0 00-2.152 2.152v28.013h-3.06v-20.4a2.154 2.154 0 00-2.15-2.151H5.68a2.154 2.154 0 00-2.152 2.151v20.4h-1.45a1.172 1.172 0 100 2.344h75.848a1.172 1.172 0 100-2.344zm-72.054 0V57.448h7.454v20.208H5.872zm15.201 0V49.834h7.455v27.822h-7.455zm15.202 0V34.541h7.454v43.115h-7.454z" fill="#DFB48F"/></g><defs><clipPath id="clip0_2305_21912"><path fill="#fff" d="M0 0h80v80H0z"/></clipPath></defs></svg>