<svg width="80" height="80" fill="none" xmlns="http://www.w3.org/2000/svg"><g clip-path="url(#clip0_2305_21917)" stroke="#9F0033" stroke-width=".5"><path d="M39.857.25c22.051 0 39.93 17.866 39.93 39.906 0 11.159-4.588 21.248-11.973 28.488l-2.444-2.525.03-.027-6.989-6.989 2.487-2.487 6.89 6.889.174-.212a36.222 36.222 0 008.306-23.115v-.25h-8.67V36.41h8.48l-.03-.277c-.906-8.233-4.56-15.639-10.026-21.281l-.176-.183-.18.18-5.72 5.718-2.487-2.487 5.608-5.607.195-.195-.212-.175a36.26 36.26 0 00-21.17-8.28l-.264-.014v10.003H38.1V3.81l-.264.014a36.259 36.259 0 00-21.169 8.28l-.212.175 6.046 6.046-2.487 2.487-6.143-6.142-.177.183C8.228 20.494 4.574 27.9 3.668 36.132l-.031.278h7.952v3.518H3.447v.25a36.215 36.215 0 007.817 22.509l.175.22 5.884-5.884 2.488 2.487-5.86 5.861-.177.175.037.037-2.498 2.475C4.273 60.864-.07 51.016-.07 40.156-.07 18.116 17.807.25 39.857.25z" fill="#DFB48F"/><path d="M62.833 45.85l-.005.003-.003.003-.009.007-.004.003-.002.002-.002.002.104.12m-.079-.14a.122.122 0 01.008-.004l.036.062m-.044-.057l-.005.004.084.135m-.079-.14l.044.058m.035.082l.18.29.023-.016.011-.008.006-.005.003-.003h0v0l-.258-.34m.035.082l.037.043-.072-.125m.09-.218c1.902-.365 2.973.41 3.201 1.288.228.88-.333 2.093-2.162 2.728l-.012.004-.01.006-25.529 11.788a2.99 2.99 0 01-2.106-.06l-5.234-2.551c-.69-.76-1.077-1.352-1.259-2.03-.182-.682-.165-1.478.01-2.66l3.25-4.818a2.992 2.992 0 011.797-1.107l28.03-2.586h.013l.012-.002zm-9.33 4.394l-17.742 1.637-.119.01-.066.1-2.415 3.58-.038.056-.004.067c-.01.17-.01.278-.006.341v.01l-.017.01h.001v0l.001.002.001.003.01.02.007.017.005.085.132.064 3.983 1.944.107.052.108-.05 16.18-7.472-.128-.476zm-20.387 5.85h-.001l-.004-.01.004-.001.001.012z" fill="#fff"/></g><defs><clipPath id="clip0_2305_21917"><path fill="#fff" d="M0 0h80v80H0z"/></clipPath></defs></svg>