<svg width="80" height="80" fill="none" xmlns="http://www.w3.org/2000/svg"><g clip-path="url(#clip0_2305_21924)"><path d="M5.336 26.666v46.667c0 .736.597 1.333 1.333 1.333h66.667c.736 0 1.333-.597 1.333-1.333V26.666c0-.736-.597-1.333-1.333-1.333H6.669c-.736 0-1.333.597-1.333 1.333zM8.003 28h64v44h-64V28z" fill="#fff"/><path d="M79.897 15.49a1.334 1.334 0 00-.288-.433L64.943.391A1.335 1.335 0 0064 0H6.667c-.354 0-.693.14-.943.39L.391 5.725c-.25.25-.391.589-.391.943V76a4 4 0 004 4h74.667c.736 0 1.333-.597 1.333-1.333V16c0-.175-.036-.348-.103-.51zM50.667 2.668h8v12c0 .736-.597 1.333-1.334 1.333h-6.666V2.667zm-8 0H48V16h-5.333V2.667zM16 2.667h24V16H17.333A1.333 1.333 0 0116 14.667v-12zm61.333 74.666H4A1.333 1.333 0 012.667 76V7.219l4.552-4.552h6.114v12a4 4 0 004 4h40a4 4 0 004-4v-12h2.115l13.885 13.885v60.781z" fill="#DFB48F"/><path d="M14.67 36h38.666a1.333 1.333 0 000-2.667H14.669a1.333 1.333 0 100 2.667z" fill="#DFB48F"/><path d="M14.67 44h25.333a1.333 1.333 0 000-2.667H14.669a1.333 1.333 0 100 2.667zM68 41.334H45.333a1.333 1.333 0 000 2.666H68a1.333 1.333 0 000-2.666zM14.67 52h13.333a1.333 1.333 0 000-2.667H14.669a1.333 1.333 0 100 2.667zm53.327-2.667h-32a1.333 1.333 0 000 2.667h32a1.333 1.333 0 000-2.667zM14.67 60h5.333a1.333 1.333 0 000-2.667h-5.334a1.333 1.333 0 100 2.667zm12-2.667a1.333 1.333 0 100 2.667h6.666a1.333 1.333 0 000-2.667h-6.667zm41.333 0H38.669a1.333 1.333 0 100 2.667h29.334a1.333 1.333 0 000-2.667z" fill="#fff"/><path d="M57.336 65.333H14.669a1.333 1.333 0 100 2.667h42.667a1.333 1.333 0 000-2.667z" fill="#DFB48F"/></g><defs><clipPath id="clip0_2305_21924"><path fill="#fff" d="M0 0h80v80H0z"/></clipPath></defs></svg>