<svg width="80" height="80" fill="none" xmlns="http://www.w3.org/2000/svg"><g clip-path="url(#clip0_2305_21941)" fill-rule="evenodd" clip-rule="evenodd"><path d="M77.14 22.872V7.147A7.146 7.146 0 0069.994 0H7.097A7.148 7.148 0 00-.051 7.147v41.455a7.148 7.148 0 007.148 7.148h48.602a1.43 1.43 0 000-2.86H7.097a4.288 4.288 0 01-4.289-4.288V7.147A4.288 4.288 0 017.097 2.86h62.896a4.288 4.288 0 014.289 4.288v15.725a1.43 1.43 0 002.859 0z" fill="#DFB48F"/><path d="M1.379 47.172h54.32a1.43 1.43 0 000-2.858H1.379a1.43 1.43 0 000 2.858zm42.793 6.646a1.43 1.43 0 00-1.338-.927h-8.577c-.596 0-1.13.37-1.338.927L28.63 65.254a1.43 1.43 0 001.339 1.931h17.153a1.43 1.43 0 001.339-1.931l-4.289-11.436zm-2.329 1.931l3.216 8.577H32.032l3.217-8.576h6.595z" fill="#DFB48F"/><path d="M25.68 67.185h25.73a1.43 1.43 0 000-2.859H25.68a1.43 1.43 0 000 2.86z" fill="#DFB48F"/><path d="M80 27.16a5.718 5.718 0 00-5.718-5.718H59.987a5.718 5.718 0 00-5.718 5.718v31.448a5.718 5.718 0 005.718 5.718h14.295A5.718 5.718 0 0080 58.608V27.16zm-2.859 0v31.448a2.859 2.859 0 01-2.859 2.86H59.988a2.86 2.86 0 01-2.86-2.86V27.16a2.86 2.86 0 012.86-2.86h14.294a2.86 2.86 0 012.86 2.86z" fill="#fff"/><path d="M64.992 58.608h4.289a1.43 1.43 0 000-2.858h-4.289a1.43 1.43 0 000 2.858z" fill="#fff"/></g><defs><clipPath id="clip0_2305_21941"><path fill="#fff" d="M0 0h80v80H0z"/></clipPath></defs></svg>