<svg width="80" height="80" fill="none" xmlns="http://www.w3.org/2000/svg"><g clip-path="url(#clip0_2305_21952)"><path d="M79.062 53.853c-1.114-1.989-3.588-2.672-5.517-1.524L56.947 62.21l-13.794-4.957c.169-.201.328-.411.473-.632l8.588-1.29c2.415-.364 4.101-2.167 4.101-4.386 0-2.425-1.913-4.398-4.264-4.398H40.755a6.393 6.393 0 00-5.368.085v-.001L19.16 53.338h-7.845v-2.906c0-.645-.508-1.169-1.134-1.169H.727c-.626 0-1.133.524-1.133 1.17V73.83C-.406 74.477.1 75 .727 75h9.454c.627 0 1.134-.523 1.134-1.169v-2.89c3.541.096 8.037.607 12.773 1.147 6.382.726 13.589 1.547 20.146 1.547.215 0 .428 0 .642-.003 7.87-.066 13.488-1.377 17.175-4.007l15.57-10.106c1.897-1.232 2.53-3.72 1.44-5.666zM57.438 66.577l1.26 2.324c-.653.31-1.345.585-2.075.827l.815-3.151zm-3.39-15.631c0 1.207-1.085 1.91-2.16 2.072l-7.247 1.089a6.962 6.962 0 00-1.088-5.221h8.498c1.101 0 1.997.924 1.997 2.06zm-11.552 1.861c0 2.464-1.944 4.47-4.334 4.47-2.39 0-4.334-2.006-4.334-4.47s1.944-4.469 4.334-4.469c2.39 0 4.334 2.005 4.334 4.469zm-23.29 9.325c0 3.56-2.807 6.455-6.26 6.455-3.45 0-6.259-2.896-6.259-6.455 0-3.56 2.808-6.456 6.26-6.456s6.26 2.896 6.26 6.456zM1.862 72.662v-21.06h7.187v2.714C6.302 55.778 4.42 58.73 4.42 62.132c0 3.4 1.883 6.353 4.628 7.816v2.714H1.86zm22.476-2.898a455.495 455.495 0 00-6.183-.676 8.88 8.88 0 003.32-6.956 8.897 8.897 0 00-2.745-6.456h.65c.145 0 .288-.028.422-.084l12.124-5.01a6.964 6.964 0 00-.364 2.225c0 3.754 2.961 6.807 6.601 6.807a6.396 6.396 0 002.833-.66l14.702 5.284-1.597 6.17c-8.308 1.798-19.948.473-29.763-.644zM76.413 57.54L60.822 67.66l-.043.03-.102.07-2.078-3.833 16.08-9.574c.846-.503 1.931-.203 2.42.669.477.852.175 1.959-.686 2.518zm-39.74-4.733c0-.845.67-1.535 1.49-1.535.819 0 1.487.69 1.487 1.535 0 .846-.668 1.535-1.488 1.535s-1.488-.69-1.488-1.535zM11.46 62.132c0-.846.668-1.535 1.488-1.535s1.488.69 1.488 1.535-.668 1.534-1.488 1.534-1.488-.689-1.488-1.534z" fill="#DFB48F"/><path d="M24.08 31.153c-.298 0-.585.12-.795.335l-6.187 6.287a4.258 4.258 0 00-2.166-.592c-2.392 0-4.338 1.978-4.338 4.409 0 2.43 1.946 4.408 4.338 4.408 2.392 0 4.338-1.978 4.338-4.408 0-.802-.212-1.553-.582-2.201l5.858-5.952h11.727c.076.441.28.864.615 1.204l2.37 2.407a2.197 2.197 0 003.147 0c.9-.914 2.044-.893 2.815-.569.77.325 1.595 1.132 1.595 2.425 0 1.247.998 2.262 2.225 2.262h3.35c1.227 0 2.225-1.015 2.225-2.261 0-1.291.825-2.098 1.596-2.423.772-.325 1.916-.346 2.814.566.42.428.98.663 1.574.663.595 0 1.153-.236 1.574-.663l2.369-2.407c.42-.427.652-.995.652-1.6 0-.603-.232-1.171-.652-1.598-.898-.913-.877-2.076-.557-2.86.32-.784 1.113-1.621 2.384-1.621 1.227 0 2.225-1.015 2.225-2.262v-3.404c0-1.247-.998-2.262-2.225-2.262-1.27 0-2.065-.837-2.384-1.621-.32-.784-.341-1.947.557-2.86.42-.427.652-.995.652-1.599s-.232-1.172-.652-1.599l-2.37-2.407a2.193 2.193 0 00-1.573-.663 2.19 2.19 0 00-1.573.663c-.899.912-2.043.89-2.815.566-.771-.325-1.595-1.132-1.595-2.423 0-1.247-.999-2.261-2.225-2.261H49.04c-1.227 0-2.225 1.014-2.225 2.261 0 1.291-.825 2.098-1.596 2.423-.772.324-1.916.346-2.814-.567a2.203 2.203 0 00-3.147 0l-2.37 2.408c-.327.332-.538.75-.616 1.204H24.546L18.688 6.61c.37-.648.582-1.4.582-2.2 0-2.433-1.946-4.41-4.338-4.41-2.392 0-4.338 1.978-4.338 4.408 0 2.431 1.946 4.409 4.338 4.409a4.26 4.26 0 002.166-.591l6.187 6.286c.21.215.496.335.795.335h13.056c.64.859.596 1.865.31 2.568-.32.784-1.114 1.622-2.385 1.622-1.227 0-2.225 1.014-2.225 2.26v.56h-8.872c-.497-1.878-2.187-3.265-4.19-3.265-2.392 0-4.338 1.977-4.338 4.408s1.946 4.409 4.338 4.409c2.003 0 3.693-1.388 4.19-3.266h8.872v.56c0 1.247.998 2.26 2.225 2.26 1.27 0 2.065.838 2.384 1.622.287.703.331 1.71-.309 2.568H24.08zm-9.148 12.561c-1.152 0-2.089-.952-2.089-2.122s.937-2.123 2.089-2.123 2.089.953 2.089 2.123c0 1.17-.937 2.122-2.089 2.122zm0-37.183c-1.152 0-2.089-.952-2.089-2.123 0-1.17.937-2.122 2.089-2.122s2.089.952 2.089 2.122-.937 2.123-2.089 2.123zm4.842 18.592c-1.152 0-2.089-.953-2.089-2.123 0-1.17.937-2.122 2.09-2.122 1.15 0 2.088.952 2.088 2.122s-.937 2.123-2.089 2.123zm15.312-.445v-3.356c1.98-.01 3.678-1.17 4.438-3.032.76-1.863.365-3.905-1.028-5.334l2.335-2.373C42.237 12 44.246 12.4 46.08 11.628c1.833-.772 2.975-2.499 2.984-4.51h3.302c.01 2.011 1.151 3.738 2.985 4.51 1.833.771 3.842.37 5.248-1.045l2.336 2.373c-1.394 1.43-1.788 3.47-1.028 5.334.76 1.863 2.458 3.023 4.438 3.032v3.356c-1.98.01-3.679 1.17-4.438 3.033-.76 1.863-.366 3.904 1.028 5.333l-2.336 2.373c-1.406-1.416-3.415-1.816-5.248-1.044-1.834.772-2.975 2.498-2.985 4.51h-3.302c-.01-2.014-1.15-3.741-2.983-4.513-1.833-.771-3.842-.37-5.25 1.047l-2.335-2.373c1.393-1.429 1.787-3.47 1.028-5.333-.76-1.863-2.459-3.023-4.438-3.033zm15.629 7.785c5.135 0 9.312-4.245 9.312-9.463 0-5.218-4.177-9.463-9.312-9.463S41.403 17.782 41.403 23c0 5.218 4.177 9.463 9.312 9.463zm0-16.64c3.894 0 7.063 3.22 7.063 7.177 0 3.958-3.169 7.177-7.063 7.177-3.894 0-7.063-3.22-7.063-7.177 0-3.957 3.169-7.177 7.063-7.177z" fill="#fff"/></g><defs><clipPath id="clip0_2305_21952"><path fill="#fff" d="M0 0h80v80H0z"/></clipPath></defs></svg>