<svg width="80" height="80" fill="none" xmlns="http://www.w3.org/2000/svg"><path d="M77.481 51.582c-1.085-1.92-3.498-2.58-5.378-1.471l-16.184 9.54-13.448-4.785c.164-.194.319-.397.46-.61l8.374-1.246c2.354-.35 3.998-2.092 3.998-4.235 0-2.341-1.865-4.246-4.157-4.246H40.132A6.286 6.286 0 0037.604 44c-.966 0-1.882.22-2.706.611l-15.82 6.474h-7.65V48.28c0-.623-.495-1.128-1.105-1.128H1.105c-.61 0-1.105.505-1.105 1.128v22.592C0 71.495.495 72 1.105 72h9.218c.61 0 1.105-.505 1.105-1.129v-2.79c3.453.093 7.836.586 12.454 1.107 6.222.702 13.249 1.494 19.642 1.494.21 0 .418 0 .626-.003 7.673-.063 13.151-1.329 16.745-3.869l15.181-9.758c1.85-1.188 2.467-3.591 1.405-5.47zM56.398 63.867l1.229 2.244c-.637.3-1.312.565-2.024.798l.795-3.042zm-3.305-15.092c0 1.166-1.058 1.845-2.107 2l-7.065 1.052c.077-.406.119-.826.119-1.255a6.628 6.628 0 00-1.18-3.786h8.286c1.073 0 1.947.893 1.947 1.99zm-11.264 1.797c0 2.38-1.895 4.315-4.225 4.315-2.33 0-4.225-1.935-4.225-4.315 0-2.379 1.895-4.315 4.225-4.315 2.33 0 4.226 1.936 4.226 4.315zm-22.706 9.003c0 3.437-2.738 6.233-6.104 6.233-3.365 0-6.103-2.796-6.103-6.233 0-3.436 2.738-6.232 6.103-6.232 3.366 0 6.104 2.796 6.104 6.232zM2.21 69.743V49.408h7.007v2.62a8.52 8.52 0 00-4.512 7.547c0 3.283 1.835 6.135 4.512 7.547v2.62H2.21zm21.913-2.799a445.952 445.952 0 00-6.028-.652 8.543 8.543 0 003.237-6.717 8.551 8.551 0 00-2.676-6.232h.634c.14 0 .28-.028.41-.081l11.822-4.839a6.665 6.665 0 00-.355 2.15c0 3.624 2.887 6.572 6.436 6.572a6.3 6.3 0 002.762-.637L54.7 61.609l-1.558 5.958c-8.1 1.736-19.45.456-29.019-.623zM74.9 55.142l-15.202 9.771a1.46 1.46 0 00-.042.029c-.032.023-.066.045-.099.067l-2.026-3.7 15.678-9.244a1.71 1.71 0 012.359.646c.465.823.172 1.891-.668 2.431zm-38.746-4.57c0-.816.652-1.481 1.451-1.481.8 0 1.451.665 1.451 1.481 0 .817-.652 1.482-1.45 1.482-.8 0-1.452-.666-1.452-1.482zM11.57 59.575c0-.816.651-1.482 1.45-1.482.8 0 1.452.666 1.452 1.482 0 .817-.652 1.482-1.451 1.482-.8 0-1.451-.665-1.451-1.482z" fill="#DFB48F"/><path d="M24.021 29.799c-.288 0-.564.115-.768.32l-5.973 6.013a4.14 4.14 0 00-2.091-.565c-2.31 0-4.189 1.891-4.189 4.216S12.879 44 15.189 44s4.188-1.892 4.188-4.217a4.21 4.21 0 00-.561-2.105l5.655-5.693h11.323c.074.422.27.826.594 1.152l2.288 2.303c.405.408.945.633 1.519.633s1.113-.225 1.519-.633c.869-.875 1.974-.855 2.718-.545.744.31 1.54 1.083 1.54 2.32 0 1.193.964 2.163 2.148 2.163h3.235c1.185 0 2.149-.97 2.149-2.163 0-1.235.796-2.007 1.54-2.317.745-.31 1.85-.332 2.718.541.405.41.945.634 1.519.634s1.114-.225 1.52-.633l2.287-2.303c.406-.409.63-.952.63-1.53a2.16 2.16 0 00-.63-1.53c-.867-.872-.847-1.985-.538-2.735.308-.75 1.075-1.55 2.302-1.55 1.184 0 2.148-.97 2.148-2.164v-3.256a2.158 2.158 0 00-2.148-2.163c-1.227 0-1.994-.801-2.302-1.551-.309-.75-.33-1.863.538-2.736.406-.408.63-.951.63-1.529s-.224-1.121-.63-1.53L60.8 8.56a2.127 2.127 0 00-1.519-.633 2.13 2.13 0 00-1.52.633c-.866.873-1.971.853-2.716.542-.745-.31-1.541-1.082-1.541-2.317a2.158 2.158 0 00-2.148-2.163H48.12c-1.184 0-2.148.97-2.148 2.163 0 1.235-.796 2.006-1.54 2.317-.746.31-1.85.332-2.718-.542a2.141 2.141 0 00-3.038 0l-2.288 2.303c-.316.318-.52.718-.595 1.152H24.47l-5.655-5.693a4.21 4.21 0 00.561-2.105C19.377 1.892 17.498 0 15.19 0 12.879 0 11 1.892 11 4.217c0 2.325 1.879 4.216 4.189 4.216.76 0 1.475-.206 2.09-.565l5.974 6.014c.204.204.48.32.768.32h12.606c.618.82.575 1.784.299 2.456-.309.75-1.076 1.55-2.302 1.55a2.16 2.16 0 00-2.149 2.164v.535H23.91c-.48-1.797-2.111-3.123-4.045-3.123-2.31 0-4.189 1.891-4.189 4.216s1.88 4.217 4.189 4.217c1.934 0 3.565-1.327 4.045-3.124h8.566v.536c0 1.192.964 2.163 2.149 2.163 1.226 0 1.993.8 2.302 1.55.276.673.32 1.636-.299 2.457H24.021zm-8.832 12.015a2.026 2.026 0 01-2.017-2.03c0-1.12.905-2.03 2.017-2.03 1.112 0 2.016.91 2.016 2.03 0 1.119-.904 2.03-2.016 2.03zm0-35.567a2.026 2.026 0 01-2.017-2.03c0-1.12.905-2.03 2.017-2.03 1.112 0 2.016.91 2.016 2.03 0 1.12-.904 2.03-2.016 2.03zm4.675 17.783A2.026 2.026 0 0117.847 22c0-1.12.905-2.03 2.017-2.03 1.112 0 2.017.91 2.017 2.03 0 1.12-.905 2.03-2.017 2.03zm14.783-.425v-3.21c1.912-.009 3.552-1.119 4.285-2.9.734-1.783.353-3.735-.992-5.102l2.255-2.27c1.358 1.354 3.297 1.737 5.067.999 1.77-.738 2.873-2.39 2.882-4.314h3.188c.01 1.924 1.111 3.576 2.882 4.314 1.77.738 3.71.355 5.067-.999l2.255 2.27c-1.345 1.367-1.726 3.32-.992 5.101.733 1.782 2.373 2.892 4.284 2.901v3.21c-1.91.01-3.551 1.119-4.284 2.9-.734 1.783-.353 3.735.992 5.102l-2.255 2.27c-1.357-1.354-3.297-1.737-5.067-.999-1.77.739-2.873 2.39-2.882 4.314h-3.188c-.01-1.926-1.111-3.578-2.88-4.316-1.77-.738-3.71-.354-5.07 1.002l-2.254-2.27c1.345-1.367 1.726-3.32.992-5.102-.733-1.782-2.373-2.892-4.285-2.9zm15.09 7.447c4.959 0 8.992-4.06 8.992-9.052 0-4.99-4.034-9.051-8.991-9.051-4.958 0-8.991 4.06-8.991 9.051 0 4.991 4.033 9.052 8.99 9.052zm0-15.917c3.76 0 6.82 3.08 6.82 6.865 0 3.786-3.06 6.865-6.82 6.865-3.76 0-6.819-3.08-6.819-6.865s3.06-6.865 6.82-6.865z" fill="#fff"/></svg>