<svg width="80" height="80" fill="none" xmlns="http://www.w3.org/2000/svg"><path d="M57.755 56.877l-7.692 7.52-3.818-3.731a1.335 1.335 0 00-1.86 0 1.264 1.264 0 000 1.817l4.749 4.64c.256.251.593.377.93.377.336 0 .672-.126.929-.377l8.621-8.429a1.264 1.264 0 000-1.817 1.335 1.335 0 00-1.859 0z" fill="#fff"/><path d="M68.681 51.11c-1.768 0-3.088-.466-3.926-1.387-1.331-1.459-1.143-3.684-1.142-3.7a1.312 1.312 0 00-1.308-1.45h-6.806V2.316c0-.728-.59-1.317-1.317-1.317H15.46c-.027 0-.05.013-.077.016a1.264 1.264 0 00-.335.066c-.027.009-.055.006-.08.017-.02.008-.036.022-.054.031a1.33 1.33 0 00-.333.223c-.016.014-.036.02-.052.034L8.872 7.051.38 15.545a1.3 1.3 0 00-.26.391c-.02.044-.031.086-.046.13a1.296 1.296 0 00-.063.325c-.003.036-.013.07-.012.108v56.686c0 .728.59 1.317 1.316 1.317H41.05c2.95 2.804 6.636 4.653 10.984 5.474a1.275 1.275 0 00.491 0c5.315-1.01 9.62-3.509 12.794-7.427 3.01-3.699 4.67-8.48 4.67-13.463l.011-6.66a1.316 1.316 0 00-1.316-1.32l-.003.004zM11.782 7.862l2.366-2.366v9.663H4.494l7.287-7.295.001-.002zm-9.15 64.006V17.792h12.833c.727 0 1.316-.59 1.316-1.317V3.633h36.085v40.94H42.249c-.37 0-.723.159-.972.431-.198.218-.29.5-.313.79H10.648a1.316 1.316 0 100 2.634h29.92c-.172.45-.416.902-.778 1.298-.838.918-2.157 1.384-3.92 1.384-.726 0-1.316.588-1.316 1.316v2.507H10.647a1.316 1.316 0 100 2.634h23.908v1.522c.002.605.03 1.207.08 1.805.015.193.047.383.068.577.043.401.086.804.152 1.2.038.23.091.455.136.682.07.355.137.709.224 1.056.06.243.134.48.202.72.094.326.185.651.292.971.083.245.177.485.268.725.114.306.23.61.358.909.104.242.218.48.331.718.136.287.274.571.423.85.125.236.258.466.392.697.158.27.319.538.489.8.144.224.296.444.448.662.094.135.178.276.276.406l-36.063.001zm64.721-12.783c0 4.38-1.448 8.573-4.08 11.804-2.724 3.364-6.423 5.534-10.997 6.453-3.91-.784-7.2-2.494-9.781-5.088a17 17 0 01-1.228-1.365c-2.62-3.23-4.067-7.424-4.08-11.804v-5.416c1.921-.223 3.455-.958 4.57-2.19 1.251-1.386 1.657-3.087 1.778-4.273h17.483c.118 1.185.522 2.883 1.77 4.268 1.115 1.236 2.65 1.97 4.576 2.195l-.011 5.416z" fill="#DFB48F"/><path d="M10.322 30.5h34.356c.73 0 1.322-.447 1.322-1 0-.553-.593-1-1.322-1H10.323c-.73 0-1.323.447-1.323 1 0 .553.592 1 1.322 1zm0 11h34.356c.73 0 1.322-.894 1.322-2 0-1.106-.593-2-1.322-2H10.323c-.73 0-1.323.894-1.323 2 0 1.106.592 2 1.322 2z" fill="#fff"/><path d="M28.306 11.5h16.388c.72 0 1.306-.67 1.306-1.5s-.585-1.5-1.306-1.5H28.306C27.586 8.5 27 9.17 27 10s.585 1.5 1.306 1.5zm0 7h16.388c.72 0 1.306-.67 1.306-1.5s-.585-1.5-1.306-1.5H28.306c-.72 0-1.306.67-1.306 1.5s.585 1.5 1.306 1.5z" fill="#DFB48F"/></svg>