<svg width="80" height="80" fill="none" xmlns="http://www.w3.org/2000/svg"><g clip-path="url(#clip0_2305_20450)" stroke="#9F0033"><path d="M39.269 34.148a6.36 6.36 0 014.28 1.292 4.033 4.033 0 011.412 3.191l-.001.012v.012c0 .116-.02.276-.05.598-.028.285-.056.64-.058 1.06-.065.702-.2 1.395-.405 2.07l-.003.007-2.145 7.382v.002c-.15.521-.28 1.049-.389 1.58l-.097.51c-.133.63-.21 1.27-.233 1.912-.108.95.216 1.898.884 2.584l.07.071.084.05a4.64 4.64 0 002.734.633 7.69 7.69 0 002.052-.183l.014-.004.19-.05-.147.577c-1.54.583-2.78 1.036-3.725 1.358-.959.306-1.956.471-2.962.492h-.462l-.03.001a6.524 6.524 0 01-4.37-1.337 3.995 3.995 0 01-1.524-3.164V54.8c0-.573.039-1.146.119-1.714.1-.676.235-1.348.402-2.011l2.157-7.392.002-.006a27.68 27.68 0 00.504-2.075c.137-.63.208-1.271.213-1.915a3.387 3.387 0 00-.773-2.514l-.07-.083-.09-.06a4.24 4.24 0 00-2.77-.687 6.93 6.93 0 00-1.876.285l-.01.002-.218.069.18-.7a57.866 57.866 0 013.648-1.282l.008-.003a11.706 11.706 0 013.416-.563h.02l.019-.002zm4.73-13.398a4.432 4.432 0 013.11 1.166l.007.007.008.006c.125.11.243.227.352.352h0a3.614 3.614 0 01-.352 5.1l-.008.005a4.704 4.704 0 01-6.102.146l-.17-.146-.011-.009a3.595 3.595 0 010-5.445l.009-.007.008-.008a4.47 4.47 0 012.898-1.167h.251z" fill="#fff" stroke-width="1.5"/><path d="M40 .25C61.953.25 79.75 18.047 79.75 40S61.953 79.75 40 79.75.25 61.953.25 40 18.047.25 40 .25zm0 3.137C19.779 3.387 3.387 19.779 3.387 40S19.779 76.613 40 76.613 76.613 60.221 76.613 40 60.221 3.387 40 3.387z" fill="#DFB48F" stroke-width=".5"/></g><defs><clipPath id="clip0_2305_20450"><path fill="#fff" d="M0 0h80v80H0z"/></clipPath></defs></svg>