<svg width="80" height="80" fill="none" xmlns="http://www.w3.org/2000/svg"><path d="M2.395 6.483h9.324a1.88 1.88 0 011.835 1.405l2.196 8.537.082.32.328.049 5.744.86a1.897 1.897 0 01-.56 3.754h-.001l-3.836-.56-.724-.105.165.714 7.556 32.67.09.388h40.96c.668 0 1.175-.571 1.187-1.189l.467-24.035a1.185 1.185 0 00-1.01-1.192 1.892 1.892 0 01-1.594-2.15 1.894 1.894 0 012.154-1.589 4.991 4.991 0 014.238 5.018l-.467 24.021c-.052 2.688-2.288 4.902-4.974 4.902H23.733l-.134.103-7.29 5.603h0c-.87.67-.416 2.13.72 2.13h52.367a1.894 1.894 0 110 3.787h-6.548l.279.688c.25.613.395 1.426.395 2.23 0 3.677-3.015 6.658-6.731 6.658-3.715 0-6.73-2.988-6.73-6.665 0-.803.145-1.61.394-2.223l.28-.688H36.17l.28.688c.25.613.395 1.426.395 2.23 0 3.677-3.015 6.658-6.73 6.658-3.716 0-6.73-2.988-6.73-6.665 0-.803.144-1.61.393-2.223l.28-.688H17.03c-4.634 0-6.712-6.116-3.035-8.95l6.719-5.176.256-.196-.075-.315-10.547-44.633-.091-.384H2.395a1.894 1.894 0 110-3.786zm27.72 63.431c-1.613 0-2.94 1.289-2.941 2.894 0 1.605 1.328 2.894 2.94 2.894 1.613 0 2.942-1.29 2.942-2.894 0-1.605-1.33-2.894-2.942-2.894zm26.676 0c-1.612 0-2.94 1.289-2.94 2.894 0 1.605 1.327 2.894 2.94 2.894s2.941-1.29 2.941-2.894c0-1.605-1.328-2.894-2.941-2.894z" fill="#DFB48F" stroke="#9F0033"/><path d="M43.795.5c9.315 0 16.892 7.558 16.892 16.843S53.11 34.185 43.794 34.185s-16.893-7.557-16.893-16.842C26.902 8.057 34.48.5 43.795.5zm0 3.785c-7.224 0-13.104 5.856-13.104 13.058S36.571 30.4 43.795 30.4c7.223 0 13.102-5.855 13.102-13.057S51.02 4.285 43.796 4.285z" fill="#fff" stroke="#9F0033"/><path d="M48.424 11.652a1.897 1.897 0 012.678-.083 1.89 1.89 0 01.083 2.675l-8.417 8.944c-.255.268-.776.477-1.375.484-.59.006-1.13-.185-1.456-.56l-3.847-4.565a1.891 1.891 0 01.228-2.666c.8-.674 1.996-.57 2.67.23l2.114 2.507.362.429.385-.408 6.575-6.987z" fill="#fff" stroke="#9F0033"/></svg>