<svg width="80" height="80" fill="none" xmlns="http://www.w3.org/2000/svg"><g clip-path="url(#clip0_2305_17111)"><path d="M26.136 69.47l-.075-.028c-1.36-.51-2.654.891-2.05 2.22l.572 1.26C11.79 67.058 3.358 54.046 3.358 39.774 3.358 19.706 19.57 3.38 39.499 3.38s36.142 16.326 36.142 36.394c0 .834.647 1.69 1.679 1.69.927 0 1.679-.756 1.679-1.69C78.999 17.842 61.279 0 39.499 0S0 17.842 0 39.774c0 8.267 2.506 16.2 7.246 22.939 4.173 5.933 9.78 10.547 16.313 13.453l-1.461.673c-1.32.608-1.251 2.52.11 3.03l.075.028a1.62 1.62 0 001.246-.046l5.009-2.307a1.645 1.645 0 00.803-2.175l-.684-1.505-1.608-3.539a1.633 1.633 0 00-.913-.855z" fill="#DFB48F"/><path d="M39.5 19.206c.926 0 1.678-.757 1.678-1.691V6.964c0-.934-.752-1.69-1.679-1.69s-1.679.756-1.679 1.69v10.551c0 .934.752 1.69 1.68 1.69zm22.105 22.259h10.477c.927 0 1.679-.757 1.679-1.69 0-.934-.752-1.691-1.679-1.691H61.605c-.927 0-1.68.757-1.68 1.69 0 .934.753 1.691 1.68 1.691zm-44.21-3.381H6.917c-.927 0-1.679.757-1.679 1.69 0 .934.752 1.691 1.68 1.691h10.477c.927 0 1.678-.757 1.678-1.69 0-.934-.751-1.691-1.678-1.691zm22.107 0H39.5c-.927 0-1.678.757-1.678 1.69 0 .934.753 1.691 1.68 1.691.927 0 1.679-.757 1.679-1.69 0-.934-.752-1.691-1.68-1.691z" fill="#DFB48F"/><path d="M27.534 25.334a1.67 1.67 0 00-2.374 0 1.7 1.7 0 000 2.39l9.46 9.526a1.66 1.66 0 002.373 0 1.7 1.7 0 000-2.39l-9.459-9.526zm35.258-9.015a1.67 1.67 0 00-2.374 0l-18.41 18.54a1.7 1.7 0 000 2.39 1.68 1.68 0 002.374 0l18.41-18.539a1.7 1.7 0 000-2.391zM51.819 48.988H39.025c-.928 0-1.68.757-1.68 1.69 0 .934.752 1.691 1.68 1.691h12.794c.463 0 .84.38.84.846v7.33a.843.843 0 01-.84.846H41.543c-2.315 0-4.197 1.896-4.197 4.226v7.331c0 2.33 1.883 4.226 4.197 4.226h12.794c.927 0 1.679-.757 1.679-1.69 0-.934-.752-1.69-1.679-1.69H41.543a.843.843 0 01-.84-.846v-7.33c0-.075.013-.145.03-.214a.84.84 0 01.81-.632h10.276c2.314 0 4.197-1.896 4.197-4.227v-7.33c0-2.33-1.883-4.227-4.197-4.227zm25.503 0c-.928 0-1.68.757-1.68 1.69v10.713H64.528a.843.843 0 01-.84-.846V50.68c0-.814-.619-1.69-1.678-1.69-.927 0-1.679.756-1.679 1.69v9.866c0 2.33 1.883 4.227 4.197 4.227h11.116v10.712c0 .933.751 1.69 1.678 1.69.928 0 1.68-.757 1.68-1.69V50.679c0-.934-.752-1.69-1.68-1.69z" fill="#fff"/></g><defs><clipPath id="clip0_2305_17111"><path fill="#fff" d="M0 0h80v80H0z"/></clipPath></defs></svg>