<svg width="80" height="80" fill="none" xmlns="http://www.w3.org/2000/svg"><g clip-path="url(#clip0_2305_17124)"><path d="M26.667 19.048h-3.81V3.81H7.619V0h19.048v19.048z" fill="#DFB48F"/><path d="M40 80C17.953 80 0 62.048 0 40a39.69 39.69 0 0112.143-28.69L23.453.524l2.619 2.762-11.286 10.762A35.901 35.901 0 003.81 40c0 19.952 16.238 36.19 36.19 36.19V80zm32.382 0H53.334V60.953h3.81V76.19h15.238V80z" fill="#DFB48F"/><path d="M56.548 79.476l-2.62-2.762 11.286-10.761A35.906 35.906 0 0076.191 40C76.19 20.048 59.952 3.81 40 3.81V0c22.048 0 40 17.953 40 40a39.689 39.689 0 01-12.143 28.69l-11.31 10.786z" fill="#DFB48F"/><path d="M38.071 54.119L18.477 34.524l2.69-2.69 16.904 16.904 24.572-24.571 2.69 2.69L38.071 54.12z" fill="#fff"/></g><defs><clipPath id="clip0_2305_17124"><path fill="#fff" d="M0 0h80v80H0z"/></clipPath></defs></svg>