<svg width="80" height="80" fill="none" xmlns="http://www.w3.org/2000/svg"><g clip-path="url(#clip0_2331_29099)"><path d="M6.706 46.667A6.674 6.674 0 01.039 40a6.674 6.674 0 016.667-6.666A6.674 6.674 0 0113.372 40a6.674 6.674 0 01-6.666 6.667zm0-10.667c-2.206 0-4 1.795-4 4 0 2.206 1.794 4 4 4 2.205 0 4-1.794 4-4 0-2.205-1.795-4-4-4zm66.668 10.667A6.674 6.674 0 0166.707 40a6.674 6.674 0 016.667-6.666A6.674 6.674 0 0180.04 40a6.674 6.674 0 01-6.666 6.667zm0-10.667c-2.206 0-4 1.795-4 4 0 2.206 1.794 4 4 4 2.205 0 4-1.794 4-4 0-2.205-1.795-4-4-4zM40.042 80a6.674 6.674 0 01-6.667-6.667 6.674 6.674 0 016.667-6.666 6.674 6.674 0 016.666 6.666A6.674 6.674 0 0140.042 80zm0-10.667c-2.206 0-4 1.795-4 4 0 2.206 1.794 4 4 4 2.205 0 4-1.794 4-4 0-2.205-1.795-4-4-4zm0-56a6.674 6.674 0 01-6.667-6.666A6.674 6.674 0 0140.042 0a6.674 6.674 0 016.666 6.667 6.674 6.674 0 01-6.666 6.666zm0-10.666c-2.206 0-4 1.794-4 4 0 2.205 1.794 4 4 4 2.205 0 4-1.795 4-4 0-2.206-1.795-4-4-4z" fill="#DFB48F"/><path d="M72.95 36.043a1.334 1.334 0 01-1.316-1.124 31.849 31.849 0 00-2.11-7.368 1.333 1.333 0 112.456-1.04 34.419 34.419 0 012.288 7.988 1.333 1.333 0 01-1.319 1.544zm-6.518-15.066c-.399 0-.793-.178-1.056-.518a32.212 32.212 0 00-5.807-5.806 1.332 1.332 0 01-.24-1.869 1.335 1.335 0 011.87-.24 34.852 34.852 0 016.288 6.285 1.333 1.333 0 01-1.055 2.148zM53.008 10.623c-.174 0-.35-.034-.52-.106a31.844 31.844 0 00-7.368-2.112 1.335 1.335 0 01.42-2.633 34.47 34.47 0 017.988 2.29 1.332 1.332 0 01-.52 2.56zm-7.68 63.623a1.333 1.333 0 01-.208-2.651 31.843 31.843 0 007.369-2.112 1.333 1.333 0 111.04 2.456 34.474 34.474 0 01-7.988 2.29 1.315 1.315 0 01-.213.017zm15.068-6.519a1.333 1.333 0 01-.816-2.388 32.222 32.222 0 005.806-5.808 1.333 1.333 0 112.11 1.63 34.773 34.773 0 01-6.285 6.287c-.243.188-.53.279-.815.279zm10.355-13.424a1.332 1.332 0 01-1.227-1.853 31.803 31.803 0 002.11-7.369 1.334 1.334 0 012.633.42 34.47 34.47 0 01-2.287 7.988 1.333 1.333 0 01-1.229.814zm-61.421 0c-.52 0-1.014-.306-1.228-.814a34.42 34.42 0 01-2.288-7.988 1.333 1.333 0 112.633-.42 31.853 31.853 0 002.11 7.368 1.333 1.333 0 01-1.227 1.854zm10.362 13.432c-.286 0-.572-.091-.815-.279a34.852 34.852 0 01-6.287-6.285 1.333 1.333 0 112.111-1.63 32.215 32.215 0 005.807 5.806 1.332 1.332 0 01-.816 2.388zm15.061 6.511c-.07 0-.14-.006-.212-.018a34.472 34.472 0 01-7.988-2.29 1.333 1.333 0 111.04-2.456 31.844 31.844 0 007.369 2.113 1.335 1.335 0 01-.21 2.65zm-7.681-63.623a1.332 1.332 0 01-.52-2.562 34.472 34.472 0 017.988-2.29 1.334 1.334 0 11.42 2.633 31.845 31.845 0 00-7.37 2.113 1.35 1.35 0 01-.518.106zM13.637 20.988a1.334 1.334 0 01-1.055-2.148 34.772 34.772 0 016.286-6.288 1.334 1.334 0 011.63 2.11 32.222 32.222 0 00-5.805 5.807c-.262.34-.657.52-1.056.52zM7.132 36.043a1.334 1.334 0 01-1.319-1.544 34.467 34.467 0 012.289-7.988 1.332 1.332 0 011.748-.708c.678.286.996 1.069.708 1.748a31.804 31.804 0 00-2.111 7.368 1.332 1.332 0 01-1.315 1.124z" fill="#DFB48F"/><path d="M29.375 45.333a1.34 1.34 0 01-.596-.14L18.112 39.86a1.335 1.335 0 01-.737-1.194V28a1.331 1.331 0 011.93-1.193L29.97 32.14c.452.226.737.688.737 1.193V44a1.337 1.337 0 01-1.333 1.333zm-9.333-7.49l8 4v-7.686l-8-4v7.685z" fill="#fff"/><path d="M29.372 45.333A1.337 1.337 0 0128.04 44V33.333c0-.505.285-.967.737-1.193l10.667-5.334A1.33 1.33 0 0141.373 28v10.666c0 .506-.286.967-.738 1.194l-10.667 5.333a1.34 1.34 0 01-.596.14zm1.334-11.176v7.685l8-4v-7.685l-8 4z" fill="#fff"/><path d="M29.375 34.667c-.204 0-.41-.047-.596-.14l-10.667-5.334a1.335 1.335 0 010-2.386l10.667-5.333a1.333 1.333 0 011.193 0l10.667 5.333a1.335 1.335 0 010 2.387l-10.667 5.333a1.35 1.35 0 01-.597.14zM21.69 28l7.685 3.843L37.06 28l-7.685-3.843L21.69 28z" fill="#fff"/><path d="M50.707 45.333a1.34 1.34 0 01-.596-.14L39.444 39.86a1.335 1.335 0 01-.737-1.194V28a1.331 1.331 0 011.93-1.193l10.666 5.333c.452.226.737.688.737 1.193V44a1.337 1.337 0 01-1.333 1.333zm-9.333-7.49l8 4v-7.686l-8-4v7.685z" fill="#fff"/><path d="M50.708 45.333A1.337 1.337 0 0149.375 44V33.333c0-.505.285-.967.737-1.193l10.667-5.334A1.33 1.33 0 0162.709 28v10.666c0 .506-.286.967-.738 1.194l-10.667 5.333a1.34 1.34 0 01-.596.14zm1.334-11.176v7.685l8-4v-7.685l-8 4z" fill="#fff"/><path d="M50.707 34.667c-.204 0-.41-.047-.596-.14l-10.667-5.334a1.335 1.335 0 010-2.386l10.667-5.333a1.333 1.333 0 011.193 0l10.667 5.333a1.335 1.335 0 010 2.387l-10.667 5.333a1.35 1.35 0 01-.597.14zM43.022 28l7.685 3.843L58.392 28l-7.685-3.843L43.022 28zM40.04 61.333a1.34 1.34 0 01-.597-.14L28.776 55.86a1.335 1.335 0 01-.737-1.194V44a1.33 1.33 0 011.93-1.193l10.666 5.333c.452.226.737.688.737 1.193V60a1.337 1.337 0 01-1.333 1.333zm-9.334-7.49l8 4v-7.686l-8-4v7.685z" fill="#fff"/><path d="M40.04 61.333A1.337 1.337 0 0138.707 60V49.333c0-.505.285-.967.737-1.193l10.667-5.334A1.331 1.331 0 0152.041 44v10.666c0 .506-.286.967-.738 1.194l-10.667 5.333a1.34 1.34 0 01-.596.14zm1.334-11.176v7.685l8-4v-7.685l-8 4z" fill="#fff"/><path d="M40.04 50.667c-.205 0-.41-.047-.597-.14l-10.667-5.334a1.335 1.335 0 010-2.386l10.667-5.334a1.333 1.333 0 011.193 0l10.667 5.334a1.335 1.335 0 010 2.386l-10.667 5.334a1.35 1.35 0 01-.597.14zM32.353 44l7.685 3.843L47.724 44l-7.685-3.843L32.354 44z" fill="#fff"/></g><defs><clipPath id="clip0_2331_29099"><path fill="#fff" d="M0 0h80v80H0z"/></clipPath></defs></svg>