<svg width="80" height="80" fill="none" xmlns="http://www.w3.org/2000/svg"><path d="M76.455 10.28l-8.708 8.748-.105.106.105.106 8.708 8.747-10.023 10.07-8.707-8.747-.107-.107-.105.107-8.708 8.747-10.024-10.07 8.71-8.747.105-.106-.106-.106-8.709-8.748L48.805.21l8.708 8.749.105.106.107-.106L66.432.211l10.023 10.07zM66.326 4.464l-6.539 6.568a3.057 3.057 0 01-4.337 0l-6.539-6.568-.105-.108-.107.108-5.686 5.712-.106.105.106.106 6.539 6.568a3.092 3.092 0 010 4.359l-6.54 6.568-.105.105.106.106 5.686 5.712.107.107.105-.107 6.54-6.569a3.057 3.057 0 014.336 0l6.54 6.569.105.107.106-.107 5.687-5.712.105-.106-.105-.105-6.54-6.569a3.092 3.092 0 010-4.358l6.54-6.568.105-.106-.105-.105-5.687-5.712-.106-.108-.106.108z" fill="#fff" stroke="#9F0033" stroke-width=".3"/><path d="M33.636 15.53h2.547c.804 0 1.459.654 1.459 1.464 0 .81-.655 1.466-1.46 1.466h-2.546a1.462 1.462 0 01-1.458-1.466c0-.81.653-1.465 1.458-1.465zm-10.188 0h5.095a1.46 1.46 0 011.458 1.464c0 .81-.653 1.466-1.458 1.466h-5.095a1.462 1.462 0 01-1.458-1.466c0-.81.654-1.465 1.458-1.465zm-7.642 0h2.546c.805 0 1.46.654 1.46 1.464 0 .81-.655 1.466-1.46 1.466h-2.546c-.853 0-1.685.084-2.489.243a1.466 1.466 0 01-.566-2.875 15.667 15.667 0 013.055-.299zM7.11 18.179a1.454 1.454 0 012.023.402 1.47 1.47 0 01-.4 2.034 12.847 12.847 0 00-3.518 3.533 1.454 1.454 0 01-2.023.403 1.471 1.471 0 01-.401-2.034 15.773 15.773 0 014.32-4.338zM.448 28.189a1.459 1.459 0 011.713-1.154c.79.157 1.304.928 1.148 1.723a12.927 12.927 0 00-.243 2.499c0 .856.084 1.692.243 2.499a1.465 1.465 0 01-1.148 1.721 1.458 1.458 0 01-1.713-1.153 15.869 15.869 0 01-.298-3.067c0-1.049.103-2.075.298-3.069zm2.744 9.774a1.454 1.454 0 012.023.402 12.847 12.847 0 003.517 3.533c.67.45.85 1.362.4 2.035a1.454 1.454 0 01-2.022.402 15.775 15.775 0 01-4.319-4.338 1.471 1.471 0 01.401-2.034zm8.412 6.999a1.46 1.46 0 011.713-1.153c.804.16 1.636.244 2.489.244h2.21c.805 0 1.459.656 1.459 1.466 0 .81-.654 1.465-1.458 1.465h-2.211a15.63 15.63 0 01-3.055-.299 1.466 1.466 0 01-1.147-1.723zm46.216-.908h2.21c.788 0 1.564.05 2.325.15.799.105 1.363.84 1.258 1.644a1.46 1.46 0 01-1.635 1.264 14.983 14.983 0 00-1.948-.127h-2.21a1.462 1.462 0 01-1.459-1.466c0-.81.654-1.465 1.458-1.465zm-8.844 0h4.422c.805 0 1.458.655 1.458 1.465s-.653 1.466-1.458 1.466h-4.422a1.462 1.462 0 01-1.458-1.466c0-.81.653-1.465 1.458-1.465zm-8.844 0h4.423c.804 0 1.458.655 1.458 1.465s-.654 1.466-1.458 1.466h-4.423a1.462 1.462 0 01-1.458-1.466c0-.81.653-1.465 1.458-1.465zm-8.848 0h4.423c.804 0 1.458.655 1.458 1.465s-.653 1.466-1.458 1.466h-4.423a1.462 1.462 0 01-1.458-1.466c0-.81.654-1.465 1.458-1.465zm-8.844 0h4.423c.805 0 1.458.655 1.458 1.465s-.653 1.466-1.458 1.466H22.44a1.462 1.462 0 01-1.458-1.466c0-.81.654-1.465 1.458-1.465zm42.513 2.151a1.456 1.456 0 011.905-.793 17.784 17.784 0 014.028 2.34 1.47 1.47 0 01.267 2.055 1.454 1.454 0 01-2.045.269 14.868 14.868 0 00-3.366-1.956 1.468 1.468 0 01-.789-1.915zm7.173 4.581a1.454 1.454 0 012.045.27A17.91 17.91 0 0176.5 55.1a1.469 1.469 0 01-.79 1.916 1.455 1.455 0 01-1.903-.793 14.945 14.945 0 00-1.66-2.99l-.289-.392a1.471 1.471 0 01.155-1.958l.113-.097zm3.938 7.566a1.46 1.46 0 011.634 1.263 18.075 18.075 0 010 4.672 1.459 1.459 0 01-1.633 1.264 1.465 1.465 0 01-1.258-1.643 15.224 15.224 0 000-3.913 1.465 1.465 0 011.257-1.643zm-2.257 9.328a1.455 1.455 0 011.904-.793 1.468 1.468 0 01.789 1.915 17.915 17.915 0 01-2.33 4.047c-.46.6-1.293.744-1.921.354l-.123-.085a1.471 1.471 0 01-.268-2.056 14.963 14.963 0 001.949-3.382zm-4.699 6.146a1.454 1.454 0 012.045.27 1.47 1.47 0 01-.267 2.054 17.765 17.765 0 01-4.028 2.34 1.456 1.456 0 01-1.905-.792 1.47 1.47 0 01.79-1.916h-.002a14.85 14.85 0 003.367-1.956zm-7.126 2.965a1.461 1.461 0 011.635 1.265 1.465 1.465 0 01-1.11 1.615l-.148.028c-.761.099-1.537.151-2.324.151H57.64a1.462 1.462 0 01-1.458-1.466c0-.81.653-1.465 1.458-1.465h2.395c.66 0 1.31-.043 1.947-.127zm-13.924.128h4.79c.804 0 1.458.655 1.458 1.465s-.654 1.466-1.458 1.466h-4.79a1.462 1.462 0 01-1.458-1.466c0-.81.653-1.465 1.458-1.465zm-9.582 0h4.79c.804 0 1.458.655 1.458 1.465s-.654 1.466-1.458 1.466h-4.79a1.462 1.462 0 01-1.458-1.466c0-.81.653-1.465 1.458-1.465zm-9.578 0h4.79c.804 0 1.457.655 1.457 1.465s-.653 1.466-1.458 1.466h-4.79a1.462 1.462 0 01-1.457-1.466c0-.81.653-1.465 1.457-1.465zm-7.188 0h2.395c.804 0 1.458.655 1.459 1.465 0 .81-.655 1.466-1.46 1.466H21.71a1.462 1.462 0 01-1.458-1.466c0-.81.653-1.465 1.458-1.465z" fill="#DFB48F" stroke="#9F0033" stroke-width=".3"/></svg>