<svg width="80" height="80" fill="none" xmlns="http://www.w3.org/2000/svg"><g clip-path="url(#clip0_1217_9085)" stroke="#9F0033" stroke-width=".75"><path d="M40.007.375c19.528 0 35.418 15.888 35.418 35.415 0 5.85-1.466 11.65-4.237 16.768v0a1.73 1.73 0 01-2.345.699h-.001a1.73 1.73 0 01-.698-2.346 31.84 31.84 0 003.82-15.121c0-17.62-14.336-31.954-31.957-31.954C22.387 3.836 8.05 18.17 8.05 35.79a31.84 31.84 0 003.82 15.121 1.73 1.73 0 01-.548 2.253l-.151.093a1.73 1.73 0 01-2.345-.698v-.001A35.313 35.313 0 014.59 35.79C4.59 16.263 20.478.375 40.007.375z" fill="#DFB48F"/><path d="M14.037 49.052c5.14 0 9.323 4.182 9.323 9.322 0 5.14-4.183 9.322-9.323 9.322-5.14 0-9.322-4.183-9.322-9.322 0-5.14 4.182-9.322 9.322-9.322zm0 3.46a5.868 5.868 0 00-5.861 5.862 5.868 5.868 0 005.861 5.861 5.869 5.869 0 005.862-5.861 5.869 5.869 0 00-5.862-5.861z" fill="#fff"/><path d="M14.036 64.235c5.62 0 10.743 3.523 12.746 8.761a1.731 1.731 0 01-3.232 1.237c-1.495-3.912-5.318-6.537-9.514-6.537-4.875 0-8.96 3.436-9.964 8.014l-.1.455h20.59a1.731 1.731 0 010 3.461H2.105a1.73 1.73 0 01-1.73-1.73c0-7.532 6.13-13.66 13.661-13.66zM65.97 49.052c5.14 0 9.324 4.182 9.324 9.322 0 5.14-4.183 9.322-9.323 9.322-5.14 0-9.323-4.183-9.323-9.322 0-5.14 4.183-9.322 9.323-9.322zm0 3.46a5.868 5.868 0 00-5.86 5.862 5.868 5.868 0 005.86 5.861 5.869 5.869 0 005.863-5.861 5.869 5.869 0 00-5.862-5.861z" fill="#fff"/><path d="M65.963 64.235c7.532 0 13.661 6.13 13.661 13.66a1.73 1.73 0 01-1.73 1.731H55.435a1.73 1.73 0 010-3.461h20.591l-.1-.455c-1.002-4.578-5.088-8.014-9.963-8.014-4.196 0-8.019 2.625-9.514 6.537a1.731 1.731 0 01-3.233-1.237c2.003-5.238 7.127-8.76 12.747-8.76z" fill="#fff"/><path d="M40.008.375c.955 0 1.73.775 1.73 1.73V35.79a1.731 1.731 0 01-3.46 0V2.105c0-.955.775-1.73 1.73-1.73z" fill="#DFB48F"/><path d="M40.007.375c5.109 0 9.747 3.783 13.128 10.17 3.374 6.373 5.446 15.257 5.446 25.244 0 3.429-.252 6.823-.75 10.086a1.731 1.731 0 11-3.42-.523c.47-3.092.71-6.309.71-9.563 0-8.603-1.696-16.554-4.41-22.367-1.355-2.906-2.974-5.294-4.776-6.96-1.804-1.667-3.811-2.626-5.928-2.626s-4.123.959-5.927 2.626c-1.802 1.666-3.42 4.054-4.777 6.96-2.713 5.813-4.408 13.764-4.409 22.367 0 3.254.239 6.471.71 9.563a1.73 1.73 0 01-1.448 1.972h0a1.725 1.725 0 01-1.971-1.449 66.993 66.993 0 01-.751-10.086c0-9.987 2.072-18.87 5.446-25.244C30.26 4.159 34.898.375 40.007.375z" fill="#DFB48F"/><path d="M6.32 34.06h67.374a1.731 1.731 0 010 3.46H6.32a1.731 1.731 0 010-3.46zm4.528-16.842H69.15a1.731 1.731 0 010 3.46H10.848a1.731 1.731 0 010-3.46z" fill="#DFB48F"/><path d="M40.005 41.077c6.37 0 11.555 5.184 11.555 11.555 0 6.37-5.184 11.554-11.555 11.554-6.371 0-11.556-5.184-11.556-11.554s5.185-11.555 11.556-11.555zm0 3.461c-4.463 0-8.095 3.631-8.095 8.094 0 4.463 3.632 8.095 8.095 8.095 4.463 0 8.095-3.632 8.095-8.095 0-4.463-3.632-8.094-8.095-8.094z" fill="#fff"/><path d="M40.002 60.727c9.467 0 17.17 7.702 17.17 17.169a1.73 1.73 0 01-1.73 1.73h-30.88a1.73 1.73 0 01-1.73-1.73c0-9.467 7.703-17.17 17.17-17.17zm0 3.46c-6.825 0-12.498 5.01-13.54 11.544l-.067.434h27.214l-.068-.434c-1.041-6.534-6.715-11.543-13.539-11.543z" fill="#fff"/></g><defs><clipPath id="clip0_1217_9085"><path fill="#fff" d="M0 0h80v80H0z"/></clipPath></defs></svg>