<svg width="80" height="80" fill="none" xmlns="http://www.w3.org/2000/svg"><g clip-path="url(#clip0_1217_9068)"><path d="M40.128 7.07c.315 0 .605.181.745.464v.001l2.74 5.553.117.236.26.038 6.132.885v.001a.84.84 0 01.672.564h0a.847.847 0 01-.213.858l-4.434 4.318-.189.184.044.26.98 5.703.013.076.036.07c.062.12.097.254.097.393a.83.83 0 01-.833.833h-.067a.837.837 0 01-.39-.096l-5.48-2.88-.233-.122-.232.122-5.478 2.88v.001a.834.834 0 01-1.21-.88h0l1.046-6.097.045-.26-.189-.183-4.433-4.32-.078-.087a.834.834 0 01.542-1.333l-.001-.001 6.127-.89.26-.037.116-.235 2.743-5.554v-.002a.827.827 0 01.745-.463zm-.451 3.625l-1.707 3.453v.001c-.214.435-.63.736-1.108.806l-3.813.558-1.001.145.724.707 2.757 2.687.002.002c.303.292.463.703.444 1.125l-.02.18-.65 3.793-.171 1 .897-.472 3.404-1.794c.037-.02.164-.065.338-.108a2.09 2.09 0 01.352-.061c.238 0 .48.06.688.173l.006.003 3.4 1.787.896.47-.17-.998-.651-3.793a1.474 1.474 0 01.428-1.31h.002l2.754-2.684.725-.707-1.003-.146-3.808-.553h0a1.49 1.49 0 01-1.02-.65l-.09-.156-1.709-3.458-.448-.907-.448.907z" fill="#fff" stroke="#fff"/><path d="M14.418 23.55c2.92 2.857 11.043 9.36 19.49 11.82-.017 2.44-.42 7.357-1.117 9.84-.623.167-1.25.313-1.876.44-2.067.417-3.614 1.863-4.107 3.74-2.167.7-5.107 3.02-5.917 4.227-.466.68-.646 1.603-.486 2.47.436 2.486 2.6 4.293 5.15 4.3l24.46.003 4.696-.003c2.547-.007 4.71-1.814 5.15-4.304.15-.87-.033-1.79-.486-2.456-.817-1.214-3.757-3.537-5.927-4.237-.493-1.877-2.037-3.323-4.1-3.74a36.01 36.01 0 01-1.877-.44c-.7-2.493-1.103-7.41-1.116-9.84 8.446-2.46 16.57-8.963 19.493-11.82 1.743-1.703 3.647-3.847 4.53-6.81.957-3.21-.1-6.347-2.763-8.18-2.084-1.433-4.507-1.95-7.05-1.513-.484.08-.957.213-1.43.366l-.047-4.56C59.071.96 58.185.073 56.305.073h-32.35c-1.877 0-2.764.887-2.78 2.784l-.054 4.556a10.303 10.303 0 00-1.426-.366c-2.547-.43-4.964.08-7.047 1.513-2.663 1.833-3.72 4.967-2.763 8.18.886 2.963 2.786 5.103 4.533 6.81zm42.747 31.57c.07.097.096.333.07.507-.214 1.21-1.28 2.093-2.527 2.096l-4.693.004-24.457-.004a2.563 2.563 0 01-2.53-2.103c-.033-.17 0-.397.07-.503.693-1.03 3.93-3.227 4.787-3.264.016 0 .033-.006.05-.006.016 0 .03.01.046.01h24.3c.014 0 .024-.007.034-.007.013 0 .023.007.036.007.877.03 4.117 2.226 4.814 3.263zM45.17 46.77c.147.393.474.693.877.81.913.263 1.837.49 2.767.683.666.134 1.203.47 1.576.924H29.865a2.733 2.733 0 011.583-.924c.927-.19 1.85-.416 2.763-.683a1.33 1.33 0 00.877-.81c.903-2.4 1.397-7.757 1.48-10.773 1.197.216 2.387.346 3.56.346s2.367-.133 3.56-.346c.083 3.013.577 8.363 1.483 10.773zM61 9.677c1.84-.307 3.587.043 5.097 1.08 1.727 1.186 2.35 3.09 1.717 5.22-.71 2.38-2.337 4.2-3.834 5.663-1.51 1.477-4.823 4.237-8.88 6.747 3.064-5.217 3.95-12.374 4.06-18.164.014-.003.027-.01.04-.013.6-.213 1.19-.43 1.8-.533zM23.845 2.88c0-.05 0-.097.003-.137h32.563c.004.04.004.084.004.137l.063 6.177c0 .05.017.32.023.366.004.017.014.03.017.05 0 .007-.003.01-.003.017-.047 5.447-.844 15.313-5.63 20.183-2.357 2.394-6.48 3.924-10.587 3.924h-.183c-4.097-.01-8.344-1.497-10.737-3.924-4.823-4.906-5.603-14.886-5.633-20.4 0-.006-.004-.013-.004-.02.007-.063.04-.126.04-.186l.064-6.187zm-9.687 7.877c1.153-.79 2.43-1.194 3.8-1.194.427 0 .86.04 1.297.114.613.103 1.203.32 1.803.536l.04.014c.113 5.826 1.003 12.96 4.06 18.16-4.057-2.507-7.37-5.27-8.88-6.747-1.497-1.463-3.123-3.283-3.833-5.663-.637-2.127-.01-4.03 1.713-5.22z" fill="#DFB48F"/><path d="M13.085 62.677h54.017c.314 0 1.056.013 1.577.54.529.537.532 1.32.529 1.654-.017 1.51-.013 3.43-.01 5.203v1.18h7.974c.609 0 1.231.082 1.684.54.452.457.528 1.097.522 1.728v.002l-.01 2.351v.003l.004 1.463c-.003.744-.21 1.247-.528 1.564-.32.318-.823.522-1.569.522H2.735c-.768 0-1.273-.204-1.59-.523-.316-.32-.52-.832-.52-1.611V73.41c0-.818.2-1.331.517-1.645.277-.276.71-.464 1.37-.508l.298-.01h2.582l5.163.003h.5v-6.548c.003-.724.203-1.212.511-1.52.31-.307.797-.505 1.519-.505zm54.446 7.395c-.003-1.778-.01-3.7.007-5.21l.006-.506h-.506l-53.803-.016h-.498l-.002.498-.016 4.457v.002l.003 2.787c0 .46-.373.833-.833.833H2.29l.001.5.003 3.837v.5H77.69l.002-.498.02-3.764a.768.768 0 00-.004-.15l-.061-.429h-9.28a.835.835 0 01-.835-.833v-2.008z" fill="#fff" stroke="#fff"/></g><defs><clipPath id="clip0_1217_9068"><path fill="#fff" d="M0 0h80v80H0z"/></clipPath></defs></svg>