<svg width="80" height="80" fill="none" xmlns="http://www.w3.org/2000/svg"><g clip-path="url(#clip0_1217_9073)"><path d="M79.4 38.75l-6.274-5.019a.457.457 0 01-.163-.263c-.001-.03-.061-.186.038-.365l3.873-7.04a1.6 1.6 0 00-.957-2.308l-7.722-2.234a.486.486 0 01-.34-.509l.888-7.989a1.6 1.6 0 00-1.766-1.766l-7.99.887a.46.46 0 01-.312-.079c-.016-.015-.16-.083-.216-.274l-2.24-7.72a1.6 1.6 0 00-2.31-.955l-7.036 3.878a.49.49 0 01-.604-.12L41.249.6a1.6 1.6 0 00-2.498 0l-5.02 6.274c-.125.157-.297.166-.316.173a.464.464 0 01-.312-.048l-7.04-3.873a1.6 1.6 0 00-2.308.957l-2.234 7.721a.485.485 0 01-.509.34l-7.989-.887a1.6 1.6 0 00-1.766 1.766l.887 7.99a.465.465 0 01-.079.312c-.015.016-.083.16-.274.216l-7.72 2.24a1.6 1.6 0 00-.955 2.309l3.878 7.037a.49.49 0 01-.12.604L.6 38.751a1.6 1.6 0 000 2.498l6.274 5.02c.158.126.166.296.173.316a.46.46 0 01-.048.312l-3.873 7.04a1.6 1.6 0 00.957 2.308l7.722 2.234a.485.485 0 01.339.509l-.887 7.988a1.6 1.6 0 001.766 1.767l7.99-.887a.46.46 0 01.31.078c.017.015.162.084.218.275l2.24 7.72a1.6 1.6 0 002.309.955l7.037-3.878a.492.492 0 01.604.12l5.02 6.274c.64.8 1.858.8 2.498 0l5.02-6.274c.122-.154.276-.162.292-.168.016 0 .17-.048.336.043l7.04 3.873a1.6 1.6 0 002.308-.957l2.234-7.721a.483.483 0 01.509-.34l7.989.888a1.6 1.6 0 001.766-1.767l-.887-7.99a.462.462 0 01.074-.305c.017-.018.085-.167.279-.223l7.72-2.24a1.6 1.6 0 00.955-2.309l-3.878-7.037a.492.492 0 01.12-.604l6.274-5.02a1.6 1.6 0 000-2.498zm-8.273 5.02a3.692 3.692 0 00-.924 4.648l2.913 5.285-5.799 1.683c-1.682.488-2.842 2.152-2.641 3.955l.666 6.001-6-.666a3.67 3.67 0 00-2.44.595l-.016.011a3.667 3.667 0 00-1.48 2.024l-1.679 5.8-5.287-2.909a3.663 3.663 0 00-2.467-.385l-.033.007.31 1.57-.331-1.566c-.847.168-1.61.63-2.15 1.304L40 75.839l-3.77-4.712a3.692 3.692 0 00-4.648-.924l-5.285 2.913-1.683-5.799a3.675 3.675 0 00-1.492-2.03l-.02-.014a3.666 3.666 0 00-2.443-.597l-6 .666.666-6a3.686 3.686 0 00-2.63-3.936l-5.801-1.679 2.909-5.287a3.722 3.722 0 00-.93-4.67L4.161 40l4.712-3.77a3.692 3.692 0 00.924-4.648l-2.913-5.285 5.799-1.683a3.663 3.663 0 002.021-1.479l.023-.034a3.665 3.665 0 00.598-2.442l-.667-6.001 6.001.667a3.687 3.687 0 003.936-2.631l1.678-5.8 5.287 2.909a3.703 3.703 0 002.477.383l.045-.009a3.665 3.665 0 002.148-1.304L40 4.161l3.77 4.712a3.696 3.696 0 004.648.924l5.285-2.913 1.683 5.799a3.66 3.66 0 001.47 2.015l.043.029a3.667 3.667 0 002.442.598l6.001-.667-.666 6.001c-.162 1.457.613 2.471.606 2.455a3.667 3.667 0 002.024 1.48l5.8 1.68-2.909 5.286a3.657 3.657 0 00-.384 2.468l.006.032.004.021c.167.847.63 1.61 1.304 2.15L75.839 40l-4.712 3.769z" fill="#DFB48F"/><path d="M58.072 19.668l-38.4 38.4a1.6 1.6 0 002.263 2.263l38.4-38.4a1.6 1.6 0 00-2.263-2.263zM51.202 41.6c-5.294 0-9.6 4.306-9.6 9.6 0 5.293 4.306 9.6 9.6 9.6 5.293 0 9.6-4.307 9.6-9.6 0-5.294-4.307-9.6-9.6-9.6zm0 16a6.407 6.407 0 01-6.4-6.4c0-3.53 2.87-6.4 6.4-6.4 3.529 0 6.4 2.87 6.4 6.4 0 3.529-2.871 6.4-6.4 6.4zM28.803 38.4c5.294 0 9.6-4.307 9.6-9.6 0-5.294-4.306-9.6-9.6-9.6-5.293 0-9.6 4.306-9.6 9.6 0 5.293 4.307 9.6 9.6 9.6zm0-16c3.53 0 6.4 2.87 6.4 6.4 0 3.528-2.87 6.4-6.4 6.4a6.407 6.407 0 01-6.4-6.4c0-3.53 2.871-6.4 6.4-6.4z" fill="#fff"/></g><defs><clipPath id="clip0_1217_9073"><path fill="#fff" d="M0 0h80v80H0z"/></clipPath></defs></svg>