<svg width="80" height="80" fill="none" xmlns="http://www.w3.org/2000/svg"><path d="M73.882 36.101h-2.6v-20.8a1.3 1.3 0 00-1.3-1.3h-7.874l-2.585-8.19a1.3 1.3 0 00-1.704-.824L47.233 9.024 42.478 1.6a1.297 1.297 0 00-.823-.57 1.27 1.27 0 00-.984.182l-19.518 12.79h-10.97a9.11 9.11 0 00-9.099 9.1V69.9a9.11 9.11 0 009.1 9.1h59.798a1.3 1.3 0 001.3-1.3V62.1h2.6a5.2 5.2 0 005.2-5.2V41.302a5.2 5.2 0 00-5.2-5.2zm0 2.6a2.6 2.6 0 110 5.2h-2.6v-5.2h2.6zm-5.2-22.1v13h-1.647l-4.105-13h5.752zm-4.372 13h-3.79l-3.604-10.81a1.3 1.3 0 00-1.233-.89 4.941 4.941 0 01-3.52-1.456l-.761-.763a1.3 1.3 0 00-1.37-.3L11.57 29.602h-1.386a6.48 6.48 0 01-4.612-1.929L57.459 7.914l6.85 21.687zm-6.53 0H19.065L50.153 18.11l.172.173a7.513 7.513 0 004.401 2.159l3.054 9.16zM40.993 4.111l3.753 5.86-30.32 11.547L40.993 4.11zM10.183 16.6h7.002L4.063 25.2a6.414 6.414 0 01-.379-2.098 6.507 6.507 0 016.5-6.5zm58.5 59.8H10.184a6.508 6.508 0 01-6.5-6.5V29.471c.012.012.026.022.038.035.101.102.209.195.315.291.105.096.218.207.333.303.116.097.228.174.342.26.115.086.237.185.362.271.124.085.245.151.368.227.122.076.253.161.39.234.136.073.266.13.4.197.134.065.26.13.398.192s.296.11.443.163c.148.054.26.105.397.146.163.052.332.089.5.13.13.031.249.07.376.096.19.04.39.064.584.092.108.014.214.037.325.049.308.03.618.045.929.045h1.69l.02.05.138-.05h56.65V43.9h-14.3a9.1 9.1 0 000 18.2h14.3v14.3zm7.8-19.5a2.6 2.6 0 01-2.6 2.6h-19.5a6.5 6.5 0 010-12.999h19.5c.314-.003.625-.035.934-.095a5.19 5.19 0 001.08-.312l.044-.021a5.17 5.17 0 00.542-.27V56.9z" fill="#DFB48F"/><path d="M29.127 36.102h5.2v2.6h-5.2v-2.6zm-10.4 0h5.2v2.6h-5.2v-2.6zm41.599 0h4.456v2.6h-4.456v-2.6zm-10.399 0h5.2v2.6h-5.2v-2.6zM8.65 35.918l-.61 2.522c.702.17 1.42.257 2.142.26h3.344v-2.6h-3.344a6.686 6.686 0 01-1.534-.182zm30.876.184h5.2v2.6h-5.2v-2.6zM8.65 69.719l-.61 2.521a9.26 9.26 0 002.142.261h3.344v-2.6h-3.344a6.67 6.67 0 01-1.534-.182zm51.676.179h4.456v2.6h-4.456v-2.6zm-31.199 0h5.2v2.6h-5.2v-2.6zm20.8 0h5.2v2.6h-5.2v-2.6zm-31.2 0h5.2v2.6h-5.2v-2.6zm20.799 0h5.2v2.6h-5.2v-2.6zm14.856-20.796a3.9 3.9 0 100 7.8 3.9 3.9 0 000-7.8zm0 5.2a1.3 1.3 0 11.002-2.602 1.3 1.3 0 01-.002 2.601z" fill="#fff"/></svg>