<svg width="80" height="80" fill="none" xmlns="http://www.w3.org/2000/svg"><mask id="a" style="mask-type:luminance" maskUnits="userSpaceOnUse" x="0" y="0" width="80" height="80"><path d="M0 0h80v80H0V0z" fill="#fff"/></mask><g mask="url(#a)" stroke-width="2.4" stroke-miterlimit="10" stroke-linecap="round" stroke-linejoin="round"><path d="M33.575 54.758a4.948 4.948 0 003.048-6.293l-.301-.872" stroke="#fff"/><path d="M25.856 64.457L20.963 50.31m8.159-2.716l13.015 20.941c1.484 2.389.371 5.54-2.282 6.46l-5.109 1.774a4.374 4.374 0 01-5.567-2.707l-1.015-2.934" stroke="#DFB48F"/><path d="M10.682 48.91l-2.987 1.038a3.548 3.548 0 01-4.517-2.196l-1.81-5.233a3.558 3.558 0 012.192-4.525l2.987-1.037" stroke="#fff"/><path d="M21.799 26.586L45.96 7.493M59.824 47.57l-30.76.016" stroke="#DFB48F"/><path d="M61.324 32.689l-.007.002-5.42-15.672a5.609 5.609 0 017.14 3.468l1.75 5.061a5.615 5.615 0 01-3.463 7.14z" stroke="#fff"/><path d="M47.63 12.315l-1.785-5.159a3.137 3.137 0 115.93-2.054l14.093 40.746a3.137 3.137 0 11-5.93 2.054l-10.203-29.5M15.283 52.28l13.69-4.752-7.255-20.976-13.694 4.754a3.248 3.248 0 00-2.003 4.13l5.133 14.84a3.244 3.244 0 004.129 2.005z" stroke="#DFB48F"/><path d="M69.66 21.016l7.533-2.616m-11.887-3.619l5.524-7.119m-.738 20.955l8.737 2.168m-65.803 6.43l5.348-1.857M15.56 44.54l5.347-1.858" stroke="#fff"/></g></svg>