<svg width="80" height="80" fill="none" xmlns="http://www.w3.org/2000/svg"><path d="M77.137 16.613l-13.75-13.75A1.292 1.292 0 0062.5 2.5H31.25a3.761 3.761 0 00-3.75 3.75v7.563a26.216 26.216 0 000 52.374v7.563a3.761 3.761 0 003.75 3.75h42.5a3.761 3.761 0 003.75-3.75V17.5a1.29 1.29 0 00-.362-.887zm-13.388-9.85l9.488 9.487H65A1.25 1.25 0 0163.75 15V6.762zM5 40a23.78 23.78 0 0122.5-23.712v23.2L11.126 55.861A23.599 23.599 0 015 40zm7.888 17.625L29.262 41.25h23.2a23.704 23.704 0 01-39.575 16.375zM75 73.75A1.25 1.25 0 0173.75 75h-42.5A1.25 1.25 0 0130 73.75v-7.563A26.267 26.267 0 0055 40a1.25 1.25 0 00-1.25-1.25H30V6.25A1.25 1.25 0 0131.25 5h30v10A3.762 3.762 0 0065 18.75h10v55z" fill="#DFB48F" stroke="#DFB48F" stroke-width=".2"/><path d="M33.75 8.75A1.25 1.25 0 0032.5 10v25a1.25 1.25 0 001.25 1.25h25A1.25 1.25 0 0060 35 26.278 26.278 0 0033.75 8.75zm1.25 25V11.288A23.772 23.772 0 0157.462 33.75H35z" fill="#fff" stroke="#fff" stroke-width=".2"/><path d="M61.25 50A11.25 11.25 0 1072.5 61.25 11.267 11.267 0 0061.25 50zm0 20A8.75 8.75 0 1170 61.25 8.76 8.76 0 0161.25 70z" fill="#DFB48F" stroke="#DFB48F" stroke-width=".2"/><path d="M58.75 63.233l-2.866-2.866-1.768 1.768 3.75 3.75a1.25 1.25 0 001.768 0l7.5-7.5-1.768-1.768-6.616 6.616zM62.5 23.75h10v2.5h-10v-2.5zm0 7.5h10v2.5h-10v-2.5zm0 7.5h10v2.5h-10v-2.5z" fill="#fff" stroke="#fff" stroke-width=".2"/></svg>