<svg width="80" height="80" fill="none" xmlns="http://www.w3.org/2000/svg"><path d="M35.086 28.12a2.885 2.885 0 00-4.085.041l-3.748 3.822-1.03-1.076a2.89 2.89 0 00-4.176 3.992l3.09 3.234a2.89 2.89 0 004.152.026l5.837-5.953a2.887 2.887 0 00-.04-4.085zm-1.596 2.483l-5.837 5.953a.603.603 0 01-.86-.005l-3.09-3.234a.6.6 0 01.865-.827l1.846 1.931a1.145 1.145 0 001.646.01l4.576-4.666a.598.598 0 11.854.838zm1.596 11.032a2.888 2.888 0 00-4.085.04l-3.748 3.823-1.03-1.077a2.888 2.888 0 10-4.176 3.992l3.09 3.234a2.89 2.89 0 004.152.026l5.837-5.953a2.888 2.888 0 00-.04-4.085zm-1.596 2.482l-5.837 5.953a.599.599 0 01-.86-.006l-3.09-3.233a.6.6 0 01.865-.828l1.846 1.932a1.144 1.144 0 001.646.01l4.576-4.667a.598.598 0 11.854.839zm1.596 11.033a2.888 2.888 0 00-4.085.04l-3.748 3.823-1.03-1.076a2.888 2.888 0 10-4.176 3.992l3.09 3.234a2.908 2.908 0 002.078.893h.011c.771 0 1.523-.316 2.063-.867l5.837-5.953a2.888 2.888 0 00-.04-4.085zm-1.596 2.483l-5.837 5.953a.602.602 0 01-.86-.006l-3.09-3.233a.6.6 0 01.865-.828l1.846 1.932c.458.48 1.208.457 1.646.01l4.576-4.667a.598.598 0 11.854.839zm23.347-25.617H40.001a1.145 1.145 0 100 2.29h16.836a1.145 1.145 0 100-2.29zm0 13.894H40.001a1.145 1.145 0 100 2.29h16.836a1.145 1.145 0 100-2.29zm0 13.899H40.001a1.145 1.145 0 100 2.29h16.836a1.145 1.145 0 100-2.29z" fill="#fff" stroke="#fff" stroke-width=".3"/><path d="M67.854 46.466c-.632 0-1.145.512-1.145 1.145v26.183a3.005 3.005 0 01-3.001 3.001H16.29a3.005 3.005 0 01-3.001-3.001V14.728a3.005 3.005 0 013.001-3.002h9.701v.648a2.98 2.98 0 002.977 2.978h.431v2.04H18.097a2.176 2.176 0 00-2.174 2.174v52.632c0 1.198.975 2.173 2.174 2.173h19.23a1.145 1.145 0 100-2.29H18.214v-52.4h11.184v1.804a2.53 2.53 0 002.527 2.527h16.147a2.53 2.53 0 002.527-2.527v-1.803h11.184V72.08H42.672a1.145 1.145 0 100 2.29H61.9a2.176 2.176 0 002.173-2.174V19.565a2.176 2.176 0 00-2.173-2.173H50.6v-2.04h.429a2.98 2.98 0 002.978-2.978v-.648h9.7a3.005 3.005 0 013.002 3.001v27.54a1.145 1.145 0 002.29 0v-27.54a5.298 5.298 0 00-5.291-5.291h-9.701v-.694a2.98 2.98 0 00-2.977-2.978h-6.237V3.902A2.992 2.992 0 0041.805.914h-3.611a2.991 2.991 0 00-2.988 2.988v1.862H28.97a2.98 2.98 0 00-2.978 2.977v.694h-9.7A5.298 5.298 0 0011 14.727v59.066a5.298 5.298 0 005.292 5.292h47.416A5.298 5.298 0 0069 73.793V47.611c0-.633-.513-1.145-1.146-1.145zM48.31 21.486c0 .13-.106.236-.236.236H31.926a.237.237 0 01-.236-.237v-1.803h16.62v1.803h0zm0-4.094h0-16.62v-2.04h16.62v2.04h0zM37.496 3.902c0-.378.32-.698.697-.698h3.612c.378 0 .698.32.698.698v1.862h-5.007V3.902zm-9.214 4.84c0-.373.315-.688.687-.688h22.06c.373 0 .687.315.687.687v3.624c0 .377-.32.696-.697.696h-22.04a.707.707 0 01-.697-.697V8.74z" fill="#DFB48F" stroke="#DFB48F" stroke-width=".3"/></svg>