<svg width="80" height="80" fill="none" xmlns="http://www.w3.org/2000/svg"><g clip-path="url(#clip0_220_219)"><path d="M18.678 41.751h-3.361c-2.145 0-3.89-1.733-3.89-3.864a1.172 1.172 0 10-2.343 0c0 3.423 2.796 6.208 6.233 6.208h3.361a1.172 1.172 0 100-2.344zm11.012 8.671H19.68c-3.307 0-5.997 2.68-5.997 5.973a1.172 1.172 0 102.343 0c0-2.001 1.639-3.63 3.653-3.63h10.012a1.172 1.172 0 100-2.343zm9.549 0h-4.861a1.172 1.172 0 100 2.344h4.86a1.172 1.172 0 100-2.344zm-8.24-22.77c-.648 0-1.172.525-1.172 1.172 0 3.351-2.743 6.077-6.113 6.077a1.172 1.172 0 100 2.344c4.663 0 8.456-3.777 8.456-8.42 0-.648-.524-1.173-1.171-1.173zM28.838 9.936c-2.799-.18-5.226 1.943-5.408 4.733a1.172 1.172 0 102.34.152c.097-1.5 1.406-2.641 2.918-2.546a1.172 1.172 0 10.15-2.339zm-3.94 45.704a1.172 1.172 0 100 2.344c1.935 0 3.509 1.564 3.509 3.486 0 1.923-1.574 3.487-3.51 3.487a1.172 1.172 0 100 2.344c3.228 0 5.854-2.615 5.854-5.83s-2.626-5.83-5.854-5.83zM36.89 28.047a1.172 1.172 0 100 2.344c1.555 0 2.82 1.255 2.82 2.8 0 1.543-1.265 2.799-2.82 2.799a1.172 1.172 0 100 2.344c2.848 0 5.164-2.308 5.164-5.144 0-2.836-2.316-5.143-5.163-5.143zm-20.643-7.453a1.172 1.172 0 100 2.343c2.671 0 4.844 2.16 4.844 4.814 0 2.655-2.173 4.814-4.844 4.814a1.172 1.172 0 100 2.344c3.963 0 7.188-3.21 7.188-7.158 0-3.947-3.225-7.157-7.188-7.157zm55.091-.051c-2.203 0-3.995 1.786-3.995 3.98a3.993 3.993 0 003.995 3.982c2.202 0 3.994-1.786 3.994-3.981s-1.792-3.981-3.994-3.981zm0 5.618c-.91 0-1.651-.734-1.651-1.637s.74-1.637 1.65-1.637c.91 0 1.652.734 1.652 1.637s-.741 1.637-1.651 1.637zm3.916 24.374c-2.203 0-3.995 1.786-3.995 3.981s1.792 3.98 3.995 3.98c2.202 0 3.994-1.785 3.994-3.98 0-2.195-1.792-3.98-3.995-3.98zm0 5.618c-.91 0-1.651-.734-1.651-1.637s.74-1.637 1.65-1.637c.91 0 1.651.734 1.651 1.637s-.74 1.637-1.65 1.637zm-2.459-19.664c-.676 0-1.313.168-1.872.465l-2.284-2.273a1.172 1.172 0 00-1.653 1.661l2.278 2.268a3.945 3.945 0 00-.464 1.86c0 2.194 1.792 3.98 3.995 3.98 2.203 0 3.995-1.786 3.995-3.98 0-2.196-1.792-3.981-3.995-3.981zm0 5.618c-.91 0-1.65-.735-1.65-1.638 0-.902.74-1.637 1.65-1.637.91 0 1.651.735 1.651 1.637 0 .903-.74 1.638-1.65 1.638zm-2.641 20.659c-2.203 0-3.995 1.785-3.995 3.98a3.993 3.993 0 003.995 3.982c2.203 0 3.995-1.786 3.995-3.981 0-2.196-1.792-3.981-3.995-3.981zm0 5.618c-.91 0-1.651-.735-1.651-1.638 0-.902.74-1.637 1.65-1.637.911 0 1.652.735 1.652 1.637 0 .903-.74 1.638-1.651 1.638z" fill="#fff"/><path d="M56.442 22.023c.745 0 1.634-.367 2.162-.892l4.527-4.506c.455.18.95.28 1.468.28 2.203 0 3.995-1.786 3.995-3.98 0-2.196-1.792-3.981-3.995-3.981-2.202 0-3.994 1.785-3.994 3.98 0 .825.252 1.591.685 2.227l-4.34 4.319a1.108 1.108 0 01-.509.21H46.77v-7.757h2.72a4 4 0 003.818 2.809c2.203 0 3.995-1.786 3.995-3.981S55.511 6.77 53.308 6.77a4 4 0 00-3.818 2.809h-2.72V9.4c0-5.183-4.236-9.4-9.442-9.4a9.44 9.44 0 00-8.583 5.486 9.918 9.918 0 00-.7-.025c-5.41 0-9.827 4.32-9.952 9.677-.467-.066-.94-.1-1.414-.1-5.49 0-9.955 4.447-9.955 9.912 0 1.2.21 2.36.626 3.465A13.393 13.393 0 00.752 40c0 2.583.736 5.094 2.128 7.261a13.573 13.573 0 004.508 4.346 9.878 9.878 0 001.816 10.107 1.172 1.172 0 101.756-1.553 7.535 7.535 0 01-1.024-8.505 7.595 7.595 0 013.108-3.141 1.172 1.172 0 10-1.116-2.06 9.942 9.942 0 00-3.44 3.08A11.058 11.058 0 013.097 40c0-4.228 2.342-8.018 6.123-9.937 0 0 2.187-1.217 5.092-1.217a1.172 1.172 0 100-2.344 13.54 13.54 0 00-4.835.888 7.45 7.45 0 01-.408-2.44c0-4.173 3.414-7.568 7.611-7.568.789 0 1.57.12 2.32.359a1.171 1.171 0 001.514-1.284 7.646 7.646 0 01-.079-1.084c0-4.173 3.415-7.568 7.612-7.568.412 0 .833.035 1.252.104 3.603.596 6.36 3.715 6.36 7.464a1.172 1.172 0 102.343 0c0-4.391-2.884-8.122-6.864-9.42a7.1 7.1 0 016.191-3.61c3.914 0 7.098 3.166 7.098 7.057v.13h-2.254a1.172 1.172 0 100 2.344h2.254v7.805h-9.478c-2.145 0-3.89-1.734-3.89-3.864a1.172 1.172 0 10-2.343 0c0 3.423 2.796 6.208 6.233 6.208h9.478V41.75h-19.01a1.172 1.172 0 100 2.344h19.01v16.09h-3.622c-3.306 0-5.996 2.679-5.996 5.972a1.172 1.172 0 102.344 0c0-2 1.638-3.629 3.652-3.629h3.622V70.6c0 .184-.01.366-.024.546h-2.23a1.172 1.172 0 100 2.344H43.8a7.107 7.107 0 01-6.473 4.166 7.107 7.107 0 01-6.171-3.574 9.925 9.925 0 003.815-2.298 1.172 1.172 0 10-1.627-1.687 7.578 7.578 0 01-4.028 2.029 7.724 7.724 0 01-1.272.107c-4.197 0-7.611-3.395-7.611-7.568 0-.107.006-.218.011-.327a9.95 9.95 0 002.627-1.574 1.172 1.172 0 00.149-1.65c-.415-.497-1.142-.548-1.65-.149-2.352 1.847-4.627 1.819-5.537 1.743a1.172 1.172 0 00-.194 2.336c.75.062 1.513.04 2.255-.066.167 5.322 4.566 9.6 9.95 9.6.238 0 .477-.01.717-.027A9.448 9.448 0 0037.328 80c5.206 0 9.441-4.217 9.441-9.4v-2.59h6.213c.127.002.417.122.508.21L56.284 71a3.946 3.946 0 00-.596 2.09 3.992 3.992 0 003.994 3.981c2.203 0 3.995-1.785 3.995-3.98a3.993 3.993 0 00-5.622-3.635l-2.911-2.898c-.528-.525-1.417-.892-2.162-.892H46.77v-6.264h10.187a4 4 0 003.818 2.809c2.203 0 3.995-1.786 3.995-3.981s-1.792-3.98-3.995-3.98a4 4 0 00-3.818 2.808H46.769v-7.85H58.96a4 4 0 003.818 2.81 3.993 3.993 0 003.995-3.982c0-2.195-1.792-3.98-3.995-3.98a4 4 0 00-3.818 2.808H46.77v-8.53h2.902a4 4 0 003.818 2.81c2.203 0 3.995-1.786 3.995-3.981s-1.792-3.981-3.995-3.981a4 4 0 00-3.818 2.81H46.77v-6.764h12.768c.127.003.417.122.509.21l2.407 2.396a1.168 1.168 0 001.657-.004 1.17 1.17 0 00-.004-1.657L61.7 27.776c-.528-.525-1.417-.892-2.162-.892H46.77v-4.862h9.672zM64.6 11.287c.91 0 1.651.735 1.651 1.637 0 .903-.74 1.637-1.65 1.637a1.645 1.645 0 01-1.651-1.637c0-.902.74-1.637 1.65-1.637zM53.308 9.113c.91 0 1.651.734 1.651 1.637 0 .902-.74 1.637-1.651 1.637-.91 0-1.65-.735-1.65-1.637 0-.903.74-1.637 1.65-1.637zm6.374 62.34c.91 0 1.651.734 1.651 1.637s-.74 1.637-1.65 1.637c-.911 0-1.652-.734-1.652-1.637s.741-1.637 1.651-1.637zm1.093-14.86c.91 0 1.65.734 1.65 1.637s-.74 1.637-1.65 1.637c-.91 0-1.651-.734-1.651-1.637s.74-1.637 1.65-1.637zm2.003-10.194c.91 0 1.651.734 1.651 1.637s-.74 1.637-1.65 1.637c-.911 0-1.652-.734-1.652-1.637s.74-1.637 1.651-1.637zM53.49 35.526c.91 0 1.651.734 1.651 1.637s-.74 1.637-1.65 1.637c-.911 0-1.652-.734-1.652-1.637s.74-1.637 1.651-1.637z" fill="#DFB48F"/></g><defs><clipPath id="clip0_220_219"><path fill="#fff" d="M0 0h80v80H0z"/></clipPath></defs></svg>