<svg width="80" height="80" fill="none" xmlns="http://www.w3.org/2000/svg"><path d="M74.904 43.815l-11.154-4.65v-3.337a12.435 12.435 0 006-8.328H70a3.75 3.75 0 00.103-7.5l1.225-2.84A10.098 10.098 0 0066.24 3.97l-3.49-1.587a12.81 12.81 0 00-12.79 1.39l-1.945 1.468a7.824 7.824 0 00-4.75 3.539 7.75 7.75 0 00-.69 6.52 12.965 12.965 0 00-5.701.138A10.059 10.059 0 0031.24 3.972l-3.49-1.589a12.81 12.81 0 00-12.79 1.39l-1.945 1.468a7.788 7.788 0 00-5.037 11.027L9.845 20A3.75 3.75 0 1010 27.5h.25a12.453 12.453 0 006 8.326v3.34L5.096 43.815a6.233 6.233 0 00-3.846 5.768V66.25A1.25 1.25 0 002.5 67.5h8.75v10a1.25 1.25 0 001.25 1.25h55a1.25 1.25 0 001.25-1.25v-10h8.75a1.25 1.25 0 001.25-1.25V49.583a6.233 6.233 0 00-3.846-5.768zM44.216 18.408L47.705 20a7.597 7.597 0 013.826 9.923l-.375.857-1.281-2.59A1.25 1.25 0 0048 27.75l-2 1.5a10 10 0 01-12 0l-2-1.5a1.236 1.236 0 00-1.036-.217 1.252 1.252 0 00-.833.658l-1.381 2.772-1.032-2.063a5.286 5.286 0 014.725-7.65 5.839 5.839 0 014.866 2.603l.392.59 2.08-1.387-.392-.589a8.326 8.326 0 00-4.714-3.405 10.266 10.266 0 019.541-.654zM52.5 36.25h1.25a1.25 1.25 0 010 2.5H52.5v-2.5zM36.25 50.673a12.48 12.48 0 007.5 0v2.56L40 56.982l-3.75-3.75v-2.56zM40 48.75a10.012 10.012 0 01-10-10v-4.705l1.698-3.397.802.602a12.5 12.5 0 0015 0l.803-.602L50 34.045v4.705a10.012 10.012 0 01-10 10zm-12.5-10h-1.25a1.25 1.25 0 010-2.5h1.25v2.5zM11.25 63.8V65h-7.5V49.583a3.743 3.743 0 012.308-3.458l11.923-4.968A1.251 1.251 0 0018.75 40v-4.92a1.307 1.307 0 00-.724-1.134 9.96 9.96 0 01-5.465-7.834A1.25 1.25 0 0011.32 25H10a1.25 1.25 0 010-2.5h1.25a1.25 1.25 0 001.25-1.26l-.009-1.25a1.25 1.25 0 00-.131-.55l-2.146-4.29a5.285 5.285 0 013.61-7.525c.177-.04.343-.116.489-.224l2.15-1.625a10.272 10.272 0 0110.25-1.113l3.492 1.587a7.597 7.597 0 013.826 9.923l-.202.47a12.11 12.11 0 00-1.367.88L30.492 19a7.775 7.775 0 00-5.018 11.015l1.87 3.735H26.25a3.75 3.75 0 100 7.5h1.5a12.529 12.529 0 006 8.308V52.8l-17.922 4.978A6.268 6.268 0 0011.25 63.8zm55 12.45h-7.5v-10h-2.5v10h-32.5v-10h-2.5v10h-7.5V63.8a3.759 3.759 0 012.75-3.613l18.136-5.037 4.484 4.483a1.25 1.25 0 001.768 0l4.483-4.483L63.5 60.187a3.759 3.759 0 012.75 3.613v12.45zm10-11.25h-7.5v-1.2a6.267 6.267 0 00-4.578-6.022L46.25 52.8v-3.242a12.53 12.53 0 006-8.308h1.5a3.75 3.75 0 000-7.5h-1.148l1.226-2.84a10.098 10.098 0 00-5.088-13.188l-2.9-1.321-.625-1.25a5.285 5.285 0 013.609-7.526 1.28 1.28 0 00.489-.224l2.15-1.625a10.272 10.272 0 0110.25-1.113l3.492 1.587a7.597 7.597 0 013.826 9.923L67.594 19.5a1.25 1.25 0 00-.103.5l.009 1.25a1.25 1.25 0 001.25 1.25H70a1.25 1.25 0 010 2.5h-1.319a1.25 1.25 0 00-1.242 1.112 9.954 9.954 0 01-5.5 7.849 1.25 1.25 0 00-.694 1.119V40a1.25 1.25 0 00.769 1.153l11.928 4.972a3.742 3.742 0 012.308 3.458V65z" fill="#DFB48F"/><mask id="a" style="mask-type:alpha" maskUnits="userSpaceOnUse" x="1" y="1" width="78" height="78"><path d="M74.904 43.815l-11.154-4.65v-3.337a12.435 12.435 0 006-8.328H70a3.75 3.75 0 00.103-7.5l1.225-2.84A10.098 10.098 0 0066.24 3.97l-3.49-1.587a12.81 12.81 0 00-12.79 1.39l-1.945 1.468a7.824 7.824 0 00-4.75 3.539 7.75 7.75 0 00-.69 6.52 12.965 12.965 0 00-5.701.138A10.059 10.059 0 0031.24 3.972l-3.49-1.589a12.81 12.81 0 00-12.79 1.39l-1.945 1.468a7.788 7.788 0 00-5.037 11.027L9.845 20A3.75 3.75 0 1010 27.5h.25a12.453 12.453 0 006 8.326v3.34L5.096 43.815a6.233 6.233 0 00-3.846 5.768V66.25A1.25 1.25 0 002.5 67.5h8.75v10a1.25 1.25 0 001.25 1.25h55a1.25 1.25 0 001.25-1.25v-10h8.75a1.25 1.25 0 001.25-1.25V49.583a6.233 6.233 0 00-3.846-5.768zM44.216 18.408L47.705 20a7.597 7.597 0 013.826 9.923l-.375.857-1.281-2.59A1.25 1.25 0 0048 27.75l-2 1.5a10 10 0 01-12 0l-2-1.5a1.236 1.236 0 00-1.036-.217 1.252 1.252 0 00-.833.658l-1.381 2.772-1.032-2.063a5.286 5.286 0 014.725-7.65 5.839 5.839 0 014.866 2.603l.392.59 2.08-1.387-.392-.589a8.326 8.326 0 00-4.714-3.405 10.266 10.266 0 019.541-.654zM52.5 36.25h1.25a1.25 1.25 0 010 2.5H52.5v-2.5zM36.25 50.673a12.48 12.48 0 007.5 0v2.56L40 56.982l-3.75-3.75v-2.56zM40 48.75a10.012 10.012 0 01-10-10v-4.705l1.698-3.397.802.602a12.5 12.5 0 0015 0l.803-.602L50 34.045v4.705a10.012 10.012 0 01-10 10zm-12.5-10h-1.25a1.25 1.25 0 010-2.5h1.25v2.5zM11.25 63.8V65h-7.5V49.583a3.743 3.743 0 012.308-3.458l11.923-4.968A1.251 1.251 0 0018.75 40v-4.92a1.307 1.307 0 00-.724-1.134 9.96 9.96 0 01-5.465-7.834A1.25 1.25 0 0011.32 25H10a1.25 1.25 0 010-2.5h1.25a1.25 1.25 0 001.25-1.26l-.009-1.25a1.25 1.25 0 00-.131-.55l-2.146-4.29a5.285 5.285 0 013.61-7.525c.177-.04.343-.116.489-.224l2.15-1.625a10.272 10.272 0 0110.25-1.113l3.492 1.587a7.597 7.597 0 013.826 9.923l-.202.47a12.11 12.11 0 00-1.367.88L30.492 19a7.775 7.775 0 00-5.018 11.015l1.87 3.735H26.25a3.75 3.75 0 100 7.5h1.5a12.529 12.529 0 006 8.308V52.8l-17.922 4.978A6.268 6.268 0 0011.25 63.8zm55 12.45h-7.5v-10h-2.5v10h-32.5v-10h-2.5v10h-7.5V63.8a3.759 3.759 0 012.75-3.613l18.136-5.037 4.484 4.483a1.25 1.25 0 001.768 0l4.483-4.483L63.5 60.187a3.759 3.759 0 012.75 3.613v12.45zm10-11.25h-7.5v-1.2a6.267 6.267 0 00-4.578-6.022L46.25 52.8v-3.242a12.53 12.53 0 006-8.308h1.5a3.75 3.75 0 000-7.5h-1.148l1.226-2.84a10.098 10.098 0 00-5.088-13.188l-2.9-1.321-.625-1.25a5.285 5.285 0 013.609-7.526 1.28 1.28 0 00.489-.224l2.15-1.625a10.272 10.272 0 0110.25-1.113l3.492 1.587a7.597 7.597 0 013.826 9.923L67.594 19.5a1.25 1.25 0 00-.103.5l.009 1.25a1.25 1.25 0 001.25 1.25H70a1.25 1.25 0 010 2.5h-1.319a1.25 1.25 0 00-1.242 1.112 9.954 9.954 0 01-5.5 7.849 1.25 1.25 0 00-.694 1.119V40a1.25 1.25 0 00.769 1.153l11.928 4.972a3.742 3.742 0 012.308 3.458V65z" fill="#EB0E54"/></mask><g mask="url(#a)"><path d="M69 64v7.5h14V-2H-5c-4.8 0-2 48.333 0 72.5l16 1V61l8.5-9.5 2-29L30 18l9.5-3.5 7 2L56 21l3 22 10 12.5V64z" fill="#fff"/></g></svg>