<svg width="81" height="81" fill="none" xmlns="http://www.w3.org/2000/svg"><g clip-path="url(#clip0_1226_3320)"><path d="M58.185 57.244l-7.692 7.52-3.819-3.73a1.335 1.335 0 00-1.859 0 1.264 1.264 0 000 1.817l4.748 4.64c.257.25.593.376.93.376.337 0 .673-.126.93-.376l8.621-8.43a1.264 1.264 0 000-1.817 1.335 1.335 0 00-1.86 0z" fill="#fff"/><path d="M69.11 50.977c-1.767 0-3.087-.466-3.926-1.387-1.33-1.458-1.142-3.684-1.14-3.7a1.313 1.313 0 00-1.31-1.45h-6.806V2.184c0-.728-.59-1.317-1.316-1.317H15.889c-.026 0-.05.013-.076.016a1.265 1.265 0 00-.336.066c-.026.009-.055.006-.08.017-.02.008-.035.022-.054.032-.12.056-.231.129-.333.222-.015.015-.035.02-.051.034L9.302 6.92.81 15.412a1.3 1.3 0 00-.26.391c-.019.044-.03.086-.045.13a1.295 1.295 0 00-.063.325c-.003.037-.014.07-.012.108v56.686c0 .728.59 1.317 1.316 1.317H41.48c2.952 2.804 6.637 4.653 10.985 5.475a1.274 1.274 0 00.49 0c5.316-1.01 9.621-3.51 12.795-7.428 3.01-3.698 4.669-8.48 4.669-13.463l.012-6.66a1.317 1.317 0 00-1.316-1.32l-.003.004zM12.213 7.73l2.365-2.366v9.663H4.924L12.21 7.73l.002-.001zm-9.15 64.006V17.659h12.833c.726 0 1.316-.589 1.316-1.317V3.501h36.085V44.44H42.679c-.37 0-.723.159-.972.431-.199.218-.29.5-.313.79H11.077a1.316 1.316 0 100 2.634h29.92c-.172.45-.415.902-.777 1.298-.839.918-2.158 1.384-3.92 1.384-.727 0-1.316.588-1.316 1.317V54.8H11.076a1.316 1.316 0 100 2.633h23.908v1.522c.001.606.029 1.207.079 1.805.016.194.047.383.068.577.044.401.087.804.153 1.2.038.23.09.455.136.683.07.354.136.708.223 1.056.06.242.135.479.203.718.093.327.184.652.292.972.083.245.177.485.267.726.115.305.23.61.358.908.104.242.219.48.332.718.136.287.274.571.423.85.125.236.258.466.392.697.158.271.319.538.488.8.145.224.296.444.45.663.093.134.177.275.274.405l-36.062.002zm64.72-12.784c0 4.38-1.447 8.573-4.078 11.804-2.725 3.364-6.424 5.534-10.998 6.453-3.91-.784-7.2-2.494-9.781-5.088a16.981 16.981 0 01-1.228-1.365c-2.62-3.23-4.068-7.423-4.08-11.804v-5.416c1.92-.223 3.454-.958 4.57-2.19 1.251-1.386 1.656-3.087 1.778-4.273h17.482c.119 1.185.523 2.883 1.77 4.269 1.116 1.235 2.65 1.97 4.576 2.194l-.01 5.416z" fill="#DFB48F"/><path d="M10.752 30.867h34.355c.73 0 1.323-.447 1.323-1 0-.553-.593-1-1.323-1H10.752c-.73 0-1.322.447-1.322 1 0 .553.592 1 1.322 1zm0 11h34.355c.73 0 1.323-.894 1.323-2 0-1.106-.593-2-1.323-2H10.752c-.73 0-1.322.894-1.322 2 0 1.106.592 2 1.322 2z" fill="#fff"/><path d="M28.736 11.867h16.388c.72 0 1.306-.67 1.306-1.5s-.586-1.5-1.306-1.5H28.736c-.721 0-1.306.67-1.306 1.5s.585 1.5 1.306 1.5zm0 7h16.388c.72 0 1.306-.67 1.306-1.5s-.586-1.5-1.306-1.5H28.736c-.721 0-1.306.67-1.306 1.5s.585 1.5 1.306 1.5z" fill="#DFB48F"/></g><defs><clipPath id="clip0_1226_3320"><path fill="#fff" transform="translate(.43 .367)" d="M0 0h80v80H0z"/></clipPath></defs></svg>