<svg width="81" height="81" fill="none" xmlns="http://www.w3.org/2000/svg"><g clip-path="url(#clip0_1226_3330)" stroke="#9F0033" stroke-width=".8"><path d="M12.264 47.968h30.428a1.944 1.944 0 110 3.886H12.264a1.943 1.943 0 110-3.886z" fill="#fff"/><path d="M12.264 37.617h22.464a1.944 1.944 0 110 3.887H12.264a1.943 1.943 0 110-3.887z" fill="#DFB48F"/><path d="M12.264 27.266h20.555a1.944 1.944 0 110 3.886H12.264a1.943 1.943 0 110-3.886z" fill="#fff"/><path d="M12.264 16.915h24.361a1.943 1.943 0 010 3.887H12.264a1.943 1.943 0 110-3.887zm0 41.405h17.84a1.944 1.944 0 110 3.886h-17.84a1.943 1.943 0 110-3.887z" fill="#DFB48F"/><path d="M7.46.768h44.03c3.656 0 6.632 2.975 6.632 6.63v7.78l.344.05a15.857 15.857 0 018.556 4.073l.473.454c6.458 6.454 6.255 17.047-.633 23.231l-.313.283.298.298L79.46 56.181a1.942 1.942 0 11-2.748 2.748L63.424 45.642l-.198-.199-.254.12a15.975 15.975 0 01-4.507 1.344l-.343.05v11.72a6.59 6.59 0 01-1.942 4.69L41.522 78.025a6.585 6.585 0 01-4.689 1.942H7.461a6.64 6.64 0 01-6.63-6.631V7.398A6.64 6.64 0 017.46.768zm33.68 72.141l.682-.683 9.34-9.337.682-.683H41.14V72.91zm23.607-50.406a12.11 12.11 0 00-16.914-.219l-.224.219c-4.664 4.66-4.735 12.166-.218 16.914l.218.224c4.723 4.722 12.408 4.73 17.138 0 4.738-4.735 4.736-12.406 0-17.138zM54.234 46.956l-.343-.049a15.918 15.918 0 01-9.032-4.516c-6.255-6.256-6.254-16.381 0-22.636a15.867 15.867 0 019.032-4.527l.343-.05v-7.78a2.747 2.747 0 00-2.744-2.744H7.46a2.747 2.747 0 00-2.743 2.744v65.938A2.747 2.747 0 007.46 76.08h29.791V62.297a3.984 3.984 0 013.978-3.979h13.004V46.956z" fill="#DFB48F"/><path d="M58.577 27.32a1.944 1.944 0 012.603.096l.135.145c.689.824.58 2.05-.243 2.739l-5.405 4.525a1.945 1.945 0 01-2.86-.404l-1.885-2.797a1.944 1.944 0 013.224-2.173l.431.64.248.369.341-.285 3.411-2.856z" fill="#fff"/></g><defs><clipPath id="clip0_1226_3330"><path fill="#fff" transform="translate(.43 .367)" d="M0 0h80v80H0z"/></clipPath></defs></svg>