<svg width="81" height="81" fill="none" xmlns="http://www.w3.org/2000/svg"><g clip-path="url(#clip0_1226_160)"><path d="M5.232 43.23a4.801 4.801 0 004.796 4.796 4.801 4.801 0 004.682-5.83l6.89-3.45a4.785 4.785 0 003.63 1.666c3.72 0 6.024-4.074 4.113-7.257l8.633-8.648a4.785 4.785 0 006.084-.989l6.89 3.451c-.664 3.01 1.64 5.83 4.682 5.83 4.147 0 6.34-4.942 3.55-8.015l10.05-15.101c3.125 1.11 6.397-1.227 6.397-4.52A4.801 4.801 0 0070.833.367a4.801 4.801 0 00-4.795 4.796c0 1.238.472 2.368 1.245 3.22l-10.05 15.1a4.784 4.784 0 00-5.23 1.392l-6.89-3.45a4.801 4.801 0 00-4.682-5.83c-3.719 0-6.026 4.073-4.114 7.257l-8.633 8.647c-3.574-2.139-8.046 1.035-7.136 5.152l-6.89 3.45c-2.89-3.346-8.426-1.31-8.426 3.13zM70.833 2.71c1.352 0 2.452 1.1 2.452 2.453 0 1.352-1.1 2.451-2.452 2.451a2.454 2.454 0 01-2.451-2.451c0-1.352 1.1-2.452 2.451-2.452zM55.632 25.553c1.352 0 2.452 1.1 2.452 2.451 0 1.352-1.1 2.452-2.452 2.452a2.455 2.455 0 01-2.452-2.452c0-1.351 1.1-2.451 2.452-2.451zm-15.201-7.614c1.351 0 2.451 1.1 2.451 2.452 0 1.352-1.1 2.452-2.451 2.452a2.455 2.455 0 01-2.452-2.452c0-1.352 1.1-2.452 2.452-2.452zM25.229 33.165c1.352 0 2.452 1.1 2.452 2.452 0 1.352-1.1 2.452-2.452 2.452a2.455 2.455 0 01-2.452-2.452c0-1.352 1.1-2.452 2.452-2.452zM10.028 45.682a2.454 2.454 0 01-2.452-2.451c0-1.352 1.1-2.452 2.452-2.452 1.352 0 2.452 1.1 2.452 2.452 0 1.352-1.1 2.451-2.452 2.451z" fill="#fff"/><path d="M78.353 78.024h-1.45V52.272a1.172 1.172 0 10-2.344 0v25.752h-7.454V19.64h7.454v27.163a1.172 1.172 0 102.344 0V19.449a2.154 2.154 0 00-2.152-2.152h-7.838a2.154 2.154 0 00-2.152 2.152v58.575h-3.059V42.396a2.154 2.154 0 00-2.152-2.151h-1.184a1.172 1.172 0 100 2.343h.992v35.436h-7.454V42.588h.993a1.172 1.172 0 100-2.343h-1.185a2.154 2.154 0 00-2.152 2.151v35.628H46.5V34.716a2.154 2.154 0 00-2.151-2.151h-7.838a2.154 2.154 0 00-2.152 2.151v43.308H31.3V50.01a2.154 2.154 0 00-2.151-2.152H21.31a2.154 2.154 0 00-2.152 2.152v28.014h-3.06v-20.4a2.154 2.154 0 00-2.151-2.152h-7.84a2.154 2.154 0 00-2.151 2.151v20.4h-1.45a1.172 1.172 0 100 2.344h75.847a1.172 1.172 0 100-2.343zm-72.053 0V57.815h7.454v20.209H6.3zm15.201 0V50.202h7.454v27.822h-7.454zm15.201 0V34.908h7.455v43.116h-7.455z" fill="#DFB48F"/></g><defs><clipPath id="clip0_1226_160"><path fill="#fff" transform="translate(.43 .367)" d="M0 0h80v80H0z"/></clipPath></defs></svg>