<svg width="60" height="60" fill="none" xmlns="http://www.w3.org/2000/svg"><g clip-path="url(#clip0_3151_4820)"><path d="M16.934 24.34c.255 0 .507.105.687.285.18.18.284.432.284.688a.98.98 0 01-.284.686.982.982 0 01-.687.285.982.982 0 01-.688-.285.98.98 0 01-.284-.686c0-.256.104-.508.284-.688a.98.98 0 01.688-.284z" fill="#EB0E54" stroke="#fff" stroke-width=".4"/><mask id="a" fill="#fff"><path d="M56.484 0H9.844a3.52 3.52 0 00-3.516 3.516v19.453a3.52 3.52 0 003.515 3.515h2.11a1.172 1.172 0 000-2.344h-2.11a1.173 1.173 0 01-1.172-1.171V3.516c0-.647.526-1.172 1.172-1.172h46.64c.647 0 1.173.525 1.173 1.172v19.453c0 .646-.526 1.171-1.172 1.171h-7.839c-.31 0-.608.124-.828.344l-3.859 3.859-3.859-3.86a1.172 1.172 0 00-.828-.343h-9.14a6.882 6.882 0 00-.293-.653 6.668 6.668 0 00-4.021-3.355l-1.695-.515a1.172 1.172 0 00-1.443.722l-2.662 7.358a8.867 8.867 0 01-4.1 4.774l-2.5 1.361a3.34 3.34 0 00-2.583-1.221H3.346A3.35 3.35 0 000 35.957v20.697A3.35 3.35 0 003.346 60h7.488c1.167 0 2.195-.6 2.794-1.508l1.196.469A14.997 14.997 0 0020.32 60h15.81a4.307 4.307 0 004.303-4.303c0-.785-.213-1.521-.582-2.155a4.31 4.31 0 003.016-4.106 4.27 4.27 0 00-.61-2.204 4.31 4.31 0 002.872-4.057 4.31 4.31 0 00-3.083-4.126c.362-.63.57-1.359.57-2.136a4.307 4.307 0 00-4.302-4.302h-9.397l1.314-3.902c.245-.73.362-1.48.354-2.225h8.2l4.343 4.345a1.169 1.169 0 001.658 0l4.344-4.345h7.353a3.52 3.52 0 003.515-3.515V3.516A3.52 3.52 0 0056.484 0zM11.836 56.654c0 .552-.45 1.002-1.002 1.002H3.346c-.553 0-1.002-.45-1.002-1.002V35.957c0-.553.45-1.003 1.002-1.003h2.572v14.428a1.172 1.172 0 002.344 0V34.954h2.572c.438 0 .81.283.946.675.01.056.024.113.042.168a.934.934 0 01.014.16v20.697zm26.479-21.7a1.96 1.96 0 011.958 1.96 1.96 1.96 0 01-1.958 1.958h-6.358a1.172 1.172 0 000 2.344h8.87a1.96 1.96 0 011.96 1.959c0 1.08-.88 1.959-1.96 1.959h-8.87a1.172 1.172 0 000 2.343h6.608c1.08 0 1.959.88 1.959 1.96s-.879 1.958-1.959 1.958h-6.608a1.172 1.172 0 000 2.344h4.175a1.96 1.96 0 011.958 1.959 1.96 1.96 0 01-1.959 1.958H20.32c-1.595 0-3.156-.295-4.64-.877l-1.5-.588V36.086l2.857-1.556a11.207 11.207 0 005.184-6.035l2.284-6.312.63.191a4.343 4.343 0 012.62 2.185 4.343 4.343 0 01.256 3.402l-1.835 5.447a1.172 1.172 0 001.11 1.546h11.029z"/></mask><path d="M56.484 0H9.844a3.52 3.52 0 00-3.516 3.516v19.453a3.52 3.52 0 003.515 3.515h2.11a1.172 1.172 0 000-2.344h-2.11a1.173 1.173 0 01-1.172-1.171V3.516c0-.647.526-1.172 1.172-1.172h46.64c.647 0 1.173.525 1.173 1.172v19.453c0 .646-.526 1.171-1.172 1.171h-7.839c-.31 0-.608.124-.828.344l-3.859 3.859-3.859-3.86a1.172 1.172 0 00-.828-.343h-9.14a6.882 6.882 0 00-.293-.653 6.668 6.668 0 00-4.021-3.355l-1.695-.515a1.172 1.172 0 00-1.443.722l-2.662 7.358a8.867 8.867 0 01-4.1 4.774l-2.5 1.361a3.34 3.34 0 00-2.583-1.221H3.346A3.35 3.35 0 000 35.957v20.697A3.35 3.35 0 003.346 60h7.488c1.167 0 2.195-.6 2.794-1.508l1.196.469A14.997 14.997 0 0020.32 60h15.81a4.307 4.307 0 004.303-4.303c0-.785-.213-1.521-.582-2.155a4.31 4.31 0 003.016-4.106 4.27 4.27 0 00-.61-2.204 4.31 4.31 0 002.872-4.057 4.31 4.31 0 00-3.083-4.126c.362-.63.57-1.359.57-2.136a4.307 4.307 0 00-4.302-4.302h-9.397l1.314-3.902c.245-.73.362-1.48.354-2.225h8.2l4.343 4.345a1.169 1.169 0 001.658 0l4.344-4.345h7.353a3.52 3.52 0 003.515-3.515V3.516A3.52 3.52 0 0056.484 0zM11.836 56.654c0 .552-.45 1.002-1.002 1.002H3.346c-.553 0-1.002-.45-1.002-1.002V35.957c0-.553.45-1.003 1.002-1.003h2.572v14.428a1.172 1.172 0 002.344 0V34.954h2.572c.438 0 .81.283.946.675.01.056.024.113.042.168a.934.934 0 01.014.16v20.697zm26.479-21.7v0a1.96 1.96 0 011.958 1.96 1.96 1.96 0 01-1.958 1.958h-6.358a1.172 1.172 0 000 2.344h8.87a1.96 1.96 0 011.96 1.959c0 1.08-.88 1.959-1.96 1.959h-8.87a1.172 1.172 0 000 2.343h6.608c1.08 0 1.959.88 1.959 1.96s-.879 1.958-1.959 1.958h-6.608a1.172 1.172 0 000 2.344h4.175a1.96 1.96 0 011.958 1.959 1.96 1.96 0 01-1.959 1.958H20.32c-1.595 0-3.156-.295-4.64-.877l-1.5-.588V36.086l2.857-1.556a11.207 11.207 0 005.184-6.035l2.284-6.312.63.191a4.343 4.343 0 012.62 2.185 4.343 4.343 0 01.256 3.402l-1.835 5.447a1.172 1.172 0 001.11 1.546h11.029z" fill="#EB0E54" stroke="#fff" stroke-width=".8" mask="url(#a)"/><path d="M48.441 7.07h.001a1.66 1.66 0 011.5.931l.926 1.878.047.094.105.015 2.072.301a1.66 1.66 0 011.35 1.137c.199.61.036 1.266-.422 1.715l-1.5 1.461-.075.074.018.104.354 2.064a1.661 1.661 0 01-.665 1.636 1.66 1.66 0 01-1.76.127l-1.854-.974-.094-.049-.092.05-1.854.974a1.667 1.667 0 01-1.762-.127 1.66 1.66 0 01-.665-1.634l.354-2.065.017-.103-.075-.074-1.5-1.461a1.66 1.66 0 01-.424-1.714 1.661 1.661 0 011.35-1.139l2.072-.302.105-.014.046-.095.926-1.878a1.66 1.66 0 011.5-.933zm-.178 2.649l-.614 1.243a1.672 1.672 0 01-1.258.915l-1.372.2-.402.058.29.283.993.968c.395.384.575.938.482 1.48l-.234 1.366-.068.4.358-.189 1.228-.645a1.672 1.672 0 011.556-.001l1.227.645.359.189-.069-.4-.234-1.367a1.67 1.67 0 01.48-1.48l.992-.968.29-.283-.4-.058-1.373-.199a1.672 1.672 0 01-1.259-.914l-.614-1.243-.179-.364-.18.364zM33.531 7.07h.001a1.66 1.66 0 011.5.931l.926 1.878.047.094.104.015 2.073.301a1.66 1.66 0 011.35 1.137 1.66 1.66 0 01-.423 1.715l-1.499 1.461-.076.074.019.104.354 2.064a1.66 1.66 0 01-.665 1.636 1.659 1.659 0 01-1.653.18l-.108-.053-1.854-.974-.093-.049-.093.05-1.854.974a1.668 1.668 0 01-1.76-.127 1.66 1.66 0 01-.666-1.634l.354-2.065.017-.103-.075-.074-1.5-1.461a1.66 1.66 0 01-.424-1.714 1.661 1.661 0 011.35-1.139l2.072-.302.105-.014.046-.095.926-1.878a1.66 1.66 0 011.5-.933zm-.178 2.649l-.614 1.243a1.673 1.673 0 01-1.258.915l-1.374.2-.4.058.29.283.993.968c.395.384.575.938.482 1.48l-.235 1.366-.068.4.36-.189 1.226-.645a1.673 1.673 0 011.556-.001l1.228.645.358.189-.068-.4-.234-1.367a1.671 1.671 0 01.48-1.48l.992-.968.29-.283-.4-.058-1.373-.199a1.672 1.672 0 01-1.259-.914l-.614-1.244-.18-.364-.178.365zM18.625 7.07h.001a1.66 1.66 0 011.499.93l.928 1.878.046.094.104.015 2.072.301a1.66 1.66 0 011.351 1.137c.198.61.037 1.267-.423 1.715l-1.5 1.461-.075.074.018.104.355 2.064a1.661 1.661 0 01-.665 1.636 1.66 1.66 0 01-1.653.18l-.108-.053-1.854-.974-.093-.049-.093.05-1.854.974a1.66 1.66 0 01-1.761-.127 1.66 1.66 0 01-.665-1.634l.353-2.065.018-.103-.075-.074-1.5-1.461a1.66 1.66 0 01-.424-1.714 1.661 1.661 0 011.35-1.139l2.072-.302.104-.014.046-.095.927-1.878a1.66 1.66 0 011.499-.933zm-.179 2.649l-.613 1.243a1.672 1.672 0 01-1.259.915l-1.372.2-.401.058.29.283.993.968c.394.384.574.937.481 1.48l-.233 1.366-.068.4.358-.189 1.228-.645a1.672 1.672 0 011.555-.001l1.228.645.36.189-.07-.4-.234-1.367a1.671 1.671 0 01.48-1.48l.992-.968.29-.283-.4-.058-1.373-.199a1.672 1.672 0 01-1.26-.914l-.613-1.244-.18-.364-.179.365z" fill="#24272E" stroke="#fff" stroke-width=".4"/><path d="M7.09 52.625c.537 0 .972.435.972.972v.018a.972.972 0 01-1.944 0v-.018c0-.537.435-.972.972-.972z" fill="#EB0E54" stroke="#fff" stroke-width=".4"/></g><defs><clipPath id="clip0_3151_4820"><path fill="#fff" d="M0 0h60v60H0z"/></clipPath></defs></svg>