<svg width="60" height="60" fill="none" xmlns="http://www.w3.org/2000/svg"><g clip-path="url(#clip0_3151_4841)"><path d="M55.605 3.654h-9.282A4.4 4.4 0 0041.993 0H18.006a4.4 4.4 0 00-4.33 3.654H4.395A4.4 4.4 0 000 8.048v35.114a4.4 4.4 0 004.395 4.395h19.543v4.291h-.076a5.147 5.147 0 00-5.142 5.142v1.563c0 .798.65 1.447 1.447 1.447h19.666a1.45 1.45 0 001.447-1.447V56.99a5.147 5.147 0 00-5.142-5.142h-.076v-4.291h10.434a.879.879 0 100-1.758H4.395a2.64 2.64 0 01-2.637-2.636V8.047a2.64 2.64 0 012.637-2.636h9.218V7.17h-8.75a1.35 1.35 0 00-1.347 1.347v34.177a1.35 1.35 0 001.347 1.347h50.274a1.35 1.35 0 001.347-1.347V8.517a1.35 1.35 0 00-1.347-1.347h-8.75V5.412h9.218a2.64 2.64 0 012.637 2.636v35.114a2.64 2.64 0 01-2.636 2.637h-5.008a.879.879 0 100 1.758h5.008A4.4 4.4 0 0060 43.162V8.049a4.4 4.4 0 00-4.395-4.394zm-29.91 43.903h8.61v4.291h-8.61v-4.291zm-.878 6.05l.004-.001h11.317a3.388 3.388 0 013.384 3.384v1.252H20.478V56.99a3.388 3.388 0 013.384-3.384h.955zm19.812-11.324H15.371V16.25a.879.879 0 10-1.758 0v26.034h-8.34V8.927h8.34v3.222a.879.879 0 101.758 0V4.395a2.64 2.64 0 012.636-2.637h23.985a2.64 2.64 0 012.637 2.637v37.888zM54.727 8.927v33.357h-8.34V8.927h8.34zM30 5.273c-6.203 0-11.25 5.047-11.25 11.25 0 6.204 5.047 11.25 11.25 11.25s11.25-5.046 11.25-11.25c0-6.203-5.047-11.25-11.25-11.25zm0 20.743c-5.234 0-9.492-4.259-9.492-9.493 0-5.233 4.258-9.492 9.492-9.492 5.234 0 9.492 4.259 9.492 9.492 0 5.234-4.258 9.493-9.492 9.493z" fill="#EB0E54"/><path d="M39.869 37.217h-20.24a.879.879 0 100 1.757h20.24a.879.879 0 100-1.757zm0-5.274h-20.24a.879.879 0 100 1.758h20.24a.879.879 0 100-1.758zm-4.215-20.016c-1.042-.948-2.655-.894-3.672.123l-4.004 4.003-.497-.496c-1.011-1.022-2.715-1.015-3.729 0a2.64 2.64 0 000 3.728l1.947 1.948a3.201 3.201 0 002.279.942 3.2 3.2 0 002.279-.943l5.489-5.489c1.053-1.044.996-2.825-.092-3.816zM34.503 14.5l-5.49 5.49a1.455 1.455 0 01-1.035.427c-.392 0-.76-.152-1.036-.427l-1.947-1.947a.88.88 0 010-1.243.887.887 0 011.243 0l.87.87c.232.232.541.36.87.36.328 0 .637-.128.87-.36l4.377-4.377c.346-.347.905-.376 1.246-.066a.887.887 0 01.032 1.273z" fill="#24272E"/></g><defs><clipPath id="clip0_3151_4841"><path fill="#fff" d="M0 0h60v60H0z"/></clipPath></defs></svg>