<svg width="60" height="60" fill="none" xmlns="http://www.w3.org/2000/svg"><g clip-path="url(#clip0_3151_4848)"><path d="M16.033 24.426a1.091 1.091 0 00.31.76 1.055 1.055 0 00.746.314h6.177a1.04 1.04 0 00.747-.314 1.078 1.078 0 00.309-.76v-5.307a5.963 5.963 0 003.534-2.087 6.154 6.154 0 001.394-3.908 6.155 6.155 0 00-1.395-3.907 5.963 5.963 0 00-3.533-2.087V1.824a1.09 1.09 0 00-.31-.76 1.055 1.055 0 00-.746-.314H4.646a4.61 4.61 0 00-3.284 1.386A4.774 4.774 0 000 5.476v18.95a1.09 1.09 0 00.31.76 1.054 1.054 0 00.746.314h6.177a1.04 1.04 0 00.746-.314 1.076 1.076 0 00.31-.76 3.975 3.975 0 011.149-2.759 3.838 3.838 0 012.723-1.139c1.02 0 1.998.41 2.723 1.14a3.975 3.975 0 011.15 2.758zm-9.762-1.074H2.11V5.476a2.605 2.605 0 01.743-1.822 2.515 2.515 0 011.791-.756H22.21V8.11a1.09 1.09 0 00.309.76 1.055 1.055 0 00.746.314 3.84 3.84 0 012.71 1.17 3.976 3.976 0 011.12 2.77 3.976 3.976 0 01-1.12 2.771 3.84 3.84 0 01-2.71 1.17 1.039 1.039 0 00-.746.314 1.078 1.078 0 00-.31.76v5.213H18.05a6.12 6.12 0 00-2.063-3.569 5.93 5.93 0 00-3.827-1.405 5.93 5.93 0 00-3.827 1.405 6.12 6.12 0 00-2.063 3.569z" fill="#24272E"/><path d="M55.283 12.75H36.375a1.06 1.06 0 00-.758.318 1.088 1.088 0 00-.313.77v6.364a1.099 1.099 0 00.313.77 1.07 1.07 0 00.758.318 3.904 3.904 0 012.752 1.184 4.02 4.02 0 011.137 2.805 4.02 4.02 0 01-1.137 2.806 3.904 3.904 0 01-2.752 1.184 1.059 1.059 0 00-.758.318 1.087 1.087 0 00-.313.77v4.583h-4.225a6.185 6.185 0 00-2.082-3.64 6.023 6.023 0 00-3.898-1.436 6.023 6.023 0 00-3.9 1.436 6.185 6.185 0 00-2.081 3.64h-5.296a1.055 1.055 0 00-.758.319 1.09 1.09 0 00-.314.769v19.187a4.827 4.827 0 001.383 3.382A4.688 4.688 0 0017.467 60h37.816a4.688 4.688 0 003.334-1.403A4.827 4.827 0 0060 55.214V17.537a4.827 4.827 0 00-1.383-3.383 4.688 4.688 0 00-3.334-1.403zM42.451 25.28a6.23 6.23 0 00-1.418-3.955 6.067 6.067 0 00-3.586-2.115v-4.285h17.836c.682 0 1.336.276 1.819.765.482.49.754 1.153.754 1.845V34.94h-5.2a1.055 1.055 0 00-.758.319 1.088 1.088 0 00-.314.769 4.02 4.02 0 01-1.167 2.792 3.903 3.903 0 01-2.765 1.153 3.903 3.903 0 01-2.765-1.153 4.019 4.019 0 01-1.167-2.792 1.103 1.103 0 00-.314-.77 1.07 1.07 0 00-.758-.318h-5.201v-3.592a6.068 6.068 0 003.586-2.114 6.23 6.23 0 001.418-3.954zM14.894 55.214V37.115h5.2a1.055 1.055 0 00.759-.318 1.09 1.09 0 00.314-.77 4.02 4.02 0 011.154-2.816 3.903 3.903 0 012.777-1.166c1.042 0 2.041.42 2.778 1.166a4.02 4.02 0 011.154 2.817 1.099 1.099 0 00.314.769 1.07 1.07 0 00.758.318h5.201v4.287a6.059 6.059 0 00-3.588 2.112 6.221 6.221 0 00-1.416 3.957c0 1.446.502 2.847 1.416 3.956a6.059 6.059 0 003.588 2.113v4.285H17.467a2.557 2.557 0 01-1.819-.766 2.633 2.633 0 01-.754-1.844zm40.39 2.611H37.446v-5.277a1.098 1.098 0 00-.314-.77 1.07 1.07 0 00-.758-.318 3.903 3.903 0 01-2.78-1.168 4.019 4.019 0 01-1.151-2.821 4.02 4.02 0 011.151-2.821 3.903 3.903 0 012.78-1.169 1.06 1.06 0 00.758-.318 1.089 1.089 0 00.314-.77V37.81h4.224a6.185 6.185 0 002.082 3.64 6.024 6.024 0 003.899 1.437 6.023 6.023 0 003.899-1.437 6.185 6.185 0 002.082-3.64h4.223v17.406c0 .692-.272 1.355-.754 1.844a2.558 2.558 0 01-1.819.766z" fill="#EB0E54"/></g><defs><clipPath id="clip0_3151_4848"><path fill="#fff" d="M0 0h60v60H0z"/></clipPath></defs></svg>