<svg width="39" height="39" fill="none" xmlns="http://www.w3.org/2000/svg"><g clip-path="url(#clip0_3151_4131)" fill="#fff"><path d="M13.22 20.25a2.024 2.024 0 00-1.861-1.198h-1.191c.235-4.944 4.33-8.894 9.332-8.894 2.387 0 4.66.904 6.402 2.545l.873.823 4.769-5.58-.815-.745A16.595 16.595 0 0019.5 2.846 16.545 16.545 0 007.723 7.724a16.538 16.538 0 00-4.872 11.328H2.05c-.812 0-1.525.46-1.862 1.199a2.024 2.024 0 00.32 2.19l6.197 7.109 6.196-7.108a2.024 2.024 0 00.32-2.191zm-6.516 5.823l-4.129-4.736h2.622l-.052-1.192A14.276 14.276 0 019.34 9.34 14.276 14.276 0 0119.5 5.13c3.228 0 6.329 1.074 8.844 3.043l-1.787 2.091A11.566 11.566 0 0019.5 7.873c-6.412 0-11.628 5.216-11.628 11.627 0 .248.009.506.026.77l.07 1.067h2.864l-4.128 4.736zm31.785-8.083l-6.197-7.108-6.196 7.108a2.024 2.024 0 00-.32 2.19 2.024 2.024 0 001.861 1.2h1.011c-.876 4.271-4.683 7.463-9.152 7.463a9.242 9.242 0 01-5.717-1.96l-.861-.667-4.746 5.552.918.737c2.974 2.388 6.572 3.65 10.406 3.65 4.449 0 8.631-1.732 11.777-4.878a16.6 16.6 0 004.773-9.898h.901c.812 0 1.525-.459 1.862-1.198a2.024 2.024 0 00-.32-2.191zM33.9 19.094l-.05 1.09a14.318 14.318 0 01-4.193 9.477 14.276 14.276 0 01-10.16 4.21c-2.91 0-5.662-.842-8.026-2.446l1.8-2.106a11.49 11.49 0 006.225 1.81c6.081 0 11.176-4.75 11.599-10.813l.085-1.222h-3.016l4.128-4.735 4.129 4.735H33.9z"/></g><defs><clipPath id="clip0_3151_4131"><path fill="#fff" d="M0 0h39v39H0z"/></clipPath></defs></svg>