<svg width="39" height="39" fill="none" xmlns="http://www.w3.org/2000/svg"><path d="M36.21 10.104L28.896 2.79a1.22 1.22 0 00-.866-.353H13.406A3.656 3.656 0 009.75 6.094V8.53a1.219 1.219 0 102.438 0V6.094a1.219 1.219 0 011.218-1.219h13.406v3.656a3.656 3.656 0 003.657 3.656h3.656v20.72a1.219 1.219 0 01-1.219 1.218H18.281a1.218 1.218 0 100 2.438h14.625a3.656 3.656 0 003.657-3.657V10.97a1.218 1.218 0 00-.354-.865zM29.25 8.53V6.593l3.157 3.157h-1.938a1.218 1.218 0 01-1.219-1.219z" fill="#fff"/><path d="M17.063 19.5a7.313 7.313 0 10-12.188 5.436v10.408a1.219 1.219 0 00.756 1.121 1.218 1.218 0 001.328-.256l2.791-2.803 2.79 2.803a1.22 1.22 0 00.866.354c.16.004.319-.03.463-.098a1.219 1.219 0 00.756-1.121V24.936a7.312 7.312 0 002.438-5.436zm-4.875 12.907l-1.573-1.585a1.22 1.22 0 00-1.73 0l-1.573 1.585v-6.02a7.18 7.18 0 004.875 0v6.02zM9.75 24.375a4.875 4.875 0 110-9.75 4.875 4.875 0 010 9.75zM23.156 9.75h-6.093a1.219 1.219 0 000 2.438h6.093a1.218 1.218 0 100-2.438zm7.313 6.094h-9.75a1.219 1.219 0 100 2.437h9.75a1.219 1.219 0 100-2.437zm0 6.094h-9.75a1.218 1.218 0 100 2.437h9.75a1.218 1.218 0 100-2.438zm0 6.093H18.28a1.219 1.219 0 000 2.438h12.19a1.219 1.219 0 000-2.438z" fill="#fff"/></svg>