<svg width="36" height="36" fill="none" xmlns="http://www.w3.org/2000/svg"><g clip-path="url(#clip0_3151_4142)"><path d="M18 0C8.052 0 0 8.05 0 18c0 9.948 8.05 18 18 18 9.948 0 18-8.05 18-18 0-9.948-8.05-18-18-18zm1.406 33.123v-1.295a1.406 1.406 0 10-2.812 0v1.295C9.326 32.46 3.54 26.673 2.877 19.406h1.295a1.406 1.406 0 100-2.812H2.877C3.54 9.326 9.327 3.54 16.594 2.877v1.295a1.406 1.406 0 102.812 0V2.877c7.268.663 13.054 6.45 13.717 13.717h-1.295a1.406 1.406 0 100 2.812h1.295c-.663 7.268-6.45 13.054-13.717 13.717zm5.12-10.586a1.406 1.406 0 01-1.99 1.989l-5.53-5.532a1.406 1.406 0 01-.412-.994V9.703a1.406 1.406 0 112.812 0v7.715l5.12 5.119z" fill="#fff"/></g><defs><clipPath id="clip0_3151_4142"><path fill="#fff" d="M0 0h36v36H0z"/></clipPath></defs></svg>