<svg width="467" height="31" fill="none" xmlns="http://www.w3.org/2000/svg"><g clip-path="url(#clip0_220_356)" fill="#EB0E54"><path d="M-32 0h30.414L10 31h-30.414L-32 0zm54 0h30.414L64 31H33.586L22 0zm54 0h31.138L119 31H87.862L76 0zm54 0h31.138L173 31h-31.138L130 0zm55 0h30.414L227 31h-30.414L185 0zm54 0h30.414L281 31h-30.414L239 0zm54 0h30.414L335 31h-30.414L293 0zm54 0h30.414L389 31h-30.414L347 0zm54 0h30.414L443 31h-30.414L401 0zm54 0h30.414L497 31h-30.414L455 0z"/></g><defs><clipPath id="clip0_220_356"><path d="M0 12C0 5.373 5.373 0 12 0h443c6.627 0 12 5.373 12 12v19H0V12z" fill="#fff"/></clipPath></defs></svg>