<svg width="180" height="42" fill="none" xmlns="http://www.w3.org/2000/svg"><path d="M177.545 22.822l-10.666-10.57-3.018 3.12 7.446 7.45-7.446 7.55 3.018 3.122 10.666-10.672z" fill="#DC6655"/><path d="M8.012 33.191c-2.113 0-3.924-.402-5.03-1.308-1.812-1.31-2.516-3.02-2.516-5.638V6.715h4.527v6.04h6.54v4.43h-6.54v8.255c0 1.61.302 2.416 1.107 2.92.503.301 1.409.503 2.817.503.906 0 2.617-.101 2.617-.101v4.127s-1.61.302-3.522.302zm123.756-4.127c-2.012 2.92-4.93 4.43-8.854 4.43-3.219 0-5.936-1.007-7.949-3.02-2.012-2.014-3.018-4.53-3.018-7.551 0-3.02 1.006-5.537 3.018-7.55 2.013-2.014 4.529-3.02 7.647-3.02 2.918 0 5.333 1.006 7.244 3.12 1.912 2.014 2.817 4.631 2.817 7.55 0 1.108-.201 1.913-.201 1.913h-15.695c.301 1.41 1.006 2.416 2.113 3.222 1.106.805 2.515 1.208 4.125 1.208 2.214 0 3.924-.805 5.031-2.416l3.722 2.114zm-14.991-8.054h11.269c-.303-1.51-.907-2.617-1.912-3.423-1.006-.805-2.214-1.208-3.622-1.208-1.509 0-2.817.403-3.824 1.309-.905.906-1.61 2.014-1.911 3.322zm-37.63 8.054c-2.013 2.92-4.93 4.43-8.855 4.43-3.22 0-5.936-1.007-7.948-3.02-2.012-2.014-3.019-4.53-3.019-7.551 0-3.02 1.007-5.537 3.019-7.55 2.012-2.014 4.528-3.02 7.647-3.02 2.918 0 5.332 1.006 7.244 3.12 1.912 2.014 2.817 4.631 2.817 7.55a8.709 8.709 0 01-.201 1.913H64.155c.302 1.41 1.006 2.416 2.113 3.222 1.107.805 2.515 1.208 4.125 1.208 2.214 0 3.924-.805 5.03-2.416l3.724 2.114zM64.155 21.01h11.269c-.302-1.51-.906-2.617-1.912-3.423-1.006-.805-2.213-1.208-3.622-1.208-1.51 0-2.817.403-3.823 1.309-1.006.906-1.61 2.014-1.912 3.322zM21.595 8.225a2.706 2.706 0 00-2.717-2.718 2.706 2.706 0 00-2.716 2.718 2.706 2.706 0 002.716 2.718 2.706 2.706 0 002.717-2.718zm83.51 24.765l5.233-20.134h-4.629l-3.22 14.194h-.302l-3.722-14.194h-4.73L89.913 27.05h-.301l-3.22-14.194h-4.628l5.232 20.134h5.332l3.622-14.195h.302l3.622 14.195h5.232zm-49.2 0V20.507c0-2.517-.705-4.53-2.113-5.94-1.409-1.51-3.22-2.215-5.534-2.215-2.415 0-4.729 1.31-5.936 3.423h-.302c-1.006-2.114-3.12-3.423-5.534-3.423-2.314 0-4.326 1.108-5.433 2.92h-.201v-2.416h-4.629V32.99h4.629V21.715c0-1.61.402-2.92 1.308-3.826.804-.805 1.81-1.308 3.018-1.308 1.107 0 2.012.402 2.616 1.107.604.705.906 1.812.906 3.12V32.99h4.628V21.715c0-1.61.402-2.92 1.207-3.826.704-.805 1.811-1.208 3.019-1.208 1.106 0 2.012.403 2.716 1.108.704.704 1.006 1.812 1.006 3.12v12.182h4.629v-.1zm-34.712 0V12.856h-4.629V32.99h4.628zm133.717-2.617c1.912-2.014 2.917-4.53 2.917-7.55 0-2.92-1.005-5.538-2.917-7.551-1.912-2.014-4.327-3.02-6.943-3.02-2.616 0-5.231 1.208-6.842 3.02h-.301V6.715h-4.629v26.174h4.629v-2.516h.301c1.611 1.912 4.327 3.12 6.943 3.12 2.716 0 4.93-1.107 6.842-3.12zm-3.421-11.98c1.207 1.208 1.711 2.617 1.711 4.43 0 1.811-.604 3.22-1.711 4.429-1.208 1.208-2.617 1.711-4.427 1.711-1.812 0-3.22-.604-4.427-1.711-1.208-1.208-1.711-2.618-1.711-4.43 0-1.812.604-3.221 1.711-4.43 1.207-1.207 2.615-1.71 4.427-1.71 1.81 0 3.219.603 4.427 1.71z" fill="#fff"/></svg>