<svg width="180" height="28" fill="none" xmlns="http://www.w3.org/2000/svg"><g clip-path="url(#clip0_1504_4044)" fill="#535557"><path d="M145.181 13.365l-6.865-7.86h-4.014v18.198h4.191v-11.61l6.268 6.878h.774l6.16-6.878v11.61h4.191V5.506h-4.014l-6.691 7.86zm30.671-7.859l-10.387 11.827V5.506h-4.19v18.197h3.839l10.387-11.828v11.828h4.19V5.506h-3.839zm-64.122 6.658c0 2.898 1.539 5.18 3.901 6.137l-4.429 5.402h5.129l4.029-4.915h4.36v4.915h4.19V5.506h-10.668c-3.978 0-6.512 2.802-6.512 6.658zm12.993-2.65v5.38h-5.704c-1.903 0-2.924-1.092-2.924-2.693 0-1.6 1.057-2.693 2.924-2.693l5.704.006zm-32.466-.369c-.257 6.258-1.54 10.298-4.05 10.298h-.628v4.368l.67.038c5.033.288 7.816-4.26 8.273-14.195h6.621v14.049h4.183V5.506H92.397l-.14 3.64zM76.481 5.252c-5.667 0-9.745 4.04-9.745 9.351 0 5.495 4.436 9.392 9.745 9.392 5.53 0 9.825-4.114 9.825-9.392 0-5.277-4.296-9.351-9.825-9.351zm0 14.375c-3.203 0-5.385-2.147-5.385-5.023 0-2.948 2.185-5.037 5.385-5.037 3.2 0 5.458 2.184 5.458 5.037 0 2.852-2.288 5.023-5.458 5.023zM62.29 5.54H47.5l-.141 3.64c-.21 5.243-1.539 10.229-4.05 10.3l-1.161.038V28h4.226v-4.294h14.682V28h4.263v-8.52h-3.03V5.54zM58.1 19.48h-8.943c1.513-2.364 2.323-5.786 2.465-9.789h6.477v9.79zM32.508 1.4h-4.063v22.4h4.063V1.4zm-9.481 1.4h-4.064v22.4h4.064V2.8zm-9.482 1.4H9.481v22.4h4.064V4.2zM4.064 5.6H0V28h4.064V5.6z"/></g><defs><clipPath id="clip0_1504_4044"><path fill="#fff" d="M0 0h180v28H0z"/></clipPath></defs></svg>