<svg width="180" height="28" fill="none" xmlns="http://www.w3.org/2000/svg"><g clip-path="url(#clip0_1504_4175)" fill="#fff"><path d="M145.181 13.218l-6.865-7.773h-4.014v17.997h4.191V11.96l6.268 6.803h.774l6.16-6.803v11.482h4.191V5.445h-4.014l-6.691 7.773zm30.671-7.773l-10.387 11.698V5.445h-4.19v17.997h3.839l10.387-11.697v11.697h4.19V5.445h-3.839zM111.73 12.03c0 2.866 1.539 5.123 3.901 6.07l-4.429 5.342h5.129l4.029-4.86h4.36v4.86h4.19V5.445h-10.668c-3.978 0-6.512 2.771-6.512 6.586zm12.993-2.621v5.322h-5.704c-1.903 0-2.924-1.08-2.924-2.664 0-1.583 1.057-2.663 2.924-2.663l5.704.005zm-32.466-.364c-.257 6.19-1.54 10.184-4.05 10.184h-.628v4.32l.67.037c5.033.286 7.816-4.212 8.273-14.038h6.621v13.894h4.183V5.445H92.397l-.14 3.6zM76.481 5.194c-5.667 0-9.745 3.995-9.745 9.249 0 5.434 4.436 9.288 9.745 9.288 5.53 0 9.825-4.069 9.825-9.288 0-5.22-4.296-9.25-9.825-9.25zm0 14.216c-3.203 0-5.385-2.123-5.385-4.967 0-2.915 2.185-4.981 5.385-4.981 3.2 0 5.458 2.16 5.458 4.98 0 2.822-2.288 4.968-5.458 4.968zM62.29 5.48H47.5l-.141 3.6c-.21 5.185-1.539 10.116-4.05 10.187l-1.161.036v8.39h4.226v-4.248h14.682v4.247h4.263v-8.425h-3.03V5.48zM58.1 19.267h-8.943c1.513-2.339 2.323-5.723 2.465-9.682h6.477v9.682zM32.508 1.384h-4.063v22.154h4.063V1.384zm-9.481 1.385h-4.064v22.154h4.064V2.769zm-9.482 1.385H9.481v22.154h4.064V4.154zM4.064 5.539H0v22.153h4.064V5.54z"/></g><defs><clipPath id="clip0_1504_4175"><path fill="#fff" d="M0 0h180v27.692H0z"/></clipPath></defs></svg>