<svg width="180" height="43" fill="none" xmlns="http://www.w3.org/2000/svg"><path d="M16.94 37.722L6.387 31.675a2.604 2.604 0 01-1.32-2.266v-15.84c0-.939.503-1.801 1.32-2.266L16.94 5.256a1.27 1.27 0 00.638-1.091v-2.9c0-.973-1.056-1.582-1.907-1.092L3.85 6.94A7.64 7.64 0 000 13.569v15.848a7.65 7.65 0 003.85 6.63l11.812 6.775c.852.481 1.908-.119 1.908-1.091V38.83c0-.465-.239-.88-.63-1.108zm9.172 0l10.544-6.047a2.605 2.605 0 001.32-2.266v-15.84c0-.939-.502-1.801-1.32-2.266L26.112 5.256a1.27 1.27 0 01-.638-1.091v-2.9c0-.973 1.056-1.582 1.907-1.092l11.813 6.774a7.64 7.64 0 013.85 6.63v15.849a7.65 7.65 0 01-3.85 6.63L27.381 42.83c-.851.482-1.907-.118-1.907-1.091v-2.9c.008-.474.247-.889.638-1.117z" fill="#FCD000"/><path d="M27.085 12.51c1.212 0 2.194.975 2.194 2.178v13.45c0 1.347-1.1 2.44-2.457 2.44a2.461 2.461 0 01-2.007-1.034l-6.618-9.155v8.005a2.19 2.19 0 01-2.198 2.184 2.19 2.19 0 01-2.198-2.184V14.98a2.479 2.479 0 012.487-2.47 2.49 2.49 0 012.038 1.054l6.566 9.117v-7.993c0-1.203.982-2.179 2.194-2.179z" fill="#FCD000"/><mask id="a" style="mask-type:luminance" maskUnits="userSpaceOnUse" x="55" y="12" width="125" height="19"><path d="M179.125 12.422H55.541V30.34h123.584V12.422z" fill="#fff"/></mask><g mask="url(#a)" fill="#fff"><path d="M57.82 29.872a2.271 2.271 0 01-2.279-2.264v-12.15a2.272 2.272 0 012.279-2.265 2.271 2.271 0 012.278 2.264v4.252h5.793v-4.252c0-1.25 1.02-2.264 2.278-2.264a2.271 2.271 0 012.28 2.264v12.151a2.272 2.272 0 01-2.28 2.264 2.271 2.271 0 01-2.278-2.264v-4.251h-5.793v4.251c0 1.25-1.02 2.264-2.278 2.264zM89 21.533c0 1.857-.364 3.423-1.091 4.699-.727 1.27-1.708 2.234-2.942 2.89-1.236.652-2.612.978-4.132.978-1.53 0-2.912-.328-4.147-.985-1.23-.663-2.208-1.63-2.935-2.9-.72-1.275-1.082-2.836-1.082-4.682 0-1.857.361-3.42 1.082-4.691.727-1.276 1.705-2.24 2.935-2.891 1.235-.657 2.617-.986 4.147-.986 1.52 0 2.897.329 4.132.986 1.234.651 2.215 1.615 2.942 2.89.727 1.271 1.09 2.835 1.09 4.692zm-4.69 0c0-1-.133-1.84-.4-2.525-.263-.69-.654-1.21-1.173-1.563-.514-.359-1.148-.538-1.902-.538s-1.39.18-1.91.538c-.513.352-.904.873-1.172 1.563-.262.684-.393 1.526-.393 2.525 0 .999.131 1.843.393 2.532.268.685.659 1.206 1.172 1.564.52.353 1.156.53 1.91.53s1.388-.177 1.902-.53c.52-.358.91-.88 1.172-1.564.268-.69.402-1.533.402-2.532zm9.568 8.339a2.397 2.397 0 01-2.405-2.389v-11.9a2.397 2.397 0 012.405-2.39h4.874c1.279 0 2.353.171 3.221.513.875.343 1.534.826 1.976 1.45.448.624.672 1.36.672 2.207a3.47 3.47 0 01-.41 1.678 3.597 3.597 0 01-1.131 1.27 4.514 4.514 0 01-1.705.7v.163a4.228 4.228 0 011.967.546c.59.331 1.061.79 1.41 1.376.35.581.524 1.265.524 2.053 0 .912-.24 1.723-.721 2.435-.475.711-1.153 1.27-2.033 1.677-.879.408-1.929.611-3.148.611h-5.496zm2.153-3.616h2.13c.766 0 1.34-.14 1.722-.423.383-.288.573-.711.573-1.27 0-.392-.089-.723-.27-.994a1.682 1.682 0 00-.77-.62c-.328-.14-.724-.21-1.189-.21h-2.196v3.517zm0-6.32H97.9c.398 0 .75-.062 1.056-.187.307-.125.544-.304.713-.537.176-.24.263-.53.263-.872 0-.515-.186-.91-.558-1.18-.37-.277-.84-.416-1.41-.416h-1.933v3.192zm27.248 1.597c0 1.857-.363 3.423-1.09 4.699-.727 1.27-1.707 2.234-2.943 2.89-1.234.652-2.611.978-4.131.978-1.529 0-2.912-.328-4.147-.985-1.23-.663-2.208-1.63-2.935-2.9-.721-1.275-1.082-2.836-1.082-4.682 0-1.857.361-3.42 1.082-4.691.727-1.276 1.705-2.24 2.935-2.891 1.235-.657 2.618-.986 4.147-.986 1.52 0 2.897.329 4.131.986 1.236.651 2.216 1.615 2.943 2.89.727 1.271 1.09 2.835 1.09 4.692zm-4.688 0c0-1-.134-1.84-.402-2.525-.262-.69-.653-1.21-1.172-1.563-.514-.359-1.147-.538-1.902-.538-.753 0-1.391.18-1.909.538-.514.352-.905.873-1.173 1.563-.262.684-.393 1.526-.393 2.525 0 .999.131 1.843.393 2.532.268.685.659 1.206 1.173 1.564.518.353 1.156.53 1.909.53.755 0 1.388-.177 1.902-.53.519-.358.91-.88 1.172-1.564.268-.69.402-1.533.402-2.532zm13.654-6.678h4.491c1.411 0 2.659.285 3.747.855a6.303 6.303 0 012.565 2.427c.623 1.048.934 2.05.934 3.483 0 1.357-.311 2.293-.934 3.287-.618.994-1.473 1.762-2.565 2.305-1.088.543-2.336.814-3.747.814h-4.491c-1.421 0-2.68-.269-3.779-.806-1.093-.538-1.951-1.306-2.574-2.305-.617-.999-.926-1.949-.926-3.328 0-1.433.314-2.432.943-3.475a6.428 6.428 0 012.589-2.41c1.099-.565 2.347-.847 3.747-.847zm0 3.713c-.569 0-1.093.106-1.574.318a2.536 2.536 0 00-1.148 1.034c-.284.478-.426.874-.426 1.667 0 .727.148 1.07.443 1.504.3.434.689.746 1.164.936.481.19.994.285 1.541.285h4.525c.556 0 1.065-.097 1.524-.293a2.435 2.435 0 001.107-.944c.278-.435.418-.76.418-1.455 0-.793-.14-1.192-.418-1.675-.274-.483-.643-.834-1.107-1.05a3.521 3.521 0 00-1.524-.327h-4.525zm2.229-6.146c1.177 0 2.131.948 2.131 2.118V28.2c0 1.17-.954 2.117-2.131 2.117a2.124 2.124 0 01-2.131-2.117V14.54c0-1.17.954-2.118 2.131-2.118zm27.278 9.111c0 1.857-.364 3.423-1.091 4.699-.726 1.27-1.707 2.234-2.942 2.89-1.235.652-2.612.978-4.131.978-1.53 0-2.912-.328-4.148-.985-1.229-.663-2.207-1.63-2.934-2.9-.722-1.275-1.082-2.836-1.082-4.682 0-1.857.36-3.42 1.082-4.691.727-1.276 1.705-2.24 2.934-2.891 1.236-.657 2.618-.986 4.148-.986 1.519 0 2.896.329 4.131.986 1.235.651 2.216 1.615 2.942 2.89.727 1.271 1.091 2.835 1.091 4.692zm-4.689 0c0-1-.133-1.84-.401-2.525-.263-.69-.653-1.21-1.172-1.563-.514-.359-1.148-.538-1.902-.538s-1.391.18-1.91.538c-.513.352-.904.873-1.172 1.563-.262.684-.394 1.526-.394 2.525 0 .999.132 1.843.394 2.532.268.685.659 1.206 1.172 1.564.519.353 1.156.53 1.91.53s1.388-.177 1.902-.53c.519-.358.909-.88 1.172-1.564.268-.69.401-1.533.401-2.532zm9.2 8.339a2.271 2.271 0 01-2.279-2.264v-12.15a2.272 2.272 0 012.279-2.265 2.271 2.271 0 012.278 2.264v4.252h5.792v-4.252c0-1.25 1.02-2.264 2.279-2.264a2.271 2.271 0 012.278 2.264v12.151c0 1.25-1.02 2.264-2.278 2.264a2.271 2.271 0 01-2.279-2.264v-4.251h-5.792v4.251c0 1.25-1.02 2.264-2.278 2.264z"/></g></svg>