<svg width="180" height="44" fill="none" xmlns="http://www.w3.org/2000/svg"><g clip-path="url(#clip0_1504_4071)"><path d="M16.94 37.967L6.387 31.88a2.624 2.624 0 01-1.32-2.282V13.657c0-.945.503-1.813 1.32-2.281L16.94 5.29a1.28 1.28 0 00.638-1.098v-2.92A1.268 1.268 0 0015.671.176L3.85 6.984A7.698 7.698 0 000 13.657v15.951a7.709 7.709 0 003.85 6.673L15.662 43.1c.852.485 1.908-.12 1.908-1.098v-2.92c0-.468-.239-.885-.63-1.114zm9.172 0l10.544-6.086a2.624 2.624 0 001.32-2.282V13.657c0-.945-.502-1.813-1.32-2.281L26.112 5.29a1.28 1.28 0 01-.638-1.098v-2.92A1.268 1.268 0 0127.38.176l11.813 6.817a7.698 7.698 0 013.85 6.673v15.951a7.709 7.709 0 01-3.85 6.674L27.38 43.109c-.851.485-1.907-.12-1.907-1.098v-2.92c.008-.477.247-.894.638-1.123z" fill="#949598"/><path d="M27.085 12.59c1.212 0 2.194.982 2.194 2.194V28.32a2.456 2.456 0 01-4.464 1.416l-6.618-9.215v8.057a2.198 2.198 0 01-4.396 0v-13.5a2.487 2.487 0 014.525-1.426l6.566 9.176v-8.044c0-1.212.982-2.194 2.194-2.194z" fill="#949598"/><mask id="a" style="mask-type:luminance" maskUnits="userSpaceOnUse" x="55" y="12" width="125" height="19"><path d="M179.125 12.503H55.541v18.033h123.584V12.503z" fill="#fff"/></mask><g mask="url(#a)" fill="#535557"><path d="M57.82 30.066a2.279 2.279 0 01-2.279-2.279v-12.23a2.279 2.279 0 114.557 0v4.28h5.793v-4.28a2.279 2.279 0 114.557 0v12.23a2.279 2.279 0 01-4.557 0v-4.279h-5.793v4.279a2.279 2.279 0 01-2.278 2.279zM89 21.672c0 1.87-.364 3.446-1.091 4.73-.727 1.278-1.708 2.248-2.942 2.91-1.236.655-2.612.983-4.132.983-1.53 0-2.912-.33-4.147-.992-1.23-.666-2.208-1.639-2.935-2.918-.72-1.284-1.082-2.855-1.082-4.713 0-1.869.361-3.442 1.082-4.721.727-1.284 1.705-2.254 2.935-2.91 1.235-.661 2.617-.992 4.147-.992 1.52 0 2.897.33 4.132.992 1.234.656 2.215 1.626 2.942 2.91.727 1.279 1.09 2.852 1.09 4.721zm-4.69 0c0-1.005-.133-1.852-.4-2.54-.263-.695-.654-1.22-1.173-1.575-.514-.36-1.148-.54-1.902-.54s-1.39.18-1.91.54c-.513.356-.904.88-1.172 1.574-.262.689-.393 1.536-.393 2.541 0 1.006.131 1.855.393 2.55.268.688.659 1.212 1.172 1.573.52.355 1.156.533 1.91.533s1.388-.178 1.902-.533c.52-.36.91-.885 1.172-1.574.268-.694.402-1.543.402-2.549zm9.568 8.394a2.404 2.404 0 01-2.405-2.405V15.683a2.404 2.404 0 012.405-2.404h4.874c1.279 0 2.353.172 3.221.516.875.345 1.534.83 1.976 1.46.448.628.672 1.368.672 2.22a3.51 3.51 0 01-.41 1.689 3.614 3.614 0 01-1.131 1.279 4.5 4.5 0 01-1.705.705v.164c.721.027 1.377.21 1.967.549.59.333 1.061.795 1.41 1.385.35.585.524 1.273.524 2.066 0 .918-.24 1.735-.721 2.45-.475.716-1.153 1.28-2.033 1.689-.879.41-1.929.615-3.148.615h-5.496zm2.153-3.64h2.13c.766 0 1.34-.142 1.722-.426.383-.29.573-.716.573-1.279 0-.393-.089-.726-.27-1a1.685 1.685 0 00-.77-.623c-.328-.142-.724-.213-1.189-.213h-2.196v3.541zm0-6.36H97.9c.398 0 .75-.063 1.056-.189.307-.126.544-.306.713-.54.176-.241.263-.534.263-.878 0-.519-.186-.915-.558-1.188-.37-.28-.84-.419-1.41-.419h-1.933v3.214zm27.248 1.606c0 1.87-.363 3.446-1.09 4.73-.727 1.278-1.707 2.248-2.943 2.91-1.234.655-2.611.983-4.131.983-1.529 0-2.912-.33-4.147-.992-1.23-.666-2.208-1.639-2.935-2.918-.721-1.284-1.082-2.855-1.082-4.713 0-1.869.361-3.442 1.082-4.721.727-1.284 1.705-2.254 2.935-2.91 1.235-.661 2.618-.992 4.147-.992 1.52 0 2.897.33 4.131.992 1.236.656 2.216 1.626 2.943 2.91.727 1.279 1.09 2.852 1.09 4.721zm-4.688 0c0-1.005-.134-1.852-.402-2.54-.262-.695-.653-1.22-1.172-1.575-.514-.36-1.147-.54-1.902-.54-.753 0-1.391.18-1.909.54-.514.356-.905.88-1.173 1.574-.262.689-.393 1.536-.393 2.541 0 1.006.131 1.855.393 2.55.268.688.659 1.212 1.173 1.573.518.355 1.156.533 1.909.533.755 0 1.388-.178 1.902-.533.519-.36.91-.885 1.172-1.574.268-.694.402-1.543.402-2.549zm13.654-6.721h4.491c1.411 0 2.659.287 3.747.86a6.32 6.32 0 012.565 2.443c.623 1.055.934 2.063.934 3.506 0 1.366-.311 2.309-.934 3.308-.618 1-1.473 1.774-2.565 2.32-1.088.547-2.336.82-3.747.82h-4.491c-1.421 0-2.68-.27-3.779-.812a6.19 6.19 0 01-2.574-2.32c-.617-1.005-.926-1.961-.926-3.349 0-1.443.314-2.448.943-3.497a6.444 6.444 0 012.589-2.427c1.099-.568 2.347-.852 3.747-.852zm0 3.738c-.569 0-1.093.106-1.574.32-.476.213-.857.56-1.148 1.04-.284.481-.426.88-.426 1.678 0 .732.148 1.076.443 1.514.3.437.689.751 1.164.942.481.192.994.287 1.541.287h4.525c.556 0 1.065-.098 1.524-.295.464-.202.833-.52 1.107-.95.278-.438.418-.766.418-1.465 0-.798-.14-1.2-.418-1.686-.274-.486-.643-.839-1.107-1.057a3.502 3.502 0 00-1.524-.328h-4.525zm2.229-6.186a2.13 2.13 0 012.131 2.131v13.749a2.131 2.131 0 11-4.262 0V14.634a2.13 2.13 0 012.131-2.131zm27.278 9.169c0 1.87-.364 3.446-1.091 4.73-.726 1.278-1.707 2.248-2.942 2.91-1.235.655-2.612.983-4.131.983-1.53 0-2.912-.33-4.148-.992-1.229-.666-2.207-1.639-2.934-2.918-.722-1.284-1.082-2.855-1.082-4.713 0-1.869.36-3.442 1.082-4.721.727-1.284 1.705-2.254 2.934-2.91 1.236-.661 2.618-.992 4.148-.992 1.519 0 2.896.33 4.131.992 1.235.656 2.216 1.626 2.942 2.91.727 1.279 1.091 2.852 1.091 4.721zm-4.689 0c0-1.005-.133-1.852-.401-2.54-.263-.695-.653-1.22-1.172-1.575-.514-.36-1.148-.54-1.902-.54s-1.391.18-1.91.54c-.513.356-.904.88-1.172 1.574-.262.689-.394 1.536-.394 2.541 0 1.006.132 1.855.394 2.55.268.688.659 1.212 1.172 1.573.519.355 1.156.533 1.91.533s1.388-.178 1.902-.533c.519-.36.909-.885 1.172-1.574.268-.694.401-1.543.401-2.549zm9.2 8.394a2.279 2.279 0 01-2.279-2.279v-12.23a2.279 2.279 0 114.557 0v4.28h5.792v-4.28a2.279 2.279 0 114.557 0v12.23a2.278 2.278 0 11-4.557 0v-4.279h-5.792v4.279a2.278 2.278 0 01-2.278 2.279z"/></g></g><defs><clipPath id="clip0_1504_4071"><path fill="#fff" d="M0 0h180v43.279H0z"/></clipPath></defs></svg>