<svg width="180" height="40" fill="none" xmlns="http://www.w3.org/2000/svg"><path d="M177.545 21.736l-10.666-10.068-3.018 2.973 7.446 7.095-7.446 7.19 3.018 2.973 10.666-10.163z" fill="#949598"/><path d="M8.012 31.61c-2.113 0-3.924-.383-5.03-1.246C1.17 29.118.465 27.488.465 24.994v-18.6h4.527v5.753h6.54v4.219h-6.54v7.862c0 1.534.302 2.3 1.107 2.78.503.288 1.409.48 2.817.48.906 0 2.617-.096 2.617-.096v3.93s-1.61.288-3.522.288zm123.756-3.93c-2.012 2.78-4.93 4.218-8.854 4.218-3.219 0-5.936-.959-7.949-2.876-2.012-1.918-3.018-4.315-3.018-7.191 0-2.876 1.006-5.273 3.018-7.19 2.013-1.918 4.529-2.877 7.647-2.877 2.918 0 5.333.959 7.244 2.972 1.912 1.918 2.817 4.41 2.817 7.19 0 1.056-.201 1.823-.201 1.823h-15.695c.301 1.342 1.006 2.3 2.113 3.068 1.106.767 2.515 1.15 4.125 1.15 2.214 0 3.924-.767 5.031-2.301l3.722 2.014zm-14.991-7.67h11.269c-.303-1.439-.907-2.494-1.912-3.26-1.006-.768-2.214-1.151-3.622-1.151-1.509 0-2.817.383-3.824 1.246-.905.863-1.61 1.918-1.911 3.164zm-37.63 7.67c-2.013 2.78-4.93 4.218-8.855 4.218-3.22 0-5.936-.959-7.948-2.876-2.012-1.918-3.019-4.315-3.019-7.191 0-2.876 1.007-5.273 3.019-7.19 2.012-1.918 4.528-2.877 7.647-2.877 2.918 0 5.332.959 7.244 2.972 1.912 1.918 2.817 4.41 2.817 7.19 0 1.056-.201 1.823-.201 1.823H64.155c.302 1.342 1.006 2.3 2.113 3.068 1.107.767 2.515 1.15 4.125 1.15 2.214 0 3.924-.767 5.03-2.301l3.724 2.014zm-14.992-7.67h11.269c-.302-1.439-.906-2.494-1.912-3.26-1.006-.768-2.213-1.151-3.622-1.151-1.51 0-2.817.383-3.823 1.246-1.006.863-1.61 1.918-1.912 3.164zM21.595 7.832c0-1.438-1.207-2.589-2.717-2.589-1.509 0-2.716 1.15-2.716 2.589 0 1.438 1.207 2.589 2.716 2.589 1.51 0 2.717-1.151 2.717-2.59zm83.51 23.586l5.233-19.176h-4.629l-3.22 13.519h-.302l-3.722-13.519h-4.73l-3.823 13.519h-.301l-3.22-13.519h-4.628l5.232 19.176h5.332L95.95 17.9h.302l3.622 13.519h5.232zm-49.2 0v-11.89c0-2.396-.705-4.314-2.113-5.656-1.409-1.438-3.22-2.11-5.534-2.11-2.415 0-4.729 1.247-5.936 3.26h-.302c-1.006-2.013-3.12-3.26-5.534-3.26-2.314 0-4.326 1.056-5.433 2.781h-.201v-2.3h-4.629v19.175h4.629V20.68c0-1.534.402-2.78 1.308-3.643.804-.767 1.81-1.246 3.018-1.246 1.107 0 2.012.383 2.616 1.054.604.672.906 1.726.906 2.973v11.6h4.628V20.68c0-1.534.402-2.78 1.207-3.643.704-.767 1.811-1.15 3.019-1.15 1.106 0 2.012.383 2.716 1.054.704.671 1.006 1.726 1.006 2.972v11.602h4.629v-.096zm-34.712 0V12.243h-4.629V31.42h4.628zm133.717-2.493c1.912-1.918 2.917-4.315 2.917-7.19 0-2.781-1.005-5.274-2.917-7.192-1.912-1.917-4.327-2.876-6.943-2.876-2.616 0-5.231 1.15-6.842 2.876h-.301v-8.15h-4.629v24.929h4.629v-2.397h.301c1.611 1.822 4.327 2.972 6.943 2.972 2.716 0 4.93-1.055 6.842-2.972zm-3.421-11.41c1.207 1.151 1.711 2.493 1.711 4.22 0 1.725-.604 3.067-1.711 4.218-1.208 1.15-2.617 1.63-4.427 1.63-1.812 0-3.22-.576-4.427-1.63-1.208-1.15-1.711-2.493-1.711-4.219 0-1.726.604-3.068 1.711-4.218 1.207-1.151 2.615-1.63 4.427-1.63 1.81 0 3.219.575 4.427 1.63z" fill="#535557"/></svg>