<svg width="180" height="65" fill="none" xmlns="http://www.w3.org/2000/svg"><mask id="a" style="mask-type:luminance" maskUnits="userSpaceOnUse" x="0" y="0" width="180" height="65"><path d="M179.043 0H.958v65h178.085V0z" fill="#fff"/></mask><g mask="url(#a)"><path d="M.958 9.559h49.787v25.314a18.17 18.17 0 01-9.096 15.733l-15.798 9.29-15.781-9.29A18.134 18.134 0 01.982 34.873V9.559H.958z" fill="#949598"/><path fill-rule="evenodd" clip-rule="evenodd" d="M14.362 22.881v7.867c1.088-1.207 3.045-2.027 5.269-2.027h2.441v9.146c0 2.437-.652 4.56-1.643 5.743H31.27c-.99-1.182-1.589-3.306-1.589-5.743V28.72h2.374c2.248 0 4.222.82 5.285 2.027V22.88H14.362z" fill="#535557"/><path d="M87.43 30.042c-1.295-.482-2.99-.627-4.833-.627H72.332v-3.084h17.64v-5.302H65.106v22.942H81.95c2.342 0 4.086-.193 5.382-.676 2.74-1.012 4.584-3.47 4.584-6.699 0-3.277-1.744-5.542-4.485-6.554zm-3.588 7.952c-.398.145-.946.193-1.644.193h-9.866v-3.663h9.866c.798 0 1.445.048 1.943.29.598.289.897.819.897 1.493 0 .675-.348 1.398-1.195 1.687zm27.492-16.964h-10.115l-9.304 22.94h7.825l1.288-3.325h10.497l1.336 3.325h7.777l-9.304-22.94zm-8.588 14.554l3.292-9.253h.525l3.292 9.253h-7.109zm26.709-.144v8.53h-6.902V21.03h6.902v8.385h11.09V21.03h6.902v22.942h-6.902V35.44h-11.09zm28.877-.145v8.675h-7.055V21.03h7.055v8.626h1.946l8.515-8.627h8.854L166.36 32.018l11.725 11.953h-9.39l-8.417-8.676h-1.946z" fill="#535557"/></g></svg>