<svg width="180" height="38" fill="none" xmlns="http://www.w3.org/2000/svg"><g clip-path="url(#clip0_1504_4202)" fill="#21BA4C"><path d="M48.285 0L38.008 29.53h-6.114L24.232 7.678 16.434 29.53h-6.157L0 0h5.98l7.708 22.443L21.706 0h5.316l7.84 22.57L42.792 0h5.493zm11.422 6.75c3.485 0 6.143.802 7.974 2.405 1.86 1.575 2.79 3.965 2.79 7.171V29.53h-5.226v-2.742c-.68.985-1.654 1.744-2.924 2.279-1.24.506-2.746.759-4.518.759-1.772 0-3.323-.281-4.652-.844-1.329-.59-2.362-1.392-3.1-2.404-.71-1.041-1.064-2.208-1.064-3.502 0-2.025.783-3.642 2.348-4.851 1.595-1.238 4.09-1.857 7.486-1.857h6.114v-.337c0-1.575-.502-2.784-1.507-3.628-.974-.844-2.436-1.266-4.385-1.266-1.329 0-2.643.197-3.943.59-1.27.395-2.347.943-3.233 1.646l-2.17-3.839c1.24-.9 2.73-1.589 4.473-2.067 1.743-.478 3.588-.717 5.537-.717zm-.753 19.237c1.388 0 2.614-.295 3.677-.886 1.093-.619 1.86-1.49 2.304-2.616V19.87H59.22c-3.19 0-4.784.998-4.784 2.995 0 .956.399 1.716 1.196 2.278.797.563 1.905.844 3.322.844zm37.096-.675v4.218H75.63v-3.332l12.98-14.976H75.894v-4.22h19.8v3.334L82.673 25.312H96.05zm23.577 0v4.218H99.206v-3.332l12.979-14.976H99.471v-4.22h19.801v3.334l-13.023 14.976h13.378zm28.006-18.309V29.53h-5.271v-2.868c-.886 1.012-1.994 1.8-3.322 2.362-1.329.534-2.762.802-4.297.802-3.16 0-5.656-.83-7.487-2.49-1.801-1.687-2.702-4.176-2.702-7.466V7.003h5.538v12.15c0 2.024.472 3.543 1.417 4.556.974.984 2.348 1.476 4.12 1.476 1.978 0 3.543-.576 4.695-1.73 1.182-1.18 1.772-2.868 1.772-5.062V7.003h5.537zm20.363-.253c2.303 0 4.355.478 6.157 1.434 1.831.957 3.264 2.307 4.297 4.05 1.034 1.744 1.55 3.755 1.55 6.033 0 2.278-.516 4.303-1.55 6.075-1.033 1.743-2.466 3.093-4.297 4.05-1.802.956-3.854 1.434-6.157 1.434-3.19 0-5.715-1.013-7.575-3.038v10.927h-5.538V7.003h5.272v2.953a8.571 8.571 0 013.366-2.404c1.359-.535 2.85-.802 4.475-.802zm-.621 18.562c2.038 0 3.707-.647 5.005-1.94 1.33-1.294 1.994-2.996 1.994-5.105 0-2.11-.664-3.811-1.994-5.105-1.298-1.293-2.967-1.94-5.005-1.94-1.329 0-2.525.295-3.588.886a6.26 6.26 0 00-2.525 2.446c-.62 1.07-.93 2.307-.93 3.713 0 1.406.31 2.643.93 3.712a6.554 6.554 0 002.525 2.49c1.063.561 2.259.843 3.588.843z"/></g><defs><clipPath id="clip0_1504_4202"><path fill="#fff" d="M0 0h180v37.714H0z"/></clipPath></defs></svg>