<svg width="180" height="38" fill="none" xmlns="http://www.w3.org/2000/svg"><g clip-path="url(#clip0_1504_4024)" fill="#535557"><path d="M48.285 0L38.008 29.754h-6.114L24.232 7.736l-7.797 22.018h-6.157L0 0h5.98l7.708 22.613L21.706 0h5.316l7.84 22.74L42.792 0h5.493zm11.422 6.8c3.485 0 6.143.808 7.974 2.424 1.86 1.586 2.79 3.995 2.79 7.226v13.304h-5.226V26.99c-.68.992-1.654 1.757-2.924 2.295-1.24.51-2.746.765-4.518.765-1.772 0-3.323-.283-4.652-.85-1.329-.595-2.362-1.402-3.1-2.422-.71-1.05-1.064-2.225-1.064-3.529 0-2.04.783-3.67 2.348-4.888 1.595-1.246 4.09-1.87 7.486-1.87h6.114v-.34c0-1.587-.502-2.805-1.507-3.656-.974-.85-2.436-1.275-4.385-1.275-1.329 0-2.643.199-3.943.595-1.27.397-2.347.95-3.233 1.658l-2.17-3.868c1.24-.907 2.73-1.6 4.473-2.083 1.743-.481 3.588-.722 5.537-.722zm-.753 19.383c1.388 0 2.614-.297 3.677-.892 1.093-.624 1.86-1.502 2.304-2.636V20.02H59.22c-3.19 0-4.784 1.006-4.784 3.018 0 .963.399 1.729 1.196 2.295.797.567 1.905.85 3.322.85zm37.096-.679v4.25H75.63v-3.358l12.98-15.09H75.894v-4.25h19.8v3.358l-13.023 15.09H96.05zm23.577 0v4.25H99.206v-3.358l12.979-15.09H99.471v-4.25h19.801v3.358l-13.023 15.09h13.378zm28.006-18.448v22.698h-5.271v-2.89c-.886 1.02-1.994 1.813-3.322 2.38-1.329.538-2.762.808-4.297.808-3.16 0-5.656-.836-7.487-2.508-1.801-1.7-2.702-4.208-2.702-7.524V7.056h5.538v12.242c0 2.04.472 3.57 1.417 4.59.974.992 2.348 1.488 4.12 1.488 1.978 0 3.543-.58 4.695-1.743 1.182-1.19 1.772-2.89 1.772-5.1V7.056h5.537zm20.363-.256c2.303 0 4.355.483 6.157 1.446 1.831.963 3.264 2.324 4.297 4.08 1.034 1.757 1.55 3.784 1.55 6.079s-.516 4.335-1.55 6.12c-1.033 1.758-2.466 3.118-4.297 4.081-1.802.964-3.854 1.445-6.157 1.445-3.19 0-5.715-1.02-7.575-3.06V38h-5.538V7.056h5.272v2.975a8.573 8.573 0 013.366-2.423c1.359-.538 2.85-.807 4.475-.807zm-.621 18.703c2.038 0 3.707-.651 5.005-1.955 1.33-1.304 1.994-3.018 1.994-5.143 0-2.126-.664-3.84-1.994-5.143-1.298-1.304-2.967-1.956-5.005-1.956-1.329 0-2.525.298-3.588.893a6.28 6.28 0 00-2.525 2.465c-.62 1.077-.93 2.324-.93 3.74 0 1.418.31 2.665.93 3.741a6.579 6.579 0 002.525 2.508c1.063.567 2.259.85 3.588.85z"/></g><defs><clipPath id="clip0_1504_4024"><path fill="#fff" d="M0 0h180v38H0z"/></clipPath></defs></svg>