<svg width="180" height="53" fill="none" xmlns="http://www.w3.org/2000/svg"><g clip-path="url(#clip0_1504_4224)"><path d="M180 26.5v22.423A4.084 4.084 0 01175.909 53H4.091A4.084 4.084 0 010 48.923V4.077A4.084 4.084 0 014.091 0h171.818A4.084 4.084 0 01180 4.077V26.5z" fill="#535557"/><path d="M83.7 11.035H71.182v30.821h13.95c5.236 0 13.882-.475 13.882-9.35V20.399C99 11.511 88.936 11.035 83.7 11.035zm7.868 20.656c0 4.444-3.245 4.893-6.94 4.893h-6.014V16.306h4.622c3.696 0 8.373.45 8.373 4.893l-.04 10.491zM26.114 11.035H13.69v30.821h13.882c5.236 0 13.882-.475 13.882-9.35V20.399c0-8.887-10.037-9.363-15.3-9.363h-.041zm7.868 20.656c0 4.444-3.245 4.893-6.94 4.893h-5.974V16.306h4.582c3.696 0 8.373.45 8.373 4.893l-.041 10.491zm100.909-19.46h-6.954v22.735a8.522 8.522 0 00.545 3.207 5.43 5.43 0 001.364 2.093 6.212 6.212 0 002.141 1.196c.815.287 1.662.478 2.522.57a35.31 35.31 0 002.837.123 33.018 33.018 0 003.859-.23v-3.9h-2.482a4.22 4.22 0 01-3.15-.83 5.14 5.14 0 01-.709-3.207V22.735h6.341v-4.267h-6.341l.027-6.237zm28.636 7.719c-1.654-1.033-4.609-1.546-8.863-1.536h-8.073v.34l.995 3.94h7.078a6.838 6.838 0 013.409.68 3.223 3.223 0 01.982 2.718v1.563h-7.773c-2.727 0-4.6.53-5.618 1.59-1.019 1.06-1.545 2.967-1.582 5.721 0 3.004.505 4.267 1.527 5.219 1.023.95 3 1.658 6.109 1.658h9.628c2.399 0 4.704-1.128 4.704-3.832V26.038c0-3.035-.828-5.07-2.482-6.102l-.041.014zm-4.486 18.074h-4.568a5.833 5.833 0 01-3.027-.476c-.4-.316-.6-1.223-.6-2.717 0-1.495.19-2.43.572-2.8a4.855 4.855 0 012.864-.516h4.759v6.51zm-37.5-18.074c-1.654-1.033-4.609-1.546-8.864-1.536h-8.072v.34l.995 3.94h7.077a6.836 6.836 0 013.409.68 3.217 3.217 0 01.982 2.718v1.563h-7.813c-2.728 0-4.6.53-5.618 1.59-1.019 1.06-1.528 2.967-1.528 5.721 0 3.004.505 4.267 1.528 5.219 1.022.95 2.999 1.658 6.109 1.658h9.627c2.413 0 4.704-1.128 4.704-3.832V26.038c-.009-3.035-.836-5.07-2.481-6.102l-.055.014zm-4.473 18.074H112.5a5.837 5.837 0 01-3.027-.476c-.4-.316-.6-1.223-.6-2.717 0-1.495.191-2.43.573-2.8a4.853 4.853 0 012.863-.516h4.759v6.51zM63.996 19.95c-1.655-1.033-4.61-1.546-8.864-1.536H47.1v.34l.995 3.94h7.078a6.837 6.837 0 013.409.68 3.23 3.23 0 01.982 2.718v1.563H51.75c-2.727 0-4.6.53-5.618 1.59-1.018 1.06-1.545 2.967-1.582 5.721 0 3.004.505 4.267 1.527 5.219 1.023.95 3 1.658 6.11 1.658h9.627c2.413 0 4.704-1.128 4.704-3.832V26.038c0-3.035-.828-5.07-2.481-6.102l-.042.014zm-4.473 18.074h-4.528a5.836 5.836 0 01-3.027-.476c-.4-.316-.6-1.223-.6-2.717 0-1.495.191-2.43.573-2.8a4.858 4.858 0 012.864-.516h4.759l-.041 6.51z" fill="#949598"/></g><defs><clipPath id="clip0_1504_4224"><path fill="#fff" d="M0 0h180v53H0z"/></clipPath></defs></svg>