<svg width="180" height="33" fill="none" xmlns="http://www.w3.org/2000/svg"><g clip-path="url(#clip0_1504_3975)"><path d="M166.281 24.668c5.437 0 9.86-4.53 9.86-10.097 0-5.567-4.424-10.096-9.86-10.096-5.437 0-9.86 4.529-9.86 10.096s4.423 10.097 9.86 10.097z" stroke="#949598" stroke-width="7.898"/><path d="M172.324 16.024h-6.729V9.132h1.427v5.43h5.302v1.462zm-67.939 16.242c1.213-15.226 14.643-15.685 14.643-22.08 0-2.805-2.201-3.863-4.581-3.863-3.01 0-5.48 1.012-7.637 2.07l-1.437-4.278c2.426-1.196 5.84-2.438 9.883-2.438 6.378 0 9.477 3.358 9.477 7.958 0 8.601-11.499 10.257-13.34 17.939h13.61v4.692h-20.618zm23.492-7.406v-3.68l14.644-19.457h3.863v18.629h4.402v4.508h-4.402v7.406h-5.301V24.86h-13.206zm5.975-4.416c.673 0 2.649-.092 3.728-.092h3.504v-4.324c0-2.437.224-5.06.269-5.933l-7.501 10.35z" fill="#949598"/><path d="M1.062 3.02h8.363c3.88 0 6.684.578 8.412 1.736 1.728 1.158 2.593 2.987 2.593 5.486 0 1.684-.424 3.085-1.272 4.203-.848 1.119-2.07 1.823-3.662 2.112v.197c1.978.382 3.433 1.135 4.365 2.26.931 1.125 1.397 2.648 1.397 4.568 0 2.592-.883 4.622-2.65 6.088-1.766 1.468-4.224 2.2-7.371 2.2H1.062V3.02zm4.605 11.919H10.1c1.927 0 3.334-.313 4.22-.938.887-.624 1.33-1.687 1.33-3.187 0-1.355-.479-2.335-1.436-2.94s-2.476-.908-4.557-.908h-3.99v7.973zm0 3.828v9.137h4.896c1.927 0 3.382-.378 4.365-1.134.982-.757 1.474-1.95 1.474-3.582 0-1.5-.501-2.612-1.503-3.336-1.002-.723-2.525-1.085-4.568-1.085H5.667zM26.365 4.263c0-.83.222-1.467.665-1.915.443-.447 1.076-.67 1.898-.67.797 0 1.417.223 1.86.67.444.448.665 1.086.665 1.915 0 .789-.221 1.41-.665 1.864-.443.454-1.063.681-1.86.681-.822 0-1.455-.227-1.898-.68-.443-.455-.665-1.076-.665-1.865zm4.8 27.608h-4.53V10.045h4.53V31.87zm14.414-3.355c1.105 0 2.21-.177 3.315-.533v3.493c-.5.224-1.146.411-1.936.563-.79.15-1.61.227-2.458.227-4.291 0-6.437-2.316-6.437-6.947V13.557h-2.91v-2.052l3.122-1.697 1.542-4.618h2.795v4.854h6.07v3.513h-6.07V25.24c0 1.118.272 1.944.819 2.477.546.533 1.262.799 2.148.799zM63.965 9.65c.912 0 1.663.066 2.254.197l-.443 4.322a8.378 8.378 0 00-2.004-.237c-1.812 0-3.28.606-4.404 1.816s-1.686 2.783-1.686 4.717V31.87h-4.529V10.045H56.7l.598 3.848h.23c.708-1.303 1.63-2.335 2.767-3.099 1.137-.762 2.36-1.144 3.67-1.144zM69.9 4.263c0-.83.222-1.467.666-1.915.443-.447 1.075-.67 1.898-.67.796 0 1.416.223 1.86.67.443.448.664 1.086.664 1.915 0 .789-.221 1.41-.665 1.864-.443.454-1.063.681-1.86.681-.822 0-1.454-.227-1.897-.68-.444-.455-.666-1.076-.666-1.865zm4.8 27.607h-4.53V10.045h4.53V31.87zm11.216-11.15l-7.15-10.676h5.165l4.857 7.637 4.895-7.637h5.126l-7.17 10.676 7.535 11.15h-5.126l-5.261-8.17-5.242 8.17h-5.127l7.497-11.15z" fill="#535557"/></g><defs><clipPath id="clip0_1504_3975"><path fill="#fff" d="M0 0h180v33H0z"/></clipPath></defs></svg>