<svg width="1920" height="864" viewBox="0 0 1920 864" fill="none" xmlns="http://www.w3.org/2000/svg">
    <path opacity="0.3" d="M641.416 1040.5V818.521H-189.301V632.737L-187.814 632.724L126.162 629.913V629.912L437.312 625.713L441.482 517.458V517.457L445.646 410.744H-189.301V210.875L-187.789 210.887L188.146 213.699H188.15L564.085 217.917L564.989 217.928L565.402 218.73L776.601 629.317L988.789 1040.5H1500.29V618.662H2136.89V1040.5H2316.93V593.446C2316.93 441.877 2319.3 330.971 2314.36 249.762C2309.41 168.5 2297.14 117.44 2268.21 85.2559C2239.32 53.1162 2193.52 39.4746 2120.52 33.9639C2047.53 28.4549 1947.85 31.0898 1811.55 31.0898C1679.15 31.0898 1582 29.3336 1510.5 34.1406C1438.95 38.9507 1393.52 50.3213 1364.28 76.2363C1335.07 102.116 1321.69 142.784 1315.08 207.113C1308.67 269.418 1308.63 353.492 1306.4 467.089L1306.17 478.175L1299.13 824.081L1299.11 825.474L1297.71 825.549L1218.87 829.767C1192.78 831.175 1171.9 830.829 1156.26 828.522C1140.72 826.23 1129.99 821.949 1124.67 815.13C1124.05 814.39 1123.11 812.962 1121.91 810.99C1120.65 808.932 1119.05 806.184 1117.12 802.79C1113.27 796.001 1108.1 786.592 1101.77 774.867C1089.11 751.416 1071.82 718.673 1051.14 679.035C1012.36 604.713 961.67 506.139 907.338 399.098L896.425 377.581L700.879 1.5H416.407C416.396 1.50018 416.378 1.50062 416.355 1.50098C416.31 1.50169 416.241 1.50252 416.149 1.50391C415.965 1.50669 415.687 1.51122 415.311 1.5166C414.557 1.52736 413.41 1.54243 411.833 1.5625C408.678 1.60265 403.802 1.66068 396.918 1.72949C383.15 1.86712 361.346 2.04992 329.203 2.2334C264.917 2.60036 159.271 2.96777 -6.16992 2.96777H-397.5V1040.5H641.416ZM1500.29 334.72C1500.29 305.863 1501.35 278.75 1503.11 258.308C1504 248.092 1505.06 239.509 1506.26 233.197C1506.86 230.046 1507.5 227.418 1508.19 225.421C1508.53 224.423 1508.9 223.547 1509.3 222.829C1509.65 222.193 1510.07 221.594 1510.6 221.154C1510.97 220.751 1511.47 220.497 1511.86 220.329C1512.36 220.113 1512.97 219.919 1513.67 219.739C1515.08 219.379 1516.98 219.036 1519.34 218.706C1524.05 218.045 1530.7 217.416 1539.06 216.822C1555.79 215.634 1579.44 214.578 1608.23 213.699C1665.8 211.941 1743.96 210.887 1828.45 210.887H2136.89V438.866H1500.29V334.72Z" stroke="#EB0E54" stroke-width="3" />
</svg>