<svg width="1857" height="618" fill="none" xmlns="http://www.w3.org/2000/svg"><path opacity=".3" d="M1040.42 1040.5V818.521H209.699V632.737l1.487-.013 313.976-2.811v-.001l311.15-4.199 4.17-108.255v-.001l4.164-106.713H209.699V210.875l1.512.012 375.935 2.812h.004l375.935 4.218.904.011.413.802L1175.6 629.317l212.19 411.183h511.5V618.662h636.6V1040.5h180.04V593.446c0-151.569 2.37-262.475-2.57-343.684-4.95-81.262-17.22-132.322-46.15-164.506-28.89-32.14-74.69-45.781-147.69-51.292-72.99-5.51-172.67-2.874-308.97-2.874-132.4 0-229.55-1.756-301.05 3.05-71.55 4.81-116.98 16.181-146.22 42.096-29.21 25.88-42.59 66.548-49.2 130.877-6.41 62.305-6.45 146.379-8.68 259.976l-.23 11.086-7.04 345.906-.02 1.393-1.4.075-78.84 4.218c-26.09 1.408-46.97 1.062-62.61-1.245-15.54-2.292-26.27-6.573-31.59-13.392-.62-.74-1.56-2.168-2.76-4.14-1.26-2.058-2.86-4.806-4.79-8.2-3.85-6.789-9.02-16.198-15.35-27.923-12.66-23.451-29.95-56.194-50.63-95.832-38.78-74.322-89.47-172.896-143.8-279.937l-10.92-21.517L1099.88 1.5H815.407l-.052.001-.206.003-.838.013-3.478.046c-3.155.04-8.031.098-14.915.166-13.768.138-35.572.32-67.715.504-64.286.367-169.932.735-335.373.735H1.5V1040.5h1038.92zm858.87-705.78c0-28.857 1.06-55.97 2.82-76.412.89-10.216 1.95-18.799 3.15-25.111.6-3.151 1.24-5.779 1.93-7.776.34-.998.71-1.874 1.11-2.592.35-.636.77-1.235 1.3-1.675.37-.403.87-.657 1.26-.825.5-.216 1.11-.41 1.81-.59 1.41-.36 3.31-.703 5.67-1.033 4.71-.661 11.36-1.29 19.72-1.884 16.73-1.188 40.38-2.244 69.17-3.123 57.57-1.758 135.73-2.812 220.22-2.812h308.44v227.979h-636.6V334.72z" stroke="#EB0E54" stroke-width="3"/></svg>