<svg width="24" height="24" fill="none" xmlns="http://www.w3.org/2000/svg"><path d="M20 2h-.5L0 21.5v.5c0 1.103.897 2 2 2h.66L22 4.404V4c0-1.103-.897-2-2-2z" fill="#FDDC49"/><path d="M2 2C.897 2 0 2.897 0 4v17.5L19.5 2H2z" fill="#56A959"/><path d="M2.656 24h16.84l-8.475-8.475L2.656 24z" fill="#5796FF"/><path d="M13.508 13.008L22 21.5V4.404l-8.492 8.604z" fill="#CCC"/><path d="M11.023 15.525L19.5 24h.5c1.103 0 2-.897 2-2v-.5l-8.492-8.492-2.484 2.517z" fill="#F2F2F2"/><path opacity=".2" d="M20 2H2C.897 2 0 2.897 0 4v.25c0-1.103.897-2 2-2h18c1.103 0 2 .897 2 2V4c0-1.103-.897-2-2-2z" fill="#fff"/><path opacity=".1" d="M20 23.75H2c-1.103 0-2-.897-2-2V22c0 1.103.897 2 2 2h18c1.103 0 2-.897 2-2v-.25c0 1.103-.897 2-2 2z" fill="#000"/><path d="M18 0c-3.309 0-6 2.691-6 6 0 .234.016.463.041.682.209 2.132 1.35 3.888 2.557 5.747 1.187 1.828 2.414 3.717 2.912 6.17a.5.5 0 00.98 0c.498-2.453 1.725-4.342 2.912-6.17 1.208-1.859 2.348-3.615 2.555-5.74.027-.226.043-.455.043-.689 0-3.309-2.691-6-6-6z" fill="#E53935"/><path opacity=".2" d="M18.003.25a6.11 6.11 0 015.77 4.104 6.001 6.001 0 00-11.539-.006A6.101 6.101 0 0118.004.25z" fill="#fff"/><path opacity=".1" d="M23.957 6.44c-.207 2.124-1.347 3.88-2.555 5.74-1.187 1.827-2.414 3.716-2.912 6.17a.5.5 0 01-.98 0c-.498-2.454-1.725-4.343-2.912-6.17-1.208-1.86-2.348-3.616-2.557-5.748a6.147 6.147 0 01-.034-.569C12.006 5.91 12 5.953 12 6c0 .234.016.463.041.682.209 2.132 1.35 3.888 2.557 5.747 1.187 1.828 2.414 3.717 2.912 6.17a.5.5 0 00.98 0c.498-2.453 1.725-4.342 2.912-6.17 1.208-1.859 2.348-3.615 2.555-5.74.027-.226.043-.455.043-.689 0-.046-.006-.091-.007-.137a6.137 6.137 0 01-.035.577z" fill="#000"/><path d="M18 8a2 2 0 100-4 2 2 0 000 4z" fill="#B71C1C"/><path opacity=".1" d="M18 8a2 2 0 100-4 2 2 0 000 4z" fill="#000"/><path d="M5.5 10.5c-1.654 0-3-1.346-3-3a3.003 3.003 0 014.802-2.399l-.6.8A2.002 2.002 0 003.5 7.5c0 1.102.897 1.999 2 1.999.93 0 1.714-.638 1.937-1.5H6V7h2.5v.5c0 1.654-1.346 3-3 3z" fill="#F2F2F2"/><path d="M24 6c0-3.309-2.691-6-6-6a5.98 5.98 0 00-4.46 2H2C.897 2 0 2.897 0 4v18c0 1.103.897 2 2 2h18c1.103 0 2-.897 2-2V11.497c.965-1.528 1.785-3.04 1.957-4.807.027-.227.043-.456.043-.69z" fill="url(#paint0_linear_1863_39333)"/><defs><linearGradient id="paint0_linear_1863_39333" x1="-1.369" y1="6.492" x2="23.936" y2="18.292" gradientUnits="userSpaceOnUse"><stop stop-color="#fff" stop-opacity=".2"/><stop offset="1" stop-color="#fff" stop-opacity="0"/></linearGradient></defs></svg>