<svg width="80" height="80" fill="none" xmlns="http://www.w3.org/2000/svg"><g clip-path="url(#clip0_2331_29340)"><path d="M40.004 0C61.406 0 78.76 17.291 78.76 38.616S61.406 77.233 40.004 77.233C18.603 77.233 1.25 59.94 1.25 38.616 1.25 17.291 18.603 0 40.004 0z" fill="#fff"/><path d="M45.381 60.82h8.097V14.487h-11.78c-11.844-.01-18.072 6.056-18.072 14.991 0 7.137 3.414 11.331 9.503 15.665L22.563 60.809h8.762L43.094 43.27l-4.08-2.728c-4.95-3.328-7.356-5.928-7.356-11.535 0-4.932 3.479-8.27 10.105-8.27h3.608l.01 40.081z" fill="#EB0E54"/></g><defs><clipPath id="clip0_2331_29340"><path fill="#fff" d="M0 0h80v80H0z"/></clipPath></defs></svg>