<svg width="100" height="39" fill="none" xmlns="http://www.w3.org/2000/svg"><path d="M30 .5s-3.373.055-15.547.055H0v38.334h38.334V30.6H7.77v-6.734l11.552-.104 11.5-.155.156-4.04.155-3.99H7.77V8.326l13.832.104 13.831.155 7.77 15.127 7.823 15.178h18.907V23.348h23.312v15.54h6.734V22.365C99.979.037 101.378 1.59 81.33 1.59c-19.478 0-18.286-1.036-18.649 16.525l-.259 12.743-2.9.156c-1.917.103-3.057-.052-3.42-.518-.31-.363-4.092-7.615-8.392-16.111L40.5.501H30zm63.245 11.97v4.144H69.933v-3.782c0-2.124.156-3.989.363-4.144.156-.207 5.44-.363 11.656-.363h11.293v4.144z" fill="#fff"/><mask id="a" style="mask-type:alpha" maskUnits="userSpaceOnUse" x="0" y="0" width="100" height="39"><path d="M30 .5s-3.373.055-15.547.055H0v38.334h38.334V30.6H7.77v-6.734l11.552-.104 11.5-.155.156-4.04.155-3.99H7.77V8.326l13.832.104 13.831.155 7.77 15.127 7.823 15.178h18.907V23.348h23.312v15.54h6.734V22.365C99.979.037 101.378 1.59 81.33 1.59c-19.478 0-18.286-1.036-18.649 16.525l-.259 12.743-2.9.156c-1.917.103-3.057-.052-3.42-.518-.31-.363-4.092-7.615-8.392-16.111L40.5.501H30zm63.245 11.97v4.144H69.933v-3.782c0-2.124.156-3.989.363-4.144.156-.207 5.44-.363 11.656-.363h11.293v4.144z" fill="#fff"/></mask><g mask="url(#a)"><path d="M41.5 40.5h-43V-2H30l11.5 22.5v20z" fill="#EB0E54"/></g></svg>