<svg width="80" height="80" fill="none" xmlns="http://www.w3.org/2000/svg"><mask id="a" style="mask-type:luminance" maskUnits="userSpaceOnUse" x="0" y="0" width="80" height="80"><path d="M80 0H0v80h80V0z" fill="#fff"/></mask><g mask="url(#a)"><path d="M33.517 64.33c3.587-3.576 9.385-3.576 12.967 0a9.146 9.146 0 010 12.975 9.156 9.156 0 01-12.967 0c-3.564-3.582-3.564-9.392 0-12.974zm15.407-15.405c-3.576 3.576-3.576 9.38 0 12.974 3.587 3.57 9.397 3.57 12.978 0 3.576-3.588 3.576-9.398 0-12.974-3.581-3.577-9.391-3.577-12.978 0zM64.35 33.511c-3.581 3.576-3.581 9.387 0 12.957a9.143 9.143 0 0012.972 0c3.57-3.57 3.57-9.38 0-12.957a9.162 9.162 0 00-12.972 0zM18.109 48.925c-3.593 3.576-3.593 9.386 0 12.974 3.58 3.57 9.39 3.57 12.972 0 3.576-3.588 3.576-9.398 0-12.974-3.587-3.577-9.391-3.577-12.972 0zM2.69 33.511c-3.587 3.582-3.587 9.387 0 12.957a9.136 9.136 0 0012.967 0c3.587-3.57 3.587-9.375 0-12.957-3.581-3.588-9.391-3.588-12.967 0zm30.827 0c-3.564 3.576-3.564 9.387 0 12.957a9.156 9.156 0 0012.984 0c3.581-3.57 3.581-9.38 0-12.957-3.599-3.588-9.397-3.588-12.984 0zM18.109 18.1a9.156 9.156 0 000 12.975 9.173 9.173 0 0012.972 0c3.576-3.588 3.576-9.392 0-12.974-3.587-3.588-9.391-3.588-12.972 0zm30.815 0c-3.576 3.583-3.576 9.387 0 12.975 3.587 3.582 9.397 3.582 12.978 0 3.576-3.588 3.576-9.392 0-12.974-3.581-3.588-9.391-3.588-12.978 0z" fill="#fff"/><path fill-rule="evenodd" clip-rule="evenodd" d="M33.517 2.69c3.587-3.587 9.385-3.587 12.984 0 3.581 3.588 3.581 9.387 0 12.97-3.599 3.581-9.397 3.581-12.984 0-3.564-3.583-3.564-9.382 0-12.97z" fill="#B0CB1F"/></g></svg>