<svg width="80" height="22" fill="none" xmlns="http://www.w3.org/2000/svg"><g clip-path="url(#clip0_2331_29295)" fill-rule="evenodd" clip-rule="evenodd" fill="#fff"><path d="M55.857 8.352H43.713c-2.008 0-2.912.55-3.288 1.683l-1.136 3.634h12.144c2.008 0 2.912-.55 3.288-1.684l1.136-3.633zM14.19 5.325h-2.288c-4.6 0-8.52 11.366-3.104 11.35h3.488c2.008 0 3.496.716 2.84 2.65l-.904 2.66h-3.696l-3.008-.024c-3.84-.032-6.32-1.888-7.216-4.712-.976-3.044.4-9.391 4.36-13.466C6.958 1.423 10.142 0 14.222 0h7.544l-1.184 3.335c-.76 2.155-2.328 1.99-3.208 1.99H14.19zM52.896 16.69H40.752c-2.008 0-2.92.551-3.288 1.684L36.32 22h12.144c2.008 0 2.92-.55 3.288-1.683l1.144-3.626zM58.672.024H46.528c-2.008 0-2.92.551-3.288 1.684l-1.136 3.626h12.144c2.008 0 2.92-.55 3.288-1.684L58.672.023zM28.137 5.317h3.032c2.584 0 1.992 3.17.68 6.261-1.152 2.714-3.184 5.128-5.608 5.128H21.2c-2.008 0-2.936.551-3.328 1.684l-1.24 3.618h3.688l3.608-.032c3.208-.023 5.824-.251 8.896-2.973 3.24-2.879 7.016-10.327 6.368-14.622-.504-3.374-2.344-4.365-6.816-4.365h-8.128l-4.736 13.639h3.008c1.784 0 2.696.023 3.64-2.494l1.976-5.844zM53.82 22h5.728l2.456-6.922 2.56-2.123 2.024 6.26C67.212 21.152 67.852 22 69.26 22h4.392L69.124 9.714 79.996 0h-7.024l-6.6 6.922c-.768.802-1.552 1.596-2.32 2.548h-.064L67.26 0h-5.728L53.82 22z"/></g><defs><clipPath id="clip0_2331_29295"><path fill="#fff" d="M0 0h80v22H0z"/></clipPath></defs></svg>