<svg width="32" height="32" fill="none" xmlns="http://www.w3.org/2000/svg"><g clip-path="url(#clip0_3001_25250)" fill="#B89A81"><path d="M16.403 9.336c4.467 0 8.098-3.655 8.11-8.157h-3.981c0 2.298-1.854 4.176-4.123 4.176-2.275 0-4.123-1.884-4.123-4.188H8.305c0 4.502 3.625 8.17 8.098 8.17z"/><path d="M10.272 13.792c1.38-4.254-.971-8.839-5.248-10.237L3.785 7.346c2.192.717 3.407 3.051 2.702 5.213-.705 2.157-3.063 3.336-5.26 2.625L0 18.969c4.283 1.398 8.892-.924 10.272-5.177z"/><path d="M12.622 20.99c-3.614-2.625-8.702-1.807-11.356 1.836l3.222 2.346c1.357-1.866 3.958-2.293 5.794-.96 1.836 1.339 2.227 3.945.87 5.812l3.218 2.34c2.648-3.638 1.866-8.744-1.748-11.375h-.006.006z"/><path d="M20.19 20.99c-3.614 2.624-4.402 7.718-1.76 11.362l3.223-2.34c-1.351-1.867-.954-4.473.882-5.806 1.843-1.333 4.444-.9 5.8.971l3.217-2.34c-2.642-3.643-7.737-4.478-11.357-1.854h-.006"/><path d="M22.532 13.785c1.38 4.248 5.977 6.576 10.266 5.19l-1.226-3.792c-2.192.711-4.55-.468-5.249-2.63-.699-2.168.516-4.508 2.713-5.22l-1.232-3.785c-4.283 1.387-6.647 5.972-5.272 10.225v.012z"/></g><defs><clipPath id="clip0_3001_25250"><path fill="#fff" d="M0 0h32v32H0z"/></clipPath></defs></svg>