<svg width="201" height="232" fill="none" xmlns="http://www.w3.org/2000/svg"><path d="M136.285 56.902c31.835.385 58.022-25.287 58.417-57.354l-28.403-.383c-.185 16.394-13.513 29.595-29.711 29.375-16.238-.234-29.282-13.755-29.083-30.189l-28.376-.33c-.381 32.028 25.215 58.416 57.076 58.854l.08.027z" fill="#C2D222"/><path d="M179.58 89.142c9.38 30.373 41.798 47.249 72.295 37.654l-8.363-27.085c-15.614 4.897-32.214-3.695-36.976-19.129-4.748-15.473 4.09-32.068 19.757-36.991l-8.376-27.045c-30.496 9.595-47.73 42.13-38.364 72.543l-.013.04" fill="#C2D222"/><path d="M162.419 139.934c-25.814 18.36-31.884 54.438-13.465 80.541l23.058-16.361c-9.44-13.351-6.397-31.809 6.717-41.141 13.153-9.319 31.531-6.044 40.971 7.308l23.005-16.335c-18.392-26.05-54.432-32.358-80.286-14.012l-.013.04.013-.04z" fill="#C2D222"/><path d="M108.427 139.515c-25.606-18.998-61.938-13.624-81.109 11.985l22.807 16.987c9.827-13.123 28.36-15.975 41.37-6.295 12.97 9.667 15.577 28.231 5.776 41.408l22.794 16.893c19.185-25.649 13.968-61.979-11.638-80.978z" fill="#C2D222"/><path d="M92.116 88.028C102.268 57.958 85.99 25.23 55.8 14.949l-9.047 26.799c15.426 5.208 23.816 21.945 18.66 37.22-5.17 15.313-22.015 23.486-37.482 18.264l-9.047 26.799c30.217 10.202 63.068-5.895 73.233-36.003z" fill="#C2D222"/></svg>