<svg width="80" height="75" fill="none" xmlns="http://www.w3.org/2000/svg"><g clip-path="url(#clip0_2331_29384)"><path d="M45.46 33.472c-.3.176-.773.163-1.067-.02l-1.732-1.035a1.14 1.14 0 01-.385-.428 1.158 1.158 0 01-.18-.548l-.044-2.03c-.013-.342.212-.76.514-.937l20.816-12.196L34.172.267C33.85.087 33.424 0 33 0c-.425 0-.85.088-1.172.267L2.617 16.279l32.725 19.158c.303.167.533.563.533.92v27.95c0 .35-.25.753-.555.917l-1.76.984c-.147.078-.333.12-.528.12H33a1.136 1.136 0 01-.562-.12l-1.767-.984c-.3-.16-.546-.566-.546-.918V39.391c-.015-.182-.148-.405-.293-.49L1 22.024v33.06c0 .74.518 1.653 1.154 2.027L31.847 74.72c.317.187.735.28 1.153.279.418-.001.836-.089 1.153-.278L63.85 57.11c.633-.378 1.15-1.286 1.15-2.027v-33.06l-19.54 11.45z" fill="#fff"/></g><defs><clipPath id="clip0_2331_29384"><path fill="#fff" d="M0 0h80v75H0z"/></clipPath></defs></svg>