<svg width="343" height="147" fill="none" xmlns="http://www.w3.org/2000/svg"><path opacity=".8" d="M97.436 202.5v-41.046H-65.16V122.68l1.486-.013 61.45-.55v-.001l59.757-.806.772-20.05.766-19.639H-65.16V40.07l1.51.011 73.584.55h.005l73.582.827.904.01.414.803 41.337 80.383L167.37 202.5h98.176v-82.586h127.016V202.5h32.827v-86.316c0-29.722.464-51.363-.501-67.213-.969-15.903-3.368-25.51-8.727-31.474-5.318-5.918-13.854-8.569-28.101-9.644-14.226-1.074-33.648-.56-60.384-.56-25.96 0-44.904-.343-58.845.595-13.985.94-22.505 3.158-27.901 7.94-5.356 4.747-7.941 12.304-9.23 24.844-1.127 10.96-1.241 25.38-1.576 44.49l-.16 8.479-1.378 67.72-.028 1.393-1.392.074-15.433.826c-5.136.278-9.316.214-12.494-.255-3.086-.455-5.611-1.343-6.959-3.074h.001a9.093 9.093 0 01-.62-.923 60.606 60.606 0 01-.957-1.638 302.936 302.936 0 01-3.017-5.49c-2.481-4.598-5.869-11.015-9.918-18.777-8.098-15.522-18.845-36.444-30.282-59.017L109.549 1.5H54.61l-.04.001c-.037 0-.092 0-.166.002l-.682.01c-.619.008-1.575.018-2.923.032-2.697.027-6.966.063-13.259.099-12.586.071-33.266.143-65.65.143h-75.39V202.5H97.436zm168.11-136.97c0-5.674.208-11.018.558-15.063.174-2.017.385-3.743.631-5.037.123-.643.262-1.222.423-1.69.081-.235.179-.476.301-.698a2.34 2.34 0 01.514-.651c.231-.216.471-.322.565-.363a3.64 3.64 0 01.534-.176c.34-.087.764-.162 1.24-.229.964-.135 2.299-.261 3.944-.378 3.298-.234 7.946-.44 13.586-.613 11.284-.345 26.596-.552 43.141-.552h61.579v47.046H265.546V65.53z" stroke="#F5F7FA" stroke-width="3"/></svg>