<svg width="180" height="38" viewBox="0 0 180 38" fill="none" xmlns="http://www.w3.org/2000/svg">
<g clip-path="url(#clip0_1504_4024)">
<path d="M48.2846 0L38.0076 29.754H31.8945L24.2309 7.73602L16.4345 29.754H10.2771L0 0H5.9802L13.688 22.6129L21.7059 0H27.0216L34.8624 22.7404L42.7917 0H48.2846Z" fill="#535557"/>
<path d="M59.7074 6.80078C63.1922 6.80078 65.8501 7.60839 67.6811 9.22361C69.5416 10.8105 70.4718 13.2191 70.4718 16.4496V29.7539H65.2447V26.9909C64.5654 27.9827 63.591 28.7477 62.321 29.2863C61.0807 29.7964 59.5746 30.0513 57.8027 30.0513C56.0308 30.0513 54.4802 29.768 53.1513 29.2012C51.8224 28.6061 50.7888 27.7986 50.0505 26.7785C49.3418 25.7299 48.9873 24.5539 48.9873 23.2505C48.9873 21.2101 49.77 19.5808 51.3352 18.3624C52.9298 17.1155 55.4253 16.4921 58.8215 16.4921H64.9346V16.152C64.9346 14.5651 64.4325 13.3466 63.4284 12.4965C62.4539 11.6464 60.9921 11.2214 59.043 11.2214C57.714 11.2214 56.3999 11.4197 55.1004 11.8164C53.8307 12.2132 52.7527 12.7657 51.8668 13.4742L49.6962 9.60615C50.9364 8.69936 52.4279 8.0051 54.1703 7.52339C55.9127 7.04165 57.7583 6.80078 59.7074 6.80078ZM58.9543 26.1833C60.3424 26.1833 61.5679 25.8858 62.6311 25.2908C63.7238 24.6672 64.4917 23.7889 64.9346 22.6553V20.02H59.2202C56.0308 20.02 54.436 21.026 54.436 23.0379C54.436 24.0014 54.8347 24.7666 55.632 25.3333C56.4294 25.9 57.5368 26.1833 58.9543 26.1833Z" fill="#535557"/>
<path d="M96.0502 25.5036V29.7542H75.6289V26.3962L88.6083 11.3067H75.8948V7.05615H95.6958V10.4141L82.6722 25.5036H96.0502Z" fill="#535557"/>
<path d="M119.627 25.5036V29.7542H99.2056V26.3962L112.185 11.3067H99.4713V7.05615H119.272V10.4141L106.249 25.5036H119.627Z" fill="#535557"/>
<path d="M147.633 7.05615V29.7542H142.362V26.8638C141.476 27.8839 140.368 28.6773 139.04 29.244C137.711 29.7825 136.278 30.0517 134.743 30.0517C131.583 30.0517 129.087 29.2157 127.256 27.5438C125.455 25.8437 124.554 23.3359 124.554 20.0204V7.05615H130.092V19.2978C130.092 21.3381 130.564 22.8683 131.509 23.8884C132.483 24.8802 133.857 25.3761 135.629 25.3761C137.607 25.3761 139.172 24.7952 140.324 23.6333C141.506 22.4432 142.096 20.7429 142.096 18.5327V7.05615H147.633Z" fill="#535557"/>
<path d="M167.996 6.80078C170.299 6.80078 172.351 7.28252 174.153 8.24597C175.984 9.20943 177.417 10.5696 178.45 12.3265C179.484 14.0834 180 16.1095 180 18.4048C180 20.7 179.484 22.7403 178.45 24.5256C177.417 26.2826 175.984 27.6426 174.153 28.6061C172.351 29.5696 170.299 30.0513 167.996 30.0513C164.806 30.0513 162.281 29.0312 160.421 26.9909V37.9999H154.883V7.05581H160.155V10.0312C161.07 8.9544 162.192 8.14679 163.521 7.60839C164.88 7.06998 166.371 6.80078 167.996 6.80078ZM167.375 25.5032C169.413 25.5032 171.082 24.8515 172.38 23.548C173.71 22.2444 174.374 20.5301 174.374 18.4048C174.374 16.2795 173.71 14.5651 172.38 13.2616C171.082 11.9581 169.413 11.3064 167.375 11.3064C166.046 11.3064 164.85 11.6039 163.787 12.199C162.724 12.7657 161.882 13.5875 161.262 14.6643C160.642 15.7411 160.332 16.988 160.332 18.4048C160.332 19.8217 160.642 21.0685 161.262 22.1453C161.882 23.222 162.724 24.058 163.787 24.6531C164.85 25.2198 166.046 25.5032 167.375 25.5032Z" fill="#535557"/>
</g>
<defs>
<clipPath id="clip0_1504_4024">
<rect width="180" height="38" fill="white"/>
</clipPath>
</defs>
</svg>
