<svg width="180" height="43" viewBox="0 0 180 43" fill="none" xmlns="http://www.w3.org/2000/svg">
<path d="M16.9397 37.722L6.3875 31.6753C5.5699 31.2102 5.06742 30.3476 5.06742 29.4089V13.5691C5.06742 12.6303 5.5699 11.7678 6.3875 11.3026L16.9397 5.25598C17.3314 5.02764 17.5784 4.61325 17.5784 4.16504V1.26432C17.5784 0.291774 16.5223 -0.317123 15.6707 0.173377L3.84953 6.9389C1.46487 8.30892 -1.81138e-09 10.829 0 13.5691L1.04769e-08 29.4174C1.22827e-08 32.1489 1.46487 34.6775 3.84953 36.0476L15.6622 42.8215C16.5139 43.3035 17.5699 42.7031 17.5699 41.7306V38.8299C17.5699 38.3648 17.3314 37.9503 16.9397 37.722Z" fill="#FCD000"/>
<path d="M26.1124 37.722L36.6561 31.6754C37.4736 31.2102 37.9762 30.3475 37.9762 29.4089V13.5691C37.9762 12.6304 37.4736 11.7678 36.6561 11.3026L26.1124 5.25597C25.7206 5.02763 25.4736 4.61324 25.4736 4.16503V1.26431C25.4736 0.291774 26.5297 -0.317123 27.3814 0.173377L39.1941 6.94735C41.5787 8.31737 43.0436 10.8376 43.0436 13.5775V29.4258C43.0436 32.1573 41.5787 34.6859 39.1941 36.056L27.3814 42.8299C26.5297 43.312 25.4736 42.7116 25.4736 41.739V38.8383C25.4822 38.3647 25.7206 37.9503 26.1124 37.722Z" fill="#FCD000"/>
<path d="M27.0855 12.5093C28.2968 12.5093 29.2788 13.485 29.2788 14.6885V28.1373C29.2788 29.4853 28.1789 30.578 26.8224 30.578C26.0241 30.578 25.2755 30.1925 24.8153 29.5445L18.1968 20.3885V28.3944C18.1968 29.6003 17.2128 30.578 15.999 30.578C14.7853 30.578 13.8013 29.6003 13.8013 28.3944V14.9802C13.8013 13.6155 14.9148 12.5093 16.2883 12.5093C17.1004 12.5093 17.8613 12.9032 18.3265 13.5644L24.8922 22.681V14.6885C24.8922 13.485 25.8742 12.5093 27.0855 12.5093Z" fill="#FCD000"/>
<mask id="mask0_1504_4056" style="mask-type:luminance" maskUnits="userSpaceOnUse" x="55" y="12" width="125" height="19">
<path d="M179.125 12.4224H55.541V30.339H179.125V12.4224Z" fill="white"/>
</mask>
<g mask="url(#mask0_1504_4056)">
<path d="M57.8197 29.8722C56.5612 29.8722 55.541 28.8586 55.541 27.6081V15.4574C55.541 14.207 56.5612 13.1934 57.8197 13.1934C59.0782 13.1934 60.0984 14.207 60.0984 15.4574V19.7085H65.8907V15.4574C65.8907 14.207 66.9109 13.1934 68.1694 13.1934C69.428 13.1934 70.4482 14.207 70.4482 15.4574V27.6081C70.4482 28.8586 69.428 29.8722 68.1694 29.8722C66.9109 29.8722 65.8907 28.8586 65.8907 27.6081V23.357H60.0984V27.6081C60.0984 28.8586 59.0782 29.8722 57.8197 29.8722Z" fill="white"/>
<path d="M88.9992 21.5327C88.9992 23.3895 88.6359 24.9559 87.909 26.2318C87.1824 27.5023 86.2015 28.466 84.9666 29.1229C83.7315 29.7744 82.3545 30.1001 80.8354 30.1001C79.3053 30.1001 77.9228 29.7717 76.6878 29.1148C75.4582 28.4524 74.4801 27.4859 73.7534 26.2155C73.0321 24.9396 72.6714 23.3787 72.6714 21.5327C72.6714 19.6759 73.0321 18.1122 73.7534 16.8418C74.4801 15.566 75.4582 14.6023 76.6878 13.9507C77.9228 13.2938 79.3053 12.9653 80.8354 12.9653C82.3545 12.9653 83.7315 13.2938 84.9666 13.9507C86.2015 14.6023 87.1824 15.566 87.909 16.8418C88.6359 18.1122 88.9992 19.6759 88.9992 21.5327ZM84.3107 21.5327C84.3107 20.5337 84.1769 19.6922 83.9091 19.0081C83.6468 18.3185 83.2561 17.7974 82.737 17.4445C82.2234 17.0861 81.5894 16.907 80.8354 16.907C80.0811 16.907 79.4446 17.0861 78.9255 17.4445C78.4118 17.7974 78.0211 18.3185 77.7534 19.0081C77.4911 19.6922 77.3599 20.5337 77.3599 21.5327C77.3599 22.5318 77.4911 23.3759 77.7534 24.0655C78.0211 24.7496 78.4118 25.2708 78.9255 25.6291C79.4446 25.982 80.0811 26.1585 80.8354 26.1585C81.5894 26.1585 82.2234 25.982 82.737 25.6291C83.2561 25.2708 83.6468 24.7496 83.9091 24.0655C84.1769 23.3759 84.3107 22.5318 84.3107 21.5327Z" fill="white"/>
<path d="M93.8776 29.8722C92.5496 29.8722 91.4731 28.8027 91.4731 27.4832V15.5823C91.4731 14.2629 92.5496 13.1934 93.8776 13.1934H95.1127H98.7518C100.031 13.1934 101.105 13.3644 101.973 13.7064C102.848 14.0485 103.507 14.5316 103.949 15.156C104.397 15.7804 104.621 16.5161 104.621 17.3631C104.621 17.9765 104.484 18.5358 104.211 19.0407C103.943 19.5456 103.567 19.9691 103.08 20.3111C102.594 20.6478 102.025 20.8813 101.375 21.0115V21.1745C102.096 21.2015 102.752 21.3835 103.342 21.7201C103.932 22.0513 104.403 22.51 104.752 23.0964C105.102 23.6773 105.276 24.3614 105.276 25.1486C105.276 26.0608 105.036 26.8724 104.555 27.5837C104.08 28.295 103.402 28.8542 102.522 29.2614C101.643 29.6685 100.593 29.8722 99.3745 29.8722H95.4241H93.8776ZM96.0307 26.2563H98.1617C98.9269 26.2563 99.5004 26.1151 99.883 25.8327C100.266 25.545 100.456 25.1216 100.456 24.5623C100.456 24.1714 100.367 23.8403 100.186 23.5688C100.006 23.2973 99.7492 23.091 99.4158 22.9498C99.0882 22.8086 98.6918 22.7381 98.2273 22.7381H96.0307V26.2563ZM96.0307 19.9365H97.8996C98.2985 19.9365 98.6505 19.8741 98.9564 19.7492C99.2633 19.6243 99.5004 19.4452 99.6695 19.2117C99.8446 18.9729 99.9322 18.6824 99.9322 18.3404C99.9322 17.8246 99.7463 17.4309 99.3745 17.1594C99.0036 16.8826 98.5335 16.7441 97.9649 16.7441H96.0307V19.9365Z" fill="white"/>
<path d="M123.279 21.5327C123.279 23.3895 122.916 24.9559 122.189 26.2318C121.462 27.5023 120.482 28.466 119.246 29.1229C118.012 29.7744 116.635 30.1001 115.115 30.1001C113.586 30.1001 112.203 29.7717 110.968 29.1148C109.738 28.4524 108.76 27.4859 108.033 26.2155C107.312 24.9396 106.951 23.3787 106.951 21.5327C106.951 19.6759 107.312 18.1122 108.033 16.8418C108.76 15.566 109.738 14.6023 110.968 13.9507C112.203 13.2938 113.586 12.9653 115.115 12.9653C116.635 12.9653 118.012 13.2938 119.246 13.9507C120.482 14.6023 121.462 15.566 122.189 16.8418C122.916 18.1122 123.279 19.6759 123.279 21.5327ZM118.591 21.5327C118.591 20.5337 118.457 19.6922 118.189 19.0081C117.927 18.3185 117.536 17.7974 117.017 17.4445C116.503 17.0861 115.87 16.907 115.115 16.907C114.362 16.907 113.724 17.0861 113.206 17.4445C112.692 17.7974 112.301 18.3185 112.033 19.0081C111.771 19.6922 111.64 20.5337 111.64 21.5327C111.64 22.5318 111.771 23.3759 112.033 24.0655C112.301 24.7496 112.692 25.2708 113.206 25.6291C113.724 25.982 114.362 26.1585 115.115 26.1585C115.87 26.1585 116.503 25.982 117.017 25.6291C117.536 25.2708 117.927 24.7496 118.189 24.0655C118.457 23.3759 118.591 22.5318 118.591 21.5327Z" fill="white"/>
<path d="M132.245 14.8547H136.736C138.147 14.8547 139.395 15.1398 140.483 15.7098C141.575 16.2799 142.43 17.0888 143.048 18.1368C143.671 19.1846 143.982 20.1863 143.982 21.6196C143.982 22.9769 143.671 23.9135 143.048 24.907C142.43 25.9006 141.575 26.6688 140.483 27.2118C139.395 27.7547 138.147 28.0262 136.736 28.0262H132.245C130.824 28.0262 129.565 27.7574 128.466 27.2199C127.373 26.6824 126.515 25.9142 125.892 24.9152C125.275 23.9162 124.966 22.9661 124.966 21.587C124.966 20.1537 125.28 19.1547 125.909 18.1122C126.543 17.0699 127.406 16.2664 128.498 15.7017C129.597 15.137 130.845 14.8547 132.245 14.8547ZM132.245 18.5683C131.676 18.5683 131.152 18.6743 130.671 18.8859C130.195 19.0977 129.814 19.4425 129.523 19.9203C129.239 20.398 129.097 20.7944 129.097 21.587C129.097 22.3145 129.245 22.6566 129.54 23.091C129.84 23.5253 130.229 23.8375 130.704 24.0275C131.185 24.2176 131.698 24.3125 132.245 24.3125H136.77C137.326 24.3125 137.835 24.2148 138.294 24.0194C138.758 23.8184 139.127 23.5036 139.401 23.0746C139.679 22.6403 139.819 22.3145 139.819 21.6196C139.819 20.8269 139.679 20.4279 139.401 19.9446C139.127 19.4615 138.758 19.1113 138.294 18.8941C137.835 18.6769 137.326 18.5683 136.77 18.5683H132.245ZM134.474 12.4224C135.651 12.4224 136.605 13.3704 136.605 14.5398V28.1999C136.605 29.3693 135.651 30.3173 134.474 30.3173C133.297 30.3173 132.343 29.3693 132.343 28.1999V14.5398C132.343 13.3704 133.297 12.4224 134.474 12.4224Z" fill="white"/>
<path d="M161.752 21.5327C161.752 23.3895 161.388 24.9559 160.661 26.2318C159.935 27.5023 158.954 28.466 157.719 29.1229C156.484 29.7744 155.107 30.1001 153.588 30.1001C152.058 30.1001 150.676 29.7717 149.44 29.1148C148.211 28.4524 147.233 27.4859 146.506 26.2155C145.784 24.9396 145.424 23.3787 145.424 21.5327C145.424 19.6759 145.784 18.1122 146.506 16.8418C147.233 15.566 148.211 14.6023 149.44 13.9507C150.676 13.2938 152.058 12.9653 153.588 12.9653C155.107 12.9653 156.484 13.2938 157.719 13.9507C158.954 14.6023 159.935 15.566 160.661 16.8418C161.388 18.1122 161.752 19.6759 161.752 21.5327ZM157.063 21.5327C157.063 20.5337 156.93 19.6922 156.662 19.0081C156.399 18.3185 156.009 17.7974 155.49 17.4445C154.976 17.0861 154.342 16.907 153.588 16.907C152.834 16.907 152.197 17.0861 151.678 17.4445C151.165 17.7974 150.774 18.3185 150.506 19.0081C150.244 19.6922 150.112 20.5337 150.112 21.5327C150.112 22.5318 150.244 23.3759 150.506 24.0655C150.774 24.7496 151.165 25.2708 151.678 25.6291C152.197 25.982 152.834 26.1585 153.588 26.1585C154.342 26.1585 154.976 25.982 155.49 25.6291C156.009 25.2708 156.399 24.7496 156.662 24.0655C156.93 23.3759 157.063 22.5318 157.063 21.5327Z" fill="white"/>
<path d="M166.263 29.8722C165.004 29.8722 163.984 28.8586 163.984 27.6081V15.4574C163.984 14.207 165.004 13.1934 166.263 13.1934C167.521 13.1934 168.541 14.207 168.541 15.4574V19.7085H174.333V15.4574C174.333 14.207 175.353 13.1934 176.612 13.1934C177.87 13.1934 178.89 14.207 178.89 15.4574V27.6081C178.89 28.8586 177.87 29.8722 176.612 29.8722C175.353 29.8722 174.333 28.8586 174.333 27.6081V23.357H168.541V27.6081C168.541 28.8586 167.521 29.8722 166.263 29.8722Z" fill="white"/>
</g>
</svg>
