<svg width="180" height="38" viewBox="0 0 180 38" fill="none" xmlns="http://www.w3.org/2000/svg">
<g clip-path="url(#clip0_1504_4202)">
<path d="M48.2846 0L38.0076 29.5303H31.8945L24.2309 7.67786L16.4345 29.5303H10.2771L0 0H5.9802L13.688 22.4429L21.7059 0H27.0216L34.8624 22.5694L42.7917 0H48.2846Z" fill="#21BA4C"/>
<path d="M59.7074 6.75C63.1922 6.75 65.8501 7.55153 67.6811 9.15461C69.5416 10.7295 70.4718 13.1201 70.4718 16.3262V29.5305H65.2447V26.7884C64.5654 27.7727 63.591 28.5319 62.321 29.0665C61.0807 29.5727 59.5746 29.8257 57.8027 29.8257C56.0308 29.8257 54.4802 29.5446 53.1513 28.982C51.8224 28.3914 50.7888 27.59 50.0505 26.5775C49.3418 25.5368 48.9873 24.3697 48.9873 23.0761C48.9873 21.051 49.77 19.4339 51.3352 18.2246C52.9298 16.9871 55.4253 16.3684 58.8215 16.3684H64.9346V16.0309C64.9346 14.456 64.4325 13.2466 63.4284 12.4029C62.4539 11.5592 60.9921 11.1373 59.043 11.1373C57.714 11.1373 56.3999 11.3342 55.1004 11.7279C53.8307 12.1217 52.7527 12.6701 51.8668 13.3732L49.6962 9.53427C50.9364 8.63431 52.4279 7.94527 54.1703 7.46717C55.9127 6.98906 57.7583 6.75 59.7074 6.75ZM58.9543 25.9868C60.3424 25.9868 61.5679 25.6916 62.6311 25.101C63.7238 24.4821 64.4917 23.6104 64.9346 22.4853V19.8698H59.2202C56.0308 19.8698 54.436 20.8682 54.436 22.865C54.436 23.8213 54.8347 24.5807 55.632 25.1432C56.4294 25.7056 57.5368 25.9868 58.9543 25.9868Z" fill="#21BA4C"/>
<path d="M96.0502 25.3117V29.5303H75.6289V26.1976L88.6083 11.2215H75.8948V7.00293H95.6958V10.3356L82.6722 25.3117H96.0502Z" fill="#21BA4C"/>
<path d="M119.627 25.3117V29.5303H99.2056V26.1976L112.185 11.2215H99.4713V7.00293H119.272V10.3356L106.249 25.3117H119.627Z" fill="#21BA4C"/>
<path d="M147.633 7.00293V29.5303H142.362V26.6617C141.476 27.6741 140.368 28.4615 139.04 29.0239C137.711 29.5585 136.278 29.8255 134.743 29.8255C131.583 29.8255 129.087 28.9958 127.256 27.3366C125.455 25.6492 124.554 23.1602 124.554 19.8697V7.00293H130.092V19.1526C130.092 21.1775 130.564 22.6962 131.509 23.7086C132.483 24.693 133.857 25.1851 135.629 25.1851C137.607 25.1851 139.172 24.6086 140.324 23.4554C141.506 22.2743 142.096 20.5867 142.096 18.3931V7.00293H147.633Z" fill="#21BA4C"/>
<path d="M167.996 6.75C170.299 6.75 172.351 7.22811 174.153 8.18433C175.984 9.14054 177.417 10.4905 178.45 12.2342C179.484 13.9779 180 15.9887 180 18.2668C180 20.5448 179.484 22.5697 178.45 24.3416C177.417 26.0853 175.984 27.4352 174.153 28.3914C172.351 29.3476 170.299 29.8257 167.996 29.8257C164.806 29.8257 162.281 28.8133 160.421 26.7884V37.7145H154.883V7.00311H160.155V9.95614C161.07 8.88742 162.192 8.08589 163.521 7.55153C164.88 7.01717 166.371 6.75 167.996 6.75ZM167.375 25.3118C169.413 25.3118 171.082 24.665 172.38 23.3713C173.71 22.0775 174.374 20.3761 174.374 18.2668C174.374 16.1575 173.71 14.456 172.38 13.1623C171.082 11.8686 169.413 11.2217 167.375 11.2217C166.046 11.2217 164.85 11.517 163.787 12.1076C162.724 12.6701 161.882 13.4857 161.262 14.5544C160.642 15.6231 160.332 16.8606 160.332 18.2668C160.332 19.673 160.642 20.9104 161.262 21.9791C161.882 23.0478 162.724 23.8775 163.787 24.4681C164.85 25.0305 166.046 25.3118 167.375 25.3118Z" fill="#21BA4C"/>
</g>
<defs>
<clipPath id="clip0_1504_4202">
<rect width="180" height="37.7143" fill="white"/>
</clipPath>
</defs>
</svg>
