<svg width="180" height="42" viewBox="0 0 180 42" fill="none" xmlns="http://www.w3.org/2000/svg">
<path d="M177.545 22.8224L166.879 12.252L163.861 15.3728L171.307 22.8224L163.861 30.3727L166.879 33.4936L177.545 22.8224Z" fill="#DC6655"/>
<path d="M8.01193 33.1914C5.89902 33.1914 4.08795 32.7887 2.98119 31.8826C1.17012 30.5739 0.46582 28.8625 0.46582 26.2451V6.71489H4.99349V12.7551H11.5335V17.1846H4.99349V25.4397C4.99349 27.0504 5.29533 27.8558 6.10026 28.3592C6.60333 28.6612 7.50886 28.8625 8.91747 28.8625C9.823 28.8625 11.5335 28.7618 11.5335 28.7618V32.8894C11.5335 32.8894 9.92362 33.1914 8.01193 33.1914ZM131.768 29.0639C129.756 31.9833 126.838 33.4935 122.914 33.4935C119.695 33.4935 116.978 32.4867 114.965 30.4732C112.953 28.4599 111.947 25.9431 111.947 22.923C111.947 19.9028 112.953 17.386 114.965 15.3727C116.978 13.3592 119.494 12.3524 122.612 12.3524C125.53 12.3524 127.945 13.3592 129.856 15.4732C131.768 17.4867 132.673 20.1042 132.673 23.0236C132.673 24.131 132.472 24.9364 132.472 24.9364H116.777C117.078 26.3458 117.783 27.3524 118.89 28.1579C119.996 28.9632 121.405 29.3659 123.015 29.3659C125.229 29.3659 126.939 28.5606 128.046 26.9497L131.768 29.0639ZM116.777 21.0102H128.046C127.743 19.5001 127.139 18.3928 126.134 17.5874C125.128 16.782 123.92 16.3793 122.512 16.3793C121.003 16.3793 119.695 16.782 118.688 17.688C117.783 18.5941 117.078 19.7015 116.777 21.0102ZM79.1466 29.0639C77.1343 31.9833 74.2165 33.4935 70.2925 33.4935C67.0728 33.4935 64.3563 32.4867 62.3439 30.4732C60.3316 28.4599 59.3255 25.9431 59.3255 22.923C59.3255 19.9028 60.3316 17.386 62.3439 15.3727C64.3563 13.3592 66.8716 12.3524 69.9907 12.3524C72.9085 12.3524 75.3233 13.3592 77.235 15.4732C79.1466 17.4867 80.0522 20.1042 80.0522 23.0236C80.0522 24.131 79.8509 24.9364 79.8509 24.9364H64.155C64.4569 26.3458 65.1612 27.3524 66.2679 28.1579C67.3747 28.9632 68.7833 29.3659 70.3932 29.3659C72.6067 29.3659 74.3171 28.5606 75.4239 26.9497L79.1466 29.0639ZM64.155 21.0102H75.4239C75.1221 19.5001 74.5183 18.3928 73.5122 17.5874C72.5061 16.782 71.2987 16.3793 69.89 16.3793C68.3809 16.3793 67.0728 16.782 66.0667 17.688C65.0606 18.5941 64.4569 19.7015 64.155 21.0102ZM21.595 8.22496C21.595 6.71489 20.3875 5.50684 18.8783 5.50684C17.3692 5.50684 16.1617 6.71489 16.1617 8.22496C16.1617 9.73503 17.3692 10.9431 18.8783 10.9431C20.3875 10.9431 21.595 9.73503 21.595 8.22496ZM105.105 32.9901L110.338 12.8558H105.709L102.489 27.0504H102.187L98.4647 12.8558H93.7358L89.9124 27.0504H89.6106L86.3909 12.8558H81.7626L86.9946 32.9901H92.3272L95.9493 18.7954H96.2511L99.8733 32.9901H105.105ZM55.9047 32.9901V20.5068C55.9047 17.9901 55.2004 15.9766 53.7916 14.5672C52.383 13.0572 50.5721 12.3524 48.2579 12.3524C45.8431 12.3524 43.529 13.6612 42.3216 15.7753H42.0198C41.0136 13.6612 38.9007 12.3524 36.4859 12.3524C34.1717 12.3524 32.1595 13.4599 31.0527 15.272H30.8515V12.8558H26.2232V32.9901H30.8515V21.7149C30.8515 20.1042 31.254 18.7954 32.1595 17.8894C32.9644 17.0841 33.9706 16.5807 35.178 16.5807C36.2848 16.5807 37.1902 16.9834 37.7939 17.688C38.3977 18.3928 38.6995 19.5001 38.6995 20.8088V32.9901H43.3278V21.7149C43.3278 20.1042 43.7302 18.7954 44.5351 17.8894C45.2394 17.0841 46.3462 16.6814 47.5536 16.6814C48.6603 16.6814 49.5658 17.0841 50.2701 17.7887C50.9744 18.4935 51.2764 19.6008 51.2764 20.9095V33.0908H55.9047V32.9901ZM21.1925 32.9901V12.8558H16.5642V32.9901H21.1925ZM154.91 30.3726C156.822 28.3592 157.827 25.8424 157.827 22.8223C157.827 19.9028 156.822 17.2853 154.91 15.272C152.998 13.2585 150.583 12.2518 147.967 12.2518C145.351 12.2518 142.736 13.4599 141.125 15.272H140.824V6.71489H136.195V32.8894H140.824V30.3726H141.125C142.736 32.2853 145.452 33.4935 148.068 33.4935C150.784 33.4935 152.998 32.386 154.91 30.3726ZM151.489 18.3928C152.696 19.6008 153.2 21.0102 153.2 22.8223C153.2 24.6344 152.596 26.0437 151.489 27.2518C150.281 28.4599 148.872 28.9632 147.062 28.9632C145.25 28.9632 143.842 28.3592 142.635 27.2518C141.427 26.0437 140.924 24.6344 140.924 22.8223C140.924 21.0102 141.528 19.6008 142.635 18.3928C143.842 17.1846 145.25 16.6814 147.062 16.6814C148.872 16.6814 150.281 17.2853 151.489 18.3928Z" fill="white"/>
</svg>
