<svg width="180" height="33" viewBox="0 0 180 33" fill="none" xmlns="http://www.w3.org/2000/svg">
<g clip-path="url(#clip0_1504_4228)">
<path d="M166.281 24.6677C171.718 24.6677 176.141 20.1386 176.141 14.5712C176.141 9.00419 171.717 4.47461 166.281 4.47461C160.844 4.47461 156.421 9.00374 156.421 14.5709C156.421 20.1382 160.844 24.6677 166.281 24.6677Z" stroke="#006198" stroke-width="7.898"/>
<path d="M172.324 16.024H165.595V9.1325H167.022V14.5619H172.324V16.024ZM104.385 32.2657C105.598 17.0403 119.028 16.5805 119.028 10.1869C119.028 7.38085 116.827 6.32296 114.447 6.32296C111.437 6.32296 108.967 7.33488 106.81 8.39276L105.373 4.1151C107.799 2.91931 111.213 1.67725 115.256 1.67725C121.634 1.67725 124.733 5.03508 124.733 9.63498C124.733 18.2361 113.234 19.8925 111.393 27.5737H125.003V32.2657H104.385ZM127.877 24.8597V21.1801L142.521 1.72321H146.384V20.3519H150.786V24.8596H146.384V32.2655H141.083V24.8596H127.877V24.8597ZM133.852 20.4443C134.525 20.4443 136.501 20.3519 137.58 20.3519H141.084V16.0284C141.084 13.5906 141.308 10.9685 141.353 10.0948L133.852 20.4443Z" fill="#006198"/>
<path d="M1.06152 3.01926H9.42546C13.3054 3.01926 16.1095 3.59826 17.8375 4.75579C19.5654 5.91363 20.4296 7.74255 20.4296 10.2419C20.4296 11.9262 20.0056 13.3273 19.1577 14.4454C18.3096 15.5637 17.0889 16.2678 15.496 16.5569V16.7542C17.4743 17.1359 18.9293 17.8889 19.861 19.0138C20.7924 20.1387 21.2583 21.6617 21.2583 23.5823C21.2583 26.1743 20.3748 28.2036 18.6084 29.6704C16.8417 31.1376 14.3845 31.8707 11.2369 31.8707H1.06152V3.01926ZM5.66745 14.9388H10.1C12.0272 14.9388 13.4341 14.6265 14.3205 14.0014C15.207 13.3767 15.6503 12.3142 15.6503 10.8143C15.6503 9.45942 15.1714 8.47911 14.2143 7.8738C13.2572 7.2688 11.7379 6.96607 9.65656 6.96607H5.66745V14.9388ZM5.66745 18.7672V27.9042H10.5625C12.4897 27.9042 13.9447 27.5262 14.9277 26.7695C15.9105 26.0132 16.4019 24.8193 16.4019 23.1876C16.4019 21.6879 15.9007 20.5761 14.8986 19.8524C13.8966 19.1292 12.3741 18.767 10.3313 18.767L5.66745 18.7672ZM26.3654 4.26253C26.3654 3.43374 26.5869 2.79577 27.0302 2.34818C27.4733 1.90104 28.1061 1.67725 28.9285 1.67725C29.725 1.67725 30.3449 1.90104 30.7882 2.34818C31.2315 2.79562 31.453 3.43358 31.453 4.26253C31.453 5.05187 31.2315 5.6735 30.7882 6.12744C30.3451 6.58123 29.725 6.8082 28.9285 6.8082C28.1061 6.8082 27.4733 6.58123 27.0302 6.12744C26.587 5.6735 26.3654 5.05171 26.3654 4.26253ZM31.1642 31.8708H26.6353V10.0446H31.1642V31.8708ZM45.5794 28.516C46.6844 28.516 47.7891 28.3385 48.8943 27.9833V31.4763C48.3931 31.7001 47.7475 31.8873 46.9575 32.0388C46.1673 32.1899 45.3482 32.2657 44.5003 32.2657C40.2089 32.2657 38.0635 29.9503 38.0635 25.3192V13.5574H35.1534V11.505L38.2754 9.80782L39.8171 5.18992H42.6116V10.0445H48.6822V13.5573H42.6116V25.24C42.6116 26.3584 42.8843 27.1837 43.4305 27.7166C43.9765 28.2496 44.693 28.516 45.5794 28.516ZM63.9646 9.64995C64.8767 9.64995 65.6285 9.71603 66.2195 9.84728L65.7763 14.1691C65.1338 14.0114 64.4658 13.9323 63.772 13.9323C61.9603 13.9323 60.4927 14.5376 59.3685 15.7479C58.2439 16.9585 57.682 18.5305 57.682 20.4645V31.871H53.1532V10.0446H56.6993L57.2968 13.8928H57.5279C58.2346 12.5903 59.1565 11.5578 60.2935 10.7945C61.4307 10.0316 62.6542 9.64995 63.9646 9.64995ZM69.9004 4.26253C69.9004 3.43374 70.1222 2.79577 70.5656 2.34818C71.0088 1.90104 71.6413 1.67725 72.4636 1.67725C73.2602 1.67725 73.8804 1.90104 74.3235 2.34818C74.767 2.79562 74.9883 3.43358 74.9883 4.26253C74.9883 5.05187 74.767 5.6735 74.3235 6.12744C73.8804 6.58123 73.2602 6.8082 72.4636 6.8082C71.6414 6.8082 71.0088 6.58123 70.5656 6.12744C70.1222 5.6735 69.9004 5.05171 69.9004 4.26253ZM74.699 31.8708H70.1702V10.0446H74.699V31.8708ZM85.9152 20.7209L78.7655 10.0446H83.9304L88.7867 17.6819L93.682 10.0446H98.808L91.6391 20.7209L99.1742 31.8708H94.0479L88.7866 23.7008L83.5447 31.8708H78.4182L85.9152 20.7209Z" fill="#1FC3F3"/>
</g>
<defs>
<clipPath id="clip0_1504_4228">
<rect width="180" height="33" fill="white"/>
</clipPath>
</defs>
</svg>
