<svg width="180" height="40" viewBox="0 0 180 40" fill="none" xmlns="http://www.w3.org/2000/svg">
<path d="M177.545 21.7356L166.879 11.6685L163.861 14.6407L171.307 21.7356L163.861 28.9264L166.879 31.8986L177.545 21.7356Z" fill="#949598"/>
<path d="M8.01193 31.6104C5.89902 31.6104 4.08795 31.2269 2.98119 30.364C1.17012 29.1176 0.46582 27.4877 0.46582 24.9949V6.39467H4.99349V12.1473H11.5335V16.3659H4.99349V24.2279C4.99349 25.7619 5.29533 26.5289 6.10026 27.0083C6.60333 27.296 7.50886 27.4877 8.91747 27.4877C9.823 27.4877 11.5335 27.3918 11.5335 27.3918V31.3228C11.5335 31.3228 9.92361 31.6104 8.01193 31.6104ZM131.768 27.6795C129.756 30.4599 126.838 31.8981 122.914 31.8981C119.695 31.8981 116.978 30.9393 114.965 29.0217C112.953 27.1042 111.947 24.7073 111.947 21.831C111.947 18.9546 112.953 16.5577 114.965 14.6402C116.978 12.7226 119.494 11.7638 122.612 11.7638C125.53 11.7638 127.945 12.7226 129.856 14.736C131.768 16.6536 132.673 19.1464 132.673 21.9268C132.673 22.9815 132.472 23.7485 132.472 23.7485H116.777C117.078 25.0908 117.783 26.0495 118.89 26.8166C119.996 27.5836 121.405 27.9671 123.015 27.9671C125.229 27.9671 126.939 27.2001 128.046 25.666L131.768 27.6795ZM116.777 20.0093H128.046C127.743 18.5711 127.139 17.5165 126.134 16.7495C125.128 15.9824 123.92 15.5989 122.512 15.5989C121.003 15.5989 119.695 15.9824 118.688 16.8453C117.783 17.7082 117.078 18.7629 116.777 20.0093ZM79.1466 27.6795C77.1343 30.4599 74.2165 31.8981 70.2925 31.8981C67.0728 31.8981 64.3563 30.9393 62.3439 29.0217C60.3316 27.1042 59.3255 24.7073 59.3255 21.831C59.3255 18.9546 60.3316 16.5577 62.3439 14.6402C64.3563 12.7226 66.8716 11.7638 69.9907 11.7638C72.9085 11.7638 75.3233 12.7226 77.235 14.736C79.1466 16.6536 80.0522 19.1464 80.0522 21.9268C80.0522 22.9815 79.8509 23.7485 79.8509 23.7485H64.155C64.4568 25.0908 65.1611 26.0495 66.2679 26.8166C67.3747 27.5836 68.7833 27.9671 70.3932 27.9671C72.6067 27.9671 74.3171 27.2001 75.4239 25.666L79.1466 27.6795ZM64.155 20.0093H75.4239C75.1221 18.5711 74.5183 17.5165 73.5122 16.7495C72.5061 15.9824 71.2987 15.5989 69.89 15.5989C68.3808 15.5989 67.0728 15.9824 66.0667 16.8453C65.0606 17.7082 64.4568 18.7629 64.155 20.0093ZM21.595 7.83283C21.595 6.39467 20.3875 5.24414 18.8783 5.24414C17.3692 5.24414 16.1617 6.39467 16.1617 7.83283C16.1617 9.27099 17.3692 10.4216 18.8783 10.4216C20.3875 10.4216 21.595 9.27099 21.595 7.83283ZM105.105 31.4187L110.338 12.2432H105.709L102.489 25.7619H102.187L98.4647 12.2432H93.7358L89.9124 25.7619H89.6106L86.3909 12.2432H81.7626L86.9946 31.4187H92.3272L95.9493 17.9H96.2511L99.8733 31.4187H105.105ZM55.9047 31.4187V19.5299C55.9047 17.133 55.2003 15.2154 53.7916 13.8731C52.383 12.435 50.572 11.7638 48.2579 11.7638C45.8431 11.7638 43.529 13.0102 42.3216 15.0237H42.0197C41.0136 13.0102 38.9007 11.7638 36.4859 11.7638C34.1717 11.7638 32.1595 12.8185 31.0527 14.5443H30.8515V12.2432H26.2232V31.4187H30.8515V20.6804C30.8515 19.1464 31.254 17.9 32.1595 17.0371C32.9644 16.2701 33.9706 15.7907 35.178 15.7907C36.2848 15.7907 37.1902 16.1742 37.7939 16.8453C38.3977 17.5165 38.6995 18.5711 38.6995 19.8175V31.4187H43.3278V20.6804C43.3278 19.1464 43.7302 17.9 44.5351 17.0371C45.2394 16.2701 46.3462 15.8866 47.5536 15.8866C48.6603 15.8866 49.5658 16.2701 50.2701 16.9412C50.9744 17.6124 51.2763 18.667 51.2763 19.9134V31.5146H55.9047V31.4187ZM21.1925 31.4187V12.2432H16.5642V31.4187H21.1925ZM154.91 28.9259C156.822 27.0083 157.827 24.6114 157.827 21.7351C157.827 18.9546 156.822 16.4618 154.91 14.5443C152.998 12.6267 150.583 11.668 147.967 11.668C145.351 11.668 142.736 12.8185 141.125 14.5443H140.824V6.39467H136.195V31.3228H140.824V28.9259H141.125C142.736 30.7475 145.452 31.8981 148.068 31.8981C150.784 31.8981 152.998 30.8434 154.91 28.9259ZM151.489 17.5165C152.696 18.667 153.2 20.0093 153.2 21.7351C153.2 23.4609 152.596 24.8031 151.489 25.9537C150.281 27.1042 148.872 27.5836 147.062 27.5836C145.25 27.5836 143.842 27.0083 142.635 25.9537C141.427 24.8031 140.924 23.4609 140.924 21.7351C140.924 20.0093 141.528 18.667 142.635 17.5165C143.842 16.3659 145.25 15.8866 147.062 15.8866C148.872 15.8866 150.281 16.4618 151.489 17.5165Z" fill="#535557"/>
</svg>
