<svg width="180" height="65" viewBox="0 0 180 65" fill="none" xmlns="http://www.w3.org/2000/svg">
<mask id="mask0_1504_4005" style="mask-type:luminance" maskUnits="userSpaceOnUse" x="0" y="0" width="180" height="65">
<path d="M179.043 0H0.95752V65H179.043V0Z" fill="white"/>
</mask>
<g mask="url(#mask0_1504_4005)">
<path d="M0.95752 9.55859H50.7448V34.8725C50.7448 41.3637 47.2809 47.3483 41.649 50.6061L25.8511 59.8967L10.0699 50.6061C4.43813 47.3725 0.981689 41.3637 0.981689 34.8725V9.55859H0.95752Z" fill="#949598"/>
<path fill-rule="evenodd" clip-rule="evenodd" d="M14.3618 22.8813V30.7479C15.4495 29.5414 17.4073 28.7208 19.631 28.7208H22.0723V37.8667C22.0723 40.3038 21.4197 42.4276 20.4288 43.61H31.2703C30.2794 42.4276 29.681 40.3038 29.681 37.8667V28.7208H32.0554C34.3033 28.7208 36.277 29.5414 37.3405 30.7479V22.8813H14.3618Z" fill="#535557"/>
<path d="M87.4301 30.0417C86.1347 29.5598 84.4406 29.4153 82.5969 29.4153H72.3317V26.3308H89.9715V21.0293H65.1064V43.9705H81.9489C84.2912 43.9705 86.0347 43.7778 87.3307 43.2954C90.0713 42.2833 91.915 39.8254 91.915 36.5964C91.915 33.3193 90.1709 31.054 87.4301 30.0417ZM83.8425 37.9941C83.4439 38.1388 82.8958 38.1868 82.1978 38.1868H72.3317V34.5241H82.1978C82.9956 34.5241 83.643 34.5724 84.1414 34.8133C84.7393 35.1026 85.0384 35.6327 85.0384 36.3072C85.0384 36.9818 84.6897 37.7049 83.8425 37.9941Z" fill="#535557"/>
<path d="M111.334 21.0293H101.219L91.915 43.9705H99.7401L101.028 40.645H111.525L112.861 43.9705H120.638L111.334 21.0293ZM102.746 35.5841L106.038 26.3308H106.563L109.855 35.5841H102.746Z" fill="#535557"/>
<path d="M129.455 35.44V43.9705H122.553V21.0293H129.455V29.4154H140.545V21.0293H147.447V43.9705H140.545V35.44H129.455Z" fill="#535557"/>
<path d="M158.332 35.2953V43.9705H151.277V21.0293H158.332V29.6563H160.278L168.793 21.0293H177.647L166.36 32.0179L178.085 43.9705H168.695L160.278 35.2953H158.332Z" fill="#535557"/>
</g>
</svg>
