<svg width="180" height="44" viewBox="0 0 180 44" fill="none" xmlns="http://www.w3.org/2000/svg">
<g clip-path="url(#clip0_1504_4071)">
<path d="M16.9397 37.9665L6.3875 31.8806C5.5699 31.4124 5.06742 30.5443 5.06742 29.5995V13.6571C5.06742 12.7122 5.5699 11.8441 6.3875 11.3759L16.9397 5.29004C17.3314 5.06022 17.5784 4.64315 17.5784 4.19203V1.27251C17.5784 0.293665 16.5223 -0.319178 15.6707 0.174501L3.84953 6.98387C1.46487 8.36277 -1.81138e-09 10.8992 0 13.6571L1.04769e-08 29.608C1.22827e-08 32.3573 1.46487 34.9023 3.84953 36.2812L15.6622 43.0991C16.5139 43.5842 17.5699 42.9798 17.5699 42.0011V39.0815C17.5699 38.6134 17.3314 38.1963 16.9397 37.9665Z" fill="#949598"/>
<path d="M26.1124 37.9665L36.6561 31.8806C37.4736 31.4124 37.9762 30.5442 37.9762 29.5995V13.6571C37.9762 12.7122 37.4736 11.8441 36.6561 11.3759L26.1124 5.29004C25.7206 5.06022 25.4736 4.64314 25.4736 4.19203V1.27251C25.4736 0.293665 26.5297 -0.319178 27.3814 0.174501L39.1941 6.99238C41.5787 8.37127 43.0436 10.9078 43.0436 13.6655V29.6165C43.0436 32.3658 41.5787 34.9107 39.1941 36.2897L27.3814 43.1075C26.5297 43.5927 25.4736 42.9884 25.4736 42.0095V39.09C25.4822 38.6133 25.7206 38.1963 26.1124 37.9665Z" fill="#949598"/>
<path d="M27.0855 12.5903C28.2968 12.5903 29.2788 13.5724 29.2788 14.7837V28.3197C29.2788 29.6764 28.1789 30.7761 26.8224 30.7761C26.0241 30.7761 25.2755 30.3882 24.8153 29.736L18.1968 20.5207V28.5784C18.1968 29.7921 17.2128 30.7761 15.999 30.7761C14.7853 30.7761 13.8013 29.7921 13.8013 28.5784V15.0773C13.8013 13.7038 14.9148 12.5903 16.2883 12.5903C17.1004 12.5903 17.8613 12.9868 18.3265 13.6523L24.8922 22.828V14.7837C24.8922 13.5724 25.8742 12.5903 27.0855 12.5903Z" fill="#949598"/>
<mask id="mask0_1504_4071" style="mask-type:luminance" maskUnits="userSpaceOnUse" x="55" y="12" width="125" height="19">
<path d="M179.125 12.5029H55.541V30.5357H179.125V12.5029Z" fill="white"/>
</mask>
<g mask="url(#mask0_1504_4071)">
<path d="M57.8197 30.0657C56.5612 30.0657 55.541 29.0455 55.541 27.787V15.5575C55.541 14.299 56.5612 13.2788 57.8197 13.2788C59.0782 13.2788 60.0984 14.299 60.0984 15.5575V19.8362H65.8907V15.5575C65.8907 14.299 66.9109 13.2788 68.1694 13.2788C69.428 13.2788 70.4482 14.299 70.4482 15.5575V27.787C70.4482 29.0455 69.428 30.0657 68.1694 30.0657C66.9109 30.0657 65.8907 29.0455 65.8907 27.787V23.5083H60.0984V27.787C60.0984 29.0455 59.0782 30.0657 57.8197 30.0657Z" fill="#535557"/>
<path d="M88.9992 21.6722C88.9992 23.5411 88.6359 25.1176 87.909 26.4018C87.1824 27.6805 86.2015 28.6504 84.9666 29.3116C83.7315 29.9673 82.3545 30.2952 80.8354 30.2952C79.3053 30.2952 77.9228 29.9646 76.6878 29.3034C75.4582 28.6367 74.4801 27.664 73.7534 26.3853C73.0321 25.1012 72.6714 23.5301 72.6714 21.6722C72.6714 19.8033 73.0321 18.2296 73.7534 16.9509C74.4801 15.6668 75.4582 14.6969 76.6878 14.0411C77.9228 13.3799 79.3053 13.0493 80.8354 13.0493C82.3545 13.0493 83.7315 13.3799 84.9666 14.0411C86.2015 14.6969 87.1824 15.6668 87.909 16.9509C88.6359 18.2296 88.9992 19.8033 88.9992 21.6722ZM84.3107 21.6722C84.3107 20.6668 84.1769 19.8198 83.9091 19.1313C83.6468 18.4372 83.2561 17.9127 82.737 17.5575C82.2234 17.1968 81.5894 17.0165 80.8354 17.0165C80.0811 17.0165 79.4446 17.1968 78.9255 17.5575C78.4118 17.9127 78.0211 18.4372 77.7534 19.1313C77.4911 19.8198 77.3599 20.6668 77.3599 21.6722C77.3599 22.6777 77.4911 23.5274 77.7534 24.2214C78.0211 24.9099 78.4118 25.4345 78.9255 25.7952C79.4446 26.1504 80.0811 26.328 80.8354 26.328C81.5894 26.328 82.2234 26.1504 82.737 25.7952C83.2561 25.4345 83.6468 24.9099 83.9091 24.2214C84.1769 23.5274 84.3107 22.6777 84.3107 21.6722Z" fill="#535557"/>
<path d="M93.8776 30.0657C92.5496 30.0657 91.4731 28.9893 91.4731 27.6613V15.6832C91.4731 14.3553 92.5496 13.2788 93.8776 13.2788H95.1127H98.7518C100.031 13.2788 101.105 13.4509 101.973 13.7952C102.848 14.1395 103.507 14.6258 103.949 15.2542C104.397 15.8826 104.621 16.6231 104.621 17.4756C104.621 18.093 104.484 18.6559 104.211 19.164C103.943 19.6722 103.567 20.0984 103.08 20.4427C102.594 20.7816 102.025 21.0165 101.375 21.1477V21.3116C102.096 21.3389 102.752 21.522 103.342 21.8608C103.932 22.1941 104.403 22.6558 104.752 23.246C105.102 23.8307 105.276 24.5193 105.276 25.3116C105.276 26.2297 105.036 27.0465 104.555 27.7624C104.08 28.4783 103.402 29.0411 102.522 29.451C101.643 29.8607 100.593 30.0657 99.3745 30.0657H95.4241H93.8776ZM96.0307 26.4264H98.1617C98.9269 26.4264 99.5004 26.2843 99.883 26.0001C100.266 25.7105 100.456 25.2843 100.456 24.7214C100.456 24.328 100.367 23.9947 100.186 23.7215C100.006 23.4482 99.7492 23.2406 99.4158 23.0984C99.0882 22.9564 98.6918 22.8854 98.2273 22.8854H96.0307V26.4264ZM96.0307 20.0657H97.8996C98.2985 20.0657 98.6505 20.0028 98.9564 19.8771C99.2633 19.7514 99.5004 19.5711 99.6695 19.3362C99.8446 19.0958 99.9322 18.8034 99.9322 18.4592C99.9322 17.94 99.7463 17.5438 99.3745 17.2706C99.0036 16.9919 98.5335 16.8525 97.9649 16.8525H96.0307V20.0657Z" fill="#535557"/>
<path d="M123.279 21.6722C123.279 23.5411 122.916 25.1176 122.189 26.4018C121.462 27.6805 120.482 28.6504 119.246 29.3116C118.012 29.9673 116.635 30.2952 115.115 30.2952C113.586 30.2952 112.203 29.9646 110.968 29.3034C109.738 28.6367 108.76 27.664 108.033 26.3853C107.312 25.1012 106.951 23.5301 106.951 21.6722C106.951 19.8033 107.312 18.2296 108.033 16.9509C108.76 15.6668 109.738 14.6969 110.968 14.0411C112.203 13.3799 113.586 13.0493 115.115 13.0493C116.635 13.0493 118.012 13.3799 119.246 14.0411C120.482 14.6969 121.462 15.6668 122.189 16.9509C122.916 18.2296 123.279 19.8033 123.279 21.6722ZM118.591 21.6722C118.591 20.6668 118.457 19.8198 118.189 19.1313C117.927 18.4372 117.536 17.9127 117.017 17.5575C116.503 17.1968 115.87 17.0165 115.115 17.0165C114.362 17.0165 113.724 17.1968 113.206 17.5575C112.692 17.9127 112.301 18.4372 112.033 19.1313C111.771 19.8198 111.64 20.6668 111.64 21.6722C111.64 22.6777 111.771 23.5274 112.033 24.2214C112.301 24.9099 112.692 25.4345 113.206 25.7952C113.724 26.1504 114.362 26.328 115.115 26.328C115.87 26.328 116.503 26.1504 117.017 25.7952C117.536 25.4345 117.927 24.9099 118.189 24.2214C118.457 23.5274 118.591 22.6777 118.591 21.6722Z" fill="#535557"/>
<path d="M132.245 14.951H136.736C138.147 14.951 139.395 15.2379 140.483 15.8117C141.575 16.3854 142.43 17.1997 143.048 18.2544C143.671 19.309 143.982 20.3172 143.982 21.7597C143.982 23.1259 143.671 24.0686 143.048 25.0685C142.43 26.0685 141.575 26.8417 140.483 27.3882C139.395 27.9346 138.147 28.2079 136.736 28.2079H132.245C130.824 28.2079 129.565 27.9374 128.466 27.3964C127.373 26.8554 126.515 26.0822 125.892 25.0768C125.275 24.0712 124.966 23.115 124.966 21.727C124.966 20.2843 125.28 19.2789 125.909 18.2297C126.543 17.1806 127.406 16.3718 128.498 15.8035C129.597 15.2352 130.845 14.951 132.245 14.951ZM132.245 18.6887C131.676 18.6887 131.152 18.7954 130.671 19.0084C130.195 19.2216 129.814 19.5686 129.523 20.0495C129.239 20.5302 129.097 20.9292 129.097 21.727C129.097 22.4592 129.245 22.8035 129.54 23.2407C129.84 23.6778 130.229 23.992 130.704 24.1833C131.185 24.3746 131.698 24.4702 132.245 24.4702H136.77C137.326 24.4702 137.835 24.3718 138.294 24.1751C138.758 23.9729 139.127 23.6559 139.401 23.2242C139.679 22.7871 139.819 22.4592 139.819 21.7597C139.819 20.9619 139.679 20.5603 139.401 20.0739C139.127 19.5877 138.758 19.2352 138.294 19.0166C137.835 18.798 137.326 18.6887 136.77 18.6887H132.245ZM134.474 12.5029C135.651 12.5029 136.605 13.4571 136.605 14.6341V28.3828C136.605 29.5597 135.651 30.5138 134.474 30.5138C133.297 30.5138 132.343 29.5597 132.343 28.3828V14.6341C132.343 13.4571 133.297 12.5029 134.474 12.5029Z" fill="#535557"/>
<path d="M161.752 21.6722C161.752 23.5411 161.388 25.1176 160.661 26.4018C159.935 27.6805 158.954 28.6504 157.719 29.3116C156.484 29.9673 155.107 30.2952 153.588 30.2952C152.058 30.2952 150.676 29.9646 149.44 29.3034C148.211 28.6367 147.233 27.664 146.506 26.3853C145.784 25.1012 145.424 23.5301 145.424 21.6722C145.424 19.8033 145.784 18.2296 146.506 16.9509C147.233 15.6668 148.211 14.6969 149.44 14.0411C150.676 13.3799 152.058 13.0493 153.588 13.0493C155.107 13.0493 156.484 13.3799 157.719 14.0411C158.954 14.6969 159.935 15.6668 160.661 16.9509C161.388 18.2296 161.752 19.8033 161.752 21.6722ZM157.063 21.6722C157.063 20.6668 156.93 19.8198 156.662 19.1313C156.399 18.4372 156.009 17.9127 155.49 17.5575C154.976 17.1968 154.342 17.0165 153.588 17.0165C152.834 17.0165 152.197 17.1968 151.678 17.5575C151.165 17.9127 150.774 18.4372 150.506 19.1313C150.244 19.8198 150.112 20.6668 150.112 21.6722C150.112 22.6777 150.244 23.5274 150.506 24.2214C150.774 24.9099 151.165 25.4345 151.678 25.7952C152.197 26.1504 152.834 26.328 153.588 26.328C154.342 26.328 154.976 26.1504 155.49 25.7952C156.009 25.4345 156.399 24.9099 156.662 24.2214C156.93 23.5274 157.063 22.6777 157.063 21.6722Z" fill="#535557"/>
<path d="M166.263 30.0657C165.004 30.0657 163.984 29.0455 163.984 27.787V15.5575C163.984 14.299 165.004 13.2788 166.263 13.2788C167.521 13.2788 168.541 14.299 168.541 15.5575V19.8362H174.333V15.5575C174.333 14.299 175.353 13.2788 176.612 13.2788C177.87 13.2788 178.89 14.299 178.89 15.5575V27.787C178.89 29.0455 177.87 30.0657 176.612 30.0657C175.353 30.0657 174.333 29.0455 174.333 27.787V23.5083H168.541V27.787C168.541 29.0455 167.521 30.0657 166.263 30.0657Z" fill="#535557"/>
</g>
</g>
<defs>
<clipPath id="clip0_1504_4071">
<rect width="180" height="43.2787" fill="white"/>
</clipPath>
</defs>
</svg>
