<svg width="180" height="53" viewBox="0 0 180 53" fill="none" xmlns="http://www.w3.org/2000/svg">
<g clip-path="url(#clip0_1504_4224)">
<path d="M180 26.5V48.9229C180 51.1747 178.169 53 175.909 53H4.09104C1.83132 53 0 51.1747 0 48.9229V4.07706C0 1.82528 1.83132 0 4.09104 0H175.909C178.169 0 180 1.82528 180 4.07706V26.5Z" fill="#535557"/>
<path d="M83.7001 11.0347H71.1818V41.8563H85.1318C90.3684 41.8563 99.0138 41.3808 99.0138 32.5065V20.3981C99.0001 11.5106 88.9363 11.0347 83.7001 11.0347ZM91.5683 31.6911C91.5683 36.1352 88.3229 36.5835 84.6275 36.5835H78.6137V16.3075H83.2364C86.9318 16.3075 91.6093 16.7562 91.6093 21.1999L91.5683 31.6911ZM26.1138 11.0347H13.6909V41.8563H27.5729C32.8091 41.8563 41.4548 41.3808 41.4548 32.5065V20.3981C41.4548 11.5106 31.4184 11.0347 26.1548 11.0347H26.1138ZM33.982 31.6911C33.982 36.1352 30.7366 36.5835 27.0412 36.5835H21.0684V16.3075H25.6501C29.3455 16.3075 34.023 16.7562 34.023 21.1999L33.982 31.6911ZM134.891 12.2307H127.937V34.9663C127.911 36.0602 128.096 37.1489 128.482 38.1735C128.767 38.9671 129.235 39.6833 129.846 40.2663C130.473 40.8031 131.2 41.2096 131.987 41.4624C132.802 41.749 133.649 41.9405 134.509 42.0329C135.318 42.1052 136.264 42.1457 137.346 42.1553C138.635 42.1539 139.924 42.0766 141.205 41.9244V38.0242H138.723C138.169 38.1016 137.605 38.069 137.063 37.9261C136.522 37.7832 136.016 37.5347 135.573 37.1952C134.992 36.2315 134.743 35.1053 134.864 33.988V22.7355H141.205V18.4683H134.864L134.891 12.2307ZM163.527 19.9498C161.873 18.917 158.918 18.4045 154.664 18.4142H146.591V18.7537L147.586 22.6947H154.664C155.84 22.6239 157.015 22.8581 158.073 23.3744C158.437 23.7196 158.717 24.1461 158.887 24.6177C159.057 25.0893 159.115 25.595 159.055 26.0924V27.6552H151.282C148.555 27.6552 146.682 28.1852 145.664 29.2452C144.645 30.3052 144.119 32.2118 144.082 34.9663C144.082 37.9698 144.587 39.2335 145.609 40.1847C146.632 41.1358 148.609 41.8427 151.718 41.8427H161.346C163.745 41.8427 166.05 40.7147 166.05 38.0106V26.038C166.05 23.0034 165.222 20.9689 163.568 19.9362L163.527 19.9498ZM159.041 38.0242H154.473C153.439 38.1381 152.394 37.9737 151.446 37.5483C151.046 37.2317 150.846 36.3253 150.846 34.8306C150.846 33.3359 151.036 32.4019 151.418 32.0309C152.296 31.5704 153.297 31.3895 154.282 31.5145H159.041V38.0242ZM121.541 19.9498C119.887 18.917 116.932 18.4045 112.677 18.4142H104.605V18.7537L105.6 22.6947H112.677C113.854 22.6239 115.028 22.8581 116.086 23.3744C116.451 23.7206 116.729 24.1462 116.899 24.6177C117.07 25.0893 117.127 25.595 117.068 26.0924V27.6552H109.255C106.527 27.6552 104.655 28.1852 103.637 29.2452C102.618 30.3052 102.109 32.2118 102.109 34.9663C102.109 37.9698 102.614 39.2335 103.637 40.1847C104.659 41.1358 106.636 41.8427 109.746 41.8427H119.373C121.786 41.8427 124.077 40.7147 124.077 38.0106V26.038C124.068 23.0034 123.241 20.9689 121.596 19.9362L121.541 19.9498ZM117.068 38.0242H112.5C111.467 38.1381 110.422 37.9737 109.473 37.5483C109.073 37.2317 108.873 36.3253 108.873 34.8306C108.873 33.3359 109.064 32.4019 109.446 32.0309C110.324 31.5704 111.325 31.3895 112.309 31.5145H117.068V38.0242ZM63.9955 19.9498C62.3413 18.917 59.3864 18.4045 55.132 18.4142H47.1V18.7537L48.0954 22.6947H55.173C56.3493 22.6239 57.5238 22.8581 58.5818 23.3744C58.946 23.7206 59.2243 24.1462 59.3947 24.6177C59.5647 25.0897 59.6226 25.5944 59.5639 26.0924V27.6552H51.7501C49.0228 27.6552 47.1504 28.1852 46.132 29.2452C45.1135 30.3052 44.5868 32.2118 44.5501 34.9663C44.5501 37.9698 45.0548 39.2335 46.0772 40.1847C47.0996 41.1358 49.0775 41.8427 52.1864 41.8427H61.8139C64.2274 41.8427 66.5184 40.7147 66.5184 38.0106V26.038C66.5184 23.0034 65.6904 20.9689 64.0366 19.9362L63.9955 19.9498ZM59.5229 38.0242H54.9955C53.962 38.1381 52.9172 37.9737 51.9683 37.5483C51.5687 37.2317 51.3682 36.3253 51.3682 34.8306C51.3682 33.3359 51.5593 32.4019 51.9409 32.0309C52.8195 31.5703 53.8195 31.39 54.8047 31.5145H59.5639L59.5229 38.0242Z" fill="#949598"/>
</g>
<defs>
<clipPath id="clip0_1504_4224">
<rect width="180" height="53" fill="white"/>
</clipPath>
</defs>
</svg>
