<svg width="180" height="28" viewBox="0 0 180 28" fill="none" xmlns="http://www.w3.org/2000/svg">
<g clip-path="url(#clip0_1504_4044)">
<path d="M145.181 13.3651L138.316 5.50586H134.302V23.7027H138.493V12.0928L144.761 18.9713H145.535L151.695 12.0928V23.7027H155.886V5.50586H151.872L145.181 13.3651Z" fill="#535557"/>
<path d="M175.852 5.50586L165.465 17.3332V5.50586H161.275V23.7027H165.114L175.501 11.8754V23.7027H179.691V5.50586H175.852Z" fill="#535557"/>
<path d="M111.73 12.1643C111.73 15.0615 113.269 17.3438 115.631 18.3007L111.202 23.7027H116.331L120.36 18.7884H124.72V23.7027H128.91V5.50586H118.242C114.264 5.50586 111.73 8.30761 111.73 12.1643L111.73 12.1643ZM124.723 9.51363V14.8945H119.019C117.116 14.8945 116.095 13.8024 116.095 12.2014C116.095 10.6004 117.152 9.5083 119.019 9.5083L124.723 9.51363Z" fill="#535557"/>
<path d="M92.2565 9.1452C92 15.4034 90.7179 19.4431 88.2072 19.4431H87.5786V23.8114L88.2481 23.8485C93.2822 24.1374 96.0649 19.5889 96.5215 9.65415H103.143V23.7027H107.326V5.50586H92.3974L92.2565 9.14523L92.2565 9.1452Z" fill="#535557"/>
<path d="M76.4811 5.25195C70.8135 5.25195 66.7358 9.29158 66.7358 14.6035C66.7358 20.0984 71.1725 23.9949 76.4811 23.9949C82.0102 23.9949 86.306 19.8811 86.306 14.6035C86.306 9.32604 82.0102 5.25195 76.4811 5.25195ZM76.4811 19.6266C73.2778 19.6266 71.0956 17.4795 71.0956 14.6035C71.0956 11.656 73.2806 9.56726 76.4811 9.56726C79.6816 9.56726 81.9386 11.7514 81.9386 14.6035C81.9386 17.4557 79.6508 19.6266 76.4811 19.6266Z" fill="#535557"/>
<path d="M62.2899 5.54053H47.5002L47.3589 9.1799C47.1488 14.4229 45.8203 19.4089 43.3096 19.4804L42.1479 19.5176V27.9997H46.3741V23.7056H61.0563V27.9997H65.3188V19.4804H62.2899V5.54053ZM58.0994 19.4804H49.1569C50.6699 17.116 51.4803 13.694 51.6215 9.69147H58.0994V19.4804Z" fill="#535557"/>
<path d="M32.5084 1.3999H28.4448V23.7999H32.5084V1.3999Z" fill="#535557"/>
<path d="M23.0269 2.80029H18.9634V25.2003H23.0269V2.80029Z" fill="#535557"/>
<path d="M13.545 4.19971H9.48145V26.5997H13.545V4.19971Z" fill="#535557"/>
<path d="M4.06352 5.6001H0V28.0001H4.06352V5.6001Z" fill="#535557"/>
</g>
<defs>
<clipPath id="clip0_1504_4044">
<rect width="180" height="28" fill="white"/>
</clipPath>
</defs>
</svg>
