<svg width="180" height="28" viewBox="0 0 180 28" fill="none" xmlns="http://www.w3.org/2000/svg">
<g clip-path="url(#clip0_1504_4175)">
<path d="M145.181 13.2182L138.316 5.44531H134.302V23.4422H138.493V11.9598L144.761 18.7627H145.535L151.695 11.9598V23.4422H155.886V5.44531H151.872L145.181 13.2182Z" fill="white"/>
<path d="M175.852 5.44531L165.465 17.1426V5.44531H161.275V23.4422H165.114L175.501 11.7449V23.4422H179.691V5.44531H175.852Z" fill="white"/>
<path d="M111.73 12.0306C111.73 14.896 113.269 17.1531 115.631 18.0995L111.202 23.4422H116.331L120.36 18.5819H124.72V23.4422H128.91V5.44531H118.242C114.264 5.44531 111.73 8.21627 111.73 12.0306L111.73 12.0306ZM124.723 9.40904V14.7308H119.019C117.116 14.7308 116.095 13.6507 116.095 12.0673C116.095 10.4839 117.152 9.40377 119.019 9.40377L124.723 9.40904Z" fill="white"/>
<path d="M92.2565 9.04466C92 15.2341 90.7179 19.2294 88.2072 19.2294H87.5786V23.5497L88.2481 23.5864C93.2822 23.8721 96.0649 19.3736 96.5215 9.54802H103.143V23.4422H107.326V5.44531H92.3974L92.2565 9.04469L92.2565 9.04466Z" fill="white"/>
<path d="M76.4811 5.19385C70.8135 5.19385 66.7358 9.18909 66.7358 14.4427C66.7358 19.8772 71.1725 23.7308 76.4811 23.7308C82.0102 23.7308 86.306 19.6622 86.306 14.4427C86.306 9.22316 82.0102 5.19385 76.4811 5.19385ZM76.4811 19.4105C73.2778 19.4105 71.0956 17.2871 71.0956 14.4427C71.0956 11.5275 73.2806 9.46174 76.4811 9.46174C79.6816 9.46174 81.9386 11.6219 81.9386 14.4427C81.9386 17.2635 79.6508 19.4105 76.4811 19.4105Z" fill="white"/>
<path d="M62.2899 5.47998H47.5002L47.3589 9.07936C47.1488 14.2648 45.8203 19.1959 43.3096 19.2667L42.1479 19.3034V27.6923H46.3741V23.4454H61.0563V27.6923H65.3188V19.2667H62.2899V5.47998ZM58.0994 19.2667H49.1569C50.6699 16.9283 51.4803 13.5439 51.6215 9.58531H58.0994V19.2667Z" fill="white"/>
<path d="M32.5084 1.38428H28.4448V23.5381H32.5084V1.38428Z" fill="white"/>
<path d="M23.0269 2.76904H18.9634V24.9229H23.0269V2.76904Z" fill="white"/>
<path d="M13.545 4.15381H9.48145V26.3077H13.545V4.15381Z" fill="white"/>
<path d="M4.06352 5.53857H0V27.6924H4.06352V5.53857Z" fill="white"/>
</g>
<defs>
<clipPath id="clip0_1504_4175">
<rect width="180" height="27.6923" fill="white"/>
</clipPath>
</defs>
</svg>
