<svg width="1857" height="618" viewBox="0 0 1857 618" fill="none" xmlns="http://www.w3.org/2000/svg">
    <path opacity="0.3" d="M1040.42 1040.5V818.521H209.699V632.737L211.186 632.724L525.162 629.913V629.912L836.312 625.713L840.482 517.458V517.457L844.646 410.744H209.699V210.875L211.211 210.887L587.146 213.699H587.15L963.085 217.917L963.989 217.928L964.402 218.73L1175.6 629.317L1387.79 1040.5H1899.29V618.662H2535.89V1040.5H2715.93V593.446C2715.93 441.877 2718.3 330.971 2713.36 249.762C2708.41 168.5 2696.14 117.44 2667.21 85.2559C2638.32 53.1162 2592.52 39.4746 2519.52 33.9639C2446.53 28.4549 2346.85 31.0898 2210.55 31.0898C2078.15 31.0898 1981 29.3336 1909.5 34.1406C1837.95 38.9507 1792.52 50.3213 1763.28 76.2363C1734.07 102.116 1720.69 142.784 1714.08 207.113C1707.67 269.418 1707.63 353.492 1705.4 467.089L1705.17 478.175L1698.13 824.081L1698.11 825.474L1696.71 825.549L1617.87 829.767C1591.78 831.175 1570.9 830.829 1555.26 828.522C1539.72 826.23 1528.99 821.949 1523.67 815.13C1523.05 814.39 1522.11 812.962 1520.91 810.99C1519.65 808.932 1518.05 806.184 1516.12 802.79C1512.27 796.001 1507.1 786.592 1500.77 774.867C1488.11 751.416 1470.82 718.673 1450.14 679.035C1411.36 604.713 1360.67 506.139 1306.34 399.098L1295.42 377.581L1099.88 1.5H815.407C815.396 1.50018 815.378 1.50062 815.355 1.50098C815.31 1.50169 815.241 1.50252 815.149 1.50391C814.965 1.50669 814.687 1.51122 814.311 1.5166C813.557 1.52736 812.41 1.54243 810.833 1.5625C807.678 1.60265 802.802 1.66068 795.918 1.72949C782.15 1.86712 760.346 2.04992 728.203 2.2334C663.917 2.60036 558.271 2.96777 392.83 2.96777H1.5V1040.5H1040.42ZM1899.29 334.72C1899.29 305.863 1900.35 278.75 1902.11 258.308C1903 248.092 1904.06 239.509 1905.26 233.197C1905.86 230.046 1906.5 227.418 1907.19 225.421C1907.53 224.423 1907.9 223.547 1908.3 222.829C1908.65 222.193 1909.07 221.594 1909.6 221.154C1909.97 220.751 1910.47 220.497 1910.86 220.329C1911.36 220.113 1911.97 219.919 1912.67 219.739C1914.08 219.379 1915.98 219.036 1918.34 218.706C1923.05 218.045 1929.7 217.416 1938.06 216.822C1954.79 215.634 1978.44 214.578 2007.23 213.699C2064.8 211.941 2142.96 210.887 2227.45 210.887H2535.89V438.866H1899.29V334.72Z" stroke="#EB0E54" stroke-width="3" />
</svg>