<svg width="80" height="80" viewBox="0 0 80 80" fill="none" xmlns="http://www.w3.org/2000/svg">
    <mask id="mask0_2331_29416" style="mask-type:luminance" maskUnits="userSpaceOnUse" x="0" y="0" width="80" height="80">
        <path d="M80 0H0V80H80V0Z" fill="white" />
    </mask>
    <g mask="url(#mask0_2331_29416)">
        <path d="M33.517 64.3307C37.104 60.7543 42.9023 60.7543 46.4836 64.3307C50.082 67.9127 50.082 73.7229 46.4836 77.3049C42.9023 80.8925 37.0983 80.8925 33.517 77.3049C29.9527 73.7229 29.9527 67.9127 33.517 64.3307Z" fill="white" />
        <path d="M48.9239 48.9245C45.3483 52.5008 45.3483 58.3056 48.9239 61.8989C52.5109 65.4696 58.3206 65.4696 61.902 61.8989C65.4776 58.3112 65.4776 52.5008 61.902 48.9245C58.3206 45.3481 52.5109 45.3481 48.9239 48.9245Z" fill="white" />
        <path d="M64.3501 33.511C60.7687 37.0874 60.7687 42.8976 64.3501 46.4683C67.9314 50.0672 73.7411 50.0672 77.3224 46.4683C80.8924 42.8976 80.8924 37.0874 77.3224 33.511C73.7354 29.9234 67.9314 29.9234 64.3501 33.511Z" fill="white" />
        <path d="M18.1086 48.9245C14.5159 52.5008 14.5159 58.3112 18.1086 61.8989C21.6899 65.4696 27.4996 65.4696 31.0809 61.8989C34.6566 58.3112 34.6566 52.5008 31.0809 48.9245C27.4939 45.3481 21.6899 45.3481 18.1086 48.9245Z" fill="white" />
        <path d="M2.69026 33.511C-0.896753 37.0931 -0.896753 42.8976 2.69026 46.4683C6.27158 50.0672 12.0756 50.0672 15.6569 46.4683C19.2439 42.8976 19.2439 37.0931 15.6569 33.511C12.0756 29.9234 6.2659 29.9234 2.69026 33.511Z" fill="white" />
        <path d="M33.517 33.511C29.9527 37.0874 29.9527 42.8976 33.517 46.4683C37.104 50.0672 42.9023 50.0672 46.5007 46.4683C50.082 42.8976 50.082 37.0874 46.5007 33.511C42.9023 29.9234 37.104 29.9234 33.517 33.511Z" fill="white" />
        <path d="M18.1086 18.1009C14.5159 21.6829 14.5159 27.4874 18.1086 31.0751C21.6899 34.6571 27.4996 34.6571 31.0809 31.0751C34.6566 27.4874 34.6566 21.6829 31.0809 18.1009C27.4939 14.5132 21.6899 14.5132 18.1086 18.1009Z" fill="white" />
        <path d="M48.9239 18.1009C45.3483 21.6829 45.3483 27.4874 48.9239 31.0751C52.5109 34.6571 58.3206 34.6571 61.902 31.0751C65.4776 27.4874 65.4776 21.6829 61.902 18.1009C58.3206 14.5132 52.5109 14.5132 48.9239 18.1009Z" fill="white" />
        <path fill-rule="evenodd" clip-rule="evenodd" d="M33.517 2.69073C37.104 -0.896912 42.9023 -0.896912 46.5007 2.69073C50.082 6.27838 50.082 12.0773 46.5007 15.6593C42.9023 19.2413 37.104 19.2413 33.517 15.6593C29.9527 12.0773 29.9527 6.27838 33.517 2.69073Z" fill="#B0CB1F" />
    </g>
</svg>