<svg width="80" height="22" viewBox="0 0 80 22" fill="none" xmlns="http://www.w3.org/2000/svg">
    <g clip-path="url(#clip0_2331_29295)">
        <path fill-rule="evenodd" clip-rule="evenodd" d="M55.8571 8.35156H43.7131C41.7051 8.35156 40.8011 8.90215 40.4251 10.0348L39.2891 13.6687H51.4331C53.4411 13.6687 54.3451 13.1181 54.7211 11.9855L55.8571 8.35156Z" fill="white" />
        <path fill-rule="evenodd" clip-rule="evenodd" d="M14.1897 5.32499H11.9017C7.30171 5.32499 3.38171 16.6907 8.79771 16.675H12.2857C14.2937 16.675 15.7817 17.3908 15.1257 19.3257L14.2217 21.9843H10.5257L7.51771 21.9607C3.67771 21.9292 1.19771 20.0729 0.301714 17.2492C-0.674286 14.2052 0.701714 7.8577 4.66171 3.78334C6.95771 1.42367 10.1417 0 14.2217 0H21.7657L20.5817 3.335C19.8217 5.49017 18.2537 5.32499 17.3737 5.32499H14.1897Z" fill="white" />
        <path fill-rule="evenodd" clip-rule="evenodd" d="M52.8963 16.6906H40.7523C38.7443 16.6906 37.8323 17.2412 37.4643 18.3738L36.3203 21.9998H48.4643C50.4723 21.9998 51.3843 21.4492 51.7523 20.3166L52.8963 16.6906ZM58.6723 0.0234375H46.5283C44.5203 0.0234375 43.6083 0.574028 43.2403 1.70667L42.1043 5.3327H54.2483C56.2563 5.3327 57.1683 4.78211 57.5363 3.64947L58.6723 0.0234375Z" fill="white" />
        <path fill-rule="evenodd" clip-rule="evenodd" d="M28.1368 5.31702H31.1688C33.7528 5.31702 33.1608 8.48684 31.8488 11.578C30.6968 14.2916 28.6648 16.7064 26.2408 16.7064H21.2008C19.1928 16.7064 18.2648 17.257 17.8728 18.3896L16.6328 22.0078H20.3208L23.9288 21.9763C27.1368 21.9527 29.7528 21.7246 32.8248 19.0031C36.0648 16.1243 39.8408 8.67562 39.1928 4.38102C38.6888 1.00669 36.8488 0.015625 32.3768 0.015625H24.2488L19.5128 13.6545H22.5208C24.3048 13.6545 25.2168 13.6781 26.1608 11.1611L28.1368 5.31702Z" fill="white" />
        <path fill-rule="evenodd" clip-rule="evenodd" d="M53.8203 22H59.5483L62.0043 15.0783L64.5643 12.9546L66.5883 19.2156C67.2123 21.1505 67.8523 22 69.2603 22H73.6523L69.1243 9.71398L79.9963 0H72.9723L66.3723 6.9217C65.6043 7.72399 64.8203 8.51841 64.0523 9.47015H63.9883L67.2603 0H61.5323L53.8203 22Z" fill="white" />
    </g>
    <defs>
        <clipPath id="clip0_2331_29295">
            <rect width="80" height="22" fill="white" />
        </clipPath>
    </defs>
</svg>