<svg width="80" height="80" viewBox="0 0 80 80" fill="none" xmlns="http://www.w3.org/2000/svg">
    <g clip-path="url(#clip0_2331_29340)">
        <path d="M40.0044 0C61.4057 0 78.7587 17.2912 78.7587 38.6163C78.7587 59.9414 61.4057 77.2326 40.0044 77.2326C18.603 77.2326 1.25 59.9414 1.25 38.6163C1.25 17.2912 18.603 0 40.0044 0Z" fill="white" />
        <path d="M45.3813 60.8193H53.4779V14.4883H41.6981C29.8538 14.4776 23.6256 20.5445 23.6256 29.479C23.6256 36.6159 27.0404 40.8103 33.1289 45.1438L22.5625 60.8086H31.3249L43.094 43.2713L39.0135 40.5428C34.0632 37.2151 31.6578 34.615 31.6578 29.0082C31.6578 24.0755 35.137 20.7371 41.7625 20.7371H45.3706L45.3813 60.8193Z" fill="#EB0E54" />
    </g>
    <defs>
        <clipPath id="clip0_2331_29340">
            <rect width="80" height="80" fill="white" />
        </clipPath>
    </defs>
</svg>