<svg width="80" height="75" viewBox="0 0 80 75" fill="none" xmlns="http://www.w3.org/2000/svg">
    <g clip-path="url(#clip0_2331_29384)">
        <path d="M45.4609 33.4717C45.1595 33.6484 44.687 33.6346 44.3929 33.4516L42.6614 32.4165C42.5205 32.3287 42.391 32.1881 42.2934 32.0191C42.2877 32.0094 42.2819 31.9994 42.2762 31.9894C42.1655 31.808 42.1027 31.6166 42.0962 31.441L42.0522 29.4108C42.0391 29.0688 42.2635 28.6518 42.566 28.4742L63.3822 16.2782L34.1713 0.266876C33.8497 0.0874198 33.4254 0.000775157 33.0008 4.9585e-06C32.5757 -0.00076524 32.1507 0.08819 31.8287 0.266876L2.61744 16.2785L35.3415 35.4372C35.6448 35.604 35.8753 35.9998 35.8753 36.3572V64.3062C35.8753 64.657 35.6257 65.0602 35.3201 65.2242L33.5591 66.2078C33.4128 66.286 33.2267 66.3279 33.0322 66.3279C33.0211 66.3279 33.0096 66.3279 32.9985 66.3279C32.7871 66.3329 32.5907 66.291 32.4367 66.2078L30.6699 65.2239C30.3697 65.0633 30.1243 64.6581 30.1243 64.3062L30.1247 39.391C30.109 39.2085 29.9761 38.9859 29.8306 38.9019L1 22.0234V55.0834C0.999617 55.8232 1.51847 56.7359 2.15411 57.1098L31.8467 74.7212C32.1641 74.9083 32.5822 75.0015 33 75C33.4181 74.9988 33.8363 74.911 34.153 74.7216L63.8501 57.1098C64.4834 56.732 65.0008 55.8244 65 55.0834V22.0238L45.4609 33.4717Z" fill="white" />
    </g>
    <defs>
        <clipPath id="clip0_2331_29384">
            <rect width="80" height="75" fill="white" />
        </clipPath>
    </defs>
</svg>
