<svg width="100" height="39" viewBox="0 0 100 39" fill="none" xmlns="http://www.w3.org/2000/svg">
    <path d="M30 0.500671C30 0.500671 26.6265 0.554745 14.4529 0.554745H0V19.7217V38.8887H19.167H38.3339V34.7445V30.6003H23.0522H7.77039V27.2331V23.8659L19.3224 23.7623L30.8225 23.6069L30.978 19.5663L31.1334 15.5775H19.426H7.77039V11.9513V8.32513L21.6017 8.42874L35.433 8.58415L43.2034 23.7105L51.0256 38.8887H60.5054H69.9335V31.1183V23.3479H81.5891H93.2447V31.1183V38.8887H96.6119H99.979V22.3636C99.979 0.0367165 101.378 1.59079 81.3301 1.59079C61.8523 1.59079 63.0438 0.554741 62.6812 18.1158L62.4221 30.8593L59.5212 31.0147C57.6045 31.1183 56.4648 30.9629 56.1022 30.4966C55.7914 30.134 52.0098 22.8817 47.7102 14.386L40.5 0.500671H35H30ZM93.2447 12.4693V16.6136H81.5891H69.9335V12.832C69.9335 10.7081 70.0889 8.84316 70.2961 8.68775C70.4516 8.48054 75.7354 8.32513 81.9517 8.32513H93.2447V12.4693Z" fill="white"/>
    <mask id="mask0_417_25" style="mask-type:alpha" maskUnits="userSpaceOnUse" x="0" y="0" width="100" height="39">
        <path d="M30 0.500671C30 0.500671 26.6265 0.554745 14.4529 0.554745H0V19.7217V38.8887H19.167H38.3339V34.7445V30.6003H23.0522H7.77039V27.2331V23.8659L19.3224 23.7623L30.8225 23.6069L30.978 19.5663L31.1334 15.5775H19.426H7.77039V11.9513V8.32513L21.6017 8.42874L35.433 8.58415L43.2034 23.7105L51.0256 38.8887H60.5054H69.9335V31.1183V23.3479H81.5891H93.2447V31.1183V38.8887H96.6119H99.979V22.3636C99.979 0.0367165 101.378 1.59079 81.3301 1.59079C61.8523 1.59079 63.0438 0.554741 62.6812 18.1158L62.4221 30.8593L59.5212 31.0147C57.6045 31.1183 56.4648 30.9629 56.1022 30.4966C55.7914 30.134 52.0098 22.8817 47.7102 14.386L40.5 0.500671H35H30ZM93.2447 12.4693V16.6136H81.5891H69.9335V12.832C69.9335 10.7081 70.0889 8.84316 70.2961 8.68775C70.4516 8.48054 75.7354 8.32513 81.9517 8.32513H93.2447V12.4693Z" fill="white"/>
    </mask>
    <g mask="url(#mask0_417_25)">
        <path d="M41.5 40.5H-1.5V-2H30L41.5 20.5V40.5Z" fill="#EB0E54"/>
    </g>
</svg>