<svg width="130" height="130" viewBox="0 0 130 130" fill="none" xmlns="http://www.w3.org/2000/svg">
<g clip-path="url(#clip0_620_2818)">
<path d="M128.872 94.5847L115.547 87.9222L107.067 65.8628C106.967 65.602 106.814 65.3646 106.619 65.1653C106.423 64.9661 106.188 64.8094 105.929 64.705L53.3097 43.6714C52.9418 43.5249 52.5391 43.4892 52.1512 43.5686C51.7632 43.648 51.4069 43.839 51.1261 44.1183L44.1082 51.1362C43.8326 51.4173 43.6447 51.7723 43.5671 52.1581C43.4896 52.544 43.5258 52.944 43.6714 53.3097L64.705 105.929C64.8095 106.188 64.9662 106.423 65.1654 106.619C65.3646 106.814 65.602 106.967 65.8628 107.067L87.9222 115.547L94.5847 128.872C94.725 129.166 94.9339 129.422 95.1937 129.618C95.4535 129.814 95.7567 129.945 96.0777 130C96.1858 130.01 96.2946 130.01 96.4027 130C96.9405 129.997 97.4555 129.782 97.8347 129.4L129.4 97.8347C129.633 97.6105 129.808 97.3342 129.912 97.0286C130.017 96.7231 130.047 96.3971 130 96.0776C129.945 95.7567 129.814 95.4535 129.618 95.1937C129.422 94.9338 129.166 94.725 128.872 94.5847ZM47.9269 53.0456L49.0542 51.9284L75.2472 78.1214C73.521 80.5674 72.7755 83.5722 73.158 86.5414C73.5406 89.5107 75.0234 92.2284 77.3133 94.157C79.6031 96.0856 82.5333 97.0848 85.5244 96.9569C88.5155 96.8291 91.3497 95.5835 93.4666 93.4666C95.5836 91.3497 96.8291 88.5154 96.957 85.5243C97.0848 82.5332 96.0856 79.6031 94.157 77.3132C92.2284 75.0234 89.5108 73.5406 86.5415 73.158C83.5722 72.7754 80.5675 73.521 78.1214 75.2472L51.9285 49.0542L53.0457 47.9269L103.593 68.148L111.566 88.887L88.8871 111.566L68.148 103.593L47.9269 53.0456ZM85.0074 77.1159C86.8329 77.1186 88.6011 77.7542 90.0106 78.9144C91.4202 80.0745 92.3838 81.6875 92.7375 83.4785C93.0912 85.2694 92.813 87.1277 91.9503 88.7365C91.0876 90.3454 89.6938 91.6054 88.0063 92.3019C86.3188 92.9983 84.442 93.0882 82.6957 92.5561C80.9494 92.0241 79.4416 90.903 78.4291 89.3839C77.4166 87.8649 76.9621 86.0417 77.1431 84.2252C77.324 82.4086 78.1292 80.7109 79.4214 79.4214C80.9044 77.9431 82.9135 77.1139 85.0074 77.1159ZM96.9613 124.535L91.8832 114.379L114.359 91.9034L124.515 96.9816L96.9613 124.535Z" fill="#DFB48F"/>
<path d="M38.8484 108.672C38.46 108.305 37.9458 108.1 37.4113 108.1C36.8768 108.1 36.3626 108.305 35.9742 108.672L33.3945 111.252C26.5104 101.909 22.7127 90.6504 22.5306 79.0463C22.3485 67.4423 25.7912 56.0705 32.3789 46.5159C34.3525 47.6019 36.625 48.0191 38.8557 47.7049C41.0864 47.3907 43.1552 46.3621 44.7521 44.7732C46.349 43.1843 47.3881 41.1207 47.7134 38.8916C48.0388 36.6625 47.6331 34.388 46.557 32.4089C56.1116 25.8212 67.4834 22.3785 79.0874 22.5606C90.6915 22.7426 101.95 26.5404 111.293 33.4245L108.673 35.9737C108.295 36.3545 108.083 36.8693 108.084 37.4057C108.082 37.6731 108.133 37.9381 108.234 38.1855C108.335 38.433 108.484 38.6581 108.673 38.8479L117.63 47.7346C118.011 48.113 118.526 48.3253 119.062 48.3253C119.599 48.3253 120.114 48.113 120.494 47.7346L129.402 38.8276C129.59 38.639 129.74 38.4149 129.842 38.1683C129.945 37.9218 129.997 37.6574 129.997 37.3905C129.997 37.1236 129.945 36.8592 129.842 36.6127C129.74 36.3661 129.59 36.142 129.402 35.9534L120.494 27.0464C120.114 26.668 119.599 26.4557 119.062 26.4557C118.526 26.4557 118.011 26.668 117.63 27.0464L114.187 30.469C105.702 24.0837 95.6699 20.072 85.1213 18.8458C74.5728 17.6196 63.888 19.2231 54.164 23.4917L65.8742 11.812C67.202 12.4464 68.7115 12.59 70.1351 12.2173C71.5587 11.8446 72.8042 10.9797 73.6508 9.77606C74.4973 8.57238 74.8901 7.10775 74.7595 5.642C74.6289 4.17625 73.9834 2.80415 72.9374 1.7691C71.8913 0.734051 70.5125 0.102981 69.0455 -0.0121558C67.5784 -0.127293 66.118 0.280946 64.9233 1.14014C63.7286 1.99933 62.8769 3.25393 62.5192 4.68136C62.1616 6.10879 62.3211 7.61676 62.9695 8.93777L43.2054 28.7323C41.1987 27.3862 38.7869 26.7786 36.3819 27.0133C33.977 27.2479 31.7281 28.3103 30.0195 30.019C28.3108 31.7276 27.2484 33.9765 27.0137 36.3814C26.7791 38.7864 27.3867 41.1982 28.7328 43.205L8.93825 62.969C7.61208 62.3228 6.09975 62.1677 4.66999 62.5312C3.24024 62.8947 1.98567 63.7534 1.12921 64.9545C0.272756 66.1557 -0.13012 67.6216 -0.00782312 69.0918C0.114474 70.562 0.754022 71.9412 1.79718 72.9843C2.84033 74.0275 4.21953 74.667 5.68969 74.7893C7.15986 74.9116 8.62577 74.5087 9.82695 73.6523C11.0281 72.7958 11.8868 71.5413 12.2503 70.1115C12.6138 68.6817 12.4587 67.1694 11.8125 65.8432L23.5226 54.1636C19.2498 63.8849 17.6413 74.5682 18.8621 85.1167C20.0829 95.6651 24.0892 105.699 30.4695 114.187L27.0367 117.63C26.6584 118.011 26.446 118.525 26.446 119.062C26.446 119.599 26.6584 120.113 27.0367 120.494L35.9437 129.401C36.3229 129.783 36.8379 129.998 37.3758 130C37.6438 130 37.9092 129.948 38.1567 129.845C38.4043 129.742 38.629 129.591 38.8179 129.401L47.7351 120.494C48.1135 120.113 48.3258 119.599 48.3258 119.062C48.3258 118.525 48.1135 118.011 47.7351 117.63L38.8484 108.672ZM119.083 31.3323L125.116 37.3651L119.083 43.3979L113.05 37.3651L119.083 31.3323ZM67.032 4.70261C67.3338 4.39831 67.7193 4.19053 68.1394 4.10563C68.5595 4.02073 68.9954 4.06254 69.3917 4.22576C69.788 4.38897 70.1269 4.66624 70.3654 5.02237C70.6038 5.3785 70.7312 5.79744 70.7312 6.22605C70.7312 6.65466 70.6038 7.0736 70.3654 7.42973C70.1269 7.78586 69.788 8.06313 69.3917 8.22634C68.9954 8.38955 68.5595 8.43137 68.1394 8.34647C67.7193 8.26157 67.3338 8.05379 67.032 7.74949C66.8318 7.54952 66.6729 7.31204 66.5646 7.05063C66.4562 6.78923 66.4004 6.50903 66.4004 6.22605C66.4004 5.94307 66.4562 5.66287 66.5646 5.40146C66.6729 5.14006 66.8318 4.90258 67.032 4.70261ZM32.907 32.9065C33.4968 32.3139 34.1979 31.8436 34.9701 31.5227C35.7422 31.2018 36.5701 31.0366 37.4062 31.0366C38.2424 31.0366 39.0703 31.2018 39.8424 31.5227C40.6145 31.8436 41.3156 32.3139 41.9054 32.9065C42.797 33.7967 43.4045 34.9313 43.6511 36.1669C43.8976 37.4024 43.7721 38.6833 43.2904 39.8475C42.8088 41.0117 41.9926 42.0069 40.9451 42.707C39.8977 43.4072 38.6661 43.7809 37.4062 43.7809C36.1463 43.7809 34.9147 43.4072 33.8673 42.707C32.8199 42.0069 32.0037 41.0117 31.522 39.8475C31.0403 38.6833 30.9148 37.4024 31.1614 36.1669C31.4079 34.9313 32.0154 33.7967 32.907 32.9065ZM7.76013 70.0784C7.34544 70.4242 6.81641 70.6025 6.277 70.5781C5.73758 70.5537 5.22679 70.3285 4.84497 69.9467C4.46316 69.5649 4.23794 69.0541 4.21357 68.5146C4.1892 67.9752 4.36743 67.4462 4.71325 67.0315C5.11971 66.6321 5.6668 66.4082 6.23669 66.4082C6.80658 66.4082 7.35367 66.6321 7.76013 67.0315C7.96035 67.2315 8.11919 67.469 8.22756 67.7304C8.33593 67.9918 8.39171 68.272 8.39171 68.555C8.39171 68.8379 8.33593 69.1181 8.22756 69.3795C8.11919 69.6409 7.96035 69.8784 7.76013 70.0784ZM37.4062 125.054L31.3734 119.021L37.4062 112.989L43.439 119.021L37.4062 125.054Z" fill="white"/>
</g>
<defs>
<clipPath id="clip0_620_2818">
<rect width="130" height="130" fill="white"/>
</clipPath>
</defs>
</svg>
