<svg width="130" height="130" viewBox="0 0 130 130" fill="none" xmlns="http://www.w3.org/2000/svg">
<path d="M44.6875 46.7188H30.4688V32.5C30.4688 31.9613 30.2548 31.4446 29.8738 31.0637C29.4929 30.6828 28.9762 30.4688 28.4375 30.4688C24.8218 30.4688 21.2873 31.5409 18.281 33.5497C15.2747 35.5585 12.9315 38.4136 11.5478 41.7541C10.1642 45.0945 9.80214 48.7703 10.5075 52.3165C11.2129 55.8627 12.954 59.1201 15.5107 61.6768C18.0674 64.2335 21.3248 65.9746 24.871 66.68C28.4172 67.3854 32.093 67.0233 35.4334 65.6397C38.7739 64.256 41.629 61.9129 43.6378 58.9065C45.6466 55.9002 46.7188 52.3657 46.7188 48.75C46.7188 48.2113 46.5048 47.6946 46.1238 47.3137C45.7429 46.9328 45.2262 46.7188 44.6875 46.7188ZM26.4063 34.6755V47.9091L17.0625 57.2528C15.5794 55.2815 14.6359 52.9574 14.3251 50.5101C14.0144 48.0628 14.3471 45.5768 15.2905 43.2973C16.2339 41.0178 17.7553 39.0237 19.7046 37.5118C21.6539 35.9998 23.9638 35.0222 26.4063 34.6755ZM28.4375 62.9688C25.371 62.9686 22.3878 61.9704 19.9388 60.125L29.2825 50.7812H42.5161C42.0231 54.1643 40.3295 57.2572 37.7447 59.4948C35.1599 61.7324 31.8563 62.9655 28.4375 62.9688Z" fill="white"/>
<path d="M36.5625 42.6562H52.8125C53.3512 42.6562 53.8679 42.4422 54.2488 42.0613C54.6297 41.6804 54.8438 41.1637 54.8438 40.625C54.8378 35.7783 52.9099 31.1319 49.4828 27.7047C46.0556 24.2776 41.4092 22.3497 36.5625 22.3438C36.0238 22.3438 35.5071 22.5578 35.1262 22.9387C34.7453 23.3196 34.5312 23.8363 34.5312 24.375V40.625C34.5312 41.1637 34.7453 41.6804 35.1262 42.0613C35.5071 42.4422 36.0238 42.6562 36.5625 42.6562ZM38.5938 26.5505C41.63 26.9943 44.4419 28.4061 46.6117 30.5758C48.7814 32.7456 50.1932 35.5575 50.637 38.5938H38.5938V26.5505Z" fill="white"/>
<path d="M79.2188 52.8125C73.9961 52.8125 68.8907 54.3612 64.5482 57.2628C60.2058 60.1643 56.8212 64.2884 54.8226 69.1135C52.8239 73.9386 52.301 79.248 53.3199 84.3704C54.3388 89.4927 56.8537 94.1978 60.5467 97.8908C64.2397 101.584 68.9448 104.099 74.0672 105.118C79.1895 106.137 84.4989 105.614 89.324 103.615C94.1491 101.616 98.2732 98.2318 101.175 93.8893C104.076 89.5468 105.625 84.4414 105.625 79.2188C105.617 72.2179 102.832 65.506 97.8819 60.5556C92.9315 55.6052 86.2197 52.8206 79.2188 52.8125ZM69.0625 71.0938V59.3409C70.361 58.6757 71.7217 58.1396 73.125 57.7403V71.0938H69.0625ZM93.4375 75.1562V79.2188H65V75.1562H93.4375ZM85.3125 71.0938V57.7403C86.7158 58.1396 88.0765 58.6757 89.375 59.3409V71.0938H85.3125ZM81.25 56.9786V71.0938H77.1875V56.9786C77.8578 56.9177 78.5322 56.875 79.2188 56.875C79.9053 56.875 80.5797 56.9177 81.25 56.9786ZM65 61.9958V71.0938H62.9688C62.43 71.0938 61.9134 71.3078 61.5324 71.6887C61.1515 72.0696 60.9375 72.5863 60.9375 73.125V81.25C60.9375 81.7887 61.1515 82.3054 61.5324 82.6863C61.9134 83.0672 62.43 83.2812 62.9688 83.2812H95.4688C96.0075 83.2812 96.5241 83.0672 96.9051 82.6863C97.286 82.3054 97.5 81.7887 97.5 81.25V73.125C97.5 72.5863 97.286 72.0696 96.9051 71.6887C96.5241 71.3078 96.0075 71.0938 95.4688 71.0938H93.4375V61.9958C97.074 64.982 99.6695 69.0448 100.851 73.5997C102.032 78.1545 101.738 82.9666 100.011 87.3438H58.4269C56.6998 82.9666 56.4057 78.1545 57.5869 73.5997C58.768 69.0448 61.3635 64.982 65 61.9958ZM79.2188 101.562C75.5025 101.559 71.8458 100.628 68.5799 98.8544C65.3141 97.081 62.5421 94.521 60.515 91.4062H97.9225C95.8954 94.521 93.1235 97.081 89.8576 98.8544C86.5917 100.628 82.9351 101.559 79.2188 101.562Z" fill="#DFB48F"/>
<path d="M125.269 112.241L116.482 103.454C116.888 102.689 117.039 101.814 116.913 100.957C116.787 100.1 116.391 99.3059 115.781 98.6903L110.612 93.5208C113.102 88.1084 114.138 82.1407 113.62 76.2057C113.102 70.2707 111.046 64.573 107.656 59.6741V8.125C107.656 6.50884 107.014 4.95887 105.871 3.81607C104.729 2.67327 103.179 2.03125 101.562 2.03125H8.125C6.50884 2.03125 4.95887 2.67327 3.81607 3.81607C2.67327 4.95887 2.03125 6.50884 2.03125 8.125V85.3125C2.03125 86.9287 2.67327 88.4786 3.81607 89.6214C4.95887 90.7642 6.50884 91.4062 8.125 91.4062H46.9503C48.6067 95.8335 51.1578 99.8717 54.4445 103.269C57.7311 106.666 61.6827 109.35 66.0526 111.152C70.4225 112.954 75.117 113.836 79.843 113.743C84.569 113.65 89.2251 112.584 93.5208 110.612L98.6903 115.781C99.301 116.399 100.096 116.801 100.955 116.927C101.814 117.054 102.691 116.897 103.454 116.482L112.241 125.269C113.968 126.997 116.312 127.967 118.755 127.967C121.198 127.967 123.542 126.997 125.269 125.269C126.997 123.542 127.967 121.198 127.967 118.755C127.967 116.312 126.997 113.968 125.269 112.241ZM8.125 6.09375H101.562C102.101 6.09375 102.618 6.30776 102.999 6.68869C103.38 7.06962 103.594 7.58628 103.594 8.125V14.2188H6.09375V8.125C6.09375 7.58628 6.30776 7.06962 6.68869 6.68869C7.06962 6.30776 7.58628 6.09375 8.125 6.09375ZM8.125 87.3438C7.58628 87.3438 7.06962 87.1297 6.68869 86.7488C6.30776 86.3679 6.09375 85.8512 6.09375 85.3125V18.2812H103.594V54.7848C100.654 51.8636 97.2142 49.4935 93.4375 47.7872V24.375C93.4375 23.8363 93.2235 23.3196 92.8426 22.9387C92.4616 22.5578 91.945 22.3438 91.4062 22.3438H83.2812C82.7425 22.3438 82.2259 22.5578 81.8449 22.9387C81.464 23.3196 81.25 23.8363 81.25 24.375V44.7911C80.5736 44.7505 79.9053 44.6875 79.2188 44.6875C78.5322 44.6875 77.8639 44.7505 77.1875 44.7911V36.5625C77.1875 36.0238 76.9735 35.5071 76.5926 35.1262C76.2116 34.7453 75.695 34.5312 75.1562 34.5312H67.0312C66.4925 34.5312 65.9759 34.7453 65.5949 35.1262C65.214 35.5071 65 36.0238 65 36.5625V47.7872C57.6539 51.0692 51.6958 56.8299 48.1682 64.0612C44.6405 71.2925 43.768 79.534 45.7031 87.3438H8.125ZM89.375 46.217C88.0416 45.8149 86.6849 45.4948 85.3125 45.2583V26.4062H89.375V46.217ZM73.125 45.2583C71.7526 45.4948 70.3959 45.8149 69.0625 46.217V38.5938H73.125V45.2583ZM48.75 79.2188C48.75 73.1926 50.537 67.3018 53.8849 62.2912C57.2329 57.2807 61.9914 53.3754 67.5589 51.0693C73.1263 48.7632 79.2525 48.1598 85.1629 49.3354C91.0733 50.5111 96.5023 53.413 100.763 57.6741C105.025 61.9352 107.926 67.3642 109.102 73.2746C110.278 79.185 109.674 85.3112 107.368 90.8786C105.062 96.4461 101.157 101.205 96.1463 104.553C91.1357 107.901 85.2449 109.688 79.2188 109.688C71.1407 109.678 63.3962 106.465 57.6842 100.753C51.9722 95.0413 48.7591 87.2968 48.75 79.2188ZM97.2603 108.607C101.876 105.762 105.762 101.876 108.607 97.2603L112.909 101.562L101.562 112.909L97.2603 108.607ZM118.755 123.906C118.078 123.908 117.408 123.775 116.783 123.516C116.158 123.257 115.59 122.877 115.113 122.397L106.466 113.75L113.75 106.466L122.397 115.113C123.117 115.833 123.608 116.751 123.806 117.75C124.005 118.749 123.903 119.785 123.513 120.726C123.123 121.667 122.463 122.472 121.616 123.038C120.769 123.604 119.774 123.906 118.755 123.906Z" fill="#DFB48F"/>
<path d="M36.5625 71.0938H12.1875C11.6488 71.0938 11.1321 71.3078 10.7512 71.6887C10.3703 72.0696 10.1562 72.5863 10.1562 73.125V81.25C10.1562 81.7887 10.3703 82.3054 10.7512 82.6863C11.1321 83.0672 11.6488 83.2812 12.1875 83.2812H36.5625C37.1012 83.2812 37.6179 83.0672 37.9988 82.6863C38.3797 82.3054 38.5938 81.7887 38.5938 81.25V73.125C38.5938 72.5863 38.3797 72.0696 37.9988 71.6887C37.6179 71.3078 37.1012 71.0938 36.5625 71.0938ZM34.5312 79.2188H14.2188V75.1562H34.5312V79.2188Z" fill="#DFB48F"/>
</svg>
