<svg width="130" height="130" viewBox="0 0 130 130" fill="none" xmlns="http://www.w3.org/2000/svg">
    <g clip-path="url(#clip0_639_3130)">
        <path d="M114.709 17.3864L97.9384 0.616337C97.5586 0.234454 97.0344 0 96.4539 0H16.7765C15.6165 0 14.6797 0.939863 14.6797 2.09677V127.903C14.6797 129.06 15.6165 130 16.7765 130H113.228C114.388 130 115.325 129.06 115.325 127.903V18.871C115.325 18.2905 115.09 17.7663 114.709 17.3864ZM98.5507 7.15852L108.166 16.7742H98.5507V7.15852ZM111.131 125.806H18.8732V4.19355H94.3571V18.871C94.3571 20.0279 95.2939 20.9677 96.4539 20.9677H111.131V125.806Z" fill="#EB0E54" />
        <path d="M23.0664 8.38672H90.1632V12.5803H23.0664V8.38672Z" fill="#EB0E54" />
        <path d="M23.0664 16.7744H90.1632V20.968H23.0664V16.7744Z" fill="#DFB48F" />
        <path d="M23.0664 25.1611H90.1632V29.3547H23.0664V25.1611Z" fill="#EB0E54" />
        <path d="M60.8047 98.5489C60.8047 111.266 71.1524 121.613 83.8692 121.613C96.586 121.613 106.934 111.266 106.934 98.5489C106.934 85.8321 96.586 75.4844 83.8692 75.4844C71.1524 75.4844 60.8047 85.8321 60.8047 98.5489ZM102.74 98.5489C102.74 108.953 94.2753 117.42 83.8692 117.42C73.4631 117.42 64.9982 108.953 64.9982 98.5489C64.9982 88.1449 73.4631 79.6779 83.8692 79.6779C94.2753 79.6779 102.74 88.1449 102.74 98.5489Z" fill="#EB0E54" />
        <path d="M81.776 83.8711V96.4517H69.1953V100.645H81.776V113.226H85.9695V100.645H98.5502V96.4517H85.9695V83.8711H81.776Z" fill="#DFB48F" />
        <path d="M23.0664 117.42H27.26V121.613H23.0664V117.42Z" fill="#EB0E54" />
        <path d="M31.4531 117.42H35.6467V121.613H31.4531V117.42Z" fill="#EB0E54" />
        <path d="M39.8359 117.42H44.0295V121.613H39.8359V117.42Z" fill="#EB0E54" />
        <path d="M23.0664 67.0967H48.2277V71.2902H23.0664V67.0967Z" fill="#EB0E54" />
        <path d="M23.0664 75.4844H48.2277V79.6779H23.0664V75.4844Z" fill="#DFB48F" />
        <path d="M23.0664 83.8711H48.2277V88.0646H23.0664V83.8711Z" fill="#EB0E54" />
        <path d="M23.0664 92.2578H48.2277V96.4514H23.0664V92.2578Z" fill="#DFB48F" />
    </g>
    <defs>
        <clipPath id="clip0_639_3130">
            <rect width="130" height="130" fill="white" />
        </clipPath>
    </defs>
</svg>