<svg width="130" height="130" viewBox="0 0 130 130" fill="none" xmlns="http://www.w3.org/2000/svg">
<g clip-path="url(#clip0_620_2849)">
<path d="M114.707 17.3864L97.9365 0.616337C97.5566 0.234454 97.0324 0 96.4519 0H16.7745C15.6145 0 14.6777 0.939863 14.6777 2.09677V127.903C14.6777 129.06 15.6145 130 16.7745 130H113.226C114.386 130 115.323 129.06 115.323 127.903V18.871C115.323 18.2905 115.088 17.7663 114.707 17.3864ZM98.5487 7.15852L108.164 16.7742H98.5487V7.15852ZM111.129 125.806H18.8713V4.19355H94.3552V18.871C94.3552 20.0279 95.292 20.9677 96.4519 20.9677H111.129V125.806Z" fill="#DFB48F"/>
<path d="M23.0645 8.38672H90.1612V12.5803H23.0645V8.38672Z" fill="white"/>
<path d="M23.0645 16.7734H90.1612V20.967H23.0645V16.7734Z" fill="white"/>
<path d="M23.0645 25.1602H90.1612V29.3537H23.0645V25.1602Z" fill="white"/>
<path d="M60.8066 98.5489C60.8066 111.266 71.1543 121.613 83.8712 121.613C96.588 121.613 106.936 111.266 106.936 98.5489C106.936 85.8321 96.588 75.4844 83.8712 75.4844C71.1543 75.4844 60.8066 85.8321 60.8066 98.5489ZM102.742 98.5489C102.742 108.953 94.2772 117.42 83.8712 117.42C73.4651 117.42 65.0002 108.953 65.0002 98.5489C65.0002 88.1449 73.4651 79.6779 83.8712 79.6779C94.2772 79.6779 102.742 88.1449 102.742 98.5489Z" fill="#DFB48F"/>
<path d="M81.774 83.8711V96.4517H69.1934V100.645H81.774V113.226H85.9676V100.645H98.5482V96.4517H85.9676V83.8711H81.774Z" fill="white"/>
<path d="M23.0645 117.418H27.258V121.612H23.0645V117.418Z" fill="white"/>
<path d="M31.4512 117.418H35.6447V121.612H31.4512V117.418Z" fill="white"/>
<path d="M39.8379 117.418H44.0314V121.612H39.8379V117.418Z" fill="white"/>
<path d="M23.0645 67.0977H48.2257V71.2912H23.0645V67.0977Z" fill="white"/>
<path d="M23.0645 75.4844H48.2257V79.6779H23.0645V75.4844Z" fill="white"/>
<path d="M23.0645 83.8711H48.2257V88.0646H23.0645V83.8711Z" fill="white"/>
<path d="M23.0645 92.2578H48.2257V96.4514H23.0645V92.2578Z" fill="white"/>
</g>
<defs>
<clipPath id="clip0_620_2849">
<rect width="130" height="130" fill="white"/>
</clipPath>
</defs>
</svg>
