<svg width="130" height="130" viewBox="0 0 130 130" fill="none" xmlns="http://www.w3.org/2000/svg">
    <path d="M62.292 7.34961C81.4555 7.34968 98.0111 19.5401 101.739 38.1104L101.792 38.3721L102.058 38.3906C117.652 39.51 129.65 52.2366 129.65 67.709C129.65 83.9444 116.443 97.1506 100.208 97.1504H73.125C71.8234 97.1504 70.7667 96.0936 70.7666 94.792C70.7666 93.4903 71.8233 92.4336 73.125 92.4336H100.208C113.84 92.4336 124.934 81.3401 124.934 67.708C124.933 54.058 113.654 42.7922 100.153 42.9824C99.5531 42.9822 98.9088 42.7707 98.3955 42.4062C97.946 42.0871 97.6198 41.6689 97.4932 41.2012L97.4512 40.998C94.9729 23.6007 79.8591 10.4835 62.292 10.4834C42.6853 10.4834 26.7334 26.4353 26.7334 46.042C26.7334 47.5794 26.8651 49.2108 27.1484 51.1729C27.2474 51.8561 27.0398 52.5491 26.582 53.0684C26.1475 53.5494 25.4258 53.7433 24.7402 53.8633C24.6247 53.8593 24.3529 53.8344 24.2588 53.8174L24.2275 53.8115H24.1963C13.7255 53.817 5.06649 62.4796 5.06641 73.125C5.06641 83.7726 13.7276 92.4336 24.375 92.4336H51.458C52.7597 92.4336 53.8164 93.4903 53.8164 94.792C53.8164 96.0937 52.7597 97.1504 51.458 97.1504H24.375C11.1295 97.1504 0.349609 86.3705 0.349609 73.125C0.349818 60.7399 9.77303 50.5149 21.8223 49.2334L22.1621 49.1973L22.1348 48.8574C22.0543 47.8754 22.0166 46.9475 22.0166 46.042C22.0166 23.8499 40.0634 7.34961 62.292 7.34961Z" fill="#EB0E54" stroke="white" stroke-width="0.7" />
    <path d="M60.626 66.0391C61.3077 65.362 62.3115 65.1566 63.1963 65.5283L63.1982 65.5293C64.074 65.8919 64.6503 66.7548 64.6504 67.708V121.875C64.6503 123.177 63.5935 124.233 62.292 124.233C60.9903 124.233 59.9337 123.177 59.9336 121.875V73.4014L59.3359 73.999L53.1279 80.2061C52.2084 81.1256 50.7135 81.1256 49.7939 80.2061C48.8744 79.2865 48.8744 77.7916 49.7939 76.8721L60.626 66.0391Z" fill="#DFB48F" stroke="white" stroke-width="0.7" />
    <path d="M60.6221 66.0439C61.5416 65.1244 63.0365 65.1244 63.9561 66.0439L74.79 76.877C75.7095 77.7965 75.7096 79.2921 74.79 80.2119C74.3328 80.6692 73.7294 80.9004 73.125 80.9004C72.521 80.9004 71.9165 80.6685 71.4531 80.21L60.6221 69.3779C59.7025 68.4584 59.7025 66.9635 60.6221 66.0439Z" fill="#DFB48F" stroke="white" stroke-width="0.7" />
</svg>