<svg width="130" height="130" viewBox="0 0 130 130" fill="none" xmlns="http://www.w3.org/2000/svg">
<path fill-rule="evenodd" clip-rule="evenodd" d="M87.9775 121.793H26.6098C26.0292 121.793 25.4758 121.547 25.0875 121.115C24.6993 120.683 24.5127 120.107 24.5739 119.53C26.3677 102.664 38.49 88.8721 54.5043 84.6073C47.8957 80.9145 43.4163 73.8504 43.4163 65.7731C43.4163 53.8967 53.1 44.2109 64.9973 44.2109C76.8742 44.2109 86.5595 53.8962 86.5595 65.7731C86.5595 73.8502 82.0803 80.9135 75.4789 84.6065C80.1933 85.8622 84.5712 87.9447 88.4483 90.6887C92.3498 86.9932 97.6125 84.7215 103.388 84.7215C115.366 84.7215 125.133 94.4937 125.133 106.472C125.133 118.451 115.367 128.217 103.388 128.217C97.3767 128.217 91.9213 125.758 87.9775 121.793ZM58.4963 87.9113C43.4066 90.6179 31.5317 102.578 28.9582 117.699H62.8067L52.2632 107.787C51.6583 107.218 51.4566 106.34 51.7531 105.565L58.4963 87.9113ZM67.1902 117.699H84.7728C82.7838 114.419 81.6373 110.575 81.6373 106.472C81.6373 101.746 83.1585 97.3633 85.7364 93.7886C81.5358 90.8878 76.6991 88.8438 71.4787 87.9088L78.2229 105.565C78.5188 106.34 78.318 107.217 77.7141 107.786L67.1902 117.699ZM64.9973 83.2408C74.6191 83.2408 82.465 75.3946 82.465 65.7731C82.465 56.1516 74.6191 48.3054 64.9973 48.3054C55.3584 48.3054 47.5108 56.1511 47.5108 65.7731C47.5108 75.3954 55.3584 83.2408 64.9973 83.2408ZM66.895 87.3837C66.2664 87.3516 65.6338 87.3352 64.9973 87.3352C64.3544 87.3352 63.7154 87.3518 63.0804 87.3844C61.3751 91.8488 56.0676 105.744 56.0676 105.744L64.9978 114.139L73.9087 105.745L66.895 87.3837ZM103.388 124.139C113.12 124.139 121.054 116.204 121.054 106.472C121.054 96.7399 113.12 88.7999 103.388 88.7999C93.6554 88.7999 85.7157 96.7399 85.7157 106.472C85.7157 116.204 93.6557 124.139 103.388 124.139Z" fill="#DFB48F"/>
<path fill-rule="evenodd" clip-rule="evenodd" d="M100.59 103.534L108.727 95.3112L108.731 95.3074C110.659 93.3696 113.805 93.3605 115.743 95.2883C117.68 97.2151 117.693 100.35 115.766 102.297L115.765 102.298C111.876 106.222 108.016 110.17 104.109 114.077C102.172 116.013 99.028 116.013 97.0912 114.077L90.617 107.596C88.6813 105.661 88.6774 102.528 90.6132 100.582L90.617 100.579C92.5535 98.642 95.6982 98.642 97.6347 100.579L100.59 103.534ZM99.1554 107.867L94.7507 103.462C94.4066 103.118 93.8476 103.117 93.5025 103.461C93.1584 103.809 93.1553 104.367 93.5007 104.713L99.9752 111.193C100.32 111.538 100.88 111.538 101.225 111.193C105.128 107.291 108.983 103.347 112.867 99.4276C113.21 99.081 113.211 98.5227 112.867 98.1796C112.523 97.8378 111.965 97.8401 111.623 98.1835L102.047 107.86C101.665 108.245 101.145 108.463 100.603 108.464C100.06 108.466 99.5391 108.251 99.1554 107.867ZM58.4175 11.5581C59.3262 9.16761 62.1075 1.85116 62.1075 1.85116C63.0384 -0.617054 66.5499 -0.617054 67.4811 1.85116L71.1708 11.5581C73.7292 11.684 81.5445 12.0681 81.5374 12.0676C84.1975 12.1872 85.2645 15.5376 83.209 17.1761L75.1087 23.6896C75.7812 26.1632 77.8316 33.7047 77.8306 33.7014C78.5397 36.2402 75.7106 38.3108 73.4993 36.8765C73.497 36.8749 73.4947 36.8734 73.4921 36.8719L64.7946 31.1797L56.1055 36.8714C56.103 36.8729 56.1004 36.8747 56.0976 36.8765C53.8943 38.3057 51.0695 36.2453 51.7544 33.7142L51.7549 33.7119C51.7549 33.7119 53.8122 26.1451 54.4798 23.6896C52.4875 22.0878 46.3805 17.1769 46.3861 17.1815C44.324 15.5376 45.391 12.1872 48.0425 12.0681L58.4175 11.5581ZM51.4508 16C54.0238 18.069 57.6536 20.9879 57.6536 20.9879C58.572 21.7098 58.9444 22.838 58.6459 23.9723C58.6444 23.9777 58.6428 23.983 58.6416 23.9884L56.5488 31.6862C59.3112 29.8769 63.2109 27.3222 63.2071 27.3248C64.1936 26.6689 65.3875 26.6677 66.375 27.3205C66.375 27.3205 70.2753 29.873 73.0384 31.6813L70.947 23.9884C70.9454 23.983 70.9442 23.9777 70.9426 23.9723C70.6441 22.8377 71.0165 21.709 71.9332 20.9892L78.1377 16L70.1698 15.6085L70.1654 15.6082C69.0003 15.5483 68.0441 14.8614 67.6271 13.7589L64.7941 6.30659L61.9624 13.7558C61.5441 14.8614 60.5883 15.5483 59.4231 15.6082L59.4188 15.6085L51.4508 16ZM100.721 41.8356C101.63 39.4449 104.411 32.1287 104.411 32.1287C105.342 29.6605 108.853 29.6605 109.784 32.1287L113.474 41.8356C116.033 41.9613 123.848 42.3454 123.841 42.3451C126.501 42.4647 127.568 45.8151 125.513 47.4534L117.412 53.9671C118.085 56.4407 120.135 63.9822 120.134 63.9787C120.843 66.5177 118.014 68.5881 115.803 67.1537C115.801 67.1522 115.798 67.1507 115.796 67.1491L107.098 61.4569L98.4091 67.1489C98.4063 67.1504 98.4037 67.1522 98.4012 67.1537C96.1978 68.5832 93.373 66.5228 94.0579 63.9917L94.0584 63.9894C94.0584 63.9894 96.1157 56.4226 96.7831 53.9671C94.791 52.3651 88.6841 47.4544 88.6897 47.459C86.6275 45.8151 87.6945 42.4647 90.3458 42.3456L100.721 41.8356ZM93.7543 46.2775C96.3273 48.3465 99.9571 51.2654 99.9571 51.2654C100.876 51.9871 101.248 53.1155 100.949 54.2498C100.948 54.2552 100.946 54.2605 100.945 54.2659L98.8523 61.9637C101.615 60.1541 105.514 57.5995 105.511 57.602C106.497 56.9464 107.691 56.9449 108.679 57.598C108.679 57.598 112.579 60.1506 115.342 61.9588L113.25 54.2659C113.249 54.2605 113.247 54.2552 113.246 54.2498C112.947 53.1153 113.32 51.9865 114.237 51.2667L120.441 46.2775L112.473 45.8857L112.469 45.8855C111.304 45.8258 110.348 45.1389 109.931 44.0364L107.098 36.5841L104.266 44.0334C103.848 45.1389 102.892 45.8258 101.727 45.8855L101.722 45.8857L93.7543 46.2775ZM16.114 41.8356C17.023 39.4449 19.8039 32.1287 19.8039 32.1287C20.7348 29.6605 24.2464 29.6605 25.1775 32.1287L28.8672 41.8356C31.4257 41.9613 39.2412 42.3454 39.2338 42.3451C41.894 42.4647 42.961 45.8151 40.9055 47.4534L32.8052 53.9671C33.4776 56.4407 35.5281 63.9822 35.5271 63.9787C36.2362 66.5177 33.407 68.5881 31.1958 67.1537C31.1935 67.1522 31.1912 67.1507 31.1889 67.1491L22.4911 61.4569L13.802 67.1489C13.7995 67.1504 13.7969 67.1522 13.7944 67.1537C11.5907 68.5832 8.76591 66.5228 9.45084 63.9917L9.4516 63.9894C9.4516 63.9894 11.5087 56.4226 12.1762 53.9671C10.1839 52.3651 4.07699 47.4544 4.0826 47.459C2.02044 45.8151 3.08746 42.4647 5.73895 42.3456L16.114 41.8356ZM9.14725 46.2775C11.7202 48.3465 15.35 51.2654 15.35 51.2654C16.2687 51.9871 16.6409 53.1155 16.3424 54.2498C16.3408 54.2552 16.3396 54.2605 16.338 54.2659L14.2453 61.9637C17.0077 60.1541 20.9074 57.5995 20.9036 57.602C21.8901 56.9464 23.0843 56.9449 24.0715 57.598C24.0715 57.598 27.9718 60.1506 30.7349 61.9588L28.6434 54.2659C28.6419 54.2605 28.6406 54.2552 28.6391 54.2498C28.3406 53.1153 28.713 51.9865 29.6296 51.2667L35.8342 46.2775L27.8662 45.8857L27.8619 45.8855C26.6967 45.8258 25.7406 45.1389 25.3236 44.0364L22.4906 36.5841L19.6589 44.0334C19.2406 45.1389 18.2847 45.8258 17.1196 45.8855L17.1152 45.8857L9.14725 46.2775Z" fill="white"/>
</svg>
