<svg width="124" height="124" viewBox="0 0 124 124" fill="none" xmlns="http://www.w3.org/2000/svg">
<g clip-path="url(#clip0_417_605)">
<path d="M122.354 23.9953L100.01 1.65156C99.6226 1.27741 99.1063 1.06651 98.5677 1.0625H47.7865C46.1718 1.06732 44.6247 1.71089 43.4829 2.85265C42.3411 3.9944 41.6976 5.54157 41.6928 7.15625V19.4453C30.7515 19.9581 20.4281 24.6655 12.8665 32.5899C5.30482 40.5143 1.08594 51.0467 1.08594 62C1.08594 72.9533 5.30482 83.4857 12.8665 91.4101C20.4281 99.3345 30.7515 104.042 41.6928 104.555V116.844C41.6976 118.458 42.3411 120.006 43.4829 121.147C44.6247 122.289 46.1718 122.933 47.7865 122.938H116.849C118.464 122.933 120.011 122.289 121.153 121.147C122.294 120.006 122.938 118.458 122.943 116.844V25.4375C122.939 24.899 122.728 24.3826 122.354 23.9953ZM100.599 7.98906L116.016 23.4062H102.63C102.092 23.4062 101.575 23.1922 101.194 22.8113C100.813 22.4304 100.599 21.9137 100.599 21.375V7.98906ZM5.13025 62C5.14348 52.1206 8.94033 42.6215 15.7405 35.4548C22.5407 28.2882 31.8276 23.9985 41.6928 23.4672V61.1672L15.0834 87.7766C8.67786 80.7197 5.12962 71.5305 5.13025 62ZM17.9474 90.6406L44.5568 64.0312H82.2568C81.8868 71.3097 79.4596 78.3338 75.257 84.2878C71.0545 90.2418 65.249 94.8815 58.5149 97.6678C51.7808 100.454 44.3944 101.273 37.2135 100.029C30.0326 98.7852 23.352 95.5297 17.9474 90.6406ZM118.88 116.844C118.88 117.382 118.666 117.899 118.285 118.28C117.904 118.661 117.388 118.875 116.849 118.875H47.7865C47.2478 118.875 46.7311 118.661 46.3502 118.28C45.9693 117.899 45.7553 117.382 45.7553 116.844V104.555C56.6927 104.026 67.0088 99.3147 74.5702 91.3942C82.1315 83.4737 86.3597 72.9502 86.3802 62C86.3802 61.4613 86.1662 60.9446 85.7853 60.5637C85.4044 60.1828 84.8877 59.9688 84.349 59.9688H45.7553V7.15625C45.7553 6.61753 45.9693 6.10087 46.3502 5.71994C46.7311 5.33901 47.2478 5.125 47.7865 5.125H96.5365V21.375C96.5413 22.9897 97.1849 24.5368 98.3266 25.6786C99.4684 26.8204 101.016 27.4639 102.63 27.4688H118.88V116.844Z" fill="#DFB48F" stroke="#DFB48F" stroke-width="0.2"/>
<path d="M51.8438 11.2188C51.305 11.2188 50.7884 11.4328 50.4074 11.8137C50.0265 12.1946 49.8125 12.7113 49.8125 13.25V53.875C49.8125 54.4137 50.0265 54.9304 50.4074 55.3113C50.7884 55.6922 51.305 55.9062 51.8438 55.9062H92.4688C93.0075 55.9062 93.5241 55.6922 93.9051 55.3113C94.286 54.9304 94.5 54.4137 94.5 53.875C94.4876 42.5657 89.9895 31.7231 81.9926 23.7261C73.9957 15.7292 63.1531 11.2311 51.8438 11.2188ZM53.875 51.8438V15.3422C63.39 15.8531 72.3804 19.8628 79.1182 26.6006C85.856 33.3384 89.8657 42.3288 90.3766 51.8438H53.875Z" fill="white" stroke="white" stroke-width="0.2"/>
<path d="M96.5313 78.25C92.9156 78.25 89.3811 79.3222 86.3747 81.3309C83.3684 83.3397 81.0253 86.1949 79.6416 89.5353C78.2579 92.8758 77.8959 96.5515 78.6013 100.098C79.3067 103.644 81.0478 106.901 83.6045 109.458C86.1611 112.015 89.4185 113.756 92.9648 114.461C96.511 115.167 100.187 114.805 103.527 113.421C106.868 112.037 109.723 109.694 111.732 106.688C113.74 103.681 114.813 100.147 114.813 96.5312C114.805 91.6851 112.877 87.0395 109.45 83.6128C106.023 80.186 101.377 78.2575 96.5313 78.25ZM96.5313 110.75C93.7191 110.75 90.97 109.916 88.6317 108.354C86.2935 106.791 84.471 104.571 83.3948 101.973C82.3187 99.3744 82.0371 96.5155 82.5857 93.7573C83.1344 90.9991 84.4886 88.4656 86.4771 86.4771C88.4656 84.4885 90.9992 83.1343 93.7573 82.5857C96.5155 82.0371 99.3744 82.3187 101.973 83.3948C104.571 84.471 106.791 86.2935 108.354 88.6317C109.916 90.97 110.75 93.719 110.75 96.5312C110.746 100.301 109.246 103.915 106.581 106.581C103.915 109.246 100.301 110.746 96.5313 110.75Z" fill="#DFB48F" stroke="#DFB48F" stroke-width="0.2"/>
<path d="M92.4752 99.7534L87.8175 95.0957L84.9453 97.9679L91.0391 104.062C91.42 104.442 91.9365 104.656 92.4752 104.656C93.0138 104.656 93.5303 104.442 93.9113 104.062L106.099 91.8741L103.227 89.002L92.4752 99.7534Z" fill="white" stroke="white" stroke-width="0.2"/>
<path d="M98.5625 35.5938H114.812V39.6562H98.5625V35.5938Z" fill="white" stroke="white" stroke-width="0.2"/>
<path d="M98.5625 47.7812H114.812V51.8438H98.5625V47.7812Z" fill="white" stroke="white" stroke-width="0.2"/>
<path d="M98.5625 59.9688H114.812V64.0312H98.5625V59.9688Z" fill="white" stroke="white" stroke-width="0.2"/>
</g>
<defs>
<clipPath id="clip0_417_605">
<rect width="124" height="124" fill="white"/>
</clipPath>
</defs>
</svg>
