<svg width="130" height="130" viewBox="0 0 130 130" fill="none" xmlns="http://www.w3.org/2000/svg">
    <g clip-path="url(#clip0_639_3119)">
        <path d="M66.7228 80.5408C66.237 79.5171 65.0124 79.0804 63.9884 79.5666C62.3223 80.3573 60.5754 81.0108 58.7966 81.5085C58.0524 81.7167 57.4884 82.3248 57.3371 83.0827L55.1657 93.9392C54.9514 95.0112 54.0023 95.7894 52.909 95.7894H46.9856C45.8923 95.7894 44.9434 95.0115 44.7289 93.9392L42.5575 83.0827C42.4059 82.3248 41.8417 81.7167 41.098 81.5085C38.5849 80.8052 36.1595 79.8002 33.8894 78.5215C33.2158 78.1422 32.3862 78.1734 31.7434 78.602L22.5301 84.744C21.6206 85.3503 20.3993 85.2292 19.6259 84.4563L15.4375 80.2676C14.6644 79.4945 14.5437 78.2732 15.1498 77.3635L21.2918 68.1502C21.7207 67.5071 21.7519 66.6778 21.3723 66.0042C20.0934 63.7338 19.0884 61.3082 18.3854 58.7955C18.1771 58.0513 17.569 57.4874 16.8111 57.3361L5.95461 55.1647C4.88262 54.9504 4.10439 54.0013 4.10439 52.908V46.9846C4.10439 45.8913 4.88236 44.9424 5.95461 44.7279L16.8111 42.5565C17.569 42.4049 18.1771 41.8407 18.3854 41.097C19.0887 38.5838 20.0936 36.1585 21.3723 33.8884C21.7516 33.215 21.7204 32.3855 21.2918 31.7423L15.1503 22.5301C14.544 21.6204 14.6649 20.3993 15.438 19.6259L19.6264 15.4375C20.3996 14.6644 21.6211 14.5437 22.5306 15.1498L31.7439 21.2918C32.3868 21.7207 33.2165 21.7516 33.8899 21.3723C36.1601 20.0936 38.5854 19.0887 41.0985 18.3854C41.8427 18.1771 42.4067 17.569 42.558 16.8111L44.7294 5.95461C44.9437 4.88262 45.8928 4.10439 46.9861 4.10439H52.9095C54.0028 4.10439 54.9517 4.88236 55.1662 5.95461L57.3376 16.8111C57.4892 17.569 58.0534 18.1771 58.7971 18.3854C61.3102 19.0887 63.7355 20.0936 66.0057 21.3723C66.6793 21.7516 67.5088 21.7204 68.1517 21.2918L77.365 15.1498C78.2745 14.5435 79.4955 14.6646 80.2692 15.4375L84.4576 19.6259C85.2307 20.3991 85.3513 21.6204 84.7453 22.5301L78.6033 31.7434C78.1744 32.3865 78.1432 33.2158 78.5228 33.8894C79.8015 36.1595 80.8064 38.5849 81.5098 41.098C81.7179 41.8422 82.326 42.4062 83.084 42.5575L93.9405 44.7289C95.0125 44.9432 95.7907 45.8923 95.7907 46.9856V52.909C95.7907 54.0023 95.0127 54.9512 93.9405 55.1657L83.084 57.3371C82.326 57.4887 81.7179 58.0529 81.5098 58.7971C80.9996 60.6201 80.3265 62.4084 79.509 64.1123C79.0184 65.1343 79.4495 66.3604 80.4715 66.8507C81.4935 67.3415 82.7199 66.9101 83.2099 65.8882C83.9478 64.3503 84.5813 62.7514 85.0995 61.1206L94.7456 59.1914C97.7288 58.5942 99.8946 55.952 99.8946 52.9087V46.9854C99.8946 43.942 97.7288 41.3001 94.7444 40.7029L85.0985 38.7738C84.4657 36.7821 83.6639 34.8458 82.7031 32.9926L88.1601 24.8069C89.848 22.2747 89.5116 18.8749 87.3595 16.7228L83.1711 12.5343C81.0187 10.3822 77.6189 10.0461 75.0869 11.7338L66.9013 17.1907C65.048 16.2302 63.1117 15.4281 61.1201 14.7954L59.1909 5.14947C58.5945 2.16582 55.9523 0 52.909 0H46.9856C43.9423 0 41.3004 2.16582 40.7032 5.15023L38.774 14.7961C36.7824 15.4289 34.8461 16.2307 32.9928 17.1915L24.8077 11.7345C22.2757 10.0466 18.8756 10.3827 16.7235 12.5351L12.5351 16.7235C10.3832 18.8756 10.0466 22.2752 11.7345 24.8077L17.1915 32.9933C16.231 34.8466 15.4289 36.7826 14.7961 38.7745L5.14998 40.7037C2.16582 41.3004 0 43.9425 0 46.9859V52.9092C0 55.9526 2.16582 58.5945 5.15023 59.1916L14.7961 61.1208C15.4286 63.1122 16.2307 65.0485 17.1915 66.902L11.7345 75.0877C10.0466 77.6199 10.383 81.0197 12.5351 83.1718L16.7235 87.3603C18.8756 89.5124 22.2754 89.8485 24.8077 88.1608L32.9933 82.7039C34.8466 83.6644 36.7826 84.4665 38.7745 85.0992L40.7037 94.7456C41.3004 97.729 43.9425 99.8951 46.9859 99.8951H52.9092C55.9526 99.8951 58.5945 97.7293 59.1916 94.7449L61.1208 85.099C62.7024 84.5965 64.2548 83.9853 65.749 83.2759C66.773 82.7894 67.2092 81.5651 66.7228 80.5408Z" fill="#EB0E54" />
        <path d="M67.7273 61.3525C68.0269 61.5063 68.3468 61.5792 68.6621 61.5792C69.4076 61.5792 70.1269 61.1717 70.4903 60.4628C72.1457 57.2344 73.021 53.5982 73.021 49.9472C73.021 37.2248 62.6705 26.874 49.9477 26.874C43.8951 26.874 38.1756 29.2003 33.8425 33.4251C33.0307 34.2162 33.0142 35.516 33.8054 36.3275C34.5966 37.1389 35.896 37.156 36.7078 36.3645C40.2698 32.8921 44.9717 30.9794 49.9472 30.9794C60.4061 30.9794 68.9153 39.4883 68.9153 49.9475C68.9153 52.9929 68.216 55.9006 66.8371 58.59C66.3201 59.598 66.7185 60.835 67.7273 61.3525Z" fill="#EB0E54" />
        <path d="M30.7339 41.165C29.6616 40.7961 28.4942 41.3661 28.1252 42.4381C27.2957 44.8497 26.875 47.3766 26.875 49.9479C26.875 62.6706 37.2257 73.0211 49.9482 73.0211C54.8412 73.0211 59.5162 71.5088 63.468 68.6471C64.3861 67.9821 64.5915 66.6986 63.9268 65.7805C63.262 64.8623 61.9783 64.6569 61.0602 65.3217C57.8132 67.6726 53.9709 68.9154 49.948 68.9154C39.4888 68.9154 30.9799 60.4063 30.9799 49.9474C30.9799 47.8313 31.3252 45.7536 32.0067 43.7729C32.3754 42.7011 31.8056 41.5334 30.7339 41.165Z" fill="#EB0E54" />
        <path d="M126.048 89.7087L120.112 88.5217C119.751 87.4459 119.315 86.3955 118.811 85.3801L122.169 80.3431C123.463 78.4008 123.205 75.7931 121.555 74.1428L118.802 71.3904C117.152 69.74 114.544 69.4818 112.602 70.7765L107.565 74.1346C106.55 73.6299 105.499 73.1944 104.423 72.8331L103.236 66.8975C102.779 64.6086 100.752 62.9473 98.418 62.9473H94.5254C92.1915 62.9473 90.1648 64.6086 89.707 66.8975L88.52 72.8331C87.4442 73.1947 86.3938 73.6301 85.3784 74.1346L80.3414 70.7765C78.3991 69.4821 75.7914 69.7398 74.1411 71.3904L71.3887 74.1428C69.7381 75.7934 69.4801 78.401 70.7748 80.3431L74.1329 85.3801C73.4387 86.7761 72.8764 88.2381 72.4559 89.7415C72.1504 90.8333 72.788 91.9657 73.8795 92.2714C74.9713 92.5769 76.1038 91.9395 76.4095 90.8478C76.8563 89.2502 77.4952 87.709 78.3077 86.2665C78.687 85.5929 78.6558 84.7634 78.2272 84.1205L74.1908 78.0661C73.9778 77.7464 74.0202 77.3173 74.2919 77.0457L77.0442 74.2933C77.3159 74.0219 77.745 73.9797 78.0647 74.1923L84.1191 78.2286C84.762 78.6575 85.5915 78.6884 86.2651 78.3091C87.7078 77.4966 89.2487 76.8578 90.8463 76.4109C91.5905 76.2027 92.1544 75.5946 92.3058 74.8367L93.7325 67.7027C93.8076 67.3261 94.1413 67.0527 94.5254 67.0527H98.418C98.802 67.0527 99.1356 67.3261 99.211 67.7027L100.638 74.8372C100.789 75.5951 101.353 76.2032 102.097 76.4114C103.695 76.8583 105.236 77.4971 106.678 78.3096C107.352 78.6889 108.182 78.6577 108.824 78.2291L114.879 74.1928C115.198 73.9797 115.628 74.0219 115.899 74.2938L118.652 77.0462C118.923 77.3179 118.965 77.7469 118.753 78.0666L114.716 84.121C114.287 84.7642 114.256 85.5934 114.636 86.267C115.448 87.7097 116.087 89.2507 116.534 90.8483C116.742 91.5925 117.35 92.1564 118.108 92.3077L125.242 93.7344C125.619 93.8096 125.892 94.1432 125.892 94.5274V98.42C125.892 98.8039 125.619 99.1375 125.242 99.2129L118.108 100.64C117.35 100.791 116.742 101.355 116.533 102.099C116.087 103.697 115.448 105.238 114.635 106.68C114.256 107.354 114.287 108.183 114.716 108.826L118.752 114.881C118.965 115.2 118.923 115.63 118.651 115.901L115.899 118.654C115.627 118.925 115.198 118.967 114.878 118.755L108.824 114.718C108.181 114.29 107.351 114.258 106.678 114.638C105.235 115.45 103.694 116.089 102.097 116.536C101.352 116.744 100.789 117.352 100.637 118.11L99.2105 125.244C99.1353 125.621 98.8017 125.894 98.4175 125.894H94.5249C94.141 125.894 93.8074 125.621 93.732 125.244L92.3053 118.11C92.1537 117.352 91.5895 116.744 90.8458 116.535C89.2482 116.089 87.707 115.45 86.2646 114.637C85.591 114.258 84.7612 114.289 84.1186 114.718L78.0642 118.754C77.7445 118.967 77.3154 118.925 77.0437 118.653L74.2914 115.901C74.0199 115.629 73.9775 115.2 74.1903 114.88L78.2267 108.826C78.6555 108.183 78.6867 107.353 78.3071 106.68C77.4946 105.237 76.8558 103.696 76.4089 102.099C76.2007 101.354 75.5926 100.79 74.8347 100.639L67.7007 99.2124C67.3242 99.1373 67.0507 98.8036 67.0507 98.4195V94.5269C67.0507 94.1429 67.3242 93.8093 67.7007 93.7339L68.1374 93.6466C69.249 93.4241 69.9701 92.3428 69.7475 91.2312C69.525 90.1196 68.4449 89.3997 67.3318 89.6211L66.8951 89.7085C64.6066 90.1665 62.9453 92.1929 62.9453 94.5271V98.4197C62.9453 100.754 64.6066 102.78 66.8956 103.238L72.8312 104.425C73.1927 105.501 73.6282 106.551 74.1327 107.567L70.7745 112.604C69.4796 114.546 69.7378 117.154 71.3885 118.804L74.1408 121.556C75.7914 123.207 78.3991 123.465 80.3412 122.17L85.3782 118.812C86.3936 119.317 87.444 119.752 88.5198 120.114L89.7068 126.049C90.1651 128.338 92.1915 130 94.5257 130H98.4183C100.752 130 102.779 128.338 103.237 126.049L104.424 120.114C105.499 119.752 106.55 119.317 107.565 118.812L112.602 122.17C114.545 123.465 117.152 123.207 118.803 121.556L121.555 118.804C123.206 117.153 123.464 114.546 122.169 112.603L118.811 107.566C119.316 106.551 119.751 105.501 120.112 104.425L126.048 103.238C128.337 102.78 129.998 100.754 129.998 98.4195V94.5269C129.998 92.1929 128.337 90.1665 126.048 89.7087Z" fill="#EB0E54" />
        <path d="M96.4756 89.0839C100.55 89.0839 103.865 92.3987 103.865 96.4734C103.865 97.6071 104.784 98.5259 105.918 98.5259C107.051 98.5259 107.97 97.6068 107.97 96.4734C107.97 90.1351 102.814 84.9785 96.4753 84.9785C90.1371 84.9785 84.9805 90.1351 84.9805 96.4734C84.9805 102.812 90.1371 107.968 96.4753 107.968C99.0426 107.968 101.471 107.14 103.498 105.574C104.395 104.881 104.56 103.592 103.868 102.695C103.174 101.798 101.885 101.632 100.988 102.325C99.686 103.331 98.1255 103.863 96.4753 103.863C92.4006 103.863 89.0859 100.548 89.0859 96.4734C89.0861 92.3984 92.4009 89.0839 96.4756 89.0839Z" fill="#DFB48F" />
        <path d="M62.4527 49.9471C62.4527 43.0515 56.8424 37.4414 49.9471 37.4414C43.0515 37.4414 37.4414 43.0517 37.4414 49.9471C37.4414 56.8426 43.0515 62.4527 49.9471 62.4527C56.8426 62.4527 62.4527 56.8424 62.4527 49.9471ZM41.5466 49.9471C41.5466 45.3153 45.3153 41.5466 49.9471 41.5466C54.5788 41.5466 58.3475 45.3153 58.3475 49.9471C58.3475 54.5788 54.5791 58.3475 49.9471 58.3475C45.3148 58.3475 41.5466 54.5788 41.5466 49.9471Z" fill="#DFB48F" />
    </g>
    <defs>
        <clipPath id="clip0_639_3119">
            <rect width="130" height="130" fill="white" />
        </clipPath>
    </defs>
</svg>