<svg width="130" height="130" viewBox="0 0 130 130" fill="none" xmlns="http://www.w3.org/2000/svg">
    <path d="M65 96.584C66.3472 96.584 67.4395 97.6762 67.4395 99.0234C67.4395 100.371 66.3472 101.463 65 101.463C63.6528 101.463 62.5605 100.371 62.5605 99.0234C62.5605 97.6762 63.6528 96.584 65 96.584Z" fill="#DFB48F" stroke="black" stroke-width="0.2" />
    <path d="M106.387 61.0371C114.732 61.0371 121.521 67.8264 121.521 76.1719C121.521 84.5174 114.732 91.3066 106.387 91.3066C98.0412 91.3066 91.252 84.5174 91.252 76.1719C91.252 67.8264 98.0412 61.0371 106.387 61.0371ZM106.387 65.916C100.732 65.916 96.1309 70.5168 96.1309 76.1719C96.1309 81.8269 100.732 86.4277 106.387 86.4277C112.042 86.4277 116.643 81.8269 116.643 76.1719C116.643 70.5168 112.042 65.916 106.387 65.916Z" fill="#DFB48F" stroke="black" stroke-width="0.2" />
    <path d="M65 86.4277C74.688 86.4277 83.4803 90.9361 89.1826 98.4297L89.251 98.5205L89.332 98.4395C93.6593 94.1518 100.015 91.5059 106.387 91.5059C119.134 91.5059 129.9 101.929 129.9 114.258V119.336C129.9 120.683 128.808 121.775 127.461 121.775H2.53906C1.19186 121.775 0.0996094 120.683 0.0996094 119.336V114.258C0.0996094 101.929 10.8659 91.5059 23.6133 91.5059C29.9864 91.5059 36.3407 94.1527 40.6689 98.4395L40.75 98.5205L40.8184 98.4297C46.7321 90.6614 55.7222 86.4277 65 86.4277ZM23.6133 96.3848C13.5149 96.3848 4.97852 104.564 4.97852 114.258V116.896H34.6309V116.797C34.6309 111.923 35.8031 107.134 38.0273 102.838L38.0586 102.778L38.0137 102.727C34.6185 98.8315 29.1383 96.3848 23.6133 96.3848ZM65 91.3066C51.0469 91.3066 39.5098 102.628 39.5098 116.797V116.896H90.4902V116.797C90.4902 102.815 79.1842 91.3066 65 91.3066ZM106.387 96.3848C100.862 96.3848 95.3815 98.8315 91.9863 102.727L91.9414 102.778L91.9727 102.838C94.1969 107.134 95.3691 111.923 95.3691 116.797V116.896H125.021V114.258C125.021 104.564 116.485 96.3848 106.387 96.3848Z" fill="#DFB48F" stroke="black" stroke-width="0.2" />
    <path d="M23.6133 61.0371C31.9588 61.0371 38.748 67.8264 38.748 76.1719C38.748 84.5174 31.9588 91.3066 23.6133 91.3066C15.2678 91.3066 8.47852 84.5174 8.47852 76.1719C8.47852 67.8264 15.2678 61.0371 23.6133 61.0371ZM23.6133 65.916C17.9582 65.916 13.3574 70.5168 13.3574 76.1719C13.3574 81.8269 17.9582 86.4277 23.6133 86.4277C29.2683 86.4277 33.8691 81.8269 33.8691 76.1719C33.8691 70.5168 29.2683 65.916 23.6133 65.916Z" fill="#DFB48F" stroke="black" stroke-width="0.2" />
    <path d="M65 45.8027C76.1454 45.8027 85.2129 54.8702 85.2129 66.0156C85.2129 77.161 76.1454 86.2285 65 86.2285C53.8546 86.2285 44.7871 77.161 44.7871 66.0156C44.7871 54.8702 53.8546 45.8027 65 45.8027ZM65 50.6816C56.544 50.6816 49.666 57.5597 49.666 66.0156C49.666 74.4716 56.544 81.3496 65 81.3496C73.456 81.3496 80.334 74.4716 80.334 66.0156C80.334 57.5597 73.456 50.6816 65 50.6816Z" fill="#DFB48F" stroke="black" stroke-width="0.2" />
    <path d="M64.9072 0.0996094C65.8389 0.0996094 66.6889 0.630523 67.0977 1.46777L72.001 11.4932L72.0244 11.541L72.0771 11.5488L83.0283 13.1387C83.9477 13.2721 84.7112 13.9148 84.998 14.7979C85.2848 15.681 85.0456 16.65 84.3809 17.2979L76.4512 25.0273L76.4131 25.0645L76.4219 25.1162L78.2959 36.0303C78.4529 36.9457 78.0768 37.8701 77.3262 38.416C76.5744 38.962 75.578 39.0341 74.7568 38.6016L64.9541 33.4492L64.9072 33.4248L64.8613 33.4492L55.0615 38.6016C54.2346 39.0359 53.24 38.9589 52.4932 38.416C51.7416 37.8711 51.3654 36.9458 51.5225 36.0312L53.3936 25.1162L53.4023 25.0645L53.3652 25.0273L45.4346 17.2979C44.7696 16.65 44.5306 15.6811 44.8174 14.7979C45.1042 13.9149 45.867 13.2712 46.7861 13.1377L57.7383 11.5488L57.79 11.541L57.8135 11.4932L62.7158 1.4668C63.1255 0.630451 63.9756 0.0997107 64.9072 0.0996094ZM64.8174 8.27441L61.6064 14.8398V14.8408C61.253 15.5647 60.5638 16.0673 59.7656 16.1826L52.5801 17.2266L52.3789 17.2549L52.5244 17.3965L57.7256 22.4658C58.3001 23.0261 58.563 23.8333 58.4277 24.625L57.1992 31.7852L57.165 31.9844L57.3447 31.8906L63.7715 28.5098C64.4821 28.1363 65.3313 28.1365 66.042 28.5098L72.4717 31.8906L72.6504 31.9844L72.6162 31.7852L71.3877 24.625C71.2515 23.8343 71.5143 23.0261 72.0889 22.4658L77.291 17.3965L77.4355 17.2549L77.2354 17.2266L70.0488 16.1826C69.2516 16.0674 68.5625 15.5657 68.208 14.8408L64.9971 8.27441L64.9072 8.09082L64.8174 8.27441Z" fill="white" stroke="black" stroke-width="0.2" />
    <path d="M107.979 22.9512H107.98C108.909 22.9512 109.756 23.4788 110.167 24.3115L113.485 31.0361L113.508 31.083L113.561 31.0908L120.98 32.1689C121.9 32.3025 122.662 32.9452 122.949 33.8281C123.218 34.6561 123.026 35.5597 122.453 36.2031L122.333 36.3281L116.963 41.5645L116.926 41.6006L116.935 41.6523L118.202 49.042C118.358 49.9566 117.983 50.8819 117.232 51.4268C116.482 51.9727 115.484 52.0449 114.663 51.6133L108.026 48.125L107.979 48.1006L107.934 48.125L101.294 51.6133C100.473 52.0447 99.4773 51.9725 98.7266 51.4268C97.9749 50.8809 97.5997 49.9566 97.7559 49.042L99.0234 41.6523L99.0322 41.6006L98.9941 41.5645L93.626 36.3281H93.625C92.9602 35.6803 92.7211 34.7112 93.0088 33.8281C93.2956 32.9449 94.0591 32.3023 94.9775 32.1689L102.398 31.0908L102.45 31.083L102.474 31.0361L105.793 24.3115C106.204 23.4789 107.052 22.9513 107.979 22.9512ZM107.89 31.085L106.258 34.3926C105.902 35.1118 105.215 35.6112 104.421 35.7266L100.77 36.2559L100.569 36.2852L100.714 36.4268L103.356 39.0039C103.931 39.564 104.193 40.3705 104.058 41.1611L103.434 44.7969L103.399 44.9961L103.579 44.9023L106.846 43.1865C107.555 42.8131 108.404 42.813 109.115 43.1865L112.38 44.9014L112.559 44.9951L112.524 44.7959L111.901 41.1611C111.765 40.3707 112.027 39.564 112.603 39.0039L115.244 36.4268L115.39 36.2852L115.188 36.2559L111.538 35.7266C110.744 35.6113 110.057 35.1119 109.701 34.3916L108.069 31.085L107.979 30.9033L107.89 31.085Z" fill="white" stroke="black" stroke-width="0.2" />
    <path d="M21.6523 22.9512C22.5813 22.9512 23.4282 23.4788 23.8389 24.3115L27.1572 31.0361L27.1797 31.083L27.2324 31.0908L34.6523 32.1689C35.5716 32.3025 36.3343 32.9452 36.6211 33.8281C36.89 34.6561 36.6979 35.5597 36.125 36.2031L36.0049 36.3281L30.6348 41.5645L30.5977 41.6006L30.6064 41.6523L31.874 49.042C32.0311 49.9565 31.6549 50.8819 30.9043 51.4268C30.1573 51.9699 29.1619 52.0477 28.335 51.6133L21.6982 48.125L21.6514 48.1006L21.6055 48.125L14.9668 51.6133C14.1447 52.0448 13.1491 51.9724 12.3984 51.4268C11.6477 50.8808 11.2716 49.9565 11.4287 49.042L12.6953 41.6523L12.7041 41.6006L12.666 41.5645L7.29785 36.3281H7.29688C6.63208 35.6803 6.39298 34.7112 6.68066 33.8281C6.96744 32.9449 7.73096 32.3023 8.64941 32.1689L16.0703 31.0908L16.1221 31.083L16.1455 31.0361L19.4648 24.3115C19.8754 23.4789 20.7235 22.9513 21.6523 22.9512ZM21.5605 31.085L19.9287 34.3926C19.5734 35.1118 18.8862 35.6112 18.0928 35.7266L14.4404 36.2559L14.2402 36.2852L14.3848 36.4268L17.0273 39.0039C17.6017 39.5641 17.8646 40.3707 17.7285 41.1611L17.1045 44.7969L17.0703 44.9961L17.25 44.9023L20.5176 43.1865C21.2273 42.8131 22.0764 42.8131 22.7861 43.1865L26.0518 44.9014L26.2305 44.9951L26.1963 44.7959L25.5723 41.1611C25.4372 40.3707 25.6993 39.564 26.2734 39.0039L28.915 36.4268L29.0605 36.2852L28.8594 36.2559L25.209 35.7266C24.4144 35.6113 23.7275 35.1119 23.3721 34.3916L21.7402 31.085L21.6504 30.9033L21.5605 31.085Z" fill="white" stroke="black" stroke-width="0.2" />
    <path d="M72.7002 100.591C73.4396 99.4647 74.952 99.1513 76.0781 99.8916C79.1871 101.934 81.6727 104.783 83.2656 108.131C83.844 109.347 83.3279 110.803 82.1113 111.381C80.8929 111.961 79.4388 111.442 78.8613 110.228V110.227C77.6513 107.685 75.7621 105.521 73.3994 103.969C72.2734 103.228 71.96 101.716 72.7002 100.591Z" fill="#DFB48F" stroke="black" stroke-width="0.2" />
</svg>