<svg width="130" height="130" viewBox="0 0 130 130" fill="none" xmlns="http://www.w3.org/2000/svg">
    <g clip-path="url(#clip0_666_3794)">
        <path d="M41.7363 63.4883C42.6316 62.593 44.0806 62.5935 44.9736 63.4883V63.4893C45.8125 64.3256 45.8655 65.6515 45.1309 66.5518L44.9736 66.7256C44.1362 67.5621 42.8103 67.6145 41.9102 66.8818L41.7363 66.7256C40.8413 65.8303 40.842 64.3812 41.7363 63.4893V63.4883Z" fill="white" stroke="black" stroke-width="0.5" />
        <path d="M127.404 0.250977H127.405C128.035 0.234103 128.636 0.476373 129.079 0.919922V0.920898C129.522 1.36435 129.764 1.96976 129.749 2.5957C129.734 3.21058 129.316 17.9302 124.194 33.709C120.605 44.7651 115.601 53.5436 109.331 59.8135L94.9727 74.1748L94.9102 74.2373L94.9004 74.3242L92.3047 97.6758C92.2465 98.1931 92.0158 98.6746 91.6484 99.042L70.1045 120.586C68.7787 121.911 66.4888 121.166 66.2207 119.291L63.9209 103.204L63.9033 103.08L63.7939 103.021L63.6562 102.938C63.5207 102.852 63.3927 102.75 63.2744 102.632L59.29 98.6484L59.0635 98.4219L58.8994 98.6963L52.4951 109.372C51.7255 110.655 49.9614 110.86 48.9141 109.812L20.1865 81.0859C19.7195 80.6189 19.4782 79.9733 19.5215 79.3184L19.5342 79.1875C19.62 78.4874 20.0234 77.867 20.6279 77.5039L31.3037 71.1006L31.5762 70.9365L31.3525 70.7109C29.314 68.6471 28.2858 67.647 27.7324 67.0957C27.1801 66.5454 27.1173 66.4576 26.9795 66.2061L26.9189 66.0957L26.7959 66.0781L10.708 63.7793C9.84989 63.6567 9.13497 63.0596 8.86133 62.2373V62.2363L8.81543 62.082C8.61493 61.3034 8.83823 60.4707 9.41309 59.8955L30.958 38.3506C31.3256 37.9831 31.8067 37.7515 32.3232 37.6943L55.6797 35.0986L55.7666 35.0889L55.8291 35.0273L70.1865 20.6699C76.4564 14.4001 85.2349 9.3954 96.291 5.80566C112.07 0.683954 126.789 0.266745 127.404 0.250977ZM89.2236 79.9229L68.3086 100.836L68.2197 100.925L68.2373 101.048L70.0342 113.616L70.1045 114.111L87.8428 96.373L87.8525 96.2852L89.6494 80.127L89.7275 79.4189L89.2236 79.9229ZM34.748 74.373L25.7725 79.7578L25.498 79.9229L50.0781 104.503L50.2432 104.228L55.626 95.252L55.7266 95.085L55.5889 94.9463L35.0527 74.4111L34.915 74.2725L34.748 74.373ZM96.2334 10.6553C86.5908 13.9656 78.914 18.4151 73.4229 23.9062L58.4346 38.8965L32.4004 64.9297L32.2236 65.1064L32.4004 65.2842L64.8936 97.7773L65.0703 97.6006L68.6621 94.0078L68.8389 93.8311L48.9141 73.9062C48.0199 73.0121 48.0199 71.5622 48.9141 70.668C49.8082 69.7752 51.2573 69.7751 52.1514 70.668L72.0762 90.5928L106.093 56.5762C111.584 51.0851 116.033 43.409 119.345 33.7666L119.396 33.6191L96.3809 10.6045L96.2334 10.6553ZM49.876 40.3506L33.7139 42.1465L33.627 42.1562L33.5645 42.2188L16.2422 59.542L15.8887 59.8955L16.3828 59.9658L28.9512 61.7617L29.0752 61.7793L29.1641 61.6914L50.584 40.2715L49.876 40.3506ZM124.746 4.98535C120.398 5.30641 111.449 6.25248 101.729 8.95117L101.316 9.06543L101.619 9.36914L120.631 28.3799L120.934 28.6826L121.049 28.2705C123.748 18.5519 124.695 9.60233 125.015 5.25293L125.035 4.96387L124.746 4.98535Z" fill="#DFB48F" stroke="black" stroke-width="0.5" />
        <path d="M27.3672 99.3955C28.2614 98.5013 29.7103 98.5013 30.6045 99.3955C31.4985 100.29 31.4983 101.739 30.6045 102.632L4.15723 129.079C3.2631 129.973 1.81505 129.973 0.920898 129.08C0.0267101 128.186 0.0267101 126.736 0.920898 125.842L27.3672 99.3955Z" fill="white" stroke="black" stroke-width="0.5" />
        <path d="M34.5479 106.576C35.442 105.682 36.891 105.682 37.7852 106.576C38.6782 107.469 38.6784 108.918 37.7852 109.812L22.1084 125.489C21.2142 126.382 19.7662 126.382 18.8721 125.489C17.9779 124.595 17.9779 123.146 18.8721 122.252L34.5479 106.576Z" fill="white" stroke="black" stroke-width="0.5" />
        <path d="M20.1895 92.2129C21.0836 91.3187 22.5326 91.3187 23.4268 92.2129C24.32 93.1071 24.3198 94.5561 23.4268 95.4492L7.75 111.126C6.85582 112.019 5.40785 112.019 4.51367 111.126C3.6195 110.232 3.61952 108.783 4.51367 107.889L20.1895 92.2129Z" fill="white" stroke="black" stroke-width="0.5" />
        <path d="M71.9785 36.8281C77.8199 30.9879 87.3256 30.9868 93.1689 36.8271C99.0102 42.6715 99.0101 52.1772 93.1699 58.0186C87.3117 63.8758 77.8328 63.8747 71.9785 58.0186C66.1194 52.1624 66.1251 42.6825 71.9785 36.8281ZM89.9316 40.0645C85.8737 36.009 79.2717 36.0087 75.2158 40.0645C71.1469 44.1324 71.1489 50.7164 75.2158 54.7812C79.2827 58.851 85.8649 58.8477 89.9316 54.7812C93.9887 50.7252 93.9875 44.1224 89.9316 40.0645Z" fill="white" stroke="black" stroke-width="0.5" />
    </g>
    <defs>
        <clipPath id="clip0_666_3794">
            <rect width="130" height="130" fill="white" />
        </clipPath>
    </defs>
</svg>