<svg width="130" height="130" viewBox="0 0 130 130" fill="none" xmlns="http://www.w3.org/2000/svg">
<path d="M95.6564 34.0762H111.08C112.201 34.0762 113.111 34.9857 113.111 36.1074V60.9554C113.111 62.0772 112.201 62.9867 111.08 62.9867C109.958 62.9867 109.048 62.0772 109.048 60.9554V38.1387H97.6877V73.0366C97.6877 74.1583 96.7782 75.0678 95.6564 75.0678C94.5347 75.0678 93.6252 74.1583 93.6252 73.0366V36.1074C93.6252 34.9854 94.5347 34.0762 95.6564 34.0762ZM53.8036 81.2123C54.9253 81.2123 55.8348 80.3029 55.8348 79.1811V58.878C55.8348 57.7562 54.9253 56.8467 53.8036 56.8467H38.3805C37.2588 56.8467 36.3493 57.7562 36.3493 58.878V75.923C36.3493 77.0447 37.2588 77.9542 38.3805 77.9542C39.5023 77.9542 40.4118 77.0447 40.4118 75.923V60.9092H51.7723V79.1811C51.7723 80.3029 52.6815 81.2123 53.8036 81.2123ZM9.74219 98.5171C10.8639 98.5171 11.7734 97.6076 11.7734 96.4858V72.3871H23.134V84.5497C23.134 85.6715 24.0435 86.5809 25.1652 86.5809C26.287 86.5809 27.1965 85.6715 27.1965 84.5497V70.3558C27.1965 69.2341 26.287 68.3246 25.1652 68.3246H9.74219C8.62043 68.3246 7.71094 69.2341 7.71094 70.3558V96.4858C7.71094 97.6076 8.62043 98.5171 9.74219 98.5171ZM25.1655 99.2135C24.0437 99.2135 23.1342 100.123 23.1342 101.245V120.804H11.7734V113.181C11.7734 112.059 10.8639 111.15 9.74219 111.15C8.62043 111.15 7.71094 112.059 7.71094 113.181V122.835C7.71094 123.957 8.62043 124.866 9.74219 124.866H25.1652C26.287 124.866 27.1965 123.957 27.1965 122.835V101.245C27.1967 100.123 26.2872 99.2135 25.1655 99.2135ZM64.9874 81.973C64.9874 83.0948 65.8969 84.0043 67.0186 84.0043C68.1404 84.0043 69.0499 83.0948 69.0499 81.973V49.5632H80.4106V83.3878C80.4106 84.5096 81.3201 85.4191 82.4419 85.4191C83.5636 85.4191 84.4731 84.5096 84.4731 83.3878V47.5319C84.4731 46.4102 83.5636 45.5007 82.4419 45.5007H67.0186C65.8969 45.5007 64.9874 46.4102 64.9874 47.5319V81.973ZM82.4419 96.6945C81.3201 96.6945 80.4106 97.604 80.4106 98.7258V120.804H69.0499V95.4674C69.0499 94.3456 68.1404 93.4361 67.0186 93.4361C65.8969 93.4361 64.9874 94.3456 64.9874 95.4674V122.836C64.9874 123.957 65.8969 124.867 67.0186 124.867H82.4419C83.5636 124.867 84.4731 123.957 84.4731 122.836V98.7258C84.4731 97.6038 83.5639 96.6945 82.4419 96.6945ZM53.8036 90.6442C52.6818 90.6442 51.7723 91.5537 51.7723 92.6754V120.804H40.4118V91.0174C40.4118 89.8957 39.5023 88.9862 38.3805 88.9862C37.2588 88.9862 36.3493 89.8957 36.3493 91.0174V122.835C36.3493 123.957 37.2588 124.866 38.3805 124.866H53.8036C54.9253 124.866 55.8348 123.957 55.8348 122.835V92.6754C55.8348 91.5537 54.9253 90.6442 53.8036 90.6442ZM111.08 75.6955C109.958 75.6955 109.048 76.605 109.048 77.7267V120.804H97.6877V89.8078C97.6877 88.6861 96.7782 87.7766 95.6564 87.7766C94.5347 87.7766 93.6252 88.6861 93.6252 89.8078V122.835C93.6252 123.957 94.5347 124.867 95.6564 124.867H111.08C112.201 124.867 113.111 123.957 113.111 122.835V77.7267C113.111 76.605 112.202 75.6955 111.08 75.6955Z" fill="#DFB48F"/>
<path d="M127.532 56.4461C127.155 55.9679 126.583 55.6846 125.973 55.6739L116.616 55.5089C115.498 55.4891 114.569 56.3821 114.55 57.5038C114.53 58.6253 115.423 59.5508 116.545 59.5706L120.18 59.6349L81.7315 89.7517L38.8031 80.6824C38.2196 80.5595 37.6117 80.6984 37.14 81.0633L2.81948 107.624C1.93233 108.311 1.76958 109.587 2.45614 110.474C2.85655 110.991 3.45678 111.262 4.06413 111.262C4.49831 111.262 4.93604 111.123 5.30598 110.837L38.8833 84.8511L81.8188 93.9219C82.4061 94.0458 83.0188 93.9038 83.4913 93.5336L122.74 62.7896L121.944 66.4078C121.703 67.5034 122.396 68.5871 123.491 68.828C123.638 68.8603 123.785 68.8758 123.93 68.8758C124.863 68.8758 125.703 68.2291 125.912 67.2805L127.922 58.1406C128.052 57.5462 127.909 56.9242 127.532 56.4461ZM9.74655 57.274C10.1848 57.274 10.6261 57.1329 10.9978 56.8416L13.3381 55.0082C14.2211 54.3163 14.3763 53.0396 13.6844 52.1566C12.9925 51.2735 11.7161 51.1183 10.8328 51.8102L8.4925 53.6437C7.60942 54.3356 7.45428 55.6122 8.14618 56.4953C8.54684 57.0069 9.14352 57.274 9.74655 57.274ZM17.9274 50.8649C18.3657 50.8649 18.8072 50.7238 19.1789 50.4325L21.5192 48.5991C22.4023 47.9072 22.5571 46.6305 21.8652 45.7475C21.1731 44.8644 19.8965 44.7095 19.0136 45.4014L16.6734 47.2348C15.7903 47.9267 15.6354 49.2034 16.3273 50.0865C16.728 50.5976 17.3246 50.8649 17.9274 50.8649ZM26.1085 44.4553C26.5468 44.4553 26.9883 44.3142 27.36 44.0229L29.7003 42.1895C30.5834 41.4976 30.7382 40.2209 30.0464 39.3378C29.3542 38.4548 28.0776 38.2996 27.1947 38.9918L24.8545 40.8252C23.9714 41.5171 23.8165 42.7938 24.5084 43.6769C24.9091 44.1882 25.5057 44.4553 26.1085 44.4553ZM34.2894 38.046C34.7276 38.046 35.1692 37.9048 35.5409 37.6136L37.8811 35.7801C38.7642 35.0882 38.9191 33.8116 38.2272 32.9285C37.5351 32.0454 36.2584 31.8903 35.3756 32.5824L33.0353 34.4159C32.1523 35.1078 31.9974 36.3844 32.6893 37.2675C33.0899 37.7789 33.6866 38.046 34.2894 38.046ZM42.4705 31.6366C42.9087 31.6366 43.35 31.4954 43.7217 31.2042L46.062 29.3708C46.9451 28.6789 47.1002 27.4022 46.4083 26.5191C45.7164 25.6361 44.4398 25.4809 43.5567 26.1728L41.2164 28.0063C40.3334 28.6982 40.1782 29.9748 40.8701 30.8579C41.2708 31.3693 41.8677 31.6366 42.4705 31.6366ZM93.2215 19.3311C93.7443 19.3311 94.2669 19.1305 94.664 18.7301L100.717 12.6259L100.313 16.239C100.188 17.3539 100.991 18.3586 102.106 18.4833C102.182 18.4919 102.259 18.496 102.334 18.496C103.354 18.496 104.234 17.7284 104.35 16.6902L105.389 7.38984C105.457 6.78453 105.25 6.18099 104.824 5.74504C104.399 5.30933 103.799 5.08691 103.193 5.14074L93.871 5.95832C92.7536 6.05632 91.9269 7.04173 92.0249 8.15918C92.1229 9.27662 93.1075 10.1023 94.2257 10.0053L97.9142 9.68185L91.7788 15.8695C90.9889 16.6663 90.9945 17.9523 91.791 18.742C92.1874 19.135 92.7046 19.3311 93.2215 19.3311ZM85.9042 26.7108C86.427 26.7108 86.9495 26.5103 87.3466 26.1098L89.4398 23.9989C90.2298 23.2021 90.2242 21.9161 89.4277 21.1264C88.6312 20.3368 87.3451 20.3424 86.5552 21.1386L84.462 23.2496C83.6721 24.0463 83.6777 25.3324 84.4742 26.122C84.87 26.5148 85.387 26.7108 85.9042 26.7108ZM78.5866 34.0909C79.1094 34.0909 79.632 33.8903 80.0291 33.4899L82.1223 31.3789C82.9122 30.5821 82.9066 29.2961 82.1101 28.5065C81.3136 27.7168 80.0275 27.7221 79.2376 28.5187L77.1444 30.6296C76.3545 31.4264 76.3601 32.7124 77.1566 33.5021C77.5527 33.8946 78.0697 34.0909 78.5866 34.0909ZM69.965 36.6452L72.7927 37.5625C73.0009 37.6301 73.2122 37.6623 73.4199 37.6623C74.2766 37.6623 75.0731 37.1162 75.3516 36.2575C75.6979 35.1903 75.1134 34.0447 74.0463 33.6986L71.2185 32.7812C70.1508 32.4349 69.0057 33.0194 68.6597 34.0866C68.3136 35.1532 68.8981 36.2988 69.965 36.6452ZM60.0797 33.4376L62.9077 34.3552C63.1159 34.4227 63.3271 34.455 63.5348 34.455C64.3915 34.455 65.188 33.9088 65.4665 33.0501C65.8129 31.9832 65.2284 30.8376 64.1612 30.4912L61.3332 29.5736C60.266 29.2273 59.1204 29.8118 58.7743 30.879C58.428 31.9456 59.0125 33.0915 60.0797 33.4376ZM50.1941 30.2302L53.0218 31.1479C53.2303 31.2154 53.4413 31.2476 53.6492 31.2476C54.5059 31.2476 55.3024 30.7015 55.5809 29.8428C55.9273 28.7756 55.3428 27.63 54.2759 27.2836L51.4481 26.366C50.3802 26.0195 49.2351 26.6042 48.889 27.6711C48.5427 28.7383 49.1272 29.8839 50.1941 30.2302Z" fill="white"/>
</svg>
