<svg width="130" height="130" viewBox="0 0 130 130" fill="none" xmlns="http://www.w3.org/2000/svg">
<g clip-path="url(#clip0_417_619)">
<path d="M65.209 11.1768C65.8408 11.1769 66.4201 11.539 66.6992 12.1055L71.1523 21.1299L71.2686 21.3662L71.5293 21.4033L81.4941 22.8438V22.8447C82.0796 22.9306 82.5756 23.3199 82.8008 23.8682L82.8418 23.9805C83.0305 24.5834 82.8635 25.2445 82.415 25.6855L75.2061 32.7061L75.0176 32.8896L75.0615 33.1484L76.6543 42.416L76.667 42.4932L76.7031 42.5615C76.8257 42.7981 76.8965 43.0666 76.8965 43.3447C76.8965 44.2665 76.155 45.0117 75.2295 45.0117C75.2181 45.0117 75.2078 45.0114 75.2002 45.0117C75.1926 45.012 75.1855 45.0124 75.1807 45.0127C75.1723 45.0131 75.1688 45.0126 75.166 45.0127L75.1523 45.0117H75.1211C74.8531 45.0117 74.5865 44.9484 74.3408 44.8193L65.4355 40.1396L65.2031 40.0176L64.9707 40.1396L56.0713 44.8193L56.0693 44.8203C55.5403 45.1002 54.9188 45.0731 54.4082 44.7588L54.3076 44.6924C53.8009 44.3239 53.5459 43.6932 53.6494 43.0664L55.3506 33.1543L55.3945 32.8945L55.2061 32.7109L48.002 25.6914V25.6904C47.5498 25.2506 47.3862 24.5901 47.5811 23.9854C47.782 23.3787 48.3043 22.9412 48.9287 22.8496L48.9277 22.8486L58.8838 21.4033L59.1436 21.3662L59.2598 21.1299L63.7178 12.1064L63.7188 12.1045C63.9972 11.5352 64.5753 11.1768 65.209 11.1768ZM64.7549 17.5186L61.9814 23.1299V23.1309C61.5885 23.9304 60.8248 24.4843 59.9473 24.6123L53.751 25.5166L52.749 25.6631L53.4736 26.3691L57.9531 30.7354L57.9551 30.7373C58.593 31.3524 58.8875 32.2525 58.7363 33.1367L57.6797 39.3008L57.5088 40.2998L58.4053 39.8271L63.9355 36.9131C64.0322 36.8622 64.27 36.7823 64.5576 36.7119C64.8447 36.6416 65.0935 36.6026 65.2031 36.6025C65.6416 36.6025 66.0849 36.7131 66.4707 36.9219L66.4766 36.9248L72.002 39.8281L72.8984 40.2988L72.7266 39.3008L71.6709 33.1367C71.5198 32.2532 71.8132 31.3525 72.457 30.7314L72.458 30.7295L76.9326 26.3691L77.6582 25.6621L76.6553 25.5166L70.4639 24.6172H70.4629C69.6395 24.4915 68.9218 24.001 68.5078 23.2852L68.4297 23.1387L65.6514 17.5186L65.2031 16.6113L64.7549 17.5186Z" fill="white" stroke="white"/>
<path d="M23.4299 38.2687C28.1749 42.9108 41.3753 53.4787 55.1011 57.4762C55.074 61.4412 54.4186 69.4308 53.2865 73.4662C52.2736 73.7371 51.2553 73.9754 50.237 74.1812C46.8786 74.8583 44.3653 77.2091 43.5636 80.2587C40.0428 81.3962 35.2653 85.1662 33.949 87.1271C33.1907 88.2321 32.8982 89.7325 33.1582 91.1408C33.8678 95.1816 37.3832 98.1175 41.527 98.1283L81.2745 98.1337L88.9065 98.1283C93.0449 98.1175 96.5603 95.1816 97.2753 91.1354C97.519 89.7216 97.2211 88.2266 96.4845 87.1433C95.1574 85.1716 90.3799 81.3962 86.8536 80.2587C86.052 77.2091 83.544 74.8583 80.1911 74.1812C79.1674 73.97 78.149 73.7316 77.1415 73.4662C76.004 69.4146 75.3486 61.425 75.327 57.4762C89.0528 53.4787 102.253 42.9108 107.004 38.2687C109.837 35.5008 112.929 32.0179 114.365 27.2025C115.919 21.9862 114.202 16.8891 109.874 13.91C106.489 11.5808 102.551 10.7412 98.4182 11.4508C97.6328 11.5808 96.8636 11.7975 96.0945 12.0466L96.0186 4.63664C95.9915 1.55997 94.5507 0.119141 91.4957 0.119141H38.927C35.8774 0.119141 34.4365 1.55997 34.4095 4.64206L34.3228 12.0466C33.5536 11.7975 32.7899 11.5862 32.0045 11.4508C27.8661 10.7521 23.939 11.5808 20.5536 13.91C16.2257 16.8891 14.5086 21.9808 16.0632 27.2025C17.504 32.0179 20.5915 35.4954 23.4299 38.2687ZM92.8932 89.57C93.007 89.7271 93.0503 90.1116 93.007 90.3933C92.6603 92.3596 90.927 93.795 88.9011 93.8004L81.2745 93.8058L41.5324 93.8004C39.5011 93.795 37.7732 92.3596 37.4211 90.3825C37.367 90.1062 37.4211 89.7379 37.5349 89.5646C38.6615 87.8908 43.9211 84.3212 45.3132 84.2616C45.3403 84.2616 45.3674 84.2508 45.3945 84.2508C45.4215 84.2508 45.4432 84.2671 45.4703 84.2671H84.9578C84.9795 84.2671 84.9957 84.2562 85.012 84.2562C85.0336 84.2562 85.0499 84.2671 85.0715 84.2671C86.4961 84.3158 91.7611 87.8854 92.8932 89.57ZM73.404 76.0012C73.6424 76.6404 74.1732 77.1279 74.8286 77.3175C76.3128 77.7454 77.8132 78.1137 79.3245 78.4279C80.4078 78.6446 81.2799 79.1916 81.8865 79.9283H48.5307C49.1428 79.1916 50.0149 78.65 51.1036 78.4279C52.6095 78.1191 54.1099 77.7508 55.594 77.3175C56.2495 77.1279 56.7803 76.6404 57.0186 76.0012C58.4865 72.1012 59.2882 63.3966 59.4236 58.4946C61.3682 58.8466 63.302 59.0579 65.2086 59.0579C67.1153 59.0579 69.0545 58.8412 70.9936 58.4946C71.129 63.3912 71.9307 72.085 73.404 76.0012ZM99.1278 15.7246C102.118 15.2262 104.956 15.795 107.41 17.4796C110.216 19.4079 111.229 22.5008 110.199 25.9621C109.046 29.8296 106.402 32.7871 103.97 35.165C101.517 37.5646 96.1324 42.0496 89.5403 46.1283C94.5182 37.6512 95.959 26.0216 96.1378 16.6129C96.1595 16.6075 96.1811 16.5966 96.2028 16.5912C97.1778 16.2446 98.1365 15.8925 99.1278 15.7246ZM38.7482 4.67997C38.7482 4.59872 38.7482 4.52289 38.7536 4.45789H38.9324H91.4849H91.669C91.6745 4.52289 91.6745 4.59331 91.6745 4.67997L91.7774 14.7171C91.7774 14.7983 91.8045 15.2371 91.8153 15.3129C91.8207 15.34 91.837 15.3616 91.8424 15.3941C91.8424 15.405 91.837 15.4104 91.837 15.4212C91.7611 24.2721 90.4665 40.3054 82.6882 48.2191C78.8586 52.1083 72.1582 54.5946 65.4849 54.5946C65.3874 54.5946 65.2899 54.5946 65.187 54.5946C58.5299 54.5783 51.629 52.1625 47.7399 48.2191C39.902 40.2458 38.6345 24.0283 38.5857 15.0691C38.5857 15.0583 38.5803 15.0475 38.5803 15.0366C38.5911 14.9337 38.6453 14.8308 38.6453 14.7333L38.7482 4.67997ZM23.0074 17.4796C24.8815 16.1958 26.9561 15.5404 29.1824 15.5404C29.8757 15.5404 30.5799 15.6054 31.2895 15.7246C32.2861 15.8925 33.2449 16.2446 34.2199 16.5966C34.2415 16.6021 34.2632 16.6129 34.2849 16.6183C34.469 26.0866 35.9153 37.6783 40.8824 46.1283C34.2903 42.055 28.9061 37.5646 26.4524 35.165C24.0203 32.7871 21.377 29.8296 20.2232 25.9621C19.1886 22.5062 20.207 19.4133 23.0074 17.4796Z" fill="#DFB48F"/>
<path d="M21.2627 101.537H109.04C109.548 101.537 110.881 101.55 111.826 102.51C112.786 103.484 112.782 104.882 112.776 105.419C112.749 107.871 112.754 110.989 112.76 113.87V115.475H125.404C126.409 115.475 127.533 115.608 128.363 116.447C129.192 117.285 129.313 118.438 129.303 119.476V119.479L129.286 123.298V123.301L129.291 125.679C129.285 126.945 128.936 127.851 128.343 128.442C127.749 129.034 126.84 129.381 125.572 129.381H4.44434C3.14296 129.381 2.22926 129.035 1.63867 128.439C1.0474 127.843 0.703125 126.919 0.703125 125.602V119.291C0.703168 117.914 1.04087 116.986 1.63477 116.396C2.22957 115.805 3.16922 115.465 4.56445 115.463H8.76074L17.1514 115.469H17.6523V105.14C17.6574 103.908 17.9985 103.025 18.5752 102.45C19.1518 101.875 20.0338 101.537 21.2627 101.537ZM109.427 113.868C109.421 110.979 109.41 107.852 109.438 105.397L109.442 104.893H108.938L21.5068 104.865H21.0088L21.0068 105.363L20.9795 112.605V112.607L20.9854 117.136L20.9766 117.306C20.8914 118.147 20.1818 118.802 19.3184 118.802H4.03613V119.303L4.04199 125.537V126.037H125.934L125.937 125.539L125.969 119.424L125.968 119.423C125.972 119.359 125.973 119.292 125.964 119.226L125.902 118.797H111.093C110.177 118.797 109.427 118.05 109.427 117.13V113.868Z" fill="white" stroke="white"/>
</g>
<defs>
<clipPath id="clip0_417_619">
<rect width="130" height="130" fill="white"/>
</clipPath>
</defs>
</svg>
