<svg width="1920" height="906" viewBox="0 0 1920 906" fill="none" xmlns="http://www.w3.org/2000/svg">
    <path opacity="0.06" d="M843.548 904.504V711.024H117.969V548.398L119.456 548.385L393.692 545.93V545.929L665.283 542.265L668.918 447.903V447.902L672.547 354.905H117.969V179.974L119.48 179.985L447.835 182.441H447.841L776.196 186.125L777.1 186.136L777.513 186.939L961.98 545.514L961.981 545.513L1147.26 904.504H1593.72V536.104H2150.13V904.504H2307V514.272C2307 381.897 2309.08 285.051 2304.76 214.138C2300.43 143.171 2289.71 98.6412 2264.5 70.5869C2239.32 42.5776 2199.38 30.6666 2135.62 25.8545C2071.88 21.0441 1984.83 23.3457 1865.78 23.3457C1750.12 23.3457 1665.28 21.8112 1602.84 26.0088C1540.35 30.2093 1500.73 40.1383 1475.24 62.7246C1449.78 85.2752 1438.1 120.728 1432.33 176.899C1426.73 231.302 1426.7 304.712 1424.75 403.926L1424.55 413.607L1418.4 715.694L1418.37 717.088L1416.98 717.162L1348.11 720.846H1348.11C1325.32 722.076 1307.07 721.775 1293.4 719.758C1279.81 717.754 1270.37 714.008 1265.68 707.99C1265.13 707.33 1264.3 706.072 1263.25 704.357C1262.16 702.557 1260.75 700.156 1259.07 697.191C1255.7 691.261 1251.18 683.042 1245.66 672.802C1234.6 652.32 1219.5 623.724 1201.43 589.107C1165.31 519.876 1117.35 426.548 1066.31 325.854L895.559 -2.49609H647.209C647.199 -2.49594 647.184 -2.49543 647.164 -2.49512C647.124 -2.4945 647.065 -2.4934 646.984 -2.49219C646.824 -2.48976 646.581 -2.48614 646.252 -2.48145C645.594 -2.47205 644.592 -2.45894 643.214 -2.44141C640.458 -2.40634 636.199 -2.356 630.186 -2.2959C618.159 -2.1757 599.115 -2.01571 571.04 -1.85547C514.89 -1.53498 422.615 -1.21387 278.112 -1.21387H-63.5V904.504H843.548ZM1593.72 288.321C1593.72 263.116 1594.64 239.433 1596.19 221.573C1596.96 212.649 1597.89 205.147 1598.94 199.625C1599.46 196.868 1600.02 194.563 1600.63 192.807C1600.93 191.929 1601.26 191.153 1601.61 190.514C1601.92 189.952 1602.3 189.408 1602.78 189.003C1603.13 188.626 1603.59 188.395 1603.94 188.247C1604.39 188.053 1604.94 187.881 1605.55 187.723C1606.79 187.405 1608.46 187.105 1610.52 186.816C1614.64 186.238 1620.46 185.689 1627.76 185.17C1642.38 184.132 1663.04 183.21 1688.18 182.442C1738.47 180.907 1806.74 179.985 1880.53 179.985H2150.13V379.465H1593.72V288.321Z" stroke="white" stroke-width="3"/>
</svg>
