<svg width="130" height="130" viewBox="0 0 130 130" fill="none" xmlns="http://www.w3.org/2000/svg">
<g clip-path="url(#clip0_2331_28708)">
<path d="M111.562 84.9101L99.6791 96.795L93.7804 90.8982C92.9861 90.104 91.7024 90.104 90.9082 90.8982C90.1139 91.6925 90.1139 92.9762 90.9082 93.7704L98.243 101.103C98.6391 101.499 99.1591 101.698 99.6791 101.698C100.199 101.698 100.719 101.499 101.115 101.103L114.434 87.7823C115.228 86.9881 115.228 85.7043 114.434 84.9101C113.64 84.1159 112.356 84.1159 111.562 84.9101Z" fill="white"/>
<path d="M127.987 77.3053C125.259 77.3053 123.221 76.5863 121.928 75.1664C119.874 72.9158 120.164 69.483 120.166 69.4586C120.225 68.8858 120.04 68.317 119.655 67.8905C119.271 67.4639 118.722 67.2202 118.147 67.2202H107.644V2.03125C107.644 0.907969 106.734 0 105.613 0H45.8572C45.8166 0 45.78 0.0203127 45.7394 0.0243752C45.5606 0.0345314 45.39 0.0690626 45.2214 0.125938C45.1808 0.140156 45.1361 0.136094 45.0975 0.152344C45.067 0.164531 45.0427 0.186875 45.0142 0.201094C44.8294 0.288437 44.6567 0.400156 44.5003 0.544375C44.476 0.566719 44.4455 0.574844 44.4211 0.597187L35.6908 9.33563L22.5872 22.4392C22.4105 22.6159 22.2866 22.8231 22.187 23.0425C22.1566 23.1095 22.1383 23.1745 22.116 23.2436C22.0611 23.4061 22.0306 23.5727 22.0185 23.7433C22.0144 23.8002 21.9981 23.853 22.0002 23.9098V111.361C22.0002 112.485 22.9102 113.393 24.0314 113.393H85.3467C89.9008 117.719 95.5883 120.571 102.298 121.838C102.421 121.863 102.549 121.875 102.675 121.875C102.801 121.875 102.929 121.863 103.055 121.838C111.257 120.28 117.902 116.425 122.799 110.38C127.444 104.674 130.004 97.2989 130.004 89.6106L130.022 79.3366C130.022 78.7962 129.811 78.2783 129.429 77.8984C129.047 77.5166 128.531 77.3012 127.991 77.3012L127.987 77.3053ZM40.1819 10.5869L43.832 6.93672V21.8441H28.9349L40.1799 10.5889L40.1819 10.5869ZM26.0606 109.33V25.9045H45.8653C46.9866 25.9045 47.8966 24.9966 47.8966 23.8733V4.0625H103.581V67.2202H87.1972C86.6264 67.2202 86.082 67.4659 85.6981 67.8864C85.3914 68.2216 85.2513 68.6562 85.2147 69.1052H38.431C37.3097 69.1052 36.3997 70.0131 36.3997 71.1364C36.3997 72.2597 37.3097 73.1677 38.431 73.1677H84.6033C84.3372 73.8623 83.9614 74.5591 83.4028 75.1705C82.1089 76.5862 80.0736 77.3053 77.3538 77.3053C76.2325 77.3053 75.3225 78.2133 75.3225 79.3366V83.2041H38.431C37.3097 83.2041 36.3997 84.112 36.3997 85.2353C36.3997 86.3586 37.3097 87.2666 38.431 87.2666H75.3246V89.6147C75.3266 90.5491 75.3692 91.4773 75.4464 92.3995C75.4708 92.6981 75.5195 92.9906 75.552 93.2892C75.6191 93.9087 75.6861 94.5303 75.7877 95.1417C75.8466 95.4952 75.9278 95.8425 75.9969 96.1939C76.1045 96.7403 76.2081 97.2867 76.3422 97.823C76.4356 98.1967 76.5494 98.5623 76.655 98.932C76.7992 99.4358 76.9394 99.9375 77.106 100.431C77.2339 100.809 77.3781 101.179 77.5183 101.55C77.695 102.022 77.8738 102.491 78.0708 102.952C78.2313 103.326 78.408 103.691 78.5827 104.059C78.7919 104.502 79.0052 104.94 79.2347 105.371C79.4277 105.735 79.6328 106.09 79.84 106.446C80.0838 106.864 80.3316 107.276 80.5936 107.681C80.817 108.026 81.0506 108.365 81.2863 108.702C81.4305 108.91 81.5605 109.127 81.7108 109.328L26.0606 109.33ZM125.937 89.6086C125.937 96.3666 123.703 102.834 119.642 107.819C115.438 113.009 109.73 116.356 102.671 117.774C96.6364 116.565 91.5603 113.927 87.577 109.925C86.8905 109.239 86.2547 108.532 85.6819 107.819C81.6397 102.836 79.4053 96.3666 79.3871 89.6086V81.2541C82.3506 80.9087 84.7171 79.7753 86.4375 77.8741C88.3692 75.7372 88.9949 73.1128 89.1817 71.2827H116.161C116.344 73.1108 116.967 75.7311 118.893 77.868C120.613 79.7733 122.982 80.9067 125.953 81.2541L125.937 89.6086Z" fill="#DFB48F"/>
<path d="M38.4375 44.9316H91.2053C92.3266 44.9316 93.2366 44.0237 93.2366 42.9004C93.2366 41.7771 92.3266 40.8691 91.2053 40.8691H38.4375C37.3163 40.8691 36.4062 41.7771 36.4062 42.9004C36.4062 44.0237 37.3163 44.9316 38.4375 44.9316Z" fill="white"/>
<path d="M38.4375 59.0449H91.2053C92.3266 59.0449 93.2366 58.137 93.2366 57.0137C93.2366 55.8904 92.3266 54.9824 91.2053 54.9824H38.4375C37.3163 54.9824 36.4062 55.8904 36.4062 57.0137C36.4062 58.137 37.3163 59.0449 38.4375 59.0449Z" fill="white"/>
<path d="M65.7266 14.9824H91.2127C92.3339 14.9824 93.2439 14.0745 93.2439 12.9512C93.2439 11.8279 92.3339 10.9199 91.2127 10.9199H65.7266C64.6053 10.9199 63.6953 11.8279 63.6953 12.9512C63.6953 14.0745 64.6053 14.9824 65.7266 14.9824Z" fill="#DFB48F"/>
<path d="M65.7266 25.9043H91.2127C92.3339 25.9043 93.2439 24.9963 93.2439 23.873C93.2439 22.7498 92.3339 21.8418 91.2127 21.8418H65.7266C64.6053 21.8418 63.6953 22.7498 63.6953 23.873C63.6953 24.9963 64.6053 25.9043 65.7266 25.9043Z" fill="#DFB48F"/>
</g>
<defs>
<clipPath id="clip0_2331_28708">
<rect width="130" height="130" fill="white"/>
</clipPath>
</defs>
</svg>
