<svg width="130" height="130" viewBox="0 0 130 130" fill="none" xmlns="http://www.w3.org/2000/svg">
<g clip-path="url(#clip0_2331_28719)">
<path d="M41.7334 63.4873C42.6287 62.5921 44.0776 62.5925 44.9707 63.4873V63.4883C45.8095 64.3246 45.8625 65.6506 45.1279 66.5508L44.9707 66.7246C44.1332 67.5611 42.8074 67.6135 41.9072 66.8809L41.7334 66.7246C40.8384 65.8293 40.839 64.3802 41.7334 63.4883V63.4873Z" fill="white" stroke="black" stroke-width="0.5"/>
<path d="M127.403 0.250977H127.404C128.034 0.234102 128.635 0.476372 129.078 0.919922V0.920898C129.521 1.36435 129.763 1.96976 129.748 2.5957C129.733 3.21058 129.315 17.9302 124.193 33.709C120.604 44.7651 115.6 53.5436 109.33 59.8135L94.9717 74.1748L94.9092 74.2373L94.8994 74.3242L92.3037 97.6758C92.2455 98.1931 92.0148 98.6746 91.6475 99.042L70.1035 120.586C68.7777 121.911 66.4878 121.166 66.2197 119.291L63.9199 103.204L63.9023 103.08L63.793 103.021L63.6553 102.938C63.5198 102.852 63.3917 102.75 63.2734 102.632L59.2891 98.6484L59.0625 98.4219L58.8984 98.6963L52.4941 109.372C51.7245 110.655 49.9604 110.86 48.9131 109.812L20.1855 81.0859C19.7186 80.6189 19.4773 79.9733 19.5205 79.3184L19.5332 79.1875C19.619 78.4874 20.0224 77.867 20.627 77.5039L31.3027 71.1006L31.5752 70.9365L31.3516 70.7109C29.313 68.6471 28.2848 67.647 27.7314 67.0957C27.1791 66.5454 27.1163 66.4576 26.9785 66.2061L26.918 66.0957L26.7949 66.0781L10.707 63.7793C9.84891 63.6567 9.13399 63.0596 8.86035 62.2373V62.2363L8.81445 62.082C8.61395 61.3034 8.83726 60.4707 9.41211 59.8955L30.957 38.3506C31.3246 37.9831 31.8057 37.7515 32.3223 37.6943L55.6787 35.0986L55.7656 35.0889L55.8281 35.0273L70.1855 20.6699C76.4554 14.4001 85.2339 9.3954 96.29 5.80566C112.069 0.683959 126.788 0.266745 127.403 0.250977ZM89.2227 79.9229L68.3076 100.836L68.2188 100.925L68.2363 101.048L70.0332 113.616L70.1035 114.111L87.8418 96.373L87.8516 96.2852L89.6484 80.127L89.7266 79.4189L89.2227 79.9229ZM34.7471 74.373L25.7715 79.7578L25.4971 79.9229L50.0771 104.503L50.2422 104.228L55.625 95.252L55.7256 95.085L55.5879 94.9463L35.0518 74.4111L34.9141 74.2725L34.7471 74.373ZM96.2324 10.6553C86.5898 13.9656 78.913 18.4151 73.4219 23.9062L58.4336 38.8965L32.3994 64.9297L32.2227 65.1064L32.3994 65.2842L64.8926 97.7773L65.0693 97.6006L68.6611 94.0078L68.8379 93.8311L48.9131 73.9062C48.0189 73.0121 48.0189 71.5622 48.9131 70.668C49.8072 69.7752 51.2563 69.7751 52.1504 70.668L72.0752 90.5928L106.092 56.5762C111.583 51.0851 116.032 43.409 119.344 33.7666L119.395 33.6191L96.3799 10.6045L96.2324 10.6553ZM49.875 40.3506L33.7129 42.1465L33.626 42.1562L33.5635 42.2188L16.2412 59.542L15.8877 59.8955L16.3818 59.9658L28.9502 61.7617L29.0742 61.7793L29.1631 61.6914L50.583 40.2715L49.875 40.3506ZM124.745 4.98535C120.397 5.30641 111.448 6.25248 101.729 8.95117L101.315 9.06543L101.618 9.36914L120.63 28.3799L120.933 28.6826L121.048 28.2705C123.747 18.5519 124.694 9.60233 125.014 5.25293L125.034 4.96387L124.745 4.98535Z" fill="#DFB48F" stroke="black" stroke-width="0.5"/>
<path d="M27.3672 99.3955C28.2614 98.5013 29.7103 98.5013 30.6045 99.3955C31.4985 100.29 31.4983 101.739 30.6045 102.632L4.15723 129.079C3.2631 129.973 1.81505 129.973 0.920898 129.08C0.0267101 128.186 0.0267101 126.736 0.920898 125.842L27.3672 99.3955Z" fill="white" stroke="black" stroke-width="0.5"/>
<path d="M34.5498 106.577C35.444 105.683 36.8929 105.683 37.7871 106.577C38.6802 107.47 38.6803 108.919 37.7871 109.813L22.1104 125.49C21.2162 126.383 19.7682 126.383 18.874 125.49C17.9798 124.596 17.9799 123.147 18.874 122.253L34.5498 106.577Z" fill="white" stroke="black" stroke-width="0.5"/>
<path d="M20.1904 92.2139C21.0846 91.3197 22.5336 91.3197 23.4277 92.2139C24.321 93.1081 24.3208 94.5571 23.4277 95.4502L7.75098 111.127C6.8568 112.02 5.40883 112.02 4.51465 111.127C3.62047 110.233 3.6205 108.784 4.51465 107.89L20.1904 92.2139Z" fill="white" stroke="black" stroke-width="0.5"/>
<path d="M71.9785 36.8281C77.8199 30.9879 87.3256 30.9868 93.1689 36.8271C99.0102 42.6715 99.0101 52.1772 93.1699 58.0186C87.3117 63.8758 77.8328 63.8747 71.9785 58.0186C66.1194 52.1624 66.1251 42.6825 71.9785 36.8281ZM89.9316 40.0645C85.8737 36.009 79.2717 36.0087 75.2158 40.0645C71.1469 44.1324 71.1489 50.7164 75.2158 54.7812C79.2827 58.851 85.8649 58.8477 89.9316 54.7812C93.9887 50.7252 93.9875 44.1224 89.9316 40.0645Z" fill="white" stroke="black" stroke-width="0.5"/>
</g>
<defs>
<clipPath id="clip0_2331_28719">
<rect width="130" height="130" fill="white"/>
</clipPath>
</defs>
</svg>
