<svg width="130" height="130" viewBox="0 0 130 130" fill="none" xmlns="http://www.w3.org/2000/svg">
<path d="M65 96.7344C66.2644 96.7344 67.2891 97.7591 67.2891 99.0234C67.2891 100.288 66.2644 101.312 65 101.312C63.7356 101.312 62.7109 100.288 62.7109 99.0234C62.7109 97.7591 63.7356 96.7344 65 96.7344Z" fill="#DFB48F" stroke="black" stroke-width="0.5"/>
<path d="M106.391 61.1875C114.653 61.1875 121.375 67.9092 121.375 76.1719C121.375 84.4345 114.653 91.1562 106.391 91.1562C98.128 91.1562 91.4062 84.4345 91.4062 76.1719C91.4062 67.9092 98.128 61.1875 106.391 61.1875ZM106.391 65.7656C100.653 65.7656 95.9844 70.434 95.9844 76.1719C95.9844 81.9098 100.653 86.5781 106.391 86.5781C112.129 86.5781 116.797 81.9098 116.797 76.1719C116.797 70.434 112.129 65.7656 106.391 65.7656Z" fill="#DFB48F" stroke="black" stroke-width="0.5"/>
<path d="M65 86.5781C74.6403 86.5781 83.388 91.0635 89.0625 98.5205L89.2354 98.7471L89.4375 98.5469C93.7363 94.2873 100.054 91.6562 106.387 91.6562C119.056 91.6562 129.75 102.017 129.75 114.258V119.336C129.75 120.6 128.725 121.625 127.461 121.625H2.53906C1.2747 121.625 0.25 120.6 0.25 119.336V114.258C0.25 102.017 10.9441 91.6562 23.6133 91.6562C29.9473 91.6562 36.2636 94.2882 40.5635 98.5469L40.7656 98.7471L40.9375 98.5205C46.8222 90.7903 55.768 86.5781 65 86.5781ZM23.6133 96.2344C13.4381 96.2344 4.82812 104.475 4.82812 114.258V117.047H34.7812V116.797C34.7812 111.947 35.9469 107.182 38.1602 102.907L38.2383 102.756L38.127 102.628C34.7018 98.6985 29.1793 96.2344 23.6133 96.2344ZM65 91.1562C50.9649 91.1562 39.3594 102.545 39.3594 116.797V117.047H90.6406V116.797C90.6406 102.733 79.2679 91.1562 65 91.1562ZM106.387 96.2344C100.821 96.2344 95.2982 98.6985 91.873 102.628L91.7617 102.756L91.8398 102.907C94.0531 107.182 95.2188 111.947 95.2188 116.797V117.047H125.172V114.258C125.172 104.475 116.562 96.2344 106.387 96.2344Z" fill="#DFB48F" stroke="black" stroke-width="0.5"/>
<path d="M23.6094 61.1875C31.872 61.1875 38.5938 67.9092 38.5938 76.1719C38.5938 84.4345 31.872 91.1562 23.6094 91.1562C15.3467 91.1562 8.625 84.4345 8.625 76.1719C8.625 67.9092 15.3467 61.1875 23.6094 61.1875ZM23.6094 65.7656C17.8715 65.7656 13.2031 70.434 13.2031 76.1719C13.2031 81.9098 17.8715 86.5781 23.6094 86.5781C29.3473 86.5781 34.0156 81.9098 34.0156 76.1719C34.0156 70.434 29.3473 65.7656 23.6094 65.7656Z" fill="#DFB48F" stroke="black" stroke-width="0.5"/>
<path d="M65 45.9531C76.0626 45.9531 85.0625 54.9531 85.0625 66.0156C85.0625 77.0782 76.0626 86.0781 65 86.0781C53.9374 86.0781 44.9375 77.0782 44.9375 66.0156C44.9375 54.9531 53.9374 45.9531 65 45.9531ZM65 50.5312C56.4612 50.5312 49.5156 57.4768 49.5156 66.0156C49.5156 74.5544 56.4612 81.5 65 81.5C73.5388 81.5 80.4844 74.5544 80.4844 66.0156C80.4844 57.4768 73.5388 50.5312 65 50.5312Z" fill="#DFB48F" stroke="black" stroke-width="0.5"/>
<path d="M64.9033 0.25C65.7778 0.25 66.5754 0.748275 66.959 1.53418L71.8623 11.5596L71.9209 11.6777L72.0518 11.6973L83.0029 13.2871C83.8659 13.4123 84.5824 14.0159 84.8516 14.8447C85.1205 15.6734 84.8962 16.5825 84.2725 17.1904H84.2715L76.3428 24.9199L76.248 25.0117L76.2705 25.1416L78.1436 36.0557C78.291 36.9148 77.938 37.7816 77.2334 38.2939C76.5277 38.8064 75.5937 38.8745 74.8232 38.4688L65.0195 33.3164L64.9033 33.2549L64.7871 33.3164L54.9883 38.4688C54.212 38.8765 53.2781 38.8036 52.5771 38.2939C51.8719 37.7826 51.5186 36.9148 51.666 36.0566L53.5381 25.1416L53.5596 25.0117L53.4658 24.9199L45.5352 17.1904C44.9112 16.5825 44.687 15.6736 44.9561 14.8447C45.2252 14.0159 45.9411 13.4114 46.8037 13.2861L57.7559 11.6973L57.8867 11.6777L57.9443 11.5596L62.8467 1.5332C63.2312 0.74809 64.0289 0.250101 64.9033 0.25ZM64.6787 8.20898L61.4678 14.7744C61.1361 15.4539 60.4893 15.926 59.7402 16.0342L52.5547 17.0781L52.0527 17.1504L52.416 17.5039L57.6172 22.5732C58.1225 23.0662 58.3704 23.7627 58.2949 24.46L58.2754 24.5996L57.0479 31.7598L56.9619 32.2588L57.4111 32.0234L63.8379 28.6426C64.5049 28.2922 65.3018 28.2921 65.9688 28.6426L72.3975 32.0234L72.8457 32.2588L72.7598 31.7598L71.5312 24.5996L71.5117 24.46C71.4406 23.81 71.6523 23.1594 72.0918 22.6748L72.1895 22.5732L77.3916 17.5039L77.7549 17.1504L77.2529 17.0781L70.0664 16.0342C69.3182 15.926 68.6715 15.455 68.3389 14.7744L65.1279 8.20898L64.9033 7.74902L64.6787 8.20898Z" fill="white" stroke="black" stroke-width="0.5"/>
<path d="M107.979 23.1016H107.98C108.852 23.1016 109.648 23.5964 110.033 24.3779L113.351 31.1025L113.408 31.2197L113.539 31.2393L120.958 32.3174H120.959C121.822 32.4427 122.537 33.0456 122.807 33.874C123.076 34.7031 122.852 35.6129 122.229 36.2207L116.858 41.457L116.765 41.5488L116.787 41.6777L118.055 49.0674C118.201 49.9257 117.848 50.7935 117.145 51.3047H117.144C116.439 51.817 115.504 51.8854 114.733 51.4805L108.096 47.9922L107.979 47.9307L107.863 47.9922L101.225 51.4805C100.454 51.8855 99.5191 51.8171 98.8145 51.3047L98.6865 51.2051C98.067 50.6846 97.766 49.8722 97.9033 49.0674L99.1709 41.6777L99.1934 41.5488L99.0986 41.457L93.7305 36.2207C93.1065 35.6128 92.8815 34.7037 93.1514 33.875V33.874C93.4206 33.0454 94.1372 32.4426 94.999 32.3174L102.42 31.2393L102.55 31.2197L102.608 31.1025L105.928 24.3779C106.313 23.5966 107.109 23.1017 107.979 23.1016ZM107.756 31.0186L106.123 34.3262C105.79 35.0012 105.145 35.4698 104.399 35.5781L100.748 36.1074L100.247 36.1807L100.609 36.5342L103.252 39.1113C103.791 39.6369 104.037 40.3938 103.91 41.1357L103.286 44.7715L103.2 45.2705L103.648 45.0352L106.916 43.3193C107.582 42.9689 108.379 42.9688 109.046 43.3193L112.31 45.0342L112.758 45.2695L112.673 44.7705L112.05 41.1357C111.922 40.3938 112.168 39.637 112.708 39.1113L115.349 36.5342L115.712 36.1807L115.21 36.1074L111.56 35.5781C110.814 35.4699 110.169 35.0012 109.836 34.3252L108.204 31.0186L107.979 30.5645L107.756 31.0186Z" fill="white" stroke="black" stroke-width="0.5"/>
<path d="M21.6523 23.1016C22.5242 23.1016 23.3197 23.5964 23.7051 24.3779L27.0225 31.1025L27.0801 31.2197L27.2109 31.2393L34.6299 32.3174H34.6309C35.4934 32.4427 36.2093 33.0456 36.4785 33.874C36.7477 34.7031 36.5242 35.6129 35.9004 36.2207L30.5303 41.457L30.4365 41.5488L30.459 41.6777L31.7266 49.0674C31.8739 49.9254 31.5205 50.7934 30.8164 51.3047H30.8154C30.1143 51.8144 29.1813 51.8881 28.4053 51.4805L21.7676 47.9922L21.6514 47.9307L21.5352 47.9922L14.8975 51.4805C14.1257 51.8856 13.1909 51.817 12.4863 51.3047C11.7818 50.7923 11.4288 49.9254 11.5762 49.0674L12.8428 41.6777L12.8652 41.5488L12.7705 41.457L7.40234 36.2207C6.77835 35.6128 6.55339 34.7037 6.82324 33.875V33.874C7.09245 33.0454 7.80908 32.4426 8.6709 32.3174L16.0918 31.2393L16.2217 31.2197L16.2803 31.1025L19.5996 24.3779C19.9849 23.5966 20.7805 23.1017 21.6523 23.1016ZM21.4268 31.0186L19.7939 34.3262C19.4604 35.0012 18.8158 35.4698 18.0713 35.5781L14.4189 36.1074L13.918 36.1807L14.2803 36.5342L16.9229 39.1113C17.4619 39.6371 17.7087 40.3942 17.5811 41.1357L16.957 44.7715L16.8711 45.2705L17.3193 45.0352L20.5879 43.3193C21.2539 42.9689 22.0508 42.9689 22.7168 43.3193L25.9814 45.0342L26.4297 45.2695L26.3447 44.7705L25.7207 41.1357C25.5939 40.3937 25.8399 39.637 26.3789 39.1113L29.0195 36.5342L29.3828 36.1807L28.8809 36.1074L25.2305 35.5781C24.4848 35.4699 23.8404 35.0012 23.5068 34.3252L21.875 31.0186L21.6504 30.5645L21.4268 31.0186Z" fill="white" stroke="black" stroke-width="0.5"/>
<path d="M72.8301 100.674C73.5239 99.617 74.9422 99.3229 75.999 100.018H76C79.0859 102.045 81.5538 104.873 83.1348 108.195C83.6436 109.265 83.2488 110.532 82.2568 111.134L82.0508 111.245C80.9073 111.79 79.5429 111.303 79.001 110.163V110.162L78.7637 109.686C77.5387 107.325 75.7226 105.313 73.4863 103.844C72.4292 103.149 72.1355 101.73 72.8301 100.674Z" fill="#DFB48F" stroke="black" stroke-width="0.5"/>
</svg>
