<svg width="80" height="80" viewBox="0 0 80 80" fill="none" xmlns="http://www.w3.org/2000/svg">
<path d="M13.125 0.200195H75.3125C76.065 0.200195 76.6748 0.810131 76.6748 1.5625V39.2119C76.6748 39.9643 76.065 40.5742 75.3125 40.5742C74.56 40.5742 73.9502 39.9643 73.9502 39.2119V2.9248H14.4873V74.2188C14.4873 75.1429 14.2606 76.0148 13.8613 76.7832L13.709 77.0752H71.0938C72.6689 77.0752 73.9502 75.7939 73.9502 74.2188V53.2744C73.9503 52.5222 74.5601 51.9121 75.3125 51.9121C76.0649 51.9121 76.6747 52.5222 76.6748 53.2744V74.2188C76.6748 77.2961 74.1711 79.7998 71.0938 79.7998H8.90625C5.8289 79.7998 3.3252 77.296 3.3252 74.2188V15C3.3252 14.2476 3.935 13.6377 4.6875 13.6377H11.7627V1.5625C11.7627 0.810131 12.3725 0.200195 13.125 0.200195ZM6.0498 74.2188C6.0498 75.7939 7.33111 77.0752 8.90625 77.0752C10.4814 77.0752 11.7627 75.7939 11.7627 74.2188V16.3623H6.0498V74.2188Z" fill="#DFB48F" stroke="#9F0033" stroke-width="0.4"/>
<path d="M27.6094 9.73438C28.3619 9.73438 28.9717 10.3443 28.9717 11.0967V21.3633C28.9717 22.105 28.5492 22.6989 27.9111 22.8984C27.2835 23.0942 26.6187 22.8579 26.2148 22.2754L21.8916 16.0156L21.5264 15.4873V21.7217C21.5264 22.474 20.9166 23.084 20.1641 23.084C19.4116 23.0839 18.8019 22.4739 18.8018 21.7217V11.1172C18.8018 10.521 19.1895 9.99395 19.7588 9.81641C20.3282 9.63947 20.9464 9.85221 21.2852 10.3428L25.8828 16.999L26.2471 17.5273V11.0967C26.2471 10.3444 26.8569 9.73446 27.6094 9.73438Z" fill="white" stroke="#9F0033" stroke-width="0.4"/>
<path d="M33.8594 9.73438H38.3359C39.0884 9.73438 39.6992 10.3443 39.6992 11.0967C39.6992 11.849 39.0884 12.459 38.3359 12.459H35.2217V15.0469H38.0059C38.7583 15.0469 39.3691 15.6569 39.3691 16.4092C39.3691 17.1615 38.7584 17.7715 38.0059 17.7715H35.2217V20.3594H38.3359C39.0884 20.3594 39.6992 20.9693 39.6992 21.7217C39.6992 22.474 39.0884 23.084 38.3359 23.084H33.8594C33.1069 23.084 32.4971 22.474 32.4971 21.7217V11.0967C32.4971 10.3443 33.1069 9.73438 33.8594 9.73438Z" fill="white" stroke="#9F0033" stroke-width="0.4"/>
<path d="M63.376 9.95898C64.8305 9.52124 66.1591 9.79331 67.1436 10.1914C68.128 10.5896 68.756 11.1096 68.7998 11.1465C69.3758 11.6307 69.451 12.4904 68.9668 13.0664C68.4851 13.6393 67.6317 13.7153 67.0557 13.2393L67.0527 13.2373L66.7852 13.0518C66.6282 12.9535 66.4094 12.8313 66.1475 12.7236C65.6246 12.5088 64.908 12.3438 64.1621 12.5684C63.85 12.6624 63.6479 12.8135 63.5215 12.9756C63.4277 13.0959 63.381 13.2156 63.3574 13.3086L63.3408 13.3916C63.321 13.5307 63.3189 13.811 63.5586 14.0264L63.583 14.0479L63.6123 14.0605C64.0174 14.2376 65.2018 14.7465 66.4717 15.2148C67.8437 15.7209 68.6837 16.4668 69.1494 17.2607C69.6158 18.0559 69.7148 18.9136 69.582 19.6582C69.2302 21.6283 67.3491 23.084 65.0771 23.084C63.2444 23.0839 61.5278 22.3449 60.3652 21.0625C59.8599 20.505 59.9025 19.6431 60.46 19.1377C61.0175 18.6323 61.8794 18.6739 62.3848 19.2314C63.0293 19.9427 64.0365 20.3593 65.0771 20.3594C65.5624 20.3594 65.987 20.2156 66.3047 20C66.6181 19.7872 66.8436 19.4921 66.8994 19.1797C66.9785 18.7369 66.6508 18.4024 66.3594 18.1953C66.0528 17.9775 65.6937 17.8325 65.5283 17.7715C63.8828 17.1646 62.4201 16.5137 62.3545 16.4844C62.2888 16.4551 62.2253 16.4201 62.165 16.3809C61.0332 15.6431 60.4504 14.3511 60.6436 13.0049C60.8485 11.5775 61.8892 10.407 63.376 9.95898Z" fill="white" stroke="#9F0033" stroke-width="0.4"/>
<path d="M53.4062 23.0835L53.3994 23.0845C53.399 23.0845 53.3979 23.0845 53.3955 23.0845C52.7179 23.0845 52.1116 22.6557 51.8857 22.0151V22.0142L51.8682 21.9604L50.1611 16.3804L49.9707 15.7563L49.7793 16.3794L48.0654 21.9585C48.0616 21.9708 48.0576 21.983 48.0537 21.9946C47.8355 22.6417 47.2299 23.0799 46.5479 23.0845H46.5371C45.8595 23.0845 45.2542 22.6557 45.0283 22.0151C45.0065 21.953 44.9884 21.8895 44.9756 21.8247L42.9209 11.3589C42.776 10.6205 43.2571 9.90427 43.9951 9.75928C44.7337 9.61445 45.4497 10.0955 45.5947 10.8335L46.626 16.0835L47.0127 16.104L48.6377 10.8149L48.6406 10.8071L48.6416 10.8003C48.7325 10.395 49.0058 10.042 49.3975 9.86084L49.5723 9.79346C50.2914 9.57333 51.0532 9.97897 51.2734 10.6987L52.9258 16.1021L53.3135 16.0825L54.3467 10.8521C54.4926 10.1139 55.2089 9.63469 55.9473 9.77979C56.6855 9.92557 57.1663 10.6422 57.0205 11.3804L54.957 21.8228L54.9111 21.9946C54.6926 22.6415 54.088 23.0789 53.4062 23.0835Z" fill="white" stroke="#9F0033" stroke-width="0.4"/>
<path d="M20.1562 29.8811H46.4062C47.1587 29.8811 47.7686 30.491 47.7686 31.2434V61.2434C47.7686 61.9958 47.1587 62.6057 46.4062 62.6057H20.1562C19.4038 62.6057 18.7939 61.9958 18.7939 61.2434V31.2434C18.7939 30.491 19.4038 29.8811 20.1562 29.8811ZM21.5186 49.0979V59.8811H41.918L29.7598 47.7229L29.75 47.7122L26.4678 44.4309L26.3271 44.2893L21.5186 49.0979ZM21.5186 45.2444L25.3633 41.3997C25.8954 40.8677 26.758 40.8676 27.29 41.3997L30.5732 44.6829L30.7148 44.8235L38.2881 37.2502C38.7871 36.7518 39.5763 36.7211 40.1113 37.1575L40.2148 37.2502L44.7021 41.7385L45.0439 42.0793V32.6057H21.5186V45.2444ZM45.0439 45.9338L39.251 40.1409L39.1094 40.2825L32.7832 46.6096L32.6416 46.7512L32.7832 46.8918L44.7021 58.8118L45.0439 59.1536V45.9338Z" fill="white" stroke="#9F0033" stroke-width="0.4"/>
<path d="M54.2188 59.8811H68.2812C69.0337 59.8811 69.6436 60.491 69.6436 61.2434C69.6436 61.9958 69.0337 62.6057 68.2812 62.6057H54.2188C53.4663 62.6057 52.8564 61.9958 52.8564 61.2434C52.8564 60.491 53.4663 59.8811 54.2188 59.8811Z" fill="#DFB48F" stroke="#9F0033" stroke-width="0.4"/>
<path d="M54.2188 37.3811H68.2812C69.0337 37.3811 69.6436 37.991 69.6436 38.7434C69.6436 39.4958 69.0337 40.1057 68.2812 40.1057H54.2188C53.4663 40.1057 52.8564 39.4958 52.8564 38.7434C52.8564 37.991 53.4663 37.3811 54.2188 37.3811Z" fill="#DFB48F" stroke="#9F0033" stroke-width="0.4"/>
<path d="M54.2188 44.8811H68.2812C69.0337 44.8811 69.6436 45.491 69.6436 46.2434C69.6436 46.9958 69.0337 47.6057 68.2812 47.6057H54.2188C53.4663 47.6057 52.8564 46.9958 52.8564 46.2434C52.8564 45.491 53.4663 44.8811 54.2188 44.8811Z" fill="#DFB48F" stroke="#9F0033" stroke-width="0.4"/>
<path d="M54.2188 29.8811H68.2812C69.0337 29.8811 69.6436 30.491 69.6436 31.2434C69.6436 31.9958 69.0337 32.6057 68.2812 32.6057H54.2188C53.4663 32.6057 52.8564 31.9958 52.8564 31.2434C52.8564 30.491 53.4663 29.8811 54.2188 29.8811Z" fill="#DFB48F" stroke="#9F0033" stroke-width="0.4"/>
<path d="M54.2188 52.3811H68.2812C69.0337 52.3811 69.6436 52.991 69.6436 53.7434C69.6436 54.4958 69.0337 55.1057 68.2812 55.1057H54.2188C53.4663 55.1057 52.8564 54.4958 52.8564 53.7434C52.8564 52.991 53.4663 52.3811 54.2188 52.3811Z" fill="#DFB48F" stroke="#9F0033" stroke-width="0.4"/>
<path d="M20.1562 68.6377H68.2812C69.0337 68.6377 69.6436 69.2476 69.6436 70C69.6436 70.7524 69.0337 71.3623 68.2812 71.3623H20.1562C19.4038 71.3623 18.7939 70.7524 18.7939 70C18.7939 69.2476 19.4038 68.6377 20.1562 68.6377Z" fill="#DFB48F" stroke="#9F0033" stroke-width="0.4"/>
<path d="M75.3125 44.8813C75.6703 44.8813 76.0222 45.0276 76.2754 45.2808C76.5286 45.5339 76.6748 45.8858 76.6748 46.2437C76.6748 46.6015 76.5286 46.9534 76.2754 47.2065C76.0222 47.4597 75.6703 47.606 75.3125 47.606C74.9533 47.606 74.6029 47.4597 74.3496 47.2065C74.0964 46.9534 73.9502 46.6015 73.9502 46.2437C73.9502 45.8844 74.0964 45.534 74.3496 45.2808C74.6029 45.0275 74.9532 44.8813 75.3125 44.8813Z" fill="#DFB48F" stroke="#9F0033" stroke-width="0.4"/>
</svg>
