<svg width="80" height="80" viewBox="0 0 80 80" fill="none" xmlns="http://www.w3.org/2000/svg">
<g clip-path="url(#clip0_2305_18432)">
<path d="M74.1406 4.87187H61.7644C61.2934 2.10969 58.8842 0 55.99 0H24.01C21.1158 0 18.7066 2.10969 18.2355 4.87187H5.85938C2.62844 4.87187 0 7.50031 0 10.7312V57.55C0 60.7809 2.62844 63.4094 5.85938 63.4094H31.9172V69.1309H31.8153C28.0353 69.1309 24.9598 72.2063 24.9598 75.9863V78.0703C24.9598 79.1344 25.8255 80 26.8895 80H53.1102C54.1742 80 55.0398 79.1344 55.0398 78.0703V75.9863C55.0398 72.2063 51.9645 69.1309 48.1845 69.1309H48.0828V63.4094H61.995C62.6423 63.4094 63.1669 62.8848 63.1669 62.2375C63.1669 61.5902 62.6423 61.0656 61.995 61.0656H5.85938C3.92078 61.0656 2.34375 59.4884 2.34375 57.55V10.7312C2.34375 8.79281 3.92078 7.21562 5.85938 7.21562H18.1506V9.55937H6.48438C5.49359 9.55937 4.6875 10.3655 4.6875 11.3562V56.925C4.6875 57.9158 5.49359 58.7219 6.48438 58.7219H73.5156C74.5064 58.7219 75.3125 57.9158 75.3125 56.925V11.3562C75.3125 10.3655 74.5064 9.55937 73.5156 9.55937H61.8494V7.21562H74.1406C76.0791 7.21562 77.6562 8.79281 77.6562 10.7312V57.55C77.6562 59.4884 76.0791 61.0656 74.1406 61.0656H67.4639C66.8166 61.0656 66.292 61.5902 66.292 62.2375C66.292 62.8848 66.8166 63.4094 67.4639 63.4094H74.1406C77.3716 63.4094 80 60.7809 80 57.55V10.7312C80 7.50031 77.3716 4.87187 74.1406 4.87187ZM34.2609 63.4094H45.7391V69.1309H34.2609V63.4094ZM33.0891 71.475C33.0911 71.475 33.0931 71.4747 33.0952 71.4747H46.905C46.907 71.4747 46.9089 71.475 46.9111 71.475C46.9133 71.475 46.9152 71.4747 46.9172 71.4747H48.1848C50.6725 71.4747 52.6964 73.4986 52.6964 75.9863V77.6562H27.3038V75.9863C27.3038 73.4986 29.3277 71.4747 31.8155 71.4747H33.0831C33.0831 71.4747 33.087 71.475 33.0891 71.475ZM59.5056 56.3775H20.4944V21.667C20.4944 21.0197 19.9697 20.4952 19.3225 20.4952C18.6753 20.4952 18.1506 21.0197 18.1506 21.667V56.3781H7.03125V11.9031H18.1506V16.1983C18.1506 16.8456 18.6753 17.3702 19.3225 17.3702C19.9697 17.3702 20.4944 16.8456 20.4944 16.1983V5.85938C20.4944 3.92094 22.0714 2.34375 24.01 2.34375H55.99C57.9284 2.34375 59.5056 3.92094 59.5056 5.85938V56.3775ZM72.9688 11.9031V56.3781H61.8494V11.9031H72.9688ZM40 7.03125C31.7289 7.03125 25 13.7602 25 22.0312C25 30.3023 31.7289 37.0312 40 37.0312C48.2711 37.0312 55 30.3023 55 22.0312C55 13.7602 48.2711 7.03125 40 7.03125ZM40 34.6875C33.0212 34.6875 27.3438 29.0098 27.3438 22.0312C27.3438 15.0527 33.0212 9.375 40 9.375C46.9786 9.375 52.6562 15.0527 52.6562 22.0312C52.6562 29.0098 46.9786 34.6875 40 34.6875Z" fill="#DFB48F"/>
<path d="M53.1583 49.6221H26.1719C25.5247 49.6221 25 50.1466 25 50.794C25 51.4413 25.5247 51.9658 26.1719 51.9658H53.1583C53.8056 51.9658 54.3302 51.4413 54.3302 50.794C54.3302 50.1466 53.8056 49.6221 53.1583 49.6221ZM53.1583 42.5908H26.1719C25.5247 42.5908 25 43.1154 25 43.7627C25 44.4101 25.5247 44.9346 26.1719 44.9346H53.1583C53.8056 44.9346 54.3302 44.4101 54.3302 43.7627C54.3302 43.1154 53.8056 42.5908 53.1583 42.5908ZM47.5389 15.903C46.1489 14.6383 43.9983 14.7105 42.6422 16.0663L37.3039 21.4046L36.6414 20.7421C35.2928 19.3797 33.0219 19.3894 31.6694 20.7419C30.2987 22.1126 30.2986 24.3429 31.6694 25.7136L34.2658 28.3104C35.0764 29.1207 36.1552 29.5668 37.3037 29.5668C38.4525 29.5668 39.5314 29.1205 40.3422 28.3099L47.6608 20.9911C49.065 19.5986 48.99 17.2235 47.5389 15.903ZM46.0034 19.3338L38.6848 26.6525C38.3169 27.0204 37.8264 27.223 37.3037 27.223C36.7811 27.223 36.2906 27.0205 35.923 26.653L33.3267 24.0566C32.8698 23.5996 32.8698 22.8561 33.3267 22.3994C33.7777 21.9485 34.5352 21.946 34.9841 22.3993L36.1436 23.559C36.4534 23.869 36.8655 24.0397 37.3037 24.0397C37.742 24.0397 38.1539 23.8691 38.4639 23.5593L44.2995 17.7238C44.7613 17.2618 45.507 17.2232 45.9614 17.6365C46.4487 18.0797 46.4736 18.8693 46.0034 19.3338Z" fill="white"/>
</g>
<defs>
<clipPath id="clip0_2305_18432">
<rect width="80" height="80" fill="white"/>
</clipPath>
</defs>
</svg>
