<svg width="80" height="80" viewBox="0 0 80 80" fill="none" xmlns="http://www.w3.org/2000/svg">
<g clip-path="url(#clip0_2305_18439)">
<path d="M22.5781 32.3877C22.9359 32.3877 23.2878 32.5339 23.541 32.7871C23.7942 33.0403 23.9404 33.3922 23.9404 33.75C23.9404 34.1078 23.7941 34.4599 23.541 34.7129C23.2879 34.9662 22.9359 35.1123 22.5781 35.1123C22.2204 35.1123 21.8684 34.966 21.6152 34.7129C21.3621 34.4599 21.2158 34.1078 21.2158 33.75C21.2158 33.3922 21.3621 33.0403 21.6152 32.7871C21.8685 32.5338 22.2203 32.3877 22.5781 32.3877Z" fill="#DFB48F" stroke="#9F0033" stroke-width="0.4"/>
<mask id="path-2-inside-1_2305_18439" fill="white">
<path d="M75.3117 0H13.1245C10.5398 0 8.437 2.1028 8.437 4.68748V30.6249C8.437 33.2096 10.5398 35.3124 13.1245 35.3124H15.937C16.7999 35.3124 17.4995 34.6127 17.4995 33.7499C17.4995 32.8871 16.7999 32.1874 15.937 32.1874H13.1245C12.2629 32.1874 11.562 31.4864 11.562 30.6249V4.68748C11.562 3.82592 12.2629 3.12499 13.1245 3.12499H75.3117C76.1733 3.12499 76.8742 3.82592 76.8742 4.68748V30.6249C76.8742 31.4864 76.1733 32.1874 75.3117 32.1874H64.8607C64.4463 32.1874 64.0488 32.3521 63.7558 32.645L58.6107 37.7902L53.4656 32.645C53.1726 32.3521 52.7751 32.1874 52.3607 32.1874H40.1756C40.0608 31.8924 39.9309 31.6013 39.7839 31.3157C38.6652 29.1421 36.7608 27.5535 34.4221 26.8424L32.163 26.1555C31.3677 25.9133 30.5221 26.3371 30.2393 27.1188L26.6896 36.9295C25.7051 39.6506 23.7632 41.9112 21.2219 43.2951L17.8898 45.1095C17.0709 44.1155 15.831 43.4806 14.4456 43.4806H4.46123C2.00124 43.4806 3.65902e-08 45.482 3.65902e-08 47.942V75.5381C-0.000312462 77.9983 2.00109 79.9997 4.46108 79.9997H14.4454C16.0007 79.9997 17.3718 79.1992 18.1706 77.9891L19.7649 78.6144C22.109 79.5339 24.5744 80 27.0927 80H48.1751C51.3384 80 53.9118 77.4266 53.9118 74.2633C53.9118 73.2163 53.6285 72.2347 53.1365 71.3889C55.4637 70.6575 57.1567 68.4804 57.1567 65.9149C57.1567 64.8413 56.8595 63.836 56.3442 62.9758C58.5723 62.1877 60.1732 60.061 60.1732 57.5663C60.1732 54.9679 58.436 52.7687 56.0626 52.0659C56.5452 51.2259 56.8228 50.2539 56.8228 49.2176C56.8228 46.0545 54.2493 43.4809 51.086 43.4809H38.5567L40.3089 38.2788C40.6364 37.3063 40.7914 36.3063 40.7808 35.3125H51.7136L57.5059 41.1048C57.811 41.4098 58.2109 41.5625 58.6107 41.5625C59.0106 41.5625 59.4105 41.4098 59.7155 41.1048L65.508 35.3124H75.3117C77.8964 35.3124 79.9992 33.2096 79.9992 30.6249V4.68748C79.9992 2.1028 77.8964 0 75.3117 0ZM15.7818 75.5383C15.7817 76.2752 15.1823 76.8747 14.4454 76.8747H4.46108C3.7242 76.8747 3.12483 76.2752 3.12483 75.5383V47.9422C3.12483 47.2053 3.7242 46.6058 4.46108 46.6058H7.89075V65.8433C7.89075 66.7061 8.59028 67.4058 9.45324 67.4058C10.3162 67.4058 11.0157 66.7061 11.0157 65.8433V46.6058H14.4454C15.029 46.6058 15.5251 46.9825 15.7068 47.505C15.7198 47.5806 15.7385 47.6556 15.7632 47.7298C15.7743 47.7992 15.7818 47.8697 15.7818 47.9422V75.5383ZM51.0862 46.6056V46.6058C52.5264 46.6058 53.6979 47.7773 53.6979 49.2175C53.6979 50.6576 52.5264 51.8293 51.0862 51.8293H42.6095C41.7466 51.8293 41.047 52.529 41.047 53.3918C41.047 54.2546 41.7466 54.9543 42.6095 54.9543L54.4367 54.9546C55.8768 54.9546 57.0484 56.1262 57.0484 57.5663C57.0484 59.0065 55.8768 60.1782 54.4367 60.1782H42.6095C41.7466 60.1782 41.047 60.8779 41.047 61.7407C41.047 62.6035 41.7466 63.3032 42.6095 63.3032H51.4201C52.8603 63.3032 54.0318 64.4747 54.0318 65.9149C54.0318 67.355 52.8603 68.5266 51.4201 68.5266H42.6095C41.7466 68.5266 41.047 69.2263 41.047 70.0891C41.047 70.9519 41.7466 71.6516 42.6095 71.6516H48.1753C49.6154 71.6516 50.787 72.8233 50.787 74.2635C50.787 75.7036 49.6154 76.8752 48.1753 76.8752H27.0927C24.9666 76.8752 22.8851 76.4814 20.9059 75.7053L18.9066 74.9213V48.114L22.7162 46.0397C25.9288 44.2903 28.3833 41.4327 29.6279 37.9928L32.673 29.5769L33.513 29.8322C35.0364 30.2955 36.2767 31.3302 37.0055 32.7458C37.7342 34.1614 37.8556 35.7722 37.3474 37.2811L34.901 44.5444C34.7403 45.0212 34.8192 45.5462 35.1127 45.9547C35.4063 46.3633 35.8785 46.6056 36.3817 46.6056H51.0862Z"/>
</mask>
<path d="M75.3117 0H13.1245C10.5398 0 8.437 2.1028 8.437 4.68748V30.6249C8.437 33.2096 10.5398 35.3124 13.1245 35.3124H15.937C16.7999 35.3124 17.4995 34.6127 17.4995 33.7499C17.4995 32.8871 16.7999 32.1874 15.937 32.1874H13.1245C12.2629 32.1874 11.562 31.4864 11.562 30.6249V4.68748C11.562 3.82592 12.2629 3.12499 13.1245 3.12499H75.3117C76.1733 3.12499 76.8742 3.82592 76.8742 4.68748V30.6249C76.8742 31.4864 76.1733 32.1874 75.3117 32.1874H64.8607C64.4463 32.1874 64.0488 32.3521 63.7558 32.645L58.6107 37.7902L53.4656 32.645C53.1726 32.3521 52.7751 32.1874 52.3607 32.1874H40.1756C40.0608 31.8924 39.9309 31.6013 39.7839 31.3157C38.6652 29.1421 36.7608 27.5535 34.4221 26.8424L32.163 26.1555C31.3677 25.9133 30.5221 26.3371 30.2393 27.1188L26.6896 36.9295C25.7051 39.6506 23.7632 41.9112 21.2219 43.2951L17.8898 45.1095C17.0709 44.1155 15.831 43.4806 14.4456 43.4806H4.46123C2.00124 43.4806 3.65902e-08 45.482 3.65902e-08 47.942V75.5381C-0.000312462 77.9983 2.00109 79.9997 4.46108 79.9997H14.4454C16.0007 79.9997 17.3718 79.1992 18.1706 77.9891L19.7649 78.6144C22.109 79.5339 24.5744 80 27.0927 80H48.1751C51.3384 80 53.9118 77.4266 53.9118 74.2633C53.9118 73.2163 53.6285 72.2347 53.1365 71.3889C55.4637 70.6575 57.1567 68.4804 57.1567 65.9149C57.1567 64.8413 56.8595 63.836 56.3442 62.9758C58.5723 62.1877 60.1732 60.061 60.1732 57.5663C60.1732 54.9679 58.436 52.7687 56.0626 52.0659C56.5452 51.2259 56.8228 50.2539 56.8228 49.2176C56.8228 46.0545 54.2493 43.4809 51.086 43.4809H38.5567L40.3089 38.2788C40.6364 37.3063 40.7914 36.3063 40.7808 35.3125H51.7136L57.5059 41.1048C57.811 41.4098 58.2109 41.5625 58.6107 41.5625C59.0106 41.5625 59.4105 41.4098 59.7155 41.1048L65.508 35.3124H75.3117C77.8964 35.3124 79.9992 33.2096 79.9992 30.6249V4.68748C79.9992 2.1028 77.8964 0 75.3117 0ZM15.7818 75.5383C15.7817 76.2752 15.1823 76.8747 14.4454 76.8747H4.46108C3.7242 76.8747 3.12483 76.2752 3.12483 75.5383V47.9422C3.12483 47.2053 3.7242 46.6058 4.46108 46.6058H7.89075V65.8433C7.89075 66.7061 8.59028 67.4058 9.45324 67.4058C10.3162 67.4058 11.0157 66.7061 11.0157 65.8433V46.6058H14.4454C15.029 46.6058 15.5251 46.9825 15.7068 47.505C15.7198 47.5806 15.7385 47.6556 15.7632 47.7298C15.7743 47.7992 15.7818 47.8697 15.7818 47.9422V75.5383ZM51.0862 46.6056V46.6058C52.5264 46.6058 53.6979 47.7773 53.6979 49.2175C53.6979 50.6576 52.5264 51.8293 51.0862 51.8293H42.6095C41.7466 51.8293 41.047 52.529 41.047 53.3918C41.047 54.2546 41.7466 54.9543 42.6095 54.9543L54.4367 54.9546C55.8768 54.9546 57.0484 56.1262 57.0484 57.5663C57.0484 59.0065 55.8768 60.1782 54.4367 60.1782H42.6095C41.7466 60.1782 41.047 60.8779 41.047 61.7407C41.047 62.6035 41.7466 63.3032 42.6095 63.3032H51.4201C52.8603 63.3032 54.0318 64.4747 54.0318 65.9149C54.0318 67.355 52.8603 68.5266 51.4201 68.5266H42.6095C41.7466 68.5266 41.047 69.2263 41.047 70.0891C41.047 70.9519 41.7466 71.6516 42.6095 71.6516H48.1753C49.6154 71.6516 50.787 72.8233 50.787 74.2635C50.787 75.7036 49.6154 76.8752 48.1753 76.8752H27.0927C24.9666 76.8752 22.8851 76.4814 20.9059 75.7053L18.9066 74.9213V48.114L22.7162 46.0397C25.9288 44.2903 28.3833 41.4327 29.6279 37.9928L32.673 29.5769L33.513 29.8322C35.0364 30.2955 36.2767 31.3302 37.0055 32.7458C37.7342 34.1614 37.8556 35.7722 37.3474 37.2811L34.901 44.5444C34.7403 45.0212 34.8192 45.5462 35.1127 45.9547C35.4063 46.3633 35.8785 46.6056 36.3817 46.6056H51.0862Z" fill="#DFB48F" stroke="#9F0033" stroke-width="0.8" mask="url(#path-2-inside-1_2305_18439)"/>
<path d="M64.5898 9.35938H64.5908C65.4714 9.35949 66.2594 9.84903 66.6494 10.6387L67.8857 13.1426L67.9326 13.2363L68.0361 13.252L70.7998 13.6523C71.6716 13.7788 72.3819 14.3772 72.6543 15.2148C72.9095 16.0001 72.7302 16.8412 72.1875 17.4502L72.0742 17.5684L70.0752 19.5186L69.999 19.5918L70.0176 19.6953L70.4902 22.4482C70.6392 23.3163 70.2895 24.1754 69.5771 24.6934C68.8645 25.2114 67.939 25.2787 67.1592 24.8691L64.6875 23.5703L64.5938 23.5215L64.501 23.5703L62.0293 24.8711C61.6896 25.0498 61.3225 25.1377 60.958 25.1377C60.4847 25.1377 60.0145 24.989 59.6113 24.6963C58.8984 24.1785 58.5486 23.3196 58.6973 22.4512L59.168 19.6982L59.1865 19.5947L59.1113 19.5215L57.1104 17.5732C56.4793 16.9584 56.2573 16.0565 56.5293 15.2188C56.7844 14.4334 57.4236 13.8589 58.2207 13.6855L58.3818 13.6562L61.1455 13.2539L61.25 13.2383L61.2959 13.1445L62.5312 10.6396C62.9208 9.84969 63.709 9.3597 64.5898 9.35938ZM64.4111 12.9873L63.5938 14.6465C63.2596 15.3241 62.6132 15.7935 61.8652 15.9023L60.0352 16.1689L59.6338 16.2275L59.9248 16.5098L61.249 17.7998C61.7904 18.3271 62.0378 19.0877 61.9102 19.833L61.5977 21.6553L61.5293 22.0547L61.8877 21.8652L63.5244 21.0049C64.1511 20.675 64.8924 20.6543 65.5342 20.9424L65.6611 21.0039L67.2979 21.8643L67.6572 22.0527L67.5879 21.6533L67.2754 19.8311C67.1475 19.0862 67.3937 18.3264 67.9346 17.7988L69.2588 16.5068L69.5488 16.2246L69.1475 16.166L67.3174 15.9014C66.5696 15.7928 65.9236 15.323 65.5889 14.6455L64.7695 12.9873L64.5908 12.624L64.4111 12.9873Z" fill="white" stroke="#9F0033" stroke-width="0.4"/>
<path d="M44.7109 9.35938H44.7119C45.5925 9.3595 46.3805 9.84903 46.7705 10.6387L48.0068 13.1426L48.0537 13.2363L48.1572 13.252L50.9209 13.6523C51.7928 13.7789 52.5028 14.3772 52.7754 15.2148C53.0478 16.0524 52.8255 16.9531 52.1953 17.5684L50.1953 19.5186L50.1201 19.5918L50.1387 19.6953L50.6113 22.4482C50.7603 23.3163 50.4105 24.1754 49.6982 24.6934C48.9854 25.2114 48.0602 25.2788 47.2803 24.8691L44.8076 23.5703L44.7148 23.5215L44.6221 23.5703L42.1504 24.8711C41.8107 25.0498 41.4435 25.1376 41.0791 25.1377C40.606 25.1377 40.1354 24.989 39.7324 24.6963C39.0196 24.1787 38.6696 23.3196 38.8184 22.4512L39.2891 19.6982L39.3076 19.5947L39.2324 19.5215L37.2314 17.5732C36.6004 16.9584 36.3784 16.0565 36.6504 15.2188C36.9055 14.4334 37.5447 13.8589 38.3418 13.6855L38.5029 13.6562L41.2666 13.2539L41.3711 13.2383L41.417 13.1445L42.6523 10.6396C43.0419 9.84955 43.83 9.3597 44.7109 9.35938ZM44.5322 12.9873L43.7148 14.6455C43.3802 15.3237 42.7333 15.7935 41.9854 15.9023L40.1562 16.1689L39.7549 16.2275L40.0449 16.5098L41.3701 17.7998C41.9115 18.3271 42.1579 19.0877 42.0303 19.833L41.7188 21.6553L41.6504 22.0547L42.0088 21.8652L43.6455 21.0049C44.314 20.6532 45.1129 20.6525 45.7822 21.0039L47.4189 21.8643L47.7783 22.0527L47.709 21.6533L47.3965 19.8311C47.2686 19.0862 47.5148 18.3264 48.0557 17.7988L49.3799 16.5068L49.6699 16.2246L49.2686 16.166L47.4385 15.9014C46.6906 15.7928 46.0446 15.323 45.71 14.6455L44.8906 12.9873L44.7119 12.624L44.5322 12.9873Z" fill="white" stroke="#9F0033" stroke-width="0.4"/>
<path d="M24.8359 9.35938H24.8369C25.7176 9.35945 26.5055 9.849 26.8955 10.6387L28.1318 13.1426L28.1787 13.2363L28.2822 13.252L31.0469 13.6523C31.9184 13.7789 32.6279 14.3773 32.9004 15.2148C33.1726 16.0524 32.9507 16.9532 32.3203 17.5684L30.3203 19.5186L30.2451 19.5918L30.2627 19.6953L30.7354 22.4482C30.8843 23.3163 30.5355 24.1754 29.8232 24.6934C29.1106 25.2114 28.1851 25.2787 27.4053 24.8691L24.9326 23.5703L24.8398 23.5215L24.7471 23.5703L22.2754 24.8711C21.9357 25.0498 21.5685 25.1376 21.2041 25.1377C20.731 25.1377 20.2604 24.989 19.8574 24.6963C19.1446 24.1787 18.7946 23.3196 18.9434 22.4512L19.4141 19.6982L19.4326 19.5947L19.3564 19.5215L17.3564 17.5732C16.7256 16.9586 16.5035 16.0574 16.7754 15.2197C17.0475 14.3818 17.7562 13.7833 18.6279 13.6562L21.3916 13.2539L21.4961 13.2383L21.542 13.1445L22.7773 10.6396C23.1669 9.84959 23.9551 9.35974 24.8359 9.35938ZM24.6572 12.9873L23.8398 14.6455C23.5053 15.3236 22.8591 15.7934 22.1113 15.9023L20.2812 16.1689L19.8799 16.2275L20.1709 16.5098L21.4951 17.7998C22.0364 18.3273 22.2835 19.0871 22.1562 19.832L21.8438 21.6553L21.7754 22.0547L22.1338 21.8652L23.7705 21.0049C24.4388 20.6532 25.238 20.6525 25.9072 21.0039L27.5439 21.8643L27.9033 22.0527L27.834 21.6533L27.5215 19.8311C27.3936 19.086 27.6405 18.3264 28.1816 17.7988L29.5049 16.5068L29.7949 16.2246L29.3936 16.166L27.5635 15.9014C26.8156 15.7928 26.1696 15.323 25.835 14.6455L25.0156 12.9873L24.8369 12.624L24.6572 12.9873Z" fill="white" stroke="#9F0033" stroke-width="0.4"/>
<path d="M9.45312 70.0996C10.2056 70.0996 10.8154 70.7096 10.8154 71.4619V71.4863C10.8154 72.2387 10.2056 72.8486 9.45312 72.8486C8.70064 72.8486 8.09084 72.2387 8.09082 71.4863V71.4619C8.09082 70.7095 8.70063 70.0996 9.45312 70.0996Z" fill="#DFB48F" stroke="#9F0033" stroke-width="0.4"/>
</g>
<defs>
<clipPath id="clip0_2305_18439">
<rect width="80" height="80" fill="white"/>
</clipPath>
</defs>
</svg>
