<svg width="80" height="80" viewBox="0 0 80 80" fill="none" xmlns="http://www.w3.org/2000/svg">
<g clip-path="url(#clip0_2305_18461)">
<path d="M0.252423 7.3387L5.58778 16.675C5.76775 16.9905 6.06898 17.2188 6.42123 17.3071L11.3989 18.5515L28.471 35.6237L30.3574 33.7379L13.018 16.399C12.8474 16.2279 12.6334 16.1066 12.3991 16.0479L7.61625 14.8479L3.07373 6.89427L6.96826 2.99974L14.9252 7.54665L16.1257 12.3295C16.1839 12.5643 16.3057 12.7789 16.4763 12.9495L33.8157 30.2889L35.7015 28.4025L18.6294 11.3303L17.3849 6.35547C17.2966 6.00267 17.0684 5.70089 16.7529 5.52038L7.41598 0.185564C6.89529 -0.110723 6.24016 -0.0229339 5.81549 0.400098L0.480674 5.73546C0.051606 6.15739 -0.0416695 6.81361 0.252423 7.3387Z" fill="#DFB48F"/>
<path d="M55.7058 26.2867L26.3629 55.6301L24.4766 53.7437L53.82 24.4009L55.7058 26.2867Z" fill="white"/>
<path d="M21.227 56.6681C20.9856 56.2665 20.5521 56.0212 20.0835 56.0212H12.081C11.613 56.0212 11.179 56.2665 10.9381 56.6681L6.93662 63.3368C6.68258 63.7593 6.68258 64.2876 6.93662 64.7107L10.9381 71.3793C11.179 71.7804 11.613 72.0262 12.081 72.0262H20.0835C20.5521 72.0262 20.9856 71.7804 21.227 71.3793L25.228 64.7107C25.482 64.2876 25.482 63.7593 25.228 63.3368L21.227 56.6681ZM19.3291 69.3585H12.836L9.63503 64.0237L12.836 58.6884H19.3291L22.5301 64.0237L19.3291 69.3585Z" fill="white"/>
<path d="M64.0992 32.0132C72.9082 32.0429 80.074 24.9254 80.1036 16.1163C80.108 14.7754 79.9434 13.4399 79.6136 12.1401C79.4359 11.4251 78.7122 10.99 77.9972 11.1678C77.7624 11.2265 77.5484 11.3478 77.3772 11.5184L69.0746 19.8155L62.4871 17.6203L60.2902 11.0345L68.5929 2.7302C69.1136 2.20895 69.113 1.36454 68.5918 0.843839C68.42 0.672102 68.2038 0.550295 67.9674 0.492135C59.4244 -1.67131 50.7459 3.5 48.5825 12.0424C48.2538 13.3384 48.0898 14.6706 48.0942 16.0077C48.0975 17.0579 48.2056 18.1048 48.4185 19.133L19.2084 48.3425C18.1802 48.1301 17.1333 48.0221 16.0837 48.0182C7.24388 48.0182 0.078125 55.184 0.078125 64.0237C0.078125 72.863 7.24388 80.0287 16.0837 80.0287C24.9229 80.0287 32.0886 72.863 32.0886 64.0237C32.0854 62.9736 31.9767 61.9267 31.7644 60.8985L38.7573 53.9055L41.8156 56.9639C42.3369 57.4846 43.1808 57.4846 43.702 56.9639L44.3686 56.2967C44.9535 55.7156 45.8989 55.7156 46.4838 56.2967C47.0681 56.8794 47.0692 57.8253 46.4865 58.4097C46.486 58.4102 46.4849 58.4113 46.4838 58.4124L45.8172 59.079C45.2965 59.5997 45.2965 60.4442 45.8172 60.9649L61.7278 76.8755C65.9126 81.0987 72.7283 81.1294 76.9514 76.9446C81.1741 72.7598 81.2048 65.9436 77.02 61.7209C76.9975 61.6979 76.9745 61.6749 76.9514 61.6518L61.0408 45.7417C60.5201 45.221 59.6757 45.221 59.155 45.7417L58.4884 46.4084C57.9029 46.99 56.9581 46.99 56.3727 46.4084C55.7889 45.8257 55.7872 44.8798 56.3699 44.296C56.371 44.2949 56.3721 44.2943 56.3727 44.2932L57.0399 43.626C57.5606 43.1053 57.5606 42.2609 57.0399 41.7402L53.9815 38.6819L60.9744 31.689C62.0027 31.9013 63.0495 32.0099 64.0992 32.0132ZM69.3396 77.3616C68.3706 77.36 67.4099 77.1849 66.5029 76.8442L76.9196 66.427C78.4916 70.6085 76.3764 75.2722 72.1949 76.8442C71.2825 77.1871 70.3152 77.3627 69.3396 77.3616ZM54.2295 42.6966C52.7525 44.4584 52.984 47.0844 54.7458 48.5609C56.2942 49.8585 58.5509 49.8574 60.0976 48.557L75.0656 63.5382C75.228 63.7011 75.38 63.8729 75.5271 64.0473L64.1233 75.4511C63.9483 75.3046 63.7765 75.1526 63.6136 74.9897L48.6341 60.0091C50.1111 58.2472 49.8796 55.6213 48.1178 54.1448C46.5694 52.8466 44.3121 52.8482 42.7654 54.1481L40.6316 52.0142L52.0952 40.5677L54.2295 42.6966ZM59.6154 29.2819L29.3584 59.5328C29.0265 59.8642 28.8931 60.3454 29.0062 60.8003C30.836 67.9863 26.4938 75.2953 19.3072 77.1246C12.1211 78.9544 4.81213 74.6122 2.98229 67.4256C1.15299 60.2395 5.49524 52.9305 12.6818 51.1007C14.8557 50.5476 17.1333 50.5476 19.3072 51.1007C19.762 51.2121 20.2421 51.0788 20.5746 50.749L50.8244 20.4975C51.1558 20.1661 51.2891 19.6849 51.175 19.2306C49.3578 12.1285 53.6419 4.89803 60.744 3.08026C62.0861 2.73733 63.4742 2.60565 64.8569 2.69179L57.8212 9.73025C57.464 10.0869 57.3389 10.6153 57.4986 11.0943L60.1657 19.0973C60.299 19.4951 60.6118 19.8079 61.0101 19.9401L69.0131 22.6078C69.4916 22.7674 70.02 22.6429 70.3772 22.2862L77.4129 15.2505C77.4288 15.5051 77.437 15.757 77.437 16.0077C77.4743 23.3364 71.564 29.3077 64.2352 29.3456C63.1022 29.351 61.973 29.2117 60.8757 28.9307C60.4208 28.8172 59.9396 28.95 59.6082 29.2814H59.6154V29.2819Z" fill="#DFB48F"/>
<path d="M69.044 67.0817L67.1576 68.9681L53.8203 55.6307L55.7061 53.7444L69.044 67.0817Z" fill="white"/>
</g>
<defs>
<clipPath id="clip0_2305_18461">
<rect width="80" height="80" fill="white"/>
</clipPath>
</defs>
</svg>
