<svg width="80" height="80" viewBox="0 0 80 80" fill="none" xmlns="http://www.w3.org/2000/svg">
<path d="M70.6533 30.7147H56.1852V7.9598C56.1484 5.83112 55.269 3.80388 53.7399 2.32252C52.2108 0.841158 50.1567 0.0265632 48.0279 0.057321H10.3467C8.19307 0.00256864 6.1055 0.803445 4.54111 2.28458C2.97672 3.76572 2.06299 5.80641 2 7.9598V32.0808C2.06299 34.2342 2.97672 36.2749 4.54111 37.756C6.1055 39.2371 8.19307 40.038 10.3467 39.9832H10.5556V47.5648C10.5557 47.8884 10.6471 48.2055 10.8194 48.4795C10.9916 48.7535 11.2376 48.9734 11.5292 49.1139C11.8208 49.2544 12.1461 49.3097 12.4677 49.2737C12.7894 49.2376 13.0943 49.1115 13.3475 48.9099L24.5488 39.9832H24.8148V62.6449C24.8521 64.7989 25.742 66.8502 27.2894 68.3491C28.8369 69.848 30.9155 70.6721 33.0696 70.6407H56.4512L67.6539 79.568C67.9071 79.7694 68.212 79.8953 68.5335 79.9312C68.8551 79.9671 69.1802 79.9116 69.4716 79.7711C69.7631 79.6305 70.0089 79.4106 70.181 79.1366C70.3531 78.8627 70.4444 78.5457 70.4444 78.2222V70.6407H70.6533C72.8069 70.6954 74.8945 69.8946 76.4589 68.4134C78.0233 66.9323 78.937 64.8916 79 62.7382V38.6172C78.937 36.4638 78.0233 34.4231 76.4589 32.942C74.8945 31.4609 72.8069 30.66 70.6533 30.7147ZM24.2328 37.1314C23.7925 37.1334 23.3655 37.2826 23.0199 37.5554L13.4074 45.2156V39.0259C13.4033 38.5203 13.1988 38.0369 12.8388 37.6818C12.4789 37.3266 11.9928 37.1287 11.4871 37.1314H10.3467C8.94934 37.1863 7.58707 36.6859 6.55749 35.7395C5.52791 34.7932 4.91471 33.4778 4.85185 32.0808V7.9598C4.91471 6.56279 5.52791 5.24743 6.55749 4.30108C7.58706 3.35473 8.94933 2.85432 10.3467 2.90917H48.0279C49.4005 2.87773 50.7297 3.39165 51.7241 4.33833C52.7186 5.28502 53.2972 6.58727 53.3333 7.9598V32.0808C53.2969 33.4534 52.718 34.7557 51.7233 35.7024C50.7286 36.649 49.3993 37.1629 48.0265 37.1314L24.2328 37.1314ZM76.1482 62.7382C76.0853 64.1352 75.4721 65.4506 74.4425 66.3969C73.4129 67.3433 72.0507 67.8437 70.6533 67.7888H69.5129C69.0072 67.7861 68.5211 67.9841 68.1612 68.3392C67.8012 68.6943 67.5967 69.1777 67.5926 69.6833V75.873L57.9759 68.2101C57.6317 67.9381 57.206 67.7897 56.7672 67.7888H33.0696C31.6717 67.8207 30.3182 67.2972 29.3055 66.333C28.2928 65.3689 27.7035 64.0427 27.6667 62.6449V39.9833H48.0265C49.8969 40.0023 51.7164 39.3738 53.1762 38.2042C54.636 37.0347 55.6463 35.3961 56.0357 33.5666H70.6533C72.0507 33.5117 73.4129 34.0122 74.4425 34.9585C75.4721 35.9048 76.0853 37.2202 76.1482 38.6172V62.7382Z" fill="#DFB48F"/>
<path d="M36.5599 26.4514C38.2359 24.5551 39.1314 22.0942 39.066 19.5642C39.0006 17.0342 37.9793 14.6229 36.2075 12.8157C34.4358 11.0084 32.0452 9.93944 29.517 9.82392C26.9888 9.70839 24.5106 10.5549 22.5815 12.193C20.6523 13.8311 19.4153 16.1393 19.1194 18.6528C18.8236 21.1663 19.4909 23.6985 20.987 25.7398C22.4832 27.7811 24.697 29.1798 27.183 29.6544C29.6689 30.1291 32.2424 29.6444 34.3853 28.2979L35.1933 29.2138C35.4442 29.495 35.7962 29.6654 36.1723 29.6879C36.5485 29.7103 36.9183 29.583 37.2008 29.3337C37.4834 29.0845 37.6559 28.7335 37.6805 28.3574C37.7051 27.9814 37.5799 27.6109 37.3322 27.3269L36.5599 26.4514ZM29.0928 26.9802C27.6827 26.9802 26.3043 26.5621 25.1318 25.7786C23.9593 24.9952 23.0455 23.8817 22.5059 22.579C21.9663 21.2762 21.8251 19.8427 22.1002 18.4597C22.3753 17.0766 23.0543 15.8063 24.0514 14.8092C25.0485 13.8121 26.3189 13.133 27.7019 12.8579C29.0849 12.5828 30.5184 12.724 31.8212 13.2637C33.124 13.8033 34.2375 14.7171 35.0209 15.8896C35.8043 17.062 36.2224 18.4405 36.2224 19.8506C36.2155 21.4628 35.6568 23.024 34.6393 24.2746L31.5478 20.7703C31.2967 20.49 30.9449 20.3203 30.5692 20.2983C30.1936 20.2762 29.8244 20.4035 29.5422 20.6525C29.2599 20.9014 29.0876 21.2519 29.0626 21.6274C29.0376 22.0029 29.1621 22.373 29.4089 22.6572L32.4482 26.1022C31.4205 26.6702 30.267 26.972 29.0928 26.9802Z" fill="white"/>
<path d="M60.347 58.613C57.763 52.461 59.1371 55.7326 53.223 41.6519L53.2174 41.6384C53.108 41.3802 52.925 41.16 52.6912 41.0052C52.4574 40.8504 52.1833 40.7678 51.9029 40.7678C51.6225 40.7678 51.3483 40.8504 51.1145 41.0052C50.8808 41.16 50.6978 41.3802 50.5883 41.6384L50.5831 41.6508C47.8846 48.0756 45.7856 53.073 43.4588 58.613C43.3156 58.961 43.3158 59.3515 43.4594 59.6994C43.603 60.0473 43.8783 60.3242 44.2252 60.47C44.5722 60.6157 44.9627 60.6183 45.3116 60.4774C45.6605 60.3364 45.9395 60.0631 46.0878 59.7173L48.0681 55.0023H55.7375L57.7179 59.7173C57.8653 60.0645 58.1443 60.3391 58.4938 60.481C58.8432 60.623 59.2347 60.6207 59.5824 60.4746C59.9302 60.3285 60.2059 60.0506 60.3492 59.7017C60.4925 59.3528 60.4917 58.9613 60.347 58.613ZM49.2659 52.1504L51.9028 45.8723L54.5397 52.1504H49.2659Z" fill="white"/>
</svg>
