<svg width="80" height="80" viewBox="0 0 80 80" fill="none" xmlns="http://www.w3.org/2000/svg">
<path d="M33.6266 26.6426L27.4404 20.4551C27.206 20.2207 26.8881 20.0891 26.5566 20.0891C26.2252 20.0891 25.9073 20.2207 25.6729 20.4551L23.0204 23.1063C22.6722 23.4546 22.2587 23.7309 21.8037 23.9194C21.3487 24.1079 20.861 24.2049 20.3685 24.2049C19.876 24.2049 19.3883 24.1079 18.9333 23.9194C18.4783 23.7309 18.0649 23.4546 17.7166 23.1063L17.4141 22.8038C17.0659 22.4556 16.7896 22.0422 16.6011 21.5872C16.4126 21.1321 16.3156 20.6445 16.3156 20.1519C16.3156 19.6594 16.4126 19.1717 16.6011 18.7167C16.7896 18.2617 17.0659 17.8483 17.4141 17.5001L20.0654 14.8476C20.2997 14.6132 20.4314 14.2953 20.4314 13.9638C20.4314 13.6324 20.2997 13.3145 20.0654 13.0801L13.8766 6.89381C13.6422 6.65948 13.3244 6.52783 12.9929 6.52783C12.6614 6.52783 12.3436 6.65948 12.1091 6.89381L9.4579 9.54507C7.35114 11.6565 6.16797 14.5174 6.16797 17.5001C6.16797 20.4828 7.35114 23.3437 9.4579 25.4551L15.0641 31.0613C17.1756 33.1681 20.0365 34.3512 23.0191 34.3512C26.0018 34.3512 28.8627 33.1681 30.9741 31.0613L33.6266 28.4101C33.861 28.1757 33.9926 27.8578 33.9926 27.5263C33.9926 27.1949 33.861 26.877 33.6266 26.6426ZM26.5566 23.1063L30.9754 27.5263L30.0916 28.4101L25.6729 23.9901L26.5566 23.1063ZM12.9941 9.54507L17.4129 13.9638L16.5291 14.8488L12.1091 10.4288L12.9941 9.54507ZM16.8316 29.2951L11.2254 23.6876C9.74016 22.1982 8.84 20.2245 8.68923 18.1266C8.53846 16.0286 9.14713 13.9465 10.4041 12.2601L14.8491 16.7051C14.0569 17.9078 13.7036 19.3469 13.8486 20.7798C13.9936 22.2127 14.6282 23.5517 15.6454 24.5713L15.9479 24.8738C16.9679 25.8904 18.3069 26.5245 19.7396 26.6695C21.1723 26.8145 22.6112 26.4616 23.8141 25.6701L28.2592 30.1151C26.5727 31.3718 24.4905 31.9803 22.3927 31.8296C20.2948 31.6788 18.3211 30.7788 16.8316 29.2938V29.2951Z" fill="white"/>
<path d="M33.75 40H6.25C5.25544 40 4.30161 39.6049 3.59835 38.9017C2.89509 38.1984 2.5 37.2446 2.5 36.25V6.25C2.5 5.25544 2.89509 4.30161 3.59835 3.59835C4.30161 2.89509 5.25544 2.5 6.25 2.5H33.75C34.7446 2.5 35.6984 2.89509 36.4017 3.59835C37.1049 4.30161 37.5 5.25544 37.5 6.25V36.25C37.5 37.2446 37.1049 38.1984 36.4017 38.9017C35.6984 39.6049 34.7446 40 33.75 40ZM6.25 5C5.91848 5 5.60054 5.1317 5.36612 5.36612C5.1317 5.60054 5 5.91848 5 6.25V36.25C5 36.5815 5.1317 36.8995 5.36612 37.1339C5.60054 37.3683 5.91848 37.5 6.25 37.5H33.75C34.0815 37.5 34.3995 37.3683 34.6339 37.1339C34.8683 36.8995 35 36.5815 35 36.25V6.25C35 5.91848 34.8683 5.60054 34.6339 5.36612C34.3995 5.1317 34.0815 5 33.75 5H6.25Z" fill="#DFB48F"/>
<path d="M33.75 77.5H6.25C5.25544 77.5 4.30161 77.1049 3.59835 76.4016C2.89509 75.6984 2.5 74.7446 2.5 73.75V46.25C2.5 45.2554 2.89509 44.3016 3.59835 43.5984C4.30161 42.8951 5.25544 42.5 6.25 42.5H33.75C34.7446 42.5 35.6984 42.8951 36.4017 43.5984C37.1049 44.3016 37.5 45.2554 37.5 46.25V73.75C37.5 74.7446 37.1049 75.6984 36.4017 76.4016C35.6984 77.1049 34.7446 77.5 33.75 77.5ZM6.25 45C5.91848 45 5.60054 45.1317 5.36612 45.3661C5.1317 45.6005 5 45.9185 5 46.25V73.75C5 74.0815 5.1317 74.3995 5.36612 74.6339C5.60054 74.8683 5.91848 75 6.25 75H33.75C34.0815 75 34.3995 74.8683 34.6339 74.6339C34.8683 74.3995 35 74.0815 35 73.75V46.25C35 45.9185 34.8683 45.6005 34.6339 45.3661C34.3995 45.1317 34.0815 45 33.75 45H6.25Z" fill="#DFB48F"/>
<path d="M31.25 51.25H8.75C8.41848 51.25 8.10054 51.3817 7.86612 51.6161C7.6317 51.8505 7.5 52.1685 7.5 52.5V67.5C7.5 67.8315 7.6317 68.1495 7.86612 68.3839C8.10054 68.6183 8.41848 68.75 8.75 68.75H31.25C31.5815 68.75 31.8995 68.6183 32.1339 68.3839C32.3683 68.1495 32.5 67.8315 32.5 67.5V52.5C32.5 52.1685 32.3683 51.8505 32.1339 51.6161C31.8995 51.3817 31.5815 51.25 31.25 51.25ZM20 60.8125L12.04 53.75H27.9575L20 60.8125ZM15.3325 60.0112L10 64.725V55.2812L15.3325 60.0112ZM17.215 61.6825L18.34 62.6825C18.797 63.0966 19.3914 63.3265 20.0082 63.3277C20.6249 63.3288 21.2202 63.1012 21.6788 62.6888L22.8038 61.6888L27.9513 66.25H12.0487L17.215 61.6825ZM24.68 60.0112L30 55.2812V64.725L24.68 60.0112Z" fill="white"/>
<path d="M73.75 2.5H46.25C45.2554 2.5 44.3016 2.89509 43.5984 3.59835C42.8951 4.30161 42.5 5.25544 42.5 6.25V36.25C42.5 37.2446 42.8951 38.1984 43.5984 38.9017C44.3016 39.6049 45.2554 40 46.25 40H52.5V55.6725L51.0375 52.5737C50.7671 51.659 50.1541 50.8839 49.3262 50.41C48.4631 49.912 47.4376 49.7771 46.475 50.035L45.3237 50.345C44.9953 50.4335 44.6883 50.5882 44.4217 50.7995C44.155 51.0108 43.9343 51.2743 43.7731 51.5739C43.6118 51.8735 43.5134 52.2028 43.4839 52.5417C43.4543 52.8807 43.4943 53.222 43.6013 53.545L48.8188 68.7C48.8689 68.8464 48.946 68.9821 49.0462 69.1L52.4325 73.1L52.5 76.2762C52.5069 76.6032 52.6416 76.9144 52.8753 77.1432C53.109 77.372 53.423 77.5001 53.75 77.5H71.25C71.5815 77.5 71.8995 77.3683 72.1339 77.1339C72.3683 76.8995 72.5 76.5815 72.5 76.25V72.875L74.79 69.44C74.9259 69.2354 74.9989 68.9956 75 68.75V52.5C75.0037 52.01 74.9089 51.5243 74.7212 51.0716C74.5335 50.619 74.2568 50.2086 73.9075 49.865C73.3866 49.3515 72.7293 48.9982 72.0137 48.8471C71.298 48.696 70.554 48.7534 69.87 49.0125C69.7039 48.3864 69.3713 47.8171 68.9075 47.365C68.3864 46.8518 67.7292 46.4987 67.0136 46.3476C66.298 46.1965 65.5541 46.2537 64.87 46.5125C64.7039 45.8864 64.3713 45.3171 63.9075 44.865C63.404 44.367 62.7718 44.0189 62.0817 43.8598C61.3916 43.7006 60.6708 43.7366 60 43.9638V40H73.75C74.7446 40 75.6984 39.6049 76.4016 38.9017C77.1049 38.1984 77.5 37.2446 77.5 36.25V6.25C77.5 5.25544 77.1049 4.30161 76.4016 3.59835C75.6984 2.89509 74.7446 2.5 73.75 2.5ZM61.25 46.25C61.4166 46.2495 61.5816 46.2831 61.7347 46.3489C61.8878 46.4147 62.0257 46.5112 62.14 46.6325C62.2554 46.7453 62.3468 46.8804 62.4087 47.0294C62.4706 47.1785 62.5016 47.3386 62.5 47.5V56.25C62.5 56.5815 62.6317 56.8995 62.8661 57.1339C63.1005 57.3683 63.4185 57.5 63.75 57.5C64.0815 57.5 64.3995 57.3683 64.6339 57.1339C64.8683 56.8995 65 56.5815 65 56.25V50C65 49.6685 65.1317 49.3505 65.3661 49.1161C65.6005 48.8817 65.9185 48.75 66.25 48.75C66.4166 48.7495 66.5816 48.7831 66.7347 48.8489C66.8878 48.9147 67.0257 49.0112 67.14 49.1325C67.2554 49.2453 67.3468 49.3804 67.4087 49.5294C67.4706 49.6785 67.5016 49.8386 67.5 50V56.25C67.5 56.5815 67.6317 56.8995 67.8661 57.1339C68.1005 57.3683 68.4185 57.5 68.75 57.5C69.0815 57.5 69.3995 57.3683 69.6339 57.1339C69.8683 56.8995 70 56.5815 70 56.25V52.5C70 52.1685 70.1317 51.8505 70.3661 51.6161C70.6005 51.3817 70.9185 51.25 71.25 51.25C71.4166 51.2495 71.5816 51.2831 71.7347 51.3489C71.8878 51.4147 72.0257 51.5112 72.14 51.6325C72.2554 51.7453 72.3468 51.8804 72.4087 52.0294C72.4706 52.1785 72.5016 52.3386 72.5 52.5V68.375L70.21 71.81C70.0741 72.0146 70.0011 72.2544 70 72.5V75H54.9738L54.9225 72.5987C54.9169 72.3118 54.8128 72.0355 54.6275 71.8162L51.105 67.6587L45.9737 52.75L47.1163 52.4425C47.4402 52.3561 47.7852 52.401 48.0762 52.5675C48.2174 52.648 48.3412 52.7557 48.4404 52.8845C48.5395 53.0132 48.6121 53.1604 48.6538 53.3175C48.6725 53.3912 52.62 61.7712 52.62 61.7712C52.7409 62.0269 52.9449 62.2341 53.1987 62.3588C53.4526 62.4836 53.7412 62.5185 54.0175 62.458C54.2938 62.3975 54.5414 62.2451 54.7198 62.0257C54.8983 61.8063 54.9971 61.5328 55 61.25V36.39C54.9865 36.0598 55.0944 35.7361 55.3033 35.48C55.5122 35.2239 55.8076 35.0532 56.1338 35C56.319 34.9814 56.506 35.0056 56.6805 35.0706C56.8549 35.1356 57.0121 35.2397 57.14 35.375C57.2564 35.4887 57.3483 35.6249 57.4102 35.7754C57.4721 35.9258 57.5026 36.0873 57.5 36.25V56.25C57.5 56.5815 57.6317 56.8995 57.8661 57.1339C58.1005 57.3683 58.4185 57.5 58.75 57.5C59.0815 57.5 59.3995 57.3683 59.6339 57.1339C59.8683 56.8995 60 56.5815 60 56.25V47.5C60 47.1685 60.1317 46.8505 60.3661 46.6161C60.6005 46.3817 60.9185 46.25 61.25 46.25ZM75 36.25C75 36.5815 74.8683 36.8995 74.6339 37.1339C74.3995 37.3683 74.0815 37.5 73.75 37.5H60V36.25C60.0037 35.76 59.9089 35.2743 59.7212 34.8216C59.5335 34.369 59.2568 33.9586 58.9075 33.615C58.523 33.2216 58.0558 32.9186 57.5397 32.7282C57.0236 32.5377 56.4716 32.4645 55.9237 32.5137C54.9733 32.6187 54.0961 33.0739 53.4631 33.7905C52.8301 34.5072 52.4868 35.4339 52.5 36.39V37.5H46.25C45.9185 37.5 45.6005 37.3683 45.3661 37.1339C45.1317 36.8995 45 36.5815 45 36.25V6.25C45 5.91848 45.1317 5.60054 45.3661 5.36612C45.6005 5.1317 45.9185 5 46.25 5H73.75C74.0815 5 74.3995 5.1317 74.6339 5.36612C74.8683 5.60054 75 5.91848 75 6.25V36.25Z" fill="#DFB48F"/>
<path d="M60 10C57.3478 10 54.8043 11.0536 52.9289 12.9289C51.0536 14.8043 50 17.3478 50 20C50 22.6522 51.0536 25.1957 52.9289 27.0711C54.8043 28.9464 57.3478 30 60 30H65C65.3315 30 65.6495 29.8683 65.8839 29.6339C66.1183 29.3995 66.25 29.0815 66.25 28.75C66.25 28.4185 66.1183 28.1005 65.8839 27.8661C65.6495 27.6317 65.3315 27.5 65 27.5H60C58.5166 27.5 57.0666 27.0601 55.8332 26.236C54.5999 25.4119 53.6386 24.2406 53.0709 22.8701C52.5032 21.4997 52.3547 19.9917 52.6441 18.5368C52.9335 17.082 53.6478 15.7456 54.6967 14.6967C55.7456 13.6478 57.082 12.9335 58.5368 12.6441C59.9917 12.3547 61.4997 12.5032 62.8701 13.0709C64.2406 13.6386 65.4119 14.5999 66.236 15.8332C67.0601 17.0666 67.5 18.5166 67.5 20V21.25C67.5 21.5815 67.3683 21.8995 67.1339 22.1339C66.8995 22.3683 66.5815 22.5 66.25 22.5C65.9185 22.5 65.6005 22.3683 65.3661 22.1339C65.1317 21.8995 65 21.5815 65 21.25V20C65.0095 18.8398 64.6184 17.7118 63.8929 16.8064C63.1673 15.9009 62.1517 15.2735 61.0173 15.0299C59.8828 14.7863 58.6991 14.9415 57.6658 15.4693C56.6325 15.9971 55.8129 16.8651 55.3453 17.9269C54.8776 18.9888 54.7906 20.1794 55.0988 21.298C55.407 22.4166 56.0917 23.3946 57.0372 24.0671C57.9827 24.7395 59.1313 25.0652 60.2891 24.9893C61.4468 24.9133 62.543 24.4403 63.3925 23.65C63.8837 24.2422 64.5459 24.6682 65.2885 24.8697C66.0311 25.0712 66.8178 25.0384 67.541 24.7757C68.2642 24.513 68.8886 24.0333 69.3287 23.4022C69.7689 22.7711 70.0033 22.0194 70 21.25V20C69.997 17.3487 68.9425 14.8069 67.0678 12.9322C65.1931 11.0575 62.6513 10.003 60 10ZM60 22.5C59.5055 22.5 59.0222 22.3534 58.6111 22.0787C58.2 21.804 57.8795 21.4135 57.6903 20.9567C57.5011 20.4999 57.4516 19.9972 57.548 19.5123C57.6445 19.0273 57.8826 18.5819 58.2322 18.2322C58.5819 17.8826 59.0273 17.6445 59.5123 17.548C59.9972 17.4516 60.4999 17.5011 60.9567 17.6903C61.4135 17.8795 61.804 18.2 62.0787 18.6111C62.3534 19.0222 62.5 19.5055 62.5 20C62.5 20.663 62.2366 21.2989 61.7678 21.7678C61.2989 22.2366 60.663 22.5 60 22.5Z" fill="white"/>
</svg>
