<svg width="80" height="80" viewBox="0 0 80 80" fill="none" xmlns="http://www.w3.org/2000/svg">
<g clip-path="url(#clip0_2305_18486)">
<path d="M40.5117 29.9399C44.8805 29.9399 48.4227 33.4813 48.4229 37.8501C48.4229 42.219 44.8804 45.7612 40.5117 45.7612C36.143 45.7611 32.6016 42.2187 32.6016 37.8501C32.6017 33.4814 36.1432 29.9401 40.5117 29.9399ZM40.5117 33.3257C38.0131 33.3259 35.9874 35.3514 35.9873 37.8501C35.9873 40.3488 38.013 42.3743 40.5117 42.3745C43.0106 42.3745 45.0361 40.349 45.0361 37.8501C45.0361 35.3513 43.0105 33.3257 40.5117 33.3257Z" fill="white" stroke="#9F0033" stroke-width="0.5"/>
<path d="M14.4453 6.85693C15.9779 5.55996 17.9918 4.9788 19.9795 5.26123V5.26221L19.9873 5.26318L73.0283 11.2847V11.2856C77.1703 11.7773 80.1472 15.5081 79.707 19.6558L75.2383 59.0972C75.0105 61.0748 74.0351 62.8895 72.5137 64.1733C71.4362 64.9178 70.2168 65.4316 68.9307 65.6802L68.7275 65.7202V67.48C68.7275 71.5931 64.9783 74.808 60.8174 74.8081H7.47949C7.38467 74.8094 7.28982 74.8087 7.19531 74.8062C3.25701 74.7021 0.148912 71.4249 0.25293 67.4868V27.7466C0.253161 23.5853 3.37079 19.9341 7.4834 19.9341H10.7158L10.7432 19.7144L11.7148 11.7476V11.7446C11.9077 9.93609 12.7833 8.27358 14.1553 7.09326L14.4365 6.86377L14.4453 6.85693ZM25.1348 49.3208C23.3789 47.6853 20.6979 47.5562 18.7939 49.0181L3.74023 60.0903L3.63867 60.1646V67.48C3.63332 67.5821 3.63171 67.6845 3.63477 67.7866C3.69386 69.7906 5.31578 71.3803 7.29785 71.4224H60.8174C61.9438 71.4223 63.0681 71.0129 63.9141 70.3208C64.7001 69.6777 65.2554 68.7803 65.332 67.73H65.3418V48.2007L64.9668 48.4175L45.8291 59.4917L45.8252 59.4946C44.458 60.3165 42.889 60.7397 41.2939 60.7202C39.2522 60.6886 37.2836 59.956 35.7197 58.6431H35.7188L25.1348 49.3208ZM19.6475 8.5542C18.5575 8.46294 17.4699 8.75263 16.5703 9.37451L16.5586 9.38232L16.5479 9.39209C15.7513 10.0842 15.21 11.0231 15.0098 12.0591L15.0078 12.0679L15.0068 12.0776L14.1318 19.6548L14.1006 19.9341H60.8115L61.2119 19.9526C65.32 20.2466 68.5832 23.5965 68.7275 27.7554V62.0405H69.2275C69.2275 62.0767 69.2169 62.1048 69.208 62.1216C69.2039 62.1293 69.1999 62.1348 69.1973 62.1382C69.1946 62.1416 69.1925 62.144 69.1924 62.144C69.1924 62.144 69.194 62.143 69.1963 62.1411C69.1987 62.1391 69.2014 62.1356 69.2061 62.1323C69.2157 62.1254 69.229 62.117 69.2461 62.1069C69.3202 62.0635 69.4274 62.0149 69.5664 61.9517C69.8181 61.8373 70.1723 61.6766 70.4053 61.4497C71.2557 60.7764 71.751 59.7526 71.752 58.6685L76.3174 19.2271C76.3191 19.2123 76.3215 19.1913 76.3223 19.1841V19.1831C76.5382 16.9091 74.8693 14.8902 72.5957 14.6743H72.5947L19.6553 8.55518V8.5542H19.6475ZM65.3418 27.7388L65.3408 27.731C65.1903 25.398 63.3584 23.539 61.0518 23.3345L60.8271 23.3198H7.4834C5.16222 23.3198 3.63888 25.5224 3.63867 27.7466V55.9253L4.03516 55.6362L16.8594 46.3101L16.8613 46.3091C20.0107 43.975 24.356 44.1299 27.3301 46.6831V46.6841L38.0166 56.1069V56.1079L38.0195 56.1108C39.7123 57.5479 42.1307 57.7523 44.041 56.6206L44.04 56.6196L65.2178 44.2837L65.3418 44.2114V27.7388Z" fill="#DFB48F" stroke="#9F0033" stroke-width="0.5"/>
</g>
<defs>
<clipPath id="clip0_2305_18486">
<rect width="80" height="80" fill="white"/>
</clipPath>
</defs>
</svg>
