<svg width="80" height="80" viewBox="0 0 80 80" fill="none" xmlns="http://www.w3.org/2000/svg">
<path d="M40.0618 17.2434C28.739 17.2434 19.4883 26.4941 19.4883 37.817C19.4883 43.7374 22.0785 49.4358 26.4448 53.2841C29.701 56.5404 29.405 63.4969 29.331 63.5709C29.331 63.9409 29.405 64.2369 29.701 64.533C29.9231 64.755 30.2931 64.903 30.5891 64.903H49.4605C49.8306 64.903 50.1266 64.755 50.3486 64.533C50.5706 64.3109 50.7186 63.9409 50.7186 63.5709C50.7186 63.4969 50.3486 56.5404 53.6048 53.2841C53.6788 53.2101 53.7528 53.1361 53.8269 53.0621C58.1192 49.1398 60.6354 43.5894 60.6354 37.817C60.6354 26.4941 51.3847 17.2434 40.0618 17.2434ZM51.9027 51.36C51.8287 51.434 51.6807 51.582 51.6807 51.656C48.7945 54.7642 48.2764 59.8706 48.2024 62.3128H31.8472C31.7732 59.8706 31.2552 54.5422 28.1469 51.36C24.2246 47.9557 21.9305 42.9973 21.9305 37.7429C21.9305 27.7522 29.9971 19.6856 39.9878 19.6856C49.9786 19.6856 58.0452 27.7522 58.0452 37.7429C58.0452 42.9973 55.825 47.9557 51.9027 51.36Z" fill="#DFB48F"/>
<path d="M39.9866 22.4978C39.3206 22.4978 38.7285 23.0898 38.7285 23.7559C38.7285 24.4219 39.3206 25.014 39.9866 25.014C47.4612 25.014 53.4556 31.0824 53.4556 38.483C53.4556 39.1491 54.0477 39.7411 54.7137 39.7411C55.3798 39.7411 55.9718 39.1491 55.9718 38.483C56.0458 29.6763 48.8673 22.4978 39.9866 22.4978Z" fill="white"/>
<path d="M48.2015 66.3091H31.7723C30.0702 66.3091 28.6641 67.7152 28.6641 69.4173C28.6641 71.1194 30.0702 72.5255 31.7723 72.5255H48.1275C49.9037 72.4515 51.3098 71.1194 51.3098 69.4173C51.3098 67.7152 49.9037 66.3091 48.2015 66.3091ZM48.2015 69.9354H31.7723C31.4763 69.9354 31.1803 69.7133 31.1803 69.3433C31.1803 68.9733 31.4023 68.7513 31.7723 68.7513H48.1275C48.4235 68.7513 48.7196 68.9733 48.7196 69.3433C48.7196 69.7133 48.4975 69.9354 48.2015 69.9354Z" fill="#DFB48F"/>
<path d="M45.7586 73.7834H34.2137C32.5116 73.7834 31.1055 75.1896 31.1055 76.8917C31.1055 78.5938 32.5116 79.9999 34.2137 79.9999H45.7586C47.4607 79.9999 48.8668 78.5938 48.8668 76.8917C48.8668 75.1156 47.4607 73.7834 45.7586 73.7834ZM45.7586 77.4097H34.2137C33.9177 77.4097 33.6217 77.1877 33.6217 76.8177C33.6217 76.4477 33.8437 76.2256 34.2137 76.2256H45.7586C46.0546 76.2256 46.3506 76.4477 46.3506 76.8177C46.3506 77.1877 46.0546 77.4097 45.7586 77.4097Z" fill="white"/>
<path d="M39.9866 11.1008C40.7267 11.1008 41.2447 10.5088 41.2447 9.84274V1.25809C41.2447 0.592044 40.6527 0 39.9866 0C39.3206 0 38.7285 0.592044 38.7285 1.25809V9.84274C38.7285 10.5088 39.3206 11.1008 39.9866 11.1008Z" fill="#DFB48F"/>
<path d="M60.931 6.36454C60.339 5.92051 59.5989 6.14253 59.2289 6.66056L54.4926 13.7651C54.0485 14.3571 54.1965 15.1712 54.7886 15.5412C55.0106 15.6892 55.2326 15.7632 55.4546 15.7632C55.8987 15.7632 56.2687 15.5412 56.4907 15.1712L61.2271 8.06667C61.6711 7.54863 61.5231 6.73457 60.931 6.36454Z" fill="#DFB48F"/>
<path d="M24.9646 15.4672C25.1866 15.4672 25.4087 15.3932 25.6307 15.2452C26.2227 14.8752 26.3707 14.0611 26.0007 13.4691L21.4124 6.29051C21.0423 5.69847 20.2283 5.55046 19.6362 5.92049C19.0442 6.29051 18.8962 7.10457 19.2662 7.69662L23.8545 14.8752C24.1506 15.3192 24.5206 15.4672 24.9646 15.4672Z" fill="#DFB48F"/>
<path d="M16.0092 23.3117L8.53468 19.2414C7.94264 18.9454 7.12857 19.1674 6.83255 19.7594C6.46252 20.3515 6.68454 21.1655 7.35059 21.4616L14.8252 25.5319C15.0472 25.6059 15.1952 25.6799 15.4172 25.6799C15.8612 25.6799 16.3053 25.4579 16.5273 25.0138C16.8233 24.4218 16.6013 23.6077 16.0092 23.3117Z" fill="#DFB48F"/>
<path d="M73.2157 19.7594C72.9197 19.1674 72.1056 18.9454 71.5136 19.2414L63.965 23.3117C63.373 23.6077 63.1509 24.4218 63.447 25.0138C63.669 25.4579 64.113 25.6799 64.557 25.6799C64.7791 25.6799 65.0011 25.6059 65.1491 25.5319L72.6976 21.4616C73.2897 21.1655 73.5117 20.3515 73.2157 19.7594Z" fill="#DFB48F"/>
</svg>
