<svg width="80" height="80" viewBox="0 0 80 80" fill="none" xmlns="http://www.w3.org/2000/svg">
<g clip-path="url(#clip0_2305_16335)">
<path d="M41.0602 49.5636C40.7613 48.9336 40.0077 48.6648 39.3775 48.9641C38.3522 49.4506 37.2772 49.8528 36.1825 50.1591C35.7245 50.2872 35.3775 50.6614 35.2844 51.1278L33.9481 57.8088C33.8163 58.4684 33.2322 58.9473 32.5594 58.9473H28.9142C28.2414 58.9473 27.6575 58.4686 27.5255 57.8088L26.1892 51.1278C26.0959 50.6614 25.7488 50.2872 25.2911 50.1591C23.7445 49.7263 22.252 49.1078 20.855 48.3209C20.4405 48.0875 19.93 48.1067 19.5344 48.3705L13.8647 52.1502C13.305 52.5233 12.5534 52.4487 12.0775 51.9731L9.5 49.3955C9.02422 48.9197 8.95 48.1681 9.32297 47.6083L13.1027 41.9386C13.3666 41.5428 13.3858 41.0325 13.1522 40.618C12.3652 39.2208 11.7467 37.7281 11.3141 36.1819C11.1859 35.7239 10.8117 35.3769 10.3453 35.2837L3.66437 33.9475C3.00469 33.8156 2.52578 33.2316 2.52578 32.5588V28.9136C2.52578 28.2408 3.00453 27.6569 3.66437 27.5248L10.3453 26.1886C10.8117 26.0953 11.1859 25.7481 11.3141 25.2905C11.7469 23.7439 12.3653 22.2514 13.1522 20.8544C13.3856 20.44 13.3664 19.9295 13.1027 19.5337L9.32328 13.8647C8.95016 13.3048 9.02453 12.5534 9.50031 12.0775L12.0778 9.5C12.5536 9.02422 13.3053 8.95 13.865 9.32297L19.5347 13.1027C19.9303 13.3666 20.4409 13.3856 20.8553 13.1522C22.2523 12.3653 23.7448 11.7469 25.2914 11.3141C25.7494 11.1859 26.0964 10.8117 26.1895 10.3453L27.5258 3.66437C27.6577 3.00469 28.2417 2.52578 28.9145 2.52578H32.5597C33.2325 2.52578 33.8164 3.00453 33.9484 3.66437L35.2847 10.3453C35.378 10.8117 35.7252 11.1859 36.1828 11.3141C37.7294 11.7469 39.2219 12.3653 40.6189 13.1522C41.0334 13.3856 41.5439 13.3664 41.9395 13.1027L47.6092 9.32297C48.1689 8.94984 48.9203 9.02437 49.3964 9.5L51.9739 12.0775C52.4497 12.5533 52.5239 13.3048 52.1509 13.8647L48.3712 19.5344C48.1073 19.9302 48.0881 20.4405 48.3217 20.855C49.1086 22.252 49.727 23.7445 50.1598 25.2911C50.288 25.7491 50.6622 26.0961 51.1286 26.1892L57.8095 27.5255C58.4692 27.6573 58.9481 28.2414 58.9481 28.9142V32.5594C58.9481 33.2322 58.4694 33.8161 57.8095 33.9481L51.1286 35.2844C50.6622 35.3777 50.288 35.7248 50.1598 36.1828C49.8459 37.3047 49.4317 38.4052 48.9286 39.4537C48.6267 40.0827 48.892 40.8372 49.5209 41.1389C50.1498 41.4409 50.9045 41.1755 51.2061 40.5466C51.6602 39.6002 52.05 38.6162 52.3689 37.6127L58.305 36.4255C60.1408 36.058 61.4736 34.432 61.4736 32.5592V28.9141C61.4736 27.0413 60.1408 25.4155 58.3042 25.048L52.3683 23.8608C51.9789 22.6352 51.4855 21.4436 50.8942 20.3031L54.2523 15.2658C55.2911 13.7075 55.0841 11.6153 53.7597 10.2909L51.1822 7.71344C49.8577 6.38906 47.7655 6.18219 46.2073 7.22078L41.17 10.5789C40.0295 9.98781 38.838 9.49422 37.6123 9.10484L36.4252 3.16891C36.0581 1.33281 34.4322 0 32.5594 0H28.9142C27.0414 0 25.4156 1.33281 25.0481 3.16938L23.8609 9.10531C22.6353 9.49469 21.4437 9.98813 20.3033 10.5794L15.2663 7.22125C13.7081 6.1825 11.6158 6.38937 10.2914 7.71391L7.71391 10.2914C6.38969 11.6158 6.1825 13.7078 7.22125 15.2663L10.5794 20.3036C9.98828 21.4441 9.49469 22.6355 9.10531 23.8613L3.16922 25.0484C1.33281 25.4156 0 27.0416 0 28.9144V32.5595C0 34.4323 1.33281 36.0581 3.16938 36.4256L9.10531 37.6128C9.49453 38.8383 9.98813 40.0298 10.5794 41.1705L7.22125 46.2078C6.1825 47.7661 6.38953 49.8583 7.71391 51.1827L10.2914 53.7602C11.6158 55.0845 13.708 55.2914 15.2663 54.2528L20.3036 50.8947C21.4441 51.4858 22.6355 51.9794 23.8613 52.3688L25.0484 58.305C25.4156 60.1409 27.0416 61.4739 28.9144 61.4739H32.5595C34.4323 61.4739 36.0581 60.1411 36.4256 58.3045L37.6128 52.3686C38.5861 52.0594 39.5414 51.6833 40.4609 51.2467C41.0911 50.9473 41.3595 50.1939 41.0602 49.5636Z" fill="#DFB48F"/>
<path d="M41.6789 37.7556C41.8633 37.8503 42.0602 37.8951 42.2542 37.8951C42.713 37.8951 43.1556 37.6443 43.3792 37.2081C44.398 35.2214 44.9366 32.9837 44.9366 30.737C44.9366 22.9078 38.567 16.5381 30.7377 16.5381C27.013 16.5381 23.4933 17.9696 20.8267 20.5695C20.3272 21.0564 20.317 21.8562 20.8039 22.3556C21.2908 22.855 22.0905 22.8654 22.59 22.3784C24.782 20.2415 27.6755 19.0645 30.7373 19.0645C37.1736 19.0645 42.41 24.3007 42.41 30.7371C42.41 32.6112 41.9797 34.4006 41.1311 36.0556C40.813 36.6759 41.0581 37.4371 41.6789 37.7556Z" fill="#DFB48F"/>
<path d="M18.9137 25.332C18.2539 25.105 17.5355 25.4558 17.3084 26.1155C16.798 27.5995 16.5391 29.1545 16.5391 30.7369C16.5391 38.5663 22.9088 44.9358 30.738 44.9358C33.7491 44.9358 36.6259 44.0052 39.0578 42.2441C39.6228 41.8348 39.7492 41.045 39.3402 40.48C38.9311 39.915 38.1411 39.7886 37.5761 40.1977C35.578 41.6444 33.2134 42.4092 30.7378 42.4092C24.3014 42.4092 19.0652 37.1728 19.0652 30.7366C19.0652 29.4344 19.2777 28.1558 19.697 26.9369C19.9239 26.2773 19.5733 25.5588 18.9137 25.332Z" fill="#DFB48F"/>
<path d="M77.5687 55.2057L73.916 54.4752C73.6935 53.8132 73.4255 53.1667 73.1149 52.5419L75.1815 49.4422C75.9782 48.2469 75.8195 46.6422 74.8037 45.6266L73.1099 43.9328C72.0941 42.9172 70.4895 42.7583 69.2943 43.555L66.1946 45.6216C65.5698 45.311 64.9234 45.043 64.2613 44.8207L63.5309 41.168C63.2491 39.7594 62.0021 38.7371 60.5657 38.7371H58.1702C56.734 38.7371 55.4868 39.7594 55.2051 41.168L54.4746 44.8207C53.8126 45.0432 53.1662 45.3111 52.5413 45.6216L49.4416 43.555C48.2463 42.7585 46.6416 42.9171 45.626 43.9328L43.9323 45.6266C42.9165 46.6424 42.7577 48.2471 43.5545 49.4422L45.621 52.5419C45.1938 53.401 44.8477 54.3007 44.589 55.2258C44.401 55.8977 44.7934 56.5946 45.4651 56.7827C46.137 56.9707 46.8338 56.5785 47.022 55.9066C47.297 54.9235 47.6901 53.975 48.1901 53.0874C48.4235 52.6728 48.4043 52.1624 48.1405 51.7667L45.6566 48.041C45.5255 47.8442 45.5516 47.5802 45.7188 47.413L47.4126 45.7192C47.5798 45.5522 47.8438 45.5263 48.0405 45.6571L51.7663 48.141C52.162 48.4049 52.6724 48.4239 53.087 48.1905C53.9748 47.6905 54.923 47.2974 55.9062 47.0224C56.3641 46.8942 56.7112 46.52 56.8043 46.0536L57.6823 41.6635C57.7285 41.4317 57.9338 41.2635 58.1702 41.2635H60.5657C60.802 41.2635 61.0073 41.4317 61.0537 41.6635L61.9316 46.0539C62.0249 46.5203 62.3721 46.8946 62.8298 47.0227C63.8129 47.2977 64.7613 47.6908 65.649 48.1908C66.0634 48.4242 66.574 48.405 66.9696 48.1413L70.6954 45.6574C70.8921 45.5263 71.1562 45.5522 71.3234 45.7196L73.0171 47.4133C73.1841 47.5805 73.2102 47.8446 73.0793 48.0413L70.5954 51.7671C70.3315 52.1628 70.3123 52.6732 70.5459 53.0877C71.0459 53.9755 71.439 54.9238 71.714 55.9069C71.8421 56.3649 72.2163 56.7119 72.6827 56.805L77.0729 57.683C77.3046 57.7292 77.4729 57.9346 77.4729 58.171V60.5664C77.4729 60.8027 77.3046 61.008 77.0729 61.0544L72.6824 61.9324C72.216 62.0257 71.8418 62.3728 71.7137 62.8305C71.4387 63.8136 71.0455 64.7621 70.5455 65.6497C70.3121 66.0642 70.3313 66.5747 70.5951 66.9703L73.079 70.6961C73.2101 70.8928 73.184 71.1569 73.0168 71.3241L71.323 73.0178C71.156 73.185 70.892 73.211 70.6951 73.08L66.9693 70.5961C66.5737 70.3324 66.063 70.3132 65.6487 70.5466C64.7609 71.0466 63.8126 71.4397 62.8295 71.7147C62.3715 71.8428 62.0245 72.2171 61.9313 72.6835L61.0534 77.0736C61.0071 77.3053 60.8018 77.4736 60.5654 77.4736H58.1699C57.9337 77.4736 57.7284 77.3053 57.682 77.0736L56.804 72.6832C56.7107 72.2167 56.3635 71.8425 55.9059 71.7144C54.9227 71.4394 53.9743 71.0463 53.0866 70.5463C52.6721 70.3128 52.1615 70.3321 51.766 70.5958L48.0402 73.0797C47.8435 73.2108 47.5795 73.1849 47.4123 73.0175L45.7185 71.3238C45.5515 71.1566 45.5254 70.8925 45.6563 70.6958L48.1402 66.97C48.4041 66.5742 48.4234 66.0639 48.1898 65.6494C47.6898 64.7616 47.2966 63.8133 47.0216 62.8302C46.8935 62.3722 46.5193 62.0252 46.0529 61.9321L41.6627 61.0541C41.431 61.0078 41.2627 60.8025 41.2627 60.5661V58.1707C41.2627 57.9344 41.431 57.7291 41.6627 57.6827L41.9315 57.6289C42.6156 57.4921 43.0593 56.8266 42.9223 56.1425C42.7854 55.4585 42.1207 55.0155 41.4357 55.1517L41.167 55.2055C39.7587 55.4874 38.7363 56.7344 38.7363 58.1708V60.5663C38.7363 62.0025 39.7587 63.2497 41.1673 63.5314L44.8199 64.2619C45.0424 64.9239 45.3104 65.5703 45.6209 66.1952L43.5543 69.2949C42.7574 70.4902 42.9163 72.0949 43.9321 73.1105L45.6259 74.8042C46.6416 75.82 48.2463 75.9788 49.4415 75.1821L52.5412 73.1155C53.166 73.4261 53.8124 73.6941 54.4745 73.9164L55.2049 77.5691C55.487 78.9777 56.734 80 58.1704 80H60.5659C62.0021 80 63.2493 78.9777 63.531 77.5691L64.2615 73.9164C64.9235 73.6939 65.5699 73.426 66.1948 73.1153L69.2945 75.1819C70.4898 75.9786 72.0945 75.8199 73.1101 74.8041L74.8038 73.1103C75.8196 72.0946 75.9784 70.4899 75.1816 69.2947L73.1151 66.195C73.4257 65.5702 73.6937 64.9238 73.916 64.2617L77.5687 63.5313C78.9771 63.2496 79.9995 62.0025 79.9995 60.5661V58.1707C79.9996 56.7344 78.9773 55.4874 77.5687 55.2057Z" fill="#DFB48F"/>
<path d="M59.3688 54.8211C61.8763 54.8211 63.9162 56.8609 63.9162 59.3684C63.9162 60.0661 64.4818 60.6316 65.1793 60.6316C65.8768 60.6316 66.4424 60.0659 66.4424 59.3684C66.4424 55.468 63.2691 52.2947 59.3687 52.2947C55.4682 52.2947 52.2949 55.468 52.2949 59.3684C52.2949 63.2689 55.4682 66.4422 59.3687 66.4422C60.9485 66.4422 62.4429 65.9326 63.6904 64.9689C64.2424 64.5423 64.3441 63.7491 63.9177 63.1969C63.4912 62.6448 62.6977 62.543 62.1457 62.9695C61.3445 63.5884 60.3841 63.9158 59.3687 63.9158C56.8612 63.9158 54.8213 61.8759 54.8213 59.3684C54.8215 56.8608 56.8613 54.8211 59.3688 54.8211Z" fill="white"/>
<path d="M38.4326 30.7368C38.4326 26.4934 34.9801 23.041 30.7368 23.041C26.4934 23.041 23.041 26.4935 23.041 30.7368C23.041 34.9802 26.4934 38.4326 30.7368 38.4326C34.9802 38.4326 38.4326 34.9801 38.4326 30.7368ZM25.5673 30.7368C25.5673 27.8865 27.8865 25.5673 30.7368 25.5673C33.5871 25.5673 35.9063 27.8865 35.9063 30.7368C35.9063 33.5871 33.5873 35.9063 30.7368 35.9063C27.8862 35.9063 25.5673 33.5871 25.5673 30.7368Z" fill="white"/>
</g>
<defs>
<clipPath id="clip0_2305_16335">
<rect width="80" height="80" fill="white"/>
</clipPath>
</defs>
</svg>
