<svg width="80" height="80" viewBox="0 0 80 80" fill="none" xmlns="http://www.w3.org/2000/svg">
<path d="M78.0805 58.8083C77.0062 56.9478 74.6186 56.3083 72.758 57.3822L56.743 66.6281L43.4344 61.9903C43.5972 61.8022 43.7502 61.6055 43.8903 61.3992L52.1769 60.1914C54.5066 59.852 56.1338 58.1647 56.1338 56.0881C56.1338 53.8194 54.288 51.9736 52.0192 51.9736H41.1205C40.352 51.6441 39.5064 51.4609 38.6186 51.4609C37.6625 51.4609 36.7558 51.6741 35.9411 52.0531L35.9406 52.0522L20.2848 58.3267H12.7155V55.6078C12.7155 55.0038 12.2258 54.5141 11.6217 54.5141H2.5C1.89594 54.5141 1.40625 55.0038 1.40625 55.6078V77.5C1.40625 78.1041 1.89594 78.5938 2.5 78.5938H11.6217C12.2258 78.5938 12.7155 78.1041 12.7155 77.5V74.7966C16.1322 74.8864 20.4698 75.3644 25.0392 75.8689C31.197 76.5489 38.1505 77.3167 44.4773 77.3166C44.6844 77.3166 44.8906 77.3158 45.0962 77.3141C52.6895 77.2522 58.1105 76.0258 61.6673 73.5648L76.6902 64.1091C78.5205 62.957 79.1312 60.6286 78.0805 58.8083ZM57.2172 70.713L58.433 72.8875C57.8031 73.1775 57.1345 73.4347 56.4302 73.6609L57.2172 70.713ZM53.9463 56.0881C53.9463 57.2175 52.8992 57.8755 51.8614 58.0267L44.8697 59.0458C44.9462 58.6519 44.9875 58.2455 44.9875 57.8295C44.9875 56.4642 44.5542 55.1989 43.8198 54.1609H52.0192C53.0817 54.1611 53.9463 55.0256 53.9463 56.0881ZM42.8 57.8297C42.8 60.1353 40.9244 62.0111 38.6188 62.0111C36.3131 62.0111 34.4373 60.1353 34.4373 57.8297C34.4373 55.5241 36.3131 53.6484 38.6188 53.6484C40.9244 53.6484 42.8 55.5241 42.8 57.8297ZM20.3297 66.5539C20.3297 69.8842 17.6203 72.5936 14.29 72.5936C10.9597 72.5936 8.25031 69.8842 8.25031 66.5539C8.25031 63.2236 10.9597 60.5142 14.29 60.5142C17.6203 60.5142 20.3297 63.2236 20.3297 66.5539ZM3.59375 76.4062V56.7016H10.528V59.2411C7.87906 60.6094 6.06297 63.3727 6.06297 66.5539C6.06297 69.7352 7.87922 72.4984 10.528 73.8669V76.4062H3.59375ZM25.2792 73.6947C23.2256 73.468 21.2195 73.2469 19.3138 73.0625C21.2603 71.5566 22.5172 69.1998 22.5172 66.5539C22.5172 64.1688 21.4959 62.0183 19.8689 60.5142H20.4961C20.6355 60.5142 20.7736 60.4875 20.903 60.4358L32.6012 55.7473C32.3745 56.4005 32.2497 57.1006 32.2497 57.8298C32.2497 61.3417 35.1067 64.1988 38.6186 64.1988C39.5964 64.1988 40.5231 63.9767 41.3519 63.5813L55.5373 68.5247L53.9959 74.2978C45.9808 75.9798 34.7492 74.7403 25.2792 73.6947ZM75.5248 62.258L60.4817 71.7266C60.4678 71.7353 60.4539 71.7445 60.4403 71.7539C60.4081 71.7763 60.3745 71.7975 60.3422 71.8195L58.3373 68.2337L73.8517 59.2766C74.6677 58.8053 75.715 59.0859 76.1861 59.902C76.6466 60.6997 76.3561 61.7347 75.5248 62.258ZM37.1828 57.8298C37.1828 57.0389 37.8278 56.3939 38.6188 56.3939C39.4097 56.3939 40.0545 57.0389 40.0545 57.8298C40.0545 58.6208 39.4095 59.2658 38.6188 59.2658C37.8278 59.2656 37.1828 58.6206 37.1828 57.8298ZM12.8542 66.5539C12.8542 65.763 13.4992 65.118 14.2902 65.118C15.0809 65.118 15.7261 65.763 15.7261 66.5539C15.7261 67.3448 15.0811 67.9898 14.2902 67.9898C13.4992 67.9898 12.8542 67.3448 12.8542 66.5539Z" fill="#DFB48F"/>
<path d="M25.1147 36.8131C24.8247 36.8131 24.5464 36.9283 24.3413 37.1334L18.3248 43.1498C17.7045 42.7908 16.9855 42.5841 16.2188 42.5841C13.8925 42.5841 12 44.4766 12 46.8028C12 49.1291 13.8925 51.0216 16.2188 51.0216C18.545 51.0216 20.4375 49.1291 20.4375 46.8028C20.4375 46.0359 20.2308 45.3169 19.8717 44.6966L25.5678 39.0005H36.972C37.0464 39.4228 37.2448 39.8272 37.5705 40.1528L39.8745 42.4569C40.2833 42.8656 40.8267 43.0908 41.4047 43.0908C41.9827 43.0908 42.5263 42.8656 42.9348 42.4569C43.81 41.5816 44.9228 41.6019 45.6725 41.9123C46.4222 42.2228 47.2233 42.9956 47.2233 44.2331C47.2233 45.4264 48.1941 46.3972 49.3872 46.3972H52.6456C53.8387 46.3972 54.8095 45.4264 54.8095 44.2331C54.8095 42.9978 55.6111 42.2256 56.3614 41.915C57.1117 41.6042 58.2245 41.5833 59.098 42.4569C59.5067 42.8656 60.0502 43.0908 60.6283 43.0908C61.2064 43.0908 61.7498 42.8656 62.1584 42.4569L64.4625 40.1528C64.8713 39.7441 65.0962 39.2006 65.0962 38.6227C65.0962 38.0445 64.8713 37.5011 64.4625 37.0925C63.5891 36.2191 63.6098 35.1061 63.9206 34.3559C64.2314 33.6058 65.0036 32.8041 66.2389 32.8041C67.432 32.8041 68.4028 31.8333 68.4028 30.64V27.3816C68.4028 26.1884 67.432 25.2177 66.2389 25.2177C65.0036 25.2177 64.2314 24.4161 63.9206 23.6658C63.6098 22.9156 63.5891 21.8027 64.4625 20.9292C64.8713 20.5205 65.0962 19.977 65.0962 19.3991C65.0962 18.8209 64.8713 18.2773 64.4625 17.8689L62.1584 15.5647C61.7497 15.1559 61.2062 14.9309 60.6283 14.9309C60.0503 14.9309 59.5067 15.1559 59.0981 15.5647C58.2247 16.4381 57.1119 16.4175 56.3616 16.1066C55.6113 15.7958 54.8097 15.0236 54.8097 13.7883C54.8097 12.595 53.8389 11.6242 52.6458 11.6242H49.3873C48.1942 11.6242 47.2234 12.595 47.2234 13.7883C47.2234 15.0236 46.4219 15.7958 45.6716 16.1066C44.9214 16.4172 43.8084 16.4381 42.9348 15.5645C42.0911 14.7209 40.7181 14.7209 39.8745 15.5645L37.5705 17.8686C37.2523 18.1866 37.0472 18.5867 36.9711 19.0209H25.5677L19.8717 13.325C20.2308 12.7047 20.4375 11.9856 20.4375 11.2188C20.4375 8.8925 18.545 7 16.2188 7C13.8925 7 12 8.8925 12 11.2188C12 13.545 13.8925 15.4375 16.2188 15.4375C16.9855 15.4375 17.7045 15.2308 18.3248 14.8719L24.3413 20.8883C24.5463 21.0934 24.8245 21.2086 25.1147 21.2086H37.8117C38.4342 22.0302 38.3908 22.9934 38.1122 23.6659C37.8014 24.4162 37.0292 25.2178 35.7939 25.2178C34.6008 25.2178 33.63 26.1886 33.63 27.3817V27.9172H25.0016C24.5184 26.1197 22.8755 24.7922 20.9275 24.7922C18.6012 24.7922 16.7087 26.6847 16.7087 29.0109C16.7087 31.3372 18.6012 33.2297 20.9275 33.2297C22.8755 33.2297 24.5184 31.9022 25.0016 30.1047H33.63V30.6402C33.63 31.8334 34.6008 32.8042 35.7939 32.8042C37.0292 32.8042 37.8014 33.6058 38.1122 34.3561C38.3906 35.0284 38.4341 35.9917 37.8117 36.8133L25.1147 36.8131ZM16.2188 48.8342C15.0987 48.8342 14.1875 47.923 14.1875 46.803C14.1875 45.683 15.0987 44.7717 16.2188 44.7717C17.3388 44.7717 18.25 45.683 18.25 46.803C18.2498 47.923 17.3388 48.8342 16.2188 48.8342ZM16.2188 13.25C15.0987 13.25 14.1875 12.3388 14.1875 11.2188C14.1875 10.0987 15.0987 9.1875 16.2188 9.1875C17.3388 9.1875 18.25 10.0987 18.25 11.2188C18.25 12.3388 17.3388 13.25 16.2188 13.25ZM20.9275 31.0422C19.8075 31.0422 18.8962 30.1309 18.8962 29.0109C18.8962 27.8909 19.8075 26.9797 20.9275 26.9797C22.0475 26.9797 22.9587 27.8909 22.9587 29.0109C22.9587 30.1309 22.0475 31.0422 20.9275 31.0422ZM35.8175 30.6167V27.4052C37.7423 27.3961 39.3947 26.2858 40.1333 24.503C40.8719 22.72 40.4884 20.7666 39.1337 19.3991L41.4048 17.128C42.7723 18.4828 44.7258 18.8659 46.5088 18.1275C48.2917 17.3889 49.402 15.7367 49.4109 13.8117H52.6223C52.6313 15.7367 53.7416 17.3891 55.5245 18.1275C57.3073 18.8659 59.2609 18.4828 60.6284 17.128L62.8995 19.3991C61.5447 20.7666 61.1614 22.7198 61.9 24.503C62.6384 26.2859 64.2908 27.3963 66.2156 27.4052V30.6167C64.2908 30.6258 62.6384 31.7361 61.9 33.5189C61.1614 35.3019 61.5447 37.2552 62.8995 38.6228L60.6286 40.8939C59.2611 39.5391 57.3077 39.1558 55.5245 39.8944C53.7416 40.633 52.6313 42.285 52.6223 44.2102H49.4109C49.402 42.2833 48.2922 40.6302 46.5098 39.8919C44.7275 39.1536 42.7736 39.5378 41.4048 40.8941L39.1337 38.623C40.4886 37.2555 40.8719 35.302 40.1333 33.5191C39.3948 31.7361 37.7425 30.6258 35.8175 30.6167ZM51.0164 38.0667C56.0098 38.0667 60.0722 34.0044 60.0722 29.0109C60.0722 24.0175 56.0097 19.9552 51.0164 19.9552C46.0231 19.9552 41.9606 24.0175 41.9606 29.0109C41.9606 34.0044 46.0231 38.0667 51.0164 38.0667ZM51.0164 22.1428C54.8036 22.1428 57.8847 25.2239 57.8847 29.0111C57.8847 32.7983 54.8036 35.8794 51.0164 35.8794C47.2292 35.8794 44.1481 32.7983 44.1481 29.0111C44.1481 25.2239 47.2294 22.1428 51.0164 22.1428Z" fill="white"/>
</svg>
