<svg width="80" height="80" viewBox="0 0 80 80" fill="none" xmlns="http://www.w3.org/2000/svg">
<g clip-path="url(#clip0_2305_17851)">
<path d="M9.15271 62.8791C9.89288 62.8791 10.4929 62.2791 10.4929 61.5389C10.4929 60.7988 9.89288 60.1987 9.15271 60.1987C8.41253 60.1987 7.8125 60.7988 7.8125 61.5389C7.8125 62.2791 8.41253 62.8791 9.15271 62.8791Z" fill="white"/>
<path d="M68.1215 18.4889C68.8623 18.4889 69.4617 17.8888 69.4617 17.1487V15.2523C69.4617 14.5122 68.8623 13.9121 68.1215 13.9121C67.3807 13.9121 66.7812 14.5122 66.7812 15.2523V17.1487C66.7812 17.8888 67.3807 18.4889 68.1215 18.4889Z" fill="white"/>
<path d="M68.1215 26.0734C68.8623 26.0734 69.4617 25.4733 69.4617 24.7332V22.8368C69.4617 22.0967 68.8623 21.4966 68.1215 21.4966C67.3807 21.4966 66.7812 22.0967 66.7812 22.8368V24.7332C66.7812 25.4733 67.3807 26.0734 68.1215 26.0734Z" fill="white"/>
<path d="M63.3793 21.3328H65.2757C66.0165 21.3328 66.6159 20.7327 66.6159 19.9926C66.6159 19.2524 66.0165 18.6523 65.2757 18.6523H63.3793C62.6385 18.6523 62.0391 19.2524 62.0391 19.9926C62.0391 20.7327 62.6385 21.3328 63.3793 21.3328Z" fill="white"/>
<path d="M70.9652 21.3328H72.8616C73.6024 21.3328 74.2018 20.7327 74.2018 19.9926C74.2018 19.2524 73.6024 18.6523 72.8616 18.6523H70.9652C70.2244 18.6523 69.625 19.2524 69.625 19.9926C69.625 20.7327 70.2244 21.3328 70.9652 21.3328Z" fill="white"/>
<path d="M78.7279 46.0107C78.4243 45.6083 77.9164 45.4112 77.4205 45.4977C77.2556 45.5272 73.24 46.1705 68.6713 42.0641C63.4073 37.3355 60.7071 35.9953 60.5959 35.9403C60.5597 35.9226 60.2511 35.7758 59.6245 35.5453C59.7173 33.0247 59.4014 30.7748 58.6432 28.8761C56.3176 23.0616 57.2061 13.783 57.366 12.3145C58.8331 9.99524 60.0792 6.7841 60.0792 2.56982C60.0792 2.06523 59.7927 1.60521 59.3424 1.3767C58.8921 1.1502 58.3503 1.19544 57.9406 1.4933C57.7402 1.64005 52.9252 5.0683 44.3643 2.62142C34.9108 -0.0797712 30.7658 -0.110596 30.5943 -0.110596C30.4227 -0.110596 26.2778 -0.0797712 16.8243 2.62142C8.26207 5.06696 3.44837 1.63972 3.25337 1.49765C2.84762 1.19343 2.30316 1.14283 1.85017 1.37067C1.39618 1.59783 1.10938 2.06155 1.10938 2.56949C1.10938 6.78377 2.35543 9.99491 3.82263 12.3141C3.98245 13.7827 4.871 23.0613 2.54541 28.8758C0.184296 34.7797 2.53871 42.3505 3.51907 45.0165C2.50219 46.008 1.10971 48.1061 1.10971 52.1572C1.10971 52.6199 1.35061 53.0484 1.74329 53.2933C2.13731 53.5386 2.62817 53.5644 3.0443 53.358C3.09523 53.3339 8.21918 50.893 17.0026 52.1434C23.2918 53.0417 27.1771 53.3433 29.1087 53.4448C28.8142 54.6768 28.6426 55.7771 28.5592 56.5155C27.5148 56.9273 26.0111 57.9442 24.7885 60.4531C24.5858 60.8679 24.6143 61.358 24.8592 61.7501C25.1038 62.1414 25.537 62.3796 25.999 62.3803C26.0383 62.3803 29.9922 62.4235 35.1279 65.9044C40.7477 69.7109 43.3708 71.0022 43.4794 71.0551C43.5893 71.1081 46.2228 72.3789 52.6816 74.4599C58.5869 76.363 61.0566 79.4498 61.0763 79.4746C61.3316 79.8077 61.7256 80 62.1404 80C62.185 80 62.2296 79.998 62.2738 79.9933C62.7358 79.9467 63.1416 79.6649 63.3443 79.2471C64.5692 76.7376 64.4436 74.9263 64.1243 73.8498C65.7302 72.2747 69.4198 68.1965 69.7481 63.7068C70.0611 59.4369 73.3432 53.9849 74.0097 52.9177C75.7084 51.8516 77.5331 50.1412 78.8679 47.4025C79.0877 46.9498 79.0301 46.4134 78.7279 46.0107ZM17.3818 49.4908C11.0212 48.5825 6.41794 49.4496 3.93922 50.1851C4.38819 47.4581 5.6892 46.6794 5.72974 46.6553C6.36467 46.338 6.64209 45.5808 6.36199 44.9284C6.32412 44.84 2.58863 35.9866 5.03484 29.8719C6.77946 25.5095 6.91683 19.6665 6.76371 15.8134C7.68511 16.6443 8.3723 17.0672 8.46109 17.1208C9.04073 17.4676 9.79091 17.3302 10.207 16.7961C10.6232 16.2627 10.5773 15.5025 10.0985 15.024L6.38276 11.3083C5.31093 9.73524 4.31214 7.60565 3.9419 4.86627C6.51879 5.9257 11.182 7.02266 17.5601 5.19797C26.5737 2.62276 30.5591 2.56915 30.5906 2.56915C30.6298 2.56915 34.6152 2.62276 43.6288 5.19797C50.0092 7.02032 54.6738 5.9257 57.2494 4.86493C56.8868 7.57885 55.9158 9.688 54.8621 11.2514L51.0901 15.024C50.611 15.5025 50.5654 16.2627 50.9815 16.7961C51.395 17.3302 52.1465 17.4676 52.7275 17.1208C52.8166 17.0672 53.5035 16.6443 54.4249 15.8134C54.2718 19.6665 54.4091 25.5095 56.1537 29.8712C56.7009 31.2406 56.9636 32.8709 56.9652 34.7087C55.4568 34.2942 53.4314 33.8181 50.7969 33.3514C44.7439 32.2802 42.7831 28.7253 42.7071 28.5846C42.4766 28.1329 42.0591 27.889 41.5016 27.8555C40.9936 27.8609 40.5329 28.152 40.3105 28.6087C38.9756 31.3454 38.7518 33.8355 38.9572 35.8301C38.5317 37.0061 36.2664 42.9506 33.0847 45.8358C31.6025 47.1803 30.6124 48.9973 29.9269 50.7982C28.4506 50.7409 24.4474 50.5003 17.3818 49.4908ZM72.2898 50.8297L68.7272 52.058C68.0873 52.2785 67.713 52.9415 67.8531 53.6036C67.9945 54.2653 68.6137 54.729 69.2811 54.6597C69.3307 54.6557 69.5954 54.6295 70.0142 54.5438C68.7604 56.9927 67.3009 60.432 67.0758 63.5111C66.7447 68.0289 61.6915 72.46 61.6402 72.5039C61.1376 72.9405 61.0643 73.7302 61.4231 74.2904C61.4452 74.3256 61.8235 74.9421 61.5802 76.2253C60.0752 74.9511 57.4668 73.1857 53.5038 71.9088C47.3224 69.9169 44.7271 68.6799 44.6551 68.6454C44.5857 68.6112 42.0139 67.3307 36.6309 63.685C33.1849 61.3493 30.1865 60.3824 28.256 59.9816C29.1134 59.0006 29.8213 58.9189 29.8253 58.9162C30.5347 58.9091 31.1146 58.3503 31.1511 57.6427C31.1538 57.5753 31.5308 50.8646 34.8863 47.8209C37.174 45.746 38.983 42.4759 40.1399 39.98C40.3296 40.3637 40.4736 40.5885 40.5011 40.6304C40.869 41.197 41.5991 41.4027 42.2129 41.1035C42.82 40.8063 43.1122 40.1023 42.8907 39.4624L41.6644 35.9065C41.5086 34.777 41.5203 33.406 41.9301 31.8775C43.4157 33.3644 46.0502 35.2334 50.3285 35.9909C56.8476 37.1445 59.4011 38.3403 59.4155 38.3467C59.4403 38.3591 61.9558 39.6339 66.8808 44.0583C70.1133 46.9619 73.2089 47.8866 75.2949 48.1399C74.3447 49.4037 73.2729 50.2564 72.2898 50.8297Z" fill="#DFB48F"/>
<path d="M19.2024 66.8997C16.6162 66.8997 14.5117 69.0041 14.5117 71.5904C14.5117 74.1767 16.6162 76.2811 19.2024 76.2811C21.7887 76.2811 23.8932 74.1767 23.8932 71.5904C23.8932 69.0041 21.7887 66.8997 19.2024 66.8997ZM19.2024 73.6007C18.0938 73.6007 17.1921 72.6991 17.1921 71.5904C17.1921 70.4817 18.0938 69.5801 19.2024 69.5801C20.3111 69.5801 21.2128 70.4817 21.2128 71.5904C21.2128 72.6991 20.3108 73.6007 19.2024 73.6007Z" fill="white"/>
<path d="M11.0178 25.4618C10.34 25.1706 9.55061 25.4872 9.26012 26.1654C9.08489 26.5745 5.0197 36.2595 9.34254 43.4658C9.59383 43.8846 10.0374 44.1161 10.4931 44.1161C10.7273 44.1161 10.9655 44.0545 11.1816 43.9252C11.8166 43.5442 12.022 42.721 11.641 42.0864C8.02746 36.0645 11.6869 27.3083 11.7248 27.2205C12.0139 26.5396 11.6983 25.7526 11.0178 25.4618Z" fill="white"/>
<path d="M64.5201 58.9271C63.8108 58.6896 63.0596 59.0732 62.8251 59.7745C62.1838 61.6956 59.7336 67.3878 56.9707 68.3086C56.2691 68.5428 55.8895 69.302 56.124 70.0043C56.3113 70.5658 56.8334 70.921 57.3949 70.921C57.535 70.921 57.6777 70.8989 57.8191 70.8516C62.345 69.3432 65.0713 61.5107 65.3668 60.6228C65.6013 59.9205 65.2217 59.1613 64.5201 58.9271Z" fill="#F5F7FA"/>
</g>
<defs>
<clipPath id="clip0_2305_17851">
<rect width="80" height="80" fill="white"/>
</clipPath>
</defs>
</svg>
