<svg width="80" height="80" viewBox="0 0 80 80" fill="none" xmlns="http://www.w3.org/2000/svg">
<path d="M73.75 1.25H6.25C4.5924 1.25 3.00269 1.90848 1.83058 3.08058C0.65848 4.25269 0 5.8424 0 7.5L0 57.5C0 59.1576 0.65848 60.7473 1.83058 61.9194C3.00269 63.0915 4.5924 63.75 6.25 63.75H31.5L26.8125 71.25H25.625C24.6304 71.25 23.6766 71.6451 22.9733 72.3484C22.2701 73.0516 21.875 74.0054 21.875 75C21.875 75.9946 22.2701 76.9484 22.9733 77.6516C23.6766 78.3549 24.6304 78.75 25.625 78.75H54.375C55.3696 78.75 56.3234 78.3549 57.0266 77.6516C57.7299 76.9484 58.125 75.9946 58.125 75C58.125 74.0054 57.7299 73.0516 57.0266 72.3484C56.3234 71.6451 55.3696 71.25 54.375 71.25H53.125L48.5 63.75H73.75C75.4076 63.75 76.9973 63.0915 78.1694 61.9194C79.3415 60.7473 80 59.1576 80 57.5V7.5C80 6.67924 79.8383 5.86651 79.5242 5.10823C79.2102 4.34994 78.7498 3.66095 78.1694 3.08058C77.5891 2.50022 76.9001 2.03984 76.1418 1.72575C75.3835 1.41166 74.5708 1.25 73.75 1.25ZM54.375 73.75C54.7065 73.75 55.0245 73.8817 55.2589 74.1161C55.4933 74.3505 55.625 74.6685 55.625 75C55.625 75.3315 55.4933 75.6495 55.2589 75.8839C55.0245 76.1183 54.7065 76.25 54.375 76.25H25.625C25.2935 76.25 24.9755 76.1183 24.7411 75.8839C24.5067 75.6495 24.375 75.3315 24.375 75C24.375 74.6685 24.5067 74.3505 24.7411 74.1161C24.9755 73.8817 25.2935 73.75 25.625 73.75H54.375ZM50.25 71.25H29.75L34.4375 63.75H45.5625L50.25 71.25ZM77.5 57.5C77.5 58.4946 77.1049 59.4484 76.4016 60.1516C75.6984 60.8549 74.7446 61.25 73.75 61.25H6.25C5.25544 61.25 4.30161 60.8549 3.59835 60.1516C2.89509 59.4484 2.5 58.4946 2.5 57.5V53.75H77.5V57.5ZM77.5 51.25H2.5V7.5C2.5 6.50544 2.89509 5.55161 3.59835 4.84835C4.30161 4.14509 5.25544 3.75 6.25 3.75H73.75C74.7446 3.75 75.6984 4.14509 76.4016 4.84835C77.1049 5.55161 77.5 6.50544 77.5 7.5V51.25Z" fill="#DFB48F"/>
<path d="M6.25 15H7.5V22.5C7.5 22.8315 7.6317 23.1495 7.86612 23.3839C8.10054 23.6183 8.41848 23.75 8.75 23.75H21.25C21.5815 23.75 21.8995 23.6183 22.1339 23.3839C22.3683 23.1495 22.5 22.8315 22.5 22.5V15H23.75C24.0815 15 24.3995 14.8683 24.6339 14.6339C24.8683 14.3995 25 14.0815 25 13.75V8.75002C25 8.4185 24.8683 8.10056 24.6339 7.86614C24.3995 7.63172 24.0815 7.50002 23.75 7.50002H17.5C17.3355 7.49907 17.1724 7.5306 17.0201 7.59281C16.8678 7.65501 16.7293 7.74667 16.6125 7.86252L15 9.48752L13.3875 7.86252C13.2707 7.74667 13.1322 7.65501 12.9799 7.59281C12.8276 7.5306 12.6645 7.49907 12.5 7.50002H6.25C5.91848 7.50002 5.60054 7.63172 5.36612 7.86614C5.1317 8.10056 5 8.4185 5 8.75002V13.75C5 14.0815 5.1317 14.3995 5.36612 14.6339C5.60054 14.8683 5.91848 15 6.25 15ZM7.5 10H11.9875L14.1125 12.1375C14.2287 12.2547 14.367 12.3477 14.5193 12.4111C14.6716 12.4746 14.835 12.5073 15 12.5073C15.165 12.5073 15.3284 12.4746 15.4807 12.4111C15.633 12.3477 15.7713 12.2547 15.8875 12.1375L18.0125 10H22.5V12.5H21.25C20.9185 12.5 20.6005 12.6317 20.3661 12.8661C20.1317 13.1006 20 13.4185 20 13.75V21.25H10V13.75C10 13.4185 9.8683 13.1006 9.63388 12.8661C9.39946 12.6317 9.08152 12.5 8.75 12.5H7.5V10Z" fill="white"/>
<path d="M23.7476 35H19.9976C19.9976 33.6739 19.4708 32.4021 18.5331 31.4645C17.5955 30.5268 16.3237 30 14.9976 30C13.6715 30 12.3998 30.5268 11.4621 31.4645C10.5244 32.4021 9.9976 33.6739 9.9976 35H6.2476C6.05486 34.9943 5.86342 35.0334 5.68826 35.114C5.5131 35.1946 5.35897 35.3147 5.23792 35.4648C5.11687 35.6149 5.03219 35.7909 4.9905 35.9792C4.94881 36.1675 4.95124 36.3628 4.9976 36.55L7.4976 46.55C7.56604 46.8273 7.72741 47.0729 7.95485 47.2457C8.18228 47.4186 8.46206 47.5083 8.7476 47.5H21.2476C21.5331 47.5083 21.8129 47.4186 22.0404 47.2457C22.2678 47.0729 22.4292 46.8273 22.4976 46.55L24.9976 36.55C25.044 36.3628 25.0464 36.1675 25.0047 35.9792C24.963 35.7909 24.8783 35.6149 24.7573 35.4648C24.6362 35.3147 24.4821 35.1946 24.3069 35.114C24.1318 35.0334 23.9403 34.9943 23.7476 35ZM14.9976 32.5C15.6606 32.5 16.2965 32.7634 16.7654 33.2322C17.2342 33.7011 17.4976 34.337 17.4976 35H12.4976C12.4976 34.337 12.761 33.7011 13.2298 33.2322C13.6987 32.7634 14.3346 32.5 14.9976 32.5ZM20.2726 45H9.7226L7.8476 37.5H22.1476L20.2726 45Z" fill="#DFB48F"/>
<path d="M58.125 10.2V7.5C58.125 7.16848 57.9933 6.85054 57.7589 6.61612C57.5245 6.3817 57.2065 6.25 56.875 6.25C56.5435 6.25 56.2255 6.3817 55.9911 6.61612C55.7567 6.85054 55.625 7.16848 55.625 7.5V10.2C54.9168 10.4147 54.2727 10.8011 53.75 11.325C53.2273 10.8011 52.5832 10.4147 51.875 10.2V7.5C51.875 7.16848 51.7433 6.85054 51.5089 6.61612C51.2745 6.3817 50.9565 6.25 50.625 6.25C50.2935 6.25 49.9755 6.3817 49.7411 6.61612C49.5067 6.85054 49.375 7.16848 49.375 7.5V10.2C48.475 10.4683 47.6852 11.0191 47.1224 11.771C46.5597 12.5229 46.2538 13.4359 46.25 14.375V22.5C46.25 22.8315 46.3817 23.1495 46.6161 23.3839C46.8505 23.6183 47.1685 23.75 47.5 23.75H60C60.3315 23.75 60.6495 23.6183 60.8839 23.3839C61.1183 23.1495 61.25 22.8315 61.25 22.5V14.375C61.2462 13.4359 60.9403 12.5229 60.3776 11.771C59.8148 11.0191 59.025 10.4683 58.125 10.2ZM52.5 21.25H48.75V14.375C48.75 13.8777 48.9475 13.4008 49.2992 13.0492C49.6508 12.6975 50.1277 12.5 50.625 12.5C51.1223 12.5 51.5992 12.6975 51.9508 13.0492C52.3025 13.4008 52.5 13.8777 52.5 14.375V21.25ZM58.75 21.25H55V14.375C55 13.8777 55.1975 13.4008 55.5492 13.0492C55.9008 12.6975 56.3777 12.5 56.875 12.5C57.3723 12.5 57.8492 12.6975 58.2008 13.0492C58.5525 13.4008 58.75 13.8777 58.75 14.375V21.25Z" fill="#DFB48F"/>
<path d="M36.25 10H28.75C28.4185 10 28.1005 10.1317 27.8661 10.3661C27.6317 10.6005 27.5 10.9185 27.5 11.25C27.5 11.5815 27.6317 11.8995 27.8661 12.1339C28.1005 12.3683 28.4185 12.5 28.75 12.5H36.25C36.5815 12.5 36.8995 12.3683 37.1339 12.1339C37.3683 11.8995 37.5 11.5815 37.5 11.25C37.5 10.9185 37.3683 10.6005 37.1339 10.3661C36.8995 10.1317 36.5815 10 36.25 10Z" fill="#DFB48F"/>
<path d="M36.25 15H28.75C28.4185 15 28.1005 15.1317 27.8661 15.3661C27.6317 15.6005 27.5 15.9185 27.5 16.25C27.5 16.5815 27.6317 16.8995 27.8661 17.1339C28.1005 17.3683 28.4185 17.5 28.75 17.5H36.25C36.5815 17.5 36.8995 17.3683 37.1339 17.1339C37.3683 16.8995 37.5 16.5815 37.5 16.25C37.5 15.9185 37.3683 15.6005 37.1339 15.3661C36.8995 15.1317 36.5815 15 36.25 15Z" fill="#DFB48F"/>
<path d="M36.25 20H28.75C28.4185 20 28.1005 20.1317 27.8661 20.3661C27.6317 20.6005 27.5 20.9185 27.5 21.25C27.5 21.5815 27.6317 21.8995 27.8661 22.1339C28.1005 22.3683 28.4185 22.5 28.75 22.5H36.25C36.5815 22.5 36.8995 22.3683 37.1339 22.1339C37.3683 21.8995 37.5 21.5815 37.5 21.25C37.5 20.9185 37.3683 20.6005 37.1339 20.3661C36.8995 20.1317 36.5815 20 36.25 20Z" fill="#DFB48F"/>
<path d="M72.5 10H65C64.6685 10 64.3505 10.1317 64.1161 10.3661C63.8817 10.6005 63.75 10.9185 63.75 11.25C63.75 11.5815 63.8817 11.8995 64.1161 12.1339C64.3505 12.3683 64.6685 12.5 65 12.5H72.5C72.8315 12.5 73.1495 12.3683 73.3839 12.1339C73.6183 11.8995 73.75 11.5815 73.75 11.25C73.75 10.9185 73.6183 10.6005 73.3839 10.3661C73.1495 10.1317 72.8315 10 72.5 10Z" fill="#DFB48F"/>
<path d="M72.5 15H65C64.6685 15 64.3505 15.1317 64.1161 15.3661C63.8817 15.6005 63.75 15.9185 63.75 16.25C63.75 16.5815 63.8817 16.8995 64.1161 17.1339C64.3505 17.3683 64.6685 17.5 65 17.5H72.5C72.8315 17.5 73.1495 17.3683 73.3839 17.1339C73.6183 16.8995 73.75 16.5815 73.75 16.25C73.75 15.9185 73.6183 15.6005 73.3839 15.3661C73.1495 15.1317 72.8315 15 72.5 15Z" fill="#DFB48F"/>
<path d="M72.5 20H65C64.6685 20 64.3505 20.1317 64.1161 20.3661C63.8817 20.6005 63.75 20.9185 63.75 21.25C63.75 21.5815 63.8817 21.8995 64.1161 22.1339C64.3505 22.3683 64.6685 22.5 65 22.5H72.5C72.8315 22.5 73.1495 22.3683 73.3839 22.1339C73.6183 21.8995 73.75 21.5815 73.75 21.25C73.75 20.9185 73.6183 20.6005 73.3839 20.3661C73.1495 20.1317 72.8315 20 72.5 20Z" fill="#DFB48F"/>
<path d="M36.25 35H28.75C28.4185 35 28.1005 35.1317 27.8661 35.3661C27.6317 35.6005 27.5 35.9185 27.5 36.25C27.5 36.5815 27.6317 36.8995 27.8661 37.1339C28.1005 37.3683 28.4185 37.5 28.75 37.5H36.25C36.5815 37.5 36.8995 37.3683 37.1339 37.1339C37.3683 36.8995 37.5 36.5815 37.5 36.25C37.5 35.9185 37.3683 35.6005 37.1339 35.3661C36.8995 35.1317 36.5815 35 36.25 35Z" fill="#DFB48F"/>
<path d="M36.25 40H28.75C28.4185 40 28.1005 40.1317 27.8661 40.3661C27.6317 40.6005 27.5 40.9185 27.5 41.25C27.5 41.5815 27.6317 41.8995 27.8661 42.1339C28.1005 42.3683 28.4185 42.5 28.75 42.5H36.25C36.5815 42.5 36.8995 42.3683 37.1339 42.1339C37.3683 41.8995 37.5 41.5815 37.5 41.25C37.5 40.9185 37.3683 40.6005 37.1339 40.3661C36.8995 40.1317 36.5815 40 36.25 40Z" fill="#DFB48F"/>
<path d="M36.25 45H28.75C28.4185 45 28.1005 45.1317 27.8661 45.3661C27.6317 45.6005 27.5 45.9185 27.5 46.25C27.5 46.5815 27.6317 46.8995 27.8661 47.1339C28.1005 47.3683 28.4185 47.5 28.75 47.5H36.25C36.5815 47.5 36.8995 47.3683 37.1339 47.1339C37.3683 46.8995 37.5 46.5815 37.5 46.25C37.5 45.9185 37.3683 45.6005 37.1339 45.3661C36.8995 45.1317 36.5815 45 36.25 45Z" fill="#DFB48F"/>
<path d="M72.5 35H65C64.6685 35 64.3505 35.1317 64.1161 35.3661C63.8817 35.6005 63.75 35.9185 63.75 36.25C63.75 36.5815 63.8817 36.8995 64.1161 37.1339C64.3505 37.3683 64.6685 37.5 65 37.5H72.5C72.8315 37.5 73.1495 37.3683 73.3839 37.1339C73.6183 36.8995 73.75 36.5815 73.75 36.25C73.75 35.9185 73.6183 35.6005 73.3839 35.3661C73.1495 35.1317 72.8315 35 72.5 35Z" fill="#DFB48F"/>
<path d="M72.5 40H65C64.6685 40 64.3505 40.1317 64.1161 40.3661C63.8817 40.6005 63.75 40.9185 63.75 41.25C63.75 41.5815 63.8817 41.8995 64.1161 42.1339C64.3505 42.3683 64.6685 42.5 65 42.5H72.5C72.8315 42.5 73.1495 42.3683 73.3839 42.1339C73.6183 41.8995 73.75 41.5815 73.75 41.25C73.75 40.9185 73.6183 40.6005 73.3839 40.3661C73.1495 40.1317 72.8315 40 72.5 40Z" fill="#DFB48F"/>
<path d="M72.5 45H65C64.6685 45 64.3505 45.1317 64.1161 45.3661C63.8817 45.6005 63.75 45.9185 63.75 46.25C63.75 46.5815 63.8817 46.8995 64.1161 47.1339C64.3505 47.3683 64.6685 47.5 65 47.5H72.5C72.8315 47.5 73.1495 47.3683 73.3839 47.1339C73.6183 46.8995 73.75 46.5815 73.75 46.25C73.75 45.9185 73.6183 45.6005 73.3839 45.3661C73.1495 45.1317 72.8315 45 72.5 45Z" fill="#DFB48F"/>
<path d="M55.0026 28.75C54.7575 28.7519 54.5185 28.8258 54.3151 28.9625L46.8151 33.9625C46.6431 34.0757 46.5018 34.2297 46.4037 34.4107C46.3056 34.5917 46.2537 34.7941 46.2526 35V38.925C45.0883 39.2411 44.0775 39.9675 43.4067 40.9703C42.7358 41.9731 42.4502 43.1846 42.6025 44.3814C42.7548 45.5782 43.3346 46.6796 44.2352 47.4825C45.1357 48.2854 46.2962 48.7355 47.5026 48.75H53.7526C55.0787 48.75 56.3504 48.2232 57.2881 47.2855C58.2258 46.3479 58.7526 45.0761 58.7526 43.75C58.7461 43.3277 58.6873 42.9078 58.5776 42.5H60.0026C60.3341 42.5 60.6521 42.3683 60.8865 42.1339C61.1209 41.8995 61.2526 41.5815 61.2526 41.25V35C61.2526 33.3424 60.5941 31.7527 59.422 30.5806C58.2499 29.4085 56.6602 28.75 55.0026 28.75ZM55.3526 31.25C56.0653 31.3201 56.743 31.5927 57.3056 32.0357C57.8683 32.4788 58.2923 33.0736 58.5276 33.75H51.6276L55.3526 31.25ZM53.7526 46.25H47.5026C46.8395 46.25 46.2037 45.9866 45.7348 45.5178C45.266 45.0489 45.0026 44.413 45.0026 43.75C45.0026 43.087 45.266 42.4511 45.7348 41.9822C46.2037 41.5134 46.8395 41.25 47.5026 41.25V42.5C47.5026 42.8315 47.6343 43.1495 47.8687 43.3839C48.1031 43.6183 48.4211 43.75 48.7526 43.75C49.0841 43.75 49.4021 43.6183 49.6365 43.3839C49.8709 43.1495 50.0026 42.8315 50.0026 42.5V41.25H51.2526V42.5C51.2526 42.8315 51.3843 43.1495 51.6187 43.3839C51.8531 43.6183 52.1711 43.75 52.5026 43.75C52.8341 43.75 53.1521 43.6183 53.3865 43.3839C53.6209 43.1495 53.7526 42.8315 53.7526 42.5V41.25C54.4156 41.25 55.0515 41.5134 55.5204 41.9822C55.9892 42.4511 56.2526 43.087 56.2526 43.75C56.2526 44.413 55.9892 45.0489 55.5204 45.5178C55.0515 45.9866 54.4156 46.25 53.7526 46.25ZM58.7526 40H57.0276C56.1225 39.2018 54.9593 38.7578 53.7526 38.75H48.7526V36.25H58.7526V40Z" fill="white"/>
</svg>
