<svg width="80" height="80" viewBox="0 0 80 80" fill="none" xmlns="http://www.w3.org/2000/svg">
<path d="M21.3777 32.5679C21.3777 32.756 21.4141 32.9422 21.4848 33.116C21.5555 33.2898 21.6592 33.4477 21.7898 33.5807C21.9205 33.7136 22.0757 33.8191 22.2465 33.8911C22.4172 33.963 22.6003 34 22.7851 34H31.0218C31.2066 34 31.3896 33.963 31.5604 33.8911C31.7312 33.8191 31.8863 33.7137 32.017 33.5807C32.1477 33.4477 32.2514 33.2898 32.3221 33.116C32.3928 32.9422 32.4292 32.756 32.4291 32.5679V25.4913C34.2717 25.1551 35.9394 24.1704 37.1406 22.7094C38.3418 21.2484 39 19.4042 39 17.4993C39 15.5944 38.3418 13.7502 37.1406 12.2892C35.9394 10.8282 34.2717 9.84351 32.4291 9.50732V2.43211C32.4292 2.24403 32.3928 2.05778 32.3221 1.884C32.2514 1.71023 32.1477 1.55234 32.017 1.41934C31.8863 1.28635 31.7312 1.18086 31.5604 1.10891C31.3896 1.03696 31.2066 0.999949 31.0218 1H6.19363C4.55161 1.00168 2.9773 1.66613 1.81615 2.84757C0.654996 4.029 0.00184054 5.63091 5.13305e-08 7.3018V32.5679C-4.98734e-05 32.756 0.0363188 32.9422 0.107028 33.116C0.177737 33.2898 0.2814 33.4477 0.412096 33.5807C0.542791 33.7137 0.697958 33.8191 0.868729 33.8911C1.0395 33.963 1.22253 34 1.40736 34H9.64401C9.82884 34 10.0119 33.963 10.1826 33.8911C10.3534 33.8191 10.5086 33.7137 10.6393 33.5807C10.77 33.4477 10.8736 33.2898 10.9443 33.116C11.015 32.9422 11.0514 32.756 11.0514 32.5679C11.0663 31.1844 11.6168 29.8628 12.5835 28.8898C13.5501 27.9168 14.8549 27.3711 16.2146 27.3711C17.5742 27.3711 18.879 27.9168 19.8457 28.8898C20.8123 29.8628 21.3629 31.1844 21.3777 32.5679ZM8.36105 31.1358H2.81472V7.3018C2.81594 6.39035 3.17235 5.5166 3.80577 4.87217C4.4392 4.22775 5.29793 3.86526 6.19363 3.86422H29.6144V10.8136C29.6143 11.0016 29.6507 11.1879 29.7214 11.3617C29.7921 11.5354 29.8958 11.6933 30.0265 11.8263C30.1572 11.9593 30.3123 12.0648 30.4831 12.1368C30.6539 12.2087 30.8369 12.2457 31.0218 12.2457C32.381 12.2612 33.6794 12.8215 34.6352 13.8051C35.591 14.7887 36.1271 16.1161 36.127 17.4994C36.127 18.8826 35.5909 20.2101 34.6351 21.1936C33.6793 22.1772 32.3809 22.7375 31.0216 22.7529C30.8368 22.7529 30.6538 22.7899 30.483 22.8619C30.3123 22.9338 30.1571 23.0393 30.0264 23.1723C29.8957 23.3053 29.7921 23.4632 29.7214 23.637C29.6507 23.8107 29.6143 23.997 29.6144 24.185V31.1358H24.0681C23.7246 29.2718 22.7516 27.5887 21.3174 26.3776C19.8833 25.1665 18.0782 24.5036 16.2146 24.5036C14.3509 24.5036 12.5458 25.1665 11.1117 26.3776C9.67756 27.5887 8.70459 29.2718 8.36105 31.1358Z" fill="white"/>
<path d="M73.711 17H48.5004C48.3127 17 48.1268 17.0374 47.9534 17.1103C47.78 17.1831 47.6225 17.2899 47.4898 17.4246C47.357 17.5593 47.2518 17.7191 47.18 17.8951C47.1082 18.071 47.0713 18.2596 47.0713 18.45V26.9364C47.0713 27.1268 47.1082 27.3154 47.18 27.4914C47.2518 27.6673 47.357 27.8272 47.4898 27.9618C47.6225 28.0965 47.78 28.2033 47.9534 28.2762C48.1268 28.349 48.3127 28.3865 48.5004 28.3864C49.8807 28.402 51.1992 28.9693 52.1699 29.9652C53.1405 30.9611 53.6849 32.3052 53.6849 33.7059C53.6849 35.1066 53.1405 36.4507 52.1698 37.4466C51.1991 38.4425 49.8805 39.0097 48.5002 39.0252C48.3125 39.0252 48.1267 39.0627 47.9533 39.1355C47.7799 39.2084 47.6224 39.3152 47.4897 39.4498C47.357 39.5845 47.2518 39.7444 47.18 39.9203C47.1082 40.0962 47.0713 40.2848 47.0713 40.4752V46.5869H41.4389C41.1032 44.6888 40.1206 42.9708 38.6629 41.7335C37.2052 40.4962 35.3652 39.8182 33.4647 39.8182C31.5642 39.8182 29.7242 40.4962 28.2665 41.7335C26.8088 42.9708 25.8262 44.6888 25.4905 46.5869H18.429C18.2414 46.5869 18.0555 46.6243 17.8821 46.6972C17.7087 46.77 17.5512 46.8768 17.4184 47.0115C17.2857 47.1462 17.1805 47.306 17.1087 47.482C17.0369 47.6579 16.9999 47.8465 17 48.0369V73.6193C17.0019 75.3111 17.6651 76.9331 18.8441 78.1293C20.0232 79.3255 21.6217 79.9983 23.289 80H73.711C75.3783 79.9983 76.9768 79.3255 78.1559 78.1293C79.3349 76.9331 79.9981 75.3111 80 73.6193V23.3807C79.9981 21.6889 79.3349 20.0669 78.1559 18.8707C76.9768 17.6745 75.3783 17.0017 73.711 17ZM56.6009 33.7065C56.5986 31.7785 55.9296 29.9123 54.7104 28.4335C53.4913 26.9546 51.7993 25.9568 49.9294 25.6139V19.9001H73.711C74.6205 19.9011 75.4924 20.2682 76.1356 20.9207C76.7788 21.5732 77.1407 22.4579 77.1419 23.3807V46.5869H70.2074C70.0197 46.5869 69.8339 46.6243 69.6605 46.6972C69.4871 46.77 69.3295 46.8768 69.1968 47.0115C69.0641 47.1462 68.9589 47.306 68.8871 47.482C68.8153 47.6579 68.7783 47.8465 68.7784 48.0369C68.7629 49.4375 68.2037 50.7754 67.2222 51.7602C66.2406 52.745 64.9159 53.2974 63.5356 53.2974C62.1552 53.2973 60.8305 52.7449 59.849 51.7601C58.8675 50.7752 58.3084 49.4373 58.2929 48.0368C58.293 47.8463 58.256 47.6578 58.1842 47.4818C58.1124 47.3059 58.0071 47.1461 57.8744 47.0114C57.7417 46.8768 57.5842 46.77 57.4108 46.6972C57.2374 46.6243 57.0515 46.5869 56.8639 46.5869H49.9294V41.7978C51.7991 41.4551 53.4909 40.4574 54.7101 38.9788C55.9292 37.5002 56.5984 35.6344 56.6009 33.7065ZM19.8581 73.6193V49.487H26.7932C26.9809 49.487 27.1668 49.4496 27.3402 49.3767C27.5136 49.3038 27.6711 49.197 27.8038 49.0624C27.9365 48.9277 28.0418 48.7679 28.1136 48.5919C28.1854 48.416 28.2223 48.2274 28.2223 48.0369C28.2246 46.6277 28.7779 45.2769 29.7608 44.2812C30.7437 43.2856 32.0758 42.7263 33.4647 42.7263C34.8535 42.7263 36.1856 43.2856 37.1685 44.2812C38.1514 45.2769 38.7047 46.6277 38.707 48.0369C38.707 48.2274 38.7439 48.416 38.8157 48.5919C38.8875 48.7679 38.9928 48.9277 39.1255 49.0624C39.2582 49.197 39.4157 49.3038 39.5891 49.3767C39.7626 49.4496 39.9484 49.487 40.1361 49.487H47.0712V55.2021C45.2003 55.5425 43.5068 56.5396 42.2871 58.0188C41.0674 59.4981 40.3991 61.3654 40.3991 63.2941C40.3991 65.2229 41.0674 67.0902 42.2871 68.5694C43.5068 70.0487 45.2003 71.0457 47.0712 71.3861V77.0999H23.289C22.3795 77.0988 21.5076 76.7318 20.8644 76.0793C20.2212 75.4268 19.8593 74.5421 19.8581 73.6193ZM73.711 77.0999H49.9294V70.0636C49.9294 69.8731 49.8925 69.6845 49.8207 69.5086C49.7489 69.3326 49.6437 69.1728 49.511 69.0381C49.3782 68.9035 49.2207 68.7967 49.0473 68.7238C48.8739 68.6509 48.688 68.6135 48.5004 68.6135C47.11 68.6135 45.7766 68.0531 44.7934 67.0555C43.8103 66.0579 43.258 64.7049 43.258 63.2941C43.258 61.8833 43.8103 60.5303 44.7934 59.5328C45.7766 58.5352 47.11 57.9748 48.5004 57.9748C48.688 57.9748 48.8739 57.9373 49.0473 57.8645C49.2207 57.7916 49.3782 57.6848 49.511 57.5502C49.6437 57.4155 49.7489 57.2556 49.8207 57.0797C49.8925 56.9037 49.9294 56.7152 49.9294 56.5247V50.4116H55.5611C55.8965 52.3101 56.8791 54.0284 58.3369 55.266C59.7947 56.5036 61.6349 57.1818 63.5357 57.1818C65.4364 57.1818 67.2767 56.5036 68.7345 55.266C70.1923 54.0284 71.1748 52.3101 71.5102 50.4116H77.1419V73.6193C77.1407 74.5421 76.7788 75.4268 76.1356 76.0793C75.4924 76.7318 74.6205 77.0989 73.711 77.0999Z" fill="#DFB48F"/>
</svg>
