<svg width="80" height="80" viewBox="0 0 80 80" fill="none" xmlns="http://www.w3.org/2000/svg">
<g clip-path="url(#clip0_2305_17890)">
<path fill-rule="evenodd" clip-rule="evenodd" d="M77.1467 22.8213C77.1467 22.8213 77.1467 13.4696 77.1467 7.1317C77.1467 5.2403 76.3955 3.42618 75.0579 2.08883C73.7205 0.751475 71.9067 0 70.015 0C56.1996 0 21.0721 0 7.2567 0C5.3653 0 3.55118 0.751475 2.21383 2.08883C0.876475 3.42618 0.125 5.2403 0.125 7.1317V48.4952C0.125 50.3866 0.876475 52.2004 2.21383 53.538C3.55118 54.8754 5.3653 55.6269 7.2567 55.6269H55.7519C56.539 55.6269 57.1781 54.9876 57.1781 54.2004C57.1781 53.4133 56.539 52.7742 55.7519 52.7742C55.7519 52.7742 21.1773 52.7742 7.2567 52.7742C6.12191 52.7742 5.03334 52.3234 4.23103 51.5208C3.42846 50.7183 2.97763 49.63 2.97763 48.4952C2.97763 38.3481 2.97763 17.2788 2.97763 7.1317C2.97763 5.99691 3.42846 4.90834 4.23103 4.10603C5.03334 3.30346 6.12191 2.85263 7.2567 2.85263H70.015C71.15 2.85263 72.2384 3.30346 73.0409 4.10603C73.8432 4.90834 74.2941 5.99691 74.2941 7.1317V22.8213C74.2941 23.6084 74.9331 24.2475 75.7205 24.2475C76.5077 24.2475 77.1467 23.6084 77.1467 22.8213Z" fill="#DFB48F"/>
<path fill-rule="evenodd" clip-rule="evenodd" d="M1.55144 47.0687H55.7519C56.539 47.0687 57.1781 46.4297 57.1781 45.6425C57.1781 44.8553 56.539 44.2161 55.7519 44.2161H1.55144C0.76428 44.2161 0.125 44.8553 0.125 45.6425C0.125 46.4297 0.76428 47.0687 1.55144 47.0687Z" fill="#DFB48F"/>
<path fill-rule="evenodd" clip-rule="evenodd" d="M44.2512 53.6995C44.0425 53.1428 43.5103 52.7742 42.9157 52.7742H34.3578C33.7632 52.7742 33.231 53.1428 33.0222 53.6995L28.7432 65.1102C28.5789 65.5482 28.64 66.0388 28.9065 66.4234C29.1727 66.808 29.6109 67.0373 30.0787 67.0373H47.1947C47.6625 67.0373 48.1005 66.808 48.367 66.4234C48.6335 66.0388 48.6944 65.5482 48.53 65.1102L44.2512 53.6995ZM41.9272 55.6268L45.1365 64.1847H32.137L35.3462 55.6268H41.9272Z" fill="#DFB48F"/>
<path fill-rule="evenodd" clip-rule="evenodd" d="M25.7973 67.0372H51.4712C52.2583 67.0372 52.8976 66.3982 52.8976 65.611C52.8976 64.8236 52.2583 64.1846 51.4712 64.1846H25.7973C25.0101 64.1846 24.3711 64.8236 24.3711 65.611C24.3711 66.3982 25.0101 67.0372 25.7973 67.0372Z" fill="#DFB48F"/>
<path fill-rule="evenodd" clip-rule="evenodd" d="M80.002 27.1C80.002 23.9493 77.4477 21.3948 74.2968 21.3948H60.0334C56.8827 21.3948 54.3281 23.9493 54.3281 27.1V58.4794C54.3281 61.6304 56.8827 64.1847 60.0334 64.1847H74.2968C77.4477 64.1847 80.002 61.6304 80.002 58.4794V27.1ZM77.1494 27.1V58.4794C77.1494 60.0548 75.8724 61.3321 74.2968 61.3321H60.0336C58.458 61.3321 57.181 60.0548 57.1808 58.4794V27.1C57.181 25.5247 58.458 24.2477 60.0334 24.2474H74.2968C75.8724 24.2477 77.1494 25.5247 77.1494 27.1Z" fill="white"/>
<path fill-rule="evenodd" clip-rule="evenodd" d="M65.0241 58.4796H69.3032C70.0903 58.4796 70.7293 57.8403 70.7293 57.0531C70.7293 56.266 70.0903 55.627 69.3032 55.627H65.0241C64.2369 55.627 63.5977 56.266 63.5977 57.0531C63.5977 57.8403 64.2369 58.4796 65.0241 58.4796Z" fill="white"/>
</g>
<defs>
<clipPath id="clip0_2305_17890">
<rect width="80" height="80" fill="white"/>
</clipPath>
</defs>
</svg>
