<svg width="80" height="80" viewBox="0 0 80 80" fill="none" xmlns="http://www.w3.org/2000/svg">
<path d="M40.0579 17.2432C28.7351 17.2432 19.4844 26.4939 19.4844 37.8167C19.4844 43.7372 22.0746 49.4356 26.4409 53.2839C29.6971 56.5401 29.4011 63.4966 29.3271 63.5706C29.3271 63.9407 29.4011 64.2367 29.6971 64.5327C29.9192 64.7547 30.2892 64.9027 30.5852 64.9027H49.4566C49.8267 64.9027 50.1227 64.7547 50.3447 64.5327C50.5667 64.3107 50.7147 63.9407 50.7147 63.5706C50.7147 63.4966 50.3447 56.5401 53.6009 53.2839C53.6749 53.2099 53.7489 53.1359 53.8229 53.0619C58.1153 49.1396 60.6315 43.5891 60.6315 37.8167C60.6315 26.4939 51.3808 17.2432 40.0579 17.2432ZM51.8988 51.3597C51.8248 51.4337 51.6768 51.5817 51.6768 51.6558C48.7906 54.764 48.2725 59.8704 48.1985 62.3125H31.8433C31.7693 59.8704 31.2513 54.542 28.143 51.3597C24.2207 47.9555 21.9266 42.9971 21.9266 37.7427C21.9266 27.752 29.9932 19.6853 39.9839 19.6853C49.9747 19.6853 58.0413 27.752 58.0413 37.7427C58.0413 42.9971 55.8211 47.9555 51.8988 51.3597Z" fill="#DFB48F"/>
<path d="M39.9847 22.498C39.3186 22.498 38.7266 23.0901 38.7266 23.7561C38.7266 24.4222 39.3186 25.0142 39.9847 25.0142C47.4592 25.0142 53.4537 31.0827 53.4537 38.4832C53.4537 39.1493 54.0457 39.7413 54.7118 39.7413C55.3778 39.7413 55.9699 39.1493 55.9699 38.4832C56.0439 29.6766 48.8653 22.498 39.9847 22.498Z" fill="white"/>
<path d="M48.2015 66.3091H31.7723C30.0702 66.3091 28.6641 67.7152 28.6641 69.4173C28.6641 71.1194 30.0702 72.5255 31.7723 72.5255H48.1275C49.9037 72.4515 51.3098 71.1194 51.3098 69.4173C51.3098 67.7152 49.9037 66.3091 48.2015 66.3091ZM48.2015 69.9354H31.7723C31.4763 69.9354 31.1803 69.7133 31.1803 69.3433C31.1803 68.9733 31.4023 68.7513 31.7723 68.7513H48.1275C48.4235 68.7513 48.7196 68.9733 48.7196 69.3433C48.7196 69.7133 48.4975 69.9354 48.2015 69.9354Z" fill="#DFB48F"/>
<path d="M45.7547 73.7832H34.2098C32.5077 73.7832 31.1016 75.1893 31.1016 76.8914C31.1016 78.5936 32.5077 79.9997 34.2098 79.9997H45.7547C47.4568 79.9997 48.8629 78.5936 48.8629 76.8914C48.8629 75.1153 47.4568 73.7832 45.7547 73.7832ZM45.7547 77.4095H34.2098C33.9138 77.4095 33.6178 77.1875 33.6178 76.8174C33.6178 76.4474 33.8398 76.2254 34.2098 76.2254H45.7547C46.0507 76.2254 46.3467 76.4474 46.3467 76.8174C46.3467 77.1875 46.0507 77.4095 45.7547 77.4095Z" fill="#DFB48F"/>
<path d="M39.9847 11.1008C40.7247 11.1008 41.2428 10.5088 41.2428 9.84274V1.25809C41.2428 0.592044 40.6507 0 39.9847 0C39.3186 0 38.7266 0.592044 38.7266 1.25809V9.84274C38.7266 10.5088 39.3186 11.1008 39.9847 11.1008Z" fill="#F5F7FA"/>
<path d="M60.931 6.36454C60.339 5.92051 59.5989 6.14253 59.2289 6.66056L54.4926 13.7651C54.0485 14.3571 54.1965 15.1712 54.7886 15.5412C55.0106 15.6892 55.2326 15.7632 55.4546 15.7632C55.8987 15.7632 56.2687 15.5412 56.4907 15.1712L61.2271 8.06667C61.6711 7.54863 61.5231 6.73457 60.931 6.36454Z" fill="#F5F7FA"/>
<path d="M24.9627 15.4672C25.1847 15.4672 25.4067 15.3932 25.6287 15.2452C26.2208 14.8752 26.3688 14.0611 25.9987 13.4691L21.4104 6.29051C21.0404 5.69847 20.2263 5.55046 19.6343 5.92049C19.0422 6.29051 18.8942 7.10457 19.2642 7.69662L23.8526 14.8752C24.1486 15.3192 24.5186 15.4672 24.9627 15.4672Z" fill="#F5F7FA"/>
<path d="M16.0073 23.3117L8.53273 19.2414C7.94068 18.9454 7.12662 19.1674 6.8306 19.7594C6.46057 20.3515 6.68259 21.1655 7.34864 21.4616L14.8232 25.5319C15.0452 25.6059 15.1932 25.6799 15.4152 25.6799C15.8593 25.6799 16.3033 25.4579 16.5253 25.0138C16.8213 24.4218 16.5993 23.6077 16.0073 23.3117Z" fill="#F5F7FA"/>
<path d="M73.2118 19.7594C72.9158 19.1674 72.1017 18.9454 71.5097 19.2414L63.9611 23.3117C63.369 23.6077 63.147 24.4218 63.443 25.0138C63.6651 25.4579 64.1091 25.6799 64.5531 25.6799C64.7751 25.6799 64.9972 25.6059 65.1452 25.5319L72.6937 21.4616C73.2858 21.1655 73.5078 20.3515 73.2118 19.7594Z" fill="#F5F7FA"/>
</svg>
