<svg width="80" height="80" viewBox="0 0 80 80" fill="none" xmlns="http://www.w3.org/2000/svg">
<path fill-rule="evenodd" clip-rule="evenodd" d="M40.0009 24.5906C47.6505 24.5906 54.5769 27.6914 59.5897 32.7058C64.6025 37.7186 67.7049 44.645 67.7049 52.2962C67.7049 59.9474 64.6041 66.8722 59.5897 71.885C54.5753 76.8978 47.6505 79.9986 40.0009 79.9986C32.3513 79.9986 25.4249 76.8978 20.4105 71.885C15.3977 66.8722 12.2969 59.9458 12.2969 52.2962C12.2969 44.6466 15.3977 37.7202 20.4105 32.7058C25.4249 27.6914 32.3513 24.5906 40.0009 24.5906ZM33.8697 47.725L33.8921 62.229H48.4601C48.9465 62.229 49.3913 62.0658 49.7337 61.7858C50.0777 61.5042 50.3273 61.1042 50.4249 60.6306L52.5897 50.0882C52.6537 49.7778 52.6505 49.4802 52.5817 49.2034C52.5129 48.9266 52.3785 48.661 52.1769 48.4146C51.9785 48.1698 51.7465 47.9858 51.4905 47.8642C51.2361 47.7426 50.9449 47.6818 50.6233 47.6818H42.9721C42.3529 47.6818 41.8521 47.181 41.8521 46.5618C41.8521 46.4002 41.8857 46.2482 41.9481 46.109L42.1913 45.4178C43.4041 41.965 44.0473 40.133 42.3609 38.5666C42.1913 38.4082 42.0057 38.3026 41.8137 38.2498C41.6217 38.197 41.4057 38.1938 41.1769 38.2434C40.9481 38.293 40.7529 38.3842 40.6009 38.5106C40.4473 38.6386 40.3225 38.8114 40.2345 39.0258L37.2281 46.2226C36.6233 47.669 35.1689 47.7714 33.8697 47.725ZM31.6617 63.1954L31.6361 46.6658C31.4169 45.4882 29.4329 45.2162 29.4329 47.2914V62.7298C29.4329 64.6034 31.1609 64.9026 31.6617 63.1954ZM48.4601 64.469C49.4713 64.469 50.4057 64.1186 51.1433 63.5186C51.8777 62.9186 52.4089 62.0722 52.6137 61.0786L54.7785 50.5362C54.9097 49.8962 54.9001 49.269 54.7529 48.6706C54.6057 48.0738 54.3241 47.5138 53.9113 47.0066C53.4969 46.4978 53.0041 46.109 52.4457 45.8434C51.8873 45.5778 51.2745 45.4418 50.6249 45.4418H44.5497C45.9081 41.541 46.4873 39.3474 43.8841 36.9298C43.4505 36.5266 42.9465 36.2466 42.4009 36.0962C41.8553 35.9458 41.2809 35.9298 40.7049 36.0546C40.1273 36.1794 39.6121 36.4322 39.1753 36.7954C38.7401 37.157 38.3977 37.621 38.1689 38.1682L35.1625 45.365C35.0889 45.5426 34.2841 45.5122 33.5929 45.477C32.1913 42.3346 27.1913 43.0082 27.1913 47.293V62.7314C27.1913 66.8738 31.9481 67.957 33.5625 64.469H48.4601ZM40.0009 29.2658C33.6425 29.2658 27.8841 31.8434 23.7177 36.0114C19.5497 40.1794 16.9721 45.9362 16.9721 52.2946C16.9721 58.653 19.5497 64.4114 23.7177 68.5778C27.8857 72.7458 33.6425 75.3234 40.0009 75.3234C46.3593 75.3234 52.1177 72.7458 56.2841 68.5778C60.4521 64.4098 63.0297 58.653 63.0297 52.2946C63.0297 45.9362 60.4521 40.1778 56.2841 36.0114C52.1177 31.8434 46.3593 29.2658 40.0009 29.2658ZM54.7001 37.5954C50.9385 33.8338 45.7417 31.5058 40.0009 31.5058C34.2601 31.5058 29.0633 33.8322 25.3001 37.5954C21.5385 41.357 19.2105 46.5538 19.2105 52.2946C19.2105 58.0354 21.5369 63.2322 25.3001 66.9954C29.0617 70.757 34.2601 73.085 40.0009 73.085C45.7417 73.085 50.9385 70.7586 54.7001 66.9954C58.4617 63.2338 60.7897 58.0354 60.7897 52.2946C60.7897 46.5538 58.4633 41.357 54.7001 37.5954ZM58.0073 34.2882C53.3993 29.6802 47.0329 26.8306 40.0009 26.8306C32.9689 26.8306 26.6025 29.6802 21.9945 34.2882C17.3865 38.8962 14.5369 45.2626 14.5369 52.2946C14.5369 59.3266 17.3865 65.693 21.9945 70.301C26.6025 74.909 32.9689 77.7586 40.0009 77.7586C47.0329 77.7586 53.3993 74.909 58.0073 70.301C62.6153 65.693 65.4649 59.3266 65.4649 52.2946C65.4649 45.2626 62.6153 38.8962 58.0073 34.2882Z" fill="#DFB48F"/>
<path fill-rule="evenodd" clip-rule="evenodd" d="M13.8117 9.42188C13.7061 9.08748 13.4469 8.80748 13.0869 8.69228C12.4997 8.50348 11.8709 8.82668 11.6821 9.41388L9.67089 15.6475L3.20049 15.6347C2.82769 15.6075 2.44849 15.7691 2.21329 16.0939C1.85009 16.5947 1.96209 17.2939 2.46289 17.6555L7.77009 21.4955L5.73329 27.7227L5.73649 27.7243C5.63089 28.0523 5.67729 28.4251 5.89489 28.7259C6.25809 29.2235 6.95409 29.3339 7.45169 28.9707L12.7461 25.1083L17.9717 28.9195C18.2581 29.1627 18.6597 29.2555 19.0421 29.1307C19.6293 28.9403 19.9509 28.3083 19.7589 27.7227L17.7221 21.4955L23.0293 17.6555L23.0277 17.6539C23.3077 17.4507 23.4885 17.1227 23.4885 16.7499C23.4885 16.1339 22.9893 15.6347 22.3733 15.6347L15.8213 15.6475L13.8117 9.42188ZM13.9445 17.1051L12.7445 13.3899L11.5445 17.1051C11.4005 17.5547 10.9797 17.8795 10.4821 17.8795L6.57489 17.8715L9.73969 20.1611C10.1221 20.4379 10.2997 20.9387 10.1461 21.4123L8.93169 25.1275L12.0709 22.8379C12.4533 22.5483 12.9941 22.5275 13.4021 22.8251L16.5589 25.1275L15.3573 21.4539C15.1877 20.9947 15.3349 20.4619 15.7509 20.1611L18.9157 17.8715L15.0613 17.8795C14.5685 17.9035 14.1029 17.5963 13.9445 17.1051ZM68.7237 9.42188C68.6181 9.08748 68.3589 8.80748 67.9989 8.69228C67.4117 8.50348 66.7829 8.82668 66.5941 9.41388L64.5829 15.6475L58.1125 15.6347C57.7397 15.6075 57.3605 15.7691 57.1253 16.0939C56.7621 16.5947 56.8741 17.2939 57.3749 17.6555L62.6821 21.4955L60.6453 27.7227L60.6485 27.7243C60.5429 28.0523 60.5893 28.4251 60.8069 28.7259C61.1701 29.2235 61.8661 29.3339 62.3637 28.9707L67.6581 25.1083L72.8837 28.9195C73.1701 29.1627 73.5717 29.2555 73.9541 29.1307C74.5413 28.9403 74.8629 28.3083 74.6709 27.7227L72.6341 21.4955L77.9413 17.6555L77.9397 17.6539C78.2197 17.4507 78.4005 17.1227 78.4005 16.7499C78.4005 16.1339 77.9013 15.6347 77.2853 15.6347L70.7333 15.6475L68.7237 9.42188ZM68.8581 17.1051L67.6581 13.3899L66.4581 17.1051C66.3141 17.5547 65.8933 17.8795 65.3957 17.8795L61.4885 17.8715L64.6533 20.1611C65.0357 20.4379 65.2133 20.9387 65.0597 21.4123L63.8453 25.1275L66.9845 22.8379C67.3669 22.5483 67.9077 22.5275 68.3157 22.8251L71.4725 25.1275L70.2709 21.4539C70.1013 20.9947 70.2485 20.4619 70.6645 20.1611L73.8293 17.8715L69.9749 17.8795C69.4805 17.9035 69.0149 17.5963 68.8581 17.1051ZM41.2677 0.783484L43.2773 7.00908L49.8293 6.99628C50.4453 6.99628 50.9445 7.49548 50.9445 8.11148C50.9445 8.48268 50.7621 8.81228 50.4837 9.01548L50.4853 9.01708L45.1781 12.8571L47.2149 19.0843C47.4053 19.6715 47.0853 20.3019 46.4981 20.4923C46.1157 20.6171 45.7141 20.5227 45.4277 20.2811L40.2021 16.4699L34.9077 20.3323C34.4101 20.6955 33.7125 20.5851 33.3509 20.0875C33.1317 19.7867 33.0853 19.4139 33.1925 19.0859L33.1893 19.0843L35.2261 12.8571L29.9189 9.01708C29.4181 8.65388 29.3077 7.95468 29.6693 7.45548C29.9045 7.13068 30.2837 6.96908 30.6565 6.99628L37.1269 7.00908L39.1397 0.775484C39.3285 0.188284 39.9573 -0.134916 40.5445 0.0538839C40.9029 0.169084 41.1621 0.449084 41.2677 0.783484ZM41.4021 8.46668L40.2021 4.75148L39.0021 8.46668C38.8581 8.91628 38.4373 9.24109 37.9397 9.24109L34.0341 9.23308L37.1989 11.5227C37.5813 11.7995 37.7589 12.3003 37.6053 12.7739L36.3909 16.4891L39.5301 14.1995C39.9125 13.9099 40.4533 13.8891 40.8613 14.1867L44.0181 16.4891L42.8165 12.8155C42.6469 12.3563 42.7941 11.8235 43.2101 11.5227L46.3749 9.23308L42.5205 9.24109C42.0245 9.26349 41.5589 8.95788 41.4021 8.46668Z" fill="white"/>
</svg>
