<svg width="80" height="80" viewBox="0 0 80 80" fill="none" xmlns="http://www.w3.org/2000/svg">
<path d="M58.4746 53.3769L49.8211 60.8973L45.5254 57.166C44.947 56.6635 44.0122 56.6635 43.4338 57.166C42.8554 57.6686 42.8554 58.4809 43.4338 58.9834L48.7753 63.6234C49.0637 63.874 49.4424 64 49.8211 64C50.1998 64 50.5785 63.874 50.8669 63.6234L60.5662 55.1943C61.1446 54.6918 61.1446 53.8795 60.5662 53.3769C59.9878 52.8744 59.053 52.8744 58.4746 53.3769Z" fill="white"/>
<path d="M68.6811 48.8411C66.9133 48.8411 65.5931 48.3868 64.7546 47.4898C63.4239 46.0678 63.6121 43.899 63.6134 43.8836C63.6516 43.5217 63.5318 43.1623 63.2817 42.8928C63.0329 42.6233 62.6775 42.4693 62.305 42.4693H55.4985V1.28333C55.4985 0.57365 54.9088 0 54.1822 0H15.4598C15.4335 0 15.4098 0.0128334 15.3835 0.0154001C15.2677 0.0218168 15.1571 0.0436334 15.0479 0.0795667C15.0215 0.08855 14.9926 0.0859834 14.9676 0.0962501C14.9478 0.10395 14.932 0.118067 14.9136 0.12705C14.7938 0.182233 14.6819 0.252817 14.5806 0.343933C14.5648 0.35805 14.545 0.363183 14.5292 0.3773L8.87186 5.8982L0.380519 14.177C0.266002 14.2886 0.185709 14.4195 0.121211 14.5581C0.101467 14.6005 0.0896201 14.6415 0.075141 14.6852C0.0396014 14.7878 0.0198573 14.8931 0.0119596 15.0009C0.00932708 15.0368 -0.00120294 15.0702 0.000113338 15.1061V70.3575C0.000113338 71.0671 0.589808 71.6408 1.3164 71.6408H41.0497C44.0008 74.3743 47.6864 76.1761 52.0341 76.9769C52.1144 76.9923 52.1973 77 52.2789 77C52.3605 77 52.4434 76.9923 52.525 76.9769C57.8402 75.9926 62.1457 73.5568 65.3193 69.7376C68.3296 66.1327 69.9882 61.473 69.9882 56.6155L70 50.1244C70 49.7831 69.8631 49.4558 69.6156 49.2158C69.3682 48.9746 69.0339 48.8385 68.6837 48.8385L68.6811 48.8411ZM11.7822 6.68873L14.1475 4.38258V13.801H4.4939L11.7808 6.69002L11.7822 6.68873ZM2.63136 69.0741V16.3663H15.4651C16.1917 16.3663 16.7814 15.7927 16.7814 15.083V2.56667H52.866V42.4693H42.2488C41.8789 42.4693 41.5262 42.6246 41.2774 42.8903C41.0786 43.102 40.9878 43.3767 40.9641 43.6603H10.6475C9.92093 43.6603 9.33124 44.2339 9.33124 44.9436C9.33124 45.6533 9.92093 46.2269 10.6475 46.2269H40.5679C40.3955 46.6658 40.152 47.106 39.79 47.4923C38.9515 48.3868 37.6326 48.8411 35.8701 48.8411C35.1435 48.8411 34.5538 49.4147 34.5538 50.1244V52.5679H10.6475C9.92093 52.5679 9.33124 53.1416 9.33124 53.8512C9.33124 54.5609 9.92093 55.1346 10.6475 55.1346H34.5552V56.6181C34.5565 57.2084 34.5841 57.7949 34.6341 58.3775C34.6499 58.5662 34.6815 58.751 34.7026 58.9396C34.746 59.3311 34.7895 59.7238 34.8553 60.11C34.8934 60.3333 34.9461 60.5528 34.9908 60.7748C35.0606 61.12 35.1277 61.4652 35.2146 61.804C35.2752 62.0402 35.3489 62.2712 35.4173 62.5048C35.5108 62.823 35.6016 63.14 35.7095 63.4518C35.7925 63.6905 35.8859 63.9241 35.9767 64.159C36.0913 64.4567 36.2071 64.7531 36.3348 65.0445C36.4388 65.2806 36.5533 65.5116 36.6665 65.7439C36.8021 66.0236 36.9403 66.3008 37.089 66.5729C37.214 66.8026 37.347 67.0272 37.4813 67.2518C37.6392 67.5162 37.7998 67.7767 37.9696 68.0321C38.1144 68.2502 38.2658 68.4645 38.4184 68.6776C38.5119 68.8085 38.5961 68.9458 38.6935 69.0729L2.63136 69.0741ZM67.353 56.6143C67.353 60.8839 65.9051 64.97 63.2738 68.1193C60.5491 71.3983 56.8503 73.5132 52.2763 74.4089C48.3656 73.6454 45.0762 71.9783 42.495 69.4501C42.0501 69.0164 41.6381 68.5698 41.2669 68.1193C38.6475 64.9713 37.1996 60.8839 37.1877 56.6143V51.3359C39.1082 51.1177 40.6416 50.4016 41.7565 49.2004C43.0083 47.8504 43.4137 46.1923 43.5348 45.036H61.0177C61.1362 46.191 61.5403 47.8465 62.7881 49.1966C63.903 50.4003 65.4378 51.1164 67.3635 51.3359L67.353 56.6143Z" fill="#DFB48F"/>
<path d="M10.3582 28H45.6418C46.3915 28 47 27.3295 47 26.5C47 25.6705 46.3915 25 45.6418 25H10.3582C9.60848 25 9 25.6705 9 26.5C9 27.3295 9.60848 28 10.3582 28Z" fill="white"/>
<path d="M10.3582 37H45.6418C46.3915 37 47 36.3295 47 35.5C47 34.6705 46.3915 34 45.6418 34H10.3582C9.60848 34 9 34.6705 9 35.5C9 36.3295 9.60848 37 10.3582 37Z" fill="white"/>
<path d="M27.4436 9H45.5564C46.3533 9 47 8.3295 47 7.5C47 6.6705 46.3533 6 45.5564 6H27.4436C26.6467 6 26 6.6705 26 7.5C26 8.3295 26.6467 9 27.4436 9Z" fill="#DFB48F"/>
<path d="M27.4436 16H45.5564C46.3533 16 47 15.3295 47 14.5C47 13.6705 46.3533 13 45.5564 13H27.4436C26.6467 13 26 13.6705 26 14.5C26 15.3295 26.6467 16 27.4436 16Z" fill="#DFB48F"/>
</svg>
