<svg width="80" height="80" viewBox="0 0 80 80" fill="none" xmlns="http://www.w3.org/2000/svg">
<g clip-path="url(#clip0_2305_20080)">
<path d="M20.0936 20.5162C21.7575 20.8727 23.3425 20.0682 24.0386 18.5162L24.354 17.813C25.1963 18.7297 25.964 19.6193 26.6786 20.5062C27.0849 21.0103 27.8228 21.0895 28.3271 20.6836C28.8314 20.2774 28.9106 19.5394 28.5045 19.0352C27.4211 17.6906 26.2242 16.3435 24.8454 14.917C24.5752 14.6372 24.1833 14.5104 23.8002 14.577C23.4169 14.6442 23.0919 14.8971 22.9328 15.2521L21.8993 17.5569C21.5393 18.3596 20.8017 18.27 20.5842 18.2236C20.3668 18.1772 19.6572 17.9569 19.6572 17.0772V7.57242C19.6572 6.92592 20.183 6.40009 20.8295 6.40009H30.2997C31.1799 6.40009 31.3999 7.11021 31.4463 7.32795C31.4927 7.54553 31.5816 8.28363 30.778 8.64283L28.4804 9.66964C28.1314 9.82564 27.8804 10.1419 27.8077 10.5173C27.7351 10.8926 27.85 11.2798 28.1158 11.5547C34.1656 17.8137 37.915 23.9085 40.2731 31.3165C40.4173 31.7692 40.8202 32.0901 41.2937 32.1293C41.7675 32.1684 42.2173 31.918 42.4338 31.4952C45.5214 25.4634 46.8954 19.4969 47.0284 11.5449C47.035 11.1558 46.848 10.7891 46.5296 10.5656C46.2111 10.3422 45.8025 10.2913 45.4391 10.4298L43.0702 11.3318C42.2481 11.6451 41.7898 11.06 41.669 10.8734C41.5482 10.6868 41.2021 10.0293 41.8241 9.40719L48.545 2.6863C49.002 2.22925 49.7457 2.22925 50.2028 2.6863L56.8993 9.38281C57.5217 10.0052 57.175 10.6628 57.0539 10.8495C56.9329 11.0363 56.474 11.6209 55.6516 11.3068L53.3092 10.4113C52.9521 10.2747 52.5507 10.321 52.234 10.5351C51.9174 10.7493 51.7248 11.1044 51.7184 11.4866C51.5721 20.1973 49.9138 27.1632 46.341 34.0726C46.1228 34.4946 46.1809 35.0065 46.4879 35.3688C46.7146 35.6363 47.0437 35.7834 47.3825 35.7834C47.5027 35.7834 47.6241 35.7648 47.7425 35.7266C51.4938 34.5155 54.7072 32.9637 57.8554 30.8429C58.3924 30.4812 58.5345 29.7526 58.1728 29.2155C57.8111 28.6784 57.0825 28.5365 56.5454 28.8982C54.355 30.3738 52.1288 31.5574 49.6868 32.5356C52.3635 26.5778 53.7295 20.4523 54.0161 13.1916L54.8144 13.4968C56.4047 14.1046 58.0951 13.5533 59.0212 12.1251C59.9474 10.6968 59.7609 8.92841 58.5571 7.72482L51.8606 1.02831C50.4893 -0.342692 48.2581 -0.342848 46.887 1.02831L40.1661 7.7492C38.9633 8.95202 38.7762 10.7196 39.7009 12.1476C40.6255 13.5755 42.315 14.1286 43.9046 13.5227L44.6339 13.2451C44.3971 18.9337 43.4581 23.4234 41.5529 27.8653C39.2343 21.7631 35.8724 16.4695 30.9461 11.1358L31.7347 10.7834C33.2889 10.0889 34.0943 8.50356 33.7394 6.83869C33.3842 5.17398 32.002 4.05542 30.2997 4.05542H20.8295C18.8901 4.05542 17.3125 5.63307 17.3125 7.57242V17.077C17.3125 18.7782 18.4301 20.1603 20.0936 20.5162Z" fill="white"/>
<path d="M78.9689 46.8877L72.248 40.1668C71.0452 38.9637 69.2775 38.777 67.8496 39.7016C66.4217 40.6262 65.8691 42.3156 66.4745 43.9053L66.7466 44.6199C61.0397 44.3872 56.5488 43.4642 52.1295 41.5925C58.2369 39.2721 63.5359 35.9061 68.8736 30.9739L69.2138 31.7354C69.9083 33.2896 71.4939 34.0954 73.1585 33.7401C74.8232 33.3849 75.9418 32.0027 75.9418 30.3005V20.8302C75.9418 18.8909 74.3641 17.3132 72.4248 17.3132H62.9201C61.219 17.3132 59.8369 18.4309 59.481 20.0943C59.1251 21.7578 59.9288 23.3432 61.4812 24.0393L62.2124 24.3672C61.5087 25.0148 60.8214 25.6176 60.1348 26.19C59.6375 26.6045 59.5706 27.3437 59.9851 27.8411C60.4 28.3385 61.139 28.4054 61.6362 27.9908C62.7721 27.0437 63.9076 26.019 65.1077 24.8579C65.3874 24.5875 65.5146 24.1959 65.4472 23.8128C65.38 23.4297 65.1271 23.1049 64.7723 22.9457L62.4404 21.9002C61.6378 21.5402 61.7272 20.8027 61.7738 20.5851C61.8202 20.3677 62.0404 19.658 62.9201 19.658H72.4248C73.0713 19.658 73.5971 20.184 73.5971 20.8304V30.3006C73.5971 31.1808 72.887 31.4007 72.6693 31.4472C72.4515 31.4936 71.7134 31.5825 71.3544 30.7789L70.3396 28.5081C70.1836 28.159 69.8672 27.908 69.4918 27.8353C69.1165 27.7629 68.7291 27.8778 68.4543 28.1435C62.1871 34.204 56.083 37.9588 48.6626 40.318C48.2091 40.4621 47.8877 40.8661 47.8493 41.3404C47.8108 41.8146 48.0628 42.2651 48.4872 42.4805C54.488 45.5264 60.4572 46.8822 68.4468 47.0135C68.8351 47.0196 69.2026 46.8331 69.426 46.5146C69.6493 46.196 69.7001 45.7876 69.5618 45.4242L68.6657 43.0709C68.3527 42.2489 68.9373 41.7906 69.1241 41.6697C69.3109 41.5489 69.9682 41.2027 70.5903 41.8248L77.3112 48.5457C77.7683 49.0027 77.7683 49.7465 77.3112 50.2035L70.6147 56.9C69.9923 57.5223 69.3347 57.1759 69.1479 57.0546C68.9612 56.9336 68.3763 56.4747 68.6907 55.6524L69.5923 53.2938C69.7289 52.9368 69.6826 52.5355 69.4686 52.2188C69.2546 51.9021 68.8997 51.7096 68.5175 51.703C59.8266 51.5528 52.8512 49.9061 45.9001 46.3636C45.4774 46.1482 44.9665 46.2087 44.6058 46.5171C44.2452 46.8255 44.1061 47.3208 44.2534 47.7718C46.3412 54.1669 49.6006 59.3441 55.1515 65.0832C55.4221 65.3628 55.8138 65.4899 56.1968 65.4229C56.5799 65.3557 56.9048 65.1029 57.064 64.7479L58.0976 62.443C58.4576 61.6403 59.1951 61.7297 59.4127 61.7763C59.6301 61.8227 60.3398 62.043 60.3398 62.9227V72.4273C60.3398 73.0738 59.8139 73.5996 59.1674 73.5996H49.6972C48.817 73.5996 48.5971 72.8895 48.5507 72.6718C48.5042 72.4542 48.4153 71.7161 49.2189 71.3569L51.517 70.3299C51.8659 70.1739 52.1169 69.8577 52.1896 69.4826C52.2623 69.1074 52.1474 68.7204 51.882 68.4455C45.8512 62.1988 42.0878 56.1067 39.6796 48.6926C39.5329 48.2413 39.1289 47.9229 38.6557 47.8861C38.1813 47.8482 37.734 48.101 37.5192 48.5241C34.476 54.5178 33.1198 60.4766 32.9848 68.4487C32.9782 68.8378 33.165 69.2047 33.4834 69.4282C33.802 69.6517 34.2106 69.7028 34.5741 69.5642L36.9266 68.6684C37.7485 68.3553 38.207 68.94 38.3278 69.1268C38.4486 69.3134 38.7947 69.9709 38.1727 70.593L31.4518 77.3139C30.9948 77.771 30.2509 77.771 29.794 77.3139L23.0975 70.6174C22.4751 69.995 22.8218 69.3374 22.9429 69.1506C23.064 68.9639 23.5228 68.3792 24.3452 68.6934L26.7047 69.5953C27.0614 69.7314 27.4626 69.6856 27.7793 69.4716C28.096 69.2578 28.2886 68.903 28.2954 68.521C28.4497 59.8466 30.0963 52.8827 33.6339 45.9408C33.8493 45.5179 33.7888 45.0071 33.4804 44.6465C33.172 44.2859 32.6768 44.1466 32.2257 44.294C29.1591 45.2952 26.3938 46.5604 23.7721 48.1615C23.2196 48.499 23.0453 49.2205 23.3828 49.773C23.7202 50.3254 24.4416 50.4999 24.9943 50.1626C26.6825 49.1314 28.4361 48.2479 30.3028 47.4903C27.6835 53.4276 26.2969 59.6694 26.0003 66.8158L25.1827 66.5031C23.5924 65.8951 21.902 66.4466 20.9759 67.8748C20.0497 69.303 20.2362 71.0715 21.44 72.2751L28.1365 78.9717C28.8222 79.6573 29.7227 80.0001 30.6234 80.0001C31.524 80.0001 32.4245 79.6573 33.1103 78.9716L39.8312 72.2507C41.034 71.0479 41.2211 69.2803 40.2964 67.8523C39.3718 66.4245 37.6827 65.872 36.0927 66.4772L35.3809 66.7482C35.6206 61.1126 36.5663 56.5432 38.4205 52.1454C40.7684 58.1996 44.2043 63.5967 49.0535 68.8631L48.2626 69.2165C46.7084 69.911 45.9029 71.4963 46.2579 73.1612C46.613 74.8259 47.9953 75.9445 49.6975 75.9445H59.1678C61.1071 75.9445 62.6847 74.3668 62.6847 72.4275V62.9228C62.6847 61.2217 61.5671 59.8396 59.9037 59.4837C58.2402 59.1273 56.6547 59.9317 55.9587 61.4837L55.6426 62.1885C51.7693 57.9836 49.2466 54.1507 47.4462 49.6933C53.3947 52.3181 59.6497 53.7058 66.8131 53.9992L66.5011 54.8152C65.8932 56.4051 66.4445 58.0958 67.8727 59.0219C69.3009 59.9481 71.0694 59.7616 72.273 58.5579L78.9697 51.8613C80.34 50.4902 80.34 48.259 78.9689 46.8877Z" fill="#DFB48F"/>
<path d="M18.5163 55.9604L17.8397 55.657C19.0652 54.5303 20.2458 53.532 21.4191 52.6294C21.9323 52.2346 22.0283 51.4987 21.6336 50.9853C21.2387 50.4722 20.5028 50.3762 19.9895 50.7709C18.347 52.0344 16.6965 53.4718 14.9439 55.1654C14.664 55.4358 14.5367 55.8274 14.6038 56.2107C14.671 56.5939 14.9238 56.9189 15.2789 57.0782L17.5568 58.0997C18.3595 58.4597 18.2701 59.1971 18.2235 59.4147C18.1771 59.6321 17.9568 60.3418 17.0771 60.3418H7.57263C6.92613 60.3418 6.4003 59.816 6.4003 59.1695V49.6992C6.4003 48.819 7.11042 48.5991 7.32816 48.5527C7.54559 48.5064 8.28385 48.4173 8.64305 49.2209L9.68189 51.5457C9.83773 51.8946 10.1539 52.1455 10.5291 52.2183C10.9041 52.291 11.2913 52.1763 11.5662 51.911C17.8046 45.891 23.8874 42.1328 31.2892 39.7255C31.7395 39.5789 32.0576 39.1758 32.0953 38.7035C32.1328 38.2313 31.8826 37.783 31.461 37.567C25.4363 34.4822 19.4804 33.1076 11.5457 32.971C11.1607 32.968 10.7897 33.1511 10.5661 33.4696C10.3425 33.788 10.2915 34.1966 10.43 34.5604L11.3319 36.9285C11.6448 37.7505 11.0602 38.2088 10.8734 38.3296C10.6867 38.4505 10.0294 38.7967 9.40725 38.1746L2.68636 31.4537C2.2293 30.9966 2.2293 30.2529 2.68636 29.7959L9.38287 23.0994C10.0055 22.4771 10.6629 22.8236 10.8495 22.9448C11.0363 23.0657 11.6212 23.5247 11.3067 24.347L10.4111 26.6903C10.2745 27.0473 10.3207 27.4484 10.5347 27.7651C10.7487 28.0818 11.1037 28.2743 11.4857 28.2809C20.1797 28.4311 27.1338 30.0894 34.0343 33.6574C34.4565 33.8756 34.9683 33.8174 35.3306 33.5104C35.6931 33.2034 35.8344 32.7079 35.6884 32.2559C34.6321 28.9834 33.2762 26.0475 31.5437 23.2804C31.2003 22.7317 30.4768 22.5654 29.9279 22.9088C29.3791 23.2524 29.2128 23.9758 29.5563 24.5246C30.7018 26.3541 31.6728 28.2645 32.4947 30.3104C26.5477 27.6391 20.4347 26.2737 13.1909 25.9839L13.4967 25.1841C14.1045 23.5939 13.5532 21.9034 12.125 20.9773C10.6967 20.0513 8.92847 20.2376 7.72472 21.4414L1.02837 28.1383C-0.342789 29.5097 -0.342789 31.7408 1.02837 33.112L7.74926 39.8329C8.95207 41.0359 10.7198 41.2226 12.1477 40.2981C13.5756 39.3735 14.1281 37.6841 13.5229 36.0944L13.2458 35.3668C18.9291 35.6067 23.4157 36.5491 27.8575 38.4591C21.8069 40.8051 16.4128 44.238 11.1492 49.0823L10.7836 48.2643C10.0891 46.7101 8.50362 45.9045 6.83891 46.2596C5.1742 46.6147 4.05564 47.997 4.05564 49.6992V59.1695C4.05564 61.1088 5.63328 62.6865 7.57263 62.6865H17.0773C18.7784 62.6865 20.1605 61.5688 20.5164 59.9054C20.8723 58.2419 20.0684 56.6566 18.5163 55.9604Z" fill="#DFB48F"/>
</g>
<defs>
<clipPath id="clip0_2305_20080">
<rect width="80" height="80" fill="white"/>
</clipPath>
</defs>
</svg>
