<svg width="80" height="80" viewBox="0 0 80 80" fill="none" xmlns="http://www.w3.org/2000/svg">
<path fill-rule="evenodd" clip-rule="evenodd" d="M38.0009 24.5906C45.6505 24.5906 52.5769 27.6914 57.5897 32.7058C62.6025 37.7186 65.7049 44.645 65.7049 52.2962C65.7049 59.9474 62.6041 66.8722 57.5897 71.885C52.5753 76.8978 45.6505 79.9986 38.0009 79.9986C30.3513 79.9986 23.4249 76.8978 18.4105 71.885C13.3977 66.8722 10.2969 59.9458 10.2969 52.2962C10.2969 44.6466 13.3977 37.7202 18.4105 32.7058C23.4249 27.6914 30.3513 24.5906 38.0009 24.5906ZM31.8697 47.725L31.8921 62.229H46.4601C46.9465 62.229 47.3913 62.0658 47.7337 61.7858C48.0777 61.5042 48.3273 61.1042 48.4249 60.6306L50.5897 50.0882C50.6537 49.7778 50.6505 49.4802 50.5817 49.2034C50.5129 48.9266 50.3785 48.661 50.1769 48.4146C49.9785 48.1698 49.7465 47.9858 49.4905 47.8642C49.2361 47.7426 48.9449 47.6818 48.6233 47.6818H40.9721C40.3529 47.6818 39.8521 47.181 39.8521 46.5618C39.8521 46.4002 39.8857 46.2482 39.9481 46.109L40.1913 45.4178C41.4041 41.965 42.0473 40.133 40.3609 38.5666C40.1913 38.4082 40.0057 38.3026 39.8137 38.2498C39.6217 38.197 39.4057 38.1938 39.1769 38.2434C38.9481 38.293 38.7529 38.3842 38.6009 38.5106C38.4473 38.6386 38.3225 38.8114 38.2345 39.0258L35.2281 46.2226C34.6233 47.669 33.1689 47.7714 31.8697 47.725ZM29.6617 63.1954L29.6361 46.6658C29.4169 45.4882 27.4329 45.2162 27.4329 47.2914V62.7298C27.4329 64.6034 29.1609 64.9026 29.6617 63.1954ZM46.4601 64.469C47.4713 64.469 48.4057 64.1186 49.1433 63.5186C49.8777 62.9186 50.4089 62.0722 50.6137 61.0786L52.7785 50.5362C52.9097 49.8962 52.9001 49.269 52.7529 48.6706C52.6057 48.0738 52.3241 47.5138 51.9113 47.0066C51.4969 46.4978 51.0041 46.109 50.4457 45.8434C49.8873 45.5778 49.2745 45.4418 48.6249 45.4418H42.5497C43.9081 41.541 44.4873 39.3474 41.8841 36.9298C41.4505 36.5266 40.9465 36.2466 40.4009 36.0962C39.8553 35.9458 39.2809 35.9298 38.7049 36.0546C38.1273 36.1794 37.6121 36.4322 37.1753 36.7954C36.7401 37.157 36.3977 37.621 36.1689 38.1682L33.1625 45.365C33.0889 45.5426 32.2841 45.5122 31.5929 45.477C30.1913 42.3346 25.1913 43.0082 25.1913 47.293V62.7314C25.1913 66.8738 29.9481 67.957 31.5625 64.469H46.4601ZM38.0009 29.2658C31.6425 29.2658 25.8841 31.8434 21.7177 36.0114C17.5497 40.1794 14.9721 45.9362 14.9721 52.2946C14.9721 58.653 17.5497 64.4114 21.7177 68.5778C25.8857 72.7458 31.6425 75.3234 38.0009 75.3234C44.3593 75.3234 50.1177 72.7458 54.2841 68.5778C58.4521 64.4098 61.0297 58.653 61.0297 52.2946C61.0297 45.9362 58.4521 40.1778 54.2841 36.0114C50.1177 31.8434 44.3593 29.2658 38.0009 29.2658ZM52.7001 37.5954C48.9385 33.8338 43.7417 31.5058 38.0009 31.5058C32.2601 31.5058 27.0633 33.8322 23.3001 37.5954C19.5385 41.357 17.2105 46.5538 17.2105 52.2946C17.2105 58.0354 19.5369 63.2322 23.3001 66.9954C27.0617 70.757 32.2601 73.085 38.0009 73.085C43.7417 73.085 48.9385 70.7586 52.7001 66.9954C56.4617 63.2338 58.7897 58.0354 58.7897 52.2946C58.7897 46.5538 56.4633 41.357 52.7001 37.5954ZM56.0073 34.2882C51.3993 29.6802 45.0329 26.8306 38.0009 26.8306C30.9689 26.8306 24.6025 29.6802 19.9945 34.2882C15.3865 38.8962 12.5369 45.2626 12.5369 52.2946C12.5369 59.3266 15.3865 65.693 19.9945 70.301C24.6025 74.909 30.9689 77.7586 38.0009 77.7586C45.0329 77.7586 51.3993 74.909 56.0073 70.301C60.6153 65.693 63.4649 59.3266 63.4649 52.2946C63.4649 45.2626 60.6153 38.8962 56.0073 34.2882Z" fill="#DFB48F"/>
<path fill-rule="evenodd" clip-rule="evenodd" d="M11.8117 9.42188C11.7061 9.08748 11.4469 8.80748 11.0869 8.69228C10.4997 8.50348 9.87089 8.82668 9.68209 9.41388L7.67089 15.6475L1.20049 15.6347C0.82769 15.6075 0.44849 15.7691 0.21329 16.0939C-0.14991 16.5947 -0.0379096 17.2939 0.46289 17.6555L5.77009 21.4955L3.73329 27.7227L3.73649 27.7243C3.63089 28.0523 3.67729 28.4251 3.89489 28.7259C4.25809 29.2235 4.95409 29.3339 5.45169 28.9707L10.7461 25.1083L15.9717 28.9195C16.2581 29.1627 16.6597 29.2555 17.0421 29.1307C17.6293 28.9403 17.9509 28.3083 17.7589 27.7227L15.7221 21.4955L21.0293 17.6555L21.0277 17.6539C21.3077 17.4507 21.4885 17.1227 21.4885 16.7499C21.4885 16.1339 20.9893 15.6347 20.3733 15.6347L13.8213 15.6475L11.8117 9.42188ZM11.9445 17.1051L10.7445 13.3899L9.54449 17.1051C9.40049 17.5547 8.97969 17.8795 8.48209 17.8795L4.57489 17.8715L7.73969 20.1611C8.12209 20.4379 8.29969 20.9387 8.14609 21.4123L6.93169 25.1275L10.0709 22.8379C10.4533 22.5483 10.9941 22.5275 11.4021 22.8251L14.5589 25.1275L13.3573 21.4539C13.1877 20.9947 13.3349 20.4619 13.7509 20.1611L16.9157 17.8715L13.0613 17.8795C12.5685 17.9035 12.1029 17.5963 11.9445 17.1051ZM66.7237 9.42188C66.6181 9.08748 66.3589 8.80748 65.9989 8.69228C65.4117 8.50348 64.7829 8.82668 64.5941 9.41388L62.5829 15.6475L56.1125 15.6347C55.7397 15.6075 55.3605 15.7691 55.1253 16.0939C54.7621 16.5947 54.8741 17.2939 55.3749 17.6555L60.6821 21.4955L58.6453 27.7227L58.6485 27.7243C58.5429 28.0523 58.5893 28.4251 58.8069 28.7259C59.1701 29.2235 59.8661 29.3339 60.3637 28.9707L65.6581 25.1083L70.8837 28.9195C71.1701 29.1627 71.5717 29.2555 71.9541 29.1307C72.5413 28.9403 72.8629 28.3083 72.6709 27.7227L70.6341 21.4955L75.9413 17.6555L75.9397 17.6539C76.2197 17.4507 76.4005 17.1227 76.4005 16.7499C76.4005 16.1339 75.9013 15.6347 75.2853 15.6347L68.7333 15.6475L66.7237 9.42188ZM66.8581 17.1051L65.6581 13.3899L64.4581 17.1051C64.3141 17.5547 63.8933 17.8795 63.3957 17.8795L59.4885 17.8715L62.6533 20.1611C63.0357 20.4379 63.2133 20.9387 63.0597 21.4123L61.8453 25.1275L64.9845 22.8379C65.3669 22.5483 65.9077 22.5275 66.3157 22.8251L69.4725 25.1275L68.2709 21.4539C68.1013 20.9947 68.2485 20.4619 68.6645 20.1611L71.8293 17.8715L67.9749 17.8795C67.4805 17.9035 67.0149 17.5963 66.8581 17.1051ZM39.2677 0.783484L41.2773 7.00908L47.8293 6.99628C48.4453 6.99628 48.9445 7.49548 48.9445 8.11148C48.9445 8.48268 48.7621 8.81228 48.4837 9.01548L48.4853 9.01708L43.1781 12.8571L45.2149 19.0843C45.4053 19.6715 45.0853 20.3019 44.4981 20.4923C44.1157 20.6171 43.7141 20.5227 43.4277 20.2811L38.2021 16.4699L32.9077 20.3323C32.4101 20.6955 31.7125 20.5851 31.3509 20.0875C31.1317 19.7867 31.0853 19.4139 31.1925 19.0859L31.1893 19.0843L33.2261 12.8571L27.9189 9.01708C27.4181 8.65388 27.3077 7.95468 27.6693 7.45548C27.9045 7.13068 28.2837 6.96908 28.6565 6.99628L35.1269 7.00908L37.1397 0.775484C37.3285 0.188284 37.9573 -0.134916 38.5445 0.0538839C38.9029 0.169084 39.1621 0.449084 39.2677 0.783484ZM39.4021 8.46668L38.2021 4.75148L37.0021 8.46668C36.8581 8.91628 36.4373 9.24109 35.9397 9.24109L32.0341 9.23308L35.1989 11.5227C35.5813 11.7995 35.7589 12.3003 35.6053 12.7739L34.3909 16.4891L37.5301 14.1995C37.9125 13.9099 38.4533 13.8891 38.8613 14.1867L42.0181 16.4891L40.8165 12.8155C40.6469 12.3563 40.7941 11.8235 41.2101 11.5227L44.3749 9.23308L40.5205 9.24109C40.0245 9.26349 39.5589 8.95788 39.4021 8.46668Z" fill="white"/>
</svg>
