<svg width="80" height="80" viewBox="0 0 80 80" fill="none" xmlns="http://www.w3.org/2000/svg">
<g clip-path="url(#clip0_2305_16353)">
<path d="M20.0936 20.5162C21.7575 20.8727 23.3425 20.0682 24.0386 18.5162L24.354 17.813C25.1963 18.7297 25.964 19.6193 26.6786 20.5062C27.0849 21.0103 27.8228 21.0895 28.3271 20.6836C28.8314 20.2774 28.9106 19.5394 28.5045 19.0352C27.4211 17.6906 26.2242 16.3435 24.8454 14.917C24.5752 14.6372 24.1833 14.5104 23.8002 14.577C23.4169 14.6442 23.0919 14.8971 22.9328 15.2521L21.8993 17.5569C21.5393 18.3596 20.8017 18.27 20.5842 18.2236C20.3668 18.1772 19.6572 17.9569 19.6572 17.0772V7.57242C19.6572 6.92592 20.183 6.40009 20.8295 6.40009H30.2997C31.1799 6.40009 31.3999 7.11021 31.4463 7.32795C31.4927 7.54553 31.5816 8.28363 30.778 8.64283L28.4804 9.66964C28.1314 9.82564 27.8804 10.1419 27.8077 10.5173C27.7351 10.8926 27.85 11.2798 28.1158 11.5547C34.1656 17.8137 37.915 23.9085 40.2731 31.3165C40.4173 31.7692 40.8202 32.0901 41.2937 32.1293C41.7675 32.1684 42.2173 31.918 42.4338 31.4952C45.5214 25.4634 46.8954 19.4969 47.0284 11.5449C47.035 11.1558 46.848 10.7891 46.5296 10.5656C46.2111 10.3422 45.8025 10.2913 45.4391 10.4298L43.0702 11.3318C42.2481 11.6451 41.7898 11.06 41.669 10.8734C41.5482 10.6868 41.2021 10.0293 41.8241 9.40719L48.545 2.6863C49.002 2.22925 49.7457 2.22925 50.2028 2.6863L56.8993 9.38281C57.5217 10.0052 57.175 10.6628 57.0539 10.8495C56.9329 11.0363 56.474 11.6209 55.6516 11.3068L53.3092 10.4113C52.9521 10.2747 52.5507 10.321 52.234 10.5351C51.9174 10.7493 51.7248 11.1044 51.7184 11.4866C51.5721 20.1973 49.9138 27.1632 46.341 34.0726C46.1228 34.4946 46.1809 35.0065 46.4879 35.3688C46.7146 35.6363 47.0437 35.7834 47.3825 35.7834C47.5027 35.7834 47.6241 35.7648 47.7425 35.7266C51.4938 34.5155 54.7072 32.9637 57.8554 30.8429C58.3924 30.4812 58.5345 29.7526 58.1728 29.2155C57.8111 28.6784 57.0825 28.5365 56.5454 28.8982C54.355 30.3738 52.1288 31.5574 49.6868 32.5356C52.3635 26.5778 53.7295 20.4523 54.0161 13.1916L54.8144 13.4968C56.4047 14.1046 58.0951 13.5533 59.0212 12.1251C59.9474 10.6968 59.7609 8.92841 58.5571 7.72482L51.8606 1.02831C50.4893 -0.342692 48.2581 -0.342848 46.887 1.02831L40.1661 7.7492C38.9633 8.95202 38.7762 10.7196 39.7009 12.1476C40.6255 13.5755 42.315 14.1286 43.9046 13.5227L44.6339 13.2451C44.3971 18.9337 43.4581 23.4234 41.5529 27.8653C39.2343 21.7631 35.8724 16.4695 30.9461 11.1358L31.7347 10.7834C33.2889 10.0889 34.0943 8.50356 33.7394 6.83869C33.3842 5.17398 32.002 4.05542 30.2997 4.05542H20.8295C18.8901 4.05542 17.3125 5.63307 17.3125 7.57242V17.077C17.3125 18.7782 18.4301 20.1603 20.0936 20.5162Z" fill="white"/>
<path d="M78.9708 46.8877L72.2499 40.1668C71.0471 38.9637 69.2794 38.777 67.8515 39.7016C66.4236 40.6262 65.8711 42.3156 66.4765 43.9053L66.7486 44.6199C61.0417 44.3872 56.5507 43.4642 52.1315 41.5925C58.2389 39.2721 63.5378 35.9061 68.8755 30.9739L69.2158 31.7354C69.9103 33.2896 71.4959 34.0954 73.1605 33.7401C74.8252 33.3849 75.9437 32.0027 75.9437 30.3005V20.8302C75.9437 18.8909 74.3661 17.3132 72.4267 17.3132H62.9221C61.221 17.3132 59.8389 18.4309 59.483 20.0943C59.127 21.7578 59.9308 23.3432 61.4831 24.0393L62.2143 24.3672C61.5106 25.0148 60.8233 25.6176 60.1368 26.19C59.6394 26.6045 59.5725 27.3437 59.9871 27.8411C60.4019 28.3385 61.1409 28.4054 61.6382 27.9908C62.7741 27.0437 63.9095 26.019 65.1097 24.8579C65.3893 24.5875 65.5166 24.1959 65.4492 23.8128C65.382 23.4297 65.1291 23.1049 64.7742 22.9457L62.4424 21.9002C61.6397 21.5402 61.7291 20.8027 61.7757 20.5851C61.8221 20.3677 62.0424 19.658 62.9221 19.658H72.4267C73.0732 19.658 73.5991 20.184 73.5991 20.8304V30.3006C73.5991 31.1808 72.8889 31.4007 72.6712 31.4472C72.4535 31.4936 71.7154 31.5825 71.3563 30.7789L70.3415 28.5081C70.1856 28.159 69.8692 27.908 69.4937 27.8353C69.1184 27.7629 68.7311 27.8778 68.4563 28.1435C62.189 34.204 56.0849 37.9588 48.6645 40.318C48.2111 40.4621 47.8897 40.8661 47.8512 41.3404C47.8128 41.8146 48.0648 42.2651 48.4891 42.4805C54.4899 45.5264 60.4591 46.8822 68.4488 47.0135C68.8371 47.0196 69.2045 46.8331 69.4279 46.5146C69.6513 46.196 69.7021 45.7876 69.5637 45.4242L68.6676 43.0709C68.3547 42.2489 68.9393 41.7906 69.1261 41.6697C69.3129 41.5489 69.9702 41.2027 70.5923 41.8248L77.3132 48.5457C77.7702 49.0027 77.7702 49.7465 77.3132 50.2035L70.6167 56.9C69.9942 57.5223 69.3366 57.1759 69.1498 57.0546C68.9632 56.9336 68.3783 56.4747 68.6926 55.6524L69.5942 53.2938C69.7308 52.9368 69.6846 52.5355 69.4706 52.2188C69.2566 51.9021 68.9016 51.7096 68.5194 51.703C59.8286 51.5528 52.8532 49.9061 45.902 46.3636C45.4794 46.1482 44.9684 46.2087 44.6078 46.5171C44.2472 46.8255 44.1081 47.3208 44.2553 47.7718C46.3432 54.1669 49.6026 59.3441 55.1535 65.0832C55.424 65.3628 55.8157 65.4899 56.1987 65.4229C56.5818 65.3557 56.9068 65.1029 57.0659 64.7479L58.0996 62.443C58.4596 61.6403 59.1971 61.7297 59.4146 61.7763C59.6321 61.8227 60.3417 62.043 60.3417 62.9227V72.4273C60.3417 73.0738 59.8159 73.5996 59.1694 73.5996H49.6991C48.819 73.5996 48.599 72.8895 48.5526 72.6718C48.5062 72.4542 48.4172 71.7161 49.2208 71.3569L51.5189 70.3299C51.8678 70.1739 52.1188 69.8577 52.1915 69.4826C52.2642 69.1074 52.1493 68.7204 51.8839 68.4455C45.8531 62.1988 42.0898 56.1067 39.6815 48.6926C39.5349 48.2413 39.1308 47.9229 38.6577 47.8861C38.1833 47.8482 37.7359 48.101 37.5211 48.5241C34.4779 54.5178 33.1218 60.4766 32.9867 68.4487C32.9802 68.8378 33.1669 69.2047 33.4853 69.4282C33.8039 69.6517 34.2125 69.7028 34.5761 69.5642L36.9286 68.6684C37.7504 68.3553 38.2089 68.94 38.3297 69.1268C38.4506 69.3134 38.7966 69.9709 38.1747 70.593L31.4538 77.3139C30.9967 77.771 30.2528 77.771 29.7959 77.3139L23.0994 70.6174C22.477 69.995 22.8237 69.3374 22.9448 69.1506C23.066 68.9639 23.5248 68.3792 24.3471 68.6934L26.7066 69.5953C27.0633 69.7314 27.4646 69.6856 27.7813 69.4716C28.0979 69.2578 28.2905 68.903 28.2974 68.521C28.4517 59.8466 30.0983 52.8827 33.6359 45.9408C33.8513 45.5179 33.7908 45.0071 33.4824 44.6465C33.174 44.2859 32.6788 44.1466 32.2277 44.294C29.161 45.2952 26.3957 46.5604 23.7741 48.1615C23.2215 48.499 23.0472 49.2205 23.3847 49.773C23.7222 50.3254 24.4436 50.4999 24.9963 50.1626C26.6844 49.1314 28.4381 48.2479 30.3047 47.4903C27.6854 53.4276 26.2988 59.6694 26.0023 66.8158L25.1846 66.5031C23.5943 65.8951 21.904 66.4466 20.9778 67.8748C20.0517 69.303 20.2382 71.0715 21.4419 72.2751L28.1384 78.9717C28.8242 79.6573 29.7247 80.0001 30.6253 80.0001C31.526 80.0001 32.4265 79.6573 33.1122 78.9716L39.8331 72.2507C41.0359 71.0479 41.223 69.2803 40.2983 67.8523C39.3737 66.4245 37.6846 65.872 36.0946 66.4772L35.3828 66.7482C35.6226 61.1126 36.5683 56.5432 38.4224 52.1454C40.7704 58.1996 44.2062 63.5967 49.0555 68.8631L48.2645 69.2165C46.7103 69.911 45.9049 71.4963 46.2598 73.1612C46.615 74.8259 47.9972 75.9445 49.6995 75.9445H59.1697C61.1091 75.9445 62.6867 74.3668 62.6867 72.4275V62.9228C62.6867 61.2217 61.5691 59.8396 59.9056 59.4837C58.2422 59.1273 56.6567 59.9317 55.9606 61.4837L55.6446 62.1885C51.7712 57.9836 49.2485 54.1507 47.4481 49.6933C53.3967 52.3181 59.6516 53.7058 66.815 53.9992L66.503 54.8152C65.8951 56.4051 66.4464 58.0958 67.8747 59.0219C69.3029 59.9481 71.0714 59.7616 72.275 58.5579L78.9716 51.8613C80.342 50.4902 80.342 48.259 78.9708 46.8877Z" fill="#DFB48F"/>
<path d="M18.5163 55.9604L17.8397 55.657C19.0652 54.5303 20.2458 53.532 21.4191 52.6294C21.9323 52.2346 22.0283 51.4987 21.6336 50.9853C21.2387 50.4722 20.5028 50.3762 19.9895 50.7709C18.347 52.0344 16.6965 53.4718 14.9439 55.1654C14.664 55.4358 14.5367 55.8274 14.6038 56.2107C14.671 56.5939 14.9238 56.9189 15.2789 57.0782L17.5568 58.0997C18.3595 58.4597 18.2701 59.1971 18.2235 59.4147C18.1771 59.6321 17.9568 60.3418 17.0771 60.3418H7.57263C6.92613 60.3418 6.4003 59.816 6.4003 59.1695V49.6992C6.4003 48.819 7.11042 48.5991 7.32816 48.5527C7.54559 48.5064 8.28385 48.4173 8.64305 49.2209L9.68189 51.5457C9.83773 51.8946 10.1539 52.1455 10.5291 52.2183C10.9041 52.291 11.2913 52.1763 11.5662 51.911C17.8046 45.891 23.8874 42.1328 31.2892 39.7255C31.7395 39.5789 32.0576 39.1758 32.0953 38.7035C32.1328 38.2313 31.8826 37.783 31.461 37.567C25.4363 34.4822 19.4804 33.1076 11.5457 32.971C11.1607 32.968 10.7897 33.1511 10.5661 33.4696C10.3425 33.788 10.2915 34.1966 10.43 34.5604L11.3319 36.9285C11.6448 37.7505 11.0602 38.2088 10.8734 38.3296C10.6867 38.4505 10.0294 38.7967 9.40725 38.1746L2.68636 31.4537C2.2293 30.9966 2.2293 30.2529 2.68636 29.7959L9.38287 23.0994C10.0055 22.4771 10.6629 22.8236 10.8495 22.9448C11.0363 23.0657 11.6212 23.5247 11.3067 24.347L10.4111 26.6903C10.2745 27.0473 10.3207 27.4484 10.5347 27.7651C10.7487 28.0818 11.1037 28.2743 11.4857 28.2809C20.1797 28.4311 27.1338 30.0894 34.0343 33.6574C34.4565 33.8756 34.9683 33.8174 35.3306 33.5104C35.6931 33.2034 35.8344 32.7079 35.6884 32.2559C34.6321 28.9834 33.2762 26.0475 31.5437 23.2804C31.2003 22.7317 30.4768 22.5654 29.9279 22.9088C29.3791 23.2524 29.2128 23.9758 29.5563 24.5246C30.7018 26.3541 31.6728 28.2645 32.4947 30.3104C26.5477 27.6391 20.4347 26.2737 13.1909 25.9839L13.4967 25.1841C14.1045 23.5939 13.5532 21.9034 12.125 20.9773C10.6967 20.0513 8.92847 20.2376 7.72472 21.4414L1.02837 28.1383C-0.342789 29.5097 -0.342789 31.7408 1.02837 33.112L7.74926 39.8329C8.95207 41.0359 10.7198 41.2226 12.1477 40.2981C13.5756 39.3735 14.1281 37.6841 13.5229 36.0944L13.2458 35.3668C18.9291 35.6067 23.4157 36.5491 27.8575 38.4591C21.8069 40.8051 16.4128 44.238 11.1492 49.0823L10.7836 48.2643C10.0891 46.7101 8.50362 45.9045 6.83891 46.2596C5.1742 46.6147 4.05564 47.997 4.05564 49.6992V59.1695C4.05564 61.1088 5.63328 62.6865 7.57263 62.6865H17.0773C18.7784 62.6865 20.1605 61.5688 20.5164 59.9054C20.8723 58.2419 20.0684 56.6566 18.5163 55.9604Z" fill="#DFB48F"/>
</g>
<defs>
<clipPath id="clip0_2305_16353">
<rect width="80" height="80" fill="white"/>
</clipPath>
</defs>
</svg>
