<svg width="80" height="80" viewBox="0 0 80 80" fill="none" xmlns="http://www.w3.org/2000/svg">
<path d="M59.0702 18H68.7281C69.4305 18 70 18.571 70 19.2753V34.8753C70 35.5795 69.4305 36.1505 68.7281 36.1505C68.0256 36.1505 67.4561 35.5795 67.4561 34.8753V20.5505H60.3422V42.46C60.3422 43.1643 59.7727 43.7353 59.0702 43.7353C58.3678 43.7353 57.7983 43.1643 57.7983 42.46V19.2753C57.7983 18.5708 58.3678 18 59.0702 18ZM32.8625 47.5929C33.565 47.5929 34.1345 47.0219 34.1345 46.3176V33.571C34.1345 32.8667 33.565 32.2958 32.8625 32.2958H23.2049C22.5024 32.2958 21.9329 32.8667 21.9329 33.571V44.2721C21.9329 44.9764 22.5024 45.5474 23.2049 45.5474C23.9073 45.5474 24.4768 44.9764 24.4768 44.2721V34.8463H31.5906V46.3176C31.5906 47.0219 32.16 47.5929 32.8625 47.5929ZM5.27194 58.4571C5.97437 58.4571 6.54388 57.8861 6.54388 57.1818V42.0522H13.6577V49.6881C13.6577 50.3924 14.2272 50.9634 14.9296 50.9634C15.6321 50.9634 16.2016 50.3924 16.2016 49.6881V40.777C16.2016 40.0727 15.6321 39.5017 14.9296 39.5017H5.27194C4.56951 39.5017 4 40.0727 4 40.777V57.1818C4 57.8861 4.56951 58.4571 5.27194 58.4571ZM14.9298 58.8943C14.2274 58.8943 13.6578 59.4653 13.6578 60.1696V72.4492H6.54388V67.6633C6.54388 66.9591 5.97437 66.3881 5.27194 66.3881C4.56951 66.3881 4 66.9591 4 67.6633V73.7244C4 74.4287 4.56951 74.9997 5.27194 74.9997H14.9296C15.6321 74.9997 16.2016 74.4287 16.2016 73.7244V60.1696C16.2017 59.4653 15.6322 58.8943 14.9298 58.8943ZM39.8657 48.0705C39.8657 48.7747 40.4352 49.3457 41.1376 49.3457C41.8401 49.3457 42.4096 48.7747 42.4096 48.0705V27.723H49.5235V48.9587C49.5235 49.663 50.093 50.2339 50.7955 50.2339C51.4979 50.2339 52.0674 49.663 52.0674 48.9587V26.4478C52.0674 25.7435 51.4979 25.1725 50.7955 25.1725H41.1376C40.4352 25.1725 39.8657 25.7435 39.8657 26.4478V48.0705ZM50.7955 57.3129C50.093 57.3129 49.5235 57.8839 49.5235 58.5881V72.4495H42.4096V56.5425C42.4096 55.8382 41.8401 55.2672 41.1376 55.2672C40.4352 55.2672 39.8657 55.8382 39.8657 56.5425V73.7247C39.8657 74.429 40.4352 75 41.1376 75H50.7955C51.4979 75 52.0674 74.429 52.0674 73.7247V58.5881C52.0674 57.8837 51.498 57.3129 50.7955 57.3129ZM32.8625 53.5144C32.1601 53.5144 31.5906 54.0854 31.5906 54.7896V72.4493H24.4768V53.7487C24.4768 53.0444 23.9073 52.4734 23.2049 52.4734C22.5024 52.4734 21.9329 53.0444 21.9329 53.7487V73.7244C21.9329 74.4287 22.5024 74.9997 23.2049 74.9997H32.8625C33.565 74.9997 34.1345 74.4287 34.1345 73.7244V54.7896C34.1345 54.0854 33.565 53.5144 32.8625 53.5144ZM68.7281 44.1293C68.0256 44.1293 67.4561 44.7003 67.4561 45.4046V72.4492H60.3422V52.9893C60.3422 52.285 59.7727 51.714 59.0702 51.714C58.3678 51.714 57.7983 52.285 57.7983 52.9893V73.7246C57.7983 74.4288 58.3678 74.9998 59.0702 74.9998H68.7281C69.4305 74.9998 70 74.4288 70 73.7246V45.4046C70 44.7003 69.4306 44.1293 68.7281 44.1293Z" fill="#DFB48F"/>
<path d="M78.7258 31.9108C78.4891 31.6135 78.1303 31.4373 77.7482 31.4306L71.8786 31.328C71.1773 31.3157 70.5946 31.871 70.5821 32.5686C70.5697 33.2661 71.13 33.8416 71.8335 33.8539L74.1137 33.8939L49.9955 52.623L23.0667 46.983C22.7007 46.9066 22.3194 46.9929 22.0235 47.2199L0.49445 63.7378C-0.0620526 64.1647 -0.164147 64.9582 0.26653 65.5099C0.517704 65.8315 0.894228 66 1.27521 66C1.54757 66 1.82216 65.9138 2.05422 65.7357L23.1171 49.5754L50.0503 55.2164C50.4187 55.2934 50.803 55.2052 51.0994 54.9749L75.7197 35.8558L75.2205 38.1059C75.0694 38.7872 75.504 39.4611 76.1913 39.611C76.2835 39.631 76.3756 39.6407 76.4662 39.6407C77.0514 39.6407 77.5786 39.2385 77.7095 38.6486L78.9703 32.9646C79.0523 32.595 78.9625 32.2081 78.7258 31.9108ZM4.83976 32.4257C5.11467 32.4257 5.39149 32.3379 5.62466 32.1568L7.09269 31.0166C7.64664 30.5864 7.74396 29.7924 7.30994 29.2433C6.87592 28.6941 6.07525 28.5976 5.52113 29.0279L4.05311 30.1681C3.49915 30.5984 3.40184 31.3923 3.83586 31.9415C4.08719 32.2596 4.46149 32.4257 4.83976 32.4257ZM9.97157 28.44C10.2465 28.44 10.5235 28.3522 10.7566 28.1711L12.2247 27.0309C12.7786 26.6006 12.8758 25.8067 12.4417 25.2575C12.0076 24.7084 11.2067 24.6121 10.6529 25.0423L9.18491 26.1825C8.63096 26.6128 8.5338 27.4067 8.96782 27.9559C9.21916 28.2738 9.59345 28.44 9.97157 28.44ZM15.1035 24.454C15.3784 24.454 15.6554 24.3662 15.8886 24.1851L17.3566 23.0449C17.9106 22.6146 18.0077 21.8207 17.5737 21.2715C17.1395 20.7223 16.3387 20.6259 15.7849 21.0563L14.3169 22.1965C13.7629 22.6268 13.6658 23.4207 14.0998 23.9699C14.3511 24.2879 14.7254 24.454 15.1035 24.454ZM20.2353 20.4681C20.5102 20.4681 20.7872 20.3803 21.0204 20.1992L22.4884 19.059C23.0424 18.6288 23.1395 17.8348 22.7055 17.2857C22.2713 16.7365 21.4705 16.64 20.9167 17.0704L19.4487 18.2106C18.8947 18.6409 18.7976 19.4348 19.2316 19.984C19.4829 20.302 19.8572 20.4681 20.2353 20.4681ZM25.3673 16.4823C25.6422 16.4823 25.919 16.3945 26.1522 16.2134L27.6202 15.0732C28.1742 14.6429 28.2715 13.849 27.8375 13.2998C27.4035 12.7506 26.6026 12.6541 26.0487 13.0844L24.5806 14.2246C24.0267 14.6549 23.9294 15.4488 24.3634 15.998C24.6147 16.316 24.9892 16.4823 25.3673 16.4823ZM57.2031 8.82964C57.5311 8.82964 57.8589 8.7049 58.108 8.45589L61.9047 4.65982L61.6513 6.90673C61.5731 7.60007 62.0766 8.22488 62.7761 8.30241C62.8242 8.30778 62.872 8.31031 62.9191 8.31031C63.5594 8.31031 64.111 7.83298 64.1838 7.18732L64.836 1.40361C64.8785 1.02717 64.7484 0.651845 64.4815 0.380731C64.2145 0.109775 63.8383 -0.028546 63.4584 0.00492882L57.6105 0.513367C56.9096 0.574316 56.391 1.18713 56.4525 1.88204C56.5139 2.57696 57.1316 3.09045 57.8331 3.03013L60.1468 2.82897L56.2981 6.67699C55.8026 7.17248 55.8061 7.97224 56.3058 8.46331C56.5544 8.70774 56.8788 8.82964 57.2031 8.82964ZM52.613 13.419C52.941 13.419 53.2687 13.2943 53.5178 13.0453L54.8309 11.7325C55.3264 11.237 55.3229 10.4372 54.8233 9.94615C54.3236 9.45508 53.5169 9.45856 53.0214 9.95373L51.7083 11.2665C51.2128 11.762 51.2163 12.5618 51.716 13.0528C51.9643 13.2971 52.2886 13.419 52.613 13.419ZM48.0227 18.0085C48.3507 18.0085 48.6785 17.8838 48.9276 17.6348L50.2406 16.322C50.7361 15.8265 50.7326 15.0267 50.233 14.5357C49.7333 14.0446 48.9266 14.0479 48.4311 14.5433L47.1181 15.856C46.6226 16.3515 46.6261 17.1513 47.1257 17.6424C47.3742 17.8865 47.6985 18.0085 48.0227 18.0085ZM42.6144 19.597L44.3883 20.1675C44.5189 20.2095 44.6514 20.2295 44.7817 20.2295C45.3191 20.2295 45.8187 19.8899 45.9934 19.3559C46.2107 18.6922 45.844 17.9798 45.1746 17.7646L43.4008 17.1941C42.731 16.9787 42.0127 17.3422 41.7956 18.0058C41.5785 18.6692 41.9452 19.3816 42.6144 19.597ZM36.4134 17.6022L38.1874 18.1729C38.318 18.2149 38.4505 18.2349 38.5808 18.2349C39.1182 18.2349 39.6179 17.8953 39.7926 17.3613C40.0098 16.6978 39.6432 15.9853 38.9737 15.77L37.1998 15.1993C36.5303 14.9839 35.8117 15.3474 35.5946 16.0111C35.3773 16.6744 35.744 17.387 36.4134 17.6022ZM30.2123 15.6077L31.9861 16.1783C32.1168 16.2203 32.2492 16.2404 32.3796 16.2404C32.917 16.2404 33.4167 15.9007 33.5914 15.3667C33.8087 14.703 33.442 13.9906 32.7727 13.7752L30.9989 13.2046C30.329 12.989 29.6107 13.3527 29.3936 14.0162C29.1763 14.6798 29.543 15.3923 30.2123 15.6077Z" fill="white"/>
</svg>
