<svg width="80" height="80" viewBox="0 0 80 80" fill="none" xmlns="http://www.w3.org/2000/svg">
<g clip-path="url(#clip0_2305_19168)">
<path d="M33.4706 70.5067H32.7898C32.2022 68.1606 31.6291 65.8505 31.0831 63.5331C30.0377 59.0934 28.9661 56.2602 23.0128 54.5715L17.2581 50.4381C16.2693 49.7281 15.086 49.4834 13.969 49.6627L10.1369 40.6175C7.54184 34.492 4.16841 35.207 3.19703 35.5725C0.803885 36.4717 -0.600712 39.6421 0.249852 42.224L5.13525 57.0517C5.18675 57.2081 5.23906 57.3681 5.29218 57.5315C6.09011 59.9801 7.08303 63.0275 9.36815 64.5979L16.0295 69.1759C16.5575 69.5386 16.9316 69.9721 17.1802 70.5061H17.0331C16.3017 70.5061 15.6157 70.7891 15.102 71.3032C14.5883 71.8173 14.3057 72.5033 14.3063 73.2348L14.3102 77.2755C14.3117 78.7773 15.5347 79.9992 17.0363 79.9992L33.4745 80C34.2062 80 34.8919 79.7168 35.4056 79.2026C35.9193 78.6884 36.2017 78.0024 36.2009 77.2709L36.1972 73.2303C36.1954 71.7286 34.9724 70.5067 33.4706 70.5067ZM17.3138 67.3072L10.6524 62.7291C9.00069 61.5942 8.13992 58.9519 7.44807 56.829C7.39397 56.6633 7.34102 56.5007 7.28887 56.342L2.40347 41.5143C1.89478 39.9705 2.85321 38.1236 3.9948 37.6946C5.31372 37.1989 6.82942 38.622 8.04939 41.5017L11.8949 50.5788C11.5872 50.8253 11.3073 51.1172 11.0662 51.453C9.6391 53.4398 10.0945 56.2173 12.0813 57.6444L19.946 63.2936C20.4546 63.6588 21.1627 63.5427 21.5282 63.0342C21.8934 62.5257 21.7773 61.8173 21.2688 61.452L13.4041 55.8028C12.4326 55.1049 12.2099 53.7469 12.9079 52.7754C13.6057 51.8037 14.964 51.5811 15.9354 52.2792L21.8534 56.5299C21.9627 56.6083 22.0852 56.6667 22.2147 56.7022C27.2622 58.0876 27.9374 60.0656 28.8764 64.0525C29.3826 66.2018 29.9113 68.3407 30.4525 70.5062L19.5837 70.5056C19.2249 69.1726 18.4626 68.0967 17.3138 67.3072ZM33.8015 77.6002C33.7411 77.6606 33.6353 77.7326 33.4743 77.7326L17.0367 77.7315C16.7837 77.7315 16.5779 77.5257 16.5777 77.2729L16.5738 73.2322C16.5737 73.0714 16.6456 72.9657 16.706 72.9051C16.7664 72.8445 16.872 72.7728 17.0329 72.7728L31.8992 72.7736L31.9041 72.7739C31.9062 72.7739 31.9084 72.7736 31.9107 72.7736H33.4706C33.7236 72.7736 33.9294 72.9794 33.9297 73.2324L33.9335 77.273C33.9338 77.434 33.8617 77.5398 33.8015 77.6002ZM76.803 35.5723C75.8312 35.207 72.4584 34.492 69.8631 40.6173L66.0312 49.6625C64.9147 49.4842 63.7306 49.7279 62.742 50.4379L56.9873 54.5713C51.0343 56.2599 49.9625 59.0933 48.917 63.533C48.3676 65.8657 47.7956 68.17 47.2105 70.5066H46.5296C45.0279 70.5066 43.8048 71.7284 43.8034 73.2303L43.7995 77.2709C43.7988 78.0024 44.0814 78.6884 44.5951 79.2026C45.1088 79.7168 45.7945 80 46.5269 80L62.9636 79.9989C64.4653 79.9989 65.6884 78.777 65.6898 77.2753L65.6936 73.2348C65.6944 72.5032 65.4119 71.8172 64.8981 71.303C64.3844 70.7888 63.699 70.5057 62.9676 70.5057H62.8199C63.0685 69.9718 63.4426 69.5383 63.9704 69.1755L70.6319 64.5976C72.9172 63.027 73.9103 59.9789 74.7082 57.5299C74.7612 57.367 74.8132 57.2073 74.8647 57.0513L79.7501 42.2236C80.6008 39.6421 79.1962 36.4717 76.803 35.5723ZM62.9675 72.7729C63.1283 72.7729 63.234 72.8449 63.2944 72.9053C63.3547 72.9657 63.4266 73.0714 63.4264 73.2322L63.4227 77.2732C63.4225 77.526 63.2167 77.7317 62.9636 77.7317L46.5259 77.7328C46.3651 77.7328 46.2593 77.6607 46.1988 77.6003C46.1382 77.5399 46.0665 77.4342 46.0666 77.2732L46.0705 73.2326C46.0707 72.9796 46.2765 72.7739 46.5295 72.7739H48.0894C48.0915 72.7739 48.0938 72.7743 48.096 72.7743L48.1009 72.7739L62.9675 72.7729ZM77.5968 41.5143L72.7114 56.342C72.6592 56.5004 72.6064 56.6625 72.5527 56.8277C71.861 58.9513 70.9999 61.594 69.348 62.7292L62.6865 67.3072C61.5374 68.0968 60.7751 69.1729 60.4166 70.5059L49.5478 70.5066C50.0869 68.3498 50.6145 66.2154 51.1239 64.0528C52.063 60.0659 52.7383 58.0879 57.7855 56.7025C57.9152 56.6669 58.0377 56.6086 58.1468 56.5302L64.0647 52.2795C65.0367 51.5815 66.3946 51.8045 67.0923 52.7757C67.4284 53.2434 67.5613 53.8173 67.4672 54.3917C67.3732 54.966 67.0637 55.4674 66.596 55.8032L58.7313 61.4525C58.2228 61.8178 58.1068 62.5262 58.4719 63.0347C58.8374 63.5432 59.5456 63.6591 60.0541 63.2941L67.9188 57.6449C68.8783 56.9556 69.5125 55.9307 69.7046 54.7587C69.8967 53.5867 69.623 52.4128 68.9337 51.4533C68.6926 51.1177 68.4129 50.8257 68.105 50.5793L71.9505 41.5022C73.1705 38.6227 74.686 37.1985 76.0051 37.6951C77.147 38.1236 78.1055 39.9705 77.5968 41.5143ZM55.0414 43.9624C60.1586 38.6717 62.9767 32.5579 62.9767 26.7469V7.68097C62.9767 7.13101 62.5819 6.66024 62.0401 6.56453C56.9199 5.66073 51.8479 3.51822 46.9656 0.196275C46.7776 0.068502 46.5554 0 46.328 0H33.6724C33.445 0 33.2228 0.0683401 33.0346 0.196437C28.1523 3.51822 23.0805 5.66089 17.9601 6.5647C17.4184 6.66024 17.0236 7.13101 17.0236 7.68113V26.7469C17.0236 32.5577 19.8415 38.6716 24.9585 43.9624C29.1425 48.2884 34.6394 51.805 39.6631 53.3691C39.7729 53.4032 39.8864 53.4202 40.0001 53.4202C40.1136 53.4202 40.2273 53.4032 40.3371 53.3691C45.361 51.8047 50.8579 48.2883 55.0414 43.9624ZM40.0001 51.0964C35.4143 49.5895 30.4259 46.354 26.5885 42.3862C21.8826 37.5205 19.2909 31.9663 19.2909 26.7469V8.61895C24.3068 7.59417 29.255 5.46057 34.0193 2.26721H45.9808C50.7452 5.46057 55.6936 7.59417 60.7092 8.61895V26.7467C60.7092 31.9663 58.1175 37.5205 53.4114 42.3861C49.5746 46.3538 44.5862 49.5895 40.0001 51.0964Z" fill="#DFB48F"/>
<path d="M57.6097 10.2007C53.5174 9.05742 49.4682 7.21126 45.5741 4.71361C45.3914 4.59653 45.1791 4.53418 44.962 4.53418H35.0309C34.8139 4.53418 34.6016 4.59637 34.4189 4.71361C30.5245 7.21143 26.4751 9.05758 22.3832 10.2007C21.8935 10.3376 21.5547 10.7839 21.5547 11.2926V26.7467C21.5547 32.3253 24.8144 37.0861 27.5491 40.0976C30.9125 43.8017 35.2999 46.8796 39.5867 48.542C39.7186 48.593 39.8577 48.6187 39.9966 48.6187C40.1356 48.6187 40.2747 48.5931 40.4065 48.542C44.6932 46.8796 49.0808 43.8019 52.4442 40.0977C55.1789 37.0861 58.4386 32.3251 58.4386 26.7467V11.2926C58.4384 10.7839 58.0996 10.3376 57.6097 10.2007ZM56.1711 26.7467C56.1711 30.5343 54.2514 34.7347 50.7654 38.5737C47.7845 41.8568 43.7877 44.7063 39.9965 46.2645C36.2051 44.7062 32.2084 41.8566 29.2274 38.5737C25.7416 34.7347 23.8218 30.5345 23.8218 26.7467V12.1436C27.7491 10.9586 31.6256 9.1643 35.3613 6.80139H44.6317C48.3671 9.16414 52.2435 10.9585 56.1711 12.1436V26.7467ZM33.9284 23.4926C32.9466 21.8955 30.8482 21.3949 29.2512 22.3764C28.4776 22.8521 27.9354 23.6004 27.7245 24.4837C27.5137 25.3669 27.6596 26.2794 28.1351 27.053L32.0841 33.4796C32.5725 34.2743 33.3424 34.8106 34.2519 34.9899C34.473 35.0334 34.6976 35.0548 34.9229 35.0548C35.7015 35.0548 36.4854 34.7983 37.1483 34.3146L50.9664 24.2297C51.6985 23.6966 52.1792 22.9104 52.3199 22.0158C52.4607 21.1211 52.2445 20.2252 51.7115 19.4932C50.6107 17.9818 48.4862 17.6477 46.9736 18.7488L35.9548 26.7907L33.9284 23.4926ZM48.3094 20.5807C48.8103 20.2161 49.514 20.3267 49.8787 20.8276C50.0554 21.0702 50.1268 21.3669 50.0803 21.6632C50.0337 21.9596 49.8745 22.22 49.6307 22.3975L35.8115 32.4832C35.4666 32.735 35.0576 32.8375 34.6903 32.7654C34.4004 32.7083 34.1735 32.5491 34.0156 32.2926L30.0668 25.8662C29.9083 25.6085 29.8597 25.3044 29.9298 25.0101C30.0002 24.7159 30.1808 24.4665 30.4385 24.3081C30.6231 24.1947 30.8277 24.1407 31.0298 24.1407C31.4107 24.1407 31.7828 24.3324 31.9966 24.6798L34.6657 29.0236C34.8312 29.293 35.1018 29.4811 35.4123 29.5423C35.7223 29.6032 36.0442 29.5322 36.2998 29.3457L48.3094 20.5807Z" fill="white"/>
</g>
<defs>
<clipPath id="clip0_2305_19168">
<rect width="80" height="80" fill="white"/>
</clipPath>
</defs>
</svg>
