<svg width="80" height="80" viewBox="0 0 80 80" fill="none" xmlns="http://www.w3.org/2000/svg">
<g clip-path="url(#clip0_2305_19144)">
<path d="M24.0879 27.1209C22.9082 25.9646 21.084 26.058 20.0026 27.1611L16.2546 30.9835L15.2259 29.9073C14.1005 28.7296 12.27 28.7366 11.1414 29.8149C9.98993 30.9155 9.94856 32.7477 11.0491 33.8994L14.1397 37.133C15.255 38.3 17.1371 38.3361 18.2911 37.1595L24.1281 31.2063C25.246 30.0661 25.228 28.2388 24.0879 27.1209ZM22.4925 29.6027L16.6554 35.556C16.5467 35.6667 16.3936 35.7354 16.2242 35.7354C16.0629 35.7343 15.9067 35.667 15.7952 35.5505L12.7046 32.3169C12.4766 32.0783 12.485 31.6987 12.7236 31.4706C12.9627 31.2422 13.3414 31.2504 13.5699 31.4897L15.4161 33.4212C15.8592 33.8847 16.6047 33.8977 17.0617 33.4317L21.6381 28.7645C21.8703 28.5279 22.2485 28.525 22.4844 28.7564C22.7203 28.9876 22.7248 29.3659 22.4925 29.6027Z" fill="white" stroke="white" stroke-width="0.3"/>
<path d="M24.0879 40.6351C22.949 39.5182 21.1206 39.535 20.0026 40.6751L16.2546 44.4975L15.2259 43.4213C14.1171 42.2608 12.289 42.2324 11.1414 43.3289C9.98993 44.4294 9.94856 46.2617 11.0491 47.4134L14.1397 50.6469C15.2677 51.8271 17.1492 51.8377 18.2911 50.6735L24.1281 44.7204C25.2457 43.5802 25.228 41.753 24.0879 40.6351ZM22.4925 43.1167L16.6554 49.0698C16.4175 49.3122 16.0278 49.3075 15.7952 49.0643L12.7046 45.8306C12.4766 45.5919 12.485 45.2124 12.7236 44.9844C12.9626 44.7559 13.3414 44.7641 13.5699 45.0035L15.4161 46.935C15.8499 47.3888 16.594 47.4225 17.0617 46.9456L21.6381 42.2783C21.8706 42.0414 22.2492 42.0395 22.4844 42.2702C22.7203 42.5016 22.7248 42.8799 22.4925 43.1167Z" fill="white" stroke="white" stroke-width="0.3"/>
<path d="M24.0878 54.1497C22.949 53.0329 21.1202 53.0497 20.0026 54.1897L16.2546 58.0123L15.2259 56.9361C14.1173 55.7759 12.2885 55.7473 11.1414 56.8437C9.98993 57.9442 9.94856 59.7765 11.0491 60.9282L14.1396 64.1617C14.677 64.7242 15.4314 65.0496 16.2169 65.0546H16.2281C16.9991 65.0546 17.751 64.7389 18.2909 64.1885L24.128 58.2352C25.2457 57.095 25.228 55.2678 24.0878 54.1497ZM22.4925 56.6315L16.6554 62.5847C16.5435 62.6988 16.3878 62.7641 16.2279 62.7641C16.065 62.7641 15.9073 62.6965 15.7952 62.5792L12.7046 59.3457C12.4766 59.107 12.485 58.7275 12.7236 58.4994C12.9626 58.2711 13.3414 58.2792 13.5699 58.5184L15.4161 60.45C15.8743 60.9294 16.6237 60.9074 17.0617 60.4605L21.6381 55.7933C21.8721 55.555 22.2509 55.556 22.4844 55.7852C22.7209 56.0167 22.7242 56.395 22.4925 56.6315Z" fill="white" stroke="white" stroke-width="0.3"/>
<path d="M45.8411 31.0151H29.0045C28.3719 31.0151 27.8594 31.5278 27.8594 32.1602C27.8594 32.7926 28.3721 33.3053 29.0045 33.3053H45.8411C46.4736 33.3053 46.9862 32.7926 46.9862 32.1602C46.9862 31.528 46.4736 31.0151 45.8411 31.0151Z" fill="white" stroke="white" stroke-width="0.3"/>
<path d="M45.8411 44.9116H29.0045C28.3719 44.9116 27.8594 45.4243 27.8594 46.0567C27.8594 46.6891 28.3721 47.2018 29.0045 47.2018H45.8411C46.4736 47.2018 46.9862 46.6891 46.9862 46.0567C46.9862 45.4243 46.4736 44.9116 45.8411 44.9116Z" fill="white" stroke="white" stroke-width="0.3"/>
<path d="M45.8411 58.8076H29.0045C28.3719 58.8076 27.8594 59.3203 27.8594 59.9527C27.8594 60.5851 28.3721 61.0978 29.0045 61.0978H45.8411C46.4736 61.0978 46.9862 60.5851 46.9862 59.9527C46.9862 59.3205 46.4736 58.8076 45.8411 58.8076Z" fill="white" stroke="white" stroke-width="0.3"/>
<path d="M56.8544 45.4657C56.2218 45.4657 55.7093 45.9783 55.7093 46.6107V72.7936C55.7093 74.4486 54.3628 75.7951 52.7079 75.7951H5.29138C3.63634 75.7951 2.29002 74.4484 2.29002 72.7936V13.7275C2.29002 12.0725 3.63634 10.726 5.29138 10.726H14.9919V11.3637V11.3744C14.9919 13.0162 16.3277 14.3518 17.9693 14.3518H17.98H18.3993V16.3917H7.09802C5.89934 16.3917 4.92418 17.3669 4.92418 18.5656V71.1976C4.92418 72.3964 5.89934 73.3714 7.09802 73.3714H26.3273C26.9598 73.3714 27.4723 72.8587 27.4723 72.2264C27.4723 71.594 26.9598 71.0813 26.3273 71.0813H7.21467V18.6819H18.3993V20.4855C18.3993 21.8788 19.5326 23.0122 20.9259 23.0122H37.0728C38.4661 23.0122 39.5996 21.8788 39.5996 20.4855V18.6819H50.784V71.081H31.6715C31.0389 71.081 30.5264 71.5937 30.5264 72.226C30.5264 72.8584 31.0389 73.3711 31.6715 73.3711H50.9007C52.0995 73.3711 53.0745 72.396 53.0745 71.1973V18.5654C53.0745 17.3669 52.0994 16.3916 50.9007 16.3916H39.5997V14.3518H40.019H40.0295C41.6713 14.3518 43.0069 13.016 43.0069 11.3744V11.3666C43.0069 11.3656 43.0071 11.3646 43.0071 11.3637V10.726H52.7076C54.3627 10.726 55.709 12.0726 55.709 13.7275V41.2668C55.7091 41.8992 56.2217 42.4119 56.8542 42.4119C57.4868 42.4119 57.9993 41.8992 57.9993 41.2668V13.7275C57.9993 10.8095 55.6255 8.43565 52.7076 8.43565H43.0069V7.74158C43.0069 6.09983 41.6711 4.7642 40.0295 4.7642H33.7934V2.90213C33.7934 1.25458 32.4529 -0.0859375 30.8053 -0.0859375H27.1939C25.5461 -0.0859375 24.2059 1.25458 24.2059 2.90213V4.76389H17.9696C16.3279 4.76389 14.9923 6.09952 14.9923 7.74127V8.43535H5.29168C2.37384 8.43535 0 10.8092 0 13.7272V72.7933C0 75.7112 2.37384 78.0851 5.29168 78.0851H52.7081C55.6259 78.0851 57.9998 75.7112 57.9998 72.7933V46.6109C57.9995 45.9784 57.4869 45.4657 56.8544 45.4657ZM37.3093 20.4855C37.3093 20.6159 37.2033 20.7218 37.0728 20.7218H20.9259C20.7956 20.7218 20.6896 20.6157 20.6896 20.4855V18.6819H37.3094V20.4855H37.3093ZM37.3094 16.3917H37.3093H20.6898V14.3518H37.3096V16.3917H37.3094ZM26.4958 2.90213C26.496 2.52379 26.8155 2.20439 27.1935 2.20439H30.805C31.1833 2.20439 31.5027 2.52395 31.5027 2.90213V4.76389H26.4958V2.90213ZM17.2821 7.74142C17.2821 7.36904 17.5968 7.05437 17.9692 7.05437C18.9454 7.05437 39.0625 7.05437 40.0294 7.05437C40.4018 7.05437 40.7164 7.36904 40.7164 7.74142V11.3649C40.7157 11.7425 40.3966 12.0613 40.0188 12.0613C39.3014 12.0613 18.4397 12.0613 17.9799 12.0613C17.6015 12.0613 17.2821 11.7418 17.2821 11.3636C17.2821 10.0743 17.2821 9.09522 17.2821 7.74142Z" fill="#DFB48F" stroke="#DFB48F" stroke-width="0.3"/>
</g>
<defs>
<clipPath id="clip0_2305_19144">
<rect width="80" height="80" fill="white"/>
</clipPath>
</defs>
</svg>
