<svg width="80" height="80" viewBox="0 0 80 80" fill="none" xmlns="http://www.w3.org/2000/svg">
<path d="M72.1875 26.0156C67.8797 26.0156 64.375 29.5203 64.375 33.8281C64.375 34.5427 64.4733 35.2344 64.6539 35.8925L52.5261 41.2581C51.3525 39.0856 49.6145 37.2291 47.4392 35.8977C48.0237 34.6977 48.6559 33.5144 49.3378 32.3517C49.6652 31.7934 49.478 31.0755 48.9197 30.748C48.3617 30.4206 47.6436 30.6078 47.3159 31.1659C44.6498 35.7119 42.6878 40.5509 41.4848 45.5486C41.3191 46.2375 40.7084 46.7186 39.9998 46.7186C39.2912 46.7186 38.6806 46.2375 38.5148 45.5486C36.8206 38.5103 33.6772 31.8963 29.1717 25.8905C27.088 23.113 26.0313 19.8903 26.0313 16.3122C26.0313 8.61 32.2975 2.34375 39.9997 2.34375C47.7019 2.34375 53.9681 8.61 53.9681 16.3122C53.9681 19.8903 52.9114 23.113 50.8273 25.8909C50.6706 26.0998 50.5155 26.3098 50.3617 26.5208C49.9806 27.0439 50.0956 27.7769 50.6187 28.1581C51.1419 28.5391 51.8748 28.4242 52.2561 27.9011C52.4036 27.6988 52.5525 27.4973 52.7025 27.297C55.0975 24.1047 56.312 20.4089 56.312 16.3122C56.3122 7.31766 48.9945 0 40 0C31.0055 0 23.6878 7.31766 23.6878 16.3122C23.6878 20.4089 24.9022 24.1047 27.2973 27.297C29.3538 30.0383 31.1097 32.9119 32.5634 35.8961C30.387 37.2277 28.6483 39.085 27.4742 41.2583L15.3516 35.895C15.5298 35.2356 15.625 34.5427 15.625 33.8281C15.625 29.5203 12.1203 26.0156 7.8125 26.0156C3.50469 26.0156 0 29.5203 0 33.8281C0 36.2402 1.08859 38.4795 2.98641 39.972C3.49484 40.372 4.23187 40.2841 4.63187 39.7753C5.03203 39.2664 4.94391 38.5297 4.43516 38.1297C3.10609 37.0845 2.34375 35.5166 2.34375 33.8281C2.34375 30.8127 4.79703 28.3594 7.8125 28.3594C10.828 28.3594 13.2812 30.8127 13.2812 33.8281C13.2812 36.532 11.3472 38.803 8.68234 39.2283C8.04313 39.3302 7.60781 39.9311 7.70969 40.5702C7.80172 41.1467 8.29953 41.5575 8.86547 41.5575C8.92687 41.5575 8.98891 41.5527 9.05141 41.5427C11.3356 41.1781 13.2433 39.8648 14.4052 38.0392L26.5347 43.4056C26.0345 44.8687 25.767 46.4275 25.767 48.033C25.767 51.2084 26.8127 54.1441 28.5772 56.5144L21.1111 63.1166C19.6992 61.7222 17.7611 60.8594 15.6247 60.8594C11.3169 60.8594 7.81219 64.3641 7.81219 68.6719C7.81219 72.9797 11.3169 76.4844 15.6247 76.4844C19.9325 76.4844 23.4372 72.9797 23.4372 68.6719C23.4372 67.3456 23.1041 66.0959 22.5184 65.0008L30.1259 58.2734C32.687 60.7438 36.1688 62.2656 39.9997 62.2656C43.8306 62.2656 47.3122 60.7438 49.8733 58.2734L57.4809 65.0008C56.8953 66.0959 56.5622 67.3455 56.5622 68.6719C56.5622 72.9797 60.0669 76.4844 64.3747 76.4844C68.6825 76.4844 72.1872 72.9797 72.1872 68.6719C72.1872 68.0245 71.6627 67.5 71.0153 67.5C70.368 67.5 69.8434 68.0245 69.8434 68.6719C69.8434 71.6873 67.3902 74.1406 64.3747 74.1406C61.3592 74.1406 58.9059 71.6873 58.9059 68.6719C58.9059 65.6564 61.3592 63.2031 64.3747 63.2031C65.7609 63.2031 67.083 63.7225 68.0973 64.6658C68.5714 65.1067 69.3128 65.0795 69.7536 64.6056C70.1944 64.1317 70.1673 63.3902 69.6934 62.9494C68.2439 61.6016 66.355 60.8592 64.3747 60.8592C62.2383 60.8592 60.3 61.7219 58.8883 63.1164L51.4222 56.5142C53.1867 54.1439 54.2323 51.2083 54.2323 48.0328C54.2323 46.4272 53.965 44.8683 53.4648 43.4053L65.608 38.033C66.998 40.2002 69.4267 41.6405 72.187 41.6405C76.4948 41.6405 79.9995 38.1358 79.9995 33.828C79.9995 29.5202 76.4953 26.0156 72.1875 26.0156ZM15.625 74.1406C12.6095 74.1406 10.1562 71.6873 10.1562 68.6719C10.1562 65.6564 12.6095 63.2031 15.625 63.2031C18.6405 63.2031 21.0938 65.6564 21.0938 68.6719C21.0938 71.6873 18.6405 74.1406 15.625 74.1406ZM40 59.9219C33.4445 59.9219 28.1111 54.5884 28.1111 48.033C28.1111 43.9506 30.167 40.2241 33.5484 38.0442C34.6723 40.6536 35.5728 43.3411 36.2363 46.0972C36.6564 47.8431 38.2042 49.0627 40 49.0627C41.7958 49.0627 43.3434 47.8431 43.7638 46.0972C44.4236 43.3558 45.3242 40.6641 46.4534 38.0453C49.8338 40.2252 51.8889 43.9508 51.8889 48.0331C51.8889 54.5884 46.5555 59.9219 40 59.9219ZM72.1875 39.2969C69.172 39.2969 66.7188 36.8436 66.7188 33.8281C66.7188 30.8127 69.172 28.3594 72.1875 28.3594C75.203 28.3594 77.6562 30.8127 77.6562 33.8281C77.6562 36.8436 75.203 39.2969 72.1875 39.2969Z" fill="#DFB48F"/>
<path d="M34.0584 9.87734C33.5633 9.46031 32.8241 9.52375 32.4072 10.0189C30.9053 11.8027 30.0781 14.0711 30.0781 16.4062C30.0781 21.8772 34.5291 26.3281 40 26.3281C45.4709 26.3281 49.9219 21.8772 49.9219 16.4062C49.9219 10.9353 45.4709 6.48438 40 6.48438C39.1791 6.48438 38.3627 6.58516 37.5733 6.78359C36.9456 6.94156 36.5648 7.57828 36.7228 8.20594C36.8808 8.83359 37.5167 9.21406 38.1453 9.05656C38.7477 8.905 39.3719 8.82812 40.0002 8.82812C44.1788 8.82812 47.5783 12.2277 47.5783 16.4062C47.5783 20.5848 44.1788 23.9844 40.0002 23.9844C35.8216 23.9844 32.422 20.5848 32.422 16.4062C32.422 14.6225 33.0536 12.8903 34.2003 11.5286C34.6169 11.0334 34.5534 10.2942 34.0584 9.87734Z" fill="white"/>
</svg>
