<svg width="80" height="80" viewBox="0 0 80 80" fill="none" xmlns="http://www.w3.org/2000/svg">
<path d="M79.8721 42.0935L68.3055 17.4965C68.7784 17.0194 69.124 16.4286 69.3101 15.7794C69.4962 15.1302 69.5167 14.4439 69.3696 13.7845C69.2226 13.1251 68.9128 12.5143 68.4692 12.0091C68.0256 11.504 67.4628 11.121 66.8333 10.896V9.33333C66.8333 8.97971 66.6946 8.64057 66.4477 8.39052C66.2008 8.14048 65.8659 8 65.5167 8H45.763C45.445 7.57207 45.0777 7.18415 44.6687 6.8445L44.449 1.28017C44.4355 0.936013 44.2909 0.610526 44.0456 0.37189C43.8004 0.133254 43.4735 -1.56095e-05 43.1333 1.37131e-09H37.8667C37.5265 -1.56095e-05 37.1996 0.133254 36.9544 0.37189C36.7091 0.610526 36.5645 0.936013 36.551 1.28017L36.3313 6.8445C35.9224 7.18415 35.555 7.57207 35.237 8H15.4833C15.1341 8 14.7992 8.14048 14.5523 8.39052C14.3054 8.64057 14.1667 8.97971 14.1667 9.33333V10.896C13.5373 11.121 12.9745 11.504 12.5311 12.0091C12.0876 12.5143 11.7778 13.125 11.6307 13.7843C11.4837 14.4436 11.5041 15.1299 11.6901 15.779C11.8762 16.4281 12.2217 17.0189 12.6945 17.496L1.12788 42.0935H1.12903C1.04422 42.2724 1.00012 42.4682 1 42.6667C1 46.5565 2.52592 50.287 5.24207 53.0376C7.95822 55.7881 11.6421 57.3333 15.4833 57.3333C19.3246 57.3333 23.0084 55.7881 25.7246 53.0376C28.4407 50.287 29.9667 46.5565 29.9667 42.6667C29.9665 42.4684 29.9224 42.2727 29.8376 42.094H29.8388L18.2722 17.4965C18.69 17.0744 19.0093 16.5631 19.2069 16H35.2373C35.4497 16.2851 35.6841 16.5526 35.9384 16.8L33.9683 66.6667H18.1167C17.7675 66.6667 17.4326 66.8071 17.1856 67.0572C16.9387 67.3072 16.8 67.6464 16.8 68V72H8.9C8.5508 72 8.2159 72.1405 7.96898 72.3905C7.72205 72.6406 7.58333 72.9797 7.58333 73.3333V78.6667C7.58333 79.0203 7.72205 79.3594 7.96898 79.6095C8.2159 79.8595 8.5508 80 8.9 80H72.1C72.4492 80 72.7841 79.8595 73.031 79.6095C73.278 79.3594 73.4167 79.0203 73.4167 78.6667V73.3333C73.4167 72.9797 73.278 72.6406 73.031 72.3905C72.7841 72.1405 72.4492 72 72.1 72H64.2V68C64.2 67.6464 64.0613 67.3072 63.8144 67.0572C63.5674 66.8071 63.2325 66.6667 62.8833 66.6667H47.0317L45.0619 16.8C45.3162 16.5526 45.5507 16.2851 45.763 16H61.7935C61.991 16.5631 62.3103 17.0744 62.7281 17.4965L51.1612 42.0935H51.1624C51.0776 42.2724 51.0335 42.4682 51.0333 42.6667C51.0333 46.5565 52.5593 50.287 55.2754 53.0376C57.9916 55.7881 61.6755 57.3333 65.5167 57.3333C69.3579 57.3333 73.0418 55.7881 75.7579 53.0376C78.4741 50.287 80 46.5565 80 42.6667C79.9998 42.4684 79.9557 42.2727 79.871 42.094L79.8721 42.0935ZM15.4833 13.3333C15.7437 13.3333 15.9983 13.4115 16.2148 13.558C16.4314 13.7045 16.6001 13.9128 16.6998 14.1564C16.7994 14.4001 16.8255 14.6681 16.7747 14.9268C16.7239 15.1854 16.5985 15.423 16.4144 15.6095C16.2302 15.7959 15.9956 15.9229 15.7402 15.9744C15.4848 16.0258 15.2201 15.9994 14.9795 15.8985C14.7389 15.7976 14.5332 15.6267 14.3886 15.4074C14.2439 15.1882 14.1667 14.9304 14.1667 14.6667C14.1671 14.3132 14.3059 13.9743 14.5527 13.7243C14.7996 13.4743 15.1343 13.3337 15.4833 13.3333ZM15.4833 54.6667C12.5695 54.663 9.75878 53.5738 7.58684 51.6067C5.4149 49.6396 4.03352 46.9321 3.70591 44C3.5 44 27.2608 44 27.2608 44C26.9331 46.9321 25.5518 49.6396 23.3798 51.6067C21.2079 53.5738 18.3972 54.663 15.4833 54.6667ZM27.2608 44C27.2608 44 3.5 44 3.70591 44L15.0719 18.6448C15.346 18.6739 15.6223 18.6739 15.8964 18.6448L27.2608 44ZM34.0492 13.3333H19.2069C19.0093 12.7718 18.6908 12.2617 18.2745 11.8402C17.8582 11.4186 17.3546 11.0961 16.8 10.896V10.6667H34.0492C33.8725 11.5466 33.8725 12.4534 34.0492 13.3333ZM39.1318 2.66667H41.8682L41.9813 5.50533C41.0073 5.276 39.9944 5.276 39.0204 5.50533L39.1318 2.66667ZM40.5 8C41.2812 8 42.0449 8.2346 42.6945 8.67412C43.3441 9.11365 43.8504 9.73836 44.1493 10.4693C44.4483 11.2002 44.5265 12.0044 44.3741 12.7804C44.2217 13.5563 43.8455 14.269 43.2931 14.8284C42.7407 15.3878 42.0368 15.7688 41.2706 15.9231C40.5044 16.0775 39.7102 15.9983 38.9884 15.6955C38.2666 15.3928 37.6497 14.8801 37.2157 14.2223C36.7817 13.5645 36.55 12.7911 36.55 12C36.5512 10.9395 36.9678 9.92282 37.7083 9.17294C38.4488 8.42306 39.4528 8.00124 40.5 8ZM44.3964 66.6667H36.6037L38.5128 18.3553C39.8065 18.7704 41.1952 18.7704 42.4888 18.3553L44.3964 66.6667ZM70.7833 74.6667V77.3333H10.2167V74.6667H70.7833ZM61.5667 69.3333V72H19.4333V69.3333H61.5667ZM65.5167 13.3333C65.7771 13.3333 66.0316 13.4115 66.2482 13.558C66.4647 13.7045 66.6335 13.9128 66.7331 14.1564C66.8328 14.4001 66.8588 14.6681 66.808 14.9268C66.7572 15.1854 66.6318 15.423 66.4477 15.6095C66.2636 15.7959 66.0289 15.9229 65.7735 15.9744C65.5181 16.0258 65.2534 15.9994 65.0128 15.8985C64.7722 15.7976 64.5666 15.6267 64.4219 15.4074C64.2772 15.1882 64.2 14.9304 64.2 14.6667C64.2004 14.3132 64.3392 13.9743 64.5861 13.7243C64.8329 13.4743 65.1676 13.3337 65.5167 13.3333ZM61.7931 13.3333H46.9517C47.1283 12.4534 47.1283 11.5466 46.9517 10.6667H64.2V10.896C63.6454 11.0961 63.1418 11.4186 62.7255 11.8402C62.3092 12.2617 61.9907 12.7718 61.7931 13.3333ZM65.1052 18.6448C65.3793 18.6739 65.6557 18.6739 65.9298 18.6448L77 42.0935L54 42.094L65.1052 18.6448ZM65.5167 54.6667C62.6028 54.663 59.7921 53.5738 57.6202 51.6067C55.4482 49.6396 54.3276 45.0261 54 42.094L77 42.0935C76.6724 45.0256 75.5851 49.6396 73.4132 51.6067C71.2412 53.5738 68.4305 54.663 65.5167 54.6667Z" fill="#DFB48F"/>
<rect x="3" y="43" width="25" height="3" fill="white"/>
<rect x="53" y="43" width="25" height="3" fill="white"/>
</svg>
