<svg width="80" height="80" viewBox="0 0 80 80" fill="none" xmlns="http://www.w3.org/2000/svg">
<path d="M11.6129 23.2258C15.6297 23.2258 19.1768 21.1742 21.2619 18.0645H49.0323V15.4839H22.5484C22.9794 14.271 23.2258 12.9716 23.2258 11.6129C23.2258 5.20903 18.0155 0 11.6129 0C5.21032 0 0 5.20903 0 11.6129C0 18.0168 5.21032 23.2258 11.6129 23.2258ZM11.6129 2.58065C16.5935 2.58065 20.6452 6.63355 20.6452 11.6129C20.6452 16.5923 16.5935 20.6452 11.6129 20.6452C6.63226 20.6452 2.58065 16.5923 2.58065 11.6129C2.58065 6.63355 6.63226 2.58065 11.6129 2.58065Z" fill="#DFB48F"/>
<path d="M17.6862 8.65411L15.8616 6.82959L9.03197 13.6593L7.36358 11.9909L5.53906 13.8154L9.03197 17.3083L17.6862 8.65411Z" fill="white"/>
<path d="M72.2584 0V18.0645H69.6778V5.16129H61.9359V18.0645H59.3552V10.3226H51.6133V20.6452H80.0004V0H72.2584ZM56.7746 18.0645H54.1939V12.9032H56.7746V18.0645ZM64.5165 7.74194H67.0972V18.0645H64.5165V7.74194ZM77.4197 18.0645H74.8391V2.58065H77.4197V18.0645Z" fill="#DFB48F"/>
<path d="M39.9999 36.1289C37.8657 36.1289 36.1289 37.8657 36.1289 39.9999C36.1289 42.1341 37.8657 43.8708 39.9999 43.8708C42.1341 43.8708 43.8708 42.1341 43.8708 39.9999C43.8708 37.8657 42.1341 36.1289 39.9999 36.1289ZM39.9999 41.2902C39.2889 41.2902 38.7096 40.7121 38.7096 39.9999C38.7096 39.2876 39.2889 38.7096 39.9999 38.7096C40.7108 38.7096 41.2902 39.2876 41.2902 39.9999C41.2902 40.7121 40.7108 41.2902 39.9999 41.2902Z" fill="white"/>
<path d="M45.4745 29.0517L43.8706 30.6556V28.3872H36.1287V30.6556L34.5248 29.0517L29.0512 34.5266L30.6538 36.1291H28.3867V43.8711H30.6538L29.0512 45.4737L34.5248 50.9485L36.1287 49.3459V51.613H43.8706V49.3446L45.4745 50.9485L50.9493 45.4737L49.3454 43.8711H51.6125V36.1291H49.3454L50.948 34.5266L45.4745 29.0517ZM49.0319 41.2904H46.428L45.4577 43.6324L47.299 45.4737L45.4732 47.2995L43.6319 45.4569L41.2899 46.4285V49.0324H38.7093V46.4285L36.3674 45.4569L34.5248 47.2995L32.7003 45.4737L34.5428 43.6298L33.5725 41.2904H30.9674V38.7098H33.5712L34.5416 36.3679L32.7003 34.5266L34.5248 32.7008L36.3661 34.5433L38.7093 33.5717V30.9679H41.2899V33.5717L43.6319 34.5433L45.4732 32.7008L47.299 34.5266L45.4577 36.3679L46.428 38.7098H49.0319V41.2904Z" fill="#DFB48F"/>
<path d="M64.5179 37.4191C64.5179 38.1314 63.9385 38.7095 63.2276 38.7095H54.1953V41.2901H63.2276C65.3618 41.2901 67.0985 39.5533 67.0985 37.4191V23.2256H64.5179V37.4191Z" fill="#DFB48F"/>
<path d="M71.4084 56.7744H70.522C65.7865 56.7744 61.9336 60.6273 61.9336 65.3641C61.9336 67.657 62.8265 69.8131 64.4497 71.4376L67.0949 74.0828V76.1293C67.0949 78.2634 68.8317 80.0002 70.9659 80.0002C73.1 80.0002 74.8368 78.2634 74.8368 76.1293V74.0828L77.4833 71.4376C79.1052 69.8131 79.9981 67.6583 79.9981 65.3641C79.9981 60.6273 76.1452 56.7744 71.4084 56.7744ZM70.9659 77.4196C70.2549 77.4196 69.6755 76.8415 69.6755 76.1293V74.8389H72.2562V76.1293C72.2562 76.8415 71.6768 77.4196 70.9659 77.4196ZM75.6575 69.6131L73.0123 72.2583H72.2562V67.097H74.8368V64.5163H67.0949V67.097H69.6755V72.2583H68.9194L66.2742 69.6131C65.1388 68.4776 64.5142 66.968 64.5142 65.3641C64.5142 62.0505 67.2097 59.3551 70.5233 59.3551H71.4097C74.722 59.3551 77.4175 62.0505 77.4175 65.3641C77.4175 66.968 76.793 68.4776 75.6575 69.6131Z" fill="#DFB48F"/>
<path d="M69.6797 49.0322H72.2603V54.1935H69.6797V49.0322Z" fill="white"/>
<path d="M63.3828 50.7832L65.7668 49.795L67.7436 54.5642L65.3596 55.5523L63.3828 50.7832Z" fill="white"/>
<path d="M74.2539 54.5967L76.2307 49.8276L78.6147 50.8157L76.6379 55.5848L74.2539 54.5967Z" fill="white"/>
<path d="M10.3226 70.9675V69.6772H15.4839C16.9071 69.6772 18.0645 68.5198 18.0645 67.0966V46.4514C18.0645 45.0282 16.9071 43.8708 15.4839 43.8708H10.3226V42.5804C10.3226 41.8682 10.9019 41.2901 11.6129 41.2901H25.8065V38.7095H11.6129C9.47871 38.7095 7.74194 40.4462 7.74194 42.5804V43.8708H2.58065C1.15742 43.8708 0 45.0282 0 46.4514V67.0966C0 68.5198 1.15742 69.6772 2.58065 69.6772H7.74194V70.9675C7.74194 73.1017 9.47871 74.8385 11.6129 74.8385H61.9355V72.2579H11.6129C10.9019 72.2579 10.3226 71.6798 10.3226 70.9675ZM2.58065 46.4514H15.4839L15.4852 67.0966H2.58065V46.4514Z" fill="#DFB48F"/>
<path d="M5.16406 49.0322H12.906V51.6129H5.16406V49.0322Z" fill="#DFB48F"/>
<path d="M5.16406 54.1934H12.906V56.774H5.16406V54.1934Z" fill="#DFB48F"/>
<path d="M5.16406 59.3545H12.906V61.9351H5.16406V59.3545Z" fill="#DFB48F"/>
</svg>
