<svg width="80" height="80" viewBox="0 0 80 80" fill="none" xmlns="http://www.w3.org/2000/svg">
<g clip-path="url(#clip0_2305_21864)">
<path d="M41.0602 49.5636C40.7613 48.9336 40.0077 48.6648 39.3775 48.9641C38.3522 49.4506 37.2772 49.8528 36.1825 50.1591C35.7245 50.2872 35.3775 50.6614 35.2844 51.1278L33.9481 57.8088C33.8163 58.4684 33.2322 58.9473 32.5594 58.9473H28.9142C28.2414 58.9473 27.6575 58.4686 27.5255 57.8088L26.1892 51.1278C26.0959 50.6614 25.7488 50.2872 25.2911 50.1591C23.7445 49.7263 22.252 49.1078 20.855 48.3209C20.4405 48.0875 19.93 48.1067 19.5344 48.3705L13.8647 52.1502C13.305 52.5233 12.5534 52.4487 12.0775 51.9731L9.5 49.3955C9.02422 48.9197 8.95 48.1681 9.32297 47.6083L13.1027 41.9386C13.3666 41.5428 13.3858 41.0325 13.1522 40.618C12.3652 39.2208 11.7467 37.7281 11.3141 36.1819C11.1859 35.7239 10.8117 35.3769 10.3453 35.2837L3.66437 33.9475C3.00469 33.8156 2.52578 33.2316 2.52578 32.5588V28.9136C2.52578 28.2408 3.00453 27.6569 3.66437 27.5248L10.3453 26.1886C10.8117 26.0953 11.1859 25.7481 11.3141 25.2905C11.7469 23.7439 12.3653 22.2514 13.1522 20.8544C13.3856 20.44 13.3664 19.9295 13.1027 19.5337L9.32328 13.8647C8.95016 13.3048 9.02453 12.5534 9.50031 12.0775L12.0778 9.5C12.5536 9.02422 13.3053 8.95 13.865 9.32297L19.5347 13.1027C19.9303 13.3666 20.4409 13.3856 20.8553 13.1522C22.2523 12.3653 23.7448 11.7469 25.2914 11.3141C25.7494 11.1859 26.0964 10.8117 26.1895 10.3453L27.5258 3.66437C27.6577 3.00469 28.2417 2.52578 28.9145 2.52578H32.5597C33.2325 2.52578 33.8164 3.00453 33.9484 3.66437L35.2847 10.3453C35.378 10.8117 35.7252 11.1859 36.1828 11.3141C37.7294 11.7469 39.2219 12.3653 40.6189 13.1522C41.0334 13.3856 41.5439 13.3664 41.9395 13.1027L47.6092 9.32297C48.1689 8.94984 48.9203 9.02437 49.3964 9.5L51.9739 12.0775C52.4497 12.5533 52.5239 13.3048 52.1509 13.8647L48.3712 19.5344C48.1073 19.9302 48.0881 20.4405 48.3217 20.855C49.1086 22.252 49.727 23.7445 50.1598 25.2911C50.288 25.7491 50.6622 26.0961 51.1286 26.1892L57.8095 27.5255C58.4692 27.6573 58.9481 28.2414 58.9481 28.9142V32.5594C58.9481 33.2322 58.4694 33.8161 57.8095 33.9481L51.1286 35.2844C50.6622 35.3777 50.288 35.7248 50.1598 36.1828C49.8459 37.3047 49.4317 38.4052 48.9286 39.4537C48.6267 40.0827 48.892 40.8372 49.5209 41.1389C50.1498 41.4409 50.9045 41.1755 51.2061 40.5466C51.6602 39.6002 52.05 38.6162 52.3689 37.6127L58.305 36.4255C60.1408 36.058 61.4736 34.432 61.4736 32.5592V28.9141C61.4736 27.0413 60.1408 25.4155 58.3042 25.048L52.3683 23.8608C51.9789 22.6352 51.4855 21.4436 50.8942 20.3031L54.2523 15.2658C55.2911 13.7075 55.0841 11.6153 53.7597 10.2909L51.1822 7.71344C49.8577 6.38906 47.7655 6.18219 46.2073 7.22078L41.17 10.5789C40.0295 9.98781 38.838 9.49422 37.6123 9.10484L36.4252 3.16891C36.0581 1.33281 34.4322 0 32.5594 0H28.9142C27.0414 0 25.4156 1.33281 25.0481 3.16938L23.8609 9.10531C22.6353 9.49469 21.4437 9.98813 20.3033 10.5794L15.2663 7.22125C13.7081 6.1825 11.6158 6.38937 10.2914 7.71391L7.71391 10.2914C6.38969 11.6158 6.1825 13.7078 7.22125 15.2663L10.5794 20.3036C9.98828 21.4441 9.49469 22.6355 9.10531 23.8613L3.16922 25.0484C1.33281 25.4156 0 27.0416 0 28.9144V32.5595C0 34.4323 1.33281 36.0581 3.16938 36.4256L9.10531 37.6128C9.49453 38.8383 9.98813 40.0298 10.5794 41.1705L7.22125 46.2078C6.1825 47.7661 6.38953 49.8583 7.71391 51.1827L10.2914 53.7602C11.6158 55.0845 13.708 55.2914 15.2663 54.2528L20.3036 50.8947C21.4441 51.4858 22.6355 51.9794 23.8613 52.3688L25.0484 58.305C25.4156 60.1409 27.0416 61.4739 28.9144 61.4739H32.5595C34.4323 61.4739 36.0581 60.1411 36.4256 58.3045L37.6128 52.3686C38.5861 52.0594 39.5414 51.6833 40.4609 51.2467C41.0911 50.9473 41.3595 50.1939 41.0602 49.5636Z" fill="#DFB48F"/>
<path d="M41.6789 37.7556C41.8633 37.8503 42.0602 37.8951 42.2542 37.8951C42.713 37.8951 43.1556 37.6443 43.3792 37.2081C44.398 35.2214 44.9366 32.9837 44.9366 30.737C44.9366 22.9078 38.567 16.5381 30.7377 16.5381C27.013 16.5381 23.4933 17.9696 20.8267 20.5695C20.3272 21.0564 20.317 21.8562 20.8039 22.3556C21.2908 22.855 22.0905 22.8654 22.59 22.3784C24.782 20.2415 27.6755 19.0645 30.7373 19.0645C37.1736 19.0645 42.41 24.3007 42.41 30.7371C42.41 32.6112 41.9797 34.4006 41.1311 36.0556C40.813 36.6759 41.0581 37.4371 41.6789 37.7556Z" fill="#DFB48F"/>
<path d="M18.9137 25.3318C18.2539 25.1048 17.5355 25.4555 17.3084 26.1152C16.798 27.5993 16.5391 29.1543 16.5391 30.7366C16.5391 38.566 22.9088 44.9355 30.738 44.9355C33.7491 44.9355 36.6259 44.0049 39.0578 42.2438C39.6228 41.8346 39.7492 41.0448 39.3402 40.4798C38.9311 39.9148 38.1411 39.7884 37.5761 40.1974C35.578 41.6441 33.2134 42.409 30.7378 42.409C24.3014 42.409 19.0652 37.1726 19.0652 30.7363C19.0652 29.4341 19.2777 28.1555 19.697 26.9366C19.9239 26.2771 19.5733 25.5585 18.9137 25.3318Z" fill="#DFB48F"/>
<path d="M77.5667 55.2059L73.9141 54.4754C73.6916 53.8134 73.4236 53.167 73.113 52.5421L75.1795 49.4425C75.9763 48.2471 75.8175 46.6425 74.8017 45.6268L73.108 43.9331C72.0922 42.9175 70.4875 42.7586 69.2923 43.5553L66.1927 45.6218C65.5678 45.3112 64.9214 45.0432 64.2594 44.8209L63.5289 41.1682C63.2472 39.7596 62.0002 38.7373 60.5637 38.7373H58.1683C56.732 38.7373 55.4848 39.7596 55.2031 41.1682L54.4727 44.8209C53.8106 45.0434 53.1642 45.3114 52.5394 45.6218L49.4397 43.5553C48.2444 42.7587 46.6397 42.9173 45.6241 43.9331L43.9303 45.6268C42.9145 46.6426 42.7558 48.2473 43.5525 49.4425L45.6191 52.5421C45.1919 53.4012 44.8458 54.3009 44.587 55.2261C44.3991 55.8979 44.7914 56.5948 45.4631 56.7829C46.135 56.9709 46.8319 56.5787 47.02 55.9068C47.295 54.9237 47.6881 53.9753 48.1881 53.0876C48.4216 52.6731 48.4023 52.1626 48.1386 51.767L45.6547 48.0412C45.5236 47.8445 45.5497 47.5804 45.7169 47.4132L47.4106 45.7195C47.5778 45.5525 47.8419 45.5265 48.0386 45.6573L51.7644 48.1412C52.16 48.4051 52.6705 48.4242 53.085 48.1907C53.9728 47.6907 54.9211 47.2976 55.9042 47.0226C56.3622 46.8945 56.7092 46.5203 56.8023 46.0539L57.6803 41.6637C57.7266 41.432 57.9319 41.2637 58.1683 41.2637H60.5637C60.8 41.2637 61.0053 41.432 61.0517 41.6637L61.9297 46.0542C62.023 46.5206 62.3702 46.8948 62.8278 47.0229C63.8109 47.2979 64.7594 47.6911 65.647 48.1911C66.0614 48.4245 66.572 48.4053 66.9677 48.1415L70.6934 45.6576C70.8902 45.5265 71.1542 45.5525 71.3214 45.7198L73.0152 47.4136C73.1822 47.5807 73.2083 47.8448 73.0773 48.0415L70.5934 51.7673C70.3295 52.1631 70.3103 52.6734 70.5439 53.0879C71.0439 53.9757 71.437 54.924 71.712 55.9071C71.8402 56.3651 72.2144 56.7121 72.6808 56.8053L77.0709 57.6832C77.3027 57.7295 77.4709 57.9348 77.4709 58.1712V60.5667C77.4709 60.8029 77.3027 61.0082 77.0709 61.0546L72.6805 61.9326C72.2141 62.0259 71.8398 62.3731 71.7117 62.8307C71.4367 63.8139 71.0436 64.7623 70.5436 65.65C70.3102 66.0645 70.3294 66.575 70.5931 66.9706L73.077 70.6964C73.2081 70.8931 73.182 71.1571 73.0148 71.3243L71.3211 73.0181C71.1541 73.1853 70.89 73.2112 70.6931 73.0803L66.9673 70.5964C66.5717 70.3326 66.0611 70.3134 65.6467 70.5468C64.7589 71.0468 63.8106 71.44 62.8275 71.715C62.3695 71.8431 62.0225 72.2173 61.9294 72.6837L61.0514 77.0739C61.0052 77.3056 60.7998 77.4739 60.5634 77.4739H58.168C57.9317 77.4739 57.7264 77.3056 57.68 77.0739L56.802 72.6834C56.7088 72.217 56.3616 71.8428 55.9039 71.7146C54.9208 71.4396 53.9723 71.0465 53.0847 70.5465C52.6702 70.3131 52.1595 70.3323 51.7641 70.5961L48.0383 73.08C47.8416 73.2111 47.5775 73.1851 47.4103 73.0178L45.7166 71.324C45.5495 71.1568 45.5234 70.8928 45.6544 70.6961L48.1383 66.9703C48.4022 66.5745 48.4214 66.0642 48.1878 65.6496C47.6878 64.7618 47.2947 63.8136 47.0197 62.8304C46.8916 62.3725 46.5173 62.0254 46.0509 61.9323L41.6608 61.0543C41.4291 61.0081 41.2608 60.8028 41.2608 60.5664V58.1709C41.2608 57.9346 41.4291 57.7293 41.6608 57.6829L41.9295 57.6292C42.6136 57.4923 43.0573 56.8268 42.9203 56.1428C42.7834 55.4587 42.1188 55.0157 41.4338 55.152L41.165 55.2057C39.7567 55.4876 38.7344 56.7346 38.7344 58.1711V60.5665C38.7344 62.0028 39.7567 63.25 41.1653 63.5317L44.818 64.2621C45.0405 64.9242 45.3084 65.5706 45.6189 66.1954L43.5523 69.2951C42.7555 70.4904 42.9144 72.0951 43.9302 73.1107L45.6239 74.8045C46.6397 75.8203 48.2444 75.979 49.4395 75.1823L52.5392 73.1157C53.1641 73.4264 53.8105 73.6943 54.4725 73.9167L55.203 77.5693C55.485 78.9779 56.732 80.0003 58.1684 80.0003H60.5639C62.0002 80.0003 63.2473 78.9779 63.5291 77.5693L64.2595 73.9167C64.9216 73.6942 65.568 73.4262 66.1928 73.1156L69.2925 75.1821C70.4878 75.9789 72.0925 75.8201 73.1081 74.8043L74.8019 73.1106C75.8177 72.0948 75.9764 70.4901 75.1797 69.295L73.1131 66.1953C73.4238 65.5704 73.6917 64.924 73.9141 64.262L77.5667 63.5315C78.9752 63.2498 79.9975 62.0028 79.9975 60.5664V58.1709C79.9977 56.7346 78.9753 55.4876 77.5667 55.2059Z" fill="#DFB48F"/>
<path d="M59.3708 54.8213C61.8783 54.8213 63.9181 56.8612 63.9181 59.3687C63.9181 60.0663 64.4837 60.6318 65.1812 60.6318C65.8787 60.6318 66.4444 60.0662 66.4444 59.3687C66.4444 55.4682 63.2711 52.2949 59.3706 52.2949C55.4702 52.2949 52.2969 55.4682 52.2969 59.3687C52.2969 63.2691 55.4702 66.4424 59.3706 66.4424C60.9505 66.4424 62.4448 65.9329 63.6923 64.9691C64.2444 64.5426 64.3461 63.7493 63.9197 63.1971C63.4931 62.6451 62.6997 62.5432 62.1477 62.9698C61.3464 63.5887 60.3861 63.916 59.3706 63.916C56.8631 63.916 54.8233 61.8762 54.8233 59.3687C54.8234 56.861 56.8633 54.8213 59.3708 54.8213Z" fill="white"/>
<path d="M38.4345 30.7368C38.4345 26.4934 34.982 23.041 30.7388 23.041C26.4953 23.041 23.043 26.4935 23.043 30.7368C23.043 34.9802 26.4953 38.4326 30.7388 38.4326C34.9822 38.4326 38.4345 34.9801 38.4345 30.7368ZM25.5692 30.7368C25.5692 27.8865 27.8884 25.5673 30.7388 25.5673C33.5891 25.5673 35.9083 27.8865 35.9083 30.7368C35.9083 33.5871 33.5892 35.9063 30.7388 35.9063C27.8881 35.9063 25.5692 33.5871 25.5692 30.7368Z" fill="white"/>
</g>
<defs>
<clipPath id="clip0_2305_21864">
<rect width="80" height="80" fill="white"/>
</clipPath>
</defs>
</svg>
