<svg width="80" height="80" viewBox="0 0 80 80" fill="none" xmlns="http://www.w3.org/2000/svg">
<path d="M21.9259 31.5679C21.9258 31.756 21.9631 31.9422 22.0357 32.116C22.1082 32.2898 22.2145 32.4477 22.3486 32.5807C22.4826 32.7136 22.6418 32.8191 22.8169 32.8911C22.992 32.963 23.1798 33 23.3693 33H31.8172C32.0068 33 32.1945 32.963 32.3696 32.8911C32.5448 32.8191 32.7039 32.7137 32.838 32.5807C32.972 32.4477 33.0783 32.2898 33.1509 32.116C33.2234 31.9422 33.2607 31.756 33.2606 31.5679V24.4913C35.1504 24.1551 36.861 23.1704 38.093 21.7094C39.325 20.2484 40 18.4042 40 16.4993C40 14.5944 39.325 12.7502 38.093 11.2892C36.861 9.82823 35.1504 8.84351 33.2606 8.50732V1.43211C33.2607 1.24403 33.2234 1.05778 33.1509 0.884004C33.0783 0.71023 32.972 0.552335 32.838 0.419342C32.7039 0.286348 32.5448 0.180862 32.3696 0.10891C32.1945 0.0369574 32.0068 -5.07503e-05 31.8172 5.2233e-08H6.35244C4.66832 0.00167926 3.05364 0.666134 1.86272 1.84757C0.67179 3.029 0.00188774 4.63091 5.26466e-08 6.3018V31.5679C-5.11522e-05 31.756 0.03725 31.9422 0.109772 32.116C0.182294 32.2898 0.288616 32.4477 0.422662 32.5807C0.556709 32.7137 0.715854 32.8191 0.891004 32.8911C1.06615 32.963 1.25388 33 1.44345 33H9.89129C10.0809 33 10.2686 32.963 10.4437 32.8911C10.6189 32.8191 10.778 32.7137 10.9121 32.5807C11.0461 32.4477 11.1524 32.2898 11.225 32.116C11.2975 31.9422 11.3348 31.756 11.3347 31.5679C11.35 30.1844 11.9147 28.8628 12.9061 27.8898C13.8976 26.9168 15.2358 26.3711 16.6303 26.3711C18.0248 26.3711 19.3631 26.9168 20.3545 27.8898C21.346 28.8628 21.9106 30.1844 21.9259 31.5679ZM8.57544 30.1358H2.8869V6.3018C2.88815 5.39035 3.25369 4.5166 3.90336 3.87217C4.55302 3.22775 5.43377 2.86526 6.35244 2.86422H30.3737V9.81356C30.3737 10.0016 30.411 10.1879 30.4835 10.3617C30.556 10.5354 30.6623 10.6933 30.7964 10.8263C30.9304 10.9593 31.0896 11.0648 31.2647 11.1368C31.4399 11.2087 31.6276 11.2457 31.8172 11.2457C33.2113 11.2612 34.543 11.8215 35.5233 12.8051C36.5036 13.7887 37.0534 15.1161 37.0534 16.4994C37.0533 17.8826 36.5035 19.2101 35.5232 20.1936C34.5429 21.1772 33.2111 21.7375 31.817 21.7529C31.6275 21.7529 31.4398 21.7899 31.2646 21.8619C31.0895 21.9338 30.9304 22.0393 30.7963 22.1723C30.6623 22.3053 30.556 22.4632 30.4835 22.637C30.411 22.8107 30.3737 22.997 30.3737 23.185V30.1358H24.6852C24.3329 28.2718 23.3349 26.5887 21.864 25.3776C20.3931 24.1665 18.5418 23.5036 16.6303 23.5036C14.7189 23.5036 12.8675 24.1665 11.3966 25.3776C9.9257 26.5887 8.92778 28.2718 8.57544 30.1358Z" fill="white"/>
<path d="M73.711 16H48.5004C48.3127 16 48.1268 16.0368 47.9534 16.1085C47.78 16.1802 47.6225 16.2853 47.4898 16.4179C47.357 16.5504 47.2518 16.7077 47.18 16.8809C47.1082 17.054 47.0713 17.2396 47.0713 17.427V25.7787C47.0713 25.9661 47.1082 26.1517 47.18 26.3248C47.2518 26.498 47.357 26.6553 47.4898 26.7878C47.6225 26.9204 47.78 27.0255 47.9534 27.0972C48.1268 27.1689 48.3127 27.2058 48.5004 27.2057C49.8807 27.221 51.1992 27.7793 52.1699 28.7594C53.1405 29.7395 53.6849 31.0623 53.6849 32.4407C53.6849 33.8192 53.1405 35.142 52.1698 36.122C51.1991 37.1021 49.8805 37.6603 48.5002 37.6756C48.3125 37.6756 48.1267 37.7124 47.9533 37.7842C47.7799 37.8559 47.6224 37.961 47.4897 38.0935C47.357 38.226 47.2518 38.3833 47.18 38.5565C47.1082 38.7296 47.0713 38.9152 47.0713 39.1026V45.1173H41.4389C41.1032 43.2493 40.1206 41.5586 38.6629 40.3409C37.2052 39.1232 35.3652 38.456 33.4647 38.456C31.5642 38.456 29.7242 39.1232 28.2665 40.3409C26.8088 41.5586 25.8262 43.2493 25.4905 45.1173H18.429C18.2414 45.1172 18.0555 45.1541 17.8821 45.2258C17.7087 45.2975 17.5512 45.4026 17.4184 45.5351C17.2857 45.6676 17.1805 45.825 17.1087 45.9981C17.0369 46.1713 16.9999 46.3569 17 46.5443V71.7206C17.0019 73.3855 17.6651 74.9817 18.8441 76.159C20.0232 77.3362 21.6217 77.9983 23.289 78H73.711C75.3783 77.9983 76.9768 77.3362 78.1559 76.159C79.3349 74.9817 79.9981 73.3855 80 71.7206V22.2794C79.9981 20.6145 79.3349 19.0182 78.1559 17.841C76.9768 16.6638 75.3783 16.0017 73.711 16ZM56.6009 32.4413C56.5986 30.5439 55.9296 28.7074 54.7104 27.252C53.4913 25.7966 51.7993 24.8146 49.9294 24.4772V18.854H73.711C74.6205 18.8551 75.4924 19.2163 76.1356 19.8584C76.7788 20.5006 77.1407 21.3712 77.1419 22.2794V45.1173H70.2074C70.0197 45.1172 69.8339 45.1541 69.6605 45.2258C69.4871 45.2975 69.3295 45.4026 69.1968 45.5351C69.0641 45.6676 68.9589 45.825 68.8871 45.9981C68.8153 46.1713 68.7783 46.3569 68.7784 46.5443C68.7629 47.9226 68.2037 49.2393 67.2222 50.2085C66.2406 51.1777 64.9159 51.7212 63.5356 51.7212C62.1552 51.7212 60.8305 51.1776 59.849 50.2083C58.8675 49.2391 58.3084 47.9225 58.2929 46.5441C58.293 46.3567 58.256 46.1711 58.1842 45.998C58.1124 45.8249 58.0071 45.6676 57.8744 45.5351C57.7417 45.4026 57.5842 45.2975 57.4108 45.2258C57.2374 45.1541 57.0515 45.1172 56.8639 45.1173H49.9294V40.4042C51.7991 40.0669 53.4909 39.0851 54.7101 37.6299C55.9292 36.1748 56.5984 34.3386 56.6009 32.4413ZM19.8581 71.7206V47.9713H26.7932C26.9809 47.9714 27.1668 47.9345 27.3402 47.8628C27.5136 47.7911 27.6711 47.686 27.8038 47.5535C27.9365 47.4209 28.0418 47.2636 28.1136 47.0904C28.1854 46.9173 28.2223 46.7317 28.2223 46.5443C28.2246 45.1574 28.7779 43.8281 29.7608 42.8482C30.7437 41.8683 32.0758 41.318 33.4647 41.318C34.8535 41.318 36.1856 41.8683 37.1685 42.8482C38.1514 43.8281 38.7047 45.1574 38.707 46.5443C38.707 46.7317 38.7439 46.9173 38.8157 47.0904C38.8875 47.2636 38.9928 47.4209 39.1255 47.5535C39.2582 47.686 39.4157 47.7911 39.5891 47.8628C39.7626 47.9345 39.9484 47.9714 40.1361 47.9713H47.0712V53.5957C45.2003 53.9307 43.5068 54.912 42.2871 56.3677C41.0674 57.8235 40.3991 59.6612 40.3991 61.5593C40.3991 63.4574 41.0674 65.2951 42.2871 66.7509C43.5068 68.2067 45.2003 69.1879 47.0712 69.5229V75.1459H23.289C22.3795 75.1449 21.5076 74.7837 20.8644 74.1415C20.2212 73.4994 19.8593 72.6288 19.8581 71.7206ZM73.711 75.146H49.9294V68.2213C49.9294 68.0339 49.8925 67.8483 49.8207 67.6751C49.7489 67.502 49.6437 67.3446 49.511 67.2121C49.3782 67.0796 49.2207 66.9745 49.0473 66.9028C48.8739 66.8311 48.688 66.7942 48.5004 66.7943C47.11 66.7943 45.7766 66.2427 44.7934 65.261C43.8103 64.2792 43.258 62.9477 43.258 61.5593C43.258 60.1709 43.8103 58.8394 44.7934 57.8576C45.7766 56.8759 47.11 56.3244 48.5004 56.3244C48.688 56.3244 48.8739 56.2875 49.0473 56.2158C49.2207 56.1441 49.3782 56.039 49.511 55.9065C49.6437 55.774 49.7489 55.6167 49.8207 55.4435C49.8925 55.2703 49.9294 55.0848 49.9294 54.8973V48.8813H55.5611C55.8965 50.7496 56.8791 52.4406 58.3369 53.6586C59.7947 54.8766 61.6349 55.544 63.5357 55.544C65.4364 55.544 67.2767 54.8766 68.7345 53.6586C70.1923 52.4406 71.1748 50.7496 71.5102 48.8813H77.1419V71.7206C77.1407 72.6288 76.7788 73.4994 76.1356 74.1415C75.4924 74.7837 74.6205 75.1449 73.711 75.146Z" fill="#DFB48F"/>
</svg>
