<svg width="80" height="80" viewBox="0 0 80 80" fill="none" xmlns="http://www.w3.org/2000/svg">
<g clip-path="url(#clip0_2305_21882)">
<path d="M46.4824 70.2354C46.1511 70.2354 45.8334 70.3039 45.542 70.4404C44.7342 70.8124 44.2169 71.6169 44.2168 72.5C44.2168 73.1033 44.4531 73.6729 44.8799 74.0986C45.3109 74.5298 45.8785 74.7666 46.4824 74.7666H52.4326C53.4973 74.7666 54.4298 74.0119 54.6494 72.9707C54.6804 72.823 54.6978 72.6604 54.6963 72.4971C54.6956 71.9701 54.5152 71.4691 54.1846 71.0674L54.0342 70.9014C53.6039 70.4697 53.0358 70.2354 52.4326 70.2354H46.4824ZM8.34375 36.7344C5.73654 36.7345 3.6153 38.856 3.61523 41.4658V50.7451C3.61527 53.3536 5.73647 55.4765 8.34375 55.4766C9.3449 55.4766 10.1572 54.6618 10.1572 53.6621V38.5488C10.1572 37.5491 9.3449 36.7344 8.34375 36.7344ZM71.9092 36.7344C70.908 36.7344 70.0957 37.5491 70.0957 38.5488V53.6621C70.0957 54.6634 70.9096 55.4766 71.9092 55.4766C74.5163 55.4763 76.6367 53.3535 76.6367 50.7451V41.4658C76.6367 38.8574 74.5163 36.7346 71.9092 36.7344ZM71.752 58.6875L71.4775 58.6631C68.8988 58.4398 66.8662 56.2947 66.8662 53.6621V38.5488C66.8662 35.9405 68.8638 33.8096 71.4102 33.5537L71.6973 33.5244L71.6797 33.2363C71.1963 25.4629 67.9834 18.3023 62.4941 12.8096C56.5168 6.82838 48.5732 3.5332 40.127 3.5332C23.3401 3.5332 9.57499 16.6886 8.56934 33.2354L8.55176 33.5234L8.83887 33.5527C11.3877 33.8062 13.3896 35.9381 13.3896 38.5488V53.6631C13.3896 56.4467 11.126 58.7109 8.34473 58.7109C3.95599 58.7107 0.385742 55.137 0.385742 50.7461V41.4668C0.385908 38.2222 2.33732 35.429 5.12695 34.1885L5.29785 34.1123L5.30469 33.9248C5.96693 15.2729 21.3282 0.299806 40.127 0.299805C49.4353 0.299805 58.1887 3.92932 64.7764 10.5225C71.0613 16.8114 74.64 25.0805 74.9502 33.9248L74.957 34.1123L75.1289 34.1885C77.9173 35.4291 79.8682 38.2228 79.8682 41.4648V50.7441C79.868 53.9751 77.9317 56.7589 75.1592 58.0068L74.9824 58.0859V62.7812C74.9824 69.03 69.9017 74.114 63.6562 74.1143H57.6748L57.6035 74.3145C56.8337 76.4852 54.7704 77.9969 52.4346 77.9971H46.4834C45.0157 77.997 43.6367 77.4248 42.5986 76.3838L42.5977 76.3828C41.5602 75.3495 40.9874 73.9697 40.9873 72.498C40.9873 70.3572 42.2422 68.3956 44.1836 67.5029H44.1855C44.896 67.1717 45.6722 66.999 46.4834 66.999H52.4346C53.9049 66.9991 55.2841 67.5716 56.3193 68.6123L56.3203 68.6133C56.9079 69.1989 57.3294 69.9077 57.5996 70.6797L57.6699 70.8809H63.6562C68.1201 70.8806 71.752 67.2476 71.752 62.7812V58.6875Z" fill="#DFB48F" stroke="#9F0033" stroke-width="0.6"/>
<path d="M27.7256 18.9141H52.5312C54.6158 18.9141 56.5768 19.7282 58.0557 21.208C59.5343 22.6877 60.3476 24.6508 60.3477 26.7354V43.2842C60.3476 47.5959 56.841 51.1055 52.5312 51.1055H41.6611L41.5732 51.1924L34.4443 58.2881L34.4395 58.292C33.7531 59.0024 32.8156 59.3857 31.8516 59.3857C31.39 59.3857 30.9213 59.2957 30.4697 59.1143C29.0778 58.548 28.1777 57.2069 28.1777 55.6934V51.1055H27.7256C23.4158 51.1055 19.9093 47.5971 19.9092 43.2842V26.7354C19.9094 22.4225 23.4159 18.9141 27.7256 18.9141ZM27.7266 22.1475C25.1973 22.1476 23.1418 24.205 23.1416 26.7354V43.2842C23.1417 45.8133 25.1972 47.8719 27.7266 47.8721H29.7939C30.6865 47.8721 31.4092 48.5966 31.4092 49.4893V55.6934C31.4092 55.7088 31.4053 55.7999 31.4453 55.8916C31.4936 56.0023 31.5835 56.0741 31.6846 56.1152C31.7591 56.1467 31.8647 56.1718 31.9805 56.1299C32.067 56.0985 32.1269 56.0366 32.1426 56.0195L39.8574 48.3418C40.1601 48.0412 40.5696 47.8721 40.9971 47.8721H52.5332C55.0611 47.8718 57.1181 45.8146 57.1182 43.2842V26.7354C57.1181 25.5909 56.6984 24.5069 55.9307 23.6602L55.7725 23.4941C54.9047 22.6272 53.7548 22.1476 52.5332 22.1475H27.7266Z" fill="white" stroke="#9F0033" stroke-width="0.6"/>
<path d="M30.8184 32.7881C32.2129 32.7883 33.3467 33.9245 33.3467 35.3164C33.3464 36.708 32.2115 37.8436 30.8184 37.8438C29.4278 37.8438 28.2922 36.7083 28.292 35.3164C28.292 33.9242 29.4264 32.7881 30.8184 32.7881Z" fill="white" stroke="#9F0033" stroke-width="0.6"/>
<path d="M40.1309 32.7881C41.5254 32.7882 42.6592 33.9245 42.6592 35.3164C42.6589 36.7081 41.5252 37.8436 40.1309 37.8438C38.7403 37.8438 37.6047 36.7083 37.6045 35.3164C37.6045 33.9242 38.7389 32.7881 40.1309 32.7881Z" fill="white" stroke="#9F0033" stroke-width="0.6"/>
<path d="M49.4277 32.7881C50.821 32.7882 51.9561 33.9246 51.9561 35.3164C51.9558 36.708 50.8209 37.8436 49.4277 37.8438C48.0372 37.8438 46.9016 36.7083 46.9014 35.3164C46.9014 33.9242 48.0358 32.7881 49.4277 32.7881Z" fill="white" stroke="#9F0033" stroke-width="0.6"/>
</g>
<defs>
<clipPath id="clip0_2305_21882">
<rect width="80" height="80" fill="white"/>
</clipPath>
</defs>
</svg>
