<svg width="80" height="80" viewBox="0 0 80 80" fill="none" xmlns="http://www.w3.org/2000/svg">
<g clip-path="url(#clip0_2305_21907)">
<path d="M34.4706 70.5067H33.7898C33.2022 68.1606 32.6291 65.8505 32.0831 63.5331C31.0377 59.0934 29.9661 56.2602 24.0128 54.5715L18.2581 50.4381C17.2693 49.7281 16.086 49.4834 14.969 49.6627L11.1369 40.6175C8.54184 34.492 5.16841 35.207 4.19703 35.5725C1.80388 36.4717 0.399288 39.6421 1.24985 42.224L6.13525 57.0517C6.18675 57.2081 6.23906 57.3681 6.29218 57.5315C7.09011 59.9801 8.08303 63.0275 10.3682 64.5979L17.0295 69.1759C17.5575 69.5386 17.9316 69.9721 18.1802 70.5061H18.0331C17.3017 70.5061 16.6157 70.7891 16.102 71.3032C15.5883 71.8173 15.3057 72.5033 15.3063 73.2348L15.3102 77.2755C15.3117 78.7773 16.5347 79.9992 18.0363 79.9992L34.4745 80C35.2062 80 35.8919 79.7168 36.4056 79.2026C36.9193 78.6884 37.2017 78.0024 37.2009 77.2709L37.1972 73.2303C37.1954 71.7286 35.9724 70.5067 34.4706 70.5067ZM18.3138 67.3072L11.6524 62.7291C10.0007 61.5942 9.13992 58.9519 8.44807 56.829C8.39397 56.6633 8.34102 56.5007 8.28887 56.342L3.40347 41.5143C2.89478 39.9705 3.85321 38.1236 4.9948 37.6946C6.31372 37.1989 7.82942 38.622 9.04939 41.5017L12.8949 50.5788C12.5872 50.8253 12.3073 51.1172 12.0662 51.453C10.6391 53.4398 11.0945 56.2173 13.0813 57.6444L20.946 63.2936C21.4546 63.6588 22.1627 63.5427 22.5282 63.0342C22.8934 62.5257 22.7773 61.8173 22.2688 61.452L14.4041 55.8028C13.4326 55.1049 13.2099 53.7469 13.9079 52.7754C14.6057 51.8037 15.964 51.5811 16.9354 52.2792L22.8534 56.5299C22.9627 56.6083 23.0852 56.6667 23.2147 56.7022C28.2622 58.0876 28.9374 60.0656 29.8764 64.0525C30.3826 66.2018 30.9113 68.3407 31.4525 70.5062L20.5837 70.5056C20.2249 69.1726 19.4626 68.0967 18.3138 67.3072ZM34.8015 77.6002C34.7411 77.6606 34.6353 77.7326 34.4743 77.7326L18.0367 77.7315C17.7837 77.7315 17.5779 77.5257 17.5777 77.2729L17.5738 73.2322C17.5737 73.0714 17.6456 72.9657 17.706 72.9051C17.7664 72.8445 17.872 72.7728 18.0329 72.7728L32.8992 72.7736L32.9041 72.7739C32.9062 72.7739 32.9084 72.7736 32.9107 72.7736H34.4706C34.7236 72.7736 34.9294 72.9794 34.9297 73.2324L34.9335 77.273C34.9338 77.434 34.8617 77.5398 34.8015 77.6002ZM77.803 35.5723C76.8312 35.207 73.4584 34.492 70.8631 40.6173L67.0312 49.6625C65.9147 49.4842 64.7306 49.7279 63.742 50.4379L57.9873 54.5713C52.0343 56.2599 50.9625 59.0933 49.917 63.533C49.3676 65.8657 48.7956 68.17 48.2105 70.5066H47.5296C46.0279 70.5066 44.8048 71.7284 44.8034 73.2303L44.7995 77.2709C44.7988 78.0024 45.0814 78.6884 45.5951 79.2026C46.1088 79.7168 46.7945 80 47.5269 80L63.9636 79.9989C65.4653 79.9989 66.6884 78.777 66.6898 77.2753L66.6936 73.2348C66.6944 72.5032 66.4119 71.8172 65.8981 71.303C65.3844 70.7888 64.699 70.5057 63.9676 70.5057H63.8199C64.0685 69.9718 64.4426 69.5383 64.9704 69.1755L71.6319 64.5976C73.9172 63.027 74.9103 59.9789 75.7082 57.5299C75.7612 57.367 75.8132 57.2073 75.8647 57.0513L80.7501 42.2236C81.6008 39.6421 80.1962 36.4717 77.803 35.5723ZM63.9675 72.7729C64.1283 72.7729 64.234 72.8449 64.2944 72.9053C64.3547 72.9657 64.4266 73.0714 64.4264 73.2322L64.4227 77.2732C64.4225 77.526 64.2167 77.7317 63.9636 77.7317L47.5259 77.7328C47.3651 77.7328 47.2593 77.6607 47.1988 77.6003C47.1382 77.5399 47.0665 77.4342 47.0666 77.2732L47.0705 73.2326C47.0707 72.9796 47.2765 72.7739 47.5295 72.7739H49.0894C49.0915 72.7739 49.0938 72.7743 49.096 72.7743L49.1009 72.7739L63.9675 72.7729ZM78.5968 41.5143L73.7114 56.342C73.6592 56.5004 73.6064 56.6625 73.5527 56.8277C72.861 58.9513 71.9999 61.594 70.348 62.7292L63.6865 67.3072C62.5374 68.0968 61.7751 69.1729 61.4166 70.5059L50.5478 70.5066C51.0869 68.3498 51.6145 66.2154 52.1239 64.0528C53.063 60.0659 53.7383 58.0879 58.7855 56.7025C58.9152 56.6669 59.0377 56.6086 59.1468 56.5302L65.0647 52.2795C66.0367 51.5815 67.3946 51.8045 68.0923 52.7757C68.4284 53.2434 68.5613 53.8173 68.4672 54.3917C68.3732 54.966 68.0637 55.4674 67.596 55.8032L59.7313 61.4525C59.2228 61.8178 59.1068 62.5262 59.4719 63.0347C59.8374 63.5432 60.5456 63.6591 61.0541 63.2941L68.9188 57.6449C69.8783 56.9556 70.5125 55.9307 70.7046 54.7587C70.8967 53.5867 70.623 52.4128 69.9337 51.4533C69.6926 51.1177 69.4129 50.8257 69.105 50.5793L72.9505 41.5022C74.1705 38.6227 75.686 37.1985 77.0051 37.6951C78.147 38.1236 79.1055 39.9705 78.5968 41.5143ZM56.0414 43.9624C61.1586 38.6717 63.9767 32.5579 63.9767 26.7469V7.68097C63.9767 7.13101 63.5819 6.66024 63.0401 6.56453C57.9199 5.66073 52.8479 3.51822 47.9656 0.196275C47.7776 0.068502 47.5554 0 47.328 0H34.6724C34.445 0 34.2228 0.0683401 34.0346 0.196437C29.1523 3.51822 24.0805 5.66089 18.9601 6.5647C18.4184 6.66024 18.0236 7.13101 18.0236 7.68113V26.7469C18.0236 32.5577 20.8415 38.6716 25.9585 43.9624C30.1425 48.2884 35.6394 51.805 40.6631 53.3691C40.7729 53.4032 40.8864 53.4202 41.0001 53.4202C41.1136 53.4202 41.2273 53.4032 41.3371 53.3691C46.361 51.8047 51.8579 48.2883 56.0414 43.9624ZM41.0001 51.0964C36.4143 49.5895 31.4259 46.354 27.5885 42.3862C22.8826 37.5205 20.2909 31.9663 20.2909 26.7469V8.61895C25.3068 7.59417 30.255 5.46057 35.0193 2.26721H46.9808C51.7452 5.46057 56.6936 7.59417 61.7092 8.61895V26.7467C61.7092 31.9663 59.1175 37.5205 54.4114 42.3861C50.5746 46.3538 45.5862 49.5895 41.0001 51.0964Z" fill="#DFB48F"/>
<path d="M58.6136 10.2007C54.5213 9.05742 50.4721 7.21126 46.578 4.71361C46.3953 4.59653 46.183 4.53418 45.9659 4.53418H36.0348C35.8178 4.53418 35.6055 4.59637 35.4228 4.71361C31.5284 7.21143 27.479 9.05758 23.3871 10.2007C22.8974 10.3376 22.5586 10.7839 22.5586 11.2926V26.7467C22.5586 32.3253 25.8183 37.0861 28.553 40.0976C31.9164 43.8017 36.3038 46.8796 40.5906 48.542C40.7225 48.593 40.8616 48.6187 41.0005 48.6187C41.1395 48.6187 41.2786 48.5931 41.4104 48.542C45.6971 46.8796 50.0847 43.8019 53.4481 40.0977C56.1828 37.0861 59.4425 32.3251 59.4425 26.7467V11.2926C59.4423 10.7839 59.1035 10.3376 58.6136 10.2007ZM57.175 26.7467C57.175 30.5343 55.2553 34.7347 51.7693 38.5737C48.7884 41.8568 44.7916 44.7063 41.0004 46.2645C37.209 44.7062 33.2123 41.8566 30.2313 38.5737C26.7455 34.7347 24.8257 30.5345 24.8257 26.7467V12.1436C28.753 10.9586 32.6295 9.1643 36.3652 6.80139H45.6356C49.371 9.16414 53.2474 10.9585 57.175 12.1436V26.7467ZM34.9323 23.4926C33.9505 21.8955 31.8521 21.3949 30.2551 22.3764C29.4815 22.8521 28.9393 23.6004 28.7284 24.4837C28.5176 25.3669 28.6635 26.2794 29.139 27.053L33.088 33.4796C33.5764 34.2743 34.3463 34.8106 35.2558 34.9899C35.4769 35.0334 35.7015 35.0548 35.9268 35.0548C36.7055 35.0548 37.4893 34.7983 38.1522 34.3146L51.9703 24.2297C52.7024 23.6966 53.1831 22.9104 53.3238 22.0158C53.4646 21.1211 53.2484 20.2252 52.7154 19.4932C51.6146 17.9818 49.4902 17.6477 47.9775 18.7488L36.9587 26.7907L34.9323 23.4926ZM49.3133 20.5807C49.8142 20.2161 50.5179 20.3267 50.8826 20.8276C51.0593 21.0702 51.1307 21.3669 51.0842 21.6632C51.0376 21.9596 50.8784 22.22 50.6347 22.3975L36.8154 32.4832C36.4705 32.735 36.0615 32.8375 35.6942 32.7654C35.4043 32.7083 35.1775 32.5491 35.0196 32.2926L31.0707 25.8662C30.9122 25.6085 30.8636 25.3044 30.9337 25.0101C31.0041 24.7159 31.1847 24.4665 31.4424 24.3081C31.627 24.1947 31.8316 24.1407 32.0337 24.1407C32.4146 24.1407 32.7867 24.3324 33.0005 24.6798L35.6696 29.0236C35.8351 29.293 36.1058 29.4811 36.4162 29.5423C36.7262 29.6032 37.0481 29.5322 37.3037 29.3457L49.3133 20.5807Z" fill="white"/>
</g>
<defs>
<clipPath id="clip0_2305_21907">
<rect width="80" height="80" fill="white"/>
</clipPath>
</defs>
</svg>
