<svg width="80" height="80" viewBox="0 0 80 80" fill="none" xmlns="http://www.w3.org/2000/svg">
<g clip-path="url(#clip0_2305_21912)">
<path d="M4.80469 42.8634C4.80469 45.5077 6.95609 47.6589 9.60016 47.6589C12.2442 47.6589 14.3956 45.5075 14.3956 42.8634C14.3956 42.5083 14.3556 42.1623 14.282 41.8291L21.1717 38.3784C22.0519 39.3981 23.352 40.0453 24.8014 40.0453C28.5216 40.0453 30.8267 35.9705 28.9148 32.788L37.548 24.1403C39.5275 25.3248 42.0934 24.9344 43.6325 23.1512L50.5222 26.602C49.858 29.6109 52.1628 32.4319 55.2042 32.4319C59.3513 32.4319 61.5447 27.4898 58.7548 24.4164L68.805 9.31547C71.9294 10.4252 75.2011 8.08844 75.2011 4.79562C75.2009 2.15141 73.0497 0 70.4055 0C67.7613 0 65.61 2.15141 65.61 4.79547C65.61 6.03359 66.0817 7.16375 66.855 8.01547L56.8048 23.1164C54.9631 22.4622 52.8858 22.9884 51.5745 24.5077L44.6848 21.0569C44.7584 20.7236 44.7984 20.3778 44.7984 20.0227C44.7984 17.3784 42.647 15.2272 40.003 15.2272C36.2842 15.2272 33.977 19.3009 35.8895 22.4845L27.2566 31.1322C23.6825 28.9933 19.2106 32.1669 20.1198 36.2841L13.2302 39.7347C10.3408 36.3878 4.80469 38.4242 4.80469 42.8634ZM70.4055 2.34375C71.7573 2.34375 72.8572 3.44359 72.8572 4.79547C72.8572 6.14734 71.7573 7.24719 70.4055 7.24719C69.0536 7.24719 67.9537 6.14734 67.9537 4.79547C67.9537 3.44359 69.0534 2.34375 70.4055 2.34375ZM55.2042 25.1845C56.5561 25.1845 57.6559 26.2844 57.6559 27.6362C57.6559 28.9881 56.5561 30.088 55.2042 30.088C53.8523 30.088 52.7525 28.9881 52.7525 27.6362C52.7525 26.2844 53.8522 25.1845 55.2042 25.1845ZM40.0028 17.5709C41.3547 17.5709 42.4545 18.6708 42.4545 20.0227C42.4545 21.3745 41.3547 22.4744 40.0028 22.4744C38.6509 22.4744 37.5511 21.3745 37.5511 20.0227C37.5511 18.6708 38.6508 17.5709 40.0028 17.5709ZM24.8014 32.798C26.1533 32.798 27.2531 33.8978 27.2531 35.2497C27.2531 36.6016 26.1533 37.7014 24.8014 37.7014C23.4495 37.7014 22.3497 36.6016 22.3497 35.2497C22.3497 33.8978 23.4495 32.798 24.8014 32.798ZM9.60016 45.3153C8.24828 45.3153 7.14844 44.2155 7.14844 42.8636C7.14844 41.5117 8.24828 40.4119 9.60016 40.4119C10.952 40.4119 12.0519 41.5117 12.0519 42.8636C12.0519 44.2155 10.9522 45.3153 9.60016 45.3153Z" fill="white"/>
<path d="M77.9256 77.6564H76.4755V51.9053C76.4755 51.258 75.9509 50.7334 75.3036 50.7334C74.6563 50.7334 74.1317 51.258 74.1317 51.9053V77.6564H66.6772V19.2734H74.1317V46.4367C74.1317 47.0841 74.6563 47.6086 75.3036 47.6086C75.9509 47.6086 76.4755 47.0841 76.4755 46.4367V19.0816C76.4755 17.895 75.51 16.9297 74.3236 16.9297H66.4855C65.2989 16.9297 64.3336 17.8952 64.3336 19.0816V77.6564H61.2742V42.0292C61.2742 40.8427 60.3089 39.8773 59.1225 39.8773H57.9378C57.2905 39.8773 56.7659 40.4019 56.7659 41.0492C56.7659 41.6966 57.2905 42.2211 57.9378 42.2211H58.9306V77.6564H51.4763V42.2211H52.4691C53.1164 42.2211 53.6409 41.6966 53.6409 41.0492C53.6409 40.4019 53.1164 39.8773 52.4691 39.8773H51.2842C50.0977 39.8773 49.1325 40.8428 49.1325 42.0292V77.6564H46.0731V34.3492C46.0731 33.1627 45.1077 32.1975 43.9213 32.1975H36.0831C34.8966 32.1975 33.9314 33.1628 33.9314 34.3492V77.6564H30.872V49.6428C30.872 48.4563 29.9066 47.4909 28.7202 47.4909H20.882C19.6955 47.4909 18.7302 48.4564 18.7302 49.6428V77.6564H15.6708V57.2562C15.6708 56.0697 14.7055 55.1045 13.5191 55.1045H5.68016C4.49359 55.1045 3.52828 56.0698 3.52828 57.2562V77.6564H2.07812C1.43078 77.6564 0.90625 78.1809 0.90625 78.8283C0.90625 79.4756 1.43078 80.0002 2.07812 80.0002H77.9258C78.5731 80.0002 79.0977 79.4756 79.0977 78.8283C79.0977 78.1809 78.573 77.6564 77.9256 77.6564ZM5.87203 77.6564V57.4483H13.3264V77.6564H5.87203ZM21.0733 77.6564V49.8345H28.5278V77.6564H21.0733ZM36.2747 77.6564V34.5413H43.7291V77.6564H36.2747Z" fill="#DFB48F"/>
</g>
<defs>
<clipPath id="clip0_2305_21912">
<rect width="80" height="80" fill="white"/>
</clipPath>
</defs>
</svg>
