<svg width="80" height="80" viewBox="0 0 80 80" fill="none" xmlns="http://www.w3.org/2000/svg">
<g clip-path="url(#clip0_2305_21917)">
<path d="M39.8574 0.25C61.9082 0.25 79.7861 18.1158 79.7861 40.1562C79.7861 51.3149 75.1987 61.4036 67.8145 68.6436L65.3701 66.1191L65.3994 66.0918L58.4111 59.1035L60.8984 56.6162L67.7871 63.5049L67.9619 63.293C73.1481 57.0086 76.2625 48.9571 76.2676 40.1777L76.2686 39.9277H67.5986V36.4102H76.0781L76.0479 36.1328C75.1416 27.9002 71.4873 20.4944 66.0225 14.8516L65.8457 14.6689L65.666 14.8486L59.9463 20.5674L57.459 18.0801L63.0674 12.4727L63.2617 12.2783L63.0498 12.1035C57.2368 7.29797 49.904 4.26234 41.8799 3.82324L41.6162 3.80859V13.8125H38.0986V3.80859L37.835 3.82324C29.8109 4.2624 22.4789 7.29816 16.666 12.1035L16.4541 12.2783L22.5 18.3242L20.0127 20.8115L13.8701 14.6689L13.6934 14.8516C8.22836 20.4944 4.5742 27.9002 3.66797 36.1328L3.63672 36.4102H11.5889V39.9277H3.44727V40.1777C3.45224 48.6775 6.37173 56.4944 11.2637 62.6865L11.4385 62.9072L17.3232 57.0225L19.8105 59.5098L13.9502 65.3711L13.7744 65.5459L13.8105 65.583L11.3135 68.0576C4.27357 60.8641 -0.0703125 51.016 -0.0703125 40.1562C-0.0702474 18.1159 17.8068 0.250176 39.8574 0.25Z" fill="#DFB48F" stroke="#9F0033" stroke-width="0.5"/>
<path d="M62.833 45.8506L62.8281 45.8535C62.8271 45.8542 62.8263 45.8557 62.8252 45.8564C62.8224 45.8584 62.8193 45.861 62.8164 45.8633C62.8152 45.8643 62.8138 45.8652 62.8125 45.8662L62.8096 45.8682L62.8076 45.8701C62.8076 45.8701 62.8076 45.8704 62.9121 45.9902M62.833 45.8506C62.8357 45.8488 62.8383 45.8471 62.8408 45.8457L62.877 45.9082M62.833 45.8506L62.8281 45.8545L62.9121 45.9902M62.833 45.8506L62.877 45.9082M62.9121 45.9902L63.0918 46.2793C63.1002 46.2744 63.1079 46.2689 63.1152 46.2637C63.1188 46.2611 63.1227 46.2584 63.126 46.2559C63.1277 46.2545 63.1302 46.2523 63.1318 46.251L63.1348 46.248H63.1357V46.2471L62.877 45.9082M62.9121 45.9902C62.9233 46.0031 62.9355 46.0175 62.9492 46.0332L62.877 45.9082M62.9678 45.6895C64.8689 45.3245 65.9404 46.0991 66.168 46.9775C66.3959 47.8586 65.835 49.0715 64.0059 49.7061L63.9941 49.71L63.9834 49.7158L38.4551 61.5039C37.7685 61.7402 37.0206 61.7194 36.3486 61.4443L31.1152 58.8926C30.4246 58.1338 30.038 57.5408 29.8564 56.8633C29.6737 56.181 29.6907 55.3847 29.8652 54.2031L33.1152 49.3848C33.5601 48.8096 34.1993 48.4165 34.9131 48.2783L62.9434 45.6924L62.9561 45.6914L62.9678 45.6895ZM53.6367 50.084L35.8945 51.7207L35.7764 51.7314L35.71 51.8301L33.2949 55.4102L33.2568 55.4668L33.2529 55.5342C33.2422 55.7044 33.2436 55.812 33.2471 55.875V55.8848L33.2305 55.8945H33.2314V55.8955L33.2324 55.8975C33.2328 55.8984 33.233 55.8994 33.2334 55.9004L33.2422 55.9209C33.2446 55.9259 33.2471 55.9311 33.25 55.9365L33.2549 56.0215L33.3867 56.0859L37.3701 58.0303L37.4766 58.082L37.585 58.0322L53.7646 50.5596L53.6367 50.084ZM33.25 55.9346L33.249 55.9336C33.2473 55.9304 33.2461 55.9271 33.2451 55.9248L33.249 55.9229L33.25 55.9346Z" fill="white" stroke="#9F0033" stroke-width="0.5"/>
</g>
<defs>
<clipPath id="clip0_2305_21917">
<rect width="80" height="80" fill="white"/>
</clipPath>
</defs>
</svg>
