<svg width="80" height="80" viewBox="0 0 80 80" fill="none" xmlns="http://www.w3.org/2000/svg">
<g clip-path="url(#clip0_2305_21924)">
<path d="M5.33594 26.6663V73.333C5.33594 74.0693 5.93294 74.6663 6.66927 74.6663H73.3359C74.0723 74.6663 74.6693 74.0693 74.6693 73.333V26.6663C74.6693 25.93 74.0723 25.333 73.3359 25.333H6.66927C5.93294 25.333 5.33594 25.93 5.33594 26.6663ZM8.0026 27.9997H72.0026V71.9997H8.0026V27.9997Z" fill="white"/>
<path d="M79.8973 15.4907C79.8307 15.3287 79.7328 15.1815 79.6093 15.0573L64.9427 0.390667C64.8185 0.267167 64.6713 0.169333 64.5093 0.102667C64.3478 0.0356667 64.1748 0.000833333 64 0H6.66667C6.313 0 5.974 0.140667 5.724 0.390667L0.390667 5.724C0.140667 5.974 0 6.313 0 6.66667V76C0 78.2092 1.79083 80 4 80H78.6667C79.403 80 80 79.403 80 78.6667V16C79.9992 15.8252 79.9643 15.6522 79.8973 15.4907ZM50.6667 2.66667H58.6667V14.6667C58.6667 15.403 58.0697 16 57.3333 16H50.6667V2.66667ZM42.6667 2.66667H48V16H42.6667V2.66667ZM16 2.66667H40V16H17.3333C16.597 16 16 15.403 16 14.6667V2.66667ZM77.3333 77.3333H4C3.26367 77.3333 2.66667 76.7363 2.66667 76V7.21867L7.21867 2.66667H13.3333V14.6667C13.3333 16.8758 15.1242 18.6667 17.3333 18.6667H57.3333C59.5425 18.6667 61.3333 16.8758 61.3333 14.6667V2.66667H63.448L77.3333 16.552V77.3333Z" fill="#DFB48F"/>
<path d="M14.6693 35.9997H53.3359C54.0723 35.9997 54.6693 35.4027 54.6693 34.6663C54.6693 33.93 54.0723 33.333 53.3359 33.333H14.6693C13.9329 33.333 13.3359 33.93 13.3359 34.6663C13.3359 35.4027 13.9329 35.9997 14.6693 35.9997Z" fill="#DFB48F"/>
<path d="M14.6693 43.9997H40.0026C40.7389 43.9997 41.3359 43.4027 41.3359 42.6663C41.3359 41.93 40.7389 41.333 40.0026 41.333H14.6693C13.9329 41.333 13.3359 41.93 13.3359 42.6663C13.3359 43.4027 13.9329 43.9997 14.6693 43.9997Z" fill="white"/>
<path d="M68 41.3335H45.3333C44.597 41.3335 44 41.9305 44 42.6668C44 43.4032 44.597 44.0002 45.3333 44.0002H68C68.7363 44.0002 69.3333 43.4032 69.3333 42.6668C69.3333 41.9305 68.7363 41.3335 68 41.3335Z" fill="white"/>
<path d="M14.6693 51.9997H28.0026C28.7389 51.9997 29.3359 51.4027 29.3359 50.6663C29.3359 49.93 28.7389 49.333 28.0026 49.333H14.6693C13.9329 49.333 13.3359 49.93 13.3359 50.6663C13.3359 51.4027 13.9329 51.9997 14.6693 51.9997Z" fill="white"/>
<path d="M67.9974 49.333H35.9974C35.2611 49.333 34.6641 49.93 34.6641 50.6663C34.6641 51.4027 35.2611 51.9997 35.9974 51.9997H67.9974C68.7337 51.9997 69.3307 51.4027 69.3307 50.6663C69.3307 49.93 68.7337 49.333 67.9974 49.333Z" fill="white"/>
<path d="M14.6693 59.9997H20.0026C20.7389 59.9997 21.3359 59.4027 21.3359 58.6663C21.3359 57.93 20.7389 57.333 20.0026 57.333H14.6693C13.9329 57.333 13.3359 57.93 13.3359 58.6663C13.3359 59.4027 13.9329 59.9997 14.6693 59.9997Z" fill="white"/>
<path d="M26.6693 57.333C25.9329 57.333 25.3359 57.93 25.3359 58.6663C25.3359 59.4027 25.9329 59.9997 26.6693 59.9997H33.3359C34.0723 59.9997 34.6693 59.4027 34.6693 58.6663C34.6693 57.93 34.0723 57.333 33.3359 57.333H26.6693Z" fill="white"/>
<path d="M68.0026 57.333H38.6693C37.9329 57.333 37.3359 57.93 37.3359 58.6663C37.3359 59.4027 37.9329 59.9997 38.6693 59.9997H68.0026C68.7389 59.9997 69.3359 59.4027 69.3359 58.6663C69.3359 57.93 68.7389 57.333 68.0026 57.333Z" fill="white"/>
<path d="M57.3359 65.333H14.6693C13.9329 65.333 13.3359 65.93 13.3359 66.6663C13.3359 67.4027 13.9329 67.9997 14.6693 67.9997H57.3359C58.0723 67.9997 58.6693 67.4027 58.6693 66.6663C58.6693 65.93 58.0723 65.333 57.3359 65.333Z" fill="#DFB48F"/>
</g>
<defs>
<clipPath id="clip0_2305_21924">
<rect width="80" height="80" fill="white"/>
</clipPath>
</defs>
</svg>
