<svg width="80" height="80" viewBox="0 0 80 80" fill="none" xmlns="http://www.w3.org/2000/svg">
<g clip-path="url(#clip0_2305_21941)">
<path fill-rule="evenodd" clip-rule="evenodd" d="M77.1407 22.8716C77.1407 22.8716 77.1407 13.4993 77.1407 7.14742C77.1407 5.25185 76.3879 3.43374 75.0473 2.09343C73.707 0.753132 71.8891 0 69.9933 0C56.1475 0 20.9425 0 7.09664 0C5.20107 0 3.38295 0.753132 2.04265 2.09343C0.70235 3.43374 -0.0507812 5.25185 -0.0507812 7.14742V48.6021C-0.0507812 50.4977 0.70235 52.3155 2.04265 53.6561C3.38295 54.9964 5.20107 55.7495 7.09664 55.7495H55.6987C56.4876 55.7495 57.1281 55.1088 57.1281 54.3199C57.1281 53.531 56.4876 52.8906 55.6987 52.8906C55.6987 52.8906 21.048 52.8906 7.09664 52.8906C5.95935 52.8906 4.86838 52.4388 4.0643 51.6344C3.25996 50.8301 2.80813 49.7394 2.80813 48.6021C2.80813 38.4326 2.80813 17.3169 2.80813 7.14742C2.80813 6.01013 3.25996 4.91916 4.0643 4.11508C4.86838 3.31074 5.95935 2.85892 7.09664 2.85892H69.9933C71.1308 2.85892 72.2216 3.31074 73.0259 4.11508C73.83 4.91916 74.2818 6.01013 74.2818 7.14742V22.8716C74.2818 23.6605 74.9222 24.3009 75.7114 24.3009C76.5003 24.3009 77.1407 23.6605 77.1407 22.8716Z" fill="#DFB48F"/>
<path fill-rule="evenodd" clip-rule="evenodd" d="M1.37881 47.1724H55.6987C56.4876 47.1724 57.1281 46.532 57.1281 45.7431C57.1281 44.9542 56.4876 44.3135 55.6987 44.3135H1.37881C0.589908 44.3135 -0.0507812 44.9542 -0.0507812 45.7431C-0.0507812 46.532 0.589908 47.1724 1.37881 47.1724Z" fill="#DFB48F"/>
<path fill-rule="evenodd" clip-rule="evenodd" d="M44.1723 53.818C43.9632 53.2601 43.4298 52.8906 42.8338 52.8906H34.2571C33.6612 52.8906 33.1278 53.2601 32.9186 53.818L28.6301 65.2539C28.4654 65.6928 28.5266 66.1845 28.7937 66.57C29.0606 66.9554 29.4998 67.1852 29.9686 67.1852H47.1223C47.5912 67.1852 48.0301 66.9554 48.2972 66.57C48.5643 66.1845 48.6253 65.6928 48.4606 65.2539L44.1723 53.818ZM41.8432 55.7495L45.0595 64.3263H32.0314L35.2477 55.7495H41.8432Z" fill="#DFB48F"/>
<path fill-rule="evenodd" clip-rule="evenodd" d="M25.6793 67.1851H51.4098C52.1987 67.1851 52.8394 66.5447 52.8394 65.7558C52.8394 64.9666 52.1987 64.3262 51.4098 64.3262H25.6793C24.8904 64.3262 24.25 64.9666 24.25 65.7558C24.25 66.5447 24.8904 67.1851 25.6793 67.1851Z" fill="#DFB48F"/>
<path fill-rule="evenodd" clip-rule="evenodd" d="M80 27.1597C80 24.0021 77.4401 21.4419 74.2822 21.4419H59.9874C56.8297 21.4419 54.2695 24.0021 54.2695 27.1597V58.6083C54.2695 61.7662 56.8297 64.3262 59.9874 64.3262H74.2822C77.4401 64.3262 80 61.7662 80 58.6083V27.1597ZM77.1411 27.1597V58.6083C77.1411 60.1871 75.8613 61.4672 74.2822 61.4672H59.9876C58.4085 61.4672 57.1287 60.1871 57.1284 58.6083V27.1597C57.1287 25.5809 58.4085 24.3011 59.9874 24.3008H74.2822C75.8613 24.3011 77.1411 25.5809 77.1411 27.1597Z" fill="white"/>
<path fill-rule="evenodd" clip-rule="evenodd" d="M64.9921 58.6084H69.2806C70.0695 58.6084 70.7099 57.9677 70.7099 57.1788C70.7099 56.3899 70.0695 55.7495 69.2806 55.7495H64.9921C64.2032 55.7495 63.5625 56.3899 63.5625 57.1788C63.5625 57.9677 64.2032 58.6084 64.9921 58.6084Z" fill="white"/>
</g>
<defs>
<clipPath id="clip0_2305_21941">
<rect width="80" height="80" fill="white"/>
</clipPath>
</defs>
</svg>
