<svg width="80" height="80" viewBox="0 0 80 80" fill="none" xmlns="http://www.w3.org/2000/svg">
<g clip-path="url(#clip0_2305_21952)">
<path d="M79.0617 53.853C77.9484 51.8645 75.4737 51.1809 73.5453 52.3287L56.9468 62.2109L43.1532 57.254C43.322 57.0529 43.4805 56.8426 43.6258 56.6222L52.2143 55.3313C54.6289 54.9685 56.3153 53.1651 56.3153 50.9456C56.3153 48.5207 54.4023 46.5479 52.0509 46.5479H40.755C39.9586 46.1957 39.0821 46 38.162 46C37.1711 46 36.2313 46.2278 35.3869 46.6329L35.3864 46.6319L19.1602 53.3383H11.315V50.4323C11.315 49.7866 10.8075 49.2632 10.1814 49.2632H0.727353C0.10128 49.2632 -0.40625 49.7866 -0.40625 50.4323V73.831C-0.40625 74.4766 0.10128 75 0.727353 75H10.1814C10.8075 75 11.315 74.4766 11.315 73.831V70.9415C14.8563 71.0375 19.352 71.5484 24.0878 72.0876C30.47 72.8144 37.6768 73.6351 44.2342 73.6349C44.4488 73.6349 44.6625 73.6341 44.8757 73.6322C52.7456 73.5661 58.3641 72.2553 62.0506 69.625L77.6208 59.5185C79.5178 58.2872 80.1508 55.7985 79.0617 53.853ZM57.4383 66.5769L58.6983 68.9011C58.0455 69.211 57.3526 69.4859 56.6225 69.7277L57.4383 66.5769ZM54.0481 50.9456C54.0481 52.1527 52.9629 52.856 51.8873 53.0176L44.6408 54.1068C44.7202 53.6858 44.763 53.2514 44.763 52.8069C44.763 51.3476 44.3139 49.9952 43.5528 48.8858H52.0509C53.1521 48.886 54.0481 49.81 54.0481 50.9456ZM42.4958 52.807C42.4958 55.2713 40.5518 57.2762 38.1622 57.2762C35.7725 57.2762 33.8284 55.2713 33.8284 52.807C33.8284 50.3427 35.7725 48.338 38.1622 48.338C40.5518 48.338 42.4958 50.3427 42.4958 52.807ZM19.2067 62.1316C19.2067 65.6911 16.3986 68.5869 12.9469 68.5869C9.49528 68.5869 6.68719 65.6911 6.68719 62.1316C6.68719 58.5721 9.49528 55.6763 12.9469 55.6763C16.3986 55.6763 19.2067 58.5721 19.2067 62.1316ZM1.86096 72.662V51.6013H9.04783V54.3156C6.30241 55.778 4.42014 58.7314 4.42014 62.1316C4.42014 65.5318 6.30257 68.4852 9.04783 69.9478V72.662H1.86096ZM24.3366 69.7638C22.2082 69.5215 20.129 69.2852 18.1537 69.0881C20.1712 67.4785 21.4739 64.9596 21.4739 62.1316C21.4739 59.5823 20.4154 57.2839 18.7291 55.6763H19.3792C19.5236 55.6763 19.6668 55.6477 19.8009 55.5925L31.9254 50.5814C31.6904 51.2794 31.561 52.0278 31.561 52.8072C31.561 56.5607 34.5221 59.6144 38.162 59.6144C39.1754 59.6144 40.1359 59.3771 40.9949 58.9544L55.6972 64.238L54.0996 70.4084C45.7924 72.2062 34.1516 70.8814 24.3366 69.7638ZM76.413 57.54L60.8217 67.6602C60.8073 67.6696 60.7929 67.6794 60.7788 67.6895C60.7455 67.7133 60.7106 67.736 60.6771 67.7596L58.5992 63.9271L74.6789 54.3535C75.5246 53.8498 76.6101 54.1497 77.0983 55.022C77.5756 55.8745 77.2745 56.9808 76.413 57.54ZM36.6739 52.8072C36.6739 51.9618 37.3424 51.2724 38.1622 51.2724C38.9819 51.2724 39.6502 51.9618 39.6502 52.8072C39.6502 53.6526 38.9817 54.3419 38.1622 54.3419C37.3424 54.3418 36.6739 53.6524 36.6739 52.8072ZM11.4588 62.1316C11.4588 61.2863 12.1273 60.5969 12.9471 60.5969C13.7667 60.5969 14.4354 61.2863 14.4354 62.1316C14.4354 62.977 13.7669 63.6664 12.9471 63.6664C12.1273 63.6664 11.4588 62.977 11.4588 62.1316Z" fill="#DFB48F"/>
<path d="M24.0798 31.153C23.7816 31.153 23.4954 31.2733 23.2845 31.4877L17.0977 37.7745C16.4598 37.3993 15.7204 37.1833 14.932 37.1833C12.5398 37.1833 10.5938 39.1609 10.5938 41.5916C10.5938 44.0224 12.5398 46 14.932 46C17.3241 46 19.2702 44.0224 19.2702 41.5916C19.2702 40.7903 19.0576 40.0389 18.6884 39.3907L24.5458 33.4386H36.2729C36.3494 33.88 36.5535 34.3025 36.8883 34.6428L39.2576 37.0504C39.678 37.4775 40.2368 37.7128 40.8311 37.7128C41.4254 37.7128 41.9844 37.4775 42.4046 37.0504C43.3045 36.1357 44.4489 36.157 45.2198 36.4814C45.9907 36.8058 46.8145 37.6134 46.8145 38.9065C46.8145 40.1534 47.8127 41.1678 49.0396 41.1678H52.3904C53.6173 41.1678 54.6155 40.1534 54.6155 38.9065C54.6155 37.6156 55.4398 36.8087 56.2114 36.4842C56.9829 36.1594 58.1272 36.1375 59.0254 37.0504C59.4457 37.4775 60.0046 37.7128 60.5991 37.7128C61.1936 37.7128 61.7524 37.4775 62.1725 37.0504L64.5419 34.6428C64.9622 34.2157 65.1936 33.6478 65.1936 33.0439C65.1936 32.4397 64.9622 31.8719 64.5419 31.4449C63.6437 30.5322 63.6651 29.3692 63.9846 28.5854C64.3042 27.8015 65.0983 26.9638 66.3686 26.9638C67.5955 26.9638 68.5937 25.9493 68.5937 24.7024V21.2976C68.5937 20.0508 67.5955 19.0364 66.3686 19.0364C65.0983 19.0364 64.3042 18.1988 63.9846 17.4148C63.6651 16.6309 63.6437 15.4679 64.5419 14.5552C64.9622 14.1281 65.1936 13.5602 65.1936 12.9563C65.1936 12.3522 64.9622 11.7842 64.5419 11.3574L62.1725 8.94961C61.7522 8.52248 61.1934 8.28737 60.5991 8.28737C60.0047 8.28737 59.4457 8.52248 59.0256 8.94961C58.1274 9.8623 56.9831 9.84074 56.2115 9.51583C55.44 9.19108 54.6157 8.38419 54.6157 7.09336C54.6157 5.84645 53.6174 4.83204 52.3905 4.83204H49.0398C47.8129 4.83204 46.8146 5.84645 46.8146 7.09336C46.8146 8.38419 45.9904 9.19108 45.2188 9.51583C44.4474 9.84042 43.3029 9.8623 42.4046 8.94944C41.537 8.06793 40.1251 8.06793 39.2576 8.94944L36.8883 11.3571C36.5612 11.6893 36.3502 12.1075 36.272 12.5612H24.5456L18.6884 6.60926C19.0576 5.96107 19.2702 5.20969 19.2702 4.40835C19.2702 1.97755 17.3241 0 14.932 0C12.5398 0 10.5938 1.97755 10.5938 4.40835C10.5938 6.83915 12.5398 8.8167 14.932 8.8167C15.7204 8.8167 16.4598 8.60069 17.0977 8.22566L23.2845 14.5125C23.4953 14.7268 23.7814 14.8472 24.0798 14.8472H37.1364C37.7765 15.7056 37.7319 16.7122 37.4454 17.4149C37.1258 18.199 36.3317 19.0366 35.0614 19.0366C33.8345 19.0366 32.8363 20.051 32.8363 21.2977V21.8573H23.9635C23.4667 19.979 21.7772 18.5918 19.7741 18.5918C17.3819 18.5918 15.4358 20.5694 15.4358 23.0002C15.4358 25.431 17.3819 27.4085 19.7741 27.4085C21.7772 27.4085 23.4667 26.0214 23.9635 24.1431H32.8363V24.7026C32.8363 25.9495 33.8345 26.9639 35.0614 26.9639C36.3317 26.9639 37.1258 27.8015 37.4454 28.5855C37.7317 29.2881 37.7764 30.2947 37.1364 31.1532L24.0798 31.153ZM14.932 43.7144C13.7802 43.7144 12.8432 42.7621 12.8432 41.5918C12.8432 40.4215 13.7802 39.4693 14.932 39.4693C16.0837 39.4693 17.0207 40.4215 17.0207 41.5918C17.0206 42.7621 16.0837 43.7144 14.932 43.7144ZM14.932 6.53089C13.7802 6.53089 12.8432 5.57869 12.8432 4.40835C12.8432 3.23802 13.7802 2.28581 14.932 2.28581C16.0837 2.28581 17.0207 3.23802 17.0207 4.40835C17.0207 5.57869 16.0837 6.53089 14.932 6.53089ZM19.7741 25.1227C18.6223 25.1227 17.6853 24.1705 17.6853 23.0002C17.6853 21.8298 18.6223 20.8776 19.7741 20.8776C20.9258 20.8776 21.8628 21.8298 21.8628 23.0002C21.8628 24.1705 20.9258 25.1227 19.7741 25.1227ZM35.0857 24.6781V21.3222C37.0651 21.3127 38.7642 20.1525 39.5237 18.2896C40.2832 16.4265 39.8889 14.3853 38.4959 12.9563L40.8313 10.5831C42.2375 11.9989 44.2462 12.3992 46.0797 11.6276C47.9132 10.8558 49.0549 9.12937 49.0641 7.11785H52.3664C52.3756 9.12937 53.5173 10.856 55.3508 11.6276C57.1841 12.3992 59.193 11.9989 60.5992 10.5831L62.9346 12.9563C61.5414 14.3853 61.1473 16.4263 61.9068 18.2896C62.6661 20.1527 64.3653 21.3129 66.3446 21.3222V24.6781C64.3653 24.6876 62.6661 25.8478 61.9068 27.7107C61.1473 29.5738 61.5414 31.6149 62.9346 33.044L60.5994 35.4172C59.1932 34.0014 57.1844 33.6009 55.3508 34.3727C53.5173 35.1445 52.3756 36.8708 52.3664 38.8825H49.0641C49.0549 36.869 47.9136 35.1416 46.0808 34.3701C44.248 33.5987 42.2388 34.0001 40.8313 35.4173L38.4959 33.0442C39.8891 31.6152 40.2832 29.574 39.5237 27.7109C38.7643 25.8478 37.0652 24.6876 35.0857 24.6781ZM50.715 32.4629C55.8498 32.4629 60.0272 28.218 60.0272 23.0002C60.0272 17.7823 55.8497 13.5374 50.715 13.5374C45.5803 13.5374 41.4028 17.7823 41.4028 23.0002C41.4028 28.218 45.5803 32.4629 50.715 32.4629ZM50.715 15.8234C54.6094 15.8234 57.7778 19.0429 57.7778 23.0003C57.7778 26.9577 54.6094 30.1773 50.715 30.1773C46.8206 30.1773 43.6522 26.9577 43.6522 23.0003C43.6522 19.0429 46.8207 15.8234 50.715 15.8234Z" fill="white"/>
</g>
<defs>
<clipPath id="clip0_2305_21952">
<rect width="80" height="80" fill="white"/>
</clipPath>
</defs>
</svg>
