<svg width="80" height="80" viewBox="0 0 80 80" fill="none" xmlns="http://www.w3.org/2000/svg">
<path d="M77.4813 51.5822C76.3957 49.6622 73.983 49.0023 72.1027 50.1105L55.9192 59.6519L42.4705 54.8659C42.635 54.6718 42.7896 54.4688 42.9312 54.2559L51.305 53.0095C53.6592 52.6593 55.3035 50.918 55.3035 48.7751C55.3035 46.4338 53.4383 44.529 51.1457 44.529H40.1322C39.3557 44.189 38.5012 44 37.604 44C36.6379 44 35.7216 44.2199 34.8983 44.6111L34.8979 44.6101L19.0773 51.0852H11.4283V48.2794C11.4283 47.656 10.9334 47.1507 10.323 47.1507H1.10526C0.494842 47.1507 0 47.656 0 48.2794V70.8713C0 71.4947 0.494842 72 1.10526 72H10.323C10.9334 72 11.4283 71.4947 11.4283 70.8713V68.0815C14.8809 68.1742 19.2643 68.6674 23.8817 69.1881C30.1044 69.8898 37.131 70.6822 43.5244 70.682C43.7337 70.682 43.9421 70.6812 44.1499 70.6794C51.8231 70.6156 57.3011 69.35 60.8954 66.8104L76.0763 57.0524C77.9259 55.8635 78.5431 53.4607 77.4813 51.5822ZM56.3984 63.8673L57.627 66.1114C56.9905 66.4106 56.3149 66.676 55.6031 66.9095L56.3984 63.8673ZM53.093 48.7751C53.093 49.9405 52.035 50.6195 50.9862 50.7756L43.9209 51.8273C43.9983 51.4208 44.04 51.0014 44.04 50.5721C44.04 49.1632 43.6021 47.8574 42.86 46.7863H51.1457C52.2194 46.7865 53.093 47.6786 53.093 48.7751ZM41.8295 50.5723C41.8295 52.9516 39.9341 54.8873 37.6042 54.8873C35.2743 54.8873 33.3788 52.9516 33.3788 50.5723C33.3788 48.193 35.2743 46.2574 37.6042 46.2574C39.9341 46.2574 41.8295 48.193 41.8295 50.5723ZM19.1226 59.5754C19.1226 63.0121 16.3847 65.8081 13.0194 65.8081C9.65399 65.8081 6.9161 63.0121 6.9161 59.5754C6.9161 56.1386 9.65399 53.3426 13.0194 53.3426C16.3847 53.3426 19.1226 56.1386 19.1226 59.5754ZM2.21052 69.7426V49.4081H9.21773V52.0288C6.54094 53.4408 4.70573 56.2924 4.70573 59.5754C4.70573 62.8583 6.5411 65.7099 9.21773 67.122V69.7426H2.21052ZM24.1242 66.9444C22.049 66.7104 20.0218 66.4822 18.096 66.292C20.063 64.7379 21.3331 62.3059 21.3331 59.5754C21.3331 57.114 20.3011 54.8948 18.657 53.3426H19.2908C19.4316 53.3426 19.5712 53.3151 19.7019 53.2617L31.5233 48.4234C31.2942 49.0974 31.1681 49.8199 31.1681 50.5725C31.1681 54.1966 34.0552 57.1449 37.604 57.1449C38.5921 57.1449 39.5286 56.9158 40.3661 56.5077L54.7009 61.6091L53.1432 67.5668C45.0437 69.3026 33.6939 68.0234 24.1242 66.9444ZM74.8987 55.1421L59.6973 64.9133C59.6832 64.9224 59.6692 64.9319 59.6554 64.9415C59.6229 64.9646 59.589 64.9865 59.5563 65.0093L57.5303 61.3089L73.208 52.0654C74.0325 51.5791 75.0909 51.8687 75.567 52.7109C76.0323 53.534 75.7387 54.6021 74.8987 55.1421ZM36.1531 50.5725C36.1531 49.7562 36.8049 49.0906 37.6042 49.0906C38.4035 49.0906 39.0551 49.7562 39.0551 50.5725C39.0551 51.3887 38.4033 52.0543 37.6042 52.0543C36.8049 52.0541 36.1531 51.3885 36.1531 50.5725ZM11.5685 59.5754C11.5685 58.7591 12.2203 58.0935 13.0195 58.0935C13.8186 58.0935 14.4706 58.7591 14.4706 59.5754C14.4706 60.3916 13.8188 61.0572 13.0195 61.0572C12.2203 61.0572 11.5685 60.3916 11.5685 59.5754Z" fill="#DFB48F"/>
<path d="M24.021 29.7985C23.7331 29.7985 23.4568 29.9136 23.2531 30.1187L17.2797 36.1321C16.6638 35.7732 15.9499 35.5666 15.1886 35.5666C12.879 35.5666 11 37.4582 11 39.7833C11 42.1084 12.879 44 15.1886 44C17.4983 44 19.3772 42.1084 19.3772 39.7833C19.3772 39.0168 19.172 38.2981 18.8155 37.6781L24.4709 31.9848H35.7937C35.8675 32.4069 36.0646 32.8111 36.3879 33.1366L38.6755 35.4395C39.0813 35.8481 39.6209 36.0731 40.1947 36.0731C40.7685 36.0731 41.3082 35.8481 41.7139 35.4395C42.5828 34.5646 43.6877 34.5849 44.432 34.8952C45.1764 35.2056 45.9717 35.978 45.9717 37.2149C45.9717 38.4076 46.9356 39.3779 48.1202 39.3779H51.3553C52.5399 39.3779 53.5038 38.4076 53.5038 37.2149C53.5038 35.9802 54.2996 35.2084 55.0446 34.8979C55.7895 34.5873 56.8944 34.5663 57.7616 35.4395C58.1674 35.8481 58.707 36.0731 59.281 36.0731C59.855 36.0731 60.3945 35.8481 60.8002 35.4395L63.0878 33.1366C63.4937 32.728 63.7171 32.1848 63.7171 31.6072C63.7171 31.0293 63.4937 30.4862 63.0878 30.0778C62.2206 29.2047 62.2413 28.0923 62.5498 27.3425C62.8584 26.5927 63.6251 25.7914 64.8516 25.7914C66.0362 25.7914 67 24.8211 67 23.6284V20.3716C67 19.179 66.0362 18.2087 64.8516 18.2087C63.6251 18.2087 62.8584 17.4076 62.5498 16.6576C62.2413 15.9078 62.2206 14.7954 63.0878 13.9224C63.4937 13.5138 63.7171 12.9707 63.7171 12.393C63.7171 11.8151 63.4937 11.2718 63.0878 10.8636L60.8002 8.56049C60.3944 8.15194 59.8548 7.92705 59.281 7.92705C58.7072 7.92705 58.1674 8.15194 57.7618 8.56049C56.8946 9.4335 55.7897 9.41289 55.0447 9.1021C54.2998 8.79147 53.504 8.01966 53.504 6.78496C53.504 5.59226 52.5401 4.62195 51.3555 4.62195H48.1203C46.9357 4.62195 45.9719 5.59226 45.9719 6.78496C45.9719 8.01966 45.176 8.79147 44.4311 9.1021C43.6863 9.41257 42.5813 9.4335 41.7139 8.56034C40.8762 7.71716 39.513 7.71716 38.6755 8.56034L36.3879 10.8633C36.072 11.1811 35.8683 11.581 35.7928 12.015H24.4708L18.8155 6.3219C19.172 5.70189 19.3772 4.98318 19.3772 4.21668C19.3772 1.89157 17.4983 0 15.1886 0C12.879 0 11 1.89157 11 4.21668C11 6.54179 12.879 8.43337 15.1886 8.43337C15.9499 8.43337 16.6638 8.22675 17.2797 7.86802L23.2531 13.8815C23.4567 14.0865 23.7329 14.2016 24.021 14.2016H36.6274C37.2454 15.0228 37.2023 15.9856 36.9257 16.6578C36.6171 17.4077 35.8505 18.2089 34.624 18.2089C33.4394 18.2089 32.4755 19.1792 32.4755 20.3717V20.9069H23.9087C23.429 19.1103 21.7978 17.7835 19.8637 17.7835C17.5541 17.7835 15.6751 19.675 15.6751 22.0002C15.6751 24.3253 17.5541 26.2168 19.8637 26.2168C21.7978 26.2168 23.429 24.89 23.9087 23.0934H32.4755V23.6286C32.4755 24.8213 33.4394 25.7916 34.624 25.7916C35.8505 25.7916 36.6171 26.5927 36.9257 27.3427C37.2022 28.0147 37.2453 28.9775 36.6274 29.7987L24.021 29.7985ZM15.1886 41.8137C14.0766 41.8137 13.1719 40.9029 13.1719 39.7835C13.1719 38.664 14.0766 37.7532 15.1886 37.7532C16.3006 37.7532 17.2054 38.664 17.2054 39.7835C17.2052 40.9029 16.3006 41.8137 15.1886 41.8137ZM15.1886 6.24694C14.0766 6.24694 13.1719 5.33613 13.1719 4.21668C13.1719 3.09723 14.0766 2.18643 15.1886 2.18643C16.3006 2.18643 17.2054 3.09723 17.2054 4.21668C17.2054 5.33613 16.3006 6.24694 15.1886 6.24694ZM19.8637 24.0304C18.7517 24.0304 17.847 23.1196 17.847 22.0002C17.847 20.8807 18.7517 19.9699 19.8637 19.9699C20.9757 19.9699 21.8805 20.8807 21.8805 22.0002C21.8805 23.1196 20.9757 24.0304 19.8637 24.0304ZM34.6474 23.6051V20.3952C36.5585 20.3861 38.199 19.2763 38.9324 17.4944C39.6657 15.7123 39.285 13.7598 37.94 12.393L40.1948 10.123C41.5526 11.4772 43.4921 11.8601 45.2623 11.122C47.0325 10.3838 48.1349 8.73244 48.1438 6.80838H51.3322C51.3411 8.73244 52.4435 10.384 54.2137 11.122C55.9838 11.8601 57.9234 11.4772 59.2811 10.123L61.536 12.393C60.1909 13.7598 59.8103 15.7121 60.5436 17.4944C61.2768 19.2765 62.9173 20.3863 64.8284 20.3952V23.6051C62.9173 23.6142 61.2768 24.724 60.5436 26.5059C59.8103 28.288 60.1909 30.2403 61.536 31.6073L59.2813 33.8773C57.9236 32.5231 55.9841 32.14 54.2137 32.8783C52.4435 33.6165 51.3411 35.2677 51.3322 37.1919H48.1438C48.1349 35.266 47.033 33.6137 45.2634 32.8758C43.4938 32.1378 41.5538 32.5219 40.1948 33.8775L37.94 31.6075C39.2851 30.2406 39.6657 28.2882 38.9324 26.5061C38.1992 24.724 36.5587 23.6142 34.6474 23.6051ZM49.7378 31.0515C54.6955 31.0515 58.7289 26.9911 58.7289 22.0002C58.7289 17.0092 54.6954 12.9488 49.7378 12.9488C44.7801 12.9488 40.7467 17.0092 40.7467 22.0002C40.7467 26.9911 44.7801 31.0515 49.7378 31.0515ZM49.7378 15.1354C53.4979 15.1354 56.557 18.215 56.557 22.0003C56.557 25.7856 53.4979 28.8652 49.7378 28.8652C45.9776 28.8652 42.9185 25.7856 42.9185 22.0003C42.9185 18.215 45.9778 15.1354 49.7378 15.1354Z" fill="white"/>
</svg>
