<svg width="80" height="80" viewBox="0 0 80 80" fill="none" xmlns="http://www.w3.org/2000/svg">
<path d="M57.7552 56.8769L50.0632 64.3973L46.2448 60.666C45.7307 60.1635 44.8997 60.1635 44.3856 60.666C43.8715 61.1686 43.8715 61.9809 44.3856 62.4834L49.1336 67.1234C49.39 67.374 49.7266 67.5 50.0632 67.5C50.3998 67.5 50.7364 67.374 50.9928 67.1234L59.6144 58.6943C60.1285 58.1918 60.1285 57.3795 59.6144 56.8769C59.1003 56.3744 58.2693 56.3744 57.7552 56.8769Z" fill="white"/>
<path d="M68.6811 51.1097C66.9133 51.1097 65.5931 50.6436 64.7546 49.7233C63.4239 48.2644 63.6121 46.0392 63.6134 46.0234C63.6516 45.6521 63.5318 45.2835 63.2817 45.007C63.0329 44.7305 62.6775 44.5724 62.305 44.5724H55.4985V2.31667C55.4985 1.58855 54.9088 1 54.1822 1H15.4598C15.4335 1 15.4098 1.01317 15.3835 1.0158C15.2677 1.02238 15.1571 1.04477 15.0479 1.08163C15.0215 1.09085 14.9926 1.08822 14.9676 1.09875C14.9478 1.10665 14.932 1.12113 14.9136 1.13035C14.7938 1.18697 14.6819 1.25938 14.5806 1.35287C14.5648 1.36735 14.545 1.37262 14.5292 1.3871L8.87186 7.0514L0.380519 15.5452C0.266002 15.6598 0.185709 15.7941 0.121211 15.9363C0.101467 15.9797 0.0896201 16.0219 0.075141 16.0666C0.0396014 16.172 0.0198573 16.2799 0.0119596 16.3905C0.00932708 16.4274 -0.00120294 16.4616 0.000113338 16.4985V73.1849C0.000113338 73.9131 0.589808 74.5016 1.3164 74.5016H41.0497C44.0008 77.3061 47.6864 79.1547 52.0341 79.9763C52.1144 79.9921 52.1973 80 52.2789 80C52.3605 80 52.4434 79.9921 52.525 79.9763C57.8402 78.9664 62.1457 76.4674 65.3193 72.549C68.3296 68.8505 69.9882 64.0697 69.9882 59.0861L70 52.4264C70 52.0761 69.8631 51.7404 69.6156 51.4942C69.3682 51.2466 69.0339 51.1071 68.6837 51.1071L68.6811 51.1097ZM11.7822 7.86247L14.1475 5.49642V15.1594H4.4939L11.7808 7.86378L11.7822 7.86247ZM2.63136 71.8683V17.7915H15.4651C16.1917 17.7915 16.7814 17.2029 16.7814 16.4748V3.63333H52.866V44.5724H42.2488C41.8789 44.5724 41.5262 44.7318 41.2774 45.0043C41.0786 45.2216 40.9878 45.5033 40.9641 45.7943H10.6475C9.92093 45.7943 9.33124 46.3829 9.33124 47.111C9.33124 47.8391 9.92093 48.4277 10.6475 48.4277H40.5679C40.3955 48.878 40.152 49.3296 39.79 49.7259C38.9515 50.6436 37.6326 51.1097 35.8701 51.1097C35.1435 51.1097 34.5538 51.6983 34.5538 52.4264V54.9333H10.6475C9.92093 54.9333 9.33124 55.5219 9.33124 56.25C9.33124 56.9781 9.92093 57.5666 10.6475 57.5666H34.5552V59.0887C34.5565 59.6944 34.5841 60.2961 34.6341 60.8939C34.6499 61.0874 34.6815 61.277 34.7026 61.4706C34.746 61.8721 34.7895 62.275 34.8553 62.6714C34.8934 62.9005 34.9461 63.1256 34.9908 63.3534C35.0606 63.7076 35.1277 64.0618 35.2146 64.4094C35.2752 64.6516 35.3489 64.8886 35.4173 65.1283C35.5108 65.4548 35.6016 65.78 35.7095 66.1C35.7925 66.3449 35.8859 66.5845 35.9767 66.8254C36.0913 67.1309 36.2071 67.4351 36.3348 67.7339C36.4388 67.9762 36.5533 68.2132 36.6665 68.4515C36.8021 68.7386 36.9403 69.023 37.089 69.3021C37.214 69.5378 37.347 69.7682 37.4813 69.9986C37.6392 70.2698 37.7998 70.5371 37.9696 70.7991C38.1144 71.023 38.2658 71.2429 38.4184 71.4614C38.5119 71.5957 38.5961 71.7366 38.6935 71.867L2.63136 71.8683ZM67.353 59.0848C67.353 63.4653 65.9051 67.6576 63.2738 70.8887C60.5491 74.2528 56.8503 76.4226 52.2763 77.3417C48.3656 76.5582 45.0762 74.8479 42.495 72.2541C42.0501 71.809 41.6381 71.3508 41.2669 70.8887C38.6475 67.6589 37.1996 63.4653 37.1877 59.0848V53.6693C39.1082 53.4455 40.6416 52.7108 41.7565 51.4784C43.0083 50.0932 43.4137 48.3921 43.5348 47.2058H61.0177C61.1362 48.3908 61.5403 50.0893 62.7881 51.4744C63.903 52.7095 65.4378 53.4442 67.3635 53.6693L67.353 59.0848Z" fill="#DFB48F"/>
<path d="M10.3225 30.5H44.6775C45.4075 30.5 46 30.053 46 29.5C46 28.947 45.4075 28.5 44.6775 28.5H10.3225C9.59247 28.5 9 28.947 9 29.5C9 30.053 9.59247 30.5 10.3225 30.5Z" fill="white"/>
<path d="M10.3225 41.5H44.6775C45.4075 41.5 46 40.606 46 39.5C46 38.394 45.4075 37.5 44.6775 37.5H10.3225C9.59247 37.5 9 38.394 9 39.5C9 40.606 9.59247 41.5 10.3225 41.5Z" fill="white"/>
<path d="M28.3061 11.5H44.6939C45.4149 11.5 46 10.8295 46 10C46 9.1705 45.4149 8.5 44.6939 8.5H28.3061C27.5851 8.5 27 9.1705 27 10C27 10.8295 27.5851 11.5 28.3061 11.5Z" fill="#DFB48F"/>
<path d="M28.3061 18.5H44.6939C45.4149 18.5 46 17.8295 46 17C46 16.1705 45.4149 15.5 44.6939 15.5H28.3061C27.5851 15.5 27 16.1705 27 17C27 17.8295 27.5851 18.5 28.3061 18.5Z" fill="#DFB48F"/>
</svg>
