<svg width="80" height="80" viewBox="0 0 80 80" fill="none" xmlns="http://www.w3.org/2000/svg">
<g clip-path="url(#clip0_2305_20450)">
<path d="M39.2686 34.1479C40.8051 34.046 42.3263 34.5055 43.5498 35.4399C44.4795 36.2343 44.9992 37.4084 44.9609 38.6313L44.96 38.6431V38.6548C44.9599 38.7707 44.9402 38.9305 44.9092 39.2534C44.8819 39.5375 44.8537 39.8924 44.8516 40.313C44.7866 41.0146 44.652 41.7082 44.4473 42.3823L44.4443 42.3901L42.2988 49.772V49.7739C42.1487 50.2954 42.0189 50.8227 41.9102 51.354L41.8125 51.8638C41.6799 52.4933 41.6023 53.1331 41.5801 53.7759C41.472 54.7255 41.7962 55.6744 42.4639 56.3599L42.5332 56.4312L42.6182 56.481C43.4424 56.9698 44.3975 57.1893 45.3516 57.1138C46.0407 57.1451 46.7312 57.0849 47.4043 56.9312L47.418 56.9272C47.4814 56.9115 47.5443 56.8933 47.6074 56.8765L47.4609 57.4536C45.9206 58.0367 44.6801 58.4897 43.7363 58.812C42.777 59.1178 41.7795 59.2835 40.7744 59.3042H40.3125L40.2822 59.3052C38.7121 59.401 37.1598 58.9263 35.9121 57.9683C34.9428 57.2057 34.3802 56.0378 34.3877 54.8042V54.7993C34.3876 54.2262 34.4268 53.6529 34.5068 53.0854C34.6073 52.4088 34.7415 51.7369 34.9092 51.0737L37.0664 43.6821L37.0684 43.6763C37.2729 42.951 37.4407 42.2588 37.5723 41.6011C37.7093 40.9717 37.7798 40.33 37.7852 39.686C37.8762 38.7786 37.5981 37.872 37.0117 37.1724L36.9424 37.0894L36.8525 37.0298C36.036 36.4869 35.0569 36.2447 34.082 36.3423C33.4466 36.3508 32.8153 36.446 32.2061 36.6265L32.1953 36.6294C32.1217 36.6524 32.0491 36.6752 31.9775 36.6978L32.1582 35.9976C33.432 35.5047 34.6474 35.0769 35.8057 34.7163L35.8135 34.7134C36.9181 34.3571 38.0698 34.1674 39.2305 34.1499H39.25L39.2686 34.1479Z" fill="white" stroke="#9F0033" stroke-width="1.5"/>
<path d="M43.999 20.7493C45.1478 20.7201 46.2631 21.139 47.1094 21.9163L47.1162 21.9231L47.124 21.929C47.2494 22.0382 47.3671 22.1556 47.4756 22.2805L47.4766 22.2815C48.787 23.7866 48.6291 26.0695 47.124 27.3801L47.1162 27.386C45.3862 28.9334 42.7975 28.9823 41.0137 27.5315L40.8438 27.386L40.833 27.3772C40.6991 27.2617 40.5744 27.1361 40.459 27.0022C39.1623 25.4984 39.3296 23.2286 40.833 21.9319L40.8418 21.925L40.8496 21.9172C41.6456 21.1905 42.6755 20.7777 43.748 20.7502H43.9814L43.999 20.7493Z" fill="white" stroke="#9F0033" stroke-width="1.5"/>
<path d="M40 0.25C61.9533 0.25 79.75 18.0467 79.75 40C79.75 61.9533 61.9533 79.75 40 79.75C18.0467 79.75 0.25 61.9533 0.25 40C0.25 18.0467 18.0467 0.25 40 0.25ZM40 3.38672C19.7788 3.38672 3.38672 19.7788 3.38672 40C3.38672 60.2212 19.7788 76.6133 40 76.6133C60.2212 76.6133 76.6133 60.2212 76.6133 40C76.6133 19.7788 60.2212 3.38672 40 3.38672Z" fill="#DFB48F" stroke="#9F0033" stroke-width="0.5"/>
</g>
<defs>
<clipPath id="clip0_2305_20450">
<rect width="80" height="80" fill="white"/>
</clipPath>
</defs>
</svg>
