<svg width="80" height="80" viewBox="0 0 80 80" fill="none" xmlns="http://www.w3.org/2000/svg">
<path d="M73.75 0.25H6.25C4.5924 0.25 3.00269 0.90848 1.83058 2.08058C0.65848 3.25269 0 4.8424 0 6.5L0 56.5C0 58.1576 0.65848 59.7473 1.83058 60.9194C3.00269 62.0915 4.5924 62.75 6.25 62.75H31.5L26.8125 70.25H25.625C24.6304 70.25 23.6766 70.6451 22.9733 71.3484C22.2701 72.0516 21.875 73.0054 21.875 74C21.875 74.9946 22.2701 75.9484 22.9733 76.6516C23.6766 77.3549 24.6304 77.75 25.625 77.75H54.375C55.3696 77.75 56.3234 77.3549 57.0266 76.6516C57.7299 75.9484 58.125 74.9946 58.125 74C58.125 73.0054 57.7299 72.0516 57.0266 71.3484C56.3234 70.6451 55.3696 70.25 54.375 70.25H53.125L48.5 62.75H73.75C75.4076 62.75 76.9973 62.0915 78.1694 60.9194C79.3415 59.7473 80 58.1576 80 56.5V6.5C80 5.67924 79.8383 4.86651 79.5242 4.10823C79.2102 3.34994 78.7498 2.66095 78.1694 2.08058C77.5891 1.50022 76.9001 1.03984 76.1418 0.725753C75.3835 0.411661 74.5708 0.25 73.75 0.25ZM54.375 72.75C54.7065 72.75 55.0245 72.8817 55.2589 73.1161C55.4933 73.3505 55.625 73.6685 55.625 74C55.625 74.3315 55.4933 74.6495 55.2589 74.8839C55.0245 75.1183 54.7065 75.25 54.375 75.25H25.625C25.2935 75.25 24.9755 75.1183 24.7411 74.8839C24.5067 74.6495 24.375 74.3315 24.375 74C24.375 73.6685 24.5067 73.3505 24.7411 73.1161C24.9755 72.8817 25.2935 72.75 25.625 72.75H54.375ZM50.25 70.25H29.75L34.4375 62.75H45.5625L50.25 70.25ZM77.5 56.5C77.5 57.4946 77.1049 58.4484 76.4016 59.1516C75.6984 59.8549 74.7446 60.25 73.75 60.25H6.25C5.25544 60.25 4.30161 59.8549 3.59835 59.1516C2.89509 58.4484 2.5 57.4946 2.5 56.5V52.75H77.5V56.5ZM77.5 50.25H2.5V6.5C2.5 5.50544 2.89509 4.55161 3.59835 3.84835C4.30161 3.14509 5.25544 2.75 6.25 2.75H73.75C74.7446 2.75 75.6984 3.14509 76.4016 3.84835C77.1049 4.55161 77.5 5.50544 77.5 6.5V50.25Z" fill="#DFB48F"/>
<path d="M6.25 14H7.5V21.5C7.5 21.8315 7.6317 22.1495 7.86612 22.3839C8.10054 22.6183 8.41848 22.75 8.75 22.75H21.25C21.5815 22.75 21.8995 22.6183 22.1339 22.3839C22.3683 22.1495 22.5 21.8315 22.5 21.5V14H23.75C24.0815 14 24.3995 13.8683 24.6339 13.6339C24.8683 13.3995 25 13.0815 25 12.75V7.75002C25 7.4185 24.8683 7.10056 24.6339 6.86614C24.3995 6.63172 24.0815 6.50002 23.75 6.50002H17.5C17.3355 6.49907 17.1724 6.5306 17.0201 6.59281C16.8678 6.65501 16.7293 6.74667 16.6125 6.86252L15 8.48752L13.3875 6.86252C13.2707 6.74667 13.1322 6.65501 12.9799 6.59281C12.8276 6.5306 12.6645 6.49907 12.5 6.50002H6.25C5.91848 6.50002 5.60054 6.63172 5.36612 6.86614C5.1317 7.10056 5 7.4185 5 7.75002V12.75C5 13.0815 5.1317 13.3995 5.36612 13.6339C5.60054 13.8683 5.91848 14 6.25 14ZM7.5 9.00002H11.9875L14.1125 11.1375C14.2287 11.2547 14.367 11.3477 14.5193 11.4111C14.6716 11.4746 14.835 11.5073 15 11.5073C15.165 11.5073 15.3284 11.4746 15.4807 11.4111C15.633 11.3477 15.7713 11.2547 15.8875 11.1375L18.0125 9.00002H22.5V11.5H21.25C20.9185 11.5 20.6005 11.6317 20.3661 11.8661C20.1317 12.1006 20 12.4185 20 12.75V20.25H10V12.75C10 12.4185 9.8683 12.1006 9.63388 11.8661C9.39946 11.6317 9.08152 11.5 8.75 11.5H7.5V9.00002Z" fill="white"/>
<path d="M23.7476 34H19.9976C19.9976 32.6739 19.4708 31.4021 18.5331 30.4645C17.5955 29.5268 16.3237 29 14.9976 29C13.6715 29 12.3998 29.5268 11.4621 30.4645C10.5244 31.4021 9.9976 32.6739 9.9976 34H6.2476C6.05486 33.9943 5.86342 34.0334 5.68826 34.114C5.5131 34.1946 5.35897 34.3147 5.23792 34.4648C5.11687 34.6149 5.03219 34.7909 4.9905 34.9792C4.94881 35.1675 4.95124 35.3628 4.9976 35.55L7.4976 45.55C7.56604 45.8273 7.72741 46.0729 7.95485 46.2457C8.18228 46.4186 8.46206 46.5083 8.7476 46.5H21.2476C21.5331 46.5083 21.8129 46.4186 22.0404 46.2457C22.2678 46.0729 22.4292 45.8273 22.4976 45.55L24.9976 35.55C25.044 35.3628 25.0464 35.1675 25.0047 34.9792C24.963 34.7909 24.8783 34.6149 24.7573 34.4648C24.6362 34.3147 24.4821 34.1946 24.3069 34.114C24.1318 34.0334 23.9403 33.9943 23.7476 34ZM14.9976 31.5C15.6606 31.5 16.2965 31.7634 16.7654 32.2322C17.2342 32.7011 17.4976 33.337 17.4976 34H12.4976C12.4976 33.337 12.761 32.7011 13.2298 32.2322C13.6987 31.7634 14.3346 31.5 14.9976 31.5ZM20.2726 44H9.7226L7.8476 36.5H22.1476L20.2726 44Z" fill="#DFB48F"/>
<path d="M58.125 9.2V6.5C58.125 6.16848 57.9933 5.85054 57.7589 5.61612C57.5245 5.3817 57.2065 5.25 56.875 5.25C56.5435 5.25 56.2255 5.3817 55.9911 5.61612C55.7567 5.85054 55.625 6.16848 55.625 6.5V9.2C54.9168 9.41466 54.2727 9.80114 53.75 10.325C53.2273 9.80114 52.5832 9.41466 51.875 9.2V6.5C51.875 6.16848 51.7433 5.85054 51.5089 5.61612C51.2745 5.3817 50.9565 5.25 50.625 5.25C50.2935 5.25 49.9755 5.3817 49.7411 5.61612C49.5067 5.85054 49.375 6.16848 49.375 6.5V9.2C48.475 9.46832 47.6852 10.0191 47.1224 10.771C46.5597 11.5229 46.2538 12.4359 46.25 13.375V21.5C46.25 21.8315 46.3817 22.1495 46.6161 22.3839C46.8505 22.6183 47.1685 22.75 47.5 22.75H60C60.3315 22.75 60.6495 22.6183 60.8839 22.3839C61.1183 22.1495 61.25 21.8315 61.25 21.5V13.375C61.2462 12.4359 60.9403 11.5229 60.3776 10.771C59.8148 10.0191 59.025 9.46832 58.125 9.2ZM52.5 20.25H48.75V13.375C48.75 12.8777 48.9475 12.4008 49.2992 12.0492C49.6508 11.6975 50.1277 11.5 50.625 11.5C51.1223 11.5 51.5992 11.6975 51.9508 12.0492C52.3025 12.4008 52.5 12.8777 52.5 13.375V20.25ZM58.75 20.25H55V13.375C55 12.8777 55.1975 12.4008 55.5492 12.0492C55.9008 11.6975 56.3777 11.5 56.875 11.5C57.3723 11.5 57.8492 11.6975 58.2008 12.0492C58.5525 12.4008 58.75 12.8777 58.75 13.375V20.25Z" fill="#DFB48F"/>
<path d="M36.25 9H28.75C28.4185 9 28.1005 9.1317 27.8661 9.36612C27.6317 9.60054 27.5 9.91848 27.5 10.25C27.5 10.5815 27.6317 10.8995 27.8661 11.1339C28.1005 11.3683 28.4185 11.5 28.75 11.5H36.25C36.5815 11.5 36.8995 11.3683 37.1339 11.1339C37.3683 10.8995 37.5 10.5815 37.5 10.25C37.5 9.91848 37.3683 9.60054 37.1339 9.36612C36.8995 9.1317 36.5815 9 36.25 9Z" fill="#DFB48F"/>
<path d="M36.25 14H28.75C28.4185 14 28.1005 14.1317 27.8661 14.3661C27.6317 14.6005 27.5 14.9185 27.5 15.25C27.5 15.5815 27.6317 15.8995 27.8661 16.1339C28.1005 16.3683 28.4185 16.5 28.75 16.5H36.25C36.5815 16.5 36.8995 16.3683 37.1339 16.1339C37.3683 15.8995 37.5 15.5815 37.5 15.25C37.5 14.9185 37.3683 14.6005 37.1339 14.3661C36.8995 14.1317 36.5815 14 36.25 14Z" fill="#DFB48F"/>
<path d="M36.25 19H28.75C28.4185 19 28.1005 19.1317 27.8661 19.3661C27.6317 19.6005 27.5 19.9185 27.5 20.25C27.5 20.5815 27.6317 20.8995 27.8661 21.1339C28.1005 21.3683 28.4185 21.5 28.75 21.5H36.25C36.5815 21.5 36.8995 21.3683 37.1339 21.1339C37.3683 20.8995 37.5 20.5815 37.5 20.25C37.5 19.9185 37.3683 19.6005 37.1339 19.3661C36.8995 19.1317 36.5815 19 36.25 19Z" fill="#DFB48F"/>
<path d="M72.5 9H65C64.6685 9 64.3505 9.1317 64.1161 9.36612C63.8817 9.60054 63.75 9.91848 63.75 10.25C63.75 10.5815 63.8817 10.8995 64.1161 11.1339C64.3505 11.3683 64.6685 11.5 65 11.5H72.5C72.8315 11.5 73.1495 11.3683 73.3839 11.1339C73.6183 10.8995 73.75 10.5815 73.75 10.25C73.75 9.91848 73.6183 9.60054 73.3839 9.36612C73.1495 9.1317 72.8315 9 72.5 9Z" fill="#DFB48F"/>
<path d="M72.5 14H65C64.6685 14 64.3505 14.1317 64.1161 14.3661C63.8817 14.6005 63.75 14.9185 63.75 15.25C63.75 15.5815 63.8817 15.8995 64.1161 16.1339C64.3505 16.3683 64.6685 16.5 65 16.5H72.5C72.8315 16.5 73.1495 16.3683 73.3839 16.1339C73.6183 15.8995 73.75 15.5815 73.75 15.25C73.75 14.9185 73.6183 14.6005 73.3839 14.3661C73.1495 14.1317 72.8315 14 72.5 14Z" fill="#DFB48F"/>
<path d="M72.5 19H65C64.6685 19 64.3505 19.1317 64.1161 19.3661C63.8817 19.6005 63.75 19.9185 63.75 20.25C63.75 20.5815 63.8817 20.8995 64.1161 21.1339C64.3505 21.3683 64.6685 21.5 65 21.5H72.5C72.8315 21.5 73.1495 21.3683 73.3839 21.1339C73.6183 20.8995 73.75 20.5815 73.75 20.25C73.75 19.9185 73.6183 19.6005 73.3839 19.3661C73.1495 19.1317 72.8315 19 72.5 19Z" fill="#DFB48F"/>
<path d="M36.25 34H28.75C28.4185 34 28.1005 34.1317 27.8661 34.3661C27.6317 34.6005 27.5 34.9185 27.5 35.25C27.5 35.5815 27.6317 35.8995 27.8661 36.1339C28.1005 36.3683 28.4185 36.5 28.75 36.5H36.25C36.5815 36.5 36.8995 36.3683 37.1339 36.1339C37.3683 35.8995 37.5 35.5815 37.5 35.25C37.5 34.9185 37.3683 34.6005 37.1339 34.3661C36.8995 34.1317 36.5815 34 36.25 34Z" fill="#DFB48F"/>
<path d="M36.25 39H28.75C28.4185 39 28.1005 39.1317 27.8661 39.3661C27.6317 39.6005 27.5 39.9185 27.5 40.25C27.5 40.5815 27.6317 40.8995 27.8661 41.1339C28.1005 41.3683 28.4185 41.5 28.75 41.5H36.25C36.5815 41.5 36.8995 41.3683 37.1339 41.1339C37.3683 40.8995 37.5 40.5815 37.5 40.25C37.5 39.9185 37.3683 39.6005 37.1339 39.3661C36.8995 39.1317 36.5815 39 36.25 39Z" fill="#DFB48F"/>
<path d="M36.25 44H28.75C28.4185 44 28.1005 44.1317 27.8661 44.3661C27.6317 44.6005 27.5 44.9185 27.5 45.25C27.5 45.5815 27.6317 45.8995 27.8661 46.1339C28.1005 46.3683 28.4185 46.5 28.75 46.5H36.25C36.5815 46.5 36.8995 46.3683 37.1339 46.1339C37.3683 45.8995 37.5 45.5815 37.5 45.25C37.5 44.9185 37.3683 44.6005 37.1339 44.3661C36.8995 44.1317 36.5815 44 36.25 44Z" fill="#DFB48F"/>
<path d="M72.5 34H65C64.6685 34 64.3505 34.1317 64.1161 34.3661C63.8817 34.6005 63.75 34.9185 63.75 35.25C63.75 35.5815 63.8817 35.8995 64.1161 36.1339C64.3505 36.3683 64.6685 36.5 65 36.5H72.5C72.8315 36.5 73.1495 36.3683 73.3839 36.1339C73.6183 35.8995 73.75 35.5815 73.75 35.25C73.75 34.9185 73.6183 34.6005 73.3839 34.3661C73.1495 34.1317 72.8315 34 72.5 34Z" fill="#DFB48F"/>
<path d="M72.5 39H65C64.6685 39 64.3505 39.1317 64.1161 39.3661C63.8817 39.6005 63.75 39.9185 63.75 40.25C63.75 40.5815 63.8817 40.8995 64.1161 41.1339C64.3505 41.3683 64.6685 41.5 65 41.5H72.5C72.8315 41.5 73.1495 41.3683 73.3839 41.1339C73.6183 40.8995 73.75 40.5815 73.75 40.25C73.75 39.9185 73.6183 39.6005 73.3839 39.3661C73.1495 39.1317 72.8315 39 72.5 39Z" fill="#DFB48F"/>
<path d="M72.5 44H65C64.6685 44 64.3505 44.1317 64.1161 44.3661C63.8817 44.6005 63.75 44.9185 63.75 45.25C63.75 45.5815 63.8817 45.8995 64.1161 46.1339C64.3505 46.3683 64.6685 46.5 65 46.5H72.5C72.8315 46.5 73.1495 46.3683 73.3839 46.1339C73.6183 45.8995 73.75 45.5815 73.75 45.25C73.75 44.9185 73.6183 44.6005 73.3839 44.3661C73.1495 44.1317 72.8315 44 72.5 44Z" fill="#DFB48F"/>
<path d="M55.0026 27.75C54.7575 27.7519 54.5185 27.8258 54.3151 27.9625L46.8151 32.9625C46.6431 33.0757 46.5018 33.2297 46.4037 33.4107C46.3056 33.5917 46.2537 33.7941 46.2526 34V37.925C45.0883 38.2411 44.0775 38.9675 43.4067 39.9703C42.7358 40.9731 42.4502 42.1846 42.6025 43.3814C42.7548 44.5782 43.3346 45.6796 44.2352 46.4825C45.1357 47.2854 46.2962 47.7355 47.5026 47.75H53.7526C55.0787 47.75 56.3504 47.2232 57.2881 46.2855C58.2258 45.3479 58.7526 44.0761 58.7526 42.75C58.7461 42.3277 58.6873 41.9078 58.5776 41.5H60.0026C60.3341 41.5 60.6521 41.3683 60.8865 41.1339C61.1209 40.8995 61.2526 40.5815 61.2526 40.25V34C61.2526 32.3424 60.5941 30.7527 59.422 29.5806C58.2499 28.4085 56.6602 27.75 55.0026 27.75ZM55.3526 30.25C56.0653 30.3201 56.743 30.5927 57.3056 31.0357C57.8683 31.4788 58.2923 32.0736 58.5276 32.75H51.6276L55.3526 30.25ZM53.7526 45.25H47.5026C46.8395 45.25 46.2037 44.9866 45.7348 44.5178C45.266 44.0489 45.0026 43.413 45.0026 42.75C45.0026 42.087 45.266 41.4511 45.7348 40.9822C46.2037 40.5134 46.8395 40.25 47.5026 40.25V41.5C47.5026 41.8315 47.6343 42.1495 47.8687 42.3839C48.1031 42.6183 48.4211 42.75 48.7526 42.75C49.0841 42.75 49.4021 42.6183 49.6365 42.3839C49.8709 42.1495 50.0026 41.8315 50.0026 41.5V40.25H51.2526V41.5C51.2526 41.8315 51.3843 42.1495 51.6187 42.3839C51.8531 42.6183 52.1711 42.75 52.5026 42.75C52.8341 42.75 53.1521 42.6183 53.3865 42.3839C53.6209 42.1495 53.7526 41.8315 53.7526 41.5V40.25C54.4156 40.25 55.0515 40.5134 55.5204 40.9822C55.9892 41.4511 56.2526 42.087 56.2526 42.75C56.2526 43.413 55.9892 44.0489 55.5204 44.5178C55.0515 44.9866 54.4156 45.25 53.7526 45.25ZM58.7526 39H57.0276C56.1225 38.2018 54.9593 37.7578 53.7526 37.75H48.7526V35.25H58.7526V39Z" fill="white"/>
</svg>
