<svg width="80" height="80" viewBox="0 0 80 80" fill="none" xmlns="http://www.w3.org/2000/svg">
<path d="M2.39453 6.4834H11.7188C12.59 6.48358 13.3404 7.05673 13.5537 7.8877L15.75 16.4248L15.832 16.7451L16.1602 16.7939L21.9043 17.6543C22.9389 17.809 23.6528 18.7756 23.498 19.8096C23.343 20.8448 22.3769 21.5622 21.3438 21.4082H21.3428L17.5068 20.8486L16.7832 20.7432L16.9482 21.457L24.5039 54.127L24.5938 54.5146H65.5547C66.2219 54.5146 66.7292 53.9438 66.7412 53.3262L67.208 29.291C67.2195 28.6952 66.7833 28.1861 66.1973 28.0986C65.1619 27.9437 64.4492 26.9818 64.6035 25.9492C64.7579 24.9174 65.7243 24.2058 66.7578 24.3604C69.2215 24.7286 71.0445 26.8905 70.9961 29.3779L70.5293 53.3994C70.4771 56.0866 68.2409 58.3008 65.5547 58.3008H23.7334L23.5986 58.4043L16.3096 64.0068H16.3086C15.4388 64.6773 15.8928 66.1376 17.0293 66.1377H69.3955C70.4423 66.1377 71.29 66.9856 71.29 68.0303C71.29 69.0751 70.4423 69.9238 69.3955 69.9238H62.8477L63.127 70.6123C63.3764 71.2254 63.5215 72.0379 63.5215 72.8418C63.5213 76.5186 60.5067 79.5 56.791 79.5C53.0761 79.4998 50.0617 76.5124 50.0615 72.835C50.0615 72.0317 50.2055 71.2257 50.4551 70.6123L50.7354 69.9238H36.1699L36.4502 70.6123C36.6997 71.2254 36.8447 72.0379 36.8447 72.8418C36.8445 76.5187 33.8299 79.5 30.1143 79.5C26.3994 79.4998 23.3849 76.5124 23.3848 72.835C23.3848 72.0317 23.5288 71.2257 23.7783 70.6123L24.0586 69.9238H17.0293C12.3948 69.9238 10.3167 63.8082 13.9941 60.9746L20.7129 55.7979L20.9688 55.6016L20.8945 55.2871L10.3467 10.6543L10.2559 10.2695H2.39453C1.34783 10.2694 0.5 9.42077 0.5 8.37598C0.500228 7.3314 1.34812 6.48349 2.39453 6.4834ZM30.1143 69.9141C28.502 69.9143 27.1741 71.2028 27.1738 72.8076C27.1738 74.4126 28.5016 75.7019 30.1143 75.7021C31.727 75.7021 33.0557 74.4128 33.0557 72.8076C33.0554 71.2026 31.7269 69.9141 30.1143 69.9141ZM56.791 69.9141C55.1786 69.9141 53.8508 71.2027 53.8506 72.8076C53.8506 74.4127 55.1782 75.7021 56.791 75.7021C58.4038 75.7021 59.7324 74.4128 59.7324 72.8076C59.7322 71.2026 58.4038 69.9141 56.791 69.9141Z" fill="#DFB48F" stroke="#9F0033"/>
<path d="M43.7949 0.5C53.1101 0.500143 60.6865 8.05759 60.6865 17.3428C60.6864 26.6279 53.1101 34.1854 43.7949 34.1855C34.4797 34.1855 26.9025 26.628 26.9023 17.3428C26.9023 8.0575 34.4796 0.5 43.7949 0.5ZM43.7949 4.28516C36.5712 4.28516 30.6914 10.1406 30.6914 17.3428C30.6915 24.5448 36.5715 30.4004 43.7949 30.4004C51.0183 30.4002 56.8974 24.5448 56.8975 17.3428C56.8975 10.1407 51.0185 4.2853 43.7949 4.28516Z" fill="white" stroke="#9F0033"/>
<path d="M48.4238 11.6523C49.1406 10.8908 50.3403 10.8532 51.1025 11.5693C51.8648 12.2852 51.9011 13.4829 51.1846 14.2441L42.7676 23.1875C42.5128 23.4557 41.9919 23.6654 41.3926 23.6719C40.8037 23.6782 40.2621 23.4868 39.9365 23.1113L36.0898 18.5469C35.4164 17.7476 35.5183 16.5541 36.3184 15.8809C37.1187 15.2075 38.3141 15.3103 38.9883 16.1104L41.1025 18.6182L41.4639 19.0469L41.8486 18.6387L48.4238 11.6523Z" fill="white" stroke="#9F0033"/>
</svg>
