<svg width="80" height="80" viewBox="0 0 80 80" fill="none" xmlns="http://www.w3.org/2000/svg">
<g clip-path="url(#clip0_2305_17111)">
<path d="M26.1363 69.4704L26.0606 69.442C24.7001 68.9321 23.4065 70.3334 24.0109 71.6627L24.5834 72.9218C11.7902 67.0576 3.35758 54.0457 3.35758 39.7743C3.35758 19.7062 19.5707 3.37962 39.4993 3.37962C59.4279 3.37962 75.6411 19.7062 75.6411 39.7743C75.6411 40.6076 76.2876 41.4648 77.3199 41.4648C78.247 41.4648 78.9987 40.708 78.9987 39.7743C78.9987 17.8419 61.2794 -0.00146484 39.4993 -0.00146484C17.7193 -0.00146484 0 17.8419 0 39.7743C0 48.0411 2.5056 55.9731 7.246 62.7129C11.4188 68.6457 17.0251 73.2602 23.5588 76.1664L22.0979 76.8389C20.7777 77.4469 20.8466 79.3587 22.2071 79.8686L22.2828 79.897C22.6877 80.0488 23.1359 80.0322 23.5289 79.8513L28.5376 77.5436C29.3559 77.1666 29.7156 76.193 29.3412 75.369L28.6575 73.8641L27.0495 70.3253C26.8697 69.9297 26.5414 69.622 26.1363 69.4704Z" fill="#DFB48F"/>
<path d="M39.4991 19.2055C40.4263 19.2055 41.1779 18.4487 41.1779 17.515V6.96398C41.1779 6.03029 40.4263 5.27344 39.4991 5.27344C38.5719 5.27344 37.8203 6.03029 37.8203 6.96398V17.515C37.8203 18.4487 38.5719 19.2055 39.4991 19.2055Z" fill="#DFB48F"/>
<path d="M61.6046 41.4651H72.0822C73.0093 41.4651 73.761 40.708 73.761 39.7745C73.761 38.841 73.0093 38.084 72.0822 38.084H61.6046C60.6775 38.084 59.9258 38.8408 59.9258 39.7745C59.9258 40.7082 60.6775 41.4651 61.6046 41.4651Z" fill="#DFB48F"/>
<path d="M17.3947 38.084H6.91707C5.98988 38.084 5.23828 38.8408 5.23828 39.7745C5.23828 40.7082 5.98988 41.4651 6.91707 41.4651H17.3947C18.3219 41.4651 19.0735 40.708 19.0735 39.7745C19.0735 38.841 18.3219 38.084 17.3947 38.084Z" fill="#DFB48F"/>
<path d="M39.5019 38.084H39.5002C38.5732 38.084 37.8223 38.8408 37.8223 39.7745C37.8223 40.7082 38.5747 41.4651 39.5019 41.4651C40.4289 41.4651 41.1807 40.708 41.1807 39.7745C41.1807 38.841 40.4289 38.084 39.5019 38.084Z" fill="#DFB48F"/>
<path d="M27.534 25.3335C26.8784 24.6733 25.8154 24.6733 25.1596 25.3335C24.5041 25.9937 24.5041 27.0641 25.1596 27.7244L34.6191 37.2501C35.2772 37.9128 36.3283 37.9199 36.9934 37.2501C37.649 36.59 37.649 35.5195 36.9934 34.8592L27.534 25.3335Z" fill="white"/>
<path d="M62.7924 16.3188C62.1367 15.6587 61.074 15.6587 60.4181 16.3188L42.0073 34.8589C41.3517 35.519 41.3517 36.5895 42.0073 37.2498C42.6719 37.9191 43.7464 37.8892 44.3816 37.2498L62.7926 18.71C63.448 18.0496 63.448 16.9792 62.7924 16.3188Z" fill="white"/>
<path d="M51.8189 48.9883H39.0245C38.0973 48.9883 37.3457 49.7453 37.3457 50.6788C37.3457 51.6123 38.0973 52.3694 39.0245 52.3694H51.8189C52.2817 52.3694 52.6583 52.7486 52.6583 53.2146V60.5455C52.6583 61.0116 52.2817 61.3908 51.8189 61.3908H41.5427C39.2285 61.3908 37.3457 63.2867 37.3457 65.6171V72.948C37.3457 75.2784 39.2285 77.1744 41.5427 77.1744H54.3371C55.2641 77.1744 56.0159 76.4173 56.0159 75.4838C56.0159 74.5503 55.2641 73.7933 54.3371 73.7933H41.5427C41.0798 73.7933 40.7033 73.4141 40.7033 72.948V65.6171C40.7033 65.5433 40.7157 65.4728 40.7335 65.4043C40.8279 65.0415 41.1532 64.7719 41.5427 64.7719H51.8189C54.1331 64.7719 56.0159 62.8759 56.0159 60.5455V53.2146C56.0159 50.8842 54.1331 48.9883 51.8189 48.9883Z" fill="white"/>
<path d="M77.3215 48.9883C76.3944 48.9883 75.6427 49.7453 75.6427 50.6788V61.3908H64.5271C64.0642 61.3908 63.6877 61.0116 63.6877 60.5455V50.6788C63.6877 49.865 63.0684 48.9883 62.0089 48.9883C61.0818 48.9883 60.3301 49.7453 60.3301 50.6788V60.5455C60.3301 62.8759 62.2128 64.7719 64.5271 64.7719H75.6427V75.4838C75.6427 76.4173 76.3944 77.1744 77.3215 77.1744C78.2485 77.1744 79.0003 76.4173 79.0003 75.4838V50.6788C79.0003 49.7451 78.2487 48.9883 77.3215 48.9883Z" fill="white"/>
</g>
<defs>
<clipPath id="clip0_2305_17111">
<rect width="80" height="80" fill="white"/>
</clipPath>
</defs>
</svg>
