<svg width="80" height="80" viewBox="0 0 80 80" fill="none" xmlns="http://www.w3.org/2000/svg">
<g clip-path="url(#clip0_2305_17124)">
<path d="M26.6669 19.0478H22.8569V3.80997H7.61914V0H26.6669V19.0478Z" fill="#DFB48F"/>
<path d="M40 79.9997C17.9528 79.9997 0.000167353 62.0478 0.000167353 39.9999C-0.031222 29.181 4.35422 18.8184 12.143 11.31L23.4529 0.523926L26.0715 3.28619L14.786 14.0479C7.74358 20.8412 3.77945 30.2148 3.81014 39.9999C3.81014 59.9524 20.0482 76.1905 40 76.1905V79.9997Z" fill="#DFB48F"/>
<path d="M72.3818 79.9997H53.334V60.9526H57.1433V76.1904H72.3818V79.9997Z" fill="#DFB48F"/>
<path d="M56.5478 79.4758L53.9285 76.7142L65.214 65.9526C72.2564 59.1585 76.2212 49.7849 76.1906 39.9998C76.1906 20.048 59.9525 3.80997 40 3.80997V0C62.0479 0 79.9998 17.9526 79.9998 39.9998C80.0319 50.8187 75.6458 61.1814 67.857 68.6904L56.5478 79.4758Z" fill="#DFB48F"/>
<path d="M38.0712 54.1187L18.4766 34.5241L21.167 31.8337L38.0712 48.7379L62.6428 24.167L65.3332 26.8574L38.0712 54.1187Z" fill="white"/>
</g>
<defs>
<clipPath id="clip0_2305_17124">
<rect width="80" height="80" fill="white"/>
</clipPath>
</defs>
</svg>
