<svg width="80" height="80" viewBox="0 0 80 80" fill="none" xmlns="http://www.w3.org/2000/svg">
<g clip-path="url(#clip0_2331_29099)">
<path d="M6.70573 46.6668C3.02973 46.6668 0.0390625 43.6762 0.0390625 40.0002C0.0390625 36.3242 3.02973 33.3335 6.70573 33.3335C10.3817 33.3335 13.3724 36.3242 13.3724 40.0002C13.3724 43.6762 10.3817 46.6668 6.70573 46.6668ZM6.70573 36.0002C4.5004 36.0002 2.70573 37.7948 2.70573 40.0002C2.70573 42.2055 4.5004 44.0002 6.70573 44.0002C8.91106 44.0002 10.7057 42.2055 10.7057 40.0002C10.7057 37.7948 8.91106 36.0002 6.70573 36.0002Z" fill="#DFB48F"/>
<path d="M73.3737 46.6668C69.6977 46.6668 66.707 43.6762 66.707 40.0002C66.707 36.3242 69.6977 33.3335 73.3737 33.3335C77.0497 33.3335 80.0404 36.3242 80.0404 40.0002C80.0404 43.6762 77.0497 46.6668 73.3737 46.6668ZM73.3737 36.0002C71.1684 36.0002 69.3737 37.7948 69.3737 40.0002C69.3737 42.2055 71.1684 44.0002 73.3737 44.0002C75.579 44.0002 77.3737 42.2055 77.3737 40.0002C77.3737 37.7948 75.579 36.0002 73.3737 36.0002Z" fill="#DFB48F"/>
<path d="M40.0417 79.9998C36.3657 79.9998 33.375 77.0092 33.375 73.3332C33.375 69.6572 36.3657 66.6665 40.0417 66.6665C43.7177 66.6665 46.7083 69.6572 46.7083 73.3332C46.7083 77.0092 43.7177 79.9998 40.0417 79.9998ZM40.0417 69.3332C37.8363 69.3332 36.0417 71.1278 36.0417 73.3332C36.0417 75.5385 37.8363 77.3332 40.0417 77.3332C42.247 77.3332 44.0417 75.5385 44.0417 73.3332C44.0417 71.1278 42.247 69.3332 40.0417 69.3332Z" fill="#DFB48F"/>
<path d="M40.0417 13.3333C36.3657 13.3333 33.375 10.3427 33.375 6.66667C33.375 2.99067 36.3657 0 40.0417 0C43.7177 0 46.7083 2.99067 46.7083 6.66667C46.7083 10.3427 43.7177 13.3333 40.0417 13.3333ZM40.0417 2.66667C37.8363 2.66667 36.0417 4.46133 36.0417 6.66667C36.0417 8.872 37.8363 10.6667 40.0417 10.6667C42.247 10.6667 44.0417 8.872 44.0417 6.66667C44.0417 4.46133 42.247 2.66667 40.0417 2.66667Z" fill="#DFB48F"/>
<path d="M72.9491 36.0426C72.3064 36.0426 71.7384 35.5746 71.6344 34.9186C71.2291 32.3853 70.5197 29.9053 69.5237 27.5506C69.2371 26.8719 69.5531 26.0893 70.2317 25.8026C70.9117 25.5146 71.6931 25.8319 71.9797 26.5106C73.0597 29.0639 73.8304 31.7519 74.2677 34.4986C74.3837 35.2253 73.8891 35.9093 73.1611 36.0253C73.0904 36.0373 73.0197 36.0426 72.9491 36.0426Z" fill="#DFB48F"/>
<path d="M66.4319 20.9773C66.0332 20.9773 65.6386 20.7986 65.3759 20.4587C63.6986 18.2867 61.7452 16.3333 59.5692 14.6533C58.9866 14.204 58.8786 13.3667 59.3292 12.784C59.7799 12.2013 60.6172 12.0947 61.1999 12.544C63.5559 14.3627 65.6706 16.4773 67.4866 18.8293C67.9359 19.4133 67.8292 20.2493 67.2466 20.6987C67.0026 20.8867 66.7172 20.9773 66.4319 20.9773Z" fill="#DFB48F"/>
<path d="M53.0076 10.6226C52.8343 10.6226 52.6583 10.5892 52.4889 10.5172C50.1343 9.52124 47.6543 8.81057 45.1196 8.40524C44.3929 8.28924 43.8969 7.60524 44.0129 6.87724C44.1289 6.15057 44.8143 5.65324 45.5396 5.7719C48.2876 6.21057 50.9743 6.98124 53.5276 8.06124C54.2063 8.3479 54.5236 9.13057 54.2356 9.80924C54.0209 10.3172 53.5276 10.6226 53.0076 10.6226Z" fill="#DFB48F"/>
<path d="M45.3276 74.2455C44.6836 74.2455 44.117 73.7775 44.013 73.1228C43.897 72.3948 44.3916 71.7108 45.1196 71.5948C47.6543 71.1895 50.1343 70.4788 52.489 69.4828C53.169 69.1975 53.9503 69.5108 54.237 70.1908C54.5236 70.8695 54.2076 71.6521 53.529 71.9388C50.9756 73.0188 48.289 73.7895 45.541 74.2282C45.4676 74.2402 45.397 74.2455 45.3276 74.2455Z" fill="#DFB48F"/>
<path d="M60.3964 67.7267C59.9977 67.7267 59.603 67.5481 59.3404 67.2081C58.891 66.6241 58.9977 65.7881 59.5804 65.3388C61.7537 63.6601 63.707 61.7054 65.3857 59.5307C65.8337 58.9467 66.671 58.8414 67.255 59.2894C67.839 59.7401 67.9457 60.5774 67.4964 61.1601C65.679 63.5161 63.5644 65.6321 61.211 67.4481C60.9684 67.6361 60.6817 67.7267 60.3964 67.7267Z" fill="#DFB48F"/>
<path d="M70.751 54.3025C70.5776 54.3025 70.4016 54.2692 70.2323 54.1972C69.5536 53.9105 69.2363 53.1279 69.5243 52.4492C70.5203 50.0932 71.2309 47.6145 71.6349 45.0812C71.7496 44.3532 72.4363 43.8559 73.1616 43.9745C73.8883 44.0905 74.3843 44.7745 74.2683 45.5012C73.8296 48.2492 73.0603 50.9359 71.9803 53.4892C71.7656 53.9972 71.271 54.3025 70.751 54.3025Z" fill="#DFB48F"/>
<path d="M9.32974 54.3025C8.80974 54.3025 8.31641 53.9972 8.10174 53.4892C7.02174 50.9359 6.25107 48.2479 5.81374 45.5012C5.69774 44.7745 6.19241 44.0905 6.92041 43.9745C7.64041 43.8559 8.33241 44.3532 8.44707 45.0812C8.85241 47.6145 9.56174 50.0945 10.5577 52.4492C10.8444 53.1279 10.5284 53.9105 9.84974 54.1972C9.67907 54.2679 9.50307 54.3025 9.32974 54.3025Z" fill="#DFB48F"/>
<path d="M19.6917 67.7346C19.4064 67.7346 19.1197 67.644 18.877 67.456C16.521 65.6373 14.4064 63.5226 12.5904 61.1706C12.141 60.5866 12.2477 59.7506 12.8304 59.3013C13.413 58.8506 14.249 58.9573 14.701 59.5413C16.3784 61.7133 18.3317 63.6666 20.5077 65.3466C21.0904 65.796 21.1984 66.6333 20.7477 67.216C20.485 67.556 20.0904 67.7346 19.6917 67.7346Z" fill="#DFB48F"/>
<path d="M34.7526 74.2455C34.6833 74.2455 34.6126 74.2402 34.5406 74.2282C31.7926 73.7895 29.1059 73.0188 26.5526 71.9388C25.8739 71.6521 25.5566 70.8695 25.8446 70.1908C26.1313 69.5108 26.9126 69.1975 27.5926 69.4828C29.9473 70.4788 32.4273 71.1895 34.9619 71.5948C35.6886 71.7108 36.1846 72.3948 36.0686 73.1228C35.9633 73.7775 35.3966 74.2455 34.7526 74.2455Z" fill="#DFB48F"/>
<path d="M27.072 10.6225C26.552 10.6225 26.0587 10.3172 25.844 9.8092C25.5574 9.13053 25.8734 8.34787 26.552 8.0612C29.1054 6.9812 31.792 6.21053 34.54 5.77187C35.2667 5.6532 35.9507 6.15187 36.0667 6.8772C36.1827 7.6052 35.688 8.2892 34.96 8.4052C32.4254 8.81053 29.9454 9.5212 27.5907 10.5172C27.42 10.5879 27.2454 10.6225 27.072 10.6225Z" fill="#DFB48F"/>
<path d="M13.6371 20.9882C13.3531 20.9882 13.0665 20.8975 12.8238 20.7109C12.2398 20.2602 12.1331 19.4229 12.5825 18.8402C14.3998 16.4842 16.5145 14.3682 18.8678 12.5522C19.4505 12.1029 20.2865 12.2082 20.7385 12.7922C21.1878 13.3762 21.0811 14.2122 20.4985 14.6615C18.3251 16.3402 16.3718 18.2949 14.6931 20.4695C14.4305 20.8095 14.0358 20.9882 13.6371 20.9882Z" fill="#DFB48F"/>
<path d="M7.13237 36.0426C7.06171 36.0426 6.99237 36.0373 6.92037 36.0253C6.1937 35.9093 5.69771 35.2253 5.81371 34.4986C6.25237 31.7506 7.0217 29.0639 8.1017 26.5106C8.38837 25.8319 9.16971 25.5146 9.84971 25.8026C10.5284 26.0893 10.8457 26.8719 10.5577 27.5506C9.56171 29.9066 8.85104 32.3853 8.44704 34.9186C8.34304 35.5759 7.77637 36.0426 7.13237 36.0426Z" fill="#DFB48F"/>
<path d="M29.375 45.3331C29.171 45.3331 28.967 45.2864 28.779 45.1931L18.1123 39.8598C17.6603 39.6331 17.375 39.1718 17.375 38.6664V27.9998C17.375 27.5371 17.615 27.1091 18.007 26.8651C18.4003 26.6198 18.8923 26.6011 19.3043 26.8064L29.971 32.1398C30.423 32.3664 30.7083 32.8278 30.7083 33.3331V43.9998C30.7083 44.4624 30.4683 44.8904 30.0763 45.1344C29.8617 45.2664 29.6177 45.3331 29.375 45.3331ZM20.0417 37.8424L28.0417 41.8424V34.1571L20.0417 30.1571V37.8424Z" fill="white"/>
<path d="M29.3724 45.3331C29.1284 45.3331 28.8857 45.2664 28.6711 45.1344C28.2791 44.8904 28.0391 44.4624 28.0391 43.9998V33.3331C28.0391 32.8278 28.3244 32.3664 28.7764 32.1398L39.4431 26.8064C39.8564 26.6011 40.3471 26.6198 40.7404 26.8651C41.1324 27.1091 41.3724 27.5371 41.3724 27.9998V38.6664C41.3724 39.1718 41.0871 39.6331 40.6351 39.8598L29.9684 45.1931C29.7804 45.2864 29.5764 45.3331 29.3724 45.3331ZM30.7057 34.1571V41.8424L38.7057 37.8424V30.1571L30.7057 34.1571Z" fill="white"/>
<path d="M29.375 34.6669C29.171 34.6669 28.9657 34.6202 28.779 34.5269L18.1123 29.1935C17.6603 28.9669 17.375 28.5055 17.375 28.0002C17.375 27.4949 17.6603 27.0335 18.1123 26.8069L28.779 21.4735C29.1537 21.2855 29.5963 21.2855 29.9723 21.4735L40.639 26.8069C41.091 27.0335 41.3763 27.4949 41.3763 28.0002C41.3763 28.5055 41.091 28.9669 40.639 29.1935L29.9723 34.5269C29.783 34.6202 29.579 34.6669 29.375 34.6669ZM21.6897 28.0002L29.375 31.8429L37.0603 28.0002L29.375 24.1575L21.6897 28.0002Z" fill="white"/>
<path d="M50.707 45.3331C50.503 45.3331 50.299 45.2864 50.111 45.1931L39.4444 39.8598C38.9924 39.6331 38.707 39.1718 38.707 38.6664V27.9998C38.707 27.5371 38.947 27.1091 39.339 26.8651C39.7324 26.6198 40.2244 26.6011 40.6364 26.8064L51.303 32.1398C51.755 32.3664 52.0404 32.8278 52.0404 33.3331V43.9998C52.0404 44.4624 51.8004 44.8904 51.4084 45.1344C51.1937 45.2664 50.9497 45.3331 50.707 45.3331ZM41.3737 37.8424L49.3737 41.8424V34.1571L41.3737 30.1571V37.8424Z" fill="white"/>
<path d="M50.7083 45.3331C50.4643 45.3331 50.2217 45.2664 50.007 45.1344C49.615 44.8904 49.375 44.4624 49.375 43.9998V33.3331C49.375 32.8278 49.6603 32.3664 50.1123 32.1398L60.779 26.8064C61.1923 26.6011 61.683 26.6198 62.0763 26.8651C62.4683 27.1091 62.7083 27.5371 62.7083 27.9998V38.6664C62.7083 39.1718 62.423 39.6331 61.971 39.8598L51.3043 45.1931C51.1163 45.2864 50.9123 45.3331 50.7083 45.3331ZM52.0417 34.1571V41.8424L60.0417 37.8424V30.1571L52.0417 34.1571Z" fill="white"/>
<path d="M50.707 34.6669C50.503 34.6669 50.2977 34.6202 50.111 34.5269L39.4444 29.1935C38.9924 28.9669 38.707 28.5055 38.707 28.0002C38.707 27.4949 38.9924 27.0335 39.4444 26.8069L50.111 21.4735C50.4857 21.2855 50.9284 21.2855 51.3044 21.4735L61.971 26.8069C62.423 27.0335 62.7084 27.4949 62.7084 28.0002C62.7084 28.5055 62.423 28.9669 61.971 29.1935L51.3044 34.5269C51.115 34.6202 50.911 34.6669 50.707 34.6669ZM43.0217 28.0002L50.707 31.8429L58.3924 28.0002L50.707 24.1575L43.0217 28.0002Z" fill="white"/>
<path d="M40.0391 61.3331C39.8351 61.3331 39.6311 61.2864 39.4431 61.1931L28.7764 55.8598C28.3244 55.6331 28.0391 55.1718 28.0391 54.6664V43.9998C28.0391 43.5371 28.2791 43.1091 28.6711 42.8651C29.0644 42.6198 29.5551 42.6011 29.9684 42.8064L40.6351 48.1398C41.0871 48.3664 41.3724 48.8278 41.3724 49.3331V59.9998C41.3724 60.4624 41.1324 60.8904 40.7404 61.1344C40.5257 61.2664 40.2817 61.3331 40.0391 61.3331ZM30.7057 53.8424L38.7057 57.8424V50.1571L30.7057 46.1571V53.8424Z" fill="white"/>
<path d="M40.0404 61.3331C39.7964 61.3331 39.5537 61.2664 39.339 61.1344C38.947 60.8904 38.707 60.4624 38.707 59.9998V49.3331C38.707 48.8278 38.9924 48.3664 39.4444 48.1398L50.111 42.8064C50.5244 42.6011 51.015 42.6198 51.4084 42.8651C51.8004 43.1091 52.0404 43.5371 52.0404 43.9998V54.6664C52.0404 55.1718 51.755 55.6331 51.303 55.8598L40.6364 61.1931C40.4484 61.2864 40.2444 61.3331 40.0404 61.3331ZM41.3737 50.1571V57.8424L49.3737 53.8424V46.1571L41.3737 50.1571Z" fill="white"/>
<path d="M40.0391 50.6669C39.8351 50.6669 39.6297 50.6202 39.4431 50.5269L28.7764 45.1935C28.3244 44.9669 28.0391 44.5055 28.0391 44.0002C28.0391 43.4949 28.3244 43.0335 28.7764 42.8069L39.4431 37.4735C39.8177 37.2855 40.2604 37.2855 40.6364 37.4735L51.3031 42.8069C51.7551 43.0335 52.0404 43.4949 52.0404 44.0002C52.0404 44.5055 51.7551 44.9669 51.3031 45.1935L40.6364 50.5269C40.4471 50.6202 40.2431 50.6669 40.0391 50.6669ZM32.3537 44.0002L40.0391 47.8429L47.7244 44.0002L40.0391 40.1575L32.3537 44.0002Z" fill="white"/>
</g>
<defs>
<clipPath id="clip0_2331_29099">
<rect width="80" height="80" fill="white"/>
</clipPath>
</defs>
</svg>
