<svg width="80" height="80" viewBox="0 0 80 80" fill="none" xmlns="http://www.w3.org/2000/svg">
<path d="M76.4551 10.2803L67.7471 19.0283L67.6416 19.1338L67.7471 19.2402L76.4551 27.9873L66.4316 38.0566L57.7246 29.3096L57.6182 29.2031L57.5127 29.3096L48.8047 38.0566L38.7812 27.9873L47.4902 19.2402L47.5957 19.1338L47.4902 19.0283L38.7812 10.2803L48.8047 0.210938L57.5127 8.95898L57.6182 9.06543L57.7246 8.95898L66.4316 0.210938L76.4551 10.2803ZM66.3262 4.46387L59.7871 11.0322C58.5896 12.2351 56.6477 12.2351 55.4502 11.0322L48.9111 4.46387L48.8057 4.35645L48.6992 4.46387L43.0127 10.1758L42.9072 10.2812L43.0127 10.3867L49.5518 16.9551C50.7496 18.1584 50.7496 20.1102 49.5518 21.3135L43.0127 27.8818L42.9072 27.9873L43.0127 28.0928L48.6992 33.8047L48.8057 33.9121L48.9111 33.8047L55.4502 27.2363C56.6477 26.0334 58.5896 26.0334 59.7871 27.2363L66.3262 33.8047L66.4316 33.9121L66.5381 33.8047L72.2246 28.0928L72.3301 27.9873L72.2246 27.8818L65.6855 21.3135C64.4877 20.1102 64.4877 18.1584 65.6855 16.9551L72.2246 10.3867L72.3301 10.2812L72.2246 10.1758L66.5381 4.46387L66.4316 4.35645L66.3262 4.46387Z" fill="white" stroke="#9F0033" stroke-width="0.3"/>
<path d="M33.6357 15.5293H36.1826C36.9873 15.5293 37.6415 16.1842 37.6416 16.9941C37.6416 17.8041 36.9874 18.46 36.1826 18.46H33.6357C32.831 18.46 32.1777 17.8041 32.1777 16.9941C32.1779 16.1842 32.8311 15.5293 33.6357 15.5293Z" fill="#DFB48F" stroke="#9F0033" stroke-width="0.3"/>
<path d="M23.4482 15.5293H28.543C29.3476 15.5293 30.0008 16.1842 30.001 16.9941C30.001 17.8041 29.3477 18.4599 28.543 18.46H23.4482C22.6435 18.46 21.9902 17.8041 21.9902 16.9941C21.9904 16.1842 22.6436 15.5293 23.4482 15.5293Z" fill="#DFB48F" stroke="#9F0033" stroke-width="0.3"/>
<path d="M15.8057 15.5293H18.3525C19.1572 15.5293 19.8114 16.1842 19.8115 16.9941C19.8115 17.8041 19.1573 18.46 18.3525 18.46H15.8057C14.953 18.46 14.1209 18.5435 13.3174 18.7031C12.5281 18.86 11.7601 18.3451 11.6035 17.5508C11.447 16.7563 11.9617 15.9852 12.751 15.8281C13.7399 15.6316 14.762 15.5293 15.8057 15.5293Z" fill="#DFB48F" stroke="#9F0033" stroke-width="0.3"/>
<path d="M7.11035 18.1787C7.77916 17.7292 8.68466 17.9088 9.13281 18.5811C9.58125 19.2539 9.40165 20.1651 8.73242 20.6152C7.3425 21.5499 6.14531 22.7523 5.21484 24.1484C4.76672 24.8207 3.86128 25.0003 3.19238 24.5508C2.52308 24.1006 2.34255 23.1895 2.79102 22.5166C3.93376 20.8022 5.4036 19.3264 7.11035 18.1787Z" fill="#DFB48F" stroke="#9F0033" stroke-width="0.3"/>
<path d="M0.448242 28.1885C0.604827 27.3942 1.37191 26.8785 2.16113 27.0352C2.95075 27.192 3.46512 27.9631 3.30859 28.7578C3.14969 29.5648 3.06641 30.4005 3.06641 31.2568C3.06642 32.1132 3.14969 32.9488 3.30859 33.7559C3.465 34.5505 2.95071 35.3206 2.16113 35.4775C1.37178 35.6343 0.604722 35.1186 0.448242 34.3242C0.252679 33.3309 0.150403 32.3052 0.150391 31.2568C0.150391 30.2083 0.252616 29.1819 0.448242 28.1885Z" fill="#DFB48F" stroke="#9F0033" stroke-width="0.3"/>
<path d="M3.19238 37.9629C3.86128 37.5134 4.76672 37.693 5.21484 38.3652C6.14531 39.7613 7.3425 40.9637 8.73242 41.8984C9.40166 42.3486 9.58125 43.2598 9.13281 43.9326C8.68466 44.6049 7.77916 44.7845 7.11035 44.335C5.40369 43.1872 3.93376 41.7116 2.79102 39.9971C2.34256 39.3243 2.52307 38.413 3.19238 37.9629Z" fill="#DFB48F" stroke="#9F0033" stroke-width="0.3"/>
<path d="M11.6035 44.9624C11.7601 44.168 12.528 43.6522 13.3174 43.8091C14.1209 43.9687 14.9529 44.0532 15.8057 44.0532H18.0166C18.8213 44.0532 19.4746 44.709 19.4746 45.519C19.4744 46.3289 18.8211 46.9839 18.0166 46.9839H15.8057C14.762 46.9839 13.7399 46.8815 12.751 46.6851C11.9616 46.5279 11.447 45.7569 11.6035 44.9624Z" fill="#DFB48F" stroke="#9F0033" stroke-width="0.3"/>
<path d="M57.8193 44.0542H60.0303C60.8175 44.0542 61.5939 44.1048 62.3555 44.2046C63.1535 44.3091 63.7176 45.0449 63.6133 45.8481C63.5089 46.6511 62.7764 47.2163 61.9785 47.1118C61.3416 47.0283 60.6912 46.9849 60.0303 46.9849H57.8193C57.0146 46.9849 56.3613 46.3291 56.3613 45.519C56.3615 44.7091 57.0147 44.0542 57.8193 44.0542Z" fill="#DFB48F" stroke="#9F0033" stroke-width="0.3"/>
<path d="M48.9756 44.0542H53.3984C54.2029 44.0543 54.8563 44.7092 54.8564 45.519C54.8564 46.329 54.203 46.9847 53.3984 46.9849H48.9756C48.1708 46.9849 47.5176 46.3291 47.5176 45.519C47.5177 44.7091 48.1709 44.0542 48.9756 44.0542Z" fill="#DFB48F" stroke="#9F0033" stroke-width="0.3"/>
<path d="M40.1318 44.0542H44.5547C45.3592 44.0543 46.0125 44.7092 46.0127 45.519C46.0127 46.329 45.3593 46.9847 44.5547 46.9849H40.1318C39.3271 46.9849 38.6738 46.3291 38.6738 45.519C38.674 44.7091 39.3272 44.0542 40.1318 44.0542Z" fill="#DFB48F" stroke="#9F0033" stroke-width="0.3"/>
<path d="M31.2842 44.0542H35.707C36.5115 44.0543 37.1649 44.7092 37.165 45.519C37.165 46.329 36.5116 46.9847 35.707 46.9849H31.2842C30.4794 46.9849 29.8262 46.3291 29.8262 45.519C29.8263 44.7091 30.4795 44.0542 31.2842 44.0542Z" fill="#DFB48F" stroke="#9F0033" stroke-width="0.3"/>
<path d="M22.4404 44.0542H26.8633C27.6678 44.0543 28.3211 44.7092 28.3213 45.519C28.3213 46.329 27.6679 46.9847 26.8633 46.9849H22.4404C21.6357 46.9849 20.9824 46.3291 20.9824 45.519C20.9826 44.7091 21.6358 44.0542 22.4404 44.0542Z" fill="#DFB48F" stroke="#9F0033" stroke-width="0.3"/>
<path d="M64.9531 46.2046C65.2618 45.4568 66.1151 45.1021 66.8584 45.4116C68.3076 46.0153 69.6601 46.8054 70.8857 47.7515C71.5245 48.2446 71.6443 49.1652 71.1533 49.8071C70.6625 50.4488 69.7472 50.5685 69.1084 50.0757C68.0828 49.2841 66.9525 48.6238 65.7422 48.1196C64.9985 47.8099 64.6445 46.9527 64.9531 46.2046Z" fill="#DFB48F" stroke="#9F0033" stroke-width="0.3"/>
<path d="M72.126 50.7856C72.7645 50.293 73.6801 50.4137 74.1709 51.0552C75.1126 52.2862 75.8988 53.6444 76.5 55.1001C76.8088 55.8483 76.4552 56.7063 75.7109 57.0161C74.9679 57.3256 74.1153 56.9709 73.8066 56.2231C73.3674 55.1592 72.8085 54.1572 72.1475 53.2329L71.8584 52.8413C71.398 52.2395 71.4753 51.3931 72.0127 50.8833L72.126 50.7856Z" fill="#DFB48F" stroke="#9F0033" stroke-width="0.3"/>
<path d="M76.0645 58.3516C76.8627 58.2473 77.5937 58.8124 77.6982 59.6152C77.7979 60.3803 77.8496 61.1603 77.8496 61.9512C77.8496 62.7422 77.7979 63.522 77.6982 64.2871C77.5939 65.0902 76.8628 65.6551 76.0645 65.5508C75.2667 65.4462 74.7024 64.7114 74.8066 63.9082C74.8895 63.2685 74.9326 62.6151 74.9326 61.9512C74.9326 61.2875 74.8895 60.6347 74.8066 59.9951C74.7022 59.1919 75.2666 58.4562 76.0645 58.3516Z" fill="#DFB48F" stroke="#9F0033" stroke-width="0.3"/>
<path d="M73.8066 67.6802C74.1153 66.9323 74.9679 66.5777 75.7109 66.8872C76.4551 67.197 76.8086 68.0544 76.5 68.8022C75.8987 70.2585 75.1127 71.6179 74.1709 72.8491C73.7107 73.4498 72.8774 73.5929 72.249 73.2026L72.126 73.1177C71.4878 72.6246 71.3675 71.7041 71.8584 71.062C72.6471 70.0315 73.3046 68.8957 73.8066 67.6802Z" fill="#DFB48F" stroke="#9F0033" stroke-width="0.3"/>
<path d="M69.1084 73.8262C69.7472 73.3333 70.6626 73.454 71.1533 74.0957C71.6441 74.7378 71.5243 75.6574 70.8857 76.1504C69.66 77.0965 68.3075 77.8871 66.8584 78.4902C66.115 78.7997 65.2618 78.4457 64.9531 77.6982C64.6443 76.9504 64.9983 76.0928 65.7422 75.7822L65.7412 75.7812C66.9519 75.2777 68.0827 74.6175 69.1084 73.8262Z" fill="#DFB48F" stroke="#9F0033" stroke-width="0.3"/>
<path d="M61.9824 76.7915C62.7805 76.6876 63.5129 77.2533 63.6172 78.0562C63.7147 78.8087 63.2257 79.5013 62.5068 79.6714L62.3594 79.6987C61.5979 79.798 60.822 79.8501 60.0352 79.8501H57.6396C56.835 79.8501 56.1816 79.1939 56.1816 78.3843C56.1818 77.574 56.835 76.9194 57.6396 76.9194H60.0352C60.6958 76.9194 61.3457 76.8755 61.9824 76.7915Z" fill="#DFB48F" stroke="#9F0033" stroke-width="0.3"/>
<path d="M48.0576 76.9189H52.8477C53.6523 76.9189 54.3055 77.5736 54.3057 78.3838C54.3057 79.1934 53.6523 79.8496 52.8477 79.8496H48.0576C47.2529 79.8496 46.5996 79.1934 46.5996 78.3838C46.5998 77.5736 47.2529 76.9189 48.0576 76.9189Z" fill="#DFB48F" stroke="#9F0033" stroke-width="0.3"/>
<path d="M38.4756 76.9189H43.2656C44.0703 76.9189 44.7235 77.5736 44.7236 78.3838C44.7236 79.1934 44.0704 79.8496 43.2656 79.8496H38.4756C37.6709 79.8496 37.0176 79.1934 37.0176 78.3838C37.0177 77.5736 37.671 76.9189 38.4756 76.9189Z" fill="#DFB48F" stroke="#9F0033" stroke-width="0.3"/>
<path d="M28.8975 76.9189H33.6875C34.4921 76.9189 35.1454 77.5736 35.1455 78.3838C35.1455 79.1934 34.4922 79.8496 33.6875 79.8496H28.8975C28.0927 79.8496 27.4395 79.1934 27.4395 78.3838C27.4396 77.5736 28.0928 76.9189 28.8975 76.9189Z" fill="#DFB48F" stroke="#9F0033" stroke-width="0.3"/>
<path d="M21.71 76.9189H24.1045C24.9092 76.9189 25.5633 77.5736 25.5635 78.3838C25.5635 79.1934 24.9092 79.8496 24.1045 79.8496H21.71C20.9052 79.8496 20.252 79.1934 20.252 78.3838C20.2521 77.5736 20.9053 76.9189 21.71 76.9189Z" fill="#DFB48F" stroke="#9F0033" stroke-width="0.3"/>
</svg>
