<svg width="80" height="80" viewBox="0 0 80 80" fill="none" xmlns="http://www.w3.org/2000/svg">
<g clip-path="url(#clip0_1217_9073)">
<path d="M79.3999 38.7506L73.1259 33.7314C73.0415 33.6639 72.9832 33.5677 72.9635 33.4685C72.9619 33.4389 72.9016 33.2824 73.0007 33.1027L76.8738 26.0633C77.3674 25.1659 76.9015 24.0399 75.9167 23.755L68.1955 21.5207C67.9933 21.462 67.8296 21.2486 67.8557 21.0122L68.7434 13.0235C68.8565 12.0074 67.9976 11.1435 66.9765 11.2566L58.9874 12.1443C58.8794 12.1566 58.7717 12.1301 58.6749 12.0651C58.6588 12.0504 58.5145 11.9821 58.4588 11.7912L56.2189 4.07145C55.9335 3.08633 54.8068 2.622 53.9099 3.11609L46.8732 6.9942C46.6713 7.1054 46.407 7.047 46.2686 6.87404L41.2494 0.600065C40.6095 -0.199782 39.3908 -0.200262 38.7506 0.600065L33.7314 6.87404C33.6061 7.03068 33.4338 7.04012 33.4146 7.047C33.309 7.06812 33.1968 7.05084 33.1027 6.99916L26.0635 3.12601C25.1665 2.63208 24.0401 3.09833 23.7551 4.08297L21.5209 11.8042C21.4604 12.0131 21.243 12.1696 21.0124 12.144L13.0235 11.2565C12.0053 11.144 11.1435 12.0046 11.2566 13.0234L12.1443 21.0124C12.1563 21.1198 12.1294 21.229 12.0651 21.3249C12.0504 21.3409 11.9818 21.4857 11.7912 21.5409L4.07145 23.7809C3.08761 24.0665 2.62136 25.1921 3.11609 26.0899L6.9942 33.1266C7.10428 33.3266 7.04876 33.5915 6.87404 33.7314L0.600065 38.7506C-0.199782 39.3905 -0.200262 40.6092 0.600065 41.2494L6.87404 46.2684C7.03212 46.3952 7.0398 46.5651 7.04684 46.5852C7.06812 46.6918 7.05116 46.8024 6.99916 46.8971L3.12601 53.9365C2.63224 54.8336 3.09849 55.9599 4.08297 56.2447L11.8045 58.4793C12.0294 58.5441 12.1677 58.774 12.144 58.9876L11.2565 66.9764C11.1434 67.9942 12.0048 68.8571 13.0234 68.7433L21.0122 67.8557C21.1201 67.8433 21.2284 67.8701 21.3236 67.9339C21.3396 67.9486 21.4855 68.0179 21.5409 68.2088L23.7809 75.9285C24.0665 76.9122 25.1924 77.3786 26.0899 76.8839L33.1266 73.0056C33.3306 72.8931 33.5965 72.9571 33.7314 73.1259L38.7506 79.3999C39.3905 80.1998 40.6092 80.2002 41.2494 79.3999L46.2684 73.1259C46.3913 72.9725 46.5448 72.9639 46.5606 72.9579C46.5771 72.9573 46.7318 72.9096 46.8972 73.0008L53.9367 76.874C54.8338 77.3676 55.96 76.9016 56.2448 75.9168L58.4791 68.196C58.5428 67.9753 58.7669 67.8312 58.9877 67.8558L66.9766 68.7435C67.9968 68.8566 68.8566 67.9936 68.7435 66.9766L67.8558 58.9876C67.844 58.8799 67.8709 58.7709 67.9304 58.6818C67.9467 58.6639 68.0153 58.5153 68.2088 58.4589L75.9285 56.2191C76.9121 55.934 77.3788 54.808 76.8841 53.9101L73.0058 46.8734C72.9018 46.6843 72.9437 46.4147 73.1261 46.2688L79.4001 41.2495C80.1998 40.6097 80.2002 39.3909 79.3999 38.7506ZM71.127 43.7699C69.7326 44.8851 69.3451 46.862 70.2032 48.4182L73.116 53.7032L67.3174 55.3858C65.6348 55.874 64.4752 57.5383 64.6755 59.3412L65.3422 65.3424L59.3415 64.6756C58.4839 64.5809 57.6146 64.7934 56.9021 65.2713C56.9009 65.2721 56.8869 65.2814 56.8857 65.2824C56.1701 65.7616 55.6444 66.4803 55.4053 67.3064L53.7271 73.1063L48.44 70.1973C47.6624 69.7693 46.7745 69.6525 45.9734 69.8123L45.9396 69.8189L46.2502 71.3885L45.9185 69.8232C45.0716 69.9907 44.3084 70.4536 43.7697 71.127L40.0001 75.8391L36.2301 71.1267C35.1178 69.7366 33.144 69.3422 31.5819 70.2032L26.2969 73.116L24.6143 67.3171C24.3747 66.4912 23.8484 65.7728 23.1217 65.287L23.1014 65.2732C22.3842 64.7927 21.5175 64.5803 20.6591 64.6756L14.6581 65.3424L15.3248 59.3413C15.5213 57.5724 14.4063 55.9007 12.6941 55.4056L6.89404 53.7272L9.80302 48.4401C10.6638 46.8758 10.2638 44.8822 8.87325 43.77L4.16105 40.0001L8.87341 36.2301C10.2646 35.1171 10.6571 33.1426 9.79694 31.5821L6.88412 26.2969L12.683 24.6143C13.5091 24.3747 14.2275 23.8484 14.7043 23.135L14.7267 23.1015C15.2077 22.3841 15.42 21.5167 15.3248 20.6591L14.6581 14.6579L20.659 15.3247C22.4154 15.5195 24.0964 14.417 24.5948 12.6939L26.2732 6.89388L31.5603 9.80286C32.3091 10.2149 33.2091 10.351 34.0367 10.1859L34.0816 10.1771C34.9287 10.0096 35.6917 9.54654 36.2304 8.87309L40.0001 4.16105L43.7699 8.87309C44.8982 10.2838 46.8837 10.6425 48.4182 9.79694L53.7032 6.88412L55.3858 12.6827C55.6255 13.509 56.1517 14.2275 56.8562 14.6983L56.8986 14.7267C57.6159 15.2077 58.4842 15.42 59.3412 15.3248L65.3424 14.6581L64.6756 20.6591C64.5137 22.1156 65.2892 23.1303 65.2822 23.1143C65.7616 23.83 66.4803 24.3558 67.3064 24.5947L73.1063 26.2731L70.1971 31.5602C69.7822 32.3142 69.6466 33.1947 69.8126 34.0282L69.8187 34.0597C69.8189 34.0599 69.8229 34.0811 69.823 34.0813C69.9904 34.9282 70.4534 35.6912 71.1269 36.2301L75.8391 40.0001L71.127 43.7699Z" fill="#DFB48F"/>
<path d="M58.072 19.6679L19.6717 58.0683C19.0469 58.6931 19.0469 59.7062 19.6717 60.3312C20.2967 60.956 21.3097 60.9558 21.9346 60.3312L60.3349 21.9308C60.9597 21.306 60.9597 20.2929 60.3349 19.6679C59.7098 19.043 58.697 19.043 58.072 19.6679Z" fill="white"/>
<path d="M51.2016 41.5996C45.9082 41.5996 41.6016 45.9062 41.6016 51.1997C41.6016 56.4932 45.9082 60.7998 51.2016 60.7998C56.4951 60.7998 60.8017 56.4932 60.8017 51.1997C60.8017 45.9062 56.4951 41.5996 51.2016 41.5996ZM51.2016 57.5997C47.6727 57.5997 44.8016 54.7287 44.8016 51.1997C44.8016 47.6707 47.6727 44.7996 51.2016 44.7996C54.7306 44.7996 57.6017 47.6707 57.6017 51.1997C57.6017 54.7287 54.7306 57.5997 51.2016 57.5997Z" fill="white"/>
<path d="M28.8032 38.3994C34.0967 38.3994 38.4033 34.0928 38.4033 28.7993C38.4033 23.5058 34.0967 19.1992 28.8032 19.1992C23.5097 19.1992 19.2031 23.5058 19.2031 28.7993C19.2031 34.0928 23.5097 38.3994 28.8032 38.3994ZM28.8032 22.3992C32.3322 22.3992 35.2033 25.2703 35.2033 28.7993C35.2033 32.3283 32.3322 35.1993 28.8032 35.1993C25.2742 35.1993 22.4032 32.3283 22.4032 28.7993C22.4032 25.2703 25.2742 22.3992 28.8032 22.3992Z" fill="white"/>
</g>
<defs>
<clipPath id="clip0_1217_9073">
<rect width="80" height="80" fill="white"/>
</clipPath>
</defs>
</svg>
