<svg width="80" height="80" viewBox="0 0 80 80" fill="none" xmlns="http://www.w3.org/2000/svg">
<g clip-path="url(#clip0_1217_9081)">
<path d="M4.80273 42.8634C4.80273 45.5077 6.95414 47.6589 9.5982 47.6589C12.2423 47.6589 14.3937 45.5075 14.3937 42.8634C14.3937 42.5083 14.3537 42.1623 14.2801 41.8291L21.1698 38.3784C22.0499 39.3981 23.3501 40.0453 24.7995 40.0453C28.5196 40.0453 30.8248 35.9705 28.9129 32.788L37.546 24.1403C39.5255 25.3248 42.0915 24.9344 43.6306 23.1512L50.5202 26.602C49.856 29.6109 52.1609 32.4319 55.2023 32.4319C59.3493 32.4319 61.5427 27.4898 58.7529 24.4164L68.803 9.31547C71.9274 10.4252 75.1991 8.08844 75.1991 4.79562C75.199 2.15141 73.0477 0 70.4035 0C67.7593 0 65.608 2.15141 65.608 4.79547C65.608 6.03359 66.0798 7.16375 66.8531 8.01547L56.8029 23.1164C54.9612 22.4622 52.8838 22.9884 51.5726 24.5077L44.6829 21.0569C44.7565 20.7236 44.7965 20.3778 44.7965 20.0227C44.7965 17.3784 42.6451 15.2272 40.001 15.2272C36.2823 15.2272 33.9751 19.3009 35.8876 22.4845L27.2546 31.1322C23.6805 28.9933 19.2087 32.1669 20.1179 36.2841L13.2282 39.7347C10.3388 36.3878 4.80273 38.4242 4.80273 42.8634ZM70.4035 2.34375C71.7554 2.34375 72.8552 3.44359 72.8552 4.79547C72.8552 6.14734 71.7554 7.24719 70.4035 7.24719C69.0516 7.24719 67.9518 6.14734 67.9518 4.79547C67.9518 3.44359 69.0515 2.34375 70.4035 2.34375ZM55.2023 25.1845C56.5541 25.1845 57.654 26.2844 57.654 27.6362C57.654 28.9881 56.5541 30.088 55.2023 30.088C53.8504 30.088 52.7505 28.9881 52.7505 27.6362C52.7505 26.2844 53.8502 25.1845 55.2023 25.1845ZM40.0009 17.5709C41.3527 17.5709 42.4526 18.6708 42.4526 20.0227C42.4526 21.3745 41.3527 22.4744 40.0009 22.4744C38.649 22.4744 37.5491 21.3745 37.5491 20.0227C37.5491 18.6708 38.6488 17.5709 40.0009 17.5709ZM24.7995 32.798C26.1513 32.798 27.2512 33.8978 27.2512 35.2497C27.2512 36.6016 26.1513 37.7014 24.7995 37.7014C23.4476 37.7014 22.3477 36.6016 22.3477 35.2497C22.3477 33.8978 23.4476 32.798 24.7995 32.798ZM9.5982 45.3153C8.24633 45.3153 7.14648 44.2155 7.14648 42.8636C7.14648 41.5117 8.24633 40.4119 9.5982 40.4119C10.9501 40.4119 12.0499 41.5117 12.0499 42.8636C12.0499 44.2155 10.9502 45.3153 9.5982 45.3153Z" fill="white"/>
<path d="M77.9237 77.6564H76.4735V51.9053C76.4735 51.258 75.949 50.7334 75.3016 50.7334C74.6543 50.7334 74.1298 51.258 74.1298 51.9053V77.6564H66.6752V19.2734H74.1298V46.4367C74.1298 47.0841 74.6543 47.6086 75.3016 47.6086C75.949 47.6086 76.4735 47.0841 76.4735 46.4367V19.0816C76.4735 17.895 75.508 16.9297 74.3216 16.9297H66.4835C65.297 16.9297 64.3316 17.8952 64.3316 19.0816V77.6564H61.2723V42.0292C61.2723 40.8427 60.307 39.8773 59.1205 39.8773H57.9359C57.2885 39.8773 56.764 40.4019 56.764 41.0492C56.764 41.6966 57.2885 42.2211 57.9359 42.2211H58.9287V77.6564H51.4743V42.2211H52.4671C53.1145 42.2211 53.639 41.6966 53.639 41.0492C53.639 40.4019 53.1145 39.8773 52.4671 39.8773H51.2823C50.0957 39.8773 49.1305 40.8428 49.1305 42.0292V77.6564H46.0712V34.3492C46.0712 33.1627 45.1057 32.1975 43.9193 32.1975H36.0812C34.8946 32.1975 33.9295 33.1628 33.9295 34.3492V77.6564H30.8701V49.6428C30.8701 48.4563 29.9046 47.4909 28.7182 47.4909H20.8801C19.6935 47.4909 18.7282 48.4564 18.7282 49.6428V77.6564H15.6688V57.2562C15.6688 56.0697 14.7035 55.1045 13.5171 55.1045H5.6782C4.49164 55.1045 3.52633 56.0698 3.52633 57.2562V77.6564H2.07617C1.42883 77.6564 0.904297 78.1809 0.904297 78.8283C0.904297 79.4756 1.42883 80.0002 2.07617 80.0002H77.9238C78.5712 80.0002 79.0957 79.4756 79.0957 78.8283C79.0957 78.1809 78.571 77.6564 77.9237 77.6564ZM5.87008 77.6564V57.4483H13.3245V77.6564H5.87008ZM21.0713 77.6564V49.8345H28.5259V77.6564H21.0713ZM36.2727 77.6564V34.5413H43.7271V77.6564H36.2727Z" fill="#DFB48F"/>
</g>
<defs>
<clipPath id="clip0_1217_9081">
<rect width="80" height="80" fill="white"/>
</clipPath>
</defs>
</svg>
