<svg width="80" height="80" viewBox="0 0 80 80" fill="none" xmlns="http://www.w3.org/2000/svg">
<g clip-path="url(#clip0_1217_9085)">
<path d="M40.0068 0.375C59.5354 0.375 75.4248 16.2628 75.4248 35.79C75.4248 41.6409 73.9593 47.4401 71.1875 52.5576V52.5586C70.8746 53.1367 70.2791 53.4648 69.6641 53.4648C69.3855 53.4648 69.1035 53.3984 68.8428 53.2568H68.8418C68.0011 52.8015 67.6886 51.7512 68.1436 50.9111C70.6434 46.2959 71.9639 41.0672 71.9639 35.79C71.9639 18.1704 57.6276 3.83594 40.0068 3.83594C22.3862 3.83608 8.05078 18.1705 8.05078 35.79C8.05079 41.0673 9.37118 46.2959 11.8711 50.9111C12.2976 51.6987 12.0488 52.6705 11.3232 53.1641L11.1719 53.2568C10.3327 53.7104 9.28219 53.3993 8.82715 52.5586V52.5576C6.05531 47.44 4.58985 41.6409 4.58984 35.79C4.58984 16.2629 20.4784 0.375147 40.0068 0.375Z" fill="#DFB48F" stroke="#9F0033" stroke-width="0.75"/>
<path d="M14.0371 49.0518C19.1771 49.0518 23.3604 53.2344 23.3604 58.374C23.3603 63.5136 19.1771 67.6963 14.0371 67.6963C8.89735 67.6961 4.71494 63.5134 4.71484 58.374C4.71484 53.2345 8.89729 49.052 14.0371 49.0518ZM14.0371 52.5127C10.8051 52.5129 8.17578 55.1421 8.17578 58.374C8.17588 61.6059 10.8052 64.2351 14.0371 64.2354C17.2693 64.2354 19.8993 61.606 19.8994 58.374C19.8994 55.142 17.2693 52.5127 14.0371 52.5127Z" fill="white" stroke="#9F0033" stroke-width="0.75"/>
<path d="M14.0361 64.2354C19.6556 64.2354 24.779 67.7582 26.7822 72.9961C27.1237 73.8896 26.6763 74.8901 25.7842 75.2314C24.8935 75.5725 23.8911 75.1254 23.5498 74.2334C22.0549 70.3213 18.2318 67.6964 14.0361 67.6963C9.16132 67.6963 5.07547 71.1325 4.07227 75.71L3.97266 76.165H24.5625C25.5178 76.165 26.293 76.9404 26.293 77.8955C26.2929 78.8506 25.5177 79.626 24.5625 79.626H2.10547C1.15023 79.626 0.375041 78.8506 0.375 77.8955C0.375 70.3642 6.50425 64.2354 14.0361 64.2354Z" fill="white" stroke="#9F0033" stroke-width="0.75"/>
<path d="M65.9707 49.0518C71.1107 49.0518 75.2939 53.2344 75.2939 58.374C75.2938 63.5136 71.1107 67.6963 65.9707 67.6963C60.8309 67.6961 56.6485 63.5134 56.6484 58.374C56.6484 53.2345 60.8309 49.052 65.9707 49.0518ZM65.9707 52.5127C62.7387 52.5129 60.1094 55.1421 60.1094 58.374C60.1095 61.6059 62.7387 64.2351 65.9707 64.2354C69.2029 64.2354 71.8329 61.606 71.833 58.374C71.833 55.142 69.2029 52.5127 65.9707 52.5127Z" fill="white" stroke="#9F0033" stroke-width="0.75"/>
<path d="M65.9629 64.2354C73.4948 64.2354 79.624 70.3642 79.624 77.8955C79.624 78.8506 78.8488 79.626 77.8936 79.626H55.4355C54.4805 79.6257 53.7061 78.8505 53.7061 77.8955C53.7061 76.9405 54.4805 76.1653 55.4355 76.165H76.0264L75.9268 75.71C74.9236 71.1325 70.8377 67.6963 65.9629 67.6963C61.7672 67.6963 57.9441 70.3213 56.4492 74.2334C56.1079 75.1253 55.1069 75.5725 54.2148 75.2314C53.3227 74.8901 52.8744 73.8896 53.2158 72.9961C55.219 67.758 60.3433 64.2354 65.9629 64.2354Z" fill="white" stroke="#9F0033" stroke-width="0.75"/>
<path d="M40.0078 0.375C40.963 0.37504 41.7383 1.15035 41.7383 2.10547V35.7891C41.7383 36.7442 40.963 37.5195 40.0078 37.5195C39.0526 37.5195 38.2773 36.7442 38.2773 35.7891V2.10547C38.2773 1.15032 39.0526 0.375 40.0078 0.375Z" fill="#DFB48F" stroke="#9F0033" stroke-width="0.75"/>
<path d="M40.0068 0.375C45.116 0.375 49.7535 4.15844 53.1348 10.5449C56.5088 16.9181 58.581 25.8019 58.5811 35.7891C58.5811 39.2178 58.3287 42.612 57.8301 45.875C57.6995 46.7308 56.9622 47.3447 56.1221 47.3447C56.0363 47.3447 55.9485 47.3379 55.8584 47.3242C54.9145 47.18 54.2659 46.2978 54.4102 45.3525C54.8819 42.2602 55.1201 39.0432 55.1201 35.7891C55.1201 27.1861 53.425 19.2352 50.7119 13.4219C49.3555 10.5156 47.737 8.1279 45.9346 6.46191C44.1308 4.79468 42.124 3.83594 40.0068 3.83594C37.8899 3.83603 35.8837 4.79487 34.0801 6.46191C32.2777 8.12788 30.6591 10.5157 29.3027 13.4219C26.5896 19.2352 24.8946 27.1861 24.8945 35.7891C24.8945 39.0432 25.1328 42.2601 25.6045 45.3525C25.7487 46.2977 25.1001 47.1799 24.1562 47.3242H24.1553C23.2072 47.4705 22.3289 46.821 22.1846 45.875C21.6859 42.612 21.4336 39.2179 21.4336 35.7891C21.4336 25.8018 23.5058 16.9181 26.8799 10.5449C30.261 4.15857 34.8978 0.375153 40.0068 0.375Z" fill="#DFB48F" stroke="#9F0033" stroke-width="0.75"/>
<path d="M6.32031 34.0596H73.6943C74.6494 34.0598 75.4248 34.835 75.4248 35.79C75.4247 36.745 74.6494 37.5203 73.6943 37.5205H6.32031C5.36509 37.5205 4.58994 36.7451 4.58984 35.79C4.58984 34.8349 5.36503 34.0596 6.32031 34.0596Z" fill="#DFB48F" stroke="#9F0033" stroke-width="0.75"/>
<path d="M10.8477 17.2178H69.1514C70.1066 17.2178 70.8818 17.9931 70.8818 18.9482C70.8817 19.9033 70.1066 20.6787 69.1514 20.6787H10.8477C9.89246 20.6787 9.1173 19.9033 9.11719 18.9482C9.11719 17.9931 9.89239 17.2178 10.8477 17.2178Z" fill="#DFB48F" stroke="#9F0033" stroke-width="0.75"/>
<path d="M40.0049 41.0771C46.3757 41.0772 51.5605 46.2615 51.5605 52.6318C51.5605 59.0022 46.3757 64.1865 40.0049 64.1865C33.634 64.1865 28.4492 59.0023 28.4492 52.6318C28.4493 46.2615 33.634 41.0771 40.0049 41.0771ZM40.0049 44.5381C35.5418 44.5381 31.9102 48.169 31.9102 52.6318C31.9102 57.0947 35.5418 60.7266 40.0049 60.7266C44.468 60.7265 48.0996 57.0947 48.0996 52.6318C48.0995 48.169 44.4679 44.5381 40.0049 44.5381Z" fill="white" stroke="#9F0033" stroke-width="0.75"/>
<path d="M40.002 60.7266C49.4693 60.7266 57.1719 68.4288 57.1719 77.8955C57.1718 78.8506 56.3966 79.626 55.4414 79.626H24.5625C23.6073 79.626 22.8321 78.8506 22.832 77.8955C22.832 68.4289 30.5347 60.7266 40.002 60.7266ZM40.002 64.1875C33.1775 64.1875 27.5043 69.197 26.4629 75.7314L26.3945 76.165H53.6094L53.541 75.7314C52.4996 69.197 46.8264 64.1875 40.002 64.1875Z" fill="white" stroke="#9F0033" stroke-width="0.75"/>
</g>
<defs>
<clipPath id="clip0_1217_9085">
<rect width="80" height="80" fill="white"/>
</clipPath>
</defs>
</svg>
