<svg width="80" height="80" viewBox="0 0 80 80" fill="none" xmlns="http://www.w3.org/2000/svg">
<g clip-path="url(#clip0_1217_9068)">
<path d="M40.1279 7.07031C40.4431 7.07031 40.7334 7.25106 40.873 7.53418V7.53516L43.6133 13.0879L43.7295 13.3242L43.9902 13.3623L50.1221 14.2471V14.248C50.432 14.2935 50.6916 14.5101 50.7939 14.8115H50.7949C50.8911 15.1146 50.807 15.4482 50.5811 15.6699L46.1465 19.9883L45.958 20.1719L46.002 20.4316L46.9824 26.1348L46.9951 26.2109L47.0312 26.2803C47.0933 26.4002 47.1279 26.5353 47.1279 26.6738C47.1278 27.1351 46.7579 27.5068 46.2949 27.5068C46.2848 27.5068 46.2758 27.5076 46.2695 27.5078H46.2676L46.2598 27.5068H46.2285C46.0939 27.5068 45.9606 27.4755 45.8379 27.4111L40.3574 24.5312L40.125 24.4092L39.8926 24.5312L34.415 27.4111L34.4141 27.4121C34.1338 27.5603 33.8004 27.537 33.5332 27.3477C33.2809 27.1643 33.1524 26.8481 33.2051 26.5322L33.2041 26.5312L34.251 20.4346L34.2959 20.1758L34.1074 19.9922L29.6738 15.6719L29.5957 15.585C29.4303 15.371 29.3779 15.0853 29.4629 14.8203C29.5639 14.5158 29.8258 14.2977 30.1377 14.252L30.1367 14.251L36.2637 13.3613L36.5234 13.3242L36.6396 13.0889L39.3828 7.53516L39.3838 7.5332C39.5226 7.24939 39.811 7.07041 40.1279 7.07031ZM39.6768 10.6953L37.9697 14.1484V14.1494C37.756 14.5844 37.3398 14.8854 36.8623 14.9551L33.0488 15.5127L32.0479 15.6582L32.7725 16.3652L35.5293 19.0518L35.5312 19.0537C35.8342 19.3459 35.9944 19.7574 35.9746 20.1787L35.9551 20.3594L35.3057 24.1523L35.1338 25.1523L36.0312 24.6797L39.4346 22.8857C39.4723 22.866 39.599 22.821 39.7734 22.7783C39.9479 22.7356 40.0821 22.7168 40.125 22.7168C40.3634 22.7168 40.6048 22.7768 40.8135 22.8896L40.8193 22.8926L44.2188 24.6797L45.1152 25.1504L44.9443 24.1523L44.2939 20.3594C44.2117 19.878 44.3716 19.3875 44.7217 19.0498L44.7236 19.0488L47.4775 16.3652L48.2031 15.6582L47.2002 15.5117L43.3916 14.959H43.3926C42.9726 14.8955 42.6031 14.6585 42.3721 14.3096L42.2822 14.1533L40.5732 10.6953L40.125 9.78809L39.6768 10.6953Z" fill="white" stroke="white"/>
<path d="M14.418 23.5499C17.338 26.4066 25.4613 32.9099 33.908 35.3699C33.8913 37.8099 33.488 42.7266 32.7913 45.2099C32.168 45.3766 31.5413 45.5232 30.9147 45.6499C28.848 46.0666 27.3013 47.5132 26.808 49.3899C24.6413 50.0899 21.7013 52.4099 20.8913 53.6166C20.4247 54.2966 20.2447 55.2199 20.4047 56.0866C20.8413 58.5732 23.0047 60.3799 25.5547 60.3866L50.0147 60.3899L54.7113 60.3866C57.258 60.3799 59.4213 58.5732 59.8613 56.0832C60.0113 55.2132 59.828 54.2932 59.3747 53.6266C58.558 52.4132 55.618 50.0899 53.448 49.3899C52.9547 47.5132 51.4113 46.0666 49.348 45.6499C48.718 45.5199 48.0913 45.3732 47.4713 45.2099C46.7713 42.7166 46.368 37.7999 46.3547 35.3699C54.8013 32.9099 62.9247 26.4066 65.848 23.5499C67.5913 21.8466 69.4947 19.7032 70.378 16.7399C71.3347 13.5299 70.278 10.3932 67.6147 8.55991C65.5313 7.12658 63.108 6.60991 60.5647 7.04658C60.0813 7.12658 59.608 7.25991 59.1347 7.41324L59.088 2.85324C59.0713 0.959909 58.1847 0.0732422 56.3047 0.0732422H23.9547C22.078 0.0732422 21.1913 0.959909 21.1747 2.85658L21.1213 7.41324C20.648 7.25991 20.178 7.12991 19.6947 7.04658C17.148 6.61658 14.7313 7.12658 12.648 8.55991C9.98468 10.3932 8.92801 13.5266 9.88468 16.7399C10.7713 19.7032 12.6713 21.8432 14.418 23.5499ZM57.1647 55.1199C57.2347 55.2166 57.2613 55.4532 57.2347 55.6266C57.0213 56.8366 55.9547 57.7199 54.708 57.7232L50.0147 57.7266L25.558 57.7232C24.308 57.7199 23.2447 56.8366 23.028 55.6199C22.9947 55.4499 23.028 55.2232 23.098 55.1166C23.7913 54.0866 27.028 51.8899 27.8847 51.8532C27.9013 51.8532 27.918 51.8466 27.9347 51.8466C27.9513 51.8466 27.9647 51.8566 27.9813 51.8566H52.2813C52.2947 51.8566 52.3047 51.8499 52.3147 51.8499C52.328 51.8499 52.338 51.8566 52.3513 51.8566C53.228 51.8866 56.468 54.0832 57.1647 55.1199ZM45.1713 46.7699C45.318 47.1632 45.6447 47.4632 46.048 47.5799C46.9613 47.8432 47.8847 48.0699 48.8147 48.2632C49.4813 48.3966 50.018 48.7332 50.3913 49.1866H29.8647C30.2413 48.7332 30.778 48.3999 31.448 48.2632C32.3747 48.0732 33.298 47.8466 34.2113 47.5799C34.6147 47.4632 34.9413 47.1632 35.088 46.7699C35.9913 44.3699 36.4847 39.0132 36.568 35.9966C37.7647 36.2132 38.9547 36.3432 40.128 36.3432C41.3013 36.3432 42.4947 36.2099 43.688 35.9966C43.7713 39.0099 44.2647 44.3599 45.1713 46.7699ZM61.0013 9.67658C62.8413 9.36991 64.588 9.71991 66.098 10.7566C67.8247 11.9432 68.448 13.8466 67.8147 15.9766C67.1047 18.3566 65.478 20.1766 63.9813 21.6399C62.4713 23.1166 59.158 25.8766 55.1013 28.3866C58.1647 23.1699 59.0513 16.0132 59.1613 10.2232C59.1747 10.2199 59.188 10.2132 59.2013 10.2099C59.8013 9.99658 60.3913 9.77991 61.0013 9.67658ZM23.8447 2.87991C23.8447 2.82991 23.8447 2.78324 23.848 2.74324H23.958H56.298H56.4113C56.4147 2.78324 56.4147 2.82658 56.4147 2.87991L56.478 9.05657C56.478 9.10658 56.4947 9.37657 56.5013 9.42324C56.5047 9.43991 56.5147 9.45324 56.518 9.47324C56.518 9.47991 56.5147 9.48324 56.5147 9.48991C56.468 14.9366 55.6713 24.8032 50.8847 29.6732C48.528 32.0666 44.4047 33.5966 40.298 33.5966C40.238 33.5966 40.178 33.5966 40.1147 33.5966C36.018 33.5866 31.7713 32.0999 29.378 29.6732C24.5547 24.7666 23.7747 14.7866 23.7447 9.27324C23.7447 9.26657 23.7413 9.25991 23.7413 9.25324C23.748 9.18991 23.7813 9.12658 23.7813 9.06658L23.8447 2.87991ZM14.158 10.7566C15.3113 9.96657 16.588 9.56324 17.958 9.56324C18.3847 9.56324 18.818 9.60324 19.2547 9.67658C19.868 9.77991 20.458 9.99657 21.058 10.2132C21.0713 10.2166 21.0847 10.2232 21.098 10.2266C21.2113 16.0532 22.1013 23.1866 25.158 28.3866C21.1013 25.8799 17.788 23.1166 16.278 21.6399C14.7813 20.1766 13.1547 18.3566 12.4447 15.9766C11.808 13.8499 12.4347 11.9466 14.158 10.7566Z" fill="#DFB48F"/>
<path d="M13.085 62.6768H67.1016C67.4158 62.6768 68.1583 62.6898 68.6787 63.2178C69.2076 63.7543 69.2114 64.5363 69.208 64.8711C69.1913 66.3816 69.1949 68.3019 69.1982 70.0742V71.2539H77.1719C77.7808 71.2539 78.403 71.3365 78.8564 71.7949C79.308 72.2515 79.3844 72.8905 79.3779 73.5215V73.5244L79.3682 75.875V75.8779L79.3721 77.3408C79.3686 78.0853 79.1625 78.5877 78.8438 78.9053C78.5247 79.2231 78.021 79.4267 77.2754 79.4268H2.73535C1.96747 79.4268 1.46164 79.223 1.14551 78.9043C0.828691 78.5848 0.625 78.0716 0.625 77.293V73.4102C0.625 72.5917 0.825785 72.0785 1.1416 71.7646C1.41865 71.4894 1.85154 71.3008 2.51172 71.2568L2.80957 71.2471H5.3916L10.5547 71.25H11.0547V64.7021C11.0577 63.9785 11.2578 63.4905 11.5664 63.1826C11.8751 62.8748 12.3632 62.6768 13.085 62.6768ZM67.5312 70.0723C67.5279 68.2937 67.5215 66.3715 67.5381 64.8623L67.5439 64.3564H67.0381L13.2354 64.3398H12.7373L12.7354 64.8379L12.7188 69.2949V69.2969L12.7217 72.084C12.7214 72.5441 12.3489 72.9168 11.8887 72.917H2.29102L2.29199 73.417L2.29492 77.2539L2.2959 77.7539H77.6895L77.6914 77.2559L77.7109 73.4922C77.7134 73.4443 77.7143 73.3939 77.707 73.3428L77.6455 72.9131H68.3652C67.9072 72.9131 67.5312 72.5398 67.5312 72.0801V70.0723Z" fill="white" stroke="white"/>
</g>
<defs>
<clipPath id="clip0_1217_9068">
<rect width="80" height="80" fill="white"/>
</clipPath>
</defs>
</svg>
