<svg width="80" height="80" viewBox="0 0 80 80" fill="none" xmlns="http://www.w3.org/2000/svg">
    <path d="M35.086 28.1209C33.9062 26.9646 32.082 27.058 31.0006 28.1611L27.2527 31.9835L26.2239 30.9073C25.0985 29.7296 23.2681 29.7366 22.1395 30.8149C20.988 31.9155 20.9466 33.7477 22.0471 34.8994L25.1378 38.133C26.2531 39.3 28.1352 39.3361 29.2891 38.1595L35.1261 32.2063C36.2441 31.0661 36.226 29.2388 35.086 28.1209ZM33.4905 30.6027L27.6535 36.556C27.5448 36.6667 27.3916 36.7354 27.2223 36.7354C27.0609 36.7343 26.9047 36.667 26.7933 36.5505L23.7026 33.3169C23.4747 33.0783 23.483 32.6987 23.7217 32.4706C23.9608 32.2422 24.3394 32.2504 24.568 32.4897L26.4142 34.4212C26.8572 34.8847 27.6028 34.8977 28.0597 34.4317L32.6361 29.7645C32.8683 29.5279 33.2465 29.525 33.4824 29.7564C33.7183 29.9876 33.7229 30.3659 33.4905 30.6027Z" fill="white" stroke="white" stroke-width="0.3" />
    <path d="M35.086 41.6351C33.947 40.5182 32.1187 40.535 31.0006 41.6751L27.2527 45.4975L26.2239 44.4213C25.1152 43.2608 23.287 43.2324 22.1395 44.3289C20.988 45.4294 20.9466 47.2617 22.0471 48.4134L25.1378 51.6469C26.2658 52.8271 28.1472 52.8377 29.2891 51.6735L35.1261 45.7204C36.2438 44.5802 36.226 42.753 35.086 41.6351ZM33.4905 44.1167L27.6535 50.0698C27.4156 50.3122 27.0258 50.3075 26.7933 50.0643L23.7026 46.8306C23.4747 46.5919 23.483 46.2124 23.7217 45.9844C23.9606 45.7559 24.3394 45.7641 24.568 46.0035L26.4142 47.935C26.8479 48.3888 27.5921 48.4225 28.0597 47.9456L32.6361 43.2783C32.8686 43.0414 33.2473 43.0395 33.4824 43.2702C33.7183 43.5016 33.7229 43.8799 33.4905 44.1167Z" fill="white" stroke="white" stroke-width="0.3" />
    <path d="M35.0858 55.1507C33.947 54.0338 32.1182 54.0506 31.0006 55.1907L27.2527 59.0133L26.2239 57.9371C25.1153 56.7769 23.2866 56.7483 22.1395 57.8447C20.988 58.9452 20.9466 60.7775 22.0471 61.9291L25.1376 65.1627C25.6751 65.7252 26.4294 66.0506 27.215 66.0556H27.2261C27.9971 66.0556 28.7491 65.7398 29.2889 65.1894L35.126 59.2362C36.2438 58.096 36.226 56.2688 35.0858 55.1507ZM33.4905 57.6325L27.6535 63.5857C27.5415 63.6998 27.3858 63.7651 27.226 63.7651C27.0631 63.7651 26.9053 63.6975 26.7933 63.5802L23.7026 60.3466C23.4747 60.108 23.483 59.7284 23.7217 59.5003C23.9606 59.2721 24.3394 59.2802 24.568 59.5194L26.4142 61.451C26.8724 61.9304 27.6217 61.9084 28.0597 61.4615L32.6361 56.7943C32.8702 56.5559 33.249 56.557 33.4824 56.7862C33.7189 57.0176 33.7223 57.396 33.4905 57.6325Z" fill="white" stroke="white" stroke-width="0.3" />
    <path d="M56.8372 32.0156H40.0006C39.368 32.0156 38.8555 32.5283 38.8555 33.1607C38.8555 33.7931 39.3682 34.3058 40.0006 34.3058H56.8372C57.4697 34.3058 57.9823 33.7931 57.9823 33.1607C57.9823 32.5285 57.4697 32.0156 56.8372 32.0156Z" fill="white" stroke="white" stroke-width="0.3" />
    <path d="M56.8372 45.9102H40.0006C39.368 45.9102 38.8555 46.4229 38.8555 47.0552C38.8555 47.6876 39.3682 48.2003 40.0006 48.2003H56.8372C57.4697 48.2003 57.9823 47.6876 57.9823 47.0552C57.9823 46.4229 57.4697 45.9102 56.8372 45.9102Z" fill="white" stroke="white" stroke-width="0.3" />
    <path d="M56.8372 59.8086H40.0006C39.368 59.8086 38.8555 60.3213 38.8555 60.9537C38.8555 61.5861 39.3682 62.0988 40.0006 62.0988H56.8372C57.4697 62.0988 57.9823 61.5861 57.9823 60.9537C57.9823 60.3214 57.4697 59.8086 56.8372 59.8086Z" fill="white" stroke="white" stroke-width="0.3" />
    <path d="M67.8544 46.4657C67.2218 46.4657 66.7093 46.9783 66.7093 47.6107V73.7936C66.7093 75.4486 65.3628 76.7951 63.7079 76.7951H16.2914C14.6363 76.7951 13.29 75.4484 13.29 73.7936V14.7275C13.29 13.0725 14.6363 11.726 16.2914 11.726H25.992V12.3637V12.3744C25.992 14.0162 27.3277 15.3518 28.9693 15.3518H28.98H29.3993V17.3917H18.098C16.8993 17.3917 15.9242 18.3669 15.9242 19.5656V72.1976C15.9242 73.3964 16.8993 74.3714 18.098 74.3714H37.3273C37.9598 74.3714 38.4723 73.8587 38.4723 73.2264C38.4723 72.594 37.9598 72.0813 37.3273 72.0813H18.2147V19.6819H29.3993V21.4855C29.3993 22.8788 30.5326 24.0122 31.9259 24.0122H48.0728C49.4661 24.0122 50.5996 22.8788 50.5996 21.4855V19.6819H61.784V72.081H42.6715C42.0389 72.081 41.5264 72.5937 41.5264 73.2261C41.5264 73.8584 42.0389 74.3711 42.6715 74.3711H61.9007C63.0995 74.3711 64.0745 73.396 64.0745 72.1973V19.5654C64.0745 18.3669 63.0994 17.3916 61.9007 17.3916H50.5997V15.3518H51.019H51.0295C52.6713 15.3518 54.0069 14.016 54.0069 12.3744V12.3666C54.0069 12.3656 54.0071 12.3646 54.0071 12.3637V11.726H63.7076C65.3627 11.726 66.709 13.0726 66.709 14.7275V42.2668C66.7091 42.8992 67.2217 43.4119 67.8542 43.4119C68.4868 43.4119 68.9993 42.8992 68.9993 42.2668V14.7275C68.9993 11.8095 66.6255 9.43565 63.7076 9.43565H54.0069V8.74158C54.0069 7.09983 52.6711 5.7642 51.0295 5.7642H44.7934V3.90213C44.7934 2.25458 43.4529 0.914062 41.8053 0.914062H38.1939C36.5461 0.914062 35.2059 2.25458 35.2059 3.90213V5.76389H28.9696C27.3279 5.76389 25.9923 7.09952 25.9923 8.74127V9.43535H16.2917C13.3738 9.43535 11 11.8092 11 14.7272V73.7933C11 76.7112 13.3738 79.0851 16.2917 79.0851H63.7081C66.6259 79.0851 68.9998 76.7112 68.9998 73.7933V47.6109C68.9995 46.9784 68.4869 46.4657 67.8544 46.4657ZM48.3093 21.4855C48.3093 21.6159 48.2033 21.7218 48.0728 21.7218H31.9259C31.7956 21.7218 31.6896 21.6157 31.6896 21.4855V19.6819H48.3094V21.4855H48.3093ZM48.3094 17.3917H48.3093H31.6898V15.3518H48.3096V17.3917H48.3094ZM37.4958 3.90213C37.496 3.52379 37.8155 3.20439 38.1935 3.20439H41.805C42.1833 3.20439 42.5027 3.52395 42.5027 3.90213V5.76389H37.4958V3.90213ZM28.2821 8.74142C28.2821 8.36904 28.5968 8.05437 28.9692 8.05437C29.9454 8.05437 50.0625 8.05437 51.0294 8.05437C51.4018 8.05437 51.7164 8.36904 51.7164 8.74142V12.3649C51.7157 12.7425 51.3966 13.0613 51.0188 13.0613C50.3014 13.0613 29.4397 13.0613 28.9799 13.0613C28.6015 13.0613 28.2821 12.7417 28.2821 12.3636C28.2821 11.0743 28.2821 10.0952 28.2821 8.74142Z" fill="#DFB48F" stroke="#DFB48F" stroke-width="0.3" />
</svg>