<svg width="80" height="80" viewBox="0 0 80 80" fill="none" xmlns="http://www.w3.org/2000/svg">
    <path d="M77.137 16.6125L63.3871 2.8625C63.1487 2.63226 62.8309 2.50247 62.4995 2.5H31.2496C30.2559 2.50297 29.3038 2.89901 28.6012 3.60163C27.8986 4.30425 27.5025 5.25635 27.4996 6.25V13.8125C20.7665 14.1281 14.4136 17.0249 9.7603 21.9015C5.10698 26.778 2.51074 33.2595 2.51074 40C2.51074 46.7405 5.10698 53.222 9.7603 58.0985C14.4136 62.9751 20.7665 65.8719 27.4996 66.1875V73.75C27.5025 74.7437 27.8986 75.6958 28.6012 76.3984C29.3038 77.101 30.2559 77.497 31.2496 77.5H73.7495C74.7432 77.497 75.6953 77.101 76.3979 76.3984C77.1005 75.6958 77.4966 74.7437 77.4995 73.75V17.5C77.4971 17.1686 77.3673 16.8509 77.137 16.6125ZM63.7495 6.7625L73.2371 16.25H64.9995C64.668 16.25 64.3501 16.1183 64.1157 15.8839C63.8812 15.6495 63.7495 15.3315 63.7495 15V6.7625ZM4.99955 40C5.00769 33.9204 7.34422 28.0748 11.5289 23.6645C15.7137 19.2543 21.4287 16.6144 27.4996 16.2875V39.4875L11.1246 55.8625C7.1827 51.5198 4.99916 45.8649 4.99955 40ZM12.8871 57.625L29.2621 41.25H52.4621C52.2344 45.729 50.7407 50.0515 48.1545 53.7156C45.5683 57.3796 41.9957 60.2347 37.8516 61.9494C33.7076 63.6641 29.1621 64.168 24.7431 63.4025C20.3241 62.6371 16.2129 60.6337 12.8871 57.625ZM74.9995 73.75C74.9995 74.0815 74.8679 74.3995 74.6334 74.6339C74.399 74.8683 74.0811 75 73.7495 75H31.2496C30.918 75 30.6001 74.8683 30.3657 74.6339C30.1312 74.3995 29.9996 74.0815 29.9996 73.75V66.1875C36.7303 65.8624 43.0787 62.9629 47.7318 58.0887C52.3849 53.2146 54.9869 46.7386 54.9995 40C54.9995 39.6685 54.8679 39.3505 54.6334 39.1161C54.399 38.8817 54.0811 38.75 53.7495 38.75H29.9996V6.25C29.9996 5.91848 30.1312 5.60054 30.3657 5.36612C30.6001 5.1317 30.918 5 31.2496 5H61.2495V15C61.2525 15.9936 61.6486 16.9458 62.3512 17.6484C63.0538 18.351 64.0059 18.747 64.9995 18.75H74.9995V73.75Z" fill="#DFB48F" stroke="#DFB48F" stroke-width="0.2" />
    <path d="M33.75 8.75C33.4185 8.75 33.1005 8.8817 32.8661 9.11612C32.6317 9.35054 32.5 9.66848 32.5 10V35C32.5 35.3315 32.6317 35.6495 32.8661 35.8839C33.1005 36.1183 33.4185 36.25 33.75 36.25H58.75C59.0815 36.25 59.3995 36.1183 59.6339 35.8839C59.8683 35.6495 60 35.3315 60 35C59.9924 28.0404 57.2243 21.368 52.3031 16.4469C47.382 11.5257 40.7096 8.75761 33.75 8.75ZM35 33.75V11.2875C40.8554 11.6019 46.3879 14.0694 50.5343 18.2157C54.6806 22.3621 57.1481 27.8946 57.4625 33.75H35Z" fill="white" stroke="white" stroke-width="0.2" />
    <path d="M61.25 50C59.025 50 56.8499 50.6598 54.9998 51.896C53.1498 53.1321 51.7078 54.8891 50.8564 56.9448C50.0049 59.0005 49.7821 61.2625 50.2162 63.4448C50.6503 65.6271 51.7217 67.6316 53.2951 69.205C54.8684 70.7783 56.873 71.8498 59.0552 72.2838C61.2375 72.7179 63.4995 72.4951 65.5552 71.6436C67.6109 70.7922 69.3679 69.3502 70.604 67.5002C71.8402 65.6501 72.5 63.475 72.5 61.25C72.4954 58.2677 71.3086 55.4089 69.1998 53.3002C67.0911 51.1914 64.2323 50.0046 61.25 50ZM61.25 70C59.5194 70 57.8277 69.4868 56.3888 68.5254C54.9498 67.5639 53.8283 66.1973 53.1661 64.5985C52.5038 62.9996 52.3305 61.2403 52.6681 59.543C53.0058 57.8456 53.8391 56.2865 55.0628 55.0628C56.2865 53.8391 57.8456 53.0057 59.543 52.6681C61.2403 52.3305 62.9996 52.5038 64.5985 53.1661C66.1973 53.8283 67.5639 54.9498 68.5254 56.3888C69.4868 57.8277 70 59.5194 70 61.25C69.9974 63.5698 69.0746 65.7939 67.4343 67.4343C65.7939 69.0746 63.5698 69.9974 61.25 70Z" fill="#DFB48F" stroke="#DFB48F" stroke-width="0.2" />
    <path d="M58.75 63.2334L55.8837 60.3672L54.1162 62.1347L57.8662 65.8847C58.1006 66.119 58.4185 66.2507 58.75 66.2507C59.0814 66.2507 59.3993 66.119 59.6337 65.8847L67.1337 58.3847L65.3662 56.6172L58.75 63.2334Z" fill="white" stroke="white" stroke-width="0.2" />
    <path d="M62.5 23.75H72.5V26.25H62.5V23.75Z" fill="white" stroke="white" stroke-width="0.2" />
    <path d="M62.5 31.25H72.5V33.75H62.5V31.25Z" fill="white" stroke="white" stroke-width="0.2" />
    <path d="M62.5 38.75H72.5V41.25H62.5V38.75Z" fill="white" stroke="white" stroke-width="0.2" />
</svg>