<svg width="80" height="80" viewBox="0 0 80 80" fill="none" xmlns="http://www.w3.org/2000/svg">
    <g clip-path="url(#clip0_220_219)">
        <path d="M18.6782 41.7511H15.3168C13.1724 41.7511 11.4277 40.0175 11.4277 37.8867C11.4277 37.2394 10.9032 36.7148 10.2559 36.7148C9.60852 36.7148 9.08398 37.2394 9.08398 37.8867C9.08398 41.3098 11.8801 44.0948 15.317 44.0948H18.6782C19.3255 44.0948 19.8501 43.5703 19.8501 42.923C19.8501 42.2756 19.3255 41.7511 18.6782 41.7511Z" fill="white" />
        <path d="M29.6906 50.4219H19.6793C16.3728 50.4219 13.6826 53.1011 13.6826 56.3947C13.6826 57.042 14.2071 57.5666 14.8545 57.5666C15.5018 57.5666 16.0264 57.0419 16.0264 56.3947C16.0264 54.3936 17.665 52.7656 19.6793 52.7656H29.6906C30.3379 52.7656 30.8625 52.2411 30.8625 51.5938C30.8625 50.9464 30.3379 50.4219 29.6906 50.4219Z" fill="white" />
        <path d="M39.2387 50.4219H34.3779C33.7306 50.4219 33.2061 50.9464 33.2061 51.5938C33.2061 52.2411 33.7306 52.7656 34.3779 52.7656H39.2387C39.8861 52.7656 40.4106 52.2411 40.4106 51.5938C40.4106 50.9464 39.8859 50.4219 39.2387 50.4219Z" fill="white" />
        <path d="M30.9986 27.6523C30.3512 27.6523 29.8267 28.177 29.8267 28.8242C29.8267 32.1752 27.0845 34.9012 23.7139 34.9012C23.0665 34.9012 22.542 35.4258 22.542 36.0731C22.542 36.7205 23.0665 37.245 23.7139 37.245C28.3768 37.245 32.1704 33.4675 32.1704 28.8242C32.1704 28.177 31.6459 27.6523 30.9986 27.6523Z" fill="white" />
        <path d="M28.8384 9.9364C26.039 9.75671 23.6118 11.8791 23.4303 14.6691C23.3882 15.315 23.8777 15.8725 24.5235 15.9147C24.5495 15.9164 24.5753 15.9172 24.6009 15.9172C25.2134 15.9172 25.7287 15.4412 25.7692 14.8214C25.8667 13.3201 27.176 12.18 28.6877 12.2753C29.3342 12.3186 29.8909 11.8272 29.9324 11.1812C29.9742 10.5353 29.4843 9.97812 28.8384 9.9364Z" fill="white" />
        <path d="M24.8975 55.6406C24.2501 55.6406 23.7256 56.1652 23.7256 56.8125C23.7256 57.4598 24.2501 57.9844 24.8975 57.9844C26.8326 57.9844 28.407 59.5483 28.407 61.4705C28.407 63.3931 26.8326 64.957 24.8975 64.957C24.2501 64.957 23.7256 65.4816 23.7256 66.1289C23.7256 66.7762 24.2501 67.3008 24.8975 67.3008C28.125 67.3008 30.7507 64.6855 30.7507 61.4705C30.7507 58.2559 28.125 55.6406 24.8975 55.6406Z" fill="white" />
        <path d="M36.8906 28.0469C36.2433 28.0469 35.7188 28.5714 35.7188 29.2188C35.7188 29.8661 36.2433 30.3906 36.8906 30.3906C38.4452 30.3906 39.71 31.6464 39.71 33.1902C39.71 34.7341 38.4452 35.99 36.8906 35.99C36.2433 35.99 35.7188 36.5145 35.7188 37.1619C35.7188 37.8092 36.2433 38.3337 36.8906 38.3337C39.7377 38.3337 42.0538 36.0263 42.0538 33.1902C42.0538 30.3542 39.7377 28.0469 36.8906 28.0469Z" fill="white" />
        <path d="M16.2471 20.5938C15.5997 20.5938 15.0752 21.1183 15.0752 21.7656C15.0752 22.413 15.5997 22.9375 16.2471 22.9375C18.918 22.9375 21.0908 25.0969 21.0908 27.7512C21.0908 30.4058 18.918 32.5653 16.2471 32.5653C15.5997 32.5653 15.0752 33.0898 15.0752 33.7372C15.0752 34.3845 15.5997 34.9091 16.2471 34.9091C20.2102 34.9091 23.4346 31.6981 23.4346 27.7512C23.4346 23.8045 20.2102 20.5938 16.2471 20.5938Z" fill="white" />
        <path d="M71.3375 20.543C69.1348 20.543 67.3428 22.3288 67.3428 24.5238C67.3428 26.7189 69.1348 28.5047 71.3375 28.5047C73.5401 28.5047 75.3321 26.7189 75.3321 24.5238C75.3321 22.3288 73.5401 20.543 71.3375 20.543ZM71.3376 26.1611C70.4273 26.1611 69.6867 25.4267 69.6867 24.5239C69.6865 23.6213 70.4271 22.8869 71.3376 22.8869C72.2479 22.8869 72.9886 23.6213 72.9886 24.5239C72.9886 25.4266 72.2479 26.1611 71.3376 26.1611Z" fill="white" />
        <path d="M75.2535 50.5352C73.0507 50.5352 71.2588 52.3209 71.2588 54.5161C71.2588 56.7112 73.0508 58.4969 75.2535 58.4969C77.4561 58.4969 79.248 56.7111 79.248 54.5161C79.248 52.3211 77.4561 50.5352 75.2535 50.5352ZM75.2535 56.1531C74.3432 56.1531 73.6025 55.4187 73.6025 54.5161C73.6025 53.6134 74.3432 52.8789 75.2535 52.8789C76.1638 52.8789 76.9043 53.6133 76.9043 54.5161C76.9044 55.4187 76.1638 56.1531 75.2535 56.1531Z" fill="white" />
        <path d="M72.795 36.4885C72.119 36.4887 71.4821 36.6574 70.9234 36.9541L68.639 34.681C68.18 34.2244 67.4382 34.2265 66.9818 34.6851C66.5253 35.1438 66.5272 35.8857 66.9859 36.3423L69.2645 38.6096C68.9687 39.1652 68.8003 39.7979 68.8003 40.4693C68.8003 42.6644 70.5923 44.4502 72.795 44.4502C74.9978 44.4502 76.7896 42.6644 76.7896 40.4693C76.7896 38.2743 74.9976 36.4885 72.795 36.4885ZM72.7951 42.1066C71.8848 42.1066 71.1442 41.3723 71.1442 40.4694C71.1442 39.5669 71.8848 38.8324 72.7951 38.8324C73.7054 38.8324 74.4461 39.5668 74.4461 40.4694C74.4461 41.3721 73.7054 42.1066 72.7951 42.1066Z" fill="white" />
        <path d="M70.1539 62.7656C67.9511 62.7656 66.1592 64.5514 66.1592 66.7466C66.1592 68.9417 67.9512 70.7275 70.1539 70.7275C72.3567 70.7275 74.1486 68.9417 74.1486 66.7466C74.1486 64.5514 72.3567 62.7656 70.1539 62.7656ZM70.1539 68.3836C69.2436 68.3836 68.5029 67.6492 68.5029 66.7464C68.5029 65.8438 69.2436 65.1092 70.1539 65.1092C71.0642 65.1092 71.8048 65.8436 71.8048 66.7464C71.805 67.6492 71.0643 68.3836 70.1539 68.3836Z" fill="white" />
        <path d="M56.4423 22.0227C57.1871 22.0227 58.0759 21.6558 58.6038 21.1305L63.131 16.6255C63.586 16.8053 64.081 16.9053 64.5993 16.9053C66.8021 16.9053 68.594 15.1195 68.594 12.9244C68.594 10.7294 66.802 8.94375 64.5993 8.94375C62.3966 8.94375 60.6048 10.7295 60.6048 12.9244C60.6048 13.7486 60.8574 14.5153 61.2899 15.1513L56.951 19.4688C56.8593 19.5567 56.569 19.6767 56.4423 19.6789H46.7695V11.9216H49.4902C49.9935 13.5464 51.5145 14.7306 53.308 14.7306C55.5109 14.7306 57.3027 12.9448 57.3027 10.7497C57.3027 8.55469 55.5107 6.76891 53.308 6.76891C51.5145 6.76891 49.9935 7.95297 49.4902 9.57781H46.7695V9.40031C46.7695 4.21688 42.5343 0 37.3284 0C33.6068 0 30.2684 2.16906 28.7449 5.48563C28.5107 5.46906 28.2771 5.46063 28.0454 5.46063C22.6348 5.46063 18.2184 9.78031 18.0929 15.1381C17.6257 15.0716 17.1532 15.038 16.6787 15.038C11.1893 15.038 6.72352 19.4845 6.72352 24.95C6.72352 26.1497 6.93398 27.3105 7.35023 28.4147C3.25273 30.8459 0.751953 35.1891 0.751953 40C0.751953 42.5831 1.48773 45.0941 2.87961 47.2611C4.02617 49.0461 5.57086 50.5319 7.38773 51.6072C6.95117 52.7386 6.72352 53.9502 6.72352 55.1667C6.72352 57.5795 7.60445 59.9047 9.20398 61.7139C9.63258 62.1987 10.3732 62.2444 10.8582 61.8156C11.3432 61.3869 11.3887 60.6464 10.9599 60.1614C9.7393 58.7809 9.06727 57.007 9.06727 55.1666C9.06727 53.9284 9.35992 52.7475 9.93617 51.6562C10.624 50.3498 11.6926 49.2467 13.0443 48.5148C13.6135 48.2066 13.8249 47.4955 13.5166 46.9264C13.2085 46.357 12.4971 46.1453 11.9282 46.4541C10.5284 47.2123 9.36133 48.2756 8.48867 49.5344C5.13773 47.5186 3.0957 43.9544 3.0957 40C3.0957 35.7719 5.43758 31.9816 9.21852 30.0631C9.21852 30.0631 11.4063 28.8459 14.3107 28.8459C14.958 28.8459 15.4826 28.3214 15.4826 27.6741C15.4826 27.0267 14.958 26.5022 14.3107 26.5022C12.6082 26.5022 10.9785 26.817 9.47602 27.39C9.20664 26.6088 9.06758 25.7923 9.06758 24.9502C9.06758 20.7769 12.482 17.3819 16.679 17.3819C17.4679 17.3819 18.2484 17.5027 18.9987 17.7409C19.3832 17.863 19.8034 17.7787 20.111 17.5178C20.4188 17.2569 20.5707 16.8562 20.513 16.4569C20.4607 16.0931 20.4341 15.7284 20.4341 15.3728C20.4341 11.1997 23.8487 7.80453 28.0457 7.80453C28.4579 7.80453 28.8791 7.83984 29.2984 7.90875C32.9012 8.50469 35.6571 11.6239 35.6571 15.3728C35.6571 16.0202 36.1816 16.5447 36.829 16.5447C37.4763 16.5447 38.0009 16.0202 38.0009 15.3728C38.0009 10.9819 35.1173 7.25109 31.137 5.95328C32.3743 3.75297 34.7259 2.34375 37.3284 2.34375C41.2418 2.34375 44.4257 5.50937 44.4257 9.40031V9.53047H42.1718C41.5245 9.53047 40.9999 10.055 40.9999 10.7023C40.9999 11.3497 41.5245 11.8742 42.1718 11.8742H44.4257V19.6787H34.9476C32.803 19.6787 31.0584 17.9453 31.0584 15.8147C31.0584 15.1673 30.5338 14.6428 29.8865 14.6428C29.2391 14.6428 28.7146 15.1673 28.7146 15.8147C28.7146 19.2377 31.5107 22.0225 34.9476 22.0225H44.4257V41.75H25.4166C24.7693 41.75 24.2448 42.2745 24.2448 42.9219C24.2448 43.5692 24.7693 44.0938 25.4166 44.0938H44.4257V60.1838H40.8045C37.4979 60.1838 34.8079 62.863 34.8079 66.1564C34.8079 66.8037 35.3324 67.3283 35.9798 67.3283C36.6271 67.3283 37.1516 66.8037 37.1516 66.1564C37.1516 64.1555 38.7902 62.5275 40.8045 62.5275H44.4257V70.5997C44.4257 70.7838 44.4163 70.9656 44.4024 71.1461H42.1718C41.5245 71.1461 40.9999 71.6706 40.9999 72.318C40.9999 72.9653 41.5245 73.4898 42.1718 73.4898H43.8005C42.6879 75.9433 40.2063 77.6562 37.3284 77.6562C34.7434 77.6562 32.4004 76.2616 31.1568 74.0823C32.5723 73.62 33.8749 72.8428 34.9724 71.7841C35.4382 71.3347 35.4515 70.5928 35.0021 70.1272C34.5527 69.6611 33.8109 69.648 33.3452 70.0973C32.2262 71.177 30.8273 71.8741 29.3166 72.1259C28.8907 72.1972 28.463 72.2334 28.0454 72.2334C23.8484 72.2334 20.4338 68.8383 20.4338 64.665C20.4338 64.5583 20.4402 64.4475 20.4454 64.3378C21.3913 63.9528 22.2799 63.4259 23.0724 62.7644C23.5693 62.3497 23.6357 61.6106 23.2209 61.1137C22.806 60.6169 22.0791 60.5655 21.5702 60.9653C19.2187 62.8125 16.9443 62.7838 16.0345 62.7083C15.3876 62.6534 14.8232 63.1342 14.7695 63.7791C14.7159 64.4241 15.1954 64.9903 15.8404 65.0441C16.5896 65.1059 17.3529 65.0842 18.0951 64.9784C18.2616 70.2997 22.6613 74.5772 28.0455 74.5772C28.2827 74.5772 28.522 74.5683 28.762 74.5508C30.2935 77.8455 33.6252 80 37.3284 80C42.5341 80 46.7695 75.7831 46.7695 70.5997V68.01H52.9816C53.1088 68.0122 53.3991 68.132 53.4905 68.2198L56.2845 71C55.9065 71.608 55.6876 72.3241 55.6876 73.0903C55.6876 75.2855 57.4796 77.0713 59.6823 77.0713C61.8851 77.0713 63.677 75.2855 63.677 73.0903C63.677 70.8952 61.8849 69.1094 59.6823 69.1094C59.1031 69.1094 58.5529 69.2339 58.0554 69.4558L55.1437 66.5584C54.6157 66.0331 53.727 65.6663 52.9821 65.6663H46.7695V59.4019H56.957C57.4602 61.0267 58.9812 62.2109 60.7749 62.2109C62.9777 62.2109 64.7696 60.4252 64.7696 58.23C64.7696 56.0348 62.9776 54.2491 60.7749 54.2491C58.9813 54.2491 57.4602 55.4331 56.957 57.0581H46.7695V49.2081H58.9604C59.4637 50.833 60.9846 52.0172 62.7784 52.0172C64.9812 52.0172 66.773 50.2314 66.773 48.0363C66.773 45.8411 64.981 44.0553 62.7784 44.0553C60.9846 44.0553 59.4637 45.2394 58.9604 46.8644H46.7695V38.3348H49.6723C50.1757 39.9595 51.6966 41.1438 53.4902 41.1438C55.6931 41.1438 57.4849 39.358 57.4849 37.163C57.4849 34.9678 55.6929 33.182 53.4902 33.182C51.6966 33.182 50.1756 34.3661 49.6723 35.9911H46.7695V29.2284H59.5379C59.6649 29.2308 59.9554 29.3505 60.0468 29.4383L62.454 31.8339C62.6826 32.0614 62.9815 32.1752 63.2805 32.1752C63.5813 32.1752 63.8823 32.06 64.1112 31.8298C64.5677 31.3711 64.5659 30.6291 64.1071 30.1725L61.6999 27.7769C61.172 27.2516 60.2832 26.8847 59.5384 26.8847H46.7695V22.0227H56.4423ZM64.5993 11.2873C65.5096 11.2873 66.2502 12.0217 66.2502 12.9242C66.2502 13.8269 65.5096 14.5614 64.5993 14.5614C63.689 14.5614 62.9485 13.827 62.9485 12.9242C62.9485 12.0217 63.689 11.2873 64.5993 11.2873ZM53.308 9.11266C54.2184 9.11266 54.959 9.84703 54.959 10.7497C54.959 11.6523 54.2184 12.3869 53.308 12.3869C52.3977 12.3869 51.6573 11.6525 51.6573 10.7497C51.6571 9.84703 52.3977 9.11266 53.308 9.11266ZM59.6823 71.453C60.5926 71.453 61.3332 72.1875 61.3332 73.0902C61.3332 73.9928 60.5926 74.7273 59.6823 74.7273C58.772 74.7273 58.0313 73.993 58.0313 73.0902C58.0313 72.1875 58.772 71.453 59.6823 71.453ZM60.7749 56.5928C61.6852 56.5928 62.4259 57.3272 62.4259 58.23C62.4259 59.1327 61.6852 59.8672 60.7749 59.8672C59.8646 59.8672 59.124 59.1328 59.124 58.23C59.124 57.3273 59.8646 56.5928 60.7749 56.5928ZM62.7782 46.3991C63.6885 46.3991 64.4291 47.1334 64.4291 48.0363C64.4291 48.9389 63.6885 49.6734 62.7782 49.6734C61.8679 49.6734 61.1273 48.9391 61.1273 48.0363C61.1273 47.1334 61.8679 46.3991 62.7782 46.3991ZM53.4902 35.5258C54.4006 35.5258 55.1412 36.2602 55.1412 37.163C55.1412 38.0655 54.4006 38.8 53.4902 38.8C52.5799 38.8 51.8393 38.0656 51.8393 37.163C51.8393 36.2602 52.5799 35.5258 53.4902 35.5258Z" fill="#DFB48F" />
    </g>
    <defs>
        <clipPath id="clip0_220_219">
            <rect width="80" height="80" fill="white" />
        </clipPath>
    </defs>
</svg>