<svg width="80" height="80" viewBox="0 0 80 80" fill="none" xmlns="http://www.w3.org/2000/svg">
<path d="M74.9038 43.8146L63.75 39.1658V35.8283C65.2853 34.9471 66.6148 33.7483 67.6495 32.312C68.6842 30.8756 69.4004 29.2349 69.75 27.4996H70C70.9946 27.5132 71.9538 27.1311 72.6667 26.4375C73.3795 25.7438 73.7877 24.7954 73.8013 23.8008C73.8149 22.8063 73.4328 21.847 72.7392 21.1342C72.0455 20.4213 71.0971 20.0132 70.1025 19.9996L71.3275 17.1596C72.3742 14.7328 72.4277 11.9923 71.4766 9.52647C70.5254 7.06065 68.6453 5.06604 66.24 3.97083L62.75 2.38333C60.6849 1.46647 58.4141 1.11212 56.1679 1.35624C53.9216 1.60036 51.7799 2.43425 49.96 3.77333L48.015 5.24083C46.0291 5.7523 44.3234 7.02306 43.265 8.77958C42.6805 9.74989 42.3158 10.8365 42.1966 11.963C42.0774 13.0895 42.2065 14.2284 42.575 15.2996C40.6879 14.9221 38.7403 14.9695 36.8738 15.4383C37.4081 13.1704 37.1385 10.7872 36.111 8.69597C35.0835 6.6047 33.3618 4.93501 31.24 3.97208L27.75 2.38333C25.6849 1.46647 23.4141 1.11212 21.1679 1.35624C18.9216 1.60036 16.7799 2.43425 14.96 3.77333L13.015 5.24083C11.8885 5.52869 10.8407 6.06515 9.94861 6.81083C9.0565 7.55652 8.34269 8.49251 7.85957 9.5501C7.37644 10.6077 7.13627 11.7601 7.15668 12.9226C7.17709 14.0851 7.45756 15.2283 7.97751 16.2683L9.84501 19.9996C8.85045 20.0201 7.90479 20.4349 7.21606 21.1527C6.52733 21.8705 6.15196 22.8325 6.17251 23.8271C6.19306 24.8216 6.60786 25.7673 7.32566 26.456C8.04346 27.1448 9.00545 27.5201 10 27.4996H10.25C10.601 29.2341 11.3178 30.8738 12.3524 32.3096C13.387 33.7453 14.7157 34.944 16.25 35.8258V39.1658L5.09626 43.8146C3.95606 44.2873 2.98186 45.0879 2.29713 46.1149C1.6124 47.1419 1.24797 48.349 1.25001 49.5833V66.2496C1.25001 66.5811 1.3817 66.899 1.61613 67.1335C1.85055 67.3679 2.16849 67.4996 2.50001 67.4996H11.25V77.4996C11.25 77.8311 11.3817 78.149 11.6161 78.3835C11.8505 78.6179 12.1685 78.7496 12.5 78.7496H67.5C67.8315 78.7496 68.1495 78.6179 68.3839 78.3835C68.6183 78.149 68.75 77.8311 68.75 77.4996V67.4996H77.5C77.8315 67.4996 78.1495 67.3679 78.3839 67.1335C78.6183 66.899 78.75 66.5811 78.75 66.2496V49.5833C78.7521 48.349 78.3876 47.1419 77.7029 46.1149C77.0182 45.0879 76.044 44.2873 74.9038 43.8146ZM44.2163 18.4083L47.705 19.9996C49.5146 20.8239 50.9289 22.3249 51.6442 24.1803C52.3596 26.0356 52.319 28.0975 51.5313 29.9233L51.1563 30.7796L49.875 28.1908C49.7933 28.026 49.6762 27.8812 49.5321 27.7668C49.388 27.6524 49.2204 27.5712 49.0413 27.5291C48.8622 27.4869 48.676 27.4848 48.496 27.523C48.316 27.5611 48.1467 27.6385 48 27.7496L46 29.2496C44.2691 30.5478 42.1637 31.2496 40 31.2496C37.8363 31.2496 35.731 30.5478 34 29.2496L32 27.7496C31.8541 27.6391 31.6854 27.5623 31.5062 27.5249C31.327 27.4875 31.1417 27.4904 30.9638 27.5333C30.7853 27.5752 30.6182 27.6558 30.4743 27.7694C30.3304 27.883 30.2133 28.0269 30.1313 28.1908L28.75 30.9633L27.7175 28.8996C27.3147 28.0939 27.1245 27.1986 27.1649 26.2988C27.2053 25.3989 27.475 24.5243 27.9483 23.7579C28.4217 22.9916 29.083 22.3589 29.8695 21.9199C30.6561 21.4809 31.5417 21.2501 32.4425 21.2496C33.4054 21.2487 34.3537 21.4859 35.2027 21.9402C36.0517 22.3945 36.7752 23.0517 37.3088 23.8533L37.7013 24.4433L39.7813 23.0558L39.3888 22.4671C38.2778 20.8025 36.6044 19.5937 34.675 19.0621C36.0929 18.187 37.7026 17.6702 39.3649 17.5563C41.0272 17.4424 42.6922 17.7348 44.2163 18.4083ZM52.5 36.2496H53.75C54.0815 36.2496 54.3995 36.3813 54.6339 36.6157C54.8683 36.8501 55 37.1681 55 37.4996C55 37.8311 54.8683 38.149 54.6339 38.3835C54.3995 38.6179 54.0815 38.7496 53.75 38.7496H52.5V36.2496ZM36.25 50.6733C38.691 51.4417 41.309 51.4417 43.75 50.6733V53.2321L40 56.9821L36.25 53.2321V50.6733ZM40 48.7496C37.3488 48.7466 34.807 47.6921 32.9322 45.8174C31.0575 43.9426 30.003 41.4008 30 38.7496V34.0446L31.6975 30.6483L32.5 31.2496C34.6637 32.8724 37.2954 33.7496 40 33.7496C42.7046 33.7496 45.3363 32.8724 47.5 31.2496L48.3025 30.6483L50 34.0446V38.7496C49.997 41.4008 48.9425 43.9426 47.0678 45.8174C45.1931 47.6921 42.6513 48.7466 40 48.7496ZM27.5 38.7496H26.25C25.9185 38.7496 25.6005 38.6179 25.3661 38.3835C25.1317 38.149 25 37.8311 25 37.4996C25 37.1681 25.1317 36.8501 25.3661 36.6157C25.6005 36.3813 25.9185 36.2496 26.25 36.2496H27.5V38.7496ZM11.25 63.7996V64.9996H3.75001V49.5833C3.74956 48.8433 3.96853 48.1197 4.37925 47.504C4.78997 46.8884 5.374 46.4083 6.05751 46.1246L17.9813 41.1571C18.2095 41.0618 18.4044 40.901 18.5413 40.695C18.6781 40.4889 18.7508 40.2469 18.75 39.9996V35.0796C18.7434 34.8428 18.6726 34.6122 18.5451 34.4125C18.4176 34.2128 18.2383 34.0515 18.0263 33.9458C16.5319 33.2025 15.2484 32.0956 14.2934 30.7268C13.3385 29.358 12.7429 27.7712 12.5613 26.1121C12.5274 25.8062 12.3819 25.5236 12.1527 25.3183C11.9234 25.113 11.6265 24.9996 11.3188 24.9996H10C9.66849 24.9996 9.35055 24.8679 9.11613 24.6335C8.88171 24.399 8.75001 24.0811 8.75001 23.7496C8.75001 23.4181 8.88171 23.1001 9.11613 22.8657C9.35055 22.6313 9.66849 22.4996 10 22.4996H11.25C11.4149 22.4996 11.5782 22.467 11.7304 22.4036C11.8826 22.3402 12.0208 22.2474 12.137 22.1304C12.2532 22.0134 12.3451 21.8745 12.4074 21.7219C12.4697 21.5692 12.5012 21.4057 12.5 21.2408L12.4913 19.9908C12.4901 19.7999 12.4452 19.6117 12.36 19.4408L10.2138 15.1496C9.85424 14.4291 9.66409 13.636 9.65783 12.8309C9.65156 12.0257 9.82935 11.2298 10.1776 10.5038C10.5259 9.77786 11.0354 9.14107 11.6673 8.64207C12.2993 8.14307 13.0368 7.79505 13.8238 7.62458C14.0007 7.58539 14.1672 7.50913 14.3125 7.40083L16.4625 5.77583C17.9214 4.70353 19.6378 4.03588 21.4378 3.84051C23.2378 3.64515 25.0575 3.929 26.7125 4.66333L30.205 6.24958C32.0146 7.07393 33.4289 8.57489 34.1442 10.4303C34.8596 12.2856 34.819 14.3475 34.0313 16.1733L33.8288 16.6421C33.3541 16.9049 32.8977 17.1993 32.4625 17.5233L30.4913 18.9996C29.367 19.2884 28.3217 19.8252 27.432 20.5707C26.5423 21.3162 25.8307 22.2514 25.3496 23.3077C24.8684 24.364 24.6298 25.5147 24.6513 26.6752C24.6728 27.8358 24.9538 28.9768 25.4738 30.0146L27.3438 33.7496H26.25C25.2554 33.7496 24.3016 34.1447 23.5984 34.8479C22.8951 35.5512 22.5 36.505 22.5 37.4996C22.5 38.4941 22.8951 39.448 23.5984 40.1512C24.3016 40.8545 25.2554 41.2496 26.25 41.2496H27.75C28.108 42.9792 28.8276 44.6135 29.8617 46.0454C30.8957 47.4774 32.2208 48.6745 33.75 49.5583V52.7996L15.8275 57.7783C14.5128 58.1465 13.3543 58.9338 12.5281 60.0206C11.7018 61.1074 11.2531 62.4343 11.25 63.7996ZM66.25 76.2496H58.75V66.2496H56.25V76.2496H23.75V66.2496H21.25V76.2496H13.75V63.7996C13.7518 62.98 14.0215 62.1834 14.518 61.5312C15.0144 60.8791 15.7105 60.407 16.5 60.1871L34.6363 55.1496L39.12 59.6333C39.3544 59.8677 39.6723 59.9993 40.0038 59.9993C40.3352 59.9993 40.6531 59.8677 40.8875 59.6333L45.3713 55.1496L63.5 60.1871C64.2896 60.407 64.9856 60.8791 65.4821 61.5312C65.9785 62.1834 66.2482 62.98 66.25 63.7996V76.2496ZM76.25 64.9996H68.75V63.7996C68.7469 62.4343 68.2982 61.1074 67.4719 60.0206C66.6457 58.9338 65.4872 58.1465 64.1725 57.7783L46.25 52.7996V49.5583C47.7792 48.6745 49.1043 47.4774 50.1384 46.0454C51.1724 44.6135 51.892 42.9792 52.25 41.2496H53.75C54.7446 41.2496 55.6984 40.8545 56.4017 40.1512C57.1049 39.448 57.5 38.4941 57.5 37.4996C57.5 36.505 57.1049 35.5512 56.4017 34.8479C55.6984 34.1447 54.7446 33.7496 53.75 33.7496H52.6025L53.8275 30.9108C54.8742 28.484 54.9277 25.7435 53.9766 23.2777C53.0254 20.8119 51.1453 18.8173 48.74 17.7221L45.84 16.4008L45.215 15.1508C44.8552 14.4304 44.6649 13.6373 44.6584 12.8321C44.6519 12.0268 44.8296 11.2308 45.1777 10.5047C45.5259 9.77855 46.0354 9.1416 46.6673 8.64245C47.2992 8.1433 48.0368 7.79515 48.8238 7.62458C49.0007 7.58539 49.1673 7.50913 49.3125 7.40083L51.4625 5.77583C52.9214 4.70353 54.6378 4.03588 56.4378 3.84051C58.2379 3.64515 60.0575 3.929 61.7125 4.66333L65.205 6.24958C67.0146 7.07393 68.4289 8.57489 69.1442 10.4303C69.8596 12.2856 69.819 14.3475 69.0313 16.1733L67.5938 19.4996C67.5256 19.6574 67.4907 19.8276 67.4913 19.9996L67.5 21.2496C67.5 21.5811 67.6317 21.899 67.8661 22.1335C68.1006 22.3679 68.4185 22.4996 68.75 22.4996H70C70.3315 22.4996 70.6495 22.6313 70.8839 22.8657C71.1183 23.1001 71.25 23.4181 71.25 23.7496C71.25 24.0811 71.1183 24.399 70.8839 24.6335C70.6495 24.8679 70.3315 24.9996 70 24.9996H68.6813C68.3735 24.9996 68.0766 25.113 67.8474 25.3183C67.6181 25.5236 67.4726 25.8062 67.4388 26.1121C67.2565 27.7775 66.6569 29.3699 65.6954 30.7419C64.734 32.1139 63.4419 33.221 61.9388 33.9608C61.7305 34.0643 61.5552 34.2238 61.4327 34.4215C61.3101 34.6191 61.2451 34.847 61.245 35.0796V39.9996C61.245 40.2463 61.318 40.4875 61.4548 40.6928C61.5916 40.8981 61.7861 41.0583 62.0138 41.1533L73.9425 46.1246C74.626 46.4083 75.2101 46.8884 75.6208 47.504C76.0315 48.1197 76.2505 48.8433 76.25 49.5833V64.9996Z" fill="#DFB48F"/>
<mask id="mask0_220_213" style="mask-type:alpha" maskUnits="userSpaceOnUse" x="1" y="1" width="78" height="78">
<path d="M74.9038 43.8146L63.75 39.1658V35.8283C65.2853 34.9471 66.6148 33.7483 67.6495 32.312C68.6842 30.8756 69.4004 29.2349 69.75 27.4996H70C70.9946 27.5132 71.9538 27.1311 72.6667 26.4375C73.3795 25.7438 73.7877 24.7954 73.8013 23.8008C73.8149 22.8063 73.4328 21.847 72.7392 21.1342C72.0455 20.4213 71.0971 20.0132 70.1025 19.9996L71.3275 17.1596C72.3742 14.7328 72.4277 11.9923 71.4766 9.52647C70.5254 7.06065 68.6453 5.06604 66.24 3.97083L62.75 2.38333C60.6849 1.46647 58.4141 1.11212 56.1679 1.35624C53.9216 1.60036 51.7799 2.43425 49.96 3.77333L48.015 5.24083C46.0291 5.7523 44.3234 7.02306 43.265 8.77958C42.6805 9.74989 42.3158 10.8365 42.1966 11.963C42.0774 13.0895 42.2065 14.2284 42.575 15.2996C40.6879 14.9221 38.7403 14.9695 36.8738 15.4383C37.4081 13.1704 37.1385 10.7872 36.111 8.69597C35.0835 6.6047 33.3618 4.93501 31.24 3.97208L27.75 2.38333C25.6849 1.46647 23.4141 1.11212 21.1679 1.35624C18.9216 1.60036 16.7799 2.43425 14.96 3.77333L13.015 5.24083C11.8885 5.52869 10.8407 6.06515 9.94861 6.81083C9.0565 7.55652 8.34269 8.49251 7.85957 9.5501C7.37644 10.6077 7.13627 11.7601 7.15668 12.9226C7.17709 14.0851 7.45756 15.2283 7.97751 16.2683L9.84501 19.9996C8.85045 20.0201 7.90479 20.4349 7.21606 21.1527C6.52733 21.8705 6.15196 22.8325 6.17251 23.8271C6.19306 24.8216 6.60786 25.7673 7.32566 26.456C8.04346 27.1448 9.00545 27.5201 10 27.4996H10.25C10.601 29.2341 11.3178 30.8738 12.3524 32.3096C13.387 33.7453 14.7157 34.944 16.25 35.8258V39.1658L5.09626 43.8146C3.95606 44.2873 2.98186 45.0879 2.29713 46.1149C1.6124 47.1419 1.24797 48.349 1.25001 49.5833V66.2496C1.25001 66.5811 1.3817 66.899 1.61613 67.1335C1.85055 67.3679 2.16849 67.4996 2.50001 67.4996H11.25V77.4996C11.25 77.8311 11.3817 78.149 11.6161 78.3835C11.8505 78.6179 12.1685 78.7496 12.5 78.7496H67.5C67.8315 78.7496 68.1495 78.6179 68.3839 78.3835C68.6183 78.149 68.75 77.8311 68.75 77.4996V67.4996H77.5C77.8315 67.4996 78.1495 67.3679 78.3839 67.1335C78.6183 66.899 78.75 66.5811 78.75 66.2496V49.5833C78.7521 48.349 78.3876 47.1419 77.7029 46.1149C77.0182 45.0879 76.044 44.2873 74.9038 43.8146ZM44.2163 18.4083L47.705 19.9996C49.5146 20.8239 50.9289 22.3249 51.6442 24.1803C52.3596 26.0356 52.319 28.0975 51.5313 29.9233L51.1563 30.7796L49.875 28.1908C49.7933 28.026 49.6762 27.8812 49.5321 27.7668C49.388 27.6524 49.2204 27.5712 49.0413 27.5291C48.8622 27.4869 48.676 27.4848 48.496 27.523C48.316 27.5611 48.1467 27.6385 48 27.7496L46 29.2496C44.2691 30.5478 42.1637 31.2496 40 31.2496C37.8363 31.2496 35.731 30.5478 34 29.2496L32 27.7496C31.8541 27.6391 31.6854 27.5623 31.5062 27.5249C31.327 27.4875 31.1417 27.4904 30.9638 27.5333C30.7853 27.5752 30.6182 27.6558 30.4743 27.7694C30.3304 27.883 30.2133 28.0269 30.1313 28.1908L28.75 30.9633L27.7175 28.8996C27.3147 28.0939 27.1245 27.1986 27.1649 26.2988C27.2053 25.3989 27.475 24.5243 27.9483 23.7579C28.4217 22.9916 29.083 22.3589 29.8695 21.9199C30.6561 21.4809 31.5417 21.2501 32.4425 21.2496C33.4054 21.2487 34.3537 21.4859 35.2027 21.9402C36.0517 22.3945 36.7752 23.0517 37.3088 23.8533L37.7013 24.4433L39.7813 23.0558L39.3888 22.4671C38.2778 20.8025 36.6044 19.5937 34.675 19.0621C36.0929 18.187 37.7026 17.6702 39.3649 17.5563C41.0272 17.4424 42.6922 17.7348 44.2163 18.4083ZM52.5 36.2496H53.75C54.0815 36.2496 54.3995 36.3813 54.6339 36.6157C54.8683 36.8501 55 37.1681 55 37.4996C55 37.8311 54.8683 38.149 54.6339 38.3835C54.3995 38.6179 54.0815 38.7496 53.75 38.7496H52.5V36.2496ZM36.25 50.6733C38.691 51.4417 41.309 51.4417 43.75 50.6733V53.2321L40 56.9821L36.25 53.2321V50.6733ZM40 48.7496C37.3488 48.7466 34.807 47.6921 32.9322 45.8174C31.0575 43.9426 30.003 41.4008 30 38.7496V34.0446L31.6975 30.6483L32.5 31.2496C34.6637 32.8724 37.2954 33.7496 40 33.7496C42.7046 33.7496 45.3363 32.8724 47.5 31.2496L48.3025 30.6483L50 34.0446V38.7496C49.997 41.4008 48.9425 43.9426 47.0678 45.8174C45.1931 47.6921 42.6513 48.7466 40 48.7496ZM27.5 38.7496H26.25C25.9185 38.7496 25.6005 38.6179 25.3661 38.3835C25.1317 38.149 25 37.8311 25 37.4996C25 37.1681 25.1317 36.8501 25.3661 36.6157C25.6005 36.3813 25.9185 36.2496 26.25 36.2496H27.5V38.7496ZM11.25 63.7996V64.9996H3.75001V49.5833C3.74956 48.8433 3.96853 48.1197 4.37925 47.504C4.78997 46.8884 5.374 46.4083 6.05751 46.1246L17.9813 41.1571C18.2095 41.0618 18.4044 40.901 18.5413 40.695C18.6781 40.4889 18.7508 40.2469 18.75 39.9996V35.0796C18.7434 34.8428 18.6726 34.6122 18.5451 34.4125C18.4176 34.2128 18.2383 34.0515 18.0263 33.9458C16.5319 33.2025 15.2484 32.0956 14.2934 30.7268C13.3385 29.358 12.7429 27.7712 12.5613 26.1121C12.5274 25.8062 12.3819 25.5236 12.1527 25.3183C11.9234 25.113 11.6265 24.9996 11.3188 24.9996H10C9.66849 24.9996 9.35055 24.8679 9.11613 24.6335C8.88171 24.399 8.75001 24.0811 8.75001 23.7496C8.75001 23.4181 8.88171 23.1001 9.11613 22.8657C9.35055 22.6313 9.66849 22.4996 10 22.4996H11.25C11.4149 22.4996 11.5782 22.467 11.7304 22.4036C11.8826 22.3402 12.0208 22.2474 12.137 22.1304C12.2532 22.0134 12.3451 21.8745 12.4074 21.7219C12.4697 21.5692 12.5012 21.4057 12.5 21.2408L12.4913 19.9908C12.4901 19.7999 12.4452 19.6117 12.36 19.4408L10.2138 15.1496C9.85424 14.4291 9.66409 13.636 9.65783 12.8309C9.65156 12.0257 9.82935 11.2298 10.1776 10.5038C10.5259 9.77786 11.0354 9.14107 11.6673 8.64207C12.2993 8.14307 13.0368 7.79505 13.8238 7.62458C14.0007 7.58539 14.1672 7.50913 14.3125 7.40083L16.4625 5.77583C17.9214 4.70353 19.6378 4.03588 21.4378 3.84051C23.2378 3.64515 25.0575 3.929 26.7125 4.66333L30.205 6.24958C32.0146 7.07393 33.4289 8.57489 34.1442 10.4303C34.8596 12.2856 34.819 14.3475 34.0313 16.1733L33.8288 16.6421C33.3541 16.9049 32.8977 17.1993 32.4625 17.5233L30.4913 18.9996C29.367 19.2884 28.3217 19.8252 27.432 20.5707C26.5423 21.3162 25.8307 22.2514 25.3496 23.3077C24.8684 24.364 24.6298 25.5147 24.6513 26.6752C24.6728 27.8358 24.9538 28.9768 25.4738 30.0146L27.3438 33.7496H26.25C25.2554 33.7496 24.3016 34.1447 23.5984 34.8479C22.8951 35.5512 22.5 36.505 22.5 37.4996C22.5 38.4941 22.8951 39.448 23.5984 40.1512C24.3016 40.8545 25.2554 41.2496 26.25 41.2496H27.75C28.108 42.9792 28.8276 44.6135 29.8617 46.0454C30.8957 47.4774 32.2208 48.6745 33.75 49.5583V52.7996L15.8275 57.7783C14.5128 58.1465 13.3543 58.9338 12.5281 60.0206C11.7018 61.1074 11.2531 62.4343 11.25 63.7996ZM66.25 76.2496H58.75V66.2496H56.25V76.2496H23.75V66.2496H21.25V76.2496H13.75V63.7996C13.7518 62.98 14.0215 62.1834 14.518 61.5312C15.0144 60.8791 15.7105 60.407 16.5 60.1871L34.6363 55.1496L39.12 59.6333C39.3544 59.8677 39.6723 59.9993 40.0038 59.9993C40.3352 59.9993 40.6531 59.8677 40.8875 59.6333L45.3713 55.1496L63.5 60.1871C64.2896 60.407 64.9856 60.8791 65.4821 61.5312C65.9785 62.1834 66.2482 62.98 66.25 63.7996V76.2496ZM76.25 64.9996H68.75V63.7996C68.7469 62.4343 68.2982 61.1074 67.4719 60.0206C66.6457 58.9338 65.4872 58.1465 64.1725 57.7783L46.25 52.7996V49.5583C47.7792 48.6745 49.1043 47.4774 50.1384 46.0454C51.1724 44.6135 51.892 42.9792 52.25 41.2496H53.75C54.7446 41.2496 55.6984 40.8545 56.4017 40.1512C57.1049 39.448 57.5 38.4941 57.5 37.4996C57.5 36.505 57.1049 35.5512 56.4017 34.8479C55.6984 34.1447 54.7446 33.7496 53.75 33.7496H52.6025L53.8275 30.9108C54.8742 28.484 54.9277 25.7435 53.9766 23.2777C53.0254 20.8119 51.1453 18.8173 48.74 17.7221L45.84 16.4008L45.215 15.1508C44.8552 14.4304 44.6649 13.6373 44.6584 12.8321C44.6519 12.0268 44.8296 11.2308 45.1777 10.5047C45.5259 9.77855 46.0354 9.1416 46.6673 8.64245C47.2992 8.1433 48.0368 7.79515 48.8238 7.62458C49.0007 7.58539 49.1673 7.50913 49.3125 7.40083L51.4625 5.77583C52.9214 4.70353 54.6378 4.03588 56.4378 3.84051C58.2379 3.64515 60.0575 3.929 61.7125 4.66333L65.205 6.24958C67.0146 7.07393 68.4289 8.57489 69.1442 10.4303C69.8596 12.2856 69.819 14.3475 69.0313 16.1733L67.5938 19.4996C67.5256 19.6574 67.4907 19.8276 67.4913 19.9996L67.5 21.2496C67.5 21.5811 67.6317 21.899 67.8661 22.1335C68.1006 22.3679 68.4185 22.4996 68.75 22.4996H70C70.3315 22.4996 70.6495 22.6313 70.8839 22.8657C71.1183 23.1001 71.25 23.4181 71.25 23.7496C71.25 24.0811 71.1183 24.399 70.8839 24.6335C70.6495 24.8679 70.3315 24.9996 70 24.9996H68.6813C68.3735 24.9996 68.0766 25.113 67.8474 25.3183C67.6181 25.5236 67.4726 25.8062 67.4388 26.1121C67.2565 27.7775 66.6569 29.3699 65.6954 30.7419C64.734 32.1139 63.4419 33.221 61.9388 33.9608C61.7305 34.0643 61.5552 34.2238 61.4327 34.4215C61.3101 34.6191 61.2451 34.847 61.245 35.0796V39.9996C61.245 40.2463 61.318 40.4875 61.4548 40.6928C61.5916 40.8981 61.7861 41.0583 62.0138 41.1533L73.9425 46.1246C74.626 46.4083 75.2101 46.8884 75.6208 47.504C76.0315 48.1197 76.2505 48.8433 76.25 49.5833V64.9996Z" fill="#EB0E54"/>
</mask>
<g mask="url(#mask0_220_213)">
<path d="M69 64V71.5H83V-2H-5.00006C-9.80006 -2 -7.00006 46.3333 -5.00006 70.5L10.9999 71.5V61L19.4999 51.5L21.4999 22.5L29.9999 18L39.5 14.5L46.5 16.5L55.9999 21L58.9999 43L69 55.5V64Z" fill="white"/>
</g>
</svg>
