<svg width="80" height="80" viewBox="0 0 80 80" fill="none" xmlns="http://www.w3.org/2000/svg">
  <path d="M73.8819 36.1013H71.2824V15.3017C71.2824 14.5832 70.7001 14.0018 69.9822 14.0018H62.1082L59.5231 5.81176C59.4146 5.46993 59.1708 5.18838 58.8495 5.03229C58.5269 4.87587 58.1544 4.86055 57.8194 4.98797L47.2329 9.02255L42.4778 1.60121C42.2908 1.3089 41.9946 1.10295 41.6547 1.03094C41.3158 0.954684 40.9596 1.02084 40.6712 1.21342L21.1533 14.0018H10.1836C5.16061 14.0074 1.09018 18.0785 1.08398 23.1014V69.9001C1.09018 74.9231 5.16061 78.9942 10.1836 79H69.9822C70.7001 79 71.2824 78.4177 71.2824 77.6998V62.1001H73.8819C76.7541 62.1001 79.0821 59.7721 79.0821 56.9009V41.3012C79.0821 38.4287 76.7541 36.1013 73.8819 36.1013ZM73.8819 38.7011C75.318 38.7011 76.482 39.8644 76.482 41.3012C76.482 42.737 75.318 43.9007 73.8819 43.9007H71.2824V38.7011H73.8819ZM68.682 16.6019V29.6012H67.0354L62.93 16.6019H68.682ZM64.3098 29.6012H60.5202L56.9161 18.7905C56.7395 18.2596 56.2426 17.9009 55.6827 17.9012C54.3623 17.9054 53.0947 17.3808 52.1637 16.4446L51.4015 15.6823C51.043 15.3236 50.5079 15.2059 50.0315 15.3819L11.5698 29.6012H10.1836C8.45026 29.6009 6.78898 28.9068 5.57186 27.673L57.459 7.91395L64.3098 29.6012ZM57.78 29.6012H19.0654L50.153 18.1091L50.3251 18.2825C51.5096 19.4735 53.0591 20.2341 54.726 20.441L57.78 29.6012ZM40.9932 4.11008L44.7459 9.97149L14.426 21.518L40.9932 4.11008ZM10.1836 16.6019H17.1845L4.06275 25.199C3.82063 24.5261 3.69224 23.8167 3.68409 23.1014C3.68866 19.5136 6.59606 16.6055 10.1836 16.6019ZM68.682 76.3996H10.1836C6.59606 76.3954 3.68866 73.4876 3.68409 69.9001V29.4712C3.69648 29.4826 3.70984 29.4933 3.72157 29.5064C3.82324 29.6077 3.93078 29.7009 4.03669 29.7974C4.14162 29.8935 4.25469 30.0036 4.37038 30.1001C4.48638 30.1966 4.59816 30.2741 4.71221 30.3601C4.82659 30.4462 4.94912 30.5446 5.0736 30.6313C5.19841 30.7163 5.31931 30.7825 5.44183 30.8584C5.56436 30.934 5.69471 31.0194 5.83157 31.0924C5.96844 31.1647 6.09813 31.2221 6.23207 31.2885C6.366 31.3544 6.49244 31.4186 6.62995 31.4808C6.7678 31.543 6.92552 31.5913 7.07313 31.6444C7.22141 31.6978 7.33318 31.7487 7.47004 31.7897C7.6333 31.8422 7.80178 31.879 7.9696 31.9201C8.09995 31.951 8.21856 31.9908 8.34565 32.0165C8.53694 32.0566 8.73572 32.0798 8.92961 32.1075C9.03845 32.1221 9.14436 32.1449 9.25483 32.1567C9.5631 32.1873 9.87333 32.202 10.1836 32.2016H11.8745L11.8931 32.2512L12.0322 32.2016H68.682V43.9007H54.3825C49.3576 43.9007 45.2829 47.9747 45.2829 53.0006C45.2829 58.0261 49.3576 62.1001 54.3825 62.1001H68.682V76.3996ZM76.482 56.9009C76.482 58.3367 75.318 59.5003 73.8819 59.5003H54.3825C50.7931 59.5003 47.883 56.5903 47.883 53.0006C47.883 49.4105 50.7931 46.5011 54.3825 46.5011H73.8819C74.196 46.4978 74.5075 46.4659 74.8158 46.4059C74.8895 46.3932 74.9628 46.3786 75.0354 46.361C75.3294 46.2974 75.6174 46.2075 75.8957 46.0941L75.9401 46.0729C76.1261 45.994 76.3067 45.9028 76.482 45.8028V56.9009Z" fill="#DFB48F" />
  <path d="M29.127 36.1016H34.3272V38.7013H29.127V36.1016Z" fill="white" />
  <path d="M18.7275 36.1016H23.9271V38.7013H18.7275V36.1016Z" fill="white" />
  <path d="M60.3262 36.1016H64.7818V38.7013H60.3262V36.1016Z" fill="white" />
  <path d="M49.9268 36.1016H55.1263V38.7013H49.9268V36.1016Z" fill="white" />
  <path d="M8.64941 35.918L8.04102 38.4399C8.74294 38.6096 9.46181 38.6973 10.1833 38.6999H13.527V36.1001H10.1833C9.6671 36.0988 9.15223 36.0379 8.64941 35.918Z" fill="white" />
  <path d="M39.5264 36.1016H44.7263V38.7013H39.5264V36.1016Z" fill="white" />
  <path d="M8.64941 69.7188L8.04102 72.2403C8.74294 72.4104 9.46181 72.4984 10.1833 72.501H13.527V69.9009H10.1833C9.6671 69.8993 9.15223 69.8393 8.64941 69.7188Z" fill="white" />
  <path d="M60.3262 69.8984H64.7818V72.4985H60.3262V69.8984Z" fill="white" />
  <path d="M29.127 69.8984H34.3272V72.4985H29.127V69.8984Z" fill="white" />
  <path d="M49.9268 69.8984H55.1263V72.4985H49.9268V69.8984Z" fill="white" />
  <path d="M18.7275 69.8984H23.9271V72.4985H18.7275V69.8984Z" fill="white" />
  <path d="M39.5264 69.8984H44.7263V72.4985H39.5264V69.8984Z" fill="white" />
  <path d="M54.3824 49.1016C52.2288 49.1016 50.4824 50.8472 50.4824 53.0012C50.4824 55.1546 52.2288 56.9016 54.3824 56.9016C56.5361 56.9016 58.2821 55.1546 58.2821 53.0012C58.2821 50.8472 56.5361 49.1016 54.3824 49.1016ZM54.3824 54.3015C53.6649 54.3015 53.0825 53.7191 53.0825 53.0012C53.0825 52.283 53.6649 51.7013 54.3824 51.7013C55.1003 51.7013 55.6826 52.283 55.6826 53.0012C55.6826 53.7191 55.1003 54.3015 54.3824 54.3015Z" fill="white" />
</svg>