<svg width="81" height="81" viewBox="0 0 81 81" fill="none" xmlns="http://www.w3.org/2000/svg">
<g clip-path="url(#clip0_1226_3320)">
<path d="M58.1849 57.2441L50.4929 64.7644L46.6745 61.0332C46.1604 60.5306 45.3294 60.5306 44.8153 61.0332C44.3012 61.5358 44.3012 62.3481 44.8153 62.8506L49.5633 67.4906C49.8197 67.7412 50.1563 67.8672 50.4929 67.8672C50.8295 67.8672 51.1661 67.7412 51.4225 67.4906L60.0441 59.0615C60.5582 58.559 60.5582 57.7467 60.0441 57.2441C59.53 56.7415 58.699 56.7415 58.1849 57.2441Z" fill="white"/>
<path d="M69.1108 50.9769C67.343 50.9769 66.0228 50.5108 65.1843 49.5904C63.8535 48.1316 64.0418 45.9064 64.0431 45.8906C64.0813 45.5193 63.9615 45.1506 63.7114 44.8741C63.4626 44.5976 63.1072 44.4396 62.7347 44.4396H55.9282V2.18385C55.9282 1.45574 55.3385 0.867188 54.6119 0.867188H15.8895C15.8632 0.867188 15.8395 0.880354 15.8132 0.882988C15.6974 0.889571 15.5868 0.911954 15.4775 0.948821C15.4512 0.958038 15.4223 0.955404 15.3972 0.965938C15.3775 0.973838 15.3617 0.988321 15.3433 0.997537C15.2235 1.05415 15.1116 1.12657 15.0103 1.22005C14.9945 1.23454 14.9747 1.2398 14.9589 1.25429L9.30154 6.91859L0.810206 15.4124C0.69569 15.527 0.615397 15.6613 0.550899 15.8035C0.531155 15.8469 0.519308 15.889 0.504829 15.9338C0.469289 16.0391 0.449545 16.1471 0.441647 16.2577C0.439015 16.2946 0.428485 16.3288 0.429801 16.3657V73.0521C0.429801 73.7802 1.0195 74.3688 1.74608 74.3688H41.4794C44.4305 77.1733 48.1161 79.0219 52.4638 79.8435C52.544 79.8593 52.627 79.8672 52.7086 79.8672C52.7902 79.8672 52.8731 79.8593 52.9547 79.8435C58.2699 78.8336 62.5754 76.3346 65.749 72.4162C68.7593 68.7177 70.4178 63.9368 70.4178 58.9533L70.4297 52.2936C70.4297 51.9433 70.2928 51.6076 70.0453 51.3614C69.7979 51.1138 69.4635 50.9743 69.1134 50.9743L69.1108 50.9769ZM12.2118 7.72965L14.5772 5.3636V15.0266H4.92359L12.2105 7.73097L12.2118 7.72965ZM3.06105 71.7355V17.6586H15.8948C16.6214 17.6586 17.2111 17.0701 17.2111 16.342V3.50052H53.2956V44.4396H42.6785C42.3086 44.4396 41.9559 44.599 41.7071 44.8715C41.5083 45.0888 41.4175 45.3705 41.3938 45.6615H11.0772C10.3506 45.6615 9.76093 46.2501 9.76093 46.9782C9.76093 47.7063 10.3506 48.2948 11.0772 48.2948H40.9976C40.8252 48.7451 40.5817 49.1968 40.2197 49.5931C39.3812 50.5108 38.0623 50.9769 36.2998 50.9769C35.5732 50.9769 34.9835 51.5654 34.9835 52.2936V54.8005H11.0772C10.3506 54.8005 9.76093 55.389 9.76093 56.1172C9.76093 56.8453 10.3506 57.4338 11.0772 57.4338H34.9848V58.9559C34.9862 59.5616 35.0138 60.1633 35.0638 60.761C35.0796 60.9546 35.1112 61.1442 35.1323 61.3377C35.1757 61.7393 35.2191 62.1422 35.285 62.5385C35.3231 62.7676 35.3758 62.9928 35.4205 63.2206C35.4903 63.5748 35.5574 63.9289 35.6443 64.2765C35.7048 64.5188 35.7786 64.7558 35.847 64.9954C35.9405 65.322 36.0313 65.6472 36.1392 65.9671C36.2221 66.212 36.3156 66.4517 36.4064 66.6926C36.5209 66.9981 36.6368 67.3022 36.7645 67.6011C36.8684 67.8434 36.983 68.0804 37.0962 68.3187C37.2317 68.6057 37.3699 68.8901 37.5187 69.1693C37.6437 69.405 37.7767 69.6354 37.9109 69.8658C38.0689 70.137 38.2295 70.4043 38.3993 70.6663C38.5441 70.8902 38.6954 71.11 38.8481 71.3286C38.9416 71.4629 39.0258 71.6038 39.1232 71.7341L3.06105 71.7355ZM67.7826 58.9519C67.7826 63.3325 66.3347 67.5248 63.7035 70.7559C60.9788 74.1199 57.28 76.2898 52.7059 77.2088C48.7953 76.4254 45.5059 74.7151 42.9247 72.1212C42.4798 71.6762 42.0678 71.218 41.6966 70.7559C39.0772 67.5261 37.6293 63.3325 37.6174 58.9519V53.5365C39.5379 53.3127 41.0713 52.578 42.1862 51.3456C43.438 49.9604 43.8434 48.2593 43.9645 47.073H61.4474C61.5658 48.258 61.9699 49.9565 63.2178 51.3416C64.3327 52.5766 65.8675 53.3113 67.7932 53.5365L67.7826 58.9519Z" fill="#DFB48F"/>
<path d="M10.7522 30.8672H45.1072C45.8372 30.8672 46.4297 30.4202 46.4297 29.8672C46.4297 29.3142 45.8372 28.8672 45.1072 28.8672H10.7522C10.0222 28.8672 9.42969 29.3142 9.42969 29.8672C9.42969 30.4202 10.0222 30.8672 10.7522 30.8672Z" fill="white"/>
<path d="M10.7522 41.8672H45.1072C45.8372 41.8672 46.4297 40.9732 46.4297 39.8672C46.4297 38.7612 45.8372 37.8672 45.1072 37.8672H10.7522C10.0222 37.8672 9.42969 38.7612 9.42969 39.8672C9.42969 40.9732 10.0222 41.8672 10.7522 41.8672Z" fill="white"/>
<path d="M28.7358 11.8672H45.1236C45.8445 11.8672 46.4297 11.1967 46.4297 10.3672C46.4297 9.53769 45.8445 8.86719 45.1236 8.86719H28.7358C28.0148 8.86719 27.4297 9.53769 27.4297 10.3672C27.4297 11.1967 28.0148 11.8672 28.7358 11.8672Z" fill="#DFB48F"/>
<path d="M28.7358 18.8672H45.1236C45.8445 18.8672 46.4297 18.1967 46.4297 17.3672C46.4297 16.5377 45.8445 15.8672 45.1236 15.8672H28.7358C28.0148 15.8672 27.4297 16.5377 27.4297 17.3672C27.4297 18.1967 28.0148 18.8672 28.7358 18.8672Z" fill="#DFB48F"/>
</g>
<defs>
<clipPath id="clip0_1226_3320">
<rect width="80" height="80" fill="white" transform="translate(0.429688 0.367188)"/>
</clipPath>
</defs>
</svg>
