<svg width="81" height="81" viewBox="0 0 81 81" fill="none" xmlns="http://www.w3.org/2000/svg">
<g clip-path="url(#clip0_1226_3330)">
<path d="M12.2637 47.9678H42.6924C43.7658 47.9678 44.6367 48.8377 44.6367 49.9111C44.6367 50.9846 43.7658 51.8545 42.6924 51.8545H12.2637C11.1902 51.8545 10.3203 50.9846 10.3203 49.9111C10.3203 48.8377 11.1902 47.9678 12.2637 47.9678Z" fill="white" stroke="#9F0033" stroke-width="0.8"/>
<path d="M12.2637 37.6172H34.7285C35.802 37.6172 36.6729 38.4871 36.6729 39.5605C36.6729 40.634 35.802 41.5039 34.7285 41.5039H12.2637C11.1902 41.5039 10.3203 40.634 10.3203 39.5605C10.3203 38.4871 11.1902 37.6172 12.2637 37.6172Z" fill="#DFB48F" stroke="#9F0033" stroke-width="0.8"/>
<path d="M12.2637 27.2656H32.8193C33.8928 27.2656 34.7637 28.1355 34.7637 29.209C34.7637 30.2824 33.8928 31.1523 32.8193 31.1523H12.2637C11.1902 31.1523 10.3203 30.2824 10.3203 29.209C10.3203 28.1355 11.1902 27.2656 12.2637 27.2656Z" fill="white" stroke="#9F0033" stroke-width="0.8"/>
<path d="M12.2637 16.915H36.625C37.6984 16.9152 38.5684 17.785 38.5684 18.8584C38.5684 19.9318 37.6984 20.8016 36.625 20.8018H12.2637C11.1902 20.8018 10.3203 19.9319 10.3203 18.8584C10.3203 17.7849 11.1902 16.915 12.2637 16.915Z" fill="#DFB48F" stroke="#9F0033" stroke-width="0.8"/>
<path d="M12.2637 58.3193H30.1045C31.1779 58.3193 32.0488 59.1892 32.0488 60.2627C32.0488 61.3362 31.178 62.2061 30.1045 62.2061H12.2637C11.1902 62.2061 10.3203 61.3362 10.3203 60.2627C10.3203 59.1892 11.1902 58.3193 12.2637 58.3193Z" fill="#DFB48F" stroke="#9F0033" stroke-width="0.8"/>
<path d="M7.46094 0.767578H51.4902C55.1459 0.767578 58.1221 3.74279 58.1221 7.39844V15.1787L58.4658 15.2275C61.659 15.6819 64.6228 17.0844 67.0225 19.3008L67.4951 19.7549C73.9526 26.209 73.7501 36.8016 66.8623 42.9863L66.5488 43.2686L66.8467 43.5674L79.46 56.1807C80.2192 56.9396 80.2192 58.1698 79.46 58.9287C78.7009 59.6878 77.471 59.6877 76.7119 58.9287L63.4238 45.6416L63.2256 45.4434L62.9717 45.5625C61.5313 46.236 60.0114 46.6863 58.4648 46.9072L58.1221 46.9561V58.6777C58.1221 60.4498 57.4328 62.1141 56.1797 63.3672L41.5215 78.0254C40.2685 79.2782 38.6048 79.9667 36.833 79.9668H7.46094C3.80529 79.9668 0.830078 76.9916 0.830078 73.3359V7.39844C0.830078 3.74279 3.80529 0.767578 7.46094 0.767578ZM41.1396 72.9092L41.8223 72.2256L51.1611 62.8887L51.8438 62.2061H41.1396V72.9092ZM64.7471 22.5029C60.082 17.8379 52.583 17.7684 47.833 22.2842L47.6094 22.5029C42.9453 27.1637 42.8745 34.6695 47.3906 39.417L47.6094 39.6406C52.3317 44.3629 60.0166 44.3711 64.7471 39.6406C69.485 34.9059 69.4827 27.2353 64.7471 22.5029ZM54.2344 46.9561L53.8906 46.9072C50.5841 46.4346 47.3974 44.9286 44.8594 42.3906C38.6039 36.1352 38.6046 26.0098 44.8594 19.7549C47.3374 17.2754 50.4831 15.7106 53.8906 15.2275L54.2344 15.1787V7.39844C54.2344 5.88534 53.0033 4.6543 51.4902 4.6543H7.46094C5.94784 4.6543 4.7168 5.88534 4.7168 7.39844V73.3359C4.7168 74.849 5.94784 76.0801 7.46094 76.0801H37.252V62.2969C37.252 60.1036 39.0373 58.3184 41.2305 58.3184H54.2344V46.9561Z" fill="#DFB48F" stroke="#9F0033" stroke-width="0.8"/>
<path d="M58.5771 27.3193C59.3488 26.6732 60.4744 26.7286 61.1797 27.416L61.3145 27.5615C62.0036 28.3847 61.8954 29.6109 61.0723 30.2998L55.667 34.8252C54.7825 35.566 53.4513 35.3758 52.8076 34.4209L50.9219 31.624C50.3219 30.734 50.5572 29.5259 51.4473 28.9258C52.3373 28.326 53.5455 28.5612 54.1455 29.4512L54.5771 30.0918L54.8252 30.46L55.166 30.1748L58.5771 27.3193Z" fill="white" stroke="#9F0033" stroke-width="0.8"/>
</g>
<defs>
<clipPath id="clip0_1226_3330">
<rect width="80" height="80" fill="white" transform="translate(0.429688 0.367188)"/>
</clipPath>
</defs>
</svg>
