<svg width="81" height="81" viewBox="0 0 81 81" fill="none" xmlns="http://www.w3.org/2000/svg">
<g clip-path="url(#clip0_1226_160)">
<path d="M5.23242 43.2306C5.23242 45.8748 7.38383 48.0261 10.0279 48.0261C12.672 48.0261 14.8234 45.8747 14.8234 43.2306C14.8234 42.8755 14.7834 42.5295 14.7098 42.1963L21.5995 38.7456C22.4796 39.7653 23.7798 40.4125 25.2291 40.4125C28.9493 40.4125 31.2545 36.3377 29.3426 33.1552L37.9757 24.5075C39.9552 25.692 42.5212 25.3016 44.0602 23.5184L50.9499 26.9692C50.2857 29.9781 52.5905 32.7991 55.632 32.7991C59.779 32.7991 61.9724 27.857 59.1826 24.7836L69.2327 9.68266C72.3571 10.7923 75.6288 8.45562 75.6288 5.16281C75.6287 2.51859 73.4774 0.367188 70.8332 0.367188C68.189 0.367188 66.0377 2.51859 66.0377 5.16266C66.0377 6.40078 66.5095 7.53094 67.2827 8.38266L57.2326 23.4836C55.3909 22.8294 53.3135 23.3556 52.0023 24.8748L45.1126 21.4241C45.1862 21.0908 45.2262 20.745 45.2262 20.3898C45.2262 17.7456 43.0748 15.5944 40.4307 15.5944C36.712 15.5944 34.4048 19.6681 36.3173 22.8517L27.6843 31.4994C24.1102 29.3605 19.6384 32.5341 20.5476 36.6512L13.6579 40.1019C10.7685 36.755 5.23242 38.7914 5.23242 43.2306ZM70.8332 2.71094C72.1851 2.71094 73.2849 3.81078 73.2849 5.16266C73.2849 6.51453 72.1851 7.61438 70.8332 7.61438C69.4813 7.61438 68.3815 6.51453 68.3815 5.16266C68.3815 3.81078 69.4812 2.71094 70.8332 2.71094ZM55.632 25.5517C56.9838 25.5517 58.0837 26.6516 58.0837 28.0034C58.0837 29.3553 56.9838 30.4552 55.632 30.4552C54.2801 30.4552 53.1802 29.3553 53.1802 28.0034C53.1802 26.6516 54.2799 25.5517 55.632 25.5517ZM40.4305 17.9381C41.7824 17.9381 42.8823 19.038 42.8823 20.3898C42.8823 21.7417 41.7824 22.8416 40.4305 22.8416C39.0787 22.8416 37.9788 21.7417 37.9788 20.3898C37.9788 19.038 39.0785 17.9381 40.4305 17.9381ZM25.2291 33.1652C26.581 33.1652 27.6809 34.265 27.6809 35.6169C27.6809 36.9688 26.581 38.0686 25.2291 38.0686C23.8773 38.0686 22.7774 36.9688 22.7774 35.6169C22.7774 34.265 23.8773 33.1652 25.2291 33.1652ZM10.0279 45.6825C8.67602 45.6825 7.57617 44.5827 7.57617 43.2308C7.57617 41.8789 8.67602 40.7791 10.0279 40.7791C11.3798 40.7791 12.4796 41.8789 12.4796 43.2308C12.4796 44.5827 11.3799 45.6825 10.0279 45.6825Z" fill="white"/>
<path d="M78.3534 78.0236H76.9032V52.2725C76.9032 51.6252 76.3787 51.1006 75.7313 51.1006C75.084 51.1006 74.5595 51.6252 74.5595 52.2725V78.0236H67.1049V19.6406H74.5595V46.8039C74.5595 47.4513 75.084 47.9758 75.7313 47.9758C76.3787 47.9758 76.9032 47.4513 76.9032 46.8039V19.4488C76.9032 18.2622 75.9377 17.2969 74.7513 17.2969H66.9132C65.7266 17.2969 64.7613 18.2623 64.7613 19.4488V78.0236H61.702V42.3964C61.702 41.2098 60.7366 40.2445 59.5502 40.2445H58.3655C57.7182 40.2445 57.1937 40.7691 57.1937 41.4164C57.1937 42.0637 57.7182 42.5883 58.3655 42.5883H59.3584V78.0236H51.904V42.5883H52.8968C53.5441 42.5883 54.0687 42.0637 54.0687 41.4164C54.0687 40.7691 53.5441 40.2445 52.8968 40.2445H51.712C50.5254 40.2445 49.5602 41.21 49.5602 42.3964V78.0236H46.5009V34.7164C46.5009 33.5298 45.5354 32.5647 44.349 32.5647H36.5109C35.3243 32.5647 34.3591 33.53 34.3591 34.7164V78.0236H31.2998V50.01C31.2998 48.8234 30.3343 47.8581 29.1479 47.8581H21.3098C20.1232 47.8581 19.1579 48.8236 19.1579 50.01V78.0236H16.0985V57.6234C16.0985 56.4369 15.1332 55.4717 13.9468 55.4717H6.10789C4.92133 55.4717 3.95602 56.437 3.95602 57.6234V78.0236H2.50586C1.85852 78.0236 1.33398 78.5481 1.33398 79.1955C1.33398 79.8428 1.85852 80.3673 2.50586 80.3673H78.3535C79.0009 80.3673 79.5254 79.8428 79.5254 79.1955C79.5254 78.5481 79.0007 78.0236 78.3534 78.0236ZM6.29977 78.0236V57.8155H13.7541V78.0236H6.29977ZM21.501 78.0236V50.2017H28.9555V78.0236H21.501ZM36.7024 78.0236V34.9084H44.1568V78.0236H36.7024Z" fill="#DFB48F"/>
</g>
<defs>
<clipPath id="clip0_1226_160">
<rect width="80" height="80" fill="white" transform="translate(0.429688 0.367188)"/>
</clipPath>
</defs>
</svg>
