<svg width="60" height="60" viewBox="0 0 60 60" fill="none" xmlns="http://www.w3.org/2000/svg">
<g clip-path="url(#clip0_3151_4841)">
<path d="M55.6055 3.65391H46.3233C45.9701 1.58227 44.1632 0 41.9925 0H18.0075C15.8368 0 14.0299 1.58227 13.6766 3.65391H4.39453C1.97133 3.65391 0 5.62523 0 8.04844V43.1625C0 45.5857 1.97133 47.557 4.39453 47.557H23.9379V51.8482H23.8615C21.0265 51.8482 18.7199 54.1547 18.7199 56.9897V58.5527C18.7199 59.3508 19.3691 60 20.1671 60H39.8326C40.6307 60 41.2799 59.3508 41.2799 58.5527V56.9897C41.2799 54.1547 38.9734 51.8482 36.1384 51.8482H36.0621V47.557H46.4963C46.9818 47.557 47.3752 47.1636 47.3752 46.6781C47.3752 46.1926 46.9818 45.7992 46.4963 45.7992H4.39453C2.94059 45.7992 1.75781 44.6163 1.75781 43.1625V8.04844C1.75781 6.59461 2.94059 5.41172 4.39453 5.41172H13.613V7.16953H4.86328C4.1202 7.16953 3.51562 7.7741 3.51562 8.51719V42.6938C3.51562 43.4368 4.1202 44.0414 4.86328 44.0414H55.1367C55.8798 44.0414 56.4844 43.4368 56.4844 42.6938V8.51719C56.4844 7.7741 55.8798 7.16953 55.1367 7.16953H46.387V5.41172H55.6055C57.0593 5.41172 58.2422 6.59461 58.2422 8.04844V43.1625C58.2422 44.6163 57.0593 45.7992 55.6055 45.7992H50.5979C50.1124 45.7992 49.719 46.1926 49.719 46.6781C49.719 47.1636 50.1124 47.557 50.5979 47.557H55.6055C58.0287 47.557 60 45.5857 60 43.1625V8.04844C60 5.62523 58.0287 3.65391 55.6055 3.65391ZM25.6957 47.557H34.3043V51.8482H25.6957V47.557ZM24.8168 53.6062C24.8183 53.6062 24.8198 53.606 24.8214 53.606H35.1787C35.1803 53.606 35.1817 53.6062 35.1833 53.6062C35.185 53.6062 35.1864 53.606 35.1879 53.606H36.1386C38.0044 53.606 39.5223 55.1239 39.5223 56.9897V58.2422H20.4778V56.9897C20.4778 55.1239 21.9957 53.606 23.8616 53.606H24.8123C24.8123 53.606 24.8153 53.6062 24.8168 53.6062ZM44.6292 42.2831H15.3708V16.2503C15.3708 15.7648 14.9773 15.3714 14.4919 15.3714C14.0065 15.3714 13.613 15.7648 13.613 16.2503V42.2836H5.27344V8.92734H13.613V12.1487C13.613 12.6342 14.0065 13.0276 14.4919 13.0276C14.9773 13.0276 15.3708 12.6342 15.3708 12.1487V4.39453C15.3708 2.9407 16.5536 1.75781 18.0075 1.75781H41.9925C43.4463 1.75781 44.6292 2.9407 44.6292 4.39453V42.2831ZM54.7266 8.92734V42.2836H46.387V8.92734H54.7266ZM30 5.27344C23.7967 5.27344 18.75 10.3201 18.75 16.5234C18.75 22.7268 23.7967 27.7734 30 27.7734C36.2033 27.7734 41.25 22.7268 41.25 16.5234C41.25 10.3201 36.2033 5.27344 30 5.27344ZM30 26.0156C24.7659 26.0156 20.5078 21.7574 20.5078 16.5234C20.5078 11.2895 24.7659 7.03125 30 7.03125C35.2339 7.03125 39.4922 11.2895 39.4922 16.5234C39.4922 21.7574 35.2339 26.0156 30 26.0156Z" fill="#EB0E54"/>
<path d="M39.8687 37.2166H19.6289C19.1435 37.2166 18.75 37.61 18.75 38.0955C18.75 38.581 19.1435 38.9744 19.6289 38.9744H39.8687C40.3542 38.9744 40.7476 38.581 40.7476 38.0955C40.7476 37.61 40.3542 37.2166 39.8687 37.2166ZM39.8687 31.9431H19.6289C19.1435 31.9431 18.75 32.3365 18.75 32.822C18.75 33.3075 19.1435 33.7009 19.6289 33.7009H39.8687C40.3542 33.7009 40.7476 33.3075 40.7476 32.822C40.7476 32.3365 40.3542 31.9431 39.8687 31.9431ZM35.6542 11.9273C34.6117 10.9787 32.9987 11.0329 31.9816 12.0497L27.9779 16.0534L27.4811 15.5566C26.4696 14.5348 24.7664 14.5421 23.752 15.5564C22.7241 16.5844 22.7239 18.2571 23.752 19.2852L25.6993 21.2328C26.3073 21.8405 27.1164 22.1751 27.9778 22.1751C28.8394 22.1751 29.6486 21.8404 30.2566 21.2324L35.7456 15.7434C36.7987 14.699 36.7425 12.9176 35.6542 11.9273ZM34.5026 14.5004L29.0136 19.9894C28.7377 20.2653 28.3698 20.4173 27.9778 20.4173C27.5858 20.4173 27.218 20.2654 26.9422 19.9898L24.995 18.0425C24.6524 17.6997 24.6524 17.1421 24.995 16.7996C25.3332 16.4614 25.9014 16.4595 26.238 16.7995L27.1077 17.6692C27.3401 17.9017 27.6491 18.0298 27.9778 18.0298C28.3065 18.0298 28.6154 17.9018 28.8479 17.6695L33.2246 13.2929C33.5709 12.9463 34.1303 12.9174 34.4711 13.2273C34.8366 13.5598 34.8552 14.152 34.5026 14.5004Z" fill="#24272E"/>
</g>
<defs>
<clipPath id="clip0_3151_4841">
<rect width="60" height="60" fill="white"/>
</clipPath>
</defs>
</svg>
