<svg width="60" height="60" viewBox="0 0 60 60" fill="none" xmlns="http://www.w3.org/2000/svg">
<g clip-path="url(#clip0_3151_4848)">
<path d="M16.0333 24.4259C16.0333 24.567 16.0606 24.7067 16.1136 24.837C16.1666 24.9673 16.2444 25.0857 16.3424 25.1855C16.4404 25.2852 16.5568 25.3643 16.6849 25.4183C16.8129 25.4723 16.9502 25.5 17.0888 25.5H23.2663C23.4049 25.5 23.5422 25.4723 23.6703 25.4183C23.7984 25.3644 23.9147 25.2852 24.0128 25.1855C24.1108 25.0857 24.1885 24.9673 24.2416 24.837C24.2946 24.7067 24.3219 24.567 24.3218 24.4259V19.1185C25.7038 18.8663 26.9546 18.1278 27.8555 17.032C28.7564 15.9363 29.25 14.5531 29.25 13.1245C29.25 11.6958 28.7564 10.3126 27.8555 9.21691C26.9546 8.12117 25.7038 7.38264 24.3218 7.13049V1.82408C24.3219 1.68302 24.2946 1.54333 24.2416 1.413C24.1885 1.28267 24.1108 1.16425 24.0128 1.06451C23.9147 0.964761 23.7984 0.885646 23.6703 0.831682C23.5422 0.777718 23.4049 0.749962 23.2663 0.75H4.64522C3.41371 0.751259 2.23298 1.2496 1.36211 2.13567C0.491247 3.02175 0.00138041 4.22318 3.84979e-08 5.47635V24.4259C-3.7405e-05 24.567 0.0272391 24.7067 0.0802707 24.837C0.133302 24.9673 0.21105 25.0857 0.309072 25.1855C0.407093 25.2852 0.523468 25.3644 0.651547 25.4183C0.779626 25.4723 0.916898 25.5 1.05552 25.5H7.233C7.37163 25.5 7.5089 25.4723 7.63698 25.4183C7.76506 25.3644 7.88143 25.2852 7.97945 25.1855C8.07748 25.0857 8.15522 24.9673 8.20826 24.837C8.26129 24.7067 8.28856 24.567 8.28853 24.4259C8.29969 23.3883 8.71259 22.3971 9.43759 21.6674C10.1626 20.9376 11.1412 20.5284 12.1609 20.5284C13.1807 20.5284 14.1592 20.9376 14.8842 21.6674C15.6092 22.3971 16.0221 23.3883 16.0333 24.4259ZM6.27079 23.3518H2.11104V5.47635C2.11196 4.79276 2.37926 4.13745 2.85433 3.65413C3.3294 3.17081 3.97345 2.89895 4.64522 2.89816H22.2108V8.11017C22.2108 8.25123 22.238 8.39092 22.2911 8.52125C22.3441 8.65158 22.4218 8.77 22.5199 8.86975C22.6179 8.96949 22.7343 9.0486 22.8623 9.10257C22.9904 9.15653 23.1277 9.18429 23.2663 9.18425C24.2858 9.19588 25.2596 9.61614 25.9764 10.3538C26.6933 11.0915 27.0953 12.0871 27.0953 13.1245C27.0953 14.162 26.6932 15.1575 25.9763 15.8952C25.2595 16.6329 24.2856 17.0531 23.2662 17.0647C23.1276 17.0647 22.9903 17.0924 22.8623 17.1464C22.7342 17.2004 22.6178 17.2795 22.5198 17.3792C22.4218 17.479 22.3441 17.5974 22.291 17.7277C22.238 17.858 22.2108 17.9977 22.2108 18.1388V23.3518H18.0511C17.7934 21.9539 17.0637 20.6915 15.9881 19.7832C14.9125 18.8749 13.5587 18.3777 12.1609 18.3777C10.7632 18.3777 9.40938 18.8749 8.33377 19.7832C7.25817 20.6915 6.52844 21.9539 6.27079 23.3518Z" fill="#24272E"/>
<path d="M55.2832 12.75H36.3753C36.2345 12.75 36.0951 12.7781 35.9651 12.8327C35.835 12.8873 35.7168 12.9675 35.6173 13.0684C35.5178 13.1694 35.4388 13.2893 35.385 13.4213C35.3311 13.5533 35.3034 13.6947 35.3035 13.8375V20.2023C35.3034 20.3451 35.3311 20.4866 35.385 20.6185C35.4388 20.7505 35.5178 20.8704 35.6173 20.9714C35.7168 21.0724 35.835 21.1525 35.9651 21.2071C36.0951 21.2618 36.2345 21.2899 36.3753 21.2898C37.4105 21.3015 38.3994 21.7269 39.1274 22.4739C39.8554 23.2208 40.2637 24.2289 40.2637 25.2794C40.2637 26.3299 39.8553 27.338 39.1273 28.0849C38.3993 28.8318 37.4104 29.2573 36.3751 29.2689C36.2344 29.2689 36.095 29.297 35.965 29.3516C35.8349 29.4063 35.7168 29.4864 35.6173 29.5874C35.5177 29.6884 35.4388 29.8083 35.385 29.9402C35.3311 30.0722 35.3034 30.2136 35.3035 30.3564V34.9402H31.0791C30.8274 33.5166 30.0905 32.2281 28.9972 31.3001C27.9039 30.3721 26.5239 29.8637 25.0985 29.8637C23.6731 29.8637 22.2931 30.3721 21.1999 31.3001C20.1066 32.2281 19.3696 33.5166 19.1179 34.9402H13.8218C13.681 34.9401 13.5416 34.9682 13.4116 35.0229C13.2815 35.0775 13.1634 35.1576 13.0638 35.2586C12.9643 35.3596 12.8854 35.4795 12.8315 35.6115C12.7777 35.7434 12.75 35.8849 12.75 36.0277V55.2145C12.7514 56.4833 13.2488 57.6998 14.1331 58.597C15.0174 59.4941 16.2163 59.9987 17.4668 60H55.2832C56.5337 59.9987 57.7326 59.4941 58.6169 58.597C59.5012 57.6998 59.9986 56.4833 60 55.2145V17.5355C59.9986 16.2667 59.5012 15.0502 58.6169 14.153C57.7326 13.2559 56.5337 12.7513 55.2832 12.75ZM42.4506 25.2799C42.449 23.8338 41.9472 22.4343 41.0328 21.3251C40.1185 20.2159 38.8495 19.4676 37.4471 19.2104V14.925H55.2832C55.9654 14.9259 56.6193 15.2011 57.1017 15.6905C57.5841 16.1799 57.8555 16.8434 57.8564 17.5355V34.9402H52.6556C52.5148 34.9401 52.3754 34.9682 52.2454 35.0229C52.1153 35.0775 51.9972 35.1576 51.8976 35.2586C51.7981 35.3596 51.7191 35.4795 51.6653 35.6115C51.6114 35.7434 51.5838 35.8849 51.5838 36.0277C51.5722 37.0781 51.1528 38.0815 50.4166 38.8202C49.6805 39.5588 48.687 39.973 47.6517 39.973C46.6164 39.973 45.6229 39.5587 44.8868 38.8201C44.1506 38.0814 43.7313 37.078 43.7197 36.0276C43.7197 35.8848 43.692 35.7433 43.6382 35.6114C43.5843 35.4794 43.5054 35.3596 43.4058 35.2586C43.3063 35.1576 43.1881 35.0775 43.0581 35.0229C42.928 34.9682 42.7887 34.9401 42.6479 34.9402H37.447V31.3484C38.8493 31.0913 40.1182 30.3431 41.0326 29.2341C41.9469 28.1252 42.4488 26.7258 42.4506 25.2799ZM14.8936 55.2145V37.1152H20.0949C20.2357 37.1153 20.3751 37.0872 20.5051 37.0325C20.6352 36.9779 20.7533 36.8978 20.8529 36.7968C20.9524 36.6958 21.0313 36.5759 21.0852 36.4439C21.139 36.312 21.1667 36.1705 21.1667 36.0277C21.1684 34.9708 21.5834 33.9577 22.3206 33.2109C23.0578 32.4642 24.0568 32.0448 25.0985 32.0448C26.1401 32.0448 27.1392 32.4642 27.8764 33.2109C28.6136 33.9577 29.0286 34.9708 29.0303 36.0277C29.0302 36.1705 29.0579 36.312 29.1118 36.4439C29.1656 36.5759 29.2446 36.6958 29.3441 36.7968C29.4436 36.8978 29.5618 36.9779 29.6919 37.0325C29.8219 37.0872 29.9613 37.1153 30.1021 37.1152H35.3034V41.4016C33.9002 41.6569 32.6301 42.4047 31.7153 43.5141C30.8006 44.6236 30.2993 46.0241 30.2993 47.4706C30.2993 48.9171 30.8006 50.3176 31.7153 51.4271C32.6301 52.5365 33.9002 53.2843 35.3034 53.5396V57.8249H17.4668C16.7847 57.8241 16.1307 57.5489 15.6483 57.0595C15.1659 56.5701 14.8945 55.9066 14.8936 55.2145ZM55.2832 57.825H37.447V52.5477C37.4471 52.4048 37.4194 52.2634 37.3655 52.1315C37.3117 51.9995 37.2327 51.8796 37.1332 51.7786C37.0337 51.6776 36.9155 51.5975 36.7855 51.5429C36.6554 51.4882 36.516 51.4601 36.3753 51.4601C35.3325 51.4601 34.3324 51.0398 33.5951 50.2916C32.8577 49.5435 32.4435 48.5287 32.4435 47.4706C32.4435 46.4125 32.8577 45.3978 33.5951 44.6496C34.3324 43.9014 35.3325 43.4811 36.3753 43.4811C36.516 43.4811 36.6554 43.453 36.7855 43.3984C36.9155 43.3437 37.0337 43.2636 37.1332 43.1626C37.2327 43.0616 37.3117 42.9417 37.3655 42.8098C37.4194 42.6778 37.4471 42.5364 37.447 42.3935V37.8087H41.6709C41.9224 39.2325 42.6593 40.5213 43.7526 41.4495C44.846 42.3777 46.2262 42.8863 47.6517 42.8863C49.0773 42.8863 50.4575 42.3777 51.5508 41.4495C52.6442 40.5213 53.3811 39.2325 53.6326 37.8087H57.8564V55.2145C57.8555 55.9066 57.5841 56.5701 57.1017 57.0595C56.6193 57.5489 55.9653 57.8242 55.2832 57.825Z" fill="#EB0E54"/>
</g>
<defs>
<clipPath id="clip0_3151_4848">
<rect width="60" height="60" fill="white"/>
</clipPath>
</defs>
</svg>
