<svg width="60" height="60" viewBox="0 0 60 60" fill="none" xmlns="http://www.w3.org/2000/svg">
<g clip-path="url(#clip0_3151_4820)">
<path d="M16.9336 24.3408C17.1887 24.3408 17.4406 24.4445 17.6211 24.625C17.8016 24.8055 17.9053 25.0574 17.9053 25.3125C17.9053 25.5674 17.8013 25.8187 17.6211 25.999C17.4406 26.1796 17.1887 26.2842 16.9336 26.2842C16.6786 26.2842 16.4266 26.1796 16.2461 25.999C16.0659 25.8187 15.9619 25.5674 15.9619 25.3125C15.9619 25.0574 16.0656 24.8055 16.2461 24.625C16.4267 24.4444 16.6785 24.3408 16.9336 24.3408Z" fill="#EB0E54" stroke="white" stroke-width="0.4"/>
<mask id="path-2-inside-1_3151_4820" fill="white">
<path d="M56.4838 0H9.84336C7.90485 0 6.32775 1.5771 6.32775 3.51561V22.9687C6.32775 24.9072 7.90485 26.4843 9.84336 26.4843H11.9527C12.6 26.4843 13.1246 25.9595 13.1246 25.3124C13.1246 24.6653 12.6 24.1405 11.9527 24.1405H9.84336C9.19719 24.1405 8.67149 23.6148 8.67149 22.9687V3.51561C8.67149 2.86944 9.19719 2.34374 9.84336 2.34374H56.4838C57.13 2.34374 57.6557 2.86944 57.6557 3.51561V22.9687C57.6557 23.6148 57.13 24.1405 56.4838 24.1405H48.6455C48.3347 24.1405 48.0366 24.264 47.8169 24.4838L43.958 28.3426L40.0992 24.4838C39.8795 24.264 39.5813 24.1405 39.2706 24.1405H30.1317C30.0456 23.9193 29.9482 23.701 29.8379 23.4867C28.9989 21.8566 27.5706 20.6651 25.8165 20.1318L24.1222 19.6166C23.5258 19.435 22.8916 19.7528 22.6794 20.3391L20.0172 27.6972C19.2788 29.738 17.8224 31.4334 15.9165 32.4714L13.4173 33.8321C12.8032 33.0866 11.8733 32.6105 10.8342 32.6105H3.34592C1.50093 32.6105 2.74427e-08 34.1115 2.74427e-08 35.9565V56.6536C-0.000234347 58.4987 1.50081 59.9998 3.34581 59.9998H10.8341C12.0005 59.9998 13.0289 59.3994 13.6279 58.4918L14.8237 58.9608C16.5817 59.6504 18.4308 60 20.3195 60H36.1313C38.5038 60 40.4339 58.0699 40.4339 55.6975C40.4339 54.9122 40.2214 54.176 39.8524 53.5417C41.5978 52.9931 42.8675 51.3603 42.8675 49.4362C42.8675 48.631 42.6446 47.877 42.2581 47.2319C43.9292 46.6408 45.1299 45.0458 45.1299 43.1748C45.1299 41.2259 43.827 39.5765 42.0469 39.0494C42.4089 38.4194 42.6171 37.6904 42.6171 36.9132C42.6171 34.5409 40.687 32.6107 38.3145 32.6107H28.9175L30.2317 28.7091C30.4773 27.9797 30.5936 27.2297 30.5856 26.4844H38.7852L43.1294 30.8286C43.3583 31.0574 43.6582 31.1719 43.958 31.1719C44.2579 31.1719 44.5579 31.0574 44.7867 30.8286L49.131 26.4843H56.4838C58.4223 26.4843 59.9994 24.9072 59.9994 22.9687V3.51561C59.9994 1.5771 58.4223 0 56.4838 0ZM11.8364 56.6537C11.8362 57.2064 11.3867 57.656 10.8341 57.656H3.34581C2.79315 57.656 2.34362 57.2064 2.34362 56.6537V35.9566C2.34362 35.404 2.79315 34.9543 3.34581 34.9543H5.91806V49.3825C5.91806 50.0296 6.44271 50.5544 7.08993 50.5544C7.73716 50.5544 8.2618 50.0296 8.2618 49.3825V34.9543H10.8341C11.2718 34.9543 11.6438 35.2369 11.7801 35.6287C11.7898 35.6854 11.8039 35.7417 11.8224 35.7974C11.8307 35.8494 11.8364 35.9022 11.8364 35.9566V56.6537ZM38.3147 34.9542V34.9543C39.3948 34.9543 40.2734 35.833 40.2734 36.9131C40.2734 37.9932 39.3948 38.872 38.3147 38.872H31.9571C31.3099 38.872 30.7853 39.3968 30.7853 40.0439C30.7853 40.691 31.3099 41.2157 31.9571 41.2157L40.8275 41.216C41.9076 41.216 42.7863 42.0946 42.7863 43.1748C42.7863 44.2549 41.9076 45.1337 40.8275 45.1337H31.9571C31.3099 45.1337 30.7853 45.6584 30.7853 46.3055C30.7853 46.9526 31.3099 47.4774 31.9571 47.4774H38.5651C39.6452 47.4774 40.5239 48.3561 40.5239 49.4362C40.5239 50.5163 39.6452 51.395 38.5651 51.395H31.9571C31.3099 51.395 30.7853 51.9197 30.7853 52.5668C30.7853 53.2139 31.3099 53.7387 31.9571 53.7387H36.1315C37.2116 53.7387 38.0902 54.6175 38.0902 55.6976C38.0902 56.7777 37.2116 57.6564 36.1315 57.6564H20.3195C18.725 57.6564 17.1638 57.3611 15.6794 56.779L14.18 56.1909V36.0855L17.0371 34.5297C19.4466 33.2177 21.2875 31.0745 22.2209 28.4946L24.5047 22.1827L25.1347 22.3742C26.2773 22.7216 27.2076 23.4976 27.7541 24.5594C28.3007 25.6211 28.3917 26.8292 28.0105 27.9608L26.1757 33.4083C26.0553 33.7659 26.1144 34.1597 26.3345 34.466C26.5547 34.7724 26.9088 34.9542 27.2863 34.9542H38.3147Z"/>
</mask>
<path d="M56.4838 0H9.84336C7.90485 0 6.32775 1.5771 6.32775 3.51561V22.9687C6.32775 24.9072 7.90485 26.4843 9.84336 26.4843H11.9527C12.6 26.4843 13.1246 25.9595 13.1246 25.3124C13.1246 24.6653 12.6 24.1405 11.9527 24.1405H9.84336C9.19719 24.1405 8.67149 23.6148 8.67149 22.9687V3.51561C8.67149 2.86944 9.19719 2.34374 9.84336 2.34374H56.4838C57.13 2.34374 57.6557 2.86944 57.6557 3.51561V22.9687C57.6557 23.6148 57.13 24.1405 56.4838 24.1405H48.6455C48.3347 24.1405 48.0366 24.264 47.8169 24.4838L43.958 28.3426L40.0992 24.4838C39.8795 24.264 39.5813 24.1405 39.2706 24.1405H30.1317C30.0456 23.9193 29.9482 23.701 29.8379 23.4867C28.9989 21.8566 27.5706 20.6651 25.8165 20.1318L24.1222 19.6166C23.5258 19.435 22.8916 19.7528 22.6794 20.3391L20.0172 27.6972C19.2788 29.738 17.8224 31.4334 15.9165 32.4714L13.4173 33.8321C12.8032 33.0866 11.8733 32.6105 10.8342 32.6105H3.34592C1.50093 32.6105 2.74427e-08 34.1115 2.74427e-08 35.9565V56.6536C-0.000234347 58.4987 1.50081 59.9998 3.34581 59.9998H10.8341C12.0005 59.9998 13.0289 59.3994 13.6279 58.4918L14.8237 58.9608C16.5817 59.6504 18.4308 60 20.3195 60H36.1313C38.5038 60 40.4339 58.0699 40.4339 55.6975C40.4339 54.9122 40.2214 54.176 39.8524 53.5417C41.5978 52.9931 42.8675 51.3603 42.8675 49.4362C42.8675 48.631 42.6446 47.877 42.2581 47.2319C43.9292 46.6408 45.1299 45.0458 45.1299 43.1748C45.1299 41.2259 43.827 39.5765 42.0469 39.0494C42.4089 38.4194 42.6171 37.6904 42.6171 36.9132C42.6171 34.5409 40.687 32.6107 38.3145 32.6107H28.9175L30.2317 28.7091C30.4773 27.9797 30.5936 27.2297 30.5856 26.4844H38.7852L43.1294 30.8286C43.3583 31.0574 43.6582 31.1719 43.958 31.1719C44.2579 31.1719 44.5579 31.0574 44.7867 30.8286L49.131 26.4843H56.4838C58.4223 26.4843 59.9994 24.9072 59.9994 22.9687V3.51561C59.9994 1.5771 58.4223 0 56.4838 0ZM11.8364 56.6537C11.8362 57.2064 11.3867 57.656 10.8341 57.656H3.34581C2.79315 57.656 2.34362 57.2064 2.34362 56.6537V35.9566C2.34362 35.404 2.79315 34.9543 3.34581 34.9543H5.91806V49.3825C5.91806 50.0296 6.44271 50.5544 7.08993 50.5544C7.73716 50.5544 8.2618 50.0296 8.2618 49.3825V34.9543H10.8341C11.2718 34.9543 11.6438 35.2369 11.7801 35.6287C11.7898 35.6854 11.8039 35.7417 11.8224 35.7974C11.8307 35.8494 11.8364 35.9022 11.8364 35.9566V56.6537ZM38.3147 34.9542V34.9543C39.3948 34.9543 40.2734 35.833 40.2734 36.9131C40.2734 37.9932 39.3948 38.872 38.3147 38.872H31.9571C31.3099 38.872 30.7853 39.3968 30.7853 40.0439C30.7853 40.691 31.3099 41.2157 31.9571 41.2157L40.8275 41.216C41.9076 41.216 42.7863 42.0946 42.7863 43.1748C42.7863 44.2549 41.9076 45.1337 40.8275 45.1337H31.9571C31.3099 45.1337 30.7853 45.6584 30.7853 46.3055C30.7853 46.9526 31.3099 47.4774 31.9571 47.4774H38.5651C39.6452 47.4774 40.5239 48.3561 40.5239 49.4362C40.5239 50.5163 39.6452 51.395 38.5651 51.395H31.9571C31.3099 51.395 30.7853 51.9197 30.7853 52.5668C30.7853 53.2139 31.3099 53.7387 31.9571 53.7387H36.1315C37.2116 53.7387 38.0902 54.6175 38.0902 55.6976C38.0902 56.7777 37.2116 57.6564 36.1315 57.6564H20.3195C18.725 57.6564 17.1638 57.3611 15.6794 56.779L14.18 56.1909V36.0855L17.0371 34.5297C19.4466 33.2177 21.2875 31.0745 22.2209 28.4946L24.5047 22.1827L25.1347 22.3742C26.2773 22.7216 27.2076 23.4976 27.7541 24.5594C28.3007 25.6211 28.3917 26.8292 28.0105 27.9608L26.1757 33.4083C26.0553 33.7659 26.1144 34.1597 26.3345 34.466C26.5547 34.7724 26.9088 34.9542 27.2863 34.9542H38.3147Z" fill="#EB0E54" stroke="white" stroke-width="0.8" mask="url(#path-2-inside-1_3151_4820)"/>
<path d="M48.4414 7.06934H48.4424C49.0837 7.06952 49.6574 7.42588 49.9414 8.00098L50.8682 9.87891L50.915 9.97266L51.0195 9.98828L53.0918 10.2891C53.7268 10.3811 54.2439 10.8158 54.4424 11.4258C54.6408 12.0359 54.4785 12.6924 54.0195 13.1406L52.5205 14.6025L52.4453 14.6758L52.4629 14.7803L52.8174 16.8438C52.926 17.4762 52.6713 18.1022 52.1523 18.4795C51.6333 18.8567 50.9596 18.9058 50.3916 18.6074L48.5381 17.6328L48.4443 17.584L48.3516 17.6338L46.498 18.6084C46.2505 18.7386 45.983 18.8027 45.7178 18.8027C45.3733 18.8027 45.0301 18.6948 44.7363 18.4814C44.2173 18.1043 43.963 17.479 44.0713 16.8467L44.4248 14.7822L44.4424 14.6787L44.3672 14.6055L42.8672 13.1436C42.4075 12.6957 42.2453 12.0399 42.4434 11.4297C42.6415 10.8194 43.158 10.3835 43.793 10.291L45.8652 9.98926L45.9697 9.97461L46.0156 9.87988L46.9424 8.00195C47.2261 7.42656 47.7998 7.06958 48.4414 7.06934ZM48.2627 9.71875L47.6494 10.9619C47.4061 11.4555 46.9354 11.7977 46.3906 11.877L45.0186 12.0771L44.6172 12.1348L44.9072 12.418L45.9004 13.3857C46.2947 13.7697 46.4748 14.3235 46.3818 14.8662L46.1484 16.2324L46.0801 16.6318L46.4385 16.4434L47.666 15.7979C48.1527 15.5418 48.7343 15.5412 49.2217 15.7969L50.4492 16.4424L50.8076 16.6309L50.7393 16.2314L50.5049 14.8643C50.4118 14.3218 50.5914 13.7689 50.9854 13.3848L51.9775 12.416L52.2676 12.1328L51.8672 12.0752L50.4941 11.876C49.9497 11.7969 49.4791 11.4552 49.2354 10.9619L48.6211 9.71875L48.4424 9.35547L48.2627 9.71875Z" fill="#24272E" stroke="white" stroke-width="0.4"/>
<path d="M33.5312 7.06934H33.5322C34.1736 7.06952 34.7472 7.42588 35.0312 8.00098L35.958 9.87891L36.0049 9.97266L36.1094 9.98828L38.1816 10.2891C38.8166 10.3812 39.3336 10.8158 39.5322 11.4258C39.7307 12.036 39.5686 12.6924 39.1094 13.1406L37.6104 14.6025L37.5342 14.6758L37.5527 14.7803L37.9072 16.8438C38.0159 17.4762 37.7612 18.1022 37.2422 18.4795C36.7553 18.8333 36.1329 18.8985 35.5889 18.6592L35.4814 18.6074L33.627 17.6328L33.5342 17.584L33.4414 17.6338L31.5869 18.6084C31.3395 18.7385 31.0727 18.8027 30.8076 18.8027C30.4633 18.8027 30.1198 18.6947 29.8262 18.4814C29.3073 18.1044 29.0529 17.479 29.1611 16.8467L29.5146 14.7822L29.5322 14.6787L29.457 14.6055L27.957 13.1436C27.4974 12.6957 27.3351 12.0399 27.5332 11.4297C27.7313 10.8194 28.2479 10.3835 28.8828 10.291L30.9551 9.98926L31.0596 9.97461L31.1055 9.87988L32.0322 8.00195C32.316 7.42647 32.8896 7.06958 33.5312 7.06934ZM33.3525 9.71875L32.7393 10.9619C32.4956 11.4557 32.025 11.7976 31.4805 11.877L30.1074 12.0771L29.707 12.1348L29.9971 12.418L30.9902 13.3857C31.3845 13.7697 31.5646 14.3235 31.4717 14.8662L31.2373 16.2324L31.1689 16.6318L31.5283 16.4434L32.7549 15.7979C33.2417 15.5417 33.824 15.5409 34.3115 15.7969L35.5391 16.4424L35.8975 16.6309L35.8291 16.2314L35.5947 14.8643C35.5017 14.3218 35.6813 13.7689 36.0752 13.3848L37.0674 12.416L37.3574 12.1328L36.957 12.0752L35.584 11.876C35.0394 11.7969 34.5689 11.4552 34.3252 10.9619L33.7109 9.71777L33.5312 9.35449L33.3525 9.71875Z" fill="#24272E" stroke="white" stroke-width="0.4"/>
<path d="M18.625 7.06934H18.626C19.2674 7.06948 19.8409 7.42585 20.125 8.00098L21.0527 9.87891L21.0986 9.97266L21.2031 9.98828L23.2754 10.2891C23.9102 10.3811 24.4274 10.8158 24.626 11.4258C24.8244 12.036 24.6625 12.6925 24.2031 13.1406L22.7031 14.6025L22.6279 14.6758L22.6465 14.7803L23.001 16.8438C23.1096 17.4762 22.8549 18.1021 22.3359 18.4795C21.8492 18.8333 21.2266 18.8984 20.6826 18.6592L20.5752 18.6074L18.7207 17.6328L18.6279 17.584L18.5352 17.6338L16.6807 18.6084C16.4331 18.7386 16.1656 18.8027 15.9004 18.8027C15.5562 18.8026 15.2134 18.6946 14.9199 18.4814C14.401 18.1044 14.1466 17.479 14.2549 16.8467L14.6084 14.7822L14.626 14.6787L14.5508 14.6055L13.0508 13.1436C12.5912 12.6958 12.4289 12.0399 12.627 11.4297C12.8252 10.8194 13.3416 10.3835 13.9766 10.291L16.0488 9.98926L16.1533 9.97461L16.1992 9.87988L17.126 8.00195C17.4097 7.42649 17.9834 7.06961 18.625 7.06934ZM18.4463 9.71875L17.833 10.9619C17.5893 11.4557 17.1188 11.7977 16.5742 11.877L15.2021 12.0771L14.8008 12.1348L15.0908 12.418L16.084 13.3857C16.4782 13.7699 16.6581 14.3228 16.5654 14.8652L16.332 16.2324L16.2637 16.6318L16.6221 16.4434L17.8496 15.7979C18.3362 15.5419 18.918 15.541 19.4053 15.7969L20.6328 16.4424L20.9922 16.6309L20.9229 16.2314L20.6885 14.8643C20.5954 14.3218 20.775 13.7689 21.1689 13.3848L22.1611 12.416L22.4512 12.1328L22.0508 12.0752L20.6777 11.876C20.1332 11.7969 19.6626 11.4552 19.4189 10.9619L18.8047 9.71777L18.625 9.35449L18.4463 9.71875Z" fill="#24272E" stroke="white" stroke-width="0.4"/>
<path d="M7.08984 52.625C7.6266 52.625 8.06152 53.06 8.06152 53.5967V53.6152C8.06137 54.1518 7.6265 54.5869 7.08984 54.5869C6.55318 54.5869 6.11831 54.1518 6.11816 53.6152V53.5967C6.11816 53.06 6.55309 52.625 7.08984 52.625Z" fill="#EB0E54" stroke="white" stroke-width="0.4"/>
</g>
<defs>
<clipPath id="clip0_3151_4820">
<rect width="60" height="60" fill="white"/>
</clipPath>
</defs>
</svg>
