<svg width="36" height="36" viewBox="0 0 36 36" fill="none" xmlns="http://www.w3.org/2000/svg">
<g clip-path="url(#clip0_3151_4142)">
<path d="M18 0C8.05191 0 0 8.05057 0 18C0 27.9481 8.05057 36 18 36C27.9481 36 36 27.9494 36 18C36 8.05191 27.9494 0 18 0ZM19.4062 33.1228V31.8281C19.4062 31.0515 18.7767 30.4219 18 30.4219C17.2233 30.4219 16.5938 31.0515 16.5938 31.8281V33.1228C9.32618 32.4598 3.54009 26.6728 2.87726 19.4062H4.17192C4.94859 19.4062 5.57817 18.7767 5.57817 18C5.57817 17.2233 4.94859 16.5938 4.17192 16.5938H2.87726C3.54016 9.32618 9.32723 3.54009 16.5938 2.87719V4.17185C16.5938 4.94852 17.2233 5.5781 18 5.5781C18.7767 5.5781 19.4062 4.94852 19.4062 4.17185V2.87719C26.6738 3.54016 32.4599 9.32723 33.1227 16.5938H31.8281C31.0514 16.5938 30.4218 17.2233 30.4218 18C30.4218 18.7767 31.0514 19.4062 31.8281 19.4062H33.1227C32.4598 26.6738 26.6728 32.4599 19.4062 33.1228ZM24.5256 22.5368C25.0748 23.0861 25.0748 23.9764 24.5256 24.5256C23.9764 25.0748 23.0861 25.0747 22.5369 24.5256L17.0056 18.9943C16.7419 18.7307 16.5938 18.3729 16.5938 18V9.70312C16.5938 8.92645 17.2233 8.29688 18 8.29688C18.7767 8.29688 19.4062 8.92645 19.4062 9.70312V17.4175L24.5256 22.5368Z" fill="white"/>
</g>
<defs>
<clipPath id="clip0_3151_4142">
<rect width="36" height="36" fill="white"/>
</clipPath>
</defs>
</svg>
