<svg width="39" height="39" viewBox="0 0 39 39" fill="none" xmlns="http://www.w3.org/2000/svg">
    <path d="M36.2091 10.1035L28.8966 2.79096C28.7827 2.678 28.6476 2.58864 28.4991 2.52799C28.3506 2.46734 28.1916 2.43659 28.0312 2.43752H13.4062C12.4366 2.43752 11.5066 2.82273 10.8209 3.50841C10.1352 4.19409 9.75 5.12407 9.75 6.09377V8.53127C9.75 8.8545 9.8784 9.1645 10.107 9.39306C10.3355 9.62162 10.6455 9.75002 10.9687 9.75002C11.292 9.75002 11.602 9.62162 11.8305 9.39306C12.0591 9.1645 12.1875 8.8545 12.1875 8.53127V6.09377C12.1875 5.77054 12.3159 5.46054 12.5445 5.23198C12.773 5.00342 13.083 4.87502 13.4062 4.87502H26.8125V8.53127C26.8125 9.50097 27.1977 10.4309 27.8834 11.1166C28.5691 11.8023 29.4991 12.1875 30.4687 12.1875H34.125V32.9063C34.125 33.2295 33.9966 33.5395 33.768 33.7681C33.5395 33.9966 33.2295 34.125 32.9062 34.125H18.2812C17.958 34.125 17.648 34.2534 17.4195 34.482C17.1909 34.7105 17.0625 35.0205 17.0625 35.3438C17.0625 35.667 17.1909 35.977 17.4195 36.2056C17.648 36.4341 17.958 36.5625 18.2812 36.5625H32.9062C33.8759 36.5625 34.8059 36.1773 35.4916 35.4916C36.1773 34.8059 36.5625 33.876 36.5625 32.9063V10.9688C36.5634 10.8084 36.5327 10.6494 36.472 10.5009C36.4114 10.3524 36.322 10.2173 36.2091 10.1035ZM29.25 8.53127V6.59346L32.4066 9.75002H30.4687C30.1455 9.75002 29.8355 9.62162 29.607 9.39306C29.3784 9.1645 29.25 8.8545 29.25 8.53127Z" fill="white" />
    <path d="M17.0625 19.5001C17.065 18.2797 16.7619 17.0781 16.1811 16.0048C15.6002 14.9315 14.7599 14.0207 13.7369 13.3553C12.7138 12.6899 11.5405 12.2912 10.3239 12.1954C9.10727 12.0996 7.88601 12.3099 6.77144 12.807C5.65687 13.3041 4.68444 14.0722 3.94278 15.0414C3.20112 16.0106 2.71381 17.15 2.52528 18.3557C2.33675 19.5614 2.45299 20.7952 2.86341 21.9445C3.27382 23.0938 3.96536 24.1222 4.87499 24.9358V35.3439C4.87619 35.5845 4.94858 35.8194 5.08305 36.0189C5.21752 36.2184 5.40804 36.3737 5.63061 36.4651C5.85256 36.5585 6.09718 36.584 6.3336 36.5384C6.57003 36.4929 6.78766 36.3783 6.95905 36.2092L9.74999 33.4061L12.5409 36.2092C12.6548 36.3221 12.7899 36.4115 12.9384 36.4722C13.0868 36.5328 13.2458 36.5636 13.4062 36.5626C13.5661 36.5667 13.7247 36.5334 13.8694 36.4651C14.0919 36.3737 14.2825 36.2184 14.4169 36.0189C14.5514 35.8194 14.6238 35.5845 14.625 35.3439V24.9358C15.39 24.2515 16.0024 23.4139 16.4223 22.4774C16.8423 21.5409 17.0604 20.5265 17.0625 19.5001ZM12.1875 32.4067L10.6153 30.8223C10.502 30.7081 10.3672 30.6174 10.2187 30.5555C10.0702 30.4937 9.91088 30.4618 9.74999 30.4618C9.5891 30.4618 9.4298 30.4937 9.28128 30.5555C9.13277 30.6174 8.99797 30.7081 8.88467 30.8223L7.31249 32.4067V26.3861C8.88773 26.9547 10.6122 26.9547 12.1875 26.3861V32.4067ZM9.74999 24.3751C8.7858 24.3751 7.84327 24.0892 7.04158 23.5535C6.23989 23.0179 5.61505 22.2565 5.24607 21.3657C4.8771 20.4749 4.78056 19.4947 4.96866 18.5491C5.15676 17.6034 5.62106 16.7348 6.30284 16.053C6.98462 15.3712 7.85326 14.9069 8.79892 14.7188C9.74458 14.5307 10.7248 14.6272 11.6156 14.9962C12.5064 15.3652 13.2677 15.99 13.8034 16.7917C14.3391 17.5934 14.625 18.5359 14.625 19.5001C14.625 20.7931 14.1114 22.033 13.1971 22.9473C12.2829 23.8615 11.0429 24.3751 9.74999 24.3751Z" fill="white" />
    <path d="M23.1562 9.75H17.0625C16.7393 9.75 16.4293 9.8784 16.2007 10.107C15.9722 10.3355 15.8438 10.6455 15.8438 10.9688C15.8438 11.292 15.9722 11.602 16.2007 11.8305C16.4293 12.0591 16.7393 12.1875 17.0625 12.1875H23.1562C23.4795 12.1875 23.7895 12.0591 24.018 11.8305C24.2466 11.602 24.375 11.292 24.375 10.9688C24.375 10.6455 24.2466 10.3355 24.018 10.107C23.7895 9.8784 23.4795 9.75 23.1562 9.75Z" fill="white" />
    <path d="M30.4688 15.8438H20.7188C20.3955 15.8438 20.0855 15.9722 19.857 16.2007C19.6284 16.4293 19.5 16.7393 19.5 17.0625C19.5 17.3857 19.6284 17.6957 19.857 17.9243C20.0855 18.1528 20.3955 18.2812 20.7188 18.2812H30.4688C30.792 18.2812 31.102 18.1528 31.3305 17.9243C31.5591 17.6957 31.6875 17.3857 31.6875 17.0625C31.6875 16.7393 31.5591 16.4293 31.3305 16.2007C31.102 15.9722 30.792 15.8438 30.4688 15.8438Z" fill="white" />
    <path d="M30.4688 21.9375H20.7188C20.3955 21.9375 20.0855 22.0659 19.857 22.2945C19.6284 22.523 19.5 22.833 19.5 23.1562C19.5 23.4795 19.6284 23.7895 19.857 24.018C20.0855 24.2466 20.3955 24.375 20.7188 24.375H30.4688C30.792 24.375 31.102 24.2466 31.3305 24.018C31.5591 23.7895 31.6875 23.4795 31.6875 23.1562C31.6875 22.833 31.5591 22.523 31.3305 22.2945C31.102 22.0659 30.792 21.9375 30.4688 21.9375Z" fill="white" />
    <path d="M30.4688 28.0312H18.2812C17.958 28.0312 17.648 28.1597 17.4195 28.3882C17.1909 28.6168 17.0625 28.9268 17.0625 29.25C17.0625 29.5732 17.1909 29.8832 17.4195 30.1118C17.648 30.3403 17.958 30.4688 18.2812 30.4688H30.4688C30.792 30.4688 31.102 30.3403 31.3305 30.1118C31.5591 29.8832 31.6875 29.5732 31.6875 29.25C31.6875 28.9268 31.5591 28.6168 31.3305 28.3882C31.102 28.1597 30.792 28.0312 30.4688 28.0312Z" fill="white" />
</svg>