<svg width="39" height="39" viewBox="0 0 39 39" fill="none" xmlns="http://www.w3.org/2000/svg">
<g clip-path="url(#clip0_3151_4131)">
<path d="M13.2206 20.2507C12.8843 19.5114 12.1709 19.0522 11.3588 19.0522H10.1678C10.4026 14.1079 14.4986 10.1575 19.5 10.1575C21.8866 10.1575 24.1602 11.0616 25.9021 12.7033L26.7748 13.5259L31.544 7.94651L30.7289 7.20094C27.6588 4.39245 23.671 2.8457 19.5 2.8457C15.0514 2.8457 10.869 4.57806 7.72335 7.72381C4.68348 10.7637 2.96346 14.7714 2.85119 19.0522H2.0491C1.23696 19.0522 0.523529 19.5114 0.187263 20.2507C-0.149079 20.99 -0.0263784 21.8295 0.507306 22.4419L6.70389 29.5496L12.9005 22.4418C13.4342 21.8296 13.5569 20.99 13.2206 20.2507ZM6.70389 26.0726L2.57547 21.3371H5.19721L5.14511 20.1449C5.13513 19.9164 5.13026 19.7056 5.13026 19.5004C5.13026 15.662 6.62499 12.0536 9.33903 9.33948C12.0531 6.62536 15.6617 5.13064 19.5 5.13064C22.7281 5.13064 25.8286 6.20395 28.3441 8.17333L26.5569 10.2641C24.5354 8.71448 22.0705 7.87256 19.5 7.87256C13.0884 7.87256 7.87218 13.0888 7.87218 19.5004C7.87218 19.7478 7.88094 20.0065 7.89815 20.2695L7.96815 21.3372H10.8322L6.70389 26.0726Z" fill="white"/>
<path d="M38.4888 17.9897L32.2922 10.8818L26.0956 17.9897C25.5619 18.6019 25.4392 19.4415 25.7755 20.1808C26.1118 20.9201 26.8252 21.3793 27.6374 21.3793H28.6485C27.7717 25.6513 23.9655 28.8434 19.4961 28.8434C17.4071 28.8434 15.4301 28.1658 13.7788 26.8838L12.9179 26.2156L8.17188 31.7677L9.09042 32.5054C12.0636 34.8931 15.6619 36.1552 19.4961 36.1552C23.9447 36.1552 28.127 34.4228 31.2727 31.2771C33.9547 28.595 35.626 25.1141 36.0457 21.3793H36.947C37.7591 21.3793 38.4725 20.9201 38.8088 20.1808C39.1451 19.4415 39.0224 18.6019 38.4888 17.9897ZM33.9001 19.0943L33.8496 20.1839C33.6837 23.7578 32.1947 27.1237 29.657 29.6615C26.9429 32.3756 23.3343 33.8703 19.4961 33.8703C16.5864 33.8703 13.8351 33.0287 11.4706 31.4254L13.2711 29.319C15.1307 30.5061 17.2619 31.1284 19.4961 31.1284C25.5774 31.1284 30.6722 26.3792 31.0949 20.3163L31.18 19.0944H28.1637L32.2922 14.359L36.4206 19.0944L33.9001 19.0943Z" fill="white"/>
</g>
<defs>
<clipPath id="clip0_3151_4131">
<rect width="39" height="39" fill="white"/>
</clipPath>
</defs>
</svg>
