<svg width="46" height="46" viewBox="0 0 46 46" fill="none" xmlns="http://www.w3.org/2000/svg">
    <path d="M0.389646 0.322617C0.821211 -0.108029 1.52017 -0.107283 1.95082 0.324283L45.6494 44.1163C46.08 44.5479 46.0793 45.2469 45.6477 45.6775C45.2161 46.1082 44.5172 46.1074 44.0865 45.6758L0.387979 1.88379C-0.0426662 1.45222 -0.04192 0.753263 0.389646 0.322617Z" fill="#DFB48F" />
    <path d="M45.6773 0.324164C46.1079 0.755731 46.1072 1.45469 45.6756 1.88534L1.88367 45.584C1.4521 46.0146 0.753142 46.0139 0.322496 45.5823C-0.108149 45.1508 -0.107403 44.4518 0.324163 44.0212L44.1161 0.322497C44.5477 -0.108149 45.2466 -0.107403 45.6773 0.324164Z" fill="#DFB48F" />
</svg>