<svg width="343" height="147" viewBox="0 0 343 147" fill="none" xmlns="http://www.w3.org/2000/svg">
    <path opacity="0.8" d="M97.4365 202.5V161.454H-65.1611V122.68L-63.6748 122.667L-2.22559 122.117V122.116L57.5322 121.31L58.3037 101.26L59.0703 81.6211H-65.1611V40.0693L-63.6504 40.0801L9.93262 40.6309H9.9375L83.5205 41.457L84.4238 41.4668L84.8379 42.2705L126.175 122.653L167.37 202.5H265.546V119.914H392.562V202.5H425.389V116.184C425.389 86.4623 425.853 64.8207 424.888 48.9707C423.919 33.0679 421.52 23.4604 416.161 17.4971C410.843 11.5791 402.307 8.9282 388.06 7.85254C373.834 6.77857 354.412 7.29297 327.676 7.29297C301.716 7.29297 282.772 6.95022 268.831 7.8877C254.846 8.82815 246.326 11.0458 240.93 15.8281C235.574 20.5749 232.989 28.1317 231.7 40.6719C230.573 51.6324 230.459 66.0525 230.124 85.1611L229.964 93.6406L228.586 161.361L228.558 162.754L227.166 162.828L211.733 163.654C206.597 163.932 202.417 163.868 199.239 163.399C196.153 162.944 193.628 162.056 192.28 160.325H192.281C192.095 160.096 191.876 159.755 191.661 159.402C191.405 158.984 191.084 158.433 190.704 157.764C189.943 156.423 188.926 154.573 187.687 152.274C185.206 147.676 181.818 141.259 177.769 133.497C169.671 117.975 158.924 97.0526 147.487 74.4805L109.549 1.5H54.6104C54.6013 1.50014 54.5875 1.5007 54.5693 1.50098C54.533 1.50153 54.4782 1.50187 54.4043 1.50293C54.2563 1.50505 54.0309 1.50876 53.7217 1.5127C53.103 1.52057 52.1473 1.53144 50.7988 1.54492C48.102 1.57189 43.8327 1.60762 37.54 1.64355C24.9544 1.71542 4.27351 1.78711 -28.1104 1.78711H-103.5V202.5H97.4365ZM265.546 65.5303C265.546 59.8558 265.754 54.5118 266.104 50.4668C266.278 48.4496 266.489 46.7235 266.735 45.4297C266.858 44.7869 266.997 44.2082 267.158 43.7393C267.239 43.5052 267.337 43.2639 267.459 43.042C267.558 42.863 267.719 42.6095 267.973 42.3906C268.204 42.1751 268.444 42.0689 268.538 42.0283C268.717 41.951 268.905 41.8944 269.072 41.8516C269.412 41.7645 269.836 41.6899 270.312 41.623C271.276 41.4879 272.611 41.362 274.256 41.2451C277.554 41.0107 282.202 40.8041 287.842 40.6318C299.126 40.2871 314.438 40.0801 330.983 40.0801H392.562V87.126H265.546V65.5303Z" stroke="#F5F7FA" stroke-width="3" />
</svg>